v -453.454 517.402 -299.671
v -453.71 516.433 -260.097
v -453.454 517.402 -260.352
v -453.315 516.433 -259.702
v -453.06 517.402 -259.958
v -458.886 510.635 -254.92
v -456.814 511.885 -256.203
v -457.208 511.885 -256.597
v -453.622 515.708 -259.396
v -454.556 514.84 -259.25
v -454.162 514.84 -258.855
v -456.208 512.804 -257.598
v -455.028 513.68 -257.99
v -455.422 513.68 -258.384
v -455.814 512.804 -257.203
v -454.016 515.708 -259.79
v -455.422 513.68 -301.639
v -453.71 516.433 -299.926
v -453.71 516.433 -299.926
v -453.06 517.402 -300.065
v -453.315 516.433 -300.321
v -458.886 510.635 -305.103
v -456.814 511.885 -303.82
v -458.491 510.635 -305.498
v -454.016 515.708 -300.233
v -454.162 514.84 -301.168
v -454.556 514.84 -300.773
v -456.208 512.804 -302.426
v -455.028 513.68 -302.034
v -455.814 512.804 -302.82
v -457.208 511.885 -303.426
v -455.422 513.68 -301.639
v -409.996 511.885 -303.82
v -408.318 510.635 -305.498
v -412.647 514.84 -301.168
v -453.622 515.708 -300.627
v -413.188 515.708 -300.627
v -410.996 512.804 -302.82
v -411.782 513.68 -302.034
v -413.494 516.433 -300.321
v -413.355 517.402 -299.671
v -413.75 517.402 -300.065
v -407.924 510.635 -305.103
v -409.601 511.885 -303.426
v -412.253 514.84 -300.773
v -410.601 512.804 -302.426
v -411.387 513.68 -301.639
v -412.793 515.708 -300.233
v -457.208 511.885 -303.426
v -454.556 514.84 -300.773
v -454.016 515.708 -300.233
v -456.208 512.804 -302.426
v -458.886 509.806 -254.92
v -458.491 510.635 -254.525
v -458.886 510.635 -254.92
v -458.886 509.806 -305.103
v -458.886 510.635 -305.103
v -408.318 509.806 -305.498
v -458.491 510.635 -305.498
v -408.318 510.635 -305.498
v -458.491 509.806 -305.498
v -458.886 510.635 -305.103
v -458.491 510.635 -305.498
v -407.924 509.806 -305.103
v -408.318 510.635 -305.498
v -407.924 510.635 -305.103
v -460.875 509.806 -252.961
v -458.491 509.806 -254.525
v -458.886 509.806 -254.92
v -460.875 509.806 -307.062
v -458.886 509.806 -305.103
v -406.36 509.806 -307.487
v -458.491 509.806 -305.498
v -408.318 509.806 -305.498
v -460.875 509.806 -307.062
v -458.886 509.806 -305.103
v -405.935 509.806 -307.062
v -407.924 509.806 -305.103
v -460.449 506.633 -252.536
v -460.875 509.806 -252.961
v -460.875 506.633 -252.961
v -460.875 506.633 -252.961
v -460.875 509.806 -307.062
v -460.875 506.633 -307.062
v -460.449 506.633 -307.487
v -406.36 509.806 -307.487
v -406.36 506.633 -307.487
v -460.875 506.633 -307.062
v -460.449 509.806 -307.487
v -405.935 509.806 -307.062
v -405.935 506.633 -307.062
v -413.1 516.433 -260.097
v -413.355 517.402 -299.671
v -413.355 517.402 -260.352
v -410.601 512.804 -257.598
v -411.387 513.68 -301.639
v -411.387 513.68 -258.384
v -412.793 515.708 -259.79
v -413.1 516.433 -299.926
v -413.494 516.433 -259.702
v -413.75 517.402 -259.958
v -407.924 510.635 -254.92
v -409.996 511.885 -256.203
v -408.318 510.635 -254.525
v -413.188 515.708 -259.396
v -412.253 514.84 -259.25
v -412.793 515.708 -259.79
v -410.601 512.804 -257.598
v -411.782 513.68 -257.99
v -410.996 512.804 -257.203
v -409.601 511.885 -256.597
v -412.647 514.84 -258.855
v -411.387 513.68 -258.384
v -413.1 516.433 -260.097
v -458.491 510.635 -254.525
v -456.814 511.885 -256.203
v -454.162 514.84 -258.855
v -453.622 515.708 -259.396
v -455.028 513.68 -257.99
v -455.814 512.804 -257.203
v -453.315 516.433 -259.702
v -407.924 510.635 -254.92
v -409.601 511.885 -303.426
v -409.601 511.885 -256.597
v -412.253 514.84 -300.773
v -412.793 515.708 -300.233
v -412.253 514.84 -259.25
v -410.601 512.804 -302.426
v -407.924 509.806 -305.103
v -407.924 510.635 -254.92
v -407.924 509.806 -254.92
v -458.491 509.806 -254.525
v -408.318 510.635 -254.525
v -458.491 510.635 -254.525
v -408.318 509.806 -254.525
v -407.924 510.635 -254.92
v -408.318 510.635 -254.525
v -407.924 509.806 -254.92
v -405.935 509.806 -307.062
v -407.924 509.806 -305.103
v -460.449 509.806 -252.536
v -408.318 509.806 -254.525
v -458.491 509.806 -254.525
v -405.935 509.806 -252.961
v -407.924 509.806 -254.92
v -405.935 506.633 -307.062
v -405.935 509.806 -252.961
v -405.935 506.633 -252.961
v -406.36 506.633 -252.536
v -460.449 509.806 -252.536
v -460.449 506.633 -252.536
v -405.935 506.633 -252.961
v -406.36 509.806 -252.536
v -413.75 517.402 -300.065
v -413.355 517.402 -260.352
v -413.355 517.402 -299.671
v -413.75 517.402 -259.958
v -453.454 517.402 -260.352
v -453.06 517.402 -259.958
v -453.454 517.402 -299.671
v -458.491 510.635 -254.525
v -413.1 516.433 -299.926
v -458.886 510.635 -305.103
v -458.491 509.806 -254.525
v -458.491 509.806 -305.498
v -458.886 509.806 -305.103
v -408.318 509.806 -305.498
v -460.449 509.806 -252.536
v -460.449 509.806 -307.487
v -460.449 509.806 -252.536
v -460.875 509.806 -252.961
v -460.875 509.806 -307.062
v -453.06 517.402 -259.958
v -407.924 510.635 -305.103
v -407.924 510.635 -305.103
v -408.318 509.806 -254.525
v -407.924 509.806 -254.92
v -405.935 509.806 -252.961
v -406.36 509.806 -252.536
v -405.935 509.806 -307.062
v -405.935 509.806 -252.961
v -453.06 517.402 -300.065
vt 0.2734 0.7237
vt 0.2788 0.949
vt 0.2733 0.9476
vt 0.2778 0.9519
vt 0.2712 0.9499
vt 0.3147 0.9785
vt 0.3029 0.9712
vt 0.3052 0.9689
vt 0.2816 0.9534
vt 0.2879 0.9539
vt 0.286 0.9566
vt 0.2995 0.9633
vt 0.2922 0.9615
vt 0.2945 0.9588
vt 0.2972 0.9656
vt 0.2829 0.9508
vt 0.2945 0.7126
vt 0.2788 0.7224
vt 0.2755 0.7168
vt 0.2711 0.7216
vt 0.2725 0.7161
vt 0.3045 0.6818
vt 0.2924 0.6897
vt 0.302 0.6802
vt 0.2768 0.7135
vt 0.2773 0.707
vt 0.2801 0.7089
vt 0.2891 0.6976
vt 0.2823 0.7004
vt 0.2867 0.6954
vt 0.2947 0.692
vt 0.285 0.7026
vt 0.026 0.6897
vt 0.0164 0.6802
vt 0.0411 0.707
vt 0.2743 0.7119
vt 0.0441 0.7119
vt 0.0317 0.6953
vt 0.0361 0.7004
vt 0.0459 0.7161
vt 0.0451 0.7238
vt 0.0473 0.7216
vt 0.014 0.6812
vt 0.0237 0.692
vt 0.0383 0.7089
vt 0.0293 0.6976
vt 0.0334 0.7026
vt 0.0416 0.7135
vt 0.3052 0.7024
vt 0.2879 0.7175
vt 0.2829 0.7206
vt 0.2995 0.7081
vt 0.3194 0.9785
vt 0.3144 0.9807
vt 0.3147 0.9785
vt 0.3194 0.6929
vt 0.3147 0.6929
vt 0.0164 0.6754
vt 0.302 0.6802
vt 0.0164 0.6802
vt 0.302 0.6754
vt 0.3045 0.6818
vt 0.302 0.6802
vt 0.0138 0.6766
vt 0.0164 0.6802
vt 0.014 0.6812
vt 0.3307 0.9896
vt 0.3184 0.9812
vt 0.3194 0.9785
vt 0.3307 0.6817
vt 0.3194 0.6929
vt 0.0053 0.6641
vt 0.302 0.6754
vt 0.0164 0.6754
vt 0.316 0.6653
vt 0.3048 0.6767
vt 0.0029 0.6653
vt 0.0138 0.6766
vt 0.3488 0.9921
vt 0.3307 0.9896
vt 0.3488 0.9896
vt 0.3488 0.9896
vt 0.3307 0.6817
vt 0.3488 0.6817
vt 0.3131 0.6461
vt 0.0053 0.6641
vt 0.0053 0.6461
vt 0.3155 0.6461
vt 0.3131 0.6641
vt 0.0029 0.6653
vt 0.0029 0.6461
vt 0.2788 0.7224
vt 0.2733 0.9476
vt 0.2734 0.7237
vt 0.2995 0.7081
vt 0.2945 0.9588
vt 0.2945 0.7126
vt 0.2829 0.7206
vt 0.2788 0.949
vt 0.2725 0.7161
vt 0.2711 0.7216
vt 0.3045 0.6818
vt 0.2924 0.6897
vt 0.302 0.6802
vt 0.2743 0.7119
vt 0.2801 0.7089
vt 0.2768 0.7135
vt 0.2891 0.6976
vt 0.2823 0.7004
vt 0.2867 0.6954
vt 0.2947 0.692
vt 0.2773 0.707
vt 0.285 0.7026
vt 0.2755 0.7168
vt 0.0164 0.6802
vt 0.026 0.6897
vt 0.0411 0.707
vt 0.0441 0.7119
vt 0.0361 0.7004
vt 0.0317 0.6953
vt 0.0459 0.7161
vt 0.3147 0.6929
vt 0.3052 0.9689
vt 0.3052 0.7024
vt 0.2879 0.9539
vt 0.2829 0.9508
vt 0.2879 0.7175
vt 0.2995 0.9633
vt 0.3194 0.9785
vt 0.3147 0.6929
vt 0.3194 0.6929
vt 0.0164 0.6754
vt 0.302 0.6802
vt 0.0164 0.6802
vt 0.302 0.6754
vt 0.3045 0.6818
vt 0.302 0.6802
vt 0.3194 0.6929
vt 0.3307 0.9896
vt 0.3194 0.9785
vt 0.0053 0.6641
vt 0.302 0.6754
vt 0.0164 0.6754
vt 0.316 0.6653
vt 0.3048 0.6767
vt 0.3488 0.9896
vt 0.3307 0.6817
vt 0.3488 0.6817
vt 0.3131 0.6461
vt 0.0053 0.6641
vt 0.0053 0.6461
vt 0.3155 0.6461
vt 0.3131 0.6641
vt 0.0473 0.7216
vt 0.0451 0.9476
vt 0.0451 0.7238
vt 0.0473 0.9498
vt 0.2733 0.9476
vt 0.2712 0.9499
vt 0.2734 0.7237
vt 0.3144 0.9807
vt 0.044 0.7173
vt 0.3147 0.6929
vt 0.3184 0.9812
vt 0.302 0.6754
vt 0.3048 0.6767
vt 0.0164 0.6754
vt 0.3283 0.9921
vt 0.3131 0.6641
vt 0.3307 0.9921
vt 0.3307 0.9896
vt 0.316 0.6653
vt 0.0473 0.7216
vt 0.3147 0.9785
vt 0.3147 0.9785
vt 0.302 0.6754
vt 0.3048 0.6767
vt 0.3307 0.6817
vt 0.3131 0.6641
vt 0.3307 0.9896
vt 0.316 0.6653
vt 0.2711 0.7216
vn -0.8877 0.3212 -0.3299
vn -0.8484 0.4106 0.3342
vn -0.8877 0.3212 0.3298
vn -0.3343 0.4107 0.8483
vn -0.3298 0.3211 0.8878
vn -0.4365 0.8737 0.2146
vn -0.1825 0.8445 0.5035
vn -0.5035 0.8445 0.1825
vn -0.2968 0.5643 0.7703
vn -0.6981 0.6652 0.2649
vn -0.265 0.6653 0.6979
vn -0.575 0.7904 0.2114
vn -0.239 0.7304 0.6399
vn -0.6399 0.7303 0.239
vn -0.2114 0.7904 0.575
vn -0.7704 0.5643 0.2968
vn -0.6399 0.7303 -0.239
vn -0.8483 0.4107 -0.3342
vn -0.8483 0.4107 -0.3342
vn -0.3298 0.3212 -0.8877
vn -0.3343 0.4107 -0.8483
vn -0.4365 0.8737 -0.2147
vn -0.1824 0.8445 -0.5035
vn -0.2147 0.8737 -0.4364
vn -0.7704 0.5643 -0.2969
vn -0.2649 0.6653 -0.698
vn -0.698 0.6653 -0.2649
vn -0.575 0.7904 -0.2114
vn -0.239 0.7304 -0.6399
vn -0.2114 0.7904 -0.575
vn -0.5035 0.8445 -0.1824
vn -0.6399 0.7303 -0.239
vn 0.1824 0.8445 -0.5035
vn 0.2147 0.8738 -0.4364
vn 0.2649 0.6653 -0.698
vn -0.2968 0.5643 -0.7704
vn 0.2968 0.5643 -0.7704
vn 0.2114 0.7904 -0.575
vn 0.239 0.7304 -0.6399
vn 0.3343 0.4106 -0.8483
vn 0.8877 0.3212 -0.3298
vn 0.3298 0.3212 -0.8877
vn 0.4365 0.8737 -0.2147
vn 0.5035 0.8445 -0.1825
vn 0.698 0.6653 -0.2649
vn 0.575 0.7903 -0.2114
vn 0.6399 0.7303 -0.239
vn 0.7704 0.5643 -0.2968
vn -0.5035 0.8445 -0.1824
vn -0.698 0.6653 -0.2649
vn -0.7704 0.5643 -0.2969
vn -0.575 0.7904 -0.2114
vn -0.9239 0 0.3826
vn -0.7072 0 0.707
vn -0.9239 0 0.3826
vn -0.9239 0 -0.3827
vn -0.9239 0 -0.3827
vn 0 0 -1
vn 0 0 -1
vn 0 0 -1
vn -0.7071 0 -0.7071
vn -0.9239 0 -0.3827
vn -0.7071 0 -0.7071
vn 0.9239 0 -0.3827
vn 0.7071 0 -0.7071
vn 0.9239 0 -0.3827
vn 0 1 0
vn 0 1 0
vn 0 1 0
vn 0 1 0
vn 0 1 0
vn 0 1 0
vn 0 1 0
vn 0 1 0
vn 0 1 0
vn 0 1 0
vn 0 1 0
vn 0 1 0
vn -0.3826 0 0.9239
vn -0.707 0 0.7072
vn -0.707 0 0.7072
vn -1 0 0
vn -1 0 0
vn -1 0 0
vn -0.3827 0 -0.9239
vn 0.3827 0 -0.9239
vn 0.3827 0 -0.9239
vn -0.7071 0 -0.7071
vn -0.3826 0 -0.9239
vn 0.7071 0 -0.7071
vn 0.7071 0 -0.7071
vn 0.8484 0.4105 0.3342
vn 0.8877 0.3212 -0.3298
vn 0.8877 0.3212 0.3298
vn 0.575 0.7903 0.2114
vn 0.6399 0.7303 -0.239
vn 0.6399 0.7303 0.2391
vn 0.7704 0.5643 0.2968
vn 0.8484 0.4106 -0.3343
vn 0.3343 0.4106 0.8483
vn 0.3298 0.3212 0.8877
vn 0.4365 0.8737 0.2147
vn 0.1825 0.8445 0.5035
vn 0.2147 0.8738 0.4364
vn 0.2969 0.5643 0.7703
vn 0.698 0.6653 0.2649
vn 0.7704 0.5643 0.2968
vn 0.575 0.7903 0.2114
vn 0.239 0.7304 0.6399
vn 0.2114 0.7904 0.575
vn 0.5035 0.8445 0.1825
vn 0.2649 0.6653 0.698
vn 0.6399 0.7303 0.2391
vn 0.8484 0.4105 0.3342
vn -0.2147 0.8738 0.4364
vn -0.1825 0.8445 0.5035
vn -0.265 0.6653 0.6979
vn -0.2968 0.5643 0.7703
vn -0.239 0.7304 0.6399
vn -0.2114 0.7904 0.575
vn -0.3343 0.4107 0.8483
vn 0.4365 0.8737 0.2147
vn 0.5035 0.8445 -0.1825
vn 0.5035 0.8445 0.1825
vn 0.698 0.6653 -0.2649
vn 0.7704 0.5643 -0.2968
vn 0.698 0.6653 0.2649
vn 0.575 0.7903 -0.2114
vn 0.9239 0 -0.3827
vn 0.9239 0 0.3826
vn 0.9239 0 0.3826
vn 0 0 1
vn 0 0 1
vn 0 0 1
vn 0.7072 0 0.707
vn 0.9239 0 0.3826
vn 0.7072 0 0.707
vn 0 1 0
vn 0 1 0
vn 0 1 0
vn 0 1 0
vn 0 1 0
vn 0 1 0
vn 0 1 0
vn 0 1 0
vn 1 0 0
vn 1 0 0
vn 1 0 0
vn 0.3826 0 0.9239
vn -0.3826 0 0.9239
vn -0.3826 0 0.9239
vn 0.707 0 0.7072
vn 0.3826 0 0.9239
vn 0 1 0
vn 0 1 0
vn 0 1 0
vn 0 1 0
vn 0 1 0
vn 0 1 0
vn 0 1 0
vn -0.2147 0.8738 0.4364
vn 0.8484 0.4106 -0.3343
vn -0.4365 0.8737 -0.2147
vn -0.7072 0 0.707
vn 0 0 -1
vn -0.9239 0 -0.3827
vn 0.7071 0 -0.7071
vn 0 1 0
vn 0 1 0
vn -0.3826 0 0.9239
vn -1 0 0
vn -0.707 0 -0.7072
vn -0.3298 0.3211 0.8878
vn 0.4365 0.8737 -0.2147
vn 0.9239 0 -0.3827
vn 0 0 1
vn 0.9239 0 0.3826
vn 0 1 0
vn 0 1 0.0001
vn 1 0 0
vn 0.707 0 0.7072
vn 0 1 0
f 1/1/1 2/2/2 3/3/3
f 3/3/3 4/4/4 5/5/5
f 6/6/6 7/7/7 8/8/8
f 9/9/9 10/10/10 11/11/11
f 12/12/12 13/13/13 14/14/14
f 8/8/8 15/15/15 12/12/12
f 11/11/11 14/14/14 13/13/13
f 4/4/4 16/16/16 9/9/9
f 17/17/17 12/12/12 14/14/14
f 18/18/18 16/16/16 2/2/2
f 19/19/19 20/20/20 21/21/21
f 22/22/22 23/23/23 24/24/24
f 25/25/25 26/26/26 27/27/27
f 28/28/28 29/29/29 30/30/30
f 31/31/31 30/30/30 23/23/23
f 26/26/26 32/32/32 27/27/27
f 21/21/21 25/25/25 19/19/19
f 24/24/24 33/33/33 34/34/34
f 35/35/35 36/36/36 37/37/37
f 29/29/29 38/38/38 30/30/30
f 29/29/29 35/35/35 39/39/39
f 23/23/23 38/38/38 33/33/33
f 37/37/37 21/21/21 40/40/40
f 41/41/41 40/40/40 42/42/42
f 43/43/43 33/33/33 44/44/44
f 37/37/37 45/45/45 35/35/35
f 46/46/46 39/39/39 47/47/47
f 44/44/44 38/38/38 46/46/46
f 35/35/35 47/47/47 39/39/39
f 40/40/40 48/48/48 37/37/37
f 20/20/20 40/40/40 21/21/21
f 49/49/49 6/6/6 8/8/8
f 50/50/50 16/16/16 51/51/51
f 17/17/17 10/10/10 50/50/50
f 49/49/49 12/12/12 52/52/52
f 53/53/53 54/54/54 55/55/55
f 56/56/56 55/55/55 57/57/57
f 58/58/58 59/59/59 60/60/60
f 61/61/61 62/62/62 63/63/63
f 64/64/64 65/65/65 66/66/66
f 67/67/67 68/68/68 69/69/69
f 70/70/70 69/69/69 71/71/71
f 72/72/72 73/73/73 74/74/74
f 73/73/73 75/75/75 76/76/76
f 77/77/77 74/74/74 78/78/78
f 79/79/79 80/80/80 81/81/81
f 82/82/82 83/83/83 84/84/84
f 85/85/85 86/86/86 87/87/87
f 88/88/88 89/89/89 85/85/85
f 87/87/87 90/90/90 91/91/91
f 92/92/92 93/93/93 94/94/94
f 95/95/95 96/96/96 97/97/97
f 98/98/98 99/99/99 92/92/92
f 100/100/100 94/94/94 101/101/101
f 102/102/102 103/103/103 104/104/104
f 105/105/105 106/106/106 107/107/107
f 108/108/108 109/109/109 110/110/110
f 111/111/111 110/110/110 103/103/103
f 112/112/112 113/113/113 106/106/106
f 100/100/100 107/107/107 114/114/114
f 115/115/115 103/103/103 116/116/116
f 117/117/117 105/105/105 118/118/118
f 110/110/110 119/119/119 120/120/120
f 109/109/109 117/117/117 119/119/119
f 103/103/103 120/120/120 116/116/116
f 105/105/105 121/121/121 118/118/118
f 101/101/101 121/121/121 100/100/100
f 122/122/122 123/123/123 124/124/124
f 98/98/98 125/125/125 126/126/126
f 127/127/127 96/96/96 125/125/125
f 95/95/95 123/123/123 128/128/128
f 129/129/129 130/130/130 131/131/131
f 132/132/132 133/133/133 134/134/134
f 135/135/135 136/136/136 137/137/137
f 138/138/138 139/139/139 140/140/140
f 141/141/141 142/142/142 143/143/143
f 142/142/142 144/144/144 145/145/145
f 146/146/146 147/147/147 148/148/148
f 149/149/149 150/150/150 151/151/151
f 152/152/152 153/153/153 149/149/149
f 154/154/154 155/155/155 156/156/156
f 157/157/157 158/158/158 159/159/159
f 154/154/154 160/160/160 158/158/158
f 1/1/1 18/18/18 2/2/2
f 3/3/3 2/2/2 4/4/4
f 6/6/6 161/161/161 7/7/7
f 9/9/9 16/16/16 10/10/10
f 12/12/12 15/15/15 13/13/13
f 8/8/8 7/7/7 15/15/15
f 11/11/11 10/10/10 14/14/14
f 4/4/4 2/2/2 16/16/16
f 17/17/17 52/52/52 12/12/12
f 18/18/18 51/51/51 16/16/16
f 19/19/19 1/1/1 20/20/20
f 22/22/22 31/31/31 23/23/23
f 25/25/25 36/36/36 26/26/26
f 28/28/28 32/32/32 29/29/29
f 31/31/31 28/28/28 30/30/30
f 26/26/26 29/29/29 32/32/32
f 21/21/21 36/36/36 25/25/25
f 24/24/24 23/23/23 33/33/33
f 35/35/35 26/26/26 36/36/36
f 29/29/29 39/39/39 38/38/38
f 29/29/29 26/26/26 35/35/35
f 23/23/23 30/30/30 38/38/38
f 37/37/37 36/36/36 21/21/21
f 41/41/41 162/162/162 40/40/40
f 43/43/43 34/34/34 33/33/33
f 37/37/37 48/48/48 45/45/45
f 46/46/46 38/38/38 39/39/39
f 44/44/44 33/33/33 38/38/38
f 35/35/35 45/45/45 47/47/47
f 40/40/40 162/162/162 48/48/48
f 20/20/20 42/42/42 40/40/40
f 49/49/49 163/163/163 6/6/6
f 50/50/50 10/10/10 16/16/16
f 17/17/17 14/14/14 10/10/10
f 49/49/49 8/8/8 12/12/12
f 53/53/53 164/164/164 54/54/54
f 56/56/56 53/53/53 55/55/55
f 58/58/58 165/165/165 59/59/59
f 61/61/61 166/166/166 62/62/62
f 64/64/64 167/167/167 65/65/65
f 67/67/67 168/168/168 68/68/68
f 70/70/70 67/67/67 69/69/69
f 72/72/72 169/169/169 73/73/73
f 73/73/73 169/169/169 75/75/75
f 77/77/77 72/72/72 74/74/74
f 79/79/79 170/170/170 80/80/80
f 82/82/82 171/171/171 83/83/83
f 85/85/85 89/89/89 86/86/86
f 88/88/88 172/172/172 89/89/89
f 87/87/87 86/86/86 90/90/90
f 92/92/92 99/99/99 93/93/93
f 95/95/95 128/128/128 96/96/96
f 98/98/98 126/126/126 99/99/99
f 100/100/100 114/114/114 94/94/94
f 102/102/102 111/111/111 103/103/103
f 105/105/105 112/112/112 106/106/106
f 108/108/108 113/113/113 109/109/109
f 111/111/111 108/108/108 110/110/110
f 112/112/112 109/109/109 113/113/113
f 100/100/100 105/105/105 107/107/107
f 115/115/115 104/104/104 103/103/103
f 117/117/117 112/112/112 105/105/105
f 110/110/110 109/109/109 119/119/119
f 109/109/109 112/112/112 117/117/117
f 103/103/103 110/110/110 120/120/120
f 105/105/105 100/100/100 121/121/121
f 101/101/101 173/173/173 121/121/121
f 122/122/122 174/174/174 123/123/123
f 98/98/98 127/127/127 125/125/125
f 127/127/127 97/97/97 96/96/96
f 95/95/95 124/124/124 123/123/123
f 129/129/129 175/175/175 130/130/130
f 132/132/132 176/176/176 133/133/133
f 135/135/135 177/177/177 136/136/136
f 138/138/138 178/178/178 139/139/139
f 141/141/141 179/179/179 142/142/142
f 142/142/142 179/179/179 144/144/144
f 146/146/146 180/180/180 147/147/147
f 149/149/149 153/153/153 150/150/150
f 152/152/152 181/181/181 153/153/153
f 154/154/154 157/157/157 155/155/155
f 157/157/157 154/154/154 158/158/158
f 154/154/154 182/182/182 160/160/160
