v -827.298 665.982 -276.194
v -824.247 666.759 -276.194
v -829.232 666.759 -276.194
v -830.794 670.594 -276.194
v -821.871 672.375 -276.194
v -830.367 672.375 -276.194
v -823.812 674.156 -276.194
v -828.836 674.156 -276.194
v -823.276 668.285 -276.194
v -830.509 668.583 -276.194
v -816.649 662.721 -276.194
v -820.831 670.594 -276.194
v -830.367 672.375 -283.07
v -830.794 670.594 -276.194
v -830.367 672.375 -276.194
v -828.836 674.156 -276.194
v -828.836 674.156 -283.07
v -823.276 668.285 -283.07
v -824.247 666.759 -276.194
v -824.247 666.759 -283.07
v -830.509 668.583 -283.07
v -829.232 666.759 -276.194
v -830.509 668.583 -276.194
v -823.276 668.285 -283.07
v -819.513 661.125 -276.194
v -823.276 668.285 -276.194
v -819.513 661.125 -283.07
v -816.649 662.721 -276.194
v -819.513 661.125 -276.194
v -827.298 665.982 -283.07
v -824.247 666.759 -283.07
v -825.974 665.982 -283.07
v -821.871 672.375 -283.07
v -830.794 670.594 -283.07
v -830.367 672.375 -283.07
v -823.812 674.156 -283.07
v -828.836 674.156 -283.07
v -823.276 668.285 -283.07
v -830.509 668.583 -283.07
v -829.232 666.759 -283.07
v -816.649 662.721 -283.07
v -819.513 661.125 -283.07
v -825.974 665.982 -283.07
v -827.298 665.982 -276.194
v -827.298 665.982 -283.07
v -829.232 666.759 -283.07
v -830.794 670.594 -283.07
v -825.974 665.982 -276.194
v -825.974 665.982 -276.194
v -819.513 661.125 -276.194
v -823.276 668.285 -276.194
v -819.513 661.125 -283.07
v -816.649 662.721 -283.07
v -820.831 670.594 -283.07
vt 0.2029 0.2838
vt 0.1884 0.2623
vt 0.2022 0.301
vt 0.1768 0.3237
vt 0.1382 0.2595
vt 0.1618 0.3254
vt 0.1298 0.2795
vt 0.1437 0.3184
vt 0.1739 0.259
vt 0.1916 0.316
vt 0.1986 0.1922
vt 0.1492 0.2465
vt 0.1206 0.615
vt 0.067 0.602
vt 0.0673 0.6159
vt 0.0675 0.6297
vt 0.1208 0.6289
vt 0.1192 0.5209
vt 0.066 0.5336
vt 0.1194 0.5328
vt 0.1202 0.5856
vt 0.0666 0.5723
vt 0.0668 0.5864
vt 0.1192 0.5209
vt 0.0649 0.4662
vt 0.0658 0.5218
vt 0.1183 0.4654
vt 0.0646 0.444
vt 0.0649 0.4662
vt 0.1533 0.3311
vt 0.1791 0.3335
vt 0.164 0.3294
vt 0.2056 0.3762
vt 0.1307 0.3731
vt 0.1365 0.387
vt 0.1921 0.3931
vt 0.1512 0.3996
vt 0.1889 0.3447
vt 0.1305 0.3564
vt 0.1385 0.3399
vt 0.2357 0.2909
vt 0.2104 0.2816
vt 0.1196 0.5462
vt 0.0664 0.5573
vt 0.1197 0.5564
vt 0.12 0.5715
vt 0.1204 0.6012
vt 0.0662 0.547
vt 0.1992 0.2736
vt 0.219 0.21
vt 0.0658 0.5218
vt 0.1183 0.4654
vt 0.118 0.4431
vt 0.2118 0.3603
vn 0 0 1
vn 0 0 1
vn 0 0 1
vn 0 0 1
vn 0 0 1
vn 0 0 1
vn 0 0 1
vn 0 0 1
vn 0 0 1
vn 0 0 1
vn 0 0 1
vn 0 0 1
vn -0.8904 0.4552 0
vn -0.9989 0.0474 0
vn -0.8904 0.4553 0
vn -0.7583 0.6519 0
vn -0.7584 0.6518 0
vn 0.8437 -0.5369 0
vn 0.6544 -0.7561 0
vn 0.6545 -0.7561 0
vn -0.9302 -0.367 0
vn -0.6217 -0.7832 0
vn -0.9302 -0.367 0
vn -0.8852 -0.4652 0
vn -0.8852 -0.4652 0
vn -0.8852 -0.4652 0
vn 0.4871 -0.8734 0
vn 0.4871 -0.8734 0
vn 0.4871 -0.8734 0
vn -0 -0.0001 -1
vn -0 -0 -1
vn -0 -0.0001 -1
vn -0 -0 -1
vn -0 -0 -1
vn -0 -0 -1
vn -0 -0 -1
vn -0 -0 -1
vn -0 -0 -1
vn -0 -0 -1
vn -0 -0 -1
vn -0 -0 -1
vn -0 -0 -1
vn 0.2099 -0.9777 0
vn -0.19 -0.9818 0
vn -0.19 -0.9818 0
vn -0.6217 -0.7832 0
vn -0.9989 0.0474 0
vn 0.2099 -0.9777 0
vn 0 0 1
vn 0 0 1
vn 0.8436 -0.5369 0
vn -0.8852 -0.4652 0
vn 0.4871 -0.8734 0
vn -0 -0 -1
f 1/1/1 2/2/2 3/3/3
f 4/4/4 5/5/5 6/6/6
f 6/6/6 7/7/7 8/8/8
f 9/9/9 4/4/4 10/10/10
f 3/3/3 9/9/9 10/10/10
f 9/9/9 11/11/11 12/12/12
f 13/13/13 14/14/14 15/15/15
f 13/13/13 16/16/16 17/17/17
f 18/18/18 19/19/19 20/20/20
f 21/21/21 22/22/22 23/23/23
f 24/24/24 25/25/25 26/26/26
f 27/27/27 28/28/28 29/29/29
f 30/30/30 31/31/31 32/32/32
f 33/33/33 34/34/34 35/35/35
f 36/36/36 35/35/35 37/37/37
f 34/34/34 38/38/38 39/39/39
f 40/40/40 38/38/38 31/31/31
f 38/38/38 41/41/41 42/42/42
f 43/43/43 44/44/44 45/45/45
f 45/45/45 22/22/22 46/46/46
f 21/21/21 14/14/14 47/47/47
f 43/43/43 19/19/19 48/48/48
f 1/1/1 49/49/49 2/2/2
f 4/4/4 12/12/12 5/5/5
f 6/6/6 5/5/5 7/7/7
f 9/9/9 12/12/12 4/4/4
f 3/3/3 2/2/2 9/9/9
f 9/9/9 50/50/50 11/11/11
f 13/13/13 47/47/47 14/14/14
f 13/13/13 15/15/15 16/16/16
f 18/18/18 51/51/51 19/19/19
f 21/21/21 46/46/46 22/22/22
f 24/24/24 52/52/52 25/25/25
f 27/27/27 53/53/53 28/28/28
f 30/30/30 40/40/40 31/31/31
f 33/33/33 54/54/54 34/34/34
f 36/36/36 33/33/33 35/35/35
f 34/34/34 54/54/54 38/38/38
f 40/40/40 39/39/39 38/38/38
f 38/38/38 54/54/54 41/41/41
f 43/43/43 48/48/48 44/44/44
f 45/45/45 44/44/44 22/22/22
f 21/21/21 23/23/23 14/14/14
f 43/43/43 20/20/20 19/19/19
