v 145.764 664.232 569.378
v 146.396 670.696 575.488
v 145.764 664.232 575.488
v 99.2739 670.696 567.87
v 145.168 664.232 568.646
v 99.9431 664.232 568.646
v 94.4391 686.596 561.918
v 150.643 690.96 561.918
v 150.672 686.596 561.918
v 93.8691 686.596 575.488
v 93.8691 690.959 562.653
v 93.8691 686.596 562.618
v 145.3 660.363 569.962
v 147.088 662.297 575.488
v 145.3 660.363 575.488
v 98.6889 662.297 567.02
v 144.693 660.363 569.216
v 100.418 660.363 569.216
v 145.764 664.232 569.378
v 147.088 662.297 575.488
v 147.088 662.297 567.838
v 145.168 664.232 568.646
v 98.6889 662.297 567.02
v 99.9431 664.232 568.646
v 151.242 690.959 562.653
v 152.907 693.141 575.488
v 151.242 690.959 575.488
v 152.245 693.141 559.872
v 94.4677 690.96 561.918
v 92.8659 693.141 559.872
v 151.242 695.323 562.731
v 152.907 693.141 575.488
v 152.907 693.141 560.686
v 94.5312 695.323 561.918
v 152.245 693.141 559.872
v 92.8659 693.141 559.872
v 148.536 679.695 565.956
v 151.242 686.596 575.488
v 148.536 679.695 575.488
v 94.4391 686.596 561.918
v 147.954 679.695 565.242
v 97.1564 679.695 565.242
v 146.396 670.696 568.556
v 145.168 664.232 568.646
v 146.396 670.696 568.556
v 145.764 664.232 569.378
v 99.9431 664.232 568.646
v 98.715 670.696 568.556
v 99.2739 670.696 567.87
v 150.643 690.96 561.918
v 151.242 686.596 562.618
v 150.672 686.596 561.918
v 93.8691 686.596 562.618
v 94.4677 690.96 561.918
v 94.4391 686.596 561.918
v 145.168 664.232 568.646
v 147.088 662.297 567.838
v 146.422 662.297 567.02
v 99.9431 664.232 568.646
v 98.0229 662.297 567.838
v 99.3471 664.232 569.378
v 147.088 662.297 567.838
v 144.693 660.363 569.216
v 146.422 662.297 567.02
v 98.0229 662.297 567.838
v 100.418 660.363 569.216
v 99.8107 660.363 569.962
v 150.643 690.96 561.918
v 152.907 693.141 560.686
v 151.242 690.959 562.653
v 94.4677 690.96 561.918
v 92.204 693.141 560.686
v 92.8659 693.141 559.872
v 152.907 693.141 560.686
v 150.58 695.323 561.918
v 151.242 695.323 562.731
v 92.204 693.141 560.686
v 94.5312 695.323 561.918
v 92.8659 693.141 559.872
v 147.954 679.695 565.242
v 151.242 686.596 562.618
v 148.536 679.695 565.956
v 97.1564 679.695 565.242
v 93.8691 686.596 562.618
v 94.4391 686.596 561.918
v 145.837 670.696 567.87
v 96.5751 679.695 565.956
v 151.242 695.323 575.488
v 150.58 695.323 561.918
v 93.8691 695.323 562.731
v 94.5312 695.323 561.918
v 93.8691 695.323 575.488
v 98.715 670.696 575.488
v 99.3471 664.232 569.378
v 99.3471 664.232 575.488
v 151.242 686.596 575.488
v 151.242 690.959 562.653
v 151.242 690.959 575.488
v 98.0226 662.297 575.488
v 99.8107 660.363 569.962
v 99.8105 660.363 575.488
v 98.0226 662.297 575.488
v 99.3471 664.232 569.378
v 98.0229 662.297 567.838
v 92.204 693.141 575.488
v 93.8691 690.959 562.653
v 93.8691 690.959 575.488
v 92.204 693.141 575.488
v 93.8691 695.323 562.731
v 92.204 693.141 560.686
v 93.8691 686.596 575.488
v 96.5751 679.695 565.956
v 96.5754 679.695 575.488
v 98.715 670.696 568.556
v 99.8107 660.363 569.962
v 145.3 660.363 575.488
v 99.8105 660.363 575.488
v 144.693 660.363 569.216
v 100.418 660.363 569.216
v 145.837 670.696 567.87
v 94.4677 690.96 561.918
v 93.8691 690.959 575.488
v 147.088 662.297 567.838
v 146.422 662.297 567.02
v 145.764 664.232 575.488
v 146.422 662.297 567.02
v 152.907 693.141 560.686
v 150.643 690.96 561.918
v 151.242 695.323 575.488
v 150.58 695.323 561.918
v 151.242 686.596 562.618
v 150.672 686.596 561.918
v 99.3471 664.232 569.378
v 151.242 690.959 562.653
v 93.8691 690.959 562.653
v 145.764 664.232 569.378
v 98.6889 662.297 567.02
v 145.3 660.363 569.962
v 98.6889 662.297 567.02
v 152.245 693.141 559.872
v 93.8691 690.959 562.653
v 152.245 693.141 559.872
v 93.8691 695.323 562.731
v 150.672 686.596 561.918
v 151.242 695.323 562.731
v 151.242 686.596 562.618
v 98.0229 662.297 567.838
v 99.3471 664.232 575.488
v 92.204 693.141 560.686
v 93.8691 695.323 575.488
v 93.8691 686.596 562.618
v 145.3 660.363 569.962
vt 0.5504 0.8881
vt 0.5337 0.9084
vt 0.5337 0.8881
vt 0.7614 0.91
vt 0.6076 0.8897
vt 0.7592 0.8897
vt 0.7776 0.96
vt 0.5892 0.9737
vt 0.5891 0.96
vt 0.8287 0.9596
vt 0.7937 0.9733
vt 0.7936 0.9596
vt 0.9865 0.7672
vt 0.9632 0.7791
vt 0.9619 0.7672
vt 0.2524 0.779
vt 0.0112 0.7672
vt 0.2525 0.7672
vt 0.5504 0.8881
vt 0.5337 0.882
vt 0.5546 0.882
vt 0.6076 0.8897
vt 0.7634 0.8836
vt 0.7592 0.8897
vt 0.5687 0.9721
vt 0.5337 0.979
vt 0.5337 0.9721
vt 0.5839 0.9806
vt 0.7775 0.9737
vt 0.7829 0.9806
vt 0.5685 0.9859
vt 0.5337 0.979
vt 0.5741 0.979
vt 0.7773 0.9875
vt 0.5839 0.9806
vt 0.7829 0.9806
vt 0.5597 0.9367
vt 0.5337 0.9584
vt 0.5337 0.9367
vt 0.7776 0.96
vt 0.5982 0.9383
vt 0.7685 0.9383
vt 0.5526 0.9084
vt 0.6076 0.8897
vt 0.6028 0.9094
vt 0.605 0.8907
vt 0.8095 0.8902
vt 0.8098 0.9096
vt 0.8073 0.909
vt 0.5892 0.9737
vt 0.5865 0.9593
vt 0.5891 0.96
vt 0.7936 0.9596
vt 0.7912 0.9721
vt 0.791 0.9589
vt 0.6076 0.8897
vt 0.6007 0.8862
vt 0.6034 0.8836
vt 0.8095 0.8902
vt 0.8079 0.8832
vt 0.8121 0.8892
vt 0.0078 0.7789
vt 0.0112 0.7672
vt 0.0111 0.779
vt 0.2559 0.779
vt 0.2525 0.7672
vt 0.2558 0.7672
vt 0.5892 0.9737
vt 0.5815 0.9806
vt 0.5867 0.9726
vt 0.7912 0.9721
vt 0.7884 0.9801
vt 0.786 0.9801
vt 0.5815 0.9806
vt 0.5894 0.9875
vt 0.5871 0.99
vt 0.7884 0.9801
vt 0.7916 0.9896
vt 0.786 0.9801
vt 0.5982 0.9383
vt 0.5865 0.9593
vt 0.5957 0.9372
vt 0.8002 0.9367
vt 0.7936 0.9596
vt 0.791 0.9589
vt 0.6053 0.91
vt 0.8027 0.9379
vt 0.0091 0.8976
vt 0.0109 0.8746
vt 0.1674 0.876
vt 0.1655 0.8746
vt 0.1674 0.8976
vt 0.8287 0.9096
vt 0.8121 0.8892
vt 0.8287 0.8892
vt 0.5337 0.9584
vt 0.5687 0.9721
vt 0.5337 0.9721
vt 0.2874 0.779
vt 0.2558 0.7672
vt 0.2803 0.7672
vt 0.8287 0.8832
vt 0.8121 0.8892
vt 0.8079 0.8832
vt 0.8287 0.9801
vt 0.7937 0.9733
vt 0.8287 0.9733
vt 0.8287 0.9801
vt 0.7939 0.987
vt 0.7884 0.9801
vt 0.8287 0.9596
vt 0.8027 0.9379
vt 0.8287 0.9379
vt 0.8098 0.9096
vt 0.2773 0.6911
vt 0.4476 0.6742
vt 0.2773 0.6742
vt 0.4453 0.6933
vt 0.2795 0.6933
vt 0.6053 0.91
vt 0.7775 0.9737
vt 0.8287 0.9733
vt 0.9959 0.7791
vt 0.0111 0.779
vt 0.5337 0.8881
vt 0.6034 0.8836
vt 0.5741 0.979
vt 0.5892 0.9737
vt 0.5337 0.9859
vt 0.5894 0.9875
vt 0.5688 0.9584
vt 0.5891 0.96
vt 0.8121 0.8892
vt 0.5867 0.9726
vt 0.7937 0.9733
vt 0.605 0.8907
vt 0.8052 0.8857
vt 0.0079 0.7672
vt 0.2524 0.779
vt 0.5839 0.9806
vt 0.7937 0.9733
vt 0.5839 0.9806
vt 0.7939 0.987
vt 0.5891 0.96
vt 0.0091 0.876
vt 0.5688 0.9584
vt 0.2559 0.779
vt 0.8287 0.8892
vt 0.7884 0.9801
vt 0.8287 0.987
vt 0.7936 0.9596
vt 0.4476 0.6911
vn 0.9953 -0.0973 0
vn 0.9863 -0.1647 0
vn 0.9953 -0.0973 0
vn 0 -0.2085 -0.978
vn 0 -0.1192 -0.9929
vn 0 -0.1192 -0.9929
vn 0 0 -1
vn 0 0 -1
vn 0 0 -1
vn -1 0 0
vn -1 0 0
vn -1 0 0
vn 0.7343 -0.6788 0
vn 0.7343 -0.6788 0
vn 0.7343 -0.6788 0
vn 0 -0.7504 -0.661
vn 0 -0.7504 -0.661
vn 0 -0.7504 -0.661
vn 0.8252 0.5649 0
vn 0.8252 0.5649 0
vn 0.8252 0.5649 0
vn 0 0.6436 -0.7654
vn 0 0.6436 -0.7654
vn 0 0.6436 -0.7654
vn 0.7948 -0.6068 -0
vn 0.7948 -0.6068 -0
vn 0.7948 -0.6069 0
vn 0 -0.684 -0.7295
vn 0 -0.684 -0.7295
vn 0 -0.684 -0.7295
vn 0.7948 0.6068 0
vn 0.7948 0.6068 0
vn 0.7948 0.6068 0
vn 0 0.684 -0.7295
vn 0 0.684 -0.7295
vn 0 0.684 -0.7295
vn 0.9497 -0.3131 0
vn 0.931 -0.365 0
vn 0.9543 -0.2989 0
vn 0 -0.4339 -0.9009
vn 0 -0.3716 -0.9284
vn 0 -0.3716 -0.9284
vn 0.9849 -0.1728 0
vn 0.7662 -0.1542 -0.6238
vn 0.7515 -0.2473 -0.6117
vn 0.7662 -0.1542 -0.6238
vn -0.7662 -0.1542 -0.6238
vn -0.7513 -0.2473 -0.6119
vn -0.7501 -0.2535 -0.6108
vn 0.7756 0.0051 -0.6312
vn 0.7756 0.0051 -0.6312
vn 0.7756 0.0051 -0.6312
vn -0.7755 0.0051 -0.6313
vn -0.7756 0.0051 -0.6313
vn -0.7755 0.0051 -0.6313
vn 0.5392 0.7187 -0.439
vn 0.5392 0.7187 -0.439
vn 0.5392 0.7187 -0.439
vn -0.5392 0.7187 -0.439
vn -0.5392 0.7187 -0.439
vn -0.5391 0.7187 -0.439
vn 0.4486 -0.8157 -0.3652
vn 0.4487 -0.8157 -0.3652
vn 0.4486 -0.8157 -0.3653
vn -0.4486 -0.8157 -0.3653
vn -0.4487 -0.8156 -0.3652
vn -0.4487 -0.8156 -0.3652
vn 0.5059 -0.7579 -0.4119
vn 0.5059 -0.7578 -0.412
vn 0.5059 -0.7579 -0.4119
vn -0.506 -0.7578 -0.4119
vn -0.5061 -0.7578 -0.4119
vn -0.5061 -0.7578 -0.4119
vn 0.5004 0.7639 -0.4075
vn 0.5005 0.7639 -0.4073
vn 0.5005 0.7639 -0.4073
vn -0.5005 0.7639 -0.4074
vn -0.5005 0.7639 -0.4074
vn -0.5005 0.7639 -0.4074
vn 0.6965 -0.4395 -0.5672
vn 0.6623 -0.5204 -0.539
vn 0.7003 -0.4294 -0.5702
vn -0.6965 -0.4395 -0.5672
vn -0.6622 -0.5204 -0.5392
vn -0.6622 -0.5204 -0.5392
vn 0.7502 -0.2535 -0.6106
vn -0.7003 -0.4294 -0.5702
vn 0 1 0
vn 0 1 0
vn 0 1 0
vn 0 1 -0.0001
vn 0 1 0
vn -0.9863 -0.1647 0
vn -0.9953 -0.0973 0
vn -0.9953 -0.0973 0
vn 1 -0 0
vn 1 -0 0
vn 1 -0 0
vn -0.7343 -0.6788 -0
vn -0.7344 -0.6788 -0
vn -0.7343 -0.6788 -0
vn -0.8251 0.565 -0
vn -0.8252 0.5649 -0
vn -0.8252 0.5649 -0
vn -0.7949 -0.6067 -0
vn -0.7949 -0.6067 -0
vn -0.7949 -0.6067 -0
vn -0.7949 0.6067 0
vn -0.7949 0.6067 0
vn -0.7949 0.6067 0
vn -0.931 -0.3651 0
vn -0.9497 -0.3131 0
vn -0.9543 -0.2989 0
vn -0.9849 -0.1729 0
vn 0 -1 -0
vn 0 -1 -0
vn 0 -1 -0
vn 0 -1 -0.0001
vn 0 -1 -0
vn 0 -0.2085 -0.978
vn 0 0 -1
vn -1 0 0
vn 0.7343 -0.6788 0
vn 0 -0.7504 -0.661
vn 0.8252 0.5649 0
vn 0 0.6436 -0.7654
vn 0.7948 -0.6068 -0
vn 0 -0.684 -0.7295
vn 0.7948 0.6068 0
vn 0 0.684 -0.7295
vn 0.931 -0.365 0
vn 0 -0.4339 -0.9009
vn -0.7662 -0.1542 -0.6238
vn 0.7756 0.0051 -0.6312
vn -0.7756 0.0051 -0.6312
vn 0.5391 0.7187 -0.439
vn -0.5392 0.7187 -0.439
vn 0.4487 -0.8157 -0.3652
vn -0.4486 -0.8157 -0.3653
vn 0.5059 -0.7578 -0.412
vn -0.506 -0.7578 -0.4119
vn 0.5003 0.7639 -0.4075
vn -0.5005 0.7639 -0.4074
vn 0.6623 -0.5204 -0.539
vn 0.0001 1 0
vn 1 -0 0
vn -0.7344 -0.6788 -0
vn -0.8251 0.565 -0
vn -0.7949 -0.6067 -0
vn -0.7949 0.6067 0
vn -0.931 -0.365 0
vn 0 -1 -0
f 1/1/1 2/2/2 3/3/3
f 4/4/4 5/5/5 6/6/6
f 7/7/7 8/8/8 9/9/9
f 10/10/10 11/11/11 12/12/12
f 13/13/13 14/14/14 15/15/15
f 16/16/16 17/17/17 18/18/18
f 19/19/19 20/20/20 21/21/21
f 22/22/22 23/23/23 24/24/24
f 25/25/25 26/26/26 27/27/27
f 28/28/28 29/29/29 30/30/30
f 31/31/31 32/32/32 33/33/33
f 34/34/34 35/35/35 36/36/36
f 37/37/37 38/38/38 39/39/39
f 40/40/40 41/41/41 42/42/42
f 43/43/43 39/39/39 2/2/2
f 41/41/41 4/4/4 42/42/42
f 44/44/44 45/45/45 46/46/46
f 47/47/47 48/48/48 49/49/49
f 50/50/50 51/51/51 52/52/52
f 53/53/53 54/54/54 55/55/55
f 56/56/56 57/57/57 58/58/58
f 59/59/59 60/60/60 61/61/61
f 62/62/62 63/63/63 64/64/64
f 65/65/65 66/66/66 67/67/67
f 68/68/68 69/69/69 70/70/70
f 71/71/71 72/72/72 73/73/73
f 74/74/74 75/75/75 76/76/76
f 77/77/77 78/78/78 79/79/79
f 80/80/80 81/81/81 82/82/82
f 83/83/83 84/84/84 85/85/85
f 86/86/86 82/82/82 45/45/45
f 49/49/49 87/87/87 83/83/83
f 88/88/88 89/89/89 90/90/90
f 89/89/89 91/91/91 90/90/90
f 92/92/92 88/88/88 90/90/90
f 93/93/93 94/94/94 95/95/95
f 96/96/96 97/97/97 98/98/98
f 99/99/99 100/100/100 101/101/101
f 102/102/102 103/103/103 104/104/104
f 105/105/105 106/106/106 107/107/107
f 108/108/108 109/109/109 110/110/110
f 111/111/111 112/112/112 113/113/113
f 113/113/113 114/114/114 93/93/93
f 115/115/115 116/116/116 117/117/117
f 118/118/118 115/115/115 119/119/119
f 1/1/1 43/43/43 2/2/2
f 4/4/4 120/120/120 5/5/5
f 7/7/7 121/121/121 8/8/8
f 10/10/10 122/122/122 11/11/11
f 13/13/13 123/123/123 14/14/14
f 16/16/16 124/124/124 17/17/17
f 19/19/19 125/125/125 20/20/20
f 22/22/22 126/126/126 23/23/23
f 25/25/25 127/127/127 26/26/26
f 28/28/28 128/128/128 29/29/29
f 31/31/31 129/129/129 32/32/32
f 34/34/34 130/130/130 35/35/35
f 37/37/37 131/131/131 38/38/38
f 40/40/40 132/132/132 41/41/41
f 43/43/43 37/37/37 39/39/39
f 41/41/41 120/120/120 4/4/4
f 44/44/44 86/86/86 45/45/45
f 47/47/47 133/133/133 48/48/48
f 50/50/50 134/134/134 51/51/51
f 53/53/53 135/135/135 54/54/54
f 56/56/56 136/136/136 57/57/57
f 59/59/59 137/137/137 60/60/60
f 62/62/62 138/138/138 63/63/63
f 65/65/65 139/139/139 66/66/66
f 68/68/68 140/140/140 69/69/69
f 71/71/71 141/141/141 72/72/72
f 74/74/74 142/142/142 75/75/75
f 77/77/77 143/143/143 78/78/78
f 80/80/80 144/144/144 81/81/81
f 83/83/83 87/87/87 84/84/84
f 86/86/86 80/80/80 82/82/82
f 49/49/49 48/48/48 87/87/87
f 88/88/88 145/145/145 89/89/89
f 93/93/93 114/114/114 94/94/94
f 96/96/96 146/146/146 97/97/97
f 99/99/99 147/147/147 100/100/100
f 102/102/102 148/148/148 103/103/103
f 105/105/105 149/149/149 106/106/106
f 108/108/108 150/150/150 109/109/109
f 111/111/111 151/151/151 112/112/112
f 113/113/113 112/112/112 114/114/114
f 115/115/115 152/152/152 116/116/116
f 118/118/118 152/152/152 115/115/115
