v 1744.1 -126.442 -1136.44
v -1864.39 -126.443 1037.12
v -1864.39 -126.442 -1136.44
v 1746.69 1334.98 1039.71
v -1864.39 -126.443 1037.12
v 1744.1 -126.443 1037.12
v 1746.69 1334.98 -1139.03
v 1744.1 -126.443 1037.12
v 1744.1 -126.442 -1136.44
v -1866.98 1334.98 -1139.03
v 1744.1 -126.442 -1136.44
v -1864.39 -126.442 -1136.44
v -1866.98 1334.98 1039.71
v -1864.39 -126.442 -1136.44
v -1864.39 -126.443 1037.12
v -1852.84 -114.896 1025.57
v 1732.55 -114.895 -1124.89
v -1852.84 -114.895 -1124.89
v -1852.84 -114.896 1025.57
v 1732.55 1347.2 1025.57
v 1732.55 -114.896 1025.57
v 1732.55 -114.896 1025.57
v 1732.55 1347.2 -1124.89
v 1732.55 -114.895 -1124.89
v 1732.55 -114.895 -1124.89
v -1852.84 1347.2 -1124.89
v -1852.84 -114.895 -1124.89
v -1852.84 -114.895 -1124.89
v -1852.84 1347.2 1025.57
v -1852.84 -114.896 1025.57
v 1732.55 1347.2 1025.57
v -1866.98 1334.98 1039.71
v 1746.69 1334.98 1039.71
v 1732.55 1347.2 -1124.89
v 1746.69 1334.98 -1139.03
v -1852.84 1347.2 -1124.89
v -1866.98 1334.98 -1139.03
v -1852.84 1347.2 1025.57
v -1866.98 1334.98 -1139.03
v 1744.1 -126.443 1037.12
v -1866.98 1334.98 1039.71
v 1746.69 1334.98 1039.71
v 1746.69 1334.98 -1139.03
v -1866.98 1334.98 -1139.03
v 1732.55 -114.896 1025.57
v -1852.84 1347.2 1025.57
v 1732.55 1347.2 1025.57
v 1732.55 1347.2 -1124.89
v -1852.84 1347.2 -1124.89
v -1852.84 1347.2 -1124.89
vt 9.2318 2.6857
vt 18.4104 -2.8194
vt 18.4104 2.6857
vt 9.2318 -6.5756
vt 18.4104 -2.8194
vt 9.2318 -2.8194
vt 3.7266 -6.5756
vt 9.2318 -2.8194
vt 3.7266 -2.8194
vt -5.452 -6.5756
vt 3.7266 -2.8194
vt -5.452 -2.8194
vt 18.4104 -6.5756
vt 23.9155 -2.8194
vt 18.4104 -2.8194
vt 18.4104 -2.8194
vt 9.2318 2.6857
vt 18.4104 2.6857
vt 18.4104 -2.8194
vt 9.2318 -6.5756
vt 9.2318 -2.8194
vt 9.2318 -2.8194
vt 3.7266 -6.5756
vt 3.7266 -2.8194
vt 3.7266 -2.8194
vt -5.452 -6.5756
vt -5.452 -2.8194
vt 23.9155 -2.8194
vt 18.4104 -6.5756
vt 18.4104 -2.8194
vt 9.2318 -6.5756
vt 18.4104 -6.5756
vt 9.2318 -6.5756
vt 3.7266 -6.5756
vt 3.7266 -6.5756
vt -5.452 -6.5756
vt -5.452 -6.5756
vt 18.4104 -6.5756
vt 23.9155 -6.5756
vt 9.2318 -2.8194
vt 18.4104 -6.5756
vt 9.2318 -6.5756
vt 3.7266 -6.5756
vt 23.9155 -6.5756
vt 9.2318 -2.8194
vt 18.4104 -6.5756
vt 9.2318 -6.5756
vt 3.7266 -6.5756
vt 23.9155 -6.5756
vt 23.9155 -6.5756
vn 0 -1 -0
vn 0 -1 -0
vn 0 -1 -0
vn 0 -0.0018 1
vn 0 -0.0018 1
vn 0 -0.0018 1
vn 1 -0.0018 -0
vn 1 -0.0018 -0
vn 1 -0.0018 -0
vn 0 -0.0018 -1
vn 0 -0.0018 -1
vn 0 -0.0018 -1
vn -1 -0.0018 -0
vn -1 -0.0018 -0
vn -1 -0.0018 -0
vn 0 1 0
vn 0 1 0
vn 0 1 0
vn 0 0 -1
vn 0 0 -1
vn 0 0 -1
vn -1 -0 0
vn -1 -0 0
vn -1 -0 0
vn 0 -0 1
vn 0 -0 1
vn 0 -0 1
vn 1 0 0
vn 1 0 0
vn 1 0 0
vn 0.3685 0.8534 0.3686
vn -0.3685 0.8534 0.3685
vn 0.3685 0.8534 0.3686
vn 0.3685 0.8534 -0.3686
vn 0.3685 0.8534 -0.3686
vn -0.3685 0.8534 -0.3685
vn -0.3685 0.8534 -0.3685
vn -0.3685 0.8534 0.3685
vn -0.3685 0.8534 -0.3685
vn 0 -1 -0
vn 0 -0.0018 1
vn 1 -0.0018 -0
vn 0 -0.0018 -1
vn -1 -0.0018 -0
vn 0 1 0
vn 0 0 -1
vn -1 -0 0
vn 0 -0 1
vn 1 0 0
vn -0.3685 0.8534 -0.3685
f 1/1/1 2/2/2 3/3/3
f 4/4/4 5/5/5 6/6/6
f 7/7/7 8/8/8 9/9/9
f 10/10/10 11/11/11 12/12/12
f 13/13/13 14/14/14 15/15/15
f 16/16/16 17/17/17 18/18/18
f 19/19/19 20/20/20 21/21/21
f 22/22/22 23/23/23 24/24/24
f 25/25/25 26/26/26 27/27/27
f 28/28/28 29/29/29 30/30/30
f 31/31/31 32/32/32 33/33/33
f 34/34/34 33/33/33 35/35/35
f 36/36/36 35/35/35 37/37/37
f 38/38/38 39/39/39 32/32/32
f 1/1/1 40/40/40 2/2/2
f 4/4/4 41/41/41 5/5/5
f 7/7/7 42/42/42 8/8/8
f 10/10/10 43/43/43 11/11/11
f 13/13/13 44/44/44 14/14/14
f 16/16/16 45/45/45 17/17/17
f 19/19/19 46/46/46 20/20/20
f 22/22/22 47/47/47 23/23/23
f 25/25/25 48/48/48 26/26/26
f 28/28/28 49/49/49 29/29/29
f 31/31/31 38/38/38 32/32/32
f 34/34/34 31/31/31 33/33/33
f 36/36/36 34/34/34 35/35/35
f 38/38/38 50/50/50 39/39/39
