v 487.412 213.582 -233.705
v 485.725 214.03 -246.807
v 487.412 213.056 -246.798
v 486.075 214.355 -233.654
v 485.725 215.978 -246.825
v 486.075 215.9 -233.551
v 487.412 216.951 -246.834
v 488.749 215.9 -233.551
v 487.412 216.673 -233.499
v 489.099 215.978 -246.825
v 488.749 214.355 -233.654
v 489.099 214.03 -246.807
v 486.075 214.209 -232.633
v 486.075 215.734 -232.392
v 487.412 216.497 -232.272
v 488.749 215.734 -232.392
v 488.749 214.209 -232.633
v 487.412 213.272 -231.742
v 487.412 213.446 -232.753
v 486.075 214.029 -231.59
v 486.075 215.544 -231.284
v 488.749 215.544 -231.284
v 487.412 216.301 -231.132
v 488.749 214.029 -231.59
v 487.412 213.055 -230.805
v 486.075 213.799 -230.597
v 486.075 215.288 -230.181
v 488.749 215.288 -230.181
v 487.412 216.032 -229.974
v 488.749 213.799 -230.597
v 487.412 212.776 -229.953
v 486.075 213.495 -229.668
v 486.075 214.933 -229.098
v 488.749 214.933 -229.098
v 487.412 215.652 -228.813
v 488.749 213.495 -229.668
v 487.412 212.421 -229.195
v 486.075 213.095 -228.814
v 486.075 214.443 -228.052
v 488.749 214.443 -228.052
v 487.412 215.117 -227.672
v 488.749 213.095 -228.814
v 487.412 211.971 -228.525
v 486.075 212.575 -228.039
v 486.075 213.783 -227.068
v 488.749 213.783 -227.068
v 487.412 214.387 -226.582
v 488.749 212.575 -228.039
v 486.075 211.874 -227.307
v 486.075 212.958 -226.207
v 487.412 213.5 -225.657
v 488.749 212.958 -226.207
v 488.749 211.874 -227.307
v 487.412 211.332 -227.858
v 486.075 211 -226.494
v 486.075 212.102 -225.41
v 487.412 212.653 -224.869
v 488.749 212.102 -225.41
v 488.749 211 -226.494
v 486.075 210.11 -225.505
v 487.412 210.449 -227.036
v 487.412 209.503 -225.985
v 486.075 211.324 -224.546
v 487.412 211.931 -224.067
v 488.749 211.324 -224.546
v 488.749 210.11 -225.505
v 486.075 209.309 -224.345
v 487.412 208.637 -224.731
v 486.075 210.652 -223.573
v 487.412 211.324 -223.187
v 488.749 210.652 -223.573
v 488.749 209.309 -224.345
v 486.075 208.675 -222.994
v 487.412 207.944 -223.254
v 486.075 210.137 -222.475
v 487.412 210.868 -222.216
v 488.749 210.137 -222.475
v 488.749 208.675 -222.994
v 486.075 208.289 -221.443
v 487.412 207.521 -221.55
v 486.075 209.827 -221.227
v 487.412 210.596 -221.119
v 488.749 209.827 -221.227
v 488.749 208.289 -221.443
v 487.412 207.454 -219.64
v 486.075 208.228 -219.691
v 486.075 209.777 -219.792
v 488.749 209.777 -219.792
v 487.412 210.551 -219.842
v 488.749 208.228 -219.691
v 487.412 207.8 -217.565
v 486.075 208.552 -217.751
v 486.075 210.055 -218.121
v 488.749 210.055 -218.121
v 488.749 208.552 -217.751
v 486.075 209.134 -215.981
v 487.412 208.421 -215.678
v 486.075 210.56 -216.586
v 487.412 211.274 -216.889
v 487.412 210.807 -218.306
v 488.749 210.56 -216.586
v 488.749 209.134 -215.981
v 486.075 209.826 -214.667
v 486.075 211.107 -215.549
v 487.412 211.748 -215.989
v 488.749 211.107 -215.549
v 488.749 209.826 -214.667
v 487.412 209.186 -214.227
v 486.075 210.644 -213.735
v 486.075 211.656 -214.923
v 487.412 212.162 -215.517
v 488.749 211.656 -214.923
v 488.749 210.644 -213.735
v 487.412 211.26 -212.545
v 487.412 210.138 -213.142
v 486.148 212.164 -214.562
v 486.148 211.561 -213.217
v 487.412 212.465 -215.235
v 488.676 212.164 -214.562
v 487.412 212.312 -211.764
v 485.764 212.484 -212.704
v 485.764 212.828 -214.586
v 489.06 212.828 -214.586
v 487.412 212.999 -215.526
v 489.06 212.484 -212.704
v 488.676 211.561 -213.217
v 485.738 213.307 -212.562
v 487.412 213.193 -211.601
v 485.738 213.535 -214.483
v 487.412 213.649 -215.444
v 489.086 213.535 -214.483
v 489.086 213.307 -212.562
v 487.412 214.366 -212.162
v 486.162 214.353 -212.884
v 486.162 214.326 -214.327
v 488.662 214.326 -214.327
v 488.662 214.353 -212.884
v 487.472 214.366 -212.197
v 487.412 214.312 -215.049
vt 0.1725 0.8797
vt 0.0035 0.8872
vt 0.0036 0.871
vt 0.1731 0.8926
vt 0.0033 0.9196
vt 0.1745 0.9183
vt 0.0032 0.9358
vt 0.1745 0.9183
vt 0.1751 0.9311
vt 0.0033 0.9196
vt 0.1731 0.8926
vt 0.0035 0.8872
vt 0.1863 0.8901
vt 0.1894 0.9155
vt 0.191 0.9282
vt 0.1894 0.9155
vt 0.1863 0.8901
vt 0.1978 0.8746
vt 0.1848 0.8775
vt 0.1998 0.8872
vt 0.2037 0.9124
vt 0.2037 0.9124
vt 0.2057 0.925
vt 0.1998 0.8872
vt 0.2099 0.871
vt 0.2126 0.8833
vt 0.2179 0.9081
vt 0.2179 0.9081
vt 0.2206 0.9205
vt 0.2126 0.8833
vt 0.2209 0.8663
vt 0.2245 0.8783
vt 0.2319 0.9022
vt 0.2319 0.9022
vt 0.2356 0.9142
vt 0.2245 0.8783
vt 0.2306 0.8604
vt 0.2355 0.8716
vt 0.2454 0.894
vt 0.2454 0.894
vt 0.2503 0.9053
vt 0.2355 0.8716
vt 0.2393 0.8529
vt 0.2455 0.863
vt 0.2581 0.8831
vt 0.2581 0.8831
vt 0.2643 0.8931
vt 0.2455 0.863
vt 0.255 0.8513
vt 0.2692 0.8693
vt 0.2763 0.8784
vt 0.2692 0.8693
vt 0.255 0.8513
vt 0.2479 0.8423
vt 0.2655 0.8368
vt 0.2794 0.8551
vt 0.2864 0.8643
vt 0.2794 0.8551
vt 0.2655 0.8368
vt 0.2782 0.822
vt 0.2585 0.8276
vt 0.272 0.8119
vt 0.2906 0.8422
vt 0.2968 0.8523
vt 0.2906 0.8422
vt 0.2782 0.822
vt 0.2932 0.8086
vt 0.2882 0.7975
vt 0.3031 0.831
vt 0.3081 0.8422
vt 0.3031 0.831
vt 0.2932 0.8086
vt 0.3106 0.7981
vt 0.3073 0.7859
vt 0.3173 0.8224
vt 0.3206 0.8346
vt 0.3173 0.8224
vt 0.3106 0.7981
vt 0.3306 0.7917
vt 0.3292 0.7789
vt 0.3334 0.8173
vt 0.3348 0.83
vt 0.3334 0.8173
vt 0.3306 0.7917
vt 0.3539 0.7778
vt 0.3532 0.7907
vt 0.3519 0.8164
vt 0.3519 0.8164
vt 0.3513 0.8293
vt 0.3532 0.7907
vt 0.3806 0.7835
vt 0.3782 0.796
vt 0.3734 0.8211
vt 0.3734 0.8211
vt 0.3782 0.796
vt 0.401 0.8057
vt 0.4049 0.7939
vt 0.3932 0.8295
vt 0.3893 0.8413
vt 0.3711 0.8336
vt 0.3932 0.8295
vt 0.401 0.8057
vt 0.418 0.8172
vt 0.4066 0.8386
vt 0.4009 0.8492
vt 0.4066 0.8386
vt 0.418 0.8172
vt 0.4237 0.8066
vt 0.43 0.8308
vt 0.4147 0.8477
vt 0.407 0.8561
vt 0.4147 0.8477
vt 0.43 0.8308
vt 0.4454 0.8411
vt 0.4377 0.8224
vt 0.4193 0.8561
vt 0.4367 0.8461
vt 0.4107 0.8611
vt 0.4193 0.8561
vt 0.4554 0.8586
vt 0.4433 0.8615
vt 0.419 0.8672
vt 0.419 0.8672
vt 0.4069 0.87
vt 0.4433 0.8615
vt 0.4367 0.8461
vt 0.4451 0.8752
vt 0.4575 0.8733
vt 0.4204 0.8789
vt 0.408 0.8808
vt 0.4204 0.8789
vt 0.4451 0.8752
vt 0.4497 0.8991
vt 0.441 0.8925
vt 0.4224 0.8921
vt 0.4224 0.8921
vt 0.441 0.8925
vt 0.4492 0.8991
vt 0.4125 0.8982
vn -0 -0.9987 -0.0506
vn -0.8658 -0.4991 0.0355
vn -0 -0.9992 0.0401
vn -0.8767 -0.4807 -0.0164
vn -0.8654 0.5004 0.0259
vn -0.8557 0.515 0.0493
vn -0 0.9998 0.021
vn 0.8557 0.5151 0.0493
vn 0 0.9967 0.0812
vn 0.8655 0.5003 0.0259
vn 0.8767 -0.4807 -0.0164
vn 0.8658 -0.4992 0.0354
vn -0.868 -0.4906 -0.0773
vn -0.8641 0.4972 0.0783
vn 0 0.9878 0.1556
vn 0.8641 0.4972 0.0783
vn 0.868 -0.4906 -0.0773
vn -0 -0.9803 -0.1977
vn 0 -0.9878 -0.1556
vn -0.87 -0.4833 -0.0974
vn -0.8621 0.4967 0.1002
vn 0.8621 0.4967 0.1002
vn 0 0.9803 0.1976
vn 0.87 -0.4833 -0.0974
vn -0 -0.9632 -0.2688
vn -0.8722 -0.4711 -0.1314
vn -0.86 0.4915 0.1371
vn 0.86 0.4915 0.1371
vn 0 0.9632 0.2688
vn 0.8722 -0.4711 -0.1314
vn -0 -0.9296 -0.3685
vn -0.8746 -0.4508 -0.1787
vn -0.8579 0.4777 0.1894
vn 0.8578 0.4777 0.1894
vn 0 0.9296 0.3685
vn 0.8746 -0.4507 -0.1787
vn -0 -0.8706 -0.4919
vn -0.8768 -0.4186 -0.2366
vn -0.8559 0.4503 0.2544
vn 0.8559 0.4503 0.2544
vn -0 0.8706 0.492
vn 0.8768 -0.4187 -0.2366
vn -0 -0.7793 -0.6267
vn -0.8784 -0.3725 -0.2996
vn -0.8545 0.4048 0.3256
vn 0.8545 0.4048 0.3256
vn 0 0.7792 0.6267
vn 0.8784 -0.3725 -0.2996
vn -0.87 -0.346 -0.3512
vn -0.8621 0.3556 0.361
vn -0 0.7017 0.7125
vn 0.8621 0.3556 0.361
vn 0.87 -0.346 -0.3512
vn -0 -0.7017 -0.7125
vn -0.86 -0.3638 -0.3578
vn -0.8723 0.3487 0.3429
vn 0 0.713 0.7012
vn 0.8723 0.3487 0.3429
vn 0.86 -0.3638 -0.3578
vn -0.8574 -0.4038 -0.3189
vn -0 -0.713 -0.7012
vn -0 -0.7848 -0.6198
vn -0.8751 0.3798 0.3
vn 0 0.7848 0.6198
vn 0.8751 0.3799 0.3
vn 0.8574 -0.4038 -0.3189
vn -0.855 -0.4496 -0.2584
vn 0 -0.867 -0.4983
vn -0.8778 0.4154 0.2387
vn -0 0.867 0.4983
vn 0.8778 0.4154 0.2387
vn 0.855 -0.4496 -0.2584
vn -0.8531 -0.4916 -0.1745
vn 0 -0.9424 -0.3346
vn -0.88 0.4477 0.1589
vn -0 0.9424 0.3345
vn 0.8799 0.4477 0.1589
vn 0.8531 -0.4916 -0.1745
vn -0.8523 -0.518 -0.0726
vn 0 -0.9903 -0.1388
vn -0.8809 0.4687 0.0657
vn -0 0.9903 0.1387
vn 0.8809 0.4687 0.0657
vn 0.8523 -0.518 -0.0726
vn -0 -0.9979 0.0651
vn -0.8528 -0.5211 0.034
vn -0.8803 0.4734 -0.0309
vn 0.8803 0.4734 -0.0309
vn -0 0.9979 -0.0651
vn 0.8528 -0.5211 0.034
vn -0 -0.971 0.2393
vn -0.8558 -0.5022 0.1238
vn -0.8768 0.4668 -0.115
vn 0.8768 0.4668 -0.115
vn 0.8558 -0.5022 0.1238
vn -0.8549 -0.4775 0.2027
vn -0 -0.9205 0.3907
vn -0.8779 0.4408 -0.1871
vn 0 0.9205 -0.3908
vn 0 0.9709 -0.2393
vn 0.8779 0.4408 -0.1871
vn 0.8549 -0.4775 0.2027
vn -0.8507 -0.4331 0.2979
vn -0.8828 0.387 -0.2662
vn 0 0.8239 -0.5667
vn 0.8828 0.387 -0.2662
vn 0.8507 -0.4331 0.2979
vn -0 -0.8239 0.5667
vn -0.848 -0.3144 0.4268
vn -0.8837 0.3505 -0.3103
vn 0 0.7262 -0.6874
vn 0.8846 0.3498 -0.3085
vn 0.8467 -0.3133 0.4301
vn -0.0113 -0.5324 0.8464
vn -0.0031 -0.6223 0.7828
vn -0.8656 -0.1012 -0.4904
vn -0.8284 -0.3696 0.421
vn -0.0484 0.0481 -0.9977
vn 0.8656 -0.1013 -0.4904
vn -0.0096 -0.3909 0.9204
vn -0.8326 -0.3248 0.4486
vn -0.8342 -0.1863 -0.5191
vn 0.8342 -0.1862 -0.5191
vn 0.0235 -0.159 -0.987
vn 0.8337 -0.3176 0.4518
vn 0.8285 -0.3658 0.424
vn -0.8327 0.1539 0.5319
vn 0.0014 0.1069 0.9943
vn -0.8569 0.2502 -0.4507
vn 0 0.3127 -0.9498
vn 0.8591 0.2476 -0.4479
vn 0.832 0.1544 0.5328
vn 0.0012 0.781 0.6245
vn -0.5346 0.7894 0.3016
vn -0.5136 0.8007 -0.3085
vn 0.5026 0.7977 -0.3333
vn 0.5419 0.7827 0.3062
vn 0.2715 0.8487 0.4539
vn 0.0104 0.7873 -0.6165
f 1/1/1 2/2/2 3/3/3
f 4/4/4 5/5/5 2/2/2
f 6/6/6 7/7/7 5/5/5
f 8/8/8 7/7/7 9/9/9
f 10/10/10 11/11/11 12/12/12
f 1/1/1 12/12/12 11/11/11
f 1/1/1 13/13/13 4/4/4
f 4/4/4 14/14/14 6/6/6
f 6/6/6 15/15/15 9/9/9
f 15/15/15 8/8/8 9/9/9
f 16/16/16 11/11/11 8/8/8
f 17/17/17 1/1/1 11/11/11
f 18/18/18 13/13/13 19/19/19
f 20/20/20 14/14/14 13/13/13
f 21/21/21 15/15/15 14/14/14
f 22/22/22 15/15/15 23/23/23
f 16/16/16 24/24/24 17/17/17
f 18/18/18 17/17/17 24/24/24
f 25/25/25 20/20/20 18/18/18
f 26/26/26 21/21/21 20/20/20
f 27/27/27 23/23/23 21/21/21
f 28/28/28 23/23/23 29/29/29
f 22/22/22 30/30/30 24/24/24
f 25/25/25 24/24/24 30/30/30
f 31/31/31 26/26/26 25/25/25
f 32/32/32 27/27/27 26/26/26
f 33/33/33 29/29/29 27/27/27
f 34/34/34 29/29/29 35/35/35
f 28/28/28 36/36/36 30/30/30
f 31/31/31 30/30/30 36/36/36
f 37/37/37 32/32/32 31/31/31
f 38/38/38 33/33/33 32/32/32
f 39/39/39 35/35/35 33/33/33
f 40/40/40 35/35/35 41/41/41
f 34/34/34 42/42/42 36/36/36
f 37/37/37 36/36/36 42/42/42
f 43/43/43 38/38/38 37/37/37
f 44/44/44 39/39/39 38/38/38
f 45/45/45 41/41/41 39/39/39
f 46/46/46 41/41/41 47/47/47
f 40/40/40 48/48/48 42/42/42
f 43/43/43 42/42/42 48/48/48
f 43/43/43 49/49/49 44/44/44
f 44/44/44 50/50/50 45/45/45
f 45/45/45 51/51/51 47/47/47
f 51/51/51 46/46/46 47/47/47
f 52/52/52 48/48/48 46/46/46
f 53/53/53 43/43/43 48/48/48
f 54/54/54 55/55/55 49/49/49
f 49/49/49 56/56/56 50/50/50
f 50/50/50 57/57/57 51/51/51
f 57/57/57 52/52/52 51/51/51
f 58/58/58 53/53/53 52/52/52
f 59/59/59 54/54/54 53/53/53
f 60/60/60 61/61/61 62/62/62
f 55/55/55 63/63/63 56/56/56
f 64/64/64 56/56/56 63/63/63
f 64/64/64 58/58/58 57/57/57
f 65/65/65 59/59/59 58/58/58
f 66/66/66 61/61/61 59/59/59
f 67/67/67 62/62/62 68/68/68
f 60/60/60 69/69/69 63/63/63
f 70/70/70 63/63/63 69/69/69
f 70/70/70 65/65/65 64/64/64
f 71/71/71 66/66/66 65/65/65
f 72/72/72 62/62/62 66/66/66
f 73/73/73 68/68/68 74/74/74
f 67/67/67 75/75/75 69/69/69
f 76/76/76 69/69/69 75/75/75
f 76/76/76 71/71/71 70/70/70
f 77/77/77 72/72/72 71/71/71
f 78/78/78 68/68/68 72/72/72
f 79/79/79 74/74/74 80/80/80
f 81/81/81 73/73/73 79/79/79
f 82/82/82 75/75/75 81/81/81
f 82/82/82 77/77/77 76/76/76
f 83/83/83 78/78/78 77/77/77
f 84/84/84 74/74/74 78/78/78
f 85/85/85 79/79/79 80/80/80
f 86/86/86 81/81/81 79/79/79
f 87/87/87 82/82/82 81/81/81
f 88/88/88 82/82/82 89/89/89
f 90/90/90 83/83/83 88/88/88
f 85/85/85 84/84/84 90/90/90
f 91/91/91 86/86/86 85/85/85
f 92/92/92 87/87/87 86/86/86
f 93/93/93 89/89/89 87/87/87
f 89/89/89 94/94/94 88/88/88
f 88/88/88 95/95/95 90/90/90
f 90/90/90 91/91/91 85/85/85
f 96/96/96 91/91/91 97/97/97
f 98/98/98 92/92/92 96/96/96
f 99/99/99 93/93/93 98/98/98
f 99/99/99 94/94/94 100/100/100
f 101/101/101 95/95/95 94/94/94
f 102/102/102 91/91/91 95/95/95
f 97/97/97 103/103/103 96/96/96
f 96/96/96 104/104/104 98/98/98
f 98/98/98 105/105/105 99/99/99
f 105/105/105 101/101/101 99/99/99
f 106/106/106 102/102/102 101/101/101
f 107/107/107 97/97/97 102/102/102
f 108/108/108 109/109/109 103/103/103
f 103/103/103 110/110/110 104/104/104
f 104/104/104 111/111/111 105/105/105
f 111/111/111 106/106/106 105/105/105
f 112/112/112 107/107/107 106/106/106
f 113/113/113 108/108/108 107/107/107
f 114/114/114 109/109/109 115/115/115
f 116/116/116 109/109/109 117/117/117
f 118/118/118 110/110/110 116/116/116
f 118/118/118 112/112/112 111/111/111
f 119/119/119 113/113/113 112/112/112
f 113/113/113 114/114/114 115/115/115
f 120/120/120 117/117/117 114/114/114
f 121/121/121 116/116/116 117/117/117
f 122/122/122 118/118/118 116/116/116
f 123/123/123 118/118/118 124/124/124
f 125/125/125 119/119/119 123/123/123
f 120/120/120 126/126/126 125/125/125
f 127/127/127 120/120/120 128/128/128
f 121/121/121 129/129/129 122/122/122
f 122/122/122 130/130/130 124/124/124
f 130/130/130 123/123/123 124/124/124
f 131/131/131 125/125/125 123/123/123
f 132/132/132 120/120/120 125/125/125
f 133/133/133 127/127/127 128/128/128
f 134/134/134 129/129/129 127/127/127
f 135/135/135 130/130/130 129/129/129
f 130/130/130 136/136/136 131/131/131
f 131/131/131 137/137/137 132/132/132
f 132/132/132 138/138/138 133/133/133
f 132/132/132 133/133/133 128/128/128
f 134/134/134 138/138/138 139/139/139
f 135/135/135 134/134/134 139/139/139
f 138/138/138 136/136/136 139/139/139
f 1/1/1 4/4/4 2/2/2
f 4/4/4 6/6/6 5/5/5
f 6/6/6 9/9/9 7/7/7
f 8/8/8 10/10/10 7/7/7
f 10/10/10 8/8/8 11/11/11
f 1/1/1 3/3/3 12/12/12
f 1/1/1 19/19/19 13/13/13
f 4/4/4 13/13/13 14/14/14
f 6/6/6 14/14/14 15/15/15
f 15/15/15 16/16/16 8/8/8
f 16/16/16 17/17/17 11/11/11
f 17/17/17 19/19/19 1/1/1
f 18/18/18 20/20/20 13/13/13
f 20/20/20 21/21/21 14/14/14
f 21/21/21 23/23/23 15/15/15
f 22/22/22 16/16/16 15/15/15
f 16/16/16 22/22/22 24/24/24
f 18/18/18 19/19/19 17/17/17
f 25/25/25 26/26/26 20/20/20
f 26/26/26 27/27/27 21/21/21
f 27/27/27 29/29/29 23/23/23
f 28/28/28 22/22/22 23/23/23
f 22/22/22 28/28/28 30/30/30
f 25/25/25 18/18/18 24/24/24
f 31/31/31 32/32/32 26/26/26
f 32/32/32 33/33/33 27/27/27
f 33/33/33 35/35/35 29/29/29
f 34/34/34 28/28/28 29/29/29
f 28/28/28 34/34/34 36/36/36
f 31/31/31 25/25/25 30/30/30
f 37/37/37 38/38/38 32/32/32
f 38/38/38 39/39/39 33/33/33
f 39/39/39 41/41/41 35/35/35
f 40/40/40 34/34/34 35/35/35
f 34/34/34 40/40/40 42/42/42
f 37/37/37 31/31/31 36/36/36
f 43/43/43 44/44/44 38/38/38
f 44/44/44 45/45/45 39/39/39
f 45/45/45 47/47/47 41/41/41
f 46/46/46 40/40/40 41/41/41
f 40/40/40 46/46/46 48/48/48
f 43/43/43 37/37/37 42/42/42
f 43/43/43 54/54/54 49/49/49
f 44/44/44 49/49/49 50/50/50
f 45/45/45 50/50/50 51/51/51
f 51/51/51 52/52/52 46/46/46
f 52/52/52 53/53/53 48/48/48
f 53/53/53 54/54/54 43/43/43
f 54/54/54 61/61/61 55/55/55
f 49/49/49 55/55/55 56/56/56
f 50/50/50 56/56/56 57/57/57
f 57/57/57 58/58/58 52/52/52
f 58/58/58 59/59/59 53/53/53
f 59/59/59 61/61/61 54/54/54
f 60/60/60 55/55/55 61/61/61
f 55/55/55 60/60/60 63/63/63
f 64/64/64 57/57/57 56/56/56
f 64/64/64 65/65/65 58/58/58
f 65/65/65 66/66/66 59/59/59
f 66/66/66 62/62/62 61/61/61
f 67/67/67 60/60/60 62/62/62
f 60/60/60 67/67/67 69/69/69
f 70/70/70 64/64/64 63/63/63
f 70/70/70 71/71/71 65/65/65
f 71/71/71 72/72/72 66/66/66
f 72/72/72 68/68/68 62/62/62
f 73/73/73 67/67/67 68/68/68
f 67/67/67 73/73/73 75/75/75
f 76/76/76 70/70/70 69/69/69
f 76/76/76 77/77/77 71/71/71
f 77/77/77 78/78/78 72/72/72
f 78/78/78 74/74/74 68/68/68
f 79/79/79 73/73/73 74/74/74
f 81/81/81 75/75/75 73/73/73
f 82/82/82 76/76/76 75/75/75
f 82/82/82 83/83/83 77/77/77
f 83/83/83 84/84/84 78/78/78
f 84/84/84 80/80/80 74/74/74
f 85/85/85 86/86/86 79/79/79
f 86/86/86 87/87/87 81/81/81
f 87/87/87 89/89/89 82/82/82
f 88/88/88 83/83/83 82/82/82
f 90/90/90 84/84/84 83/83/83
f 85/85/85 80/80/80 84/84/84
f 91/91/91 92/92/92 86/86/86
f 92/92/92 93/93/93 87/87/87
f 93/93/93 100/100/100 89/89/89
f 89/89/89 100/100/100 94/94/94
f 88/88/88 94/94/94 95/95/95
f 90/90/90 95/95/95 91/91/91
f 96/96/96 92/92/92 91/91/91
f 98/98/98 93/93/93 92/92/92
f 99/99/99 100/100/100 93/93/93
f 99/99/99 101/101/101 94/94/94
f 101/101/101 102/102/102 95/95/95
f 102/102/102 97/97/97 91/91/91
f 97/97/97 108/108/108 103/103/103
f 96/96/96 103/103/103 104/104/104
f 98/98/98 104/104/104 105/105/105
f 105/105/105 106/106/106 101/101/101
f 106/106/106 107/107/107 102/102/102
f 107/107/107 108/108/108 97/97/97
f 108/108/108 115/115/115 109/109/109
f 103/103/103 109/109/109 110/110/110
f 104/104/104 110/110/110 111/111/111
f 111/111/111 112/112/112 106/106/106
f 112/112/112 113/113/113 107/107/107
f 113/113/113 115/115/115 108/108/108
f 114/114/114 117/117/117 109/109/109
f 116/116/116 110/110/110 109/109/109
f 118/118/118 111/111/111 110/110/110
f 118/118/118 119/119/119 112/112/112
f 119/119/119 126/126/126 113/113/113
f 113/113/113 126/126/126 114/114/114
f 120/120/120 121/121/121 117/117/117
f 121/121/121 122/122/122 116/116/116
f 122/122/122 124/124/124 118/118/118
f 123/123/123 119/119/119 118/118/118
f 125/125/125 126/126/126 119/119/119
f 120/120/120 114/114/114 126/126/126
f 127/127/127 121/121/121 120/120/120
f 121/121/121 127/127/127 129/129/129
f 122/122/122 129/129/129 130/130/130
f 130/130/130 131/131/131 123/123/123
f 131/131/131 132/132/132 125/125/125
f 132/132/132 128/128/128 120/120/120
f 133/133/133 134/134/134 127/127/127
f 134/134/134 135/135/135 129/129/129
f 135/135/135 139/139/139 130/130/130
f 130/130/130 139/139/139 136/136/136
f 131/131/131 136/136/136 137/137/137
f 132/132/132 137/137/137 138/138/138
f 134/134/134 133/133/133 138/138/138
f 138/138/138 137/137/137 136/136/136
