v 863.794 515.688 -52.2095
v 864.015 516.527 -17.9404
v 864.015 516.527 -51.9883
v 864.357 516.527 -52.3299
v 864.136 515.688 -52.5512
v 859.312 510.667 -56.6926
v 861.106 511.75 -55.5815
v 859.654 510.667 -57.0343
v 863.87 515.061 -52.8167
v 863.061 514.308 -52.9428
v 863.529 515.061 -52.475
v 861.972 512.545 -54.7154
v 862.311 513.304 -53.6927
v 862.653 513.304 -54.0343
v 860.764 511.75 -55.2398
v 863.403 514.308 -53.2845
v 861.63 512.545 -15.5549
v 861.63 512.545 -54.3738
v 863.529 515.061 -17.4537
v 863.794 515.688 -17.7192
v 864.357 516.527 -17.5987
v 859.312 510.667 -13.2361
v 861.106 511.75 -14.3472
v 860.764 511.75 -14.6889
v 863.403 514.308 -16.6442
v 863.529 515.061 -17.4537
v 863.061 514.308 -16.9858
v 861.63 512.545 -15.5549
v 862.653 513.304 -15.8944
v 862.311 513.304 -16.236
v 861.972 512.545 -15.2133
v 864.136 515.688 -17.3775
v 863.87 515.061 -17.1121
v 859.654 510.667 -12.8944
v 901.649 511.75 -14.3472
v 898.884 515.061 -17.1121
v 900.783 512.545 -15.2133
v 900.102 513.304 -15.8944
v 899.352 514.308 -16.6442
v 898.619 515.688 -17.3775
v 898.961 515.688 -17.7192
v 898.398 516.527 -17.5988
v 903.443 510.667 -13.2361
v 903.101 510.667 -12.8944
v 899.694 514.308 -16.9858
v 899.226 515.061 -17.4537
v 901.124 512.545 -15.5549
v 901.99 511.75 -14.6889
v 900.443 513.304 -16.2361
v 859.312 510.667 -13.2361
v 862.311 513.304 -16.236
v 860.764 511.75 -14.6889
v 859.312 509.949 -56.6926
v 859.654 510.667 -57.0343
v 859.654 509.949 -57.0343
v 859.312 510.667 -13.2361
v 859.312 510.667 -56.6926
v 903.101 509.949 -12.8944
v 859.654 510.667 -12.8944
v 859.654 509.949 -12.8944
v 859.312 510.667 -13.2361
v 859.312 509.949 -13.2361
v 903.443 509.949 -13.2361
v 903.101 510.667 -12.8944
v 857.59 509.949 -58.3886
v 859.654 509.949 -57.0343
v 857.958 509.949 -58.757
v 857.59 509.949 -11.5401
v 859.312 509.949 -56.6926
v 904.797 509.949 -11.1718
v 859.654 509.949 -12.8944
v 857.958 509.949 -11.1718
v 857.59 509.949 -11.5401
v 859.312 509.949 -13.2361
v 905.165 509.949 -11.5401
v 903.101 509.949 -12.8944
v 857.958 507.202 -58.757
v 857.59 509.949 -58.3886
v 857.958 509.949 -58.757
v 857.59 507.202 -58.3886
v 857.59 509.949 -11.5401
v 857.59 509.949 -58.3886
v 857.958 507.202 -11.1718
v 904.797 509.949 -11.1718
v 857.958 509.949 -11.1718
v 857.59 507.202 -11.5401
v 857.59 509.949 -11.5401
v 904.797 507.202 -11.1718
v 905.165 509.949 -11.5401
v 898.961 515.688 -52.2095
v 898.739 516.527 -17.9404
v 898.961 515.688 -17.7192
v 901.124 512.545 -54.3738
v 900.443 513.304 -16.2361
v 901.124 512.545 -15.5549
v 899.226 515.061 -52.475
v 899.226 515.061 -17.4537
v 898.961 515.688 -52.2095
v 898.398 516.527 -52.3299
v 898.739 516.527 -51.9883
v 903.443 510.667 -56.6926
v 901.649 511.75 -55.5815
v 901.99 511.75 -55.2398
v 898.884 515.061 -52.8166
v 899.694 514.308 -52.9429
v 899.352 514.308 -53.2845
v 901.124 512.545 -54.3738
v 900.102 513.304 -54.0343
v 900.443 513.304 -53.6927
v 900.783 512.545 -54.7154
v 898.619 515.688 -52.5512
v 899.226 515.061 -52.475
v 903.101 510.667 -57.0343
v 861.106 511.75 -55.5815
v 863.403 514.308 -53.2845
v 863.87 515.061 -52.8167
v 862.653 513.304 -54.0343
v 861.972 512.545 -54.7154
v 864.136 515.688 -52.5512
v 864.357 516.527 -52.3299
v 903.443 510.667 -56.6926
v 901.99 511.75 -14.6889
v 903.443 510.667 -13.2361
v 899.694 514.308 -52.9429
v 899.694 514.308 -16.9858
v 901.99 511.75 -55.2398
v 903.443 509.949 -13.2361
v 903.443 510.667 -56.6926
v 903.443 510.667 -13.2361
v 859.654 509.949 -57.0343
v 903.101 510.667 -57.0343
v 903.101 509.949 -57.0343
v 903.443 510.667 -56.6926
v 903.443 509.949 -56.6926
v 905.165 509.949 -58.3886
v 903.443 509.949 -13.2361
v 905.165 509.949 -11.5401
v 904.797 509.949 -58.757
v 859.654 509.949 -57.0343
v 903.101 509.949 -57.0343
v 905.165 509.949 -58.3886
v 903.443 509.949 -56.6926
v 905.165 507.202 -11.5401
v 905.165 509.949 -58.3886
v 905.165 509.949 -11.5401
v 904.797 507.202 -58.757
v 857.958 509.949 -58.757
v 904.797 509.949 -58.757
v 905.165 507.202 -58.3886
v 905.165 509.949 -58.3886
v 898.739 516.527 -51.9883
v 898.398 516.527 -17.5988
v 898.739 516.527 -17.9404
v 898.398 516.527 -52.3299
v 864.015 516.527 -51.9883
v 864.015 516.527 -17.9404
v 863.794 515.688 -17.7192
v 898.739 516.527 -17.9404
v 863.061 514.308 -16.9858
v 859.312 509.949 -13.2361
v 903.443 510.667 -13.2361
v 859.312 509.949 -13.2361
v 903.443 509.949 -13.2361
v 857.59 507.202 -58.3886
v 857.59 507.202 -11.5401
v 905.165 507.202 -11.5401
v 900.443 513.304 -53.6927
v 859.654 510.667 -57.0343
v 903.443 509.949 -56.6926
v 859.654 510.667 -57.0343
v 903.443 509.949 -56.6926
v 857.958 509.949 -58.757
v 905.165 507.202 -58.3886
v 857.958 507.202 -58.757
v 864.357 516.527 -52.3299
v 864.357 516.527 -17.5987
vt 0.2788 0.949
vt 0.2734 0.7237
vt 0.2733 0.9476
vt 0.2712 0.9499
vt 0.2778 0.9519
vt 0.3147 0.9785
vt 0.3029 0.9712
vt 0.3144 0.9807
vt 0.2816 0.9534
vt 0.2879 0.9539
vt 0.2829 0.9508
vt 0.2972 0.9656
vt 0.2945 0.9588
vt 0.2922 0.9615
vt 0.3052 0.9689
vt 0.286 0.9566
vt 0.2995 0.7081
vt 0.2995 0.9633
vt 0.2829 0.7206
vt 0.2755 0.7168
vt 0.2711 0.7216
vt 0.3045 0.6818
vt 0.2924 0.6897
vt 0.2947 0.692
vt 0.2773 0.707
vt 0.2768 0.7135
vt 0.2801 0.7089
vt 0.2891 0.6976
vt 0.2823 0.7004
vt 0.285 0.7026
vt 0.2867 0.6954
vt 0.2725 0.7161
vt 0.2743 0.7119
vt 0.302 0.6802
vt 0.026 0.6897
vt 0.0441 0.7119
vt 0.0317 0.6953
vt 0.0361 0.7004
vt 0.0411 0.707
vt 0.0459 0.7161
vt 0.044 0.7173
vt 0.0473 0.7216
vt 0.014 0.6812
vt 0.0164 0.6802
vt 0.0383 0.7089
vt 0.0416 0.7135
vt 0.0293 0.6976
vt 0.0237 0.692
vt 0.0334 0.7026
vt 0.3147 0.6929
vt 0.2945 0.7126
vt 0.3052 0.7024
vt 0.3194 0.9785
vt 0.3144 0.9807
vt 0.3184 0.9812
vt 0.3147 0.6929
vt 0.3147 0.9785
vt 0.0164 0.6754
vt 0.302 0.6802
vt 0.302 0.6754
vt 0.3045 0.6818
vt 0.3048 0.6767
vt 0.0138 0.6766
vt 0.0164 0.6802
vt 0.3307 0.9896
vt 0.3184 0.9812
vt 0.3283 0.9921
vt 0.3307 0.6817
vt 0.3194 0.9785
vt 0.0053 0.6641
vt 0.302 0.6754
vt 0.3131 0.6641
vt 0.316 0.6653
vt 0.3048 0.6767
vt 0.0029 0.6653
vt 0.0164 0.6754
vt 0.3488 0.9921
vt 0.3307 0.9896
vt 0.3307 0.9921
vt 0.3488 0.9896
vt 0.3307 0.6817
vt 0.3307 0.9896
vt 0.3131 0.6461
vt 0.0053 0.6641
vt 0.3131 0.6641
vt 0.3155 0.6461
vt 0.316 0.6653
vt 0.0053 0.6461
vt 0.0029 0.6653
vt 0.2788 0.7224
vt 0.2733 0.9476
vt 0.2788 0.949
vt 0.2995 0.7081
vt 0.2945 0.9588
vt 0.2995 0.9633
vt 0.2829 0.7206
vt 0.2829 0.9508
vt 0.2755 0.7168
vt 0.2711 0.7216
vt 0.2734 0.7237
vt 0.3045 0.6818
vt 0.2924 0.6897
vt 0.2947 0.692
vt 0.2743 0.7119
vt 0.2801 0.7089
vt 0.2773 0.707
vt 0.2891 0.6976
vt 0.2823 0.7004
vt 0.285 0.7026
vt 0.2867 0.6954
vt 0.2725 0.7161
vt 0.2768 0.7135
vt 0.302 0.6802
vt 0.026 0.6897
vt 0.0411 0.707
vt 0.0441 0.7119
vt 0.0361 0.7004
vt 0.0317 0.6953
vt 0.0459 0.7161
vt 0.0473 0.7216
vt 0.3147 0.6929
vt 0.3052 0.9689
vt 0.3147 0.9785
vt 0.2879 0.7175
vt 0.2879 0.9539
vt 0.3052 0.7024
vt 0.3194 0.9785
vt 0.3147 0.6929
vt 0.3147 0.9785
vt 0.0164 0.6754
vt 0.302 0.6802
vt 0.302 0.6754
vt 0.3045 0.6818
vt 0.3048 0.6767
vt 0.3307 0.6817
vt 0.3194 0.9785
vt 0.3307 0.9896
vt 0.3131 0.6641
vt 0.0164 0.6754
vt 0.302 0.6754
vt 0.316 0.6653
vt 0.3048 0.6767
vt 0.3488 0.9896
vt 0.3307 0.6817
vt 0.3307 0.9896
vt 0.3131 0.6461
vt 0.0053 0.6641
vt 0.3131 0.6641
vt 0.3155 0.6461
vt 0.316 0.6653
vt 0.0451 0.9476
vt 0.0473 0.7216
vt 0.0451 0.7238
vt 0.0473 0.9498
vt 0.2733 0.9476
vt 0.2734 0.7237
vt 0.2788 0.7224
vt 0.0451 0.7238
vt 0.2879 0.7175
vt 0.3194 0.6929
vt 0.014 0.6812
vt 0.3194 0.6929
vt 0.0138 0.6766
vt 0.3488 0.9896
vt 0.3488 0.6817
vt 0.0029 0.6461
vt 0.2945 0.7126
vt 0.0164 0.6802
vt 0.3194 0.6929
vt 0.0164 0.6802
vt 0.3194 0.6929
vt 0.0053 0.6641
vt 0.3488 0.6817
vt 0.0053 0.6461
vt 0.2712 0.9499
vt 0.2711 0.7216
vn -0.8484 0.4106 -0.3342
vn -0.8878 0.3211 0.3297
vn -0.8878 0.3211 -0.3298
vn -0.3299 0.3212 -0.8877
vn -0.3343 0.4107 -0.8483
vn -0.4365 0.8737 -0.2147
vn -0.1824 0.8446 -0.5034
vn -0.2147 0.8737 -0.4364
vn -0.297 0.5643 -0.7703
vn -0.698 0.6653 -0.2649
vn -0.7705 0.5642 -0.2968
vn -0.2114 0.7904 -0.575
vn -0.6399 0.7304 -0.239
vn -0.2389 0.7304 -0.6399
vn -0.5035 0.8445 -0.1824
vn -0.2649 0.6653 -0.698
vn -0.575 0.7904 0.2114
vn -0.575 0.7904 -0.2114
vn -0.7704 0.5643 0.2969
vn -0.8484 0.4106 0.3342
vn -0.33 0.3211 0.8877
vn -0.4365 0.8737 0.2147
vn -0.1824 0.8446 0.5034
vn -0.5035 0.8445 0.1824
vn -0.2648 0.6653 0.698
vn -0.7704 0.5643 0.2969
vn -0.6979 0.6654 0.265
vn -0.575 0.7904 0.2114
vn -0.239 0.7304 0.6399
vn -0.6398 0.7304 0.239
vn -0.2114 0.7904 0.575
vn -0.3343 0.4106 0.8483
vn -0.2968 0.5642 0.7704
vn -0.2147 0.8737 0.4364
vn 0.1825 0.8446 0.5034
vn 0.2969 0.5643 0.7703
vn 0.2114 0.7904 0.575
vn 0.2391 0.7304 0.6398
vn 0.2649 0.6654 0.6979
vn 0.3343 0.4106 0.8483
vn 0.8484 0.4105 0.3343
vn 0.3298 0.3212 0.8877
vn 0.4365 0.8737 0.2147
vn 0.2147 0.8737 0.4364
vn 0.698 0.6653 0.2649
vn 0.7704 0.5642 0.2968
vn 0.575 0.7903 0.2114
vn 0.5035 0.8445 0.1824
vn 0.6399 0.7303 0.2389
vn -0.4365 0.8737 0.2147
vn -0.6398 0.7304 0.239
vn -0.5035 0.8445 0.1824
vn -0.9239 0 -0.3827
vn -0.3827 0 -0.9239
vn -0.3827 0 -0.9239
vn -1 0 0
vn -0.9239 0 -0.3827
vn 0.3827 0 0.9239
vn -0.3827 0 0.9239
vn -0.3827 0 0.9239
vn -0.7071 0 0.7071
vn -0.7071 0 0.7071
vn 0.7072 0 0.707
vn 0.3827 0 0.9239
vn 0 1 -0.0001
vn 0 1 0
vn 0 1 -0.0001
vn 0 1 0.0001
vn 0 1 0
vn 0 1 0.0001
vn 0 1 0
vn 0 1 0.0001
vn 0 1 0.0001
vn 0 1 0
vn 0 1 0.0001
vn 0 1 0
vn -0.3827 0 -0.9239
vn -0.7071 0 -0.7071
vn -0.3827 0 -0.9239
vn -1 0 0
vn -1 0 0
vn -1 0 0
vn -0.3826 0 0.9239
vn 0.3826 0 0.9239
vn -0.3826 0 0.9239
vn -0.707 0 0.7072
vn -0.707 0 0.7072
vn 0.3826 0 0.9239
vn 0.707 0 0.7072
vn 0.8484 0.4106 -0.3342
vn 0.8877 0.3212 0.3299
vn 0.8484 0.4105 0.3343
vn 0.575 0.7904 -0.2114
vn 0.6399 0.7303 0.2389
vn 0.575 0.7903 0.2114
vn 0.7704 0.5643 -0.2968
vn 0.7704 0.5642 0.2968
vn 0.8484 0.4106 -0.3342
vn 0.3298 0.3212 -0.8877
vn 0.8877 0.3213 -0.3298
vn 0.4365 0.8737 -0.2147
vn 0.1825 0.8446 -0.5034
vn 0.5035 0.8445 -0.1824
vn 0.2969 0.5643 -0.7703
vn 0.6981 0.6652 -0.2649
vn 0.2649 0.6654 -0.6979
vn 0.575 0.7904 -0.2114
vn 0.239 0.7304 -0.6398
vn 0.6399 0.7304 -0.239
vn 0.2114 0.7904 -0.575
vn 0.3343 0.4106 -0.8483
vn 0.7704 0.5643 -0.2968
vn 0.2147 0.8737 -0.4364
vn -0.1824 0.8446 -0.5034
vn -0.2649 0.6653 -0.698
vn -0.297 0.5643 -0.7703
vn -0.2389 0.7304 -0.6399
vn -0.2114 0.7904 -0.575
vn -0.3343 0.4107 -0.8483
vn -0.3299 0.3212 -0.8877
vn 0.4365 0.8737 -0.2147
vn 0.5035 0.8445 0.1824
vn 0.4365 0.8737 0.2147
vn 0.6981 0.6652 -0.2649
vn 0.698 0.6653 0.2649
vn 0.5035 0.8445 -0.1824
vn 1 0 0
vn 1 0 0
vn 1 0 0
vn -0.3827 0 -0.9239
vn 0.3828 0 -0.9238
vn 0.3827 0 -0.9239
vn 0.7072 0 -0.707
vn 0.7072 0 -0.707
vn 0 1 -0.0001
vn 0 1 0
vn 0 1 0.0001
vn 0 1 -0.0001
vn 0 1 0
vn 0 1 0
vn 0 1 -0.0001
vn 0 1 0
vn 1 0 0
vn 1 0 0
vn 1 0 0
vn 0.3827 0 -0.9239
vn -0.3827 0 -0.9239
vn 0.3827 0 -0.9239
vn 0.7071 0 -0.7071
vn 0.7071 0 -0.7071
vn 0 1 0
vn 0 1 0
vn 0 1 0
vn 0 1 0
vn 0 1 -0.0001
vn 0 1 0.0001
vn -0.8484 0.4106 0.3342
vn 0.8877 0.3212 0.3299
vn -0.6979 0.6654 0.265
vn -1 0 0
vn 0.7072 0 0.707
vn 0 1 0
vn 0 1 0
vn -0.7071 0 -0.7071
vn -1 0 0
vn 0.707 0 0.7072
vn 0.6399 0.7304 -0.239
vn -0.2147 0.8737 -0.4364
vn 1 0 0
vn -0.3827 0 -0.9239
vn 0 1 0
vn 0 1 -0.0001
vn 1 0 0
vn -0.3827 0 -0.9239
vn 0 1 -0.0002
vn 0 1 0.0003
f 1/1/1 2/2/2 3/3/3
f 1/1/1 4/4/4 5/5/5
f 6/6/6 7/7/7 8/8/8
f 9/9/9 10/10/10 11/11/11
f 12/12/12 13/13/13 14/14/14
f 15/15/15 12/12/12 7/7/7
f 16/16/16 13/13/13 10/10/10
f 5/5/5 11/11/11 1/1/1
f 17/17/17 13/13/13 18/18/18
f 19/19/19 1/1/1 11/11/11
f 20/20/20 21/21/21 2/2/2
f 22/22/22 23/23/23 24/24/24
f 25/25/25 26/26/26 27/27/27
f 28/28/28 29/29/29 30/30/30
f 24/24/24 31/31/31 28/28/28
f 29/29/29 27/27/27 30/30/30
f 32/32/32 26/26/26 33/33/33
f 34/34/34 35/35/35 23/23/23
f 25/25/25 36/36/36 33/33/33
f 29/29/29 37/37/37 38/38/38
f 25/25/25 38/38/38 39/39/39
f 23/23/23 37/37/37 31/31/31
f 33/33/33 40/40/40 32/32/32
f 41/41/41 42/42/42 40/40/40
f 43/43/43 35/35/35 44/44/44
f 36/36/36 45/45/45 46/46/46
f 47/47/47 38/38/38 37/37/37
f 48/48/48 37/37/37 35/35/35
f 39/39/39 49/49/49 45/45/45
f 40/40/40 46/46/46 41/41/41
f 21/21/21 40/40/40 42/42/42
f 50/50/50 15/15/15 6/6/6
f 10/10/10 19/19/19 11/11/11
f 51/51/51 10/10/10 13/13/13
f 52/52/52 18/18/18 15/15/15
f 53/53/53 54/54/54 55/55/55
f 53/53/53 56/56/56 57/57/57
f 58/58/58 59/59/59 60/60/60
f 60/60/60 61/61/61 62/62/62
f 63/63/63 64/64/64 58/58/58
f 65/65/65 66/66/66 67/67/67
f 68/68/68 69/69/69 65/65/65
f 70/70/70 71/71/71 72/72/72
f 73/73/73 71/71/71 74/74/74
f 75/75/75 76/76/76 70/70/70
f 77/77/77 78/78/78 79/79/79
f 80/80/80 81/81/81 82/82/82
f 83/83/83 84/84/84 85/85/85
f 86/86/86 85/85/85 87/87/87
f 88/88/88 89/89/89 84/84/84
f 90/90/90 91/91/91 92/92/92
f 93/93/93 94/94/94 95/95/95
f 96/96/96 92/92/92 97/97/97
f 98/98/98 99/99/99 100/100/100
f 101/101/101 102/102/102 103/103/103
f 104/104/104 105/105/105 106/106/106
f 107/107/107 108/108/108 109/109/109
f 103/103/103 110/110/110 107/107/107
f 106/106/106 109/109/109 108/108/108
f 111/111/111 112/112/112 104/104/104
f 113/113/113 114/114/114 102/102/102
f 104/104/104 115/115/115 116/116/116
f 117/117/117 110/110/110 118/118/118
f 108/108/108 115/115/115 106/106/106
f 110/110/110 114/114/114 118/118/118
f 104/104/104 119/119/119 111/111/111
f 99/99/99 119/119/119 120/120/120
f 121/121/121 122/122/122 123/123/123
f 124/124/124 97/97/97 125/125/125
f 94/94/94 124/124/124 125/125/125
f 126/126/126 95/95/95 122/122/122
f 127/127/127 128/128/128 129/129/129
f 130/130/130 131/131/131 132/132/132
f 132/132/132 133/133/133 134/134/134
f 135/135/135 136/136/136 137/137/137
f 138/138/138 139/139/139 140/140/140
f 141/141/141 140/140/140 142/142/142
f 143/143/143 144/144/144 145/145/145
f 146/146/146 147/147/147 148/148/148
f 149/149/149 148/148/148 150/150/150
f 151/151/151 152/152/152 153/153/153
f 154/154/154 155/155/155 152/152/152
f 156/156/156 152/152/152 155/155/155
f 1/1/1 157/157/157 2/2/2
f 1/1/1 3/3/3 4/4/4
f 6/6/6 15/15/15 7/7/7
f 9/9/9 16/16/16 10/10/10
f 12/12/12 18/18/18 13/13/13
f 15/15/15 18/18/18 12/12/12
f 16/16/16 14/14/14 13/13/13
f 5/5/5 9/9/9 11/11/11
f 17/17/17 51/51/51 13/13/13
f 19/19/19 157/157/157 1/1/1
f 20/20/20 32/32/32 21/21/21
f 22/22/22 34/34/34 23/23/23
f 25/25/25 33/33/33 26/26/26
f 28/28/28 31/31/31 29/29/29
f 24/24/24 23/23/23 31/31/31
f 29/29/29 25/25/25 27/27/27
f 32/32/32 20/20/20 26/26/26
f 34/34/34 44/44/44 35/35/35
f 25/25/25 39/39/39 36/36/36
f 29/29/29 31/31/31 37/37/37
f 25/25/25 29/29/29 38/38/38
f 23/23/23 35/35/35 37/37/37
f 33/33/33 36/36/36 40/40/40
f 41/41/41 158/158/158 42/42/42
f 43/43/43 48/48/48 35/35/35
f 36/36/36 39/39/39 45/45/45
f 47/47/47 49/49/49 38/38/38
f 48/48/48 47/47/47 37/37/37
f 39/39/39 38/38/38 49/49/49
f 40/40/40 36/36/36 46/46/46
f 21/21/21 32/32/32 40/40/40
f 50/50/50 52/52/52 15/15/15
f 10/10/10 159/159/159 19/19/19
f 51/51/51 159/159/159 10/10/10
f 52/52/52 17/17/17 18/18/18
f 53/53/53 57/57/57 54/54/54
f 53/53/53 160/160/160 56/56/56
f 58/58/58 64/64/64 59/59/59
f 60/60/60 59/59/59 61/61/61
f 63/63/63 161/161/161 64/64/64
f 65/65/65 69/69/69 66/66/66
f 68/68/68 162/162/162 69/69/69
f 70/70/70 76/76/76 71/71/71
f 73/73/73 72/72/72 71/71/71
f 75/75/75 163/163/163 76/76/76
f 77/77/77 164/164/164 78/78/78
f 80/80/80 165/165/165 81/81/81
f 83/83/83 88/88/88 84/84/84
f 86/86/86 83/83/83 85/85/85
f 88/88/88 166/166/166 89/89/89
f 90/90/90 100/100/100 91/91/91
f 93/93/93 167/167/167 94/94/94
f 96/96/96 90/90/90 92/92/92
f 98/98/98 111/111/111 99/99/99
f 101/101/101 113/113/113 102/102/102
f 104/104/104 112/112/112 105/105/105
f 107/107/107 110/110/110 108/108/108
f 103/103/103 102/102/102 110/110/110
f 106/106/106 105/105/105 109/109/109
f 111/111/111 98/98/98 112/112/112
f 113/113/113 168/168/168 114/114/114
f 104/104/104 106/106/106 115/115/115
f 117/117/117 108/108/108 110/110/110
f 108/108/108 117/117/117 115/115/115
f 110/110/110 102/102/102 114/114/114
f 104/104/104 116/116/116 119/119/119
f 99/99/99 111/111/111 119/119/119
f 121/121/121 126/126/126 122/122/122
f 124/124/124 96/96/96 97/97/97
f 94/94/94 167/167/167 124/124/124
f 126/126/126 93/93/93 95/95/95
f 127/127/127 169/169/169 128/128/128
f 130/130/130 170/170/170 131/131/131
f 132/132/132 131/131/131 133/133/133
f 135/135/135 171/171/171 136/136/136
f 138/138/138 172/172/172 139/139/139
f 141/141/141 138/138/138 140/140/140
f 143/143/143 173/173/173 144/144/144
f 146/146/146 174/174/174 147/147/147
f 149/149/149 146/146/146 148/148/148
f 151/151/151 154/154/154 152/152/152
f 154/154/154 175/175/175 155/155/155
f 156/156/156 176/176/176 152/152/152
