v -42.9521 516.433 224.994
v -43.2076 517.401 185.42
v -43.2076 517.401 224.739
v -43.3467 516.433 184.77
v -43.6021 517.401 185.026
v -39.4534 511.885 181.665
v -38.1707 510.635 179.593
v -39.848 511.885 181.271
v -42.5 514.84 183.923
v -42.6456 515.708 184.858
v -42.1054 514.84 184.318
v -40.4534 512.804 182.666
v -41.6343 513.68 183.058
v -41.2397 513.68 183.452
v -40.8479 512.804 182.271
v -43.0402 515.708 184.464
v -40.4534 512.804 227.494
v -41.2397 513.68 226.707
v -42.6456 515.708 225.301
v -42.9521 516.433 185.165
v -42.9521 516.433 224.994
v -43.6021 517.401 225.133
v -43.3467 516.433 225.389
v -37.7761 510.635 230.171
v -39.848 511.885 228.888
v -38.1707 510.635 230.566
v -43.0402 515.708 225.695
v -42.1055 514.84 225.841
v -42.6456 515.708 225.301
v -40.4534 512.804 227.494
v -41.6343 513.68 227.102
v -40.8479 512.804 227.888
v -39.4534 511.885 228.494
v -42.5 514.84 226.236
v -41.2397 513.68 226.707
v -86.6664 511.885 228.888
v -88.3438 510.635 230.566
v -83.4742 515.708 225.695
v -84.0144 514.84 226.236
v -85.6665 512.804 227.888
v -84.8801 513.68 227.102
v -83.1677 516.433 225.389
v -83.5623 516.433 224.994
v -82.9123 517.401 225.133
v -83.3068 517.401 224.739
v -88.7383 510.635 230.171
v -87.061 511.885 228.494
v -84.4089 514.84 225.841
v -86.061 512.804 227.494
v -85.2747 513.68 226.707
v -83.8688 515.708 225.301
v -37.7761 510.635 230.171
v -39.4534 511.885 228.494
v -42.1055 514.84 225.841
v -37.7761 510.635 179.988
v -38.1707 509.805 179.593
v -38.1707 510.635 179.593
v -37.7761 509.805 179.988
v -37.7761 510.635 230.171
v -37.7761 509.805 230.171
v -88.3438 509.805 230.566
v -38.1707 510.635 230.566
v -88.3438 510.635 230.566
v -38.1707 509.805 230.566
v -37.7761 510.635 230.171
v -38.1707 510.635 230.566
v -88.7383 509.805 230.171
v -88.3438 510.635 230.566
v -88.7383 510.635 230.171
v -35.7872 509.805 178.029
v -38.1707 509.805 179.593
v -37.7761 509.805 179.988
v -37.7761 509.805 230.171
v -90.3019 509.805 232.555
v -38.1707 509.805 230.566
v -88.3438 509.805 230.566
v -35.7872 509.805 232.13
v -37.7761 509.805 230.171
v -90.7272 509.805 232.13
v -88.7383 509.805 230.171
v -36.2125 506.633 177.604
v -35.7872 509.805 178.029
v -35.7872 506.633 178.029
v -35.7872 506.633 178.029
v -35.7872 509.805 232.13
v -35.7872 506.633 232.13
v -36.2125 506.633 232.555
v -90.3019 509.805 232.555
v -90.3019 506.633 232.555
v -35.7872 506.633 232.13
v -36.2125 509.805 232.555
v -36.2125 506.633 232.555
v -90.3019 506.633 232.555
v -90.7272 509.805 232.13
v -90.7272 506.633 232.13
v -83.3068 517.401 185.42
v -83.5623 516.433 224.994
v -83.3068 517.401 224.739
v -86.061 512.804 182.666
v -85.2747 513.68 226.707
v -85.2747 513.68 183.452
v -83.5623 516.433 185.165
v -83.8688 515.708 225.301
v -83.5623 516.433 185.165
v -82.9123 517.401 185.026
v -83.1677 516.433 184.77
v -88.7383 510.635 179.988
v -86.6664 511.885 181.271
v -88.3438 510.635 179.593
v -83.4742 515.708 184.464
v -84.4089 514.84 184.318
v -83.8688 515.708 184.858
v -86.061 512.804 182.666
v -84.8801 513.68 183.058
v -85.6665 512.804 182.271
v -87.0609 511.885 181.665
v -84.0144 514.84 183.923
v -85.2747 513.68 183.452
v -38.1707 510.635 179.593
v -39.848 511.885 181.271
v -43.0402 515.708 184.464
v -42.5 514.84 183.923
v -40.8479 512.804 182.271
v -41.6343 513.68 183.058
v -43.3467 516.433 184.77
v -87.0609 511.885 181.665
v -88.7383 510.635 230.171
v -87.061 511.885 228.494
v -84.4089 514.84 184.318
v -83.8688 515.708 184.858
v -84.4089 514.84 225.841
v -86.061 512.804 227.494
v -88.7383 509.805 230.171
v -88.7383 510.635 179.988
v -88.7383 509.805 179.988
v -38.1707 509.805 179.593
v -88.3438 510.635 179.593
v -38.1707 510.635 179.593
v -88.3438 509.805 179.593
v -88.7383 510.635 179.988
v -90.7272 509.805 178.029
v -88.7383 509.805 230.171
v -88.7383 509.805 179.988
v -38.1707 509.805 179.593
v -90.3019 509.805 177.604
v -88.3438 509.805 179.593
v -90.7272 509.805 178.029
v -88.7383 509.805 179.988
v -90.7272 506.633 232.13
v -90.7272 509.805 178.029
v -90.7272 506.633 178.029
v -90.3019 506.633 177.604
v -36.2125 509.805 177.604
v -36.2125 506.633 177.604
v -90.7272 506.633 178.029
v -90.3019 509.805 177.604
v -90.3019 506.633 177.604
v -82.9123 517.401 225.133
v -83.3068 517.401 185.42
v -83.3068 517.401 224.739
v -82.9123 517.401 185.026
v -43.2076 517.401 185.42
v -43.6021 517.401 185.026
v -43.2076 517.401 224.739
v -37.7761 510.635 179.988
v -38.1707 509.805 230.566
v -37.7761 509.805 230.171
v -88.3438 509.805 230.566
v -36.2125 509.805 177.604
v -35.7872 509.805 232.13
v -36.2125 509.805 232.555
v -36.2125 509.805 177.604
v -35.7872 509.805 178.029
v -36.2125 509.805 232.555
v -35.7872 509.805 232.13
v -90.3019 509.805 232.555
v -43.6021 517.401 185.026
v -88.7383 510.635 179.988
v -88.7383 510.635 230.171
v -88.7383 509.805 179.988
v -90.7272 509.805 232.13
v -36.2125 509.805 177.604
v -90.7272 509.805 232.13
v -90.3019 509.805 177.604
v -90.7272 509.805 178.029
v -43.6021 517.401 225.133
vt 0.2788 0.7224
vt 0.2733 0.9476
vt 0.2734 0.7237
vt 0.2778 0.9519
vt 0.2712 0.9499
vt 0.3052 0.9689
vt 0.3144 0.9807
vt 0.3029 0.9712
vt 0.286 0.9566
vt 0.2829 0.9508
vt 0.2879 0.9539
vt 0.2995 0.9633
vt 0.2922 0.9615
vt 0.2945 0.9588
vt 0.2972 0.9656
vt 0.2816 0.9534
vt 0.2995 0.7081
vt 0.2945 0.7126
vt 0.2829 0.7206
vt 0.2788 0.949
vt 0.2755 0.7168
vt 0.2711 0.7216
vt 0.2725 0.7161
vt 0.3045 0.6818
vt 0.2924 0.6897
vt 0.302 0.6802
vt 0.2743 0.7119
vt 0.2801 0.7089
vt 0.2768 0.7135
vt 0.2891 0.6976
vt 0.2823 0.7004
vt 0.2867 0.6954
vt 0.2947 0.692
vt 0.2773 0.707
vt 0.285 0.7026
vt 0.026 0.6897
vt 0.0164 0.6802
vt 0.0441 0.7119
vt 0.0411 0.707
vt 0.0317 0.6953
vt 0.0361 0.7004
vt 0.0459 0.7161
vt 0.044 0.7173
vt 0.0473 0.7216
vt 0.0451 0.7238
vt 0.014 0.6812
vt 0.0237 0.692
vt 0.0383 0.7089
vt 0.0293 0.6976
vt 0.0334 0.7026
vt 0.0416 0.7135
vt 0.3147 0.6929
vt 0.3052 0.7024
vt 0.2879 0.7175
vt 0.3147 0.9785
vt 0.3184 0.9812
vt 0.3144 0.9807
vt 0.3194 0.9785
vt 0.3147 0.6929
vt 0.3194 0.6929
vt 0.0164 0.6754
vt 0.302 0.6802
vt 0.0164 0.6802
vt 0.302 0.6754
vt 0.3045 0.6818
vt 0.302 0.6802
vt 0.0138 0.6766
vt 0.0164 0.6802
vt 0.014 0.6812
vt 0.3307 0.9896
vt 0.3184 0.9812
vt 0.3194 0.9785
vt 0.3194 0.6929
vt 0.0053 0.6641
vt 0.302 0.6754
vt 0.0164 0.6754
vt 0.316 0.6653
vt 0.3048 0.6767
vt 0.0029 0.6653
vt 0.0138 0.6766
vt 0.3488 0.9921
vt 0.3307 0.9896
vt 0.3488 0.9896
vt 0.3488 0.9896
vt 0.3307 0.6817
vt 0.3488 0.6817
vt 0.3131 0.6461
vt 0.0053 0.6641
vt 0.0053 0.6461
vt 0.3155 0.6461
vt 0.3131 0.6641
vt 0.3131 0.6461
vt 0.0053 0.6461
vt 0.0029 0.6653
vt 0.0029 0.6461
vt 0.2734 0.7237
vt 0.2788 0.949
vt 0.2733 0.9476
vt 0.2995 0.7081
vt 0.2945 0.9588
vt 0.2945 0.7126
vt 0.2788 0.7224
vt 0.2829 0.9508
vt 0.2755 0.7168
vt 0.2711 0.7216
vt 0.2725 0.7161
vt 0.3045 0.6818
vt 0.2924 0.6897
vt 0.302 0.6802
vt 0.2743 0.7119
vt 0.2801 0.7089
vt 0.2768 0.7135
vt 0.2891 0.6976
vt 0.2823 0.7004
vt 0.2867 0.6954
vt 0.2947 0.692
vt 0.2773 0.707
vt 0.285 0.7026
vt 0.0164 0.6802
vt 0.026 0.6897
vt 0.0441 0.7119
vt 0.0411 0.707
vt 0.0317 0.6953
vt 0.0361 0.7004
vt 0.0459 0.7161
vt 0.3052 0.7024
vt 0.3147 0.9785
vt 0.3052 0.9689
vt 0.2879 0.7175
vt 0.2829 0.7206
vt 0.2879 0.9539
vt 0.2995 0.9633
vt 0.3194 0.9785
vt 0.3147 0.6929
vt 0.3194 0.6929
vt 0.0164 0.6754
vt 0.302 0.6802
vt 0.0164 0.6802
vt 0.302 0.6754
vt 0.3045 0.6818
vt 0.3307 0.6817
vt 0.3194 0.9785
vt 0.3194 0.6929
vt 0.0164 0.6754
vt 0.3131 0.6641
vt 0.302 0.6754
vt 0.316 0.6653
vt 0.3048 0.6767
vt 0.3488 0.9896
vt 0.3307 0.6817
vt 0.3488 0.6817
vt 0.3131 0.6461
vt 0.0053 0.6641
vt 0.0053 0.6461
vt 0.3155 0.6461
vt 0.3131 0.6641
vt 0.3131 0.6461
vt 0.0473 0.7216
vt 0.0451 0.9476
vt 0.0451 0.7238
vt 0.0473 0.9498
vt 0.2733 0.9476
vt 0.2712 0.9499
vt 0.2734 0.7237
vt 0.3147 0.9785
vt 0.302 0.6754
vt 0.3048 0.6767
vt 0.0164 0.6754
vt 0.3283 0.9921
vt 0.3307 0.6817
vt 0.3131 0.6641
vt 0.3307 0.9921
vt 0.3307 0.9896
vt 0.3131 0.6641
vt 0.316 0.6653
vt 0.0053 0.6641
vt 0.0473 0.7216
vt 0.3147 0.6929
vt 0.3147 0.9785
vt 0.3048 0.6767
vt 0.3307 0.9896
vt 0.0053 0.6641
vt 0.3307 0.9896
vt 0.3131 0.6641
vt 0.316 0.6653
vt 0.2711 0.7216
vn 0.8483 0.4106 0.3343
vn 0.8877 0.3212 -0.3298
vn 0.8877 0.3212 0.3299
vn 0.3342 0.4106 -0.8483
vn 0.3299 0.3212 -0.8877
vn 0.5035 0.8445 -0.1825
vn 0.2147 0.8737 -0.4365
vn 0.1824 0.8445 -0.5035
vn 0.2649 0.6653 -0.698
vn 0.7704 0.5643 -0.2969
vn 0.698 0.6653 -0.2649
vn 0.5751 0.7903 -0.2114
vn 0.239 0.7304 -0.6398
vn 0.6399 0.7303 -0.239
vn 0.2114 0.7904 -0.575
vn 0.2968 0.5643 -0.7704
vn 0.575 0.7904 0.2114
vn 0.6399 0.7304 0.239
vn 0.7704 0.5642 0.2969
vn 0.8483 0.4106 -0.3343
vn 0.8483 0.4106 0.3343
vn 0.3298 0.3211 0.8877
vn 0.3342 0.4106 0.8483
vn 0.4365 0.8737 0.2147
vn 0.1824 0.8445 0.5035
vn 0.2147 0.8737 0.4364
vn 0.2969 0.5643 0.7704
vn 0.698 0.6653 0.2649
vn 0.7704 0.5642 0.2969
vn 0.575 0.7904 0.2114
vn 0.239 0.7304 0.6399
vn 0.2114 0.7904 0.575
vn 0.5035 0.8445 0.1825
vn 0.265 0.6653 0.6979
vn 0.6399 0.7304 0.239
vn -0.1824 0.8445 0.5035
vn -0.2147 0.8737 0.4364
vn -0.2968 0.5643 0.7703
vn -0.265 0.6653 0.6979
vn -0.2114 0.7904 0.575
vn -0.239 0.7304 0.6399
vn -0.3342 0.4106 0.8483
vn -0.8483 0.4106 0.3343
vn -0.3298 0.3212 0.8877
vn -0.8877 0.3212 0.3299
vn -0.4365 0.8737 0.2147
vn -0.5035 0.8445 0.1825
vn -0.698 0.6653 0.2649
vn -0.575 0.7904 0.2114
vn -0.6399 0.7304 0.239
vn -0.7704 0.5642 0.2969
vn 0.4365 0.8737 0.2147
vn 0.5035 0.8445 0.1825
vn 0.698 0.6653 0.2649
vn 0.9239 -0 -0.3827
vn 0.7071 -0 -0.7071
vn 0.707 0 -0.7072
vn 0.9239 -0 -0.3827
vn 0.9239 0 0.3827
vn 0.9239 0 0.3827
vn 0 0 1
vn 0 0 1
vn 0 0 1
vn 0.7071 0 0.7071
vn 0.9239 0 0.3827
vn 0.7071 0 0.7071
vn -0.9239 0 0.3826
vn -0.7072 0 0.707
vn -0.9239 0 0.3826
vn 0 1 -0
vn 0 1 -0
vn 0 1 -0
vn 0 1 -0
vn 0 1 -0
vn 0 1 -0
vn 0 1 -0
vn 0 1 -0
vn 0 1 -0
vn 0 1 -0
vn 0 1 -0
vn 0.3827 0 -0.9239
vn 0.7071 -0 -0.7071
vn 0.7071 -0 -0.7071
vn 1 0 0
vn 0.9239 0 0.3827
vn 0.9239 0 0.3827
vn 0 0 1
vn 0 0 1
vn 0 0 1
vn 0.9239 0 0.3827
vn 0.7071 0 0.7071
vn 0.7071 0 0.7071
vn -0.7071 0 0.7071
vn -0.9239 0 0.3827
vn -0.9239 0 0.3827
vn -0.8877 0.3212 -0.3298
vn -0.8483 0.4106 0.3343
vn -0.8877 0.3212 0.3299
vn -0.5751 0.7903 -0.2114
vn -0.6399 0.7304 0.239
vn -0.6399 0.7303 -0.239
vn -0.8483 0.4106 -0.3343
vn -0.7704 0.5642 0.2969
vn -0.8483 0.4106 -0.3343
vn -0.3298 0.3212 -0.8877
vn -0.3342 0.4106 -0.8483
vn -0.4364 0.8737 -0.2147
vn -0.1824 0.8445 -0.5035
vn -0.2147 0.8737 -0.4364
vn -0.2968 0.5643 -0.7704
vn -0.698 0.6653 -0.2649
vn -0.7704 0.5642 -0.2969
vn -0.5751 0.7903 -0.2114
vn -0.239 0.7304 -0.6399
vn -0.2114 0.7904 -0.575
vn -0.5035 0.8445 -0.1825
vn -0.2649 0.6653 -0.698
vn -0.6399 0.7303 -0.239
vn 0.2147 0.8737 -0.4365
vn 0.1824 0.8445 -0.5035
vn 0.2968 0.5643 -0.7704
vn 0.2649 0.6653 -0.698
vn 0.2114 0.7904 -0.575
vn 0.239 0.7304 -0.6398
vn 0.3342 0.4106 -0.8483
vn -0.5035 0.8445 -0.1825
vn -0.4365 0.8737 0.2147
vn -0.5035 0.8445 0.1825
vn -0.698 0.6653 -0.2649
vn -0.7704 0.5642 -0.2969
vn -0.698 0.6653 0.2649
vn -0.575 0.7904 0.2114
vn -0.9239 0 0.3826
vn -0.9239 0 -0.3827
vn -0.9239 0 -0.3827
vn 0 0 -1
vn -0.3827 0 -0.9239
vn 0 0 -1
vn -0.3827 0 -0.9239
vn -0.9239 0 -0.3827
vn 0 1 -0
vn 0 1 -0
vn 0 1 -0
vn 0 1 -0
vn 0 1 0.0001
vn 0 1 -0
vn 0 1 -0
vn 0 1 -0
vn -0.9239 0 0.3827
vn -0.9239 0 -0.3827
vn -0.9239 0 -0.3827
vn 0 0 -1
vn 0.3827 0 -0.9239
vn 0.3827 0 -0.9239
vn -0.9239 0 -0.3827
vn -0.7071 0 -0.7071
vn -0.7071 0 -0.7071
vn 0 1 -0
vn 0 1 -0
vn 0 1 -0
vn 0 1 -0
vn 0 1 -0
vn 0 1 -0
vn 0 1 -0
vn 0.4364 0.8737 -0.2147
vn 0 0 1
vn 0.9239 0 0.3827
vn -0.7072 0 0.707
vn 0 1 -0.0001
vn 0 1 -0
vn 0 1 -0
vn 0.3827 0 -0.9239
vn 1 0 0
vn 0 0 1
vn 0.9239 0 0.3827
vn -0.7071 0 0.7071
vn 0.3299 0.3212 -0.8877
vn -0.4364 0.8737 -0.2147
vn -0.9239 0 0.3826
vn -0.9239 0 -0.3827
vn 0 1 -0
vn 0 1 -0.0001
vn -0.9239 0 0.3827
vn 0 0 -1
vn -0.9239 0 -0.3827
vn 0 1 -0
f 1/1/1 2/2/2 3/3/3
f 2/2/2 4/4/4 5/5/5
f 6/6/6 7/7/7 8/8/8
f 9/9/9 10/10/10 11/11/11
f 12/12/12 13/13/13 14/14/14
f 6/6/6 15/15/15 12/12/12
f 9/9/9 14/14/14 13/13/13
f 4/4/4 10/10/10 16/16/16
f 17/17/17 14/14/14 18/18/18
f 19/19/19 20/20/20 1/1/1
f 21/21/21 22/22/22 23/23/23
f 24/24/24 25/25/25 26/26/26
f 27/27/27 28/28/28 29/29/29
f 30/30/30 31/31/31 32/32/32
f 33/33/33 32/32/32 25/25/25
f 34/34/34 35/35/35 28/28/28
f 23/23/23 29/29/29 21/21/21
f 26/26/26 36/36/36 37/37/37
f 34/34/34 38/38/38 39/39/39
f 31/31/31 40/40/40 32/32/32
f 31/31/31 39/39/39 41/41/41
f 25/25/25 40/40/40 36/36/36
f 27/27/27 42/42/42 38/38/38
f 43/43/43 44/44/44 45/45/45
f 46/46/46 36/36/36 47/47/47
f 38/38/38 48/48/48 39/39/39
f 49/49/49 41/41/41 50/50/50
f 47/47/47 40/40/40 49/49/49
f 39/39/39 50/50/50 41/41/41
f 42/42/42 51/51/51 38/38/38
f 23/23/23 44/44/44 42/42/42
f 52/52/52 6/6/6 53/53/53
f 19/19/19 11/11/11 10/10/10
f 18/18/18 11/11/11 54/54/54
f 17/17/17 6/6/6 12/12/12
f 55/55/55 56/56/56 57/57/57
f 58/58/58 59/59/59 60/60/60
f 61/61/61 62/62/62 63/63/63
f 64/64/64 65/65/65 66/66/66
f 67/67/67 68/68/68 69/69/69
f 70/70/70 71/71/71 72/72/72
f 73/73/73 70/70/70 72/72/72
f 74/74/74 75/75/75 76/76/76
f 75/75/75 77/77/77 78/78/78
f 79/79/79 76/76/76 80/80/80
f 81/81/81 82/82/82 83/83/83
f 84/84/84 85/85/85 86/86/86
f 87/87/87 88/88/88 89/89/89
f 90/90/90 91/91/91 92/92/92
f 93/93/93 94/94/94 95/95/95
f 96/96/96 97/97/97 98/98/98
f 99/99/99 100/100/100 101/101/101
f 102/102/102 103/103/103 97/97/97
f 104/104/104 105/105/105 106/106/106
f 107/107/107 108/108/108 109/109/109
f 110/110/110 111/111/111 112/112/112
f 113/113/113 114/114/114 115/115/115
f 116/116/116 115/115/115 108/108/108
f 117/117/117 118/118/118 111/111/111
f 106/106/106 112/112/112 104/104/104
f 119/119/119 108/108/108 120/120/120
f 117/117/117 121/121/121 122/122/122
f 114/114/114 123/123/123 115/115/115
f 114/114/114 122/122/122 124/124/124
f 108/108/108 123/123/123 120/120/120
f 110/110/110 125/125/125 121/121/121
f 105/105/105 125/125/125 106/106/106
f 126/126/126 127/127/127 128/128/128
f 129/129/129 103/103/103 130/130/130
f 101/101/101 131/131/131 129/129/129
f 99/99/99 128/128/128 132/132/132
f 133/133/133 134/134/134 135/135/135
f 136/136/136 137/137/137 138/138/138
f 139/139/139 140/140/140 137/137/137
f 141/141/141 142/142/142 143/143/143
f 144/144/144 145/145/145 146/146/146
f 146/146/146 147/147/147 148/148/148
f 149/149/149 150/150/150 151/151/151
f 152/152/152 153/153/153 154/154/154
f 155/155/155 156/156/156 157/157/157
f 158/158/158 159/159/159 160/160/160
f 161/161/161 162/162/162 163/163/163
f 158/158/158 164/164/164 162/162/162
f 1/1/1 20/20/20 2/2/2
f 2/2/2 20/20/20 4/4/4
f 6/6/6 165/165/165 7/7/7
f 9/9/9 16/16/16 10/10/10
f 12/12/12 15/15/15 13/13/13
f 6/6/6 8/8/8 15/15/15
f 9/9/9 11/11/11 14/14/14
f 4/4/4 20/20/20 10/10/10
f 17/17/17 12/12/12 14/14/14
f 19/19/19 10/10/10 20/20/20
f 21/21/21 3/3/3 22/22/22
f 24/24/24 33/33/33 25/25/25
f 27/27/27 34/34/34 28/28/28
f 30/30/30 35/35/35 31/31/31
f 33/33/33 30/30/30 32/32/32
f 34/34/34 31/31/31 35/35/35
f 23/23/23 27/27/27 29/29/29
f 26/26/26 25/25/25 36/36/36
f 34/34/34 27/27/27 38/38/38
f 31/31/31 41/41/41 40/40/40
f 31/31/31 34/34/34 39/39/39
f 25/25/25 32/32/32 40/40/40
f 27/27/27 23/23/23 42/42/42
f 43/43/43 42/42/42 44/44/44
f 46/46/46 37/37/37 36/36/36
f 38/38/38 51/51/51 48/48/48
f 49/49/49 40/40/40 41/41/41
f 47/47/47 36/36/36 40/40/40
f 39/39/39 48/48/48 50/50/50
f 42/42/42 43/43/43 51/51/51
f 23/23/23 22/22/22 44/44/44
f 52/52/52 165/165/165 6/6/6
f 19/19/19 54/54/54 11/11/11
f 18/18/18 14/14/14 11/11/11
f 17/17/17 53/53/53 6/6/6
f 55/55/55 58/58/58 56/56/56
f 58/58/58 55/55/55 59/59/59
f 61/61/61 166/166/166 62/62/62
f 64/64/64 167/167/167 65/65/65
f 67/67/67 168/168/168 68/68/68
f 70/70/70 169/169/169 71/71/71
f 73/73/73 170/170/170 70/70/70
f 74/74/74 171/171/171 75/75/75
f 75/75/75 171/171/171 77/77/77
f 79/79/79 74/74/74 76/76/76
f 81/81/81 172/172/172 82/82/82
f 84/84/84 173/173/173 85/85/85
f 87/87/87 174/174/174 88/88/88
f 90/90/90 175/175/175 91/91/91
f 93/93/93 176/176/176 94/94/94
f 96/96/96 102/102/102 97/97/97
f 99/99/99 132/132/132 100/100/100
f 102/102/102 130/130/130 103/103/103
f 104/104/104 96/96/96 105/105/105
f 107/107/107 116/116/116 108/108/108
f 110/110/110 117/117/117 111/111/111
f 113/113/113 118/118/118 114/114/114
f 116/116/116 113/113/113 115/115/115
f 117/117/117 114/114/114 118/118/118
f 106/106/106 110/110/110 112/112/112
f 119/119/119 109/109/109 108/108/108
f 117/117/117 110/110/110 121/121/121
f 114/114/114 124/124/124 123/123/123
f 114/114/114 117/117/117 122/122/122
f 108/108/108 115/115/115 123/123/123
f 110/110/110 106/106/106 125/125/125
f 105/105/105 177/177/177 125/125/125
f 126/126/126 178/178/178 127/127/127
f 129/129/129 131/131/131 103/103/103
f 101/101/101 100/100/100 131/131/131
f 99/99/99 126/126/126 128/128/128
f 133/133/133 179/179/179 134/134/134
f 136/136/136 139/139/139 137/137/137
f 139/139/139 180/180/180 140/140/140
f 141/141/141 181/181/181 142/142/142
f 144/144/144 182/182/182 145/145/145
f 146/146/146 145/145/145 147/147/147
f 149/149/149 183/183/183 150/150/150
f 152/152/152 184/184/184 153/153/153
f 155/155/155 185/185/185 156/156/156
f 158/158/158 161/161/161 159/159/159
f 161/161/161 158/158/158 162/162/162
f 158/158/158 186/186/186 164/164/164
