v -248.89 842.341 159.507
v -247.764 831.655 198.225
v -248.89 831.946 198.303
v -249.714 832.742 198.516
v -250.016 844.226 160.012
v -250.016 833.83 198.808
v -249.714 834.918 199.099
v -248.89 835.714 199.313
v -249.714 845.313 160.303
v -247.764 836.006 199.391
v -248.89 846.11 160.517
v -246.638 846.11 160.517
v -246.638 835.714 199.313
v -245.813 845.313 160.303
v -245.813 834.918 199.099
v -245.511 844.226 160.012
v -245.511 833.83 198.808
v -245.813 832.742 198.516
v -246.638 842.341 159.507
v -246.638 831.946 198.303
v -247.764 842.05 159.429
v -247.764 831.655 198.225
v -248.89 852.737 120.711
v -247.764 842.05 159.429
v -248.89 842.341 159.507
v -249.714 843.138 159.72
v -250.016 854.621 121.216
v -250.016 844.226 160.012
v -249.714 845.313 160.303
v -248.89 856.505 121.721
v -248.89 846.11 160.517
v -247.764 846.401 160.595
v -246.638 856.505 121.721
v -246.638 846.11 160.517
v -245.813 845.313 160.303
v -245.511 854.621 121.216
v -245.511 844.226 160.012
v -245.813 843.138 159.72
v -246.638 852.737 120.711
v -246.638 842.341 159.507
v -247.764 852.445 120.633
v -247.764 842.05 159.429
v -248.89 852.737 120.711
v -247.764 862.841 81.8369
v -247.764 852.445 120.633
v -249.714 863.929 82.1284
v -249.714 853.533 120.924
v -250.016 865.016 82.4198
v -250.016 854.621 121.216
v -249.714 855.709 121.507
v -248.89 866.9 82.9247
v -248.89 856.505 121.721
v -247.764 867.192 83.0028
v -247.764 856.796 121.799
v -246.638 856.505 121.721
v -245.813 855.709 121.507
v -246.638 866.9 82.9247
v -245.511 865.016 82.4198
v -245.511 854.621 121.216
v -245.813 863.929 82.1284
v -245.813 853.533 120.924
v -246.638 852.737 120.711
v -247.764 862.841 81.8369
v -247.764 852.445 120.633
v -248.291 884.356 7.87654
v -247.764 884.062 7.79774
v -248.068 884.14 7.81884
v -248.291 884.944 8.03424
v -247.764 885.239 8.11314
v -247.459 885.16 8.09204
v -247.236 884.356 7.87654
v -247.236 884.944 8.03424
v -247.154 884.65 7.95544
v -248.373 884.65 7.95544
v -247.459 884.14 7.81884
v -248.89 875.882 34.3325
v -247.764 875.652 30.7794
v -247.764 875.591 34.2544
v -250.441 877.145 31.1795
v -249.714 876.678 34.5459
v -250.016 877.766 34.8373
v -250.441 880.132 31.9798
v -249.714 878.854 35.1288
v -248.89 879.65 35.3422
v -247.764 881.626 32.38
v -247.764 879.942 35.4203
v -246.638 879.65 35.3422
v -245.813 878.854 35.1288
v -246.218 881.226 32.2728
v -244.672 878.639 31.5797
v -245.511 877.766 34.8373
v -245.086 877.145 31.1795
v -245.813 876.678 34.5459
v -246.638 875.882 34.3325
v -247.764 875.591 34.2544
v -246.218 876.052 30.8866
v -249.413 880.195 14.1419
v -247.764 877.524 20.8064
v -249.696 878.025 20.9404
v -250.619 881.361 14.4543
v -251.111 879.391 21.3065
v -251.061 882.954 14.8811
v -251.628 881.258 21.8067
v -250.619 884.546 15.3078
v -251.111 883.124 22.3068
v -249.413 885.712 15.6202
v -247.764 886.139 15.7345
v -249.696 884.49 22.6729
v -247.764 884.991 22.807
v -245.831 884.49 22.6729
v -244.417 883.124 22.3068
v -246.115 885.712 15.6202
v -243.899 881.258 21.8067
v -244.908 884.546 15.3078
v -244.417 879.391 21.3065
v -244.466 882.954 14.8811
v -245.831 878.025 20.9404
v -244.908 881.361 14.4543
v -247.764 877.524 20.8064
v -246.115 880.195 14.1419
v -248.068 884.14 7.81884
v -247.764 879.769 14.0276
v -248.291 884.356 7.87654
v -248.373 884.65 7.95544
v -248.291 884.944 8.03424
v -248.068 885.16 8.09204
v -247.764 885.239 8.11314
v -247.459 885.16 8.09204
v -247.236 884.944 8.03424
v -247.154 884.65 7.95544
v -247.236 884.356 7.87654
v -247.764 879.769 14.0276
v -247.459 884.14 7.81884
v -247.764 876.557 27.5304
v -249.293 876.953 27.6365
v -250.412 878.035 27.9262
v -250.822 879.512 28.322
v -250.412 880.989 28.7178
v -249.293 882.07 29.0076
v -247.764 882.466 29.1136
v -246.234 882.07 29.0076
v -245.115 880.989 28.7178
v -244.705 879.512 28.322
v -245.115 878.035 27.9262
v -246.234 876.953 27.6365
v -247.764 876.557 27.5304
v -249.31 876.052 30.8866
v -250.856 878.639 31.5797
v -249.31 881.226 32.2728
v -245.086 880.132 31.9798
v -247.764 875.652 30.7794
v -247.764 862.841 81.8369
v -248.89 863.132 81.915
v -249.714 863.929 82.1284
v -250.016 865.016 82.4198
v -249.714 866.104 82.7113
v -248.89 866.9 82.9247
v -247.764 867.192 83.0028
v -246.638 866.9 82.9247
v -245.813 866.104 82.7113
v -245.511 865.016 82.4198
v -245.813 863.929 82.1284
v -246.638 863.132 81.915
v -247.764 862.841 81.8369
v -247.764 842.05 159.429
v -249.714 843.138 159.72
v -247.764 846.401 160.595
v -245.813 843.138 159.72
v -247.764 852.445 120.633
v -249.714 853.533 120.924
v -249.714 855.709 121.507
v -247.764 856.796 121.799
v -245.813 855.709 121.507
v -245.813 853.533 120.924
v -248.89 863.132 81.915
v -249.714 866.104 82.7113
v -245.813 866.104 82.7113
v -246.638 863.132 81.915
v -248.068 885.16 8.09204
v -247.764 884.062 7.79774
v -247.764 884.062 7.79774
vt 0.9633 0.5241
vt 0.9876 0.0053
vt 0.9633 0.0053
vt 0.9391 0.0053
vt 0.9148 0.5241
vt 0.9148 0.0053
vt 0.8906 0.0053
vt 0.8663 0.0053
vt 0.8906 0.5241
vt 0.8421 0.0053
vt 0.8663 0.5241
vt 0.8178 0.5241
vt 0.8178 0.0053
vt 0.7936 0.5241
vt 0.7936 0.0053
vt 0.7694 0.5241
vt 0.7694 0.0053
vt 0.7451 0.0053
vt 0.7209 0.5241
vt 0.7209 0.0053
vt 0.6966 0.5241
vt 0.6966 0.0053
vt 0.9633 0.5241
vt 0.9876 0.0053
vt 0.9633 0.0053
vt 0.9391 0.0053
vt 0.9148 0.5241
vt 0.9148 0.0053
vt 0.8906 0.0053
vt 0.8663 0.5241
vt 0.8663 0.0053
vt 0.8421 0.0053
vt 0.8178 0.5241
vt 0.8178 0.0053
vt 0.7936 0.0053
vt 0.7694 0.5241
vt 0.7694 0.0053
vt 0.7451 0.0053
vt 0.7209 0.5241
vt 0.7209 0.0053
vt 0.6966 0.5241
vt 0.6966 0.0053
vt 0.9633 0.0053
vt 0.9876 0.5241
vt 0.9876 0.0053
vt 0.9391 0.5241
vt 0.9391 0.0053
vt 0.9148 0.5241
vt 0.9148 0.0053
vt 0.8906 0.0053
vt 0.8663 0.5241
vt 0.8663 0.0053
vt 0.8421 0.5241
vt 0.8421 0.0053
vt 0.8178 0.0053
vt 0.7936 0.0053
vt 0.8178 0.5241
vt 0.7694 0.5241
vt 0.7694 0.0053
vt 0.7451 0.5241
vt 0.7451 0.0053
vt 0.7209 0.0053
vt 0.6966 0.5241
vt 0.6966 0.0053
vt 0.9918 0.0129
vt 0.9918 0.0129
vt 0.9918 0.0129
vt 0.9918 0.0129
vt 0.9918 0.0129
vt 0.9918 0.0129
vt 0.9918 0.0129
vt 0.9918 0.0129
vt 0.9918 0.0129
vt 0.9918 0.0129
vt 0.9918 0.0129
vt 0.9633 0.6416
vt 0.9876 0.6851
vt 0.9876 0.6416
vt 0.9391 0.6851
vt 0.9391 0.6416
vt 0.9148 0.6416
vt 0.8906 0.6851
vt 0.8906 0.6416
vt 0.8663 0.6416
vt 0.8421 0.6851
vt 0.8421 0.6416
vt 0.8178 0.6416
vt 0.7936 0.6416
vt 0.8178 0.6851
vt 0.7694 0.6851
vt 0.7694 0.6416
vt 0.7451 0.6851
vt 0.7451 0.6416
vt 0.7209 0.6416
vt 0.6966 0.6416
vt 0.7209 0.6851
vt 0.9633 0.9029
vt 0.9876 0.8158
vt 0.9633 0.8158
vt 0.9391 0.9029
vt 0.9391 0.8158
vt 0.9148 0.9029
vt 0.9148 0.8158
vt 0.8906 0.9029
vt 0.8906 0.8158
vt 0.8663 0.9029
vt 0.8421 0.9029
vt 0.8663 0.8158
vt 0.8421 0.8158
vt 0.8178 0.8158
vt 0.7936 0.8158
vt 0.8178 0.9029
vt 0.7694 0.8158
vt 0.7936 0.9029
vt 0.7451 0.8158
vt 0.7694 0.9029
vt 0.7209 0.8158
vt 0.7451 0.9029
vt 0.6966 0.8158
vt 0.7209 0.9029
vt 0.9633 0.99
vt 0.9876 0.9029
vt 0.9391 0.99
vt 0.9148 0.99
vt 0.8906 0.99
vt 0.8663 0.99
vt 0.8421 0.99
vt 0.8178 0.99
vt 0.7936 0.99
vt 0.7694 0.99
vt 0.7451 0.99
vt 0.6966 0.9029
vt 0.7209 0.99
vt 0.9876 0.7287
vt 0.9633 0.7287
vt 0.9391 0.7287
vt 0.9148 0.7287
vt 0.8906 0.7287
vt 0.8663 0.7287
vt 0.8421 0.7287
vt 0.8178 0.7287
vt 0.7936 0.7287
vt 0.7694 0.7287
vt 0.7451 0.7287
vt 0.7209 0.7287
vt 0.6966 0.7287
vt 0.9633 0.6851
vt 0.9148 0.6851
vt 0.8663 0.6851
vt 0.7936 0.6851
vt 0.6966 0.6851
vt 0.9876 0.0053
vt 0.9633 0.0053
vt 0.9391 0.0053
vt 0.9148 0.0053
vt 0.8906 0.0053
vt 0.8663 0.0053
vt 0.8421 0.0053
vt 0.8178 0.0053
vt 0.7936 0.0053
vt 0.7694 0.0053
vt 0.7451 0.0053
vt 0.7209 0.0053
vt 0.6966 0.0053
vt 0.9876 0.5241
vt 0.9391 0.5241
vt 0.8421 0.5241
vt 0.7451 0.5241
vt 0.9876 0.5241
vt 0.9391 0.5241
vt 0.8906 0.5241
vt 0.8421 0.5241
vt 0.7936 0.5241
vt 0.7451 0.5241
vt 0.9633 0.5241
vt 0.8906 0.5241
vt 0.7936 0.5241
vt 0.7209 0.5241
vt 0.9918 0.0129
vt 0.9876 0.99
vt 0.6966 0.99
vn -0.5 -0.8365 -0.2241
vn 0 -0.9659 -0.2588
vn -0.5 -0.8365 -0.2241
vn -0.866 -0.483 -0.1294
vn -1 -0 -0
vn -1 -0 -0
vn -0.866 0.483 0.1294
vn -0.5 0.8365 0.2241
vn -0.866 0.4829 0.1294
vn -0 0.9659 0.2588
vn -0.5 0.8365 0.2241
vn 0.5 0.8365 0.2241
vn 0.5 0.8365 0.2241
vn 0.866 0.483 0.1294
vn 0.866 0.483 0.1294
vn 1 0 -0
vn 1 0 -0
vn 0.866 -0.483 -0.1294
vn 0.5 -0.8365 -0.2241
vn 0.5 -0.8365 -0.2241
vn 0 -0.9659 -0.2588
vn 0 -0.9659 -0.2588
vn -0.5 -0.8365 -0.2241
vn 0 -0.9659 -0.2588
vn -0.5 -0.8365 -0.2241
vn -0.866 -0.483 -0.1294
vn -1 -0 -0
vn -1 -0 -0
vn -0.866 0.4829 0.1294
vn -0.5 0.8365 0.2241
vn -0.5 0.8365 0.2241
vn -0 0.9659 0.2588
vn 0.5 0.8365 0.2241
vn 0.5 0.8365 0.2241
vn 0.866 0.483 0.1294
vn 1 0 -0
vn 1 0 -0
vn 0.866 -0.483 -0.1294
vn 0.5 -0.8365 -0.2241
vn 0.5 -0.8365 -0.2241
vn 0 -0.9659 -0.2588
vn 0 -0.9659 -0.2588
vn -0.5 -0.8365 -0.2241
vn 0 -0.9659 -0.2588
vn 0 -0.9659 -0.2588
vn -0.866 -0.483 -0.1294
vn -0.866 -0.483 -0.1294
vn -1 -0 -0
vn -1 -0 -0
vn -0.866 0.483 0.1294
vn -0.5 0.8365 0.2241
vn -0.5 0.8365 0.2241
vn -0 0.9659 0.2588
vn -0 0.9659 0.2588
vn 0.5 0.8365 0.2241
vn 0.866 0.483 0.1294
vn 0.5 0.8365 0.2241
vn 1 0 -0
vn 1 0 -0
vn 0.866 -0.483 -0.1294
vn 0.866 -0.483 -0.1294
vn 0.5 -0.8365 -0.2241
vn 0 -0.9659 -0.2588
vn 0 -0.9659 -0.2588
vn 0 0.2589 -0.9659
vn 0 0.2589 -0.9659
vn 0 0.2589 -0.9659
vn 0 0.2589 -0.9659
vn 0 0.2589 -0.9659
vn 0 0.259 -0.9659
vn -0 0.2588 -0.9659
vn -0.0002 0.2589 -0.9659
vn 0.0006 0.259 -0.9659
vn -0.0001 0.2588 -0.9659
vn 0 0.2589 -0.9659
vn -0.4961 -0.8622 -0.1024
vn 0 -0.9892 -0.1466
vn 0 -0.9906 -0.1368
vn -0.8603 -0.5094 -0.018
vn -0.8593 -0.5114 -0.0084
vn -0.9923 -0.0322 0.12
vn -0.8603 0.4502 0.2391
vn -0.8593 0.4471 0.2484
vn -0.4961 0.7979 0.3424
vn 0 0.93 0.3676
vn 0 0.9263 0.3768
vn 0.4961 0.7979 0.3424
vn 0.8593 0.4471 0.2484
vn 0.4967 0.8014 0.3332
vn 0.9934 -0.0296 0.1105
vn 0.9923 -0.0322 0.12
vn 0.8603 -0.5094 -0.018
vn 0.8593 -0.5114 -0.0084
vn 0.4961 -0.8622 -0.1024
vn 0 -0.9906 -0.1368
vn 0.4967 -0.8607 -0.1121
vn -0.49 -0.7694 -0.4097
vn -0 -0.9733 -0.2296
vn -0.5005 -0.8432 -0.1963
vn -0.8477 -0.4204 -0.3236
vn -0.8665 -0.4879 -0.1051
vn -0.977 0.0548 -0.2063
vn -0.9998 -0.0033 0.0192
vn -0.8444 0.5282 -0.0895
vn -0.8652 0.4805 0.1434
vn -0.4868 0.8735 -0.0042
vn -0 0.9996 0.027
vn -0.4992 0.8342 0.2342
vn -0 0.9636 0.2674
vn 0.4992 0.8342 0.2342
vn 0.8652 0.4805 0.1434
vn 0.4868 0.8735 -0.0042
vn 0.9998 -0.0033 0.0192
vn 0.8444 0.5282 -0.0895
vn 0.8665 -0.488 -0.1051
vn 0.977 0.0548 -0.2063
vn 0.5006 -0.8432 -0.1963
vn 0.8476 -0.4204 -0.3236
vn -0 -0.9733 -0.2296
vn 0.49 -0.7694 -0.4097
vn -0.4691 -0.701 -0.5371
vn -0 -0.8974 -0.4413
vn -0.8117 -0.3669 -0.4544
vn -0.9357 0.088 -0.3417
vn -0.8089 0.5413 -0.2294
vn -0.4664 0.8722 -0.1473
vn -0 0.9931 -0.1173
vn 0.4664 0.8722 -0.1473
vn 0.809 0.5413 -0.2292
vn 0.9357 0.0881 -0.3416
vn 0.8118 -0.3668 -0.4544
vn -0 -0.8974 -0.4413
vn 0.4692 -0.701 -0.5371
vn -0 -0.9787 -0.2052
vn -0.4993 -0.8495 -0.1706
vn -0.8647 -0.4965 -0.076
vn -0.9985 -0.0143 0.0532
vn -0.8647 0.468 0.1824
vn -0.4992 0.821 0.277
vn -0 0.9502 0.3116
vn 0.4992 0.821 0.277
vn 0.8647 0.468 0.1824
vn 0.9985 -0.0143 0.0532
vn 0.8647 -0.4965 -0.076
vn 0.4992 -0.8495 -0.1706
vn -0 -0.9787 -0.2052
vn -0.4967 -0.8606 -0.1121
vn -0.9934 -0.0296 0.1105
vn -0.4967 0.8014 0.3332
vn 0.8603 0.4502 0.2391
vn 0 -0.9892 -0.1466
vn 0 -0.9659 -0.2588
vn -0.5 -0.8365 -0.2241
vn -0.866 -0.483 -0.1294
vn -1 -0 -0
vn -0.866 0.4829 0.1294
vn -0.5 0.8365 0.2241
vn -0 0.9659 0.2588
vn 0.5 0.8365 0.2241
vn 0.866 0.483 0.1294
vn 1 0 -0
vn 0.866 -0.483 -0.1294
vn 0.5 -0.8365 -0.2241
vn 0 -0.9659 -0.2588
vn 0 -0.9659 -0.2588
vn -0.866 -0.483 -0.1294
vn -0 0.9659 0.2588
vn 0.866 -0.483 -0.1294
vn 0 -0.9659 -0.2588
vn -0.866 -0.483 -0.1294
vn -0.866 0.483 0.1294
vn -0 0.9659 0.2588
vn 0.866 0.483 0.1294
vn 0.866 -0.483 -0.1294
vn -0.5 -0.8365 -0.2241
vn -0.866 0.4829 0.1294
vn 0.866 0.483 0.1294
vn 0.5 -0.8365 -0.2241
vn -0.0002 0.2591 -0.9658
vn -0 -0.8234 -0.5674
vn -0 -0.8234 -0.5674
f 1/1/1 2/2/2 3/3/3
f 4/4/4 1/1/1 3/3/3
f 5/5/5 4/4/4 6/6/6
f 7/7/7 5/5/5 6/6/6
f 8/8/8 9/9/9 7/7/7
f 10/10/10 11/11/11 8/8/8
f 12/12/12 10/10/10 13/13/13
f 14/14/14 13/13/13 15/15/15
f 16/16/16 15/15/15 17/17/17
f 18/18/18 16/16/16 17/17/17
f 19/19/19 18/18/18 20/20/20
f 21/21/21 20/20/20 22/22/22
f 23/23/23 24/24/24 25/25/25
f 26/26/26 23/23/23 25/25/25
f 27/27/27 26/26/26 28/28/28
f 29/29/29 27/27/27 28/28/28
f 30/30/30 29/29/29 31/31/31
f 32/32/32 30/30/30 31/31/31
f 33/33/33 32/32/32 34/34/34
f 35/35/35 33/33/33 34/34/34
f 36/36/36 35/35/35 37/37/37
f 38/38/38 36/36/36 37/37/37
f 39/39/39 38/38/38 40/40/40
f 41/41/41 40/40/40 42/42/42
f 43/43/43 44/44/44 45/45/45
f 46/46/46 43/43/43 47/47/47
f 48/48/48 47/47/47 49/49/49
f 50/50/50 48/48/48 49/49/49
f 51/51/51 50/50/50 52/52/52
f 53/53/53 52/52/52 54/54/54
f 55/55/55 53/53/53 54/54/54
f 56/56/56 57/57/57 55/55/55
f 58/58/58 56/56/56 59/59/59
f 60/60/60 59/59/59 61/61/61
f 62/62/62 60/60/60 61/61/61
f 63/63/63 62/62/62 64/64/64
f 65/65/65 66/66/66 67/67/67
f 68/68/68 69/69/69 65/65/65
f 70/70/70 71/71/71 69/69/69
f 72/72/72 73/73/73 71/71/71
f 66/66/66 69/69/69 71/71/71
f 74/74/74 68/68/68 65/65/65
f 75/75/75 66/66/66 71/71/71
f 76/76/76 77/77/77 78/78/78
f 79/79/79 76/76/76 80/80/80
f 81/81/81 79/79/79 80/80/80
f 82/82/82 81/81/81 83/83/83
f 84/84/84 82/82/82 83/83/83
f 85/85/85 84/84/84 86/86/86
f 87/87/87 85/85/85 86/86/86
f 88/88/88 89/89/89 87/87/87
f 90/90/90 88/88/88 91/91/91
f 92/92/92 91/91/91 93/93/93
f 94/94/94 92/92/92 93/93/93
f 95/95/95 96/96/96 94/94/94
f 97/97/97 98/98/98 99/99/99
f 99/99/99 100/100/100 97/97/97
f 101/101/101 102/102/102 100/100/100
f 103/103/103 104/104/104 102/102/102
f 105/105/105 106/106/106 104/104/104
f 107/107/107 108/108/108 109/109/109
f 110/110/110 107/107/107 109/109/109
f 111/111/111 112/112/112 110/110/110
f 113/113/113 114/114/114 111/111/111
f 115/115/115 116/116/116 113/113/113
f 117/117/117 118/118/118 115/115/115
f 119/119/119 120/120/120 117/117/117
f 121/121/121 122/122/122 97/97/97
f 123/123/123 97/97/97 100/100/100
f 100/100/100 124/124/124 123/123/123
f 102/102/102 125/125/125 124/124/124
f 126/126/126 104/104/104 106/106/106
f 127/127/127 106/106/106 107/107/107
f 112/112/112 127/127/127 107/107/107
f 114/114/114 128/128/128 112/112/112
f 116/116/116 129/129/129 114/114/114
f 118/118/118 130/130/130 116/116/116
f 120/120/120 131/131/131 118/118/118
f 132/132/132 133/133/133 120/120/120
f 99/99/99 134/134/134 135/135/135
f 136/136/136 99/99/99 135/135/135
f 103/103/103 136/136/136 137/137/137
f 138/138/138 103/103/103 137/137/137
f 108/108/108 138/138/138 139/139/139
f 109/109/109 139/139/139 140/140/140
f 110/110/110 140/140/140 141/141/141
f 142/142/142 110/110/110 141/141/141
f 113/113/113 142/142/142 143/143/143
f 144/144/144 113/113/113 143/143/143
f 117/117/117 144/144/144 145/145/145
f 146/146/146 117/117/117 145/145/145
f 135/135/135 77/77/77 147/147/147
f 79/79/79 135/135/135 147/147/147
f 148/148/148 136/136/136 79/79/79
f 138/138/138 148/148/148 82/82/82
f 139/139/139 82/82/82 149/149/149
f 85/85/85 139/139/139 149/149/149
f 89/89/89 140/140/140 85/85/85
f 150/150/150 141/141/141 89/89/89
f 143/143/143 150/150/150 90/90/90
f 92/92/92 143/143/143 90/90/90
f 145/145/145 92/92/92 96/96/96
f 151/151/151 145/145/145 96/96/96
f 76/76/76 152/152/152 153/153/153
f 80/80/80 153/153/153 154/154/154
f 155/155/155 80/80/80 154/154/154
f 83/83/83 155/155/155 156/156/156
f 84/84/84 156/156/156 157/157/157
f 86/86/86 157/157/157 158/158/158
f 87/87/87 158/158/158 159/159/159
f 160/160/160 87/87/87 159/159/159
f 161/161/161 88/88/88 160/160/160
f 93/93/93 161/161/161 162/162/162
f 163/163/163 93/93/93 162/162/162
f 164/164/164 94/94/94 163/163/163
f 1/1/1 165/165/165 2/2/2
f 4/4/4 166/166/166 1/1/1
f 5/5/5 166/166/166 4/4/4
f 7/7/7 9/9/9 5/5/5
f 8/8/8 11/11/11 9/9/9
f 10/10/10 167/167/167 11/11/11
f 12/12/12 167/167/167 10/10/10
f 14/14/14 12/12/12 13/13/13
f 16/16/16 14/14/14 15/15/15
f 18/18/18 168/168/168 16/16/16
f 19/19/19 168/168/168 18/18/18
f 21/21/21 19/19/19 20/20/20
f 23/23/23 169/169/169 24/24/24
f 26/26/26 170/170/170 23/23/23
f 27/27/27 170/170/170 26/26/26
f 29/29/29 171/171/171 27/27/27
f 30/30/30 171/171/171 29/29/29
f 32/32/32 172/172/172 30/30/30
f 33/33/33 172/172/172 32/32/32
f 35/35/35 173/173/173 33/33/33
f 36/36/36 173/173/173 35/35/35
f 38/38/38 174/174/174 36/36/36
f 39/39/39 174/174/174 38/38/38
f 41/41/41 39/39/39 40/40/40
f 43/43/43 175/175/175 44/44/44
f 46/46/46 175/175/175 43/43/43
f 48/48/48 46/46/46 47/47/47
f 50/50/50 176/176/176 48/48/48
f 51/51/51 176/176/176 50/50/50
f 53/53/53 51/51/51 52/52/52
f 55/55/55 57/57/57 53/53/53
f 56/56/56 177/177/177 57/57/57
f 58/58/58 177/177/177 56/56/56
f 60/60/60 58/58/58 59/59/59
f 62/62/62 178/178/178 60/60/60
f 63/63/63 178/178/178 62/62/62
f 68/68/68 179/179/179 69/69/69
f 70/70/70 72/72/72 71/71/71
f 66/66/66 65/65/65 69/69/69
f 76/76/76 147/147/147 77/77/77
f 79/79/79 147/147/147 76/76/76
f 81/81/81 148/148/148 79/79/79
f 82/82/82 148/148/148 81/81/81
f 84/84/84 149/149/149 82/82/82
f 85/85/85 149/149/149 84/84/84
f 87/87/87 89/89/89 85/85/85
f 88/88/88 150/150/150 89/89/89
f 90/90/90 150/150/150 88/88/88
f 92/92/92 90/90/90 91/91/91
f 94/94/94 96/96/96 92/92/92
f 95/95/95 151/151/151 96/96/96
f 97/97/97 122/122/122 98/98/98
f 99/99/99 101/101/101 100/100/100
f 101/101/101 103/103/103 102/102/102
f 103/103/103 105/105/105 104/104/104
f 105/105/105 108/108/108 106/106/106
f 107/107/107 106/106/106 108/108/108
f 110/110/110 112/112/112 107/107/107
f 111/111/111 114/114/114 112/112/112
f 113/113/113 116/116/116 114/114/114
f 115/115/115 118/118/118 116/116/116
f 117/117/117 120/120/120 118/118/118
f 119/119/119 132/132/132 120/120/120
f 121/121/121 180/180/180 122/122/122
f 123/123/123 121/121/121 97/97/97
f 100/100/100 102/102/102 124/124/124
f 102/102/102 104/104/104 125/125/125
f 126/126/126 125/125/125 104/104/104
f 127/127/127 126/126/126 106/106/106
f 112/112/112 128/128/128 127/127/127
f 114/114/114 129/129/129 128/128/128
f 116/116/116 130/130/130 129/129/129
f 118/118/118 131/131/131 130/130/130
f 120/120/120 133/133/133 131/131/131
f 132/132/132 181/181/181 133/133/133
f 99/99/99 98/98/98 134/134/134
f 136/136/136 101/101/101 99/99/99
f 103/103/103 101/101/101 136/136/136
f 138/138/138 105/105/105 103/103/103
f 108/108/108 105/105/105 138/138/138
f 109/109/109 108/108/108 139/139/139
f 110/110/110 109/109/109 140/140/140
f 142/142/142 111/111/111 110/110/110
f 113/113/113 111/111/111 142/142/142
f 144/144/144 115/115/115 113/113/113
f 117/117/117 115/115/115 144/144/144
f 146/146/146 119/119/119 117/117/117
f 135/135/135 134/134/134 77/77/77
f 79/79/79 136/136/136 135/135/135
f 148/148/148 137/137/137 136/136/136
f 138/138/138 137/137/137 148/148/148
f 139/139/139 138/138/138 82/82/82
f 85/85/85 140/140/140 139/139/139
f 89/89/89 141/141/141 140/140/140
f 150/150/150 142/142/142 141/141/141
f 143/143/143 142/142/142 150/150/150
f 92/92/92 144/144/144 143/143/143
f 145/145/145 144/144/144 92/92/92
f 151/151/151 146/146/146 145/145/145
f 76/76/76 78/78/78 152/152/152
f 80/80/80 76/76/76 153/153/153
f 155/155/155 81/81/81 80/80/80
f 83/83/83 81/81/81 155/155/155
f 84/84/84 83/83/83 156/156/156
f 86/86/86 84/84/84 157/157/157
f 87/87/87 86/86/86 158/158/158
f 160/160/160 88/88/88 87/87/87
f 161/161/161 91/91/91 88/88/88
f 93/93/93 91/91/91 161/161/161
f 163/163/163 94/94/94 93/93/93
f 164/164/164 95/95/95 94/94/94
