v -800.186 674.124 -305.051
v -809.411 674.124 -293.462
v -809.411 674.124 -305.051
v -800.186 687.219 -308.463
v -809.411 687.219 -293.462
v -800.186 687.219 -293.462
v -809.411 674.124 -305.051
v -809.411 674.124 -293.462
v -809.411 676.028 -306.217
v -809.411 676.028 -306.217
v -800.186 674.124 -305.051
v -809.411 674.124 -305.051
v -800.186 674.124 -305.051
v -800.186 676.028 -306.217
v -800.186 674.124 -293.462
v -809.411 687.219 -293.462
v -809.411 687.219 -308.463
v -809.411 677.063 -308.463
v -800.186 687.219 -308.463
v -800.186 677.063 -308.463
v -800.186 687.219 -293.462
v -800.186 687.219 -308.463
v -809.411 677.063 -308.463
v -800.186 677.063 -308.463
v -809.411 677.063 -308.463
v -800.186 677.063 -308.463
v -800.186 674.124 -293.462
v -809.411 687.219 -308.463
v -800.186 676.028 -306.217
v -809.411 687.219 -308.463
vt 0.4143 0.8072
vt 0.3593 0.7381
vt 0.3593 0.8072
vt 0.4143 0.8945
vt 0.3593 0.9839
vt 0.4143 0.9839
vt 0.4915 0.9031
vt 0.4224 0.9031
vt 0.4984 0.9145
vt 0.3593 0.8205
vt 0.4143 0.8072
vt 0.3593 0.8072
vt 0.4346 0.8164
vt 0.4277 0.8278
vt 0.5037 0.8164
vt 0.4224 0.9812
vt 0.5118 0.9812
vt 0.3593 0.8339
vt 0.4143 0.8945
vt 0.4143 0.8339
vt 0.5037 0.8945
vt 0.4143 0.8945
vt 0.5118 0.9206
vt 0.4143 0.8339
vt 0.3593 0.8339
vt 0.4143 0.8339
vt 0.4143 0.7381
vt 0.3593 0.8945
vt 0.4143 0.8205
vt 0.3593 0.8945
vn 0 -1 0
vn 0 -1 0
vn 0 -1 0
vn 0 1 0
vn 0 1 0
vn 0 1 0
vn -1 0 0
vn -1 0 0
vn -1 0 0
vn 0 -0.7475 -0.6642
vn 0 -0.5223 -0.8527
vn 0 -0.5223 -0.8527
vn 1 0 0
vn 1 0 0
vn 1 0 0
vn -1 0 0
vn -1 0 0
vn 0 0 -1
vn 0 0 -1
vn 0 0 -1
vn 1 0 0
vn 1 0 0
vn -1 0 0
vn 0 -0.9082 -0.4185
vn 0 -0.9082 -0.4185
vn 1 0 0
vn 0 -1 0
vn 0 1 0
vn 0 -0.7475 -0.6643
vn 0 0 -1
f 1/1/1 2/2/2 3/3/3
f 4/4/4 5/5/5 6/6/6
f 7/7/7 8/8/8 9/9/9
f 10/10/10 11/11/11 12/12/12
f 13/13/13 14/14/14 15/15/15
f 9/9/9 16/16/16 17/17/17
f 18/18/18 19/19/19 20/20/20
f 21/21/21 14/14/14 22/22/22
f 17/17/17 23/23/23 9/9/9
f 24/24/24 10/10/10 25/25/25
f 14/14/14 26/26/26 22/22/22
f 1/1/1 27/27/27 2/2/2
f 4/4/4 28/28/28 5/5/5
f 10/10/10 29/29/29 11/11/11
f 9/9/9 8/8/8 16/16/16
f 18/18/18 30/30/30 19/19/19
f 21/21/21 15/15/15 14/14/14
f 24/24/24 29/29/29 10/10/10
