v -634.825 1225.53 174.641
v -644.356 1222.69 172.982
v -642.443 1227.11 174.641
v -652.498 1245.83 189.929
v -651.494 1238.71 176.657
v -652.498 1245.83 176.657
v -653.951 1245.93 174.642
v -656.511 1254.93 172.982
v -652.156 1252.87 174.643
v -657.396 1236.6 172.982
v -663.558 1246.54 169.437
v -658.755 1246.23 172.982
v -661.926 1234.97 169.437
v -663.558 1246.54 189.929
v -663.558 1246.54 169.437
v -634.825 1262.4 189.929
v -641.338 1261.16 176.657
v -634.825 1262.4 176.657
v -643.644 1266.99 172.982
v -634.825 1273.49 169.437
v -634.825 1268.67 172.982
v -645.415 1271.47 169.437
v -634.825 1273.49 189.929
v -634.825 1273.49 169.437
v -627.206 1227.11 174.641
v -634.825 1220.71 172.982
v -618.156 1238.71 189.929
v -617.151 1245.83 176.657
v -618.156 1238.71 176.657
v -613.138 1254.93 172.982
v -615.699 1245.93 174.642
v -617.494 1252.87 174.643
v -607.723 1234.97 169.437
v -610.894 1246.23 172.982
v -606.091 1246.54 169.437
v -607.723 1234.97 169.437
v -606.091 1246.54 189.929
v -607.723 1234.97 189.929
v -628.311 1261.16 189.929
v -628.311 1261.16 176.657
v -624.235 1271.47 169.437
v -624.235 1271.47 169.437
v -624.235 1271.47 189.929
v -648.807 1231.58 174.641
v -652.866 1238.22 174.641
v -647.743 1232.58 189.929
v -641.864 1228.44 176.657
v -647.743 1232.58 176.657
v -651.227 1262.19 172.982
v -641.873 1262.51 174.643
v -647.933 1258.67 174.643
v -655.828 1225 169.437
v -652.317 1228.29 172.982
v -646.269 1218.27 169.437
v -655.828 1225 189.929
v -655.828 1225 169.437
v -646.939 1257.61 189.929
v -650.841 1252.25 176.657
v -646.939 1257.61 176.657
v -654.52 1265.7 169.437
v -654.52 1265.7 169.437
v -660.864 1256.98 189.929
v -654.52 1265.7 189.929
v -620.843 1231.58 174.641
v -612.254 1236.6 172.982
v -617.332 1228.29 172.982
v -627.785 1228.44 176.657
v -621.906 1232.58 189.929
v -621.906 1232.58 176.657
v -621.716 1258.67 174.643
v -626.005 1266.99 172.982
v -618.422 1262.19 172.982
v -623.38 1218.27 169.437
v -613.821 1225 169.437
v -623.38 1218.27 189.929
v -613.821 1225 169.437
v -613.821 1225 189.929
v -618.808 1252.25 176.657
v -622.711 1257.61 189.929
v -622.711 1257.61 176.657
v -608.785 1256.98 169.437
v -615.13 1265.7 169.437
v -608.785 1256.98 189.929
v -615.13 1265.7 169.437
v -615.13 1265.7 189.929
v -651.494 1238.71 189.929
v -661.926 1234.97 169.437
v -661.926 1234.97 189.929
v -641.338 1261.16 189.929
v -645.415 1271.47 169.437
v -645.415 1271.47 189.929
v -625.293 1222.69 172.982
v -641.864 1228.44 189.929
v -634.825 1226.98 176.657
v -634.825 1263.86 174.643
v -646.269 1218.27 169.437
v -634.825 1215.9 169.437
v -646.269 1218.27 189.929
v -650.841 1252.25 189.929
v -660.864 1256.98 169.437
v -660.864 1256.98 169.437
v -616.783 1238.22 174.641
v -627.785 1228.44 189.929
v -627.777 1262.51 174.643
v -634.825 1215.9 169.437
v -634.825 1215.9 189.929
v -623.38 1218.27 169.437
v -618.808 1252.25 189.929
v -608.785 1256.98 169.437
v -617.151 1245.83 189.929
v -606.091 1246.54 169.437
v -634.825 1226.98 189.929
vt 0.0033 0.1621
vt 0.1275 0.1878
vt 0.1275 0.1621
vt 0.4999 0.0638
vt 0.3758 0.1451
vt 0.4999 0.1451
vt 0.4999 0.1621
vt 0.6143 0.1878
vt 0.6143 0.1621
vt 0.3758 0.1878
vt 0.4999 0.2169
vt 0.4999 0.1878
vt 0.3758 0.2169
vt 0.4999 0.3263
vt 0.4999 0.2169
vt 0.9575 0.0638
vt 0.8431 0.1451
vt 0.9575 0.1451
vt 0.8431 0.1878
vt 0.9575 0.2169
vt 0.9575 0.1878
vt 0.8431 0.2169
vt 0.9575 0.3263
vt 0.9575 0.2169
vt 0.1275 0.1621
vt 0.0033 0.1878
vt 0.3758 0.0638
vt 0.4999 0.1451
vt 0.3758 0.1451
vt 0.6143 0.1878
vt 0.4999 0.1621
vt 0.6143 0.1621
vt 0.3758 0.2169
vt 0.4999 0.1878
vt 0.4999 0.2169
vt 0.3758 0.2169
vt 0.4999 0.3263
vt 0.3758 0.3263
vt 0.8431 0.0638
vt 0.8431 0.1451
vt 0.8431 0.2169
vt 0.8431 0.2169
vt 0.8431 0.3263
vt 0.2516 0.1621
vt 0.3758 0.1621
vt 0.2516 0.0638
vt 0.1275 0.1451
vt 0.2516 0.1451
vt 0.7287 0.1878
vt 0.8431 0.1621
vt 0.7287 0.1621
vt 0.2516 0.2169
vt 0.2516 0.1878
vt 0.1275 0.2169
vt 0.2516 0.3263
vt 0.2516 0.2169
vt 0.7287 0.0638
vt 0.6143 0.1451
vt 0.7287 0.1451
vt 0.7287 0.2169
vt 0.7287 0.2169
vt 0.6143 0.3263
vt 0.7287 0.3263
vt 0.2516 0.1621
vt 0.3758 0.1878
vt 0.2516 0.1878
vt 0.1275 0.1451
vt 0.2516 0.0638
vt 0.2516 0.1451
vt 0.7287 0.1621
vt 0.8431 0.1878
vt 0.7287 0.1878
vt 0.1275 0.2169
vt 0.2516 0.2169
vt 0.1275 0.3263
vt 0.2516 0.2169
vt 0.2516 0.3263
vt 0.6143 0.1451
vt 0.7287 0.0638
vt 0.7287 0.1451
vt 0.6143 0.2169
vt 0.7287 0.2169
vt 0.6143 0.3263
vt 0.7287 0.2169
vt 0.7287 0.3263
vt 0.3758 0.0638
vt 0.3758 0.2169
vt 0.3758 0.3263
vt 0.8431 0.0638
vt 0.8431 0.2169
vt 0.8431 0.3263
vt 0.1275 0.1878
vt 0.1275 0.0638
vt 0.0033 0.1451
vt 0.9575 0.1621
vt 0.1275 0.2169
vt 0.0033 0.2169
vt 0.1275 0.3263
vt 0.6143 0.0638
vt 0.6143 0.2169
vt 0.6143 0.2169
vt 0.3758 0.1621
vt 0.1275 0.0638
vt 0.8431 0.1621
vt 0.0033 0.2169
vt 0.0033 0.3263
vt 0.1275 0.2169
vt 0.6143 0.0638
vt 0.6143 0.2169
vt 0.4999 0.0638
vt 0.4999 0.2169
vt 0.0033 0.0638
vn -0 0.5694 -0.8221
vn 0.1907 0.4403 -0.8773
vn 0.2263 0.5225 -0.8221
vn 0.9984 -0.0562 0
vn 0.8917 0.3199 -0.3203
vn 0.9461 -0.053 -0.3195
vn 0.5697 -0.0321 -0.8212
vn 0.4329 -0.2043 -0.878
vn 0.5172 -0.2441 -0.8203
vn 0.4517 0.1621 -0.8773
vn 0.5921 -0.0337 -0.8051
vn 0.4786 -0.0267 -0.8776
vn -0.9412 -0.3377 0
vn -0.9984 0.0562 0
vn -0.9984 0.0562 0
vn 0 -1 0
vn 0.3486 -0.8814 -0.3188
vn 0 -0.9478 -0.3187
vn 0.1761 -0.4452 -0.878
vn -0 -0.5931 -0.8051
vn -0 -0.4787 -0.878
vn -0.3678 0.9299 0
vn 0 1 0
vn 0 1 0
vn -0.2263 0.5225 -0.8221
vn -0 0.4799 -0.8773
vn -0.9412 0.3377 0
vn -0.9461 -0.053 -0.3195
vn -0.8917 0.3199 -0.3203
vn -0.4329 -0.2043 -0.878
vn -0.5697 -0.0321 -0.8212
vn -0.5172 -0.2441 -0.8203
vn -0.5582 0.2003 -0.8052
vn -0.4786 -0.0267 -0.8776
vn -0.5921 -0.0337 -0.8051
vn 0.9412 -0.3377 0
vn 0.9984 0.0562 0
vn 0.9412 -0.3377 0
vn -0.3678 -0.9299 0
vn -0.3486 -0.8814 -0.3188
vn -0.2181 -0.5515 -0.8051
vn 0.3678 0.9299 0
vn 0.3678 0.9299 0
vn 0.4153 0.3895 -0.8221
vn 0.5359 0.1923 -0.8221
vn 0.7295 0.684 0
vn 0.3765 0.8693 -0.3203
vn 0.691 0.648 -0.3203
vn 0.3275 -0.3492 -0.878
vn 0.2103 -0.5318 -0.8203
vn 0.3912 -0.4172 -0.8203
vn 0.4326 0.4057 -0.8051
vn 0.35 0.3283 -0.8773
vn -0.3975 -0.9176 0
vn -0.7295 -0.684 0
vn -0.7295 -0.684 0
vn 0.684 -0.7295 0
vn 0.8572 -0.4045 -0.3188
vn 0.6483 -0.6914 -0.3188
vn 0.4057 -0.4326 -0.8051
vn -0.684 0.7295 0
vn -0.9044 0.4267 0
vn -0.684 0.7295 0
vn -0.4154 0.3895 -0.8221
vn -0.4517 0.1621 -0.8773
vn -0.35 0.3283 -0.8773
vn -0.3765 0.8693 -0.3203
vn -0.7295 0.684 0
vn -0.691 0.648 -0.3203
vn -0.3912 -0.4172 -0.8203
vn -0.1761 -0.4452 -0.878
vn -0.3275 -0.3492 -0.878
vn -0.2357 0.5442 -0.8052
vn -0.4326 0.4057 -0.8051
vn 0.3975 -0.9176 0
vn 0.7295 -0.684 0
vn 0.7295 -0.684 0
vn -0.8572 -0.4045 -0.3188
vn -0.684 -0.7295 0
vn -0.6483 -0.6914 -0.3188
vn -0.5364 -0.2531 -0.8051
vn -0.4057 -0.4326 -0.8051
vn 0.9044 0.4268 0
vn 0.684 0.7295 0
vn 0.684 0.7295 0
vn 0.9412 0.3377 0
vn 0.5582 0.2003 -0.8051
vn -0.9412 -0.3377 0
vn 0.3678 -0.9299 0
vn 0.2181 -0.5515 -0.8051
vn -0.3678 0.9299 0
vn -0.1907 0.4403 -0.8773
vn 0.3975 0.9176 0
vn -0 0.9473 -0.3203
vn 0 -0.5719 -0.8203
vn 0.2357 0.5442 -0.8051
vn 0 -1 0
vn -0.3975 -0.9176 0
vn 0.9044 -0.4267 0
vn 0.5364 -0.2531 -0.8051
vn -0.9044 0.4267 0
vn -0.5359 0.1923 -0.8221
vn -0.3975 0.9176 0
vn -0.2103 -0.5318 -0.8203
vn 0 0.5931 -0.8052
vn 0 -1 0
vn 0.3975 -0.9176 0
vn -0.9044 -0.4268 0
vn 0.9044 0.4268 0
vn -0.9984 -0.0562 0
vn 0.9984 0.0562 0
vn 0 1 0
f 1/1/1 2/2/2 3/3/3
f 4/4/4 5/5/5 6/6/6
f 7/7/7 8/8/8 9/9/9
f 10/10/10 11/11/11 12/12/12
f 13/13/13 14/14/14 15/15/15
f 16/16/16 17/17/17 18/18/18
f 19/19/19 20/20/20 21/21/21
f 22/22/22 23/23/23 24/24/24
f 25/25/25 26/26/26 1/1/1
f 27/27/27 28/28/28 29/29/29
f 30/30/30 31/31/31 32/32/32
f 33/33/33 34/34/34 35/35/35
f 36/36/36 37/37/37 38/38/38
f 39/39/39 18/18/18 40/40/40
f 41/41/41 21/21/21 20/20/20
f 42/42/42 23/23/23 43/43/43
f 44/44/44 10/10/10 45/45/45
f 46/46/46 47/47/47 48/48/48
f 49/49/49 50/50/50 51/51/51
f 2/2/2 52/52/52 53/53/53
f 54/54/54 55/55/55 56/56/56
f 57/57/57 58/58/58 59/59/59
f 8/8/8 60/60/60 49/49/49
f 61/61/61 62/62/62 63/63/63
f 64/64/64 65/65/65 66/66/66
f 67/67/67 68/68/68 69/69/69
f 70/70/70 71/71/71 72/72/72
f 73/73/73 66/66/66 74/74/74
f 75/75/75 76/76/76 77/77/77
f 78/78/78 79/79/79 80/80/80
f 81/81/81 72/72/72 82/82/82
f 83/83/83 84/84/84 85/85/85
f 3/3/3 53/53/53 44/44/44
f 86/86/86 48/48/48 5/5/5
f 8/8/8 51/51/51 9/9/9
f 53/53/53 87/87/87 10/10/10
f 56/56/56 88/88/88 13/13/13
f 89/89/89 59/59/59 17/17/17
f 49/49/49 90/90/90 19/19/19
f 61/61/61 91/91/91 22/22/22
f 64/64/64 92/92/92 25/25/25
f 69/69/69 27/27/27 29/29/29
f 70/70/70 30/30/30 32/32/32
f 74/74/74 65/65/65 33/33/33
f 77/77/77 36/36/36 38/38/38
f 80/80/80 39/39/39 40/40/40
f 82/82/82 71/71/71 41/41/41
f 85/85/85 42/42/42 43/43/43
f 45/45/45 12/12/12 7/7/7
f 93/93/93 94/94/94 47/47/47
f 19/19/19 95/95/95 50/50/50
f 26/26/26 96/96/96 2/2/2
f 97/97/97 98/98/98 54/54/54
f 99/99/99 6/6/6 58/58/58
f 12/12/12 100/100/100 8/8/8
f 15/15/15 62/62/62 101/101/101
f 102/102/102 34/34/34 65/65/65
f 94/94/94 103/103/103 67/67/67
f 104/104/104 21/21/21 71/71/71
f 105/105/105 92/92/92 73/73/73
f 106/106/106 107/107/107 75/75/75
f 28/28/28 108/108/108 78/78/78
f 35/35/35 30/30/30 81/81/81
f 37/37/37 109/109/109 83/83/83
f 5/5/5 7/7/7 6/6/6
f 17/17/17 95/95/95 18/18/18
f 31/31/31 29/29/29 28/28/28
f 18/18/18 104/104/104 40/40/40
f 3/3/3 48/48/48 47/47/47
f 58/58/58 51/51/51 59/59/59
f 64/64/64 67/67/67 69/69/69
f 70/70/70 78/78/78 80/80/80
f 44/44/44 5/5/5 48/48/48
f 59/59/59 50/50/50 17/17/17
f 29/29/29 64/64/64 69/69/69
f 40/40/40 70/70/70 80/80/80
f 1/1/1 47/47/47 94/94/94
f 6/6/6 9/9/9 58/58/58
f 25/25/25 94/94/94 67/67/67
f 32/32/32 28/28/28 78/78/78
f 1/1/1 26/26/26 2/2/2
f 4/4/4 86/86/86 5/5/5
f 7/7/7 12/12/12 8/8/8
f 10/10/10 87/87/87 11/11/11
f 13/13/13 88/88/88 14/14/14
f 16/16/16 89/89/89 17/17/17
f 19/19/19 90/90/90 20/20/20
f 22/22/22 91/91/91 23/23/23
f 25/25/25 92/92/92 26/26/26
f 27/27/27 110/110/110 28/28/28
f 30/30/30 34/34/34 31/31/31
f 33/33/33 65/65/65 34/34/34
f 36/36/36 111/111/111 37/37/37
f 39/39/39 16/16/16 18/18/18
f 41/41/41 71/71/71 21/21/21
f 42/42/42 24/24/24 23/23/23
f 44/44/44 53/53/53 10/10/10
f 46/46/46 93/93/93 47/47/47
f 49/49/49 19/19/19 50/50/50
f 2/2/2 96/96/96 52/52/52
f 54/54/54 98/98/98 55/55/55
f 57/57/57 99/99/99 58/58/58
f 8/8/8 100/100/100 60/60/60
f 61/61/61 101/101/101 62/62/62
f 64/64/64 102/102/102 65/65/65
f 67/67/67 103/103/103 68/68/68
f 70/70/70 104/104/104 71/71/71
f 73/73/73 92/92/92 66/66/66
f 75/75/75 107/107/107 76/76/76
f 78/78/78 108/108/108 79/79/79
f 81/81/81 30/30/30 72/72/72
f 83/83/83 109/109/109 84/84/84
f 3/3/3 2/2/2 53/53/53
f 86/86/86 46/46/46 48/48/48
f 8/8/8 49/49/49 51/51/51
f 53/53/53 52/52/52 87/87/87
f 56/56/56 55/55/55 88/88/88
f 89/89/89 57/57/57 59/59/59
f 49/49/49 60/60/60 90/90/90
f 61/61/61 63/63/63 91/91/91
f 64/64/64 66/66/66 92/92/92
f 69/69/69 68/68/68 27/27/27
f 70/70/70 72/72/72 30/30/30
f 74/74/74 66/66/66 65/65/65
f 77/77/77 76/76/76 36/36/36
f 80/80/80 79/79/79 39/39/39
f 82/82/82 72/72/72 71/71/71
f 85/85/85 84/84/84 42/42/42
f 45/45/45 10/10/10 12/12/12
f 93/93/93 112/112/112 94/94/94
f 19/19/19 21/21/21 95/95/95
f 26/26/26 105/105/105 96/96/96
f 97/97/97 106/106/106 98/98/98
f 99/99/99 4/4/4 6/6/6
f 12/12/12 11/11/11 100/100/100
f 15/15/15 14/14/14 62/62/62
f 102/102/102 31/31/31 34/34/34
f 94/94/94 112/112/112 103/103/103
f 104/104/104 95/95/95 21/21/21
f 105/105/105 26/26/26 92/92/92
f 106/106/106 97/97/97 107/107/107
f 28/28/28 110/110/110 108/108/108
f 35/35/35 34/34/34 30/30/30
f 37/37/37 111/111/111 109/109/109
f 5/5/5 45/45/45 7/7/7
f 17/17/17 50/50/50 95/95/95
f 31/31/31 102/102/102 29/29/29
f 18/18/18 95/95/95 104/104/104
f 3/3/3 44/44/44 48/48/48
f 58/58/58 9/9/9 51/51/51
f 64/64/64 25/25/25 67/67/67
f 70/70/70 32/32/32 78/78/78
f 44/44/44 45/45/45 5/5/5
f 59/59/59 51/51/51 50/50/50
f 29/29/29 102/102/102 64/64/64
f 40/40/40 104/104/104 70/70/70
f 1/1/1 3/3/3 47/47/47
f 6/6/6 7/7/7 9/9/9
f 25/25/25 1/1/1 94/94/94
f 32/32/32 31/31/31 28/28/28
