v 497.696 1222.69 -246.678
v 507.228 1225.53 -248.337
v 499.609 1227.11 -248.337
v 489.555 1245.83 -263.625
v 490.559 1238.71 -250.353
v 490.559 1238.71 -263.625
v 485.541 1254.93 -246.678
v 488.102 1245.93 -248.338
v 489.897 1252.87 -248.338
v 484.657 1236.6 -246.678
v 478.494 1246.54 -243.133
v 480.127 1234.97 -243.133
v 480.127 1234.97 -243.133
v 478.494 1246.54 -263.625
v 480.127 1234.97 -263.625
v 507.228 1262.4 -263.625
v 500.714 1261.16 -250.353
v 500.714 1261.16 -263.625
v 498.408 1266.99 -246.678
v 507.228 1273.49 -243.133
v 496.638 1271.47 -243.133
v 496.638 1271.47 -243.133
v 507.228 1273.49 -263.625
v 496.638 1271.47 -263.625
v 516.759 1222.69 -246.678
v 507.228 1220.71 -246.678
v 523.897 1238.71 -263.625
v 524.901 1245.83 -250.353
v 524.901 1245.83 -263.625
v 528.915 1254.93 -246.678
v 526.354 1245.93 -248.338
v 531.159 1246.23 -246.678
v 534.329 1234.97 -243.133
v 535.961 1246.54 -243.133
v 534.329 1234.97 -243.133
v 535.961 1246.54 -263.625
v 535.961 1246.54 -243.133
v 513.742 1261.16 -263.625
v 507.228 1262.4 -250.353
v 516.047 1266.99 -246.678
v 507.228 1268.67 -246.678
v 517.818 1271.47 -243.133
v 507.228 1273.49 -243.133
v 489.735 1228.29 -246.678
v 489.186 1238.22 -248.337
v 494.309 1232.58 -263.625
v 500.189 1228.44 -250.353
v 500.189 1228.44 -263.625
v 494.12 1258.67 -248.338
v 500.18 1262.51 -248.338
v 495.783 1218.27 -243.133
v 486.225 1225 -243.133
v 495.783 1218.27 -243.133
v 486.225 1225 -263.625
v 495.783 1218.27 -263.625
v 495.114 1257.61 -263.625
v 491.212 1252.25 -250.353
v 491.212 1252.25 -263.625
v 481.188 1256.98 -243.133
v 490.825 1262.19 -246.678
v 487.533 1265.7 -243.133
v 481.188 1256.98 -243.133
v 487.533 1265.7 -263.625
v 481.188 1256.98 -263.625
v 529.799 1236.6 -246.678
v 521.21 1231.58 -248.337
v 524.72 1228.29 -246.678
v 514.267 1228.44 -250.353
v 520.146 1232.58 -263.625
v 514.267 1228.44 -263.625
v 514.276 1262.51 -248.338
v 523.631 1262.19 -246.678
v 518.672 1218.27 -243.133
v 518.672 1218.27 -263.625
v 528.231 1225 -243.133
v 518.672 1218.27 -243.133
v 523.244 1252.25 -250.353
v 519.342 1257.61 -263.625
v 523.244 1252.25 -263.625
v 533.267 1256.98 -243.133
v 533.267 1256.98 -243.133
v 526.923 1265.7 -263.625
v 526.923 1265.7 -243.133
v 493.246 1231.58 -248.337
v 494.309 1232.58 -250.353
v 486.225 1225 -243.133
v 495.114 1257.61 -250.353
v 487.533 1265.7 -243.133
v 520.146 1232.58 -250.353
v 520.336 1258.67 -248.338
v 528.231 1225 -243.133
v 528.231 1225 -263.625
v 519.342 1257.61 -250.353
v 526.923 1265.7 -243.133
v 483.297 1246.23 -246.678
v 507.228 1226.98 -250.353
v 507.228 1226.98 -263.625
v 507.228 1263.86 -248.338
v 507.228 1215.9 -243.133
v 507.228 1215.9 -243.133
v 507.228 1215.9 -263.625
v 489.555 1245.83 -250.353
v 478.494 1246.54 -243.133
v 525.269 1238.22 -248.337
v 523.897 1238.71 -250.353
v 513.742 1261.16 -250.353
v 514.846 1227.11 -248.337
v 524.559 1252.87 -248.338
v 534.329 1234.97 -263.625
v 517.818 1271.47 -243.133
v 517.818 1271.47 -263.625
v 533.267 1256.98 -263.625
vt 0.1275 0.1878
vt 0.0033 0.1621
vt 0.1275 0.1621
vt 0.4999 0.0638
vt 0.3758 0.1451
vt 0.3758 0.0638
vt 0.6143 0.1878
vt 0.4999 0.1621
vt 0.6143 0.1621
vt 0.3758 0.1878
vt 0.4999 0.2169
vt 0.3758 0.2169
vt 0.3758 0.2169
vt 0.4999 0.3263
vt 0.3758 0.3263
vt 0.9575 0.0638
vt 0.8431 0.1451
vt 0.8431 0.0638
vt 0.8431 0.1878
vt 0.9575 0.2169
vt 0.8431 0.2169
vt 0.8431 0.2169
vt 0.9575 0.3263
vt 0.8431 0.3263
vt 0.1275 0.1878
vt 0.0033 0.1878
vt 0.3758 0.0638
vt 0.4999 0.1451
vt 0.4999 0.0638
vt 0.6143 0.1878
vt 0.4999 0.1621
vt 0.4999 0.1878
vt 0.3758 0.2169
vt 0.4999 0.2169
vt 0.3758 0.2169
vt 0.4999 0.3263
vt 0.4999 0.2169
vt 0.8431 0.0638
vt 0.9575 0.1451
vt 0.8431 0.1878
vt 0.9575 0.1878
vt 0.8431 0.2169
vt 0.9575 0.2169
vt 0.2516 0.1878
vt 0.3758 0.1621
vt 0.2516 0.0638
vt 0.1275 0.1451
vt 0.1275 0.0638
vt 0.7287 0.1621
vt 0.8431 0.1621
vt 0.1275 0.2169
vt 0.2516 0.2169
vt 0.1275 0.2169
vt 0.2516 0.3263
vt 0.1275 0.3263
vt 0.7287 0.0638
vt 0.6143 0.1451
vt 0.6143 0.0638
vt 0.6143 0.2169
vt 0.7287 0.1878
vt 0.7287 0.2169
vt 0.6143 0.2169
vt 0.7287 0.3263
vt 0.6143 0.3263
vt 0.3758 0.1878
vt 0.2516 0.1621
vt 0.2516 0.1878
vt 0.1275 0.1451
vt 0.2516 0.0638
vt 0.1275 0.0638
vt 0.8431 0.1621
vt 0.7287 0.1878
vt 0.1275 0.2169
vt 0.1275 0.3263
vt 0.2516 0.2169
vt 0.1275 0.2169
vt 0.6143 0.1451
vt 0.7287 0.0638
vt 0.6143 0.0638
vt 0.6143 0.2169
vt 0.6143 0.2169
vt 0.7287 0.3263
vt 0.7287 0.2169
vt 0.2516 0.1621
vt 0.2516 0.1451
vt 0.2516 0.2169
vt 0.7287 0.1451
vt 0.7287 0.2169
vt 0.2516 0.1451
vt 0.7287 0.1621
vt 0.2516 0.2169
vt 0.2516 0.3263
vt 0.7287 0.1451
vt 0.7287 0.2169
vt 0.4999 0.1878
vt 0.0033 0.1451
vt 0.0033 0.0638
vt 0.9575 0.1621
vt 0.0033 0.2169
vt 0.0033 0.2169
vt 0.0033 0.3263
vt 0.4999 0.1451
vt 0.4999 0.2169
vt 0.3758 0.1621
vt 0.3758 0.1451
vt 0.8431 0.1451
vt 0.1275 0.1621
vt 0.6143 0.1621
vt 0.3758 0.3263
vt 0.8431 0.2169
vt 0.8431 0.3263
vt 0.6143 0.3263
vn 0.1907 0.4403 0.8773
vn -0 0.5694 0.822
vn 0.2263 0.5225 0.8221
vn 0.9984 -0.0562 0
vn 0.8917 0.3199 0.3203
vn 0.9412 0.3377 0
vn 0.4329 -0.2043 0.878
vn 0.5697 -0.0321 0.8212
vn 0.5172 -0.2441 0.8203
vn 0.4517 0.1621 0.8773
vn 0.5921 -0.0337 0.8051
vn 0.5582 0.2003 0.8051
vn -0.9412 -0.3377 0
vn -0.9984 0.0562 0
vn -0.9412 -0.3377 0
vn -0 -1 0
vn 0.3486 -0.8814 0.3188
vn 0.3678 -0.9299 0
vn 0.1761 -0.4452 0.878
vn -0 -0.5931 0.8051
vn 0.2181 -0.5515 0.8051
vn -0.3678 0.9299 0
vn 0 1 0
vn -0.3678 0.9299 0
vn -0.1907 0.4403 0.8773
vn -0 0.4799 0.8773
vn -0.9412 0.3377 0
vn -0.9461 -0.053 0.3195
vn -0.9984 -0.0562 0
vn -0.4329 -0.2043 0.878
vn -0.5697 -0.0321 0.8212
vn -0.4786 -0.0267 0.8776
vn -0.5582 0.2003 0.8051
vn -0.5921 -0.0337 0.8051
vn 0.9412 -0.3377 0
vn 0.9984 0.0562 0
vn 0.9984 0.0562 0
vn -0.3678 -0.9299 0
vn -0 -0.9478 0.3188
vn -0.1761 -0.4452 0.878
vn 0 -0.4787 0.878
vn 0.3678 0.9299 0
vn 0 1 0
vn 0.3501 0.3283 0.8773
vn 0.5359 0.1923 0.8221
vn 0.7295 0.684 0
vn 0.3765 0.8693 0.3203
vn 0.3975 0.9176 0
vn 0.3912 -0.4172 0.8203
vn 0.2103 -0.5318 0.8203
vn 0.2357 0.5442 0.8051
vn 0.4326 0.4057 0.8051
vn -0.3975 -0.9176 0
vn -0.7295 -0.684 0
vn -0.3975 -0.9176 0
vn 0.684 -0.7295 0
vn 0.8572 -0.4045 0.3188
vn 0.9044 -0.4268 0
vn 0.5364 -0.2531 0.8051
vn 0.3275 -0.3492 0.878
vn 0.4057 -0.4326 0.8051
vn -0.9044 0.4268 0
vn -0.684 0.7295 0
vn -0.9044 0.4268 0
vn -0.4517 0.1621 0.8773
vn -0.4153 0.3895 0.8221
vn -0.3501 0.3283 0.8773
vn -0.3765 0.8693 0.3203
vn -0.7295 0.684 0
vn -0.3975 0.9176 0
vn -0.2103 -0.5318 0.8203
vn -0.3275 -0.3492 0.878
vn -0.2357 0.5442 0.8051
vn 0.3975 -0.9176 0
vn 0.7295 -0.684 0
vn 0.3975 -0.9176 0
vn -0.8572 -0.4045 0.3188
vn -0.684 -0.7295 0
vn -0.9044 -0.4267 0
vn -0.5364 -0.2531 0.8051
vn 0.9044 0.4268 0
vn 0.684 0.7295 0
vn 0.684 0.7295 0
vn 0.4153 0.3895 0.8221
vn 0.691 0.648 0.3203
vn -0.7295 -0.684 0
vn 0.6484 -0.6914 0.3187
vn -0.684 0.7295 0
vn -0.691 0.648 0.3203
vn -0.3912 -0.4172 0.8203
vn -0.4326 0.4057 0.8051
vn 0.7295 -0.684 0
vn -0.6483 -0.6914 0.3188
vn -0.4057 -0.4326 0.8051
vn 0.4786 -0.0267 0.8776
vn -0 0.9473 0.3203
vn 0 1 0
vn -0 -0.5719 0.8203
vn -0 0.5931 0.8052
vn -0 -1 0
vn -0 -1 0
vn 0.9461 -0.053 0.3195
vn -0.9984 0.0562 0
vn -0.5359 0.1923 0.8221
vn -0.8917 0.3199 0.3203
vn -0.3486 -0.8814 0.3188
vn -0.2263 0.5225 0.8221
vn -0.5172 -0.2441 0.8203
vn 0.9412 -0.3377 0
vn -0.2181 -0.5515 0.8051
vn 0.3678 0.9299 0
vn 0.9044 0.4268 0
f 1/1/1 2/2/2 3/3/3
f 4/4/4 5/5/5 6/6/6
f 7/7/7 8/8/8 9/9/9
f 10/10/10 11/11/11 12/12/12
f 13/13/13 14/14/14 15/15/15
f 16/16/16 17/17/17 18/18/18
f 19/19/19 20/20/20 21/21/21
f 22/22/22 23/23/23 24/24/24
f 25/25/25 2/2/2 26/26/26
f 27/27/27 28/28/28 29/29/29
f 30/30/30 31/31/31 32/32/32
f 32/32/32 33/33/33 34/34/34
f 35/35/35 36/36/36 37/37/37
f 38/38/38 39/39/39 16/16/16
f 40/40/40 20/20/20 41/41/41
f 42/42/42 23/23/23 43/43/43
f 44/44/44 45/45/45 10/10/10
f 46/46/46 47/47/47 48/48/48
f 19/19/19 49/49/49 50/50/50
f 51/51/51 44/44/44 52/52/52
f 53/53/53 54/54/54 55/55/55
f 56/56/56 57/57/57 58/58/58
f 59/59/59 60/60/60 61/61/61
f 62/62/62 63/63/63 64/64/64
f 65/65/65 66/66/66 67/67/67
f 68/68/68 69/69/69 70/70/70
f 71/71/71 72/72/72 40/40/40
f 73/73/73 67/67/67 25/25/25
f 74/74/74 75/75/75 76/76/76
f 77/77/77 78/78/78 79/79/79
f 80/80/80 72/72/72 30/30/30
f 81/81/81 82/82/82 83/83/83
f 1/1/1 84/84/84 44/44/44
f 6/6/6 85/85/85 46/46/46
f 7/7/7 49/49/49 60/60/60
f 52/52/52 10/10/10 12/12/12
f 86/86/86 15/15/15 54/54/54
f 18/18/18 87/87/87 56/56/56
f 61/61/61 19/19/19 21/21/21
f 88/88/88 24/24/24 63/63/63
f 66/66/66 25/25/25 67/67/67
f 89/89/89 27/27/27 69/69/69
f 90/90/90 30/30/30 72/72/72
f 91/91/91 65/65/65 67/67/67
f 92/92/92 35/35/35 75/75/75
f 93/93/93 38/38/38 78/78/78
f 94/94/94 40/40/40 72/72/72
f 82/82/82 42/42/42 83/83/83
f 95/95/95 45/45/45 8/8/8
f 48/48/48 96/96/96 97/97/97
f 19/19/19 98/98/98 41/41/41
f 99/99/99 1/1/1 51/51/51
f 100/100/100 55/55/55 101/101/101
f 58/58/58 102/102/102 4/4/4
f 95/95/95 59/59/59 11/11/11
f 103/103/103 64/64/64 14/14/14
f 32/32/32 104/104/104 65/65/65
f 96/96/96 70/70/70 97/97/97
f 98/98/98 40/40/40 41/41/41
f 26/26/26 73/73/73 25/25/25
f 100/100/100 74/74/74 76/76/76
f 28/28/28 79/79/79 29/29/29
f 32/32/32 80/80/80 30/30/30
f 36/36/36 81/81/81 37/37/37
f 8/8/8 5/5/5 102/102/102
f 98/98/98 17/17/17 39/39/39
f 31/31/31 105/105/105 104/104/104
f 71/71/71 39/39/39 106/106/106
f 84/84/84 47/47/47 85/85/85
f 9/9/9 87/87/87 49/49/49
f 66/66/66 68/68/68 107/107/107
f 90/90/90 77/77/77 108/108/108
f 84/84/84 5/5/5 45/45/45
f 49/49/49 17/17/17 50/50/50
f 66/66/66 105/105/105 89/89/89
f 71/71/71 93/93/93 90/90/90
f 2/2/2 47/47/47 3/3/3
f 9/9/9 102/102/102 57/57/57
f 107/107/107 96/96/96 2/2/2
f 108/108/108 28/28/28 31/31/31
f 1/1/1 26/26/26 2/2/2
f 4/4/4 102/102/102 5/5/5
f 7/7/7 95/95/95 8/8/8
f 10/10/10 95/95/95 11/11/11
f 13/13/13 103/103/103 14/14/14
f 16/16/16 39/39/39 17/17/17
f 19/19/19 41/41/41 20/20/20
f 22/22/22 43/43/43 23/23/23
f 25/25/25 107/107/107 2/2/2
f 27/27/27 105/105/105 28/28/28
f 30/30/30 108/108/108 31/31/31
f 32/32/32 65/65/65 33/33/33
f 35/35/35 109/109/109 36/36/36
f 38/38/38 106/106/106 39/39/39
f 40/40/40 110/110/110 20/20/20
f 42/42/42 111/111/111 23/23/23
f 44/44/44 84/84/84 45/45/45
f 46/46/46 85/85/85 47/47/47
f 19/19/19 60/60/60 49/49/49
f 51/51/51 1/1/1 44/44/44
f 53/53/53 86/86/86 54/54/54
f 56/56/56 87/87/87 57/57/57
f 59/59/59 7/7/7 60/60/60
f 62/62/62 88/88/88 63/63/63
f 65/65/65 104/104/104 66/66/66
f 68/68/68 89/89/89 69/69/69
f 71/71/71 90/90/90 72/72/72
f 73/73/73 91/91/91 67/67/67
f 74/74/74 92/92/92 75/75/75
f 77/77/77 93/93/93 78/78/78
f 80/80/80 94/94/94 72/72/72
f 81/81/81 112/112/112 82/82/82
f 1/1/1 3/3/3 84/84/84
f 6/6/6 5/5/5 85/85/85
f 7/7/7 9/9/9 49/49/49
f 52/52/52 44/44/44 10/10/10
f 86/86/86 13/13/13 15/15/15
f 18/18/18 17/17/17 87/87/87
f 61/61/61 60/60/60 19/19/19
f 88/88/88 22/22/22 24/24/24
f 66/66/66 107/107/107 25/25/25
f 89/89/89 105/105/105 27/27/27
f 90/90/90 108/108/108 30/30/30
f 91/91/91 33/33/33 65/65/65
f 92/92/92 109/109/109 35/35/35
f 93/93/93 106/106/106 38/38/38
f 94/94/94 110/110/110 40/40/40
f 82/82/82 111/111/111 42/42/42
f 95/95/95 10/10/10 45/45/45
f 48/48/48 47/47/47 96/96/96
f 19/19/19 50/50/50 98/98/98
f 99/99/99 26/26/26 1/1/1
f 100/100/100 53/53/53 55/55/55
f 58/58/58 57/57/57 102/102/102
f 95/95/95 7/7/7 59/59/59
f 103/103/103 62/62/62 64/64/64
f 32/32/32 31/31/31 104/104/104
f 96/96/96 68/68/68 70/70/70
f 98/98/98 71/71/71 40/40/40
f 26/26/26 99/99/99 73/73/73
f 100/100/100 101/101/101 74/74/74
f 28/28/28 77/77/77 79/79/79
f 32/32/32 34/34/34 80/80/80
f 36/36/36 112/112/112 81/81/81
f 8/8/8 45/45/45 5/5/5
f 98/98/98 50/50/50 17/17/17
f 31/31/31 28/28/28 105/105/105
f 71/71/71 98/98/98 39/39/39
f 84/84/84 3/3/3 47/47/47
f 9/9/9 57/57/57 87/87/87
f 66/66/66 89/89/89 68/68/68
f 90/90/90 93/93/93 77/77/77
f 84/84/84 85/85/85 5/5/5
f 49/49/49 87/87/87 17/17/17
f 66/66/66 104/104/104 105/105/105
f 71/71/71 106/106/106 93/93/93
f 2/2/2 96/96/96 47/47/47
f 9/9/9 8/8/8 102/102/102
f 107/107/107 68/68/68 96/96/96
f 108/108/108 77/77/77 28/28/28
