v -1423.97 1.12281 569.476
v -1423.97 -3.3793 -639.757
v -1423.97 1.123 -639.757
v 1297.64 1.123 -638.809
v 1297.64 -3.37949 569.476
v 1297.64 1.12281 569.476
v 12.1624 -3.3793 -639.256
v 1297.64 -3.3793 -638.809
v -1423.97 -3.37949 569.476
v -1423.97 1.12281 569.476
v -1428.52 5.62501 574.029
v -1423.97 1.123 -639.757
v -1428.52 5.62521 -644.311
v 1302.19 5.62521 -643.362
v 1297.64 1.12281 569.476
v 1302.19 5.62501 574.03
v 12.0829 5.62521 -643.81
v 1297.64 1.123 -638.809
v 1302.19 5.62521 -643.362
v -1428.52 5.62501 574.029
v 1302.19 5.62501 574.03
v -1428.52 -3.3793 -644.311
v -1428.52 1.12281 574.029
v -1428.52 1.12301 -644.311
v 1302.19 1.12281 574.03
v 1302.19 -3.3793 -643.362
v 1302.19 1.12301 -643.362
v -138.698 -3.3793 -643.863
v -1428.52 1.12301 -644.311
v -138.698 1.12301 -643.863
v -1428.52 -3.37949 574.029
v 1302.19 1.12281 574.03
v -1428.52 1.12281 574.029
v -1428.52 5.62521 -644.311
v -1428.52 5.62501 574.029
v 1302.19 5.62501 574.03
v 1302.19 5.62521 -643.362
v -138.698 5.62521 -643.863
v -1428.52 5.62521 -644.311
v -1428.52 5.62501 574.029
v 1302.19 5.62501 574.03
v -1428.52 -3.37949 574.029
v -1423.97 -3.3793 -639.757
v -1423.97 -3.37949 569.476
v 1302.19 -3.3793 -643.362
v 1297.64 -3.37949 569.476
v 1297.64 -3.3793 -638.809
v 12.0829 -3.3793 -643.81
v 12.1624 -3.3793 -639.256
v 1302.19 -3.37949 574.03
v -1423.97 -3.37949 569.476
v -138.618 1.123 -639.309
v -138.698 5.62521 -643.863
v -1428.52 5.62521 -644.311
v -138.698 -3.3793 -643.863
v -138.618 -3.3793 -639.309
v 1302.19 1.12301 -643.362
v 12.0829 -3.3793 -643.81
v 12.0829 1.12301 -643.81
v 12.0829 5.62521 -643.81
v 1302.19 5.62521 -643.362
v -1423.97 -3.37949 569.476
v 12.1624 1.123 -639.257
v -1423.97 1.12281 569.476
v 12.1624 1.123 -639.257
v -1423.97 1.12281 569.476
v -1428.52 -3.37949 574.029
v 1302.19 -3.37949 574.03
v -1428.52 -3.3793 -644.311
v 1302.19 -3.37949 574.03
v -1428.52 -3.3793 -644.311
v 1302.19 -3.37949 574.03
v 1302.19 -3.3793 -643.362
v -1428.52 -3.37949 574.029
v -138.618 -3.3793 -639.309
v -138.618 1.123 -639.309
v -1428.52 -3.3793 -644.311
v 1302.19 -3.3793 -643.362
vt 14.896 1.1986
vt 8.333 1.2605
vt 8.333 1.1986
vt -6.4383 1.1986
vt -12.9962 1.2605
vt -12.9962 1.1986
vt 0.5385 1.2605
vt -6.4383 1.2605
vt -27.7677 1.2605
vt -27.7677 1.1986
vt 14.9208 1.1367
vt 8.333 1.1986
vt 8.3083 1.1367
vt -6.4136 1.1367
vt -12.9962 1.1986
vt -13.021 1.1367
vt 0.5389 1.1367
vt -6.4383 1.1986
vt -6.4631 1.1367
vt -27.7924 1.1367
vt -12.9715 1.1367
vt 8.3083 1.0128
vt 14.9208 1.0748
vt 8.3083 1.0748
vt -13.021 1.0748
vt -6.4136 1.0128
vt -6.4136 1.0748
vt 1.3573 1.0128
vt 8.3577 1.0748
vt 1.3573 1.0748
vt -27.7924 1.0128
vt -12.9715 1.0748
vt -27.7924 1.0748
vt 8.3083 1.1367
vt 14.9208 1.1367
vt -13.021 1.1367
vt -6.4136 1.1367
vt 1.3573 1.1367
vt 8.3577 1.1367
vt -27.7924 1.1367
vt -12.9715 1.1367
vt 14.9208 1.2734
vt 8.333 1.2605
vt 14.896 1.2605
vt -6.4136 1.2734
vt -12.9962 1.2605
vt -6.4383 1.2605
vt 0.5389 1.2733
vt 0.5385 1.2605
vt -12.9715 1.2734
vt -27.7677 1.2605
vt 1.3568 1.1986
vt 1.3573 1.1367
vt 8.3577 1.1367
vt 1.3573 1.2735
vt 1.3568 1.2605
vt -6.4631 1.0748
vt 0.5389 1.0128
vt 0.5389 1.0748
vt 0.5389 1.1367
vt -6.4631 1.1367
vt 14.896 1.2605
vt 0.5385 1.1986
vt 14.896 1.1986
vt 0.5385 1.1986
vt -27.7677 1.1986
vt 14.9208 1.0128
vt -13.021 1.0128
vt 8.3577 1.0128
vt -12.9715 1.0128
vt 8.3083 1.2734
vt -13.021 1.2734
vt -6.4631 1.272
vt -27.7924 1.2734
vt 1.3568 1.2605
vt 1.3568 1.1986
vt 8.3577 1.2747
vt -6.4631 1.0128
vn 0.7071 0 -0.7071
vn 0.707 0 0.7072
vn 0.707 0 0.7072
vn -0.7072 0 0.707
vn -0.7071 0 -0.7071
vn -0.7071 0 -0.7071
vn -0.0003 0 1
vn -0.7072 0 0.707
vn 0.7071 0 -0.7071
vn 0.7071 0 -0.7071
vn 0.4051 0.8196 -0.4052
vn 0.4051 0.8196 0.4052
vn 0.4051 0.8196 0.4052
vn -0.4052 0.8196 0.4051
vn -0.4051 0.8196 -0.4052
vn -0.4052 0.8196 -0.4052
vn -0.0002 0.7111 0.7031
vn -0.4052 0.8196 0.4051
vn -0.4052 0.8196 0.4051
vn 0.4051 0.8196 -0.4052
vn -0.4052 0.8196 -0.4052
vn -0.707 0 -0.7072
vn -0.7071 0 0.7071
vn -0.707 0 -0.7072
vn 0.7071 0 0.7071
vn 0.7072 0 -0.707
vn 0.7072 0 -0.707
vn 0.0003 0 -1
vn -0.707 0 -0.7072
vn 0.0003 0 -1
vn -0.7071 0 0.7071
vn 0.7071 0 0.7071
vn -0.7071 0 0.7071
vn -0.707 0 -0.7072
vn -0.7071 0 0.7071
vn 0.7071 0 0.7071
vn 0.7072 0 -0.707
vn 0.0003 0 -1
vn -0.707 0 -0.7072
vn -0.7071 0 0.7071
vn 0.7071 0 0.7071
vn -0 -1 -0
vn -0 -1 -0
vn -0 -1 -0
vn -0 -1 -0
vn -0 -1 -0
vn -0 -1 -0
vn -0 -1 -0
vn -0 -1 -0
vn -0 -1 -0
vn -0 -1 -0
vn -0.0003 0 1
vn -0.0002 0.7111 0.7031
vn 0.4051 0.8196 0.4052
vn -0 -1 -0
vn -0 -1 -0
vn 0.7072 0 -0.707
vn 0.0003 0 -1
vn 0.0003 0 -1
vn 0.0003 0 -1
vn 0.7072 0 -0.707
vn 0.7071 0 -0.7071
vn -0.0003 0 1
vn 0.4051 0.8196 -0.4051
vn -0.0002 0.7111 0.7031
vn 0.4051 0.8196 -0.4051
vn -0.7071 0 0.7071
vn 0.7071 0 0.7071
vn -0.707 0 -0.7072
vn 0.7071 0 0.7071
vn -0 -1 -0
vn -0 -1 -0
vn -0 -1 -0
vn -0 -1 -0
vn -0.0003 0 1
vn -0.0002 0.7111 0.7031
vn -0 -1 -0
vn 0.7072 0 -0.707
f 1/1/1 2/2/2 3/3/3
f 4/4/4 5/5/5 6/6/6
f 4/4/4 7/7/7 8/8/8
f 6/6/6 9/9/9 10/10/10
f 11/11/11 12/12/12 13/13/13
f 14/14/14 15/15/15 16/16/16
f 17/17/17 18/18/18 19/19/19
f 15/15/15 20/20/20 21/21/21
f 22/22/22 23/23/23 24/24/24
f 25/25/25 26/26/26 27/27/27
f 28/28/28 29/29/29 30/30/30
f 31/31/31 32/32/32 33/33/33
f 34/34/34 23/23/23 35/35/35
f 36/36/36 27/27/27 37/37/37
f 38/38/38 29/29/29 39/39/39
f 40/40/40 32/32/32 41/41/41
f 42/42/42 43/43/43 44/44/44
f 45/45/45 46/46/46 47/47/47
f 48/48/48 47/47/47 49/49/49
f 50/50/50 51/51/51 46/46/46
f 2/2/2 52/52/52 3/3/3
f 12/12/12 53/53/53 54/54/54
f 43/43/43 55/55/55 56/56/56
f 57/57/57 58/58/58 59/59/59
f 57/57/57 60/60/60 61/61/61
f 1/1/1 62/62/62 2/2/2
f 4/4/4 8/8/8 5/5/5
f 4/4/4 63/63/63 7/7/7
f 6/6/6 5/5/5 9/9/9
f 11/11/11 64/64/64 12/12/12
f 14/14/14 18/18/18 15/15/15
f 17/17/17 65/65/65 18/18/18
f 15/15/15 66/66/66 20/20/20
f 22/22/22 67/67/67 23/23/23
f 25/25/25 68/68/68 26/26/26
f 28/28/28 69/69/69 29/29/29
f 31/31/31 70/70/70 32/32/32
f 34/34/34 24/24/24 23/23/23
f 36/36/36 25/25/25 27/27/27
f 38/38/38 30/30/30 29/29/29
f 40/40/40 33/33/33 32/32/32
f 42/42/42 71/71/71 43/43/43
f 45/45/45 72/72/72 46/46/46
f 48/48/48 73/73/73 47/47/47
f 50/50/50 74/74/74 51/51/51
f 2/2/2 75/75/75 52/52/52
f 12/12/12 76/76/76 53/53/53
f 43/43/43 77/77/77 55/55/55
f 57/57/57 78/78/78 58/58/58
f 57/57/57 59/59/59 60/60/60
