v 120.88 842.342 -230.946
v 122.006 831.655 -269.664
v 122.006 842.05 -230.868
v 120.056 832.742 -269.956
v 120.88 831.946 -269.742
v 119.754 844.226 -231.451
v 120.056 843.138 -231.16
v 120.056 845.313 -231.743
v 119.754 833.83 -270.247
v 120.88 835.714 -270.752
v 120.056 834.918 -270.539
v 122.006 846.401 -232.034
v 120.88 846.11 -231.956
v 123.132 835.714 -270.752
v 122.006 836.006 -270.83
v 123.132 846.11 -231.956
v 123.957 834.918 -270.539
v 123.957 845.313 -231.743
v 124.258 833.83 -270.247
v 123.957 843.138 -231.16
v 124.258 844.226 -231.451
v 123.132 842.342 -230.946
v 123.957 832.742 -269.956
v 122.006 842.05 -230.868
v 123.132 831.946 -269.742
v 120.88 852.737 -192.15
v 122.006 842.05 -230.868
v 122.006 852.445 -192.072
v 120.056 843.138 -231.16
v 120.88 842.342 -230.946
v 119.754 854.621 -192.655
v 120.056 853.533 -192.364
v 120.056 855.709 -192.947
v 119.754 844.226 -231.451
v 120.88 846.11 -231.956
v 120.056 845.313 -231.743
v 120.88 856.505 -193.16
v 122.006 846.401 -232.034
v 123.132 856.505 -193.16
v 122.006 856.796 -193.238
v 123.957 855.709 -192.947
v 123.132 846.11 -231.956
v 124.258 844.226 -231.451
v 123.957 845.313 -231.743
v 124.258 854.621 -192.655
v 123.957 843.138 -231.16
v 123.132 852.737 -192.15
v 123.957 853.533 -192.364
v 122.006 852.445 -192.072
v 123.132 842.342 -230.946
v 120.88 863.132 -153.354
v 122.006 852.445 -192.072
v 122.006 862.841 -153.276
v 120.056 853.533 -192.364
v 120.88 852.737 -192.15
v 119.754 865.016 -153.859
v 120.056 863.929 -153.568
v 120.056 855.709 -192.947
v 119.754 854.621 -192.655
v 120.056 866.104 -154.151
v 120.88 856.505 -193.16
v 120.88 866.9 -154.364
v 122.006 856.796 -193.238
v 123.132 866.9 -154.364
v 122.006 867.192 -154.442
v 123.957 866.104 -154.151
v 123.132 856.505 -193.16
v 124.258 865.016 -153.859
v 123.957 855.709 -192.947
v 123.957 853.533 -192.364
v 124.258 854.621 -192.655
v 123.132 863.132 -153.354
v 123.957 863.929 -153.568
v 122.006 852.445 -192.072
v 123.132 852.737 -192.15
v 121.479 884.356 -79.316
v 121.701 884.14 -79.2582
v 122.006 884.062 -79.2371
v 121.479 884.944 -79.4737
v 122.534 884.356 -79.316
v 122.534 884.944 -79.4737
v 122.006 885.239 -79.5525
v 121.701 885.16 -79.5314
v 121.397 884.65 -79.3948
v 122.311 884.14 -79.2582
v 120.46 876.052 -102.326
v 122.006 875.591 -105.694
v 122.006 875.652 -102.219
v 119.328 877.145 -102.619
v 120.88 875.882 -105.772
v 118.914 878.639 -103.019
v 120.056 876.678 -105.985
v 120.056 878.854 -106.568
v 119.754 877.766 -106.277
v 120.46 881.226 -103.712
v 119.328 880.132 -103.419
v 122.006 879.942 -106.86
v 120.88 879.65 -106.782
v 122.006 881.626 -103.819
v 123.132 879.65 -106.782
v 124.684 880.132 -103.419
v 123.552 881.226 -103.712
v 125.098 878.639 -103.019
v 123.957 878.854 -106.568
v 123.957 876.678 -105.985
v 124.258 877.766 -106.277
v 124.684 877.145 -102.619
v 123.132 875.882 -105.772
v 123.552 876.052 -102.326
v 122.006 875.591 -105.694
v 120.357 880.195 -85.5814
v 122.006 877.524 -92.2458
v 122.006 879.769 -85.467
v 120.074 878.025 -92.3798
v 119.15 881.361 -85.8938
v 118.659 879.391 -92.746
v 118.709 882.954 -86.3205
v 118.141 881.258 -93.2461
v 119.15 884.546 -86.7472
v 118.659 883.124 -93.7462
v 120.357 885.712 -87.0596
v 120.074 884.49 -94.1124
v 122.006 886.139 -87.174
v 123.938 884.49 -94.1123
v 122.006 884.991 -94.2464
v 123.655 885.712 -87.0596
v 125.353 883.124 -93.7462
v 124.862 884.546 -86.7472
v 125.871 881.258 -93.2461
v 125.304 882.954 -86.3205
v 125.353 879.391 -92.746
v 124.862 881.361 -85.8938
v 123.938 878.025 -92.3798
v 123.655 880.195 -85.5814
v 122.006 877.524 -92.2458
v 121.701 884.14 -79.2582
v 122.006 884.062 -79.2371
v 121.479 884.356 -79.316
v 121.397 884.65 -79.3948
v 121.479 884.944 -79.4737
v 121.701 885.16 -79.5314
v 122.006 885.239 -79.5525
v 122.311 885.16 -79.5314
v 122.534 884.944 -79.4737
v 122.616 884.65 -79.3948
v 122.534 884.356 -79.316
v 122.311 884.14 -79.2582
v 122.006 879.769 -85.467
v 122.006 876.557 -98.9698
v 120.477 876.953 -99.0759
v 118.948 879.512 -99.7614
v 119.357 878.035 -99.3657
v 119.357 880.989 -100.157
v 122.006 882.466 -100.553
v 120.477 882.07 -100.447
v 123.535 882.07 -100.447
v 124.655 880.989 -100.157
v 124.655 878.035 -99.3656
v 125.065 879.512 -99.7614
v 122.006 876.557 -98.9698
v 123.535 876.953 -99.0759
v 122.006 875.652 -102.219
v 122.006 862.841 -153.276
v 120.056 863.929 -153.568
v 120.88 863.132 -153.354
v 120.056 866.104 -154.151
v 119.754 865.016 -153.859
v 120.88 866.9 -154.364
v 122.006 867.192 -154.442
v 123.957 866.104 -154.151
v 123.132 866.9 -154.364
v 123.957 863.929 -153.568
v 124.258 865.016 -153.859
v 122.006 862.841 -153.276
v 123.132 863.132 -153.354
v 122.006 831.655 -269.664
v 122.006 842.05 -230.868
v 122.006 862.841 -153.276
v 122.616 884.65 -79.3948
v 122.311 885.16 -79.5314
v 122.006 884.062 -79.2371
vt 0.9633 0.5241
vt 0.9876 0.0053
vt 0.9876 0.5241
vt 0.9391 0.0053
vt 0.9633 0.0053
vt 0.9148 0.5241
vt 0.9391 0.5241
vt 0.8906 0.5241
vt 0.9148 0.0053
vt 0.8663 0.0053
vt 0.8906 0.0053
vt 0.8421 0.5241
vt 0.8663 0.5241
vt 0.8178 0.0053
vt 0.8421 0.0053
vt 0.8178 0.5241
vt 0.7936 0.0053
vt 0.7936 0.5241
vt 0.7694 0.0053
vt 0.7451 0.5241
vt 0.7694 0.5241
vt 0.7209 0.5241
vt 0.7451 0.0053
vt 0.6966 0.5241
vt 0.7209 0.0053
vt 0.9633 0.5241
vt 0.9876 0.0053
vt 0.9876 0.5241
vt 0.9391 0.0053
vt 0.9633 0.0053
vt 0.9148 0.5241
vt 0.9391 0.5241
vt 0.8906 0.5241
vt 0.9148 0.0053
vt 0.8663 0.0053
vt 0.8906 0.0053
vt 0.8663 0.5241
vt 0.8421 0.0053
vt 0.8178 0.5241
vt 0.8421 0.5241
vt 0.7936 0.5241
vt 0.8178 0.0053
vt 0.7694 0.0053
vt 0.7936 0.0053
vt 0.7694 0.5241
vt 0.7451 0.0053
vt 0.7209 0.5241
vt 0.7451 0.5241
vt 0.6966 0.5241
vt 0.7209 0.0053
vt 0.9633 0.5241
vt 0.9876 0.0053
vt 0.9876 0.5241
vt 0.9391 0.0053
vt 0.9633 0.0053
vt 0.9148 0.5241
vt 0.9391 0.5241
vt 0.8906 0.0053
vt 0.9148 0.0053
vt 0.8906 0.5241
vt 0.8663 0.0053
vt 0.8663 0.5241
vt 0.8421 0.0053
vt 0.8178 0.5241
vt 0.8421 0.5241
vt 0.7936 0.5241
vt 0.8178 0.0053
vt 0.7694 0.5241
vt 0.7936 0.0053
vt 0.7451 0.0053
vt 0.7694 0.0053
vt 0.7209 0.5241
vt 0.7451 0.5241
vt 0.6966 0.0053
vt 0.7209 0.0053
vt 0.9918 0.0129
vt 0.9918 0.0129
vt 0.9918 0.0129
vt 0.9918 0.0129
vt 0.9918 0.0129
vt 0.9918 0.0129
vt 0.9918 0.0129
vt 0.9918 0.0129
vt 0.9918 0.0129
vt 0.9918 0.0129
vt 0.9633 0.6851
vt 0.9876 0.6416
vt 0.9876 0.6851
vt 0.9391 0.6851
vt 0.9633 0.6416
vt 0.9148 0.6851
vt 0.9391 0.6416
vt 0.8906 0.6416
vt 0.9148 0.6416
vt 0.8663 0.6851
vt 0.8906 0.6851
vt 0.8421 0.6416
vt 0.8663 0.6416
vt 0.8421 0.6851
vt 0.8178 0.6416
vt 0.7936 0.6851
vt 0.8178 0.6851
vt 0.7694 0.6851
vt 0.7936 0.6416
vt 0.7451 0.6416
vt 0.7694 0.6416
vt 0.7451 0.6851
vt 0.7209 0.6416
vt 0.7209 0.6851
vt 0.6966 0.6416
vt 0.9633 0.9029
vt 0.9876 0.8158
vt 0.9876 0.9029
vt 0.9633 0.8158
vt 0.9391 0.9029
vt 0.9391 0.8158
vt 0.9148 0.9029
vt 0.9148 0.8158
vt 0.8906 0.9029
vt 0.8906 0.8158
vt 0.8663 0.9029
vt 0.8663 0.8158
vt 0.8421 0.9029
vt 0.8178 0.8158
vt 0.8421 0.8158
vt 0.8178 0.9029
vt 0.7936 0.8158
vt 0.7936 0.9029
vt 0.7694 0.8158
vt 0.7694 0.9029
vt 0.7451 0.8158
vt 0.7451 0.9029
vt 0.7209 0.8158
vt 0.7209 0.9029
vt 0.6966 0.8158
vt 0.9633 0.99
vt 0.9876 0.99
vt 0.9391 0.99
vt 0.9148 0.99
vt 0.8906 0.99
vt 0.8663 0.99
vt 0.8421 0.99
vt 0.8178 0.99
vt 0.7936 0.99
vt 0.7694 0.99
vt 0.7451 0.99
vt 0.7209 0.99
vt 0.6966 0.9029
vt 0.9876 0.7287
vt 0.9633 0.7287
vt 0.9148 0.7287
vt 0.9391 0.7287
vt 0.8906 0.7287
vt 0.8421 0.7287
vt 0.8663 0.7287
vt 0.8178 0.7287
vt 0.7936 0.7287
vt 0.7451 0.7287
vt 0.7694 0.7287
vt 0.6966 0.7287
vt 0.7209 0.7287
vt 0.6966 0.6851
vt 0.9876 0.0053
vt 0.9391 0.0053
vt 0.9633 0.0053
vt 0.8906 0.0053
vt 0.9148 0.0053
vt 0.8663 0.0053
vt 0.8421 0.0053
vt 0.7936 0.0053
vt 0.8178 0.0053
vt 0.7451 0.0053
vt 0.7694 0.0053
vt 0.6966 0.0053
vt 0.7209 0.0053
vt 0.6966 0.0053
vt 0.6966 0.0053
vt 0.6966 0.5241
vt 0.9918 0.0129
vt 0.9918 0.0129
vt 0.6966 0.99
vn -0.5 -0.8365 0.2241
vn 0 -0.9659 0.2588
vn 0 -0.9659 0.2588
vn -0.866 -0.483 0.1294
vn -0.5 -0.8365 0.2241
vn -1 -0 0
vn -0.866 -0.483 0.1294
vn -0.866 0.483 -0.1294
vn -1 -0 0
vn -0.5 0.8365 -0.2241
vn -0.866 0.483 -0.1294
vn 0 0.9659 -0.2588
vn -0.5 0.8365 -0.2241
vn 0.5 0.8365 -0.2241
vn 0 0.9659 -0.2588
vn 0.5 0.8365 -0.2241
vn 0.866 0.483 -0.1294
vn 0.866 0.4829 -0.1294
vn 1 -0 0
vn 0.866 -0.4829 0.1294
vn 1 -0 0
vn 0.5 -0.8365 0.2241
vn 0.866 -0.483 0.1294
vn 0 -0.9659 0.2588
vn 0.5 -0.8365 0.2241
vn -0.5 -0.8365 0.2241
vn 0 -0.9659 0.2588
vn 0 -0.9659 0.2588
vn -0.866 -0.483 0.1294
vn -0.5 -0.8365 0.2241
vn -1 -0 0
vn -0.866 -0.483 0.1294
vn -0.866 0.483 -0.1294
vn -1 -0 0
vn -0.5 0.8365 -0.2241
vn -0.866 0.483 -0.1294
vn -0.5 0.8365 -0.2241
vn 0 0.9659 -0.2588
vn 0.5 0.8365 -0.2241
vn 0 0.9659 -0.2588
vn 0.866 0.483 -0.1294
vn 0.5 0.8365 -0.2241
vn 1 -0 0
vn 0.866 0.4829 -0.1294
vn 1 -0 0
vn 0.866 -0.4829 0.1294
vn 0.5 -0.8365 0.2241
vn 0.866 -0.483 0.1294
vn 0 -0.9659 0.2588
vn 0.5 -0.8365 0.2241
vn -0.5 -0.8365 0.2241
vn 0 -0.9659 0.2588
vn 0 -0.9659 0.2588
vn -0.866 -0.483 0.1294
vn -0.5 -0.8365 0.2241
vn -1 -0 0
vn -0.866 -0.483 0.1294
vn -0.866 0.483 -0.1294
vn -1 -0 0
vn -0.866 0.4829 -0.1294
vn -0.5 0.8365 -0.2241
vn -0.5 0.8365 -0.2241
vn 0 0.9659 -0.2588
vn 0.5 0.8365 -0.2241
vn 0 0.9659 -0.2588
vn 0.866 0.4829 -0.1294
vn 0.5 0.8365 -0.2241
vn 1 -0 0
vn 0.866 0.483 -0.1294
vn 0.866 -0.483 0.1294
vn 1 -0 0
vn 0.5 -0.8365 0.2241
vn 0.866 -0.483 0.1294
vn 0 -0.9659 0.2588
vn 0.5 -0.8365 0.2241
vn 0 0.2589 0.9659
vn -0 0.2587 0.9659
vn 0 0.259 0.9659
vn 0 0.2588 0.9659
vn -0.0001 0.2589 0.9659
vn 0 0.2588 0.9659
vn 0 0.2587 0.966
vn -0.0001 0.2589 0.9659
vn -0.0003 0.2588 0.9659
vn 0 0.2589 0.9659
vn -0.4967 -0.8607 0.1121
vn 0 -0.9906 0.1368
vn 0 -0.9892 0.1466
vn -0.8603 -0.5094 0.018
vn -0.4961 -0.8622 0.1024
vn -0.9934 -0.0296 -0.1105
vn -0.8593 -0.5114 0.0084
vn -0.8593 0.447 -0.2484
vn -0.9923 -0.0322 -0.12
vn -0.4967 0.8014 -0.3332
vn -0.8603 0.4502 -0.2391
vn 0 0.9263 -0.3768
vn -0.4961 0.7979 -0.3424
vn 0 0.93 -0.3676
vn 0.4961 0.7979 -0.3424
vn 0.8603 0.4502 -0.2391
vn 0.4967 0.8014 -0.3332
vn 0.9934 -0.0296 -0.1105
vn 0.8593 0.447 -0.2484
vn 0.8593 -0.5114 0.0084
vn 0.9923 -0.0322 -0.12
vn 0.8603 -0.5094 0.018
vn 0.4961 -0.8622 0.1024
vn 0.4967 -0.8607 0.1121
vn 0 -0.9906 0.1368
vn -0.49 -0.7694 0.4097
vn 0 -0.9733 0.2296
vn 0 -0.8974 0.4413
vn -0.5006 -0.8432 0.1963
vn -0.8476 -0.4205 0.3236
vn -0.8665 -0.4879 0.1051
vn -0.977 0.0548 0.2063
vn -0.9998 -0.0033 -0.0192
vn -0.8444 0.5282 0.0895
vn -0.8652 0.4805 -0.1434
vn -0.4868 0.8735 0.0042
vn -0.4992 0.8342 -0.2342
vn 0 0.9996 -0.027
vn 0.4992 0.8342 -0.2342
vn 0 0.9636 -0.2674
vn 0.4868 0.8735 0.0042
vn 0.8652 0.4805 -0.1434
vn 0.8444 0.5282 0.0895
vn 0.9998 -0.0033 -0.0192
vn 0.977 0.0548 0.2063
vn 0.8665 -0.488 0.1051
vn 0.8476 -0.4205 0.3236
vn 0.5006 -0.8432 0.1963
vn 0.49 -0.7694 0.4097
vn 0 -0.9733 0.2296
vn -0.4692 -0.701 0.5371
vn -0 -0.8234 0.5674
vn -0.8117 -0.367 0.4544
vn -0.9357 0.088 0.3417
vn -0.8089 0.5414 0.2292
vn -0.4665 0.8722 0.1472
vn -0 0.9931 0.1173
vn 0.4664 0.8722 0.1472
vn 0.8089 0.5415 0.2292
vn 0.9357 0.088 0.3416
vn 0.8117 -0.367 0.4543
vn 0.4692 -0.701 0.5371
vn 0 -0.8974 0.4413
vn 0 -0.9787 0.2052
vn -0.4993 -0.8495 0.1706
vn -0.9985 -0.0143 -0.0532
vn -0.8647 -0.4965 0.076
vn -0.8647 0.468 -0.1824
vn 0 0.9502 -0.3116
vn -0.4992 0.821 -0.277
vn 0.4992 0.821 -0.277
vn 0.8647 0.468 -0.1824
vn 0.8647 -0.4965 0.076
vn 0.9985 -0.0143 -0.0532
vn 0 -0.9787 0.2052
vn 0.4993 -0.8495 0.1706
vn 0 -0.9892 0.1466
vn 0 -0.9659 0.2588
vn -0.866 -0.483 0.1294
vn -0.5 -0.8365 0.2241
vn -0.866 0.4829 -0.1294
vn -1 -0 0
vn -0.5 0.8365 -0.2241
vn 0 0.9659 -0.2588
vn 0.866 0.4829 -0.1294
vn 0.5 0.8365 -0.2241
vn 0.866 -0.483 0.1294
vn 1 -0 0
vn 0 -0.9659 0.2588
vn 0.5 -0.8365 0.2241
vn 0 -0.9659 0.2588
vn 0 -0.9659 0.2588
vn 0 -0.9659 0.2588
vn -0.0005 0.259 0.9659
vn 0.0001 0.2586 0.966
vn -0 -0.8234 0.5674
f 1/1/1 2/2/2 3/3/3
f 1/1/1 4/4/4 5/5/5
f 6/6/6 4/4/4 7/7/7
f 8/8/8 9/9/9 6/6/6
f 8/8/8 10/10/10 11/11/11
f 12/12/12 10/10/10 13/13/13
f 12/12/12 14/14/14 15/15/15
f 16/16/16 17/17/17 14/14/14
f 18/18/18 19/19/19 17/17/17
f 20/20/20 19/19/19 21/21/21
f 22/22/22 23/23/23 20/20/20
f 24/24/24 25/25/25 22/22/22
f 26/26/26 27/27/27 28/28/28
f 26/26/26 29/29/29 30/30/30
f 31/31/31 29/29/29 32/32/32
f 33/33/33 34/34/34 31/31/31
f 33/33/33 35/35/35 36/36/36
f 37/37/37 38/38/38 35/35/35
f 39/39/39 38/38/38 40/40/40
f 41/41/41 42/42/42 39/39/39
f 41/41/41 43/43/43 44/44/44
f 45/45/45 46/46/46 43/43/43
f 47/47/47 46/46/46 48/48/48
f 49/49/49 50/50/50 47/47/47
f 51/51/51 52/52/52 53/53/53
f 51/51/51 54/54/54 55/55/55
f 56/56/56 54/54/54 57/57/57
f 56/56/56 58/58/58 59/59/59
f 60/60/60 61/61/61 58/58/58
f 62/62/62 63/63/63 61/61/61
f 64/64/64 63/63/63 65/65/65
f 66/66/66 67/67/67 64/64/64
f 68/68/68 69/69/69 66/66/66
f 68/68/68 70/70/70 71/71/71
f 72/72/72 70/70/70 73/73/73
f 72/72/72 74/74/74 75/75/75
f 76/76/76 77/77/77 78/78/78
f 78/78/78 79/79/79 76/76/76
f 80/80/80 81/81/81 79/79/79
f 81/81/81 82/82/82 79/79/79
f 82/82/82 83/83/83 79/79/79
f 84/84/84 76/76/76 79/79/79
f 85/85/85 80/80/80 78/78/78
f 86/86/86 87/87/87 88/88/88
f 89/89/89 90/90/90 86/86/86
f 91/91/91 92/92/92 89/89/89
f 91/91/91 93/93/93 94/94/94
f 95/95/95 93/93/93 96/96/96
f 95/95/95 97/97/97 98/98/98
f 99/99/99 100/100/100 97/97/97
f 101/101/101 100/100/100 102/102/102
f 103/103/103 104/104/104 101/101/101
f 103/103/103 105/105/105 106/106/106
f 107/107/107 108/108/108 105/105/105
f 109/109/109 110/110/110 108/108/108
f 111/111/111 112/112/112 113/113/113
f 114/114/114 115/115/115 116/116/116
f 116/116/116 117/117/117 118/118/118
f 118/118/118 119/119/119 120/120/120
f 120/120/120 121/121/121 122/122/122
f 123/123/123 122/122/122 121/121/121
f 123/123/123 124/124/124 125/125/125
f 126/126/126 127/127/127 124/124/124
f 128/128/128 129/129/129 127/127/127
f 130/130/130 131/131/131 129/129/129
f 132/132/132 133/133/133 131/131/131
f 134/134/134 135/135/135 133/133/133
f 136/136/136 113/113/113 137/137/137
f 138/138/138 111/111/111 136/136/136
f 115/115/115 139/139/139 117/117/117
f 117/117/117 140/140/140 119/119/119
f 141/141/141 119/119/119 140/140/140
f 142/142/142 121/121/121 141/141/141
f 142/142/142 126/126/126 123/123/123
f 143/143/143 128/128/128 126/126/126
f 144/144/144 130/130/130 128/128/128
f 145/145/145 132/132/132 130/130/130
f 146/146/146 134/134/134 132/132/132
f 147/147/147 148/148/148 134/134/134
f 114/114/114 149/149/149 112/112/112
f 116/116/116 150/150/150 114/114/114
f 116/116/116 151/151/151 152/152/152
f 118/118/118 153/153/153 151/151/151
f 122/122/122 153/153/153 120/120/120
f 122/122/122 154/154/154 155/155/155
f 125/125/125 156/156/156 154/154/154
f 124/124/124 157/157/157 156/156/156
f 129/129/129 157/157/157 127/127/127
f 129/129/129 158/158/158 159/159/159
f 133/133/133 158/158/158 131/131/131
f 133/133/133 160/160/160 161/161/161
f 150/150/150 88/88/88 149/149/149
f 152/152/152 86/86/86 150/150/150
f 152/152/152 91/91/91 89/89/89
f 151/151/151 96/96/96 91/91/91
f 155/155/155 96/96/96 153/153/153
f 155/155/155 99/99/99 95/95/95
f 156/156/156 99/99/99 154/154/154
f 156/156/156 101/101/101 102/102/102
f 157/157/157 103/103/103 101/101/101
f 159/159/159 107/107/107 103/103/103
f 161/161/161 107/107/107 158/158/158
f 161/161/161 162/162/162 109/109/109
f 90/90/90 163/163/163 87/87/87
f 90/90/90 164/164/164 165/165/165
f 94/94/94 164/164/164 92/92/92
f 94/94/94 166/166/166 167/167/167
f 98/98/98 166/166/166 93/93/93
f 97/97/97 168/168/168 98/98/98
f 100/100/100 169/169/169 97/97/97
f 100/100/100 170/170/170 171/171/171
f 106/106/106 170/170/170 104/104/104
f 106/106/106 172/172/172 173/173/173
f 108/108/108 172/172/172 105/105/105
f 108/108/108 174/174/174 175/175/175
f 1/1/1 5/5/5 2/2/2
f 1/1/1 7/7/7 4/4/4
f 6/6/6 9/9/9 4/4/4
f 8/8/8 11/11/11 9/9/9
f 8/8/8 13/13/13 10/10/10
f 12/12/12 15/15/15 10/10/10
f 12/12/12 16/16/16 14/14/14
f 16/16/16 18/18/18 17/17/17
f 18/18/18 21/21/21 19/19/19
f 20/20/20 23/23/23 19/19/19
f 22/22/22 25/25/25 23/23/23
f 24/24/24 176/176/176 25/25/25
f 26/26/26 30/30/30 27/27/27
f 26/26/26 32/32/32 29/29/29
f 31/31/31 34/34/34 29/29/29
f 33/33/33 36/36/36 34/34/34
f 33/33/33 37/37/37 35/35/35
f 37/37/37 40/40/40 38/38/38
f 39/39/39 42/42/42 38/38/38
f 41/41/41 44/44/44 42/42/42
f 41/41/41 45/45/45 43/43/43
f 45/45/45 48/48/48 46/46/46
f 47/47/47 50/50/50 46/46/46
f 49/49/49 177/177/177 50/50/50
f 51/51/51 55/55/55 52/52/52
f 51/51/51 57/57/57 54/54/54
f 56/56/56 59/59/59 54/54/54
f 56/56/56 60/60/60 58/58/58
f 60/60/60 62/62/62 61/61/61
f 62/62/62 65/65/65 63/63/63
f 64/64/64 67/67/67 63/63/63
f 66/66/66 69/69/69 67/67/67
f 68/68/68 71/71/71 69/69/69
f 68/68/68 73/73/73 70/70/70
f 72/72/72 75/75/75 70/70/70
f 72/72/72 178/178/178 74/74/74
f 78/78/78 80/80/80 79/79/79
f 80/80/80 179/179/179 81/81/81
f 81/81/81 180/180/180 82/82/82
f 86/86/86 90/90/90 87/87/87
f 89/89/89 92/92/92 90/90/90
f 91/91/91 94/94/94 92/92/92
f 91/91/91 96/96/96 93/93/93
f 95/95/95 98/98/98 93/93/93
f 95/95/95 99/99/99 97/97/97
f 99/99/99 102/102/102 100/100/100
f 101/101/101 104/104/104 100/100/100
f 103/103/103 106/106/106 104/104/104
f 103/103/103 107/107/107 105/105/105
f 107/107/107 109/109/109 108/108/108
f 109/109/109 162/162/162 110/110/110
f 111/111/111 114/114/114 112/112/112
f 114/114/114 111/111/111 115/115/115
f 116/116/116 115/115/115 117/117/117
f 118/118/118 117/117/117 119/119/119
f 120/120/120 119/119/119 121/121/121
f 123/123/123 125/125/125 122/122/122
f 123/123/123 126/126/126 124/124/124
f 126/126/126 128/128/128 127/127/127
f 128/128/128 130/130/130 129/129/129
f 130/130/130 132/132/132 131/131/131
f 132/132/132 134/134/134 133/133/133
f 134/134/134 148/148/148 135/135/135
f 136/136/136 111/111/111 113/113/113
f 138/138/138 115/115/115 111/111/111
f 115/115/115 138/138/138 139/139/139
f 117/117/117 139/139/139 140/140/140
f 141/141/141 121/121/121 119/119/119
f 142/142/142 123/123/123 121/121/121
f 142/142/142 143/143/143 126/126/126
f 143/143/143 144/144/144 128/128/128
f 144/144/144 145/145/145 130/130/130
f 145/145/145 146/146/146 132/132/132
f 146/146/146 147/147/147 134/134/134
f 147/147/147 181/181/181 148/148/148
f 114/114/114 150/150/150 149/149/149
f 116/116/116 152/152/152 150/150/150
f 116/116/116 118/118/118 151/151/151
f 118/118/118 120/120/120 153/153/153
f 122/122/122 155/155/155 153/153/153
f 122/122/122 125/125/125 154/154/154
f 125/125/125 124/124/124 156/156/156
f 124/124/124 127/127/127 157/157/157
f 129/129/129 159/159/159 157/157/157
f 129/129/129 131/131/131 158/158/158
f 133/133/133 161/161/161 158/158/158
f 133/133/133 135/135/135 160/160/160
f 150/150/150 86/86/86 88/88/88
f 152/152/152 89/89/89 86/86/86
f 152/152/152 151/151/151 91/91/91
f 151/151/151 153/153/153 96/96/96
f 155/155/155 95/95/95 96/96/96
f 155/155/155 154/154/154 99/99/99
f 156/156/156 102/102/102 99/99/99
f 156/156/156 157/157/157 101/101/101
f 157/157/157 159/159/159 103/103/103
f 159/159/159 158/158/158 107/107/107
f 161/161/161 109/109/109 107/107/107
f 161/161/161 160/160/160 162/162/162
f 90/90/90 165/165/165 163/163/163
f 90/90/90 92/92/92 164/164/164
f 94/94/94 167/167/167 164/164/164
f 94/94/94 93/93/93 166/166/166
f 98/98/98 168/168/168 166/166/166
f 97/97/97 169/169/169 168/168/168
f 100/100/100 171/171/171 169/169/169
f 100/100/100 104/104/104 170/170/170
f 106/106/106 173/173/173 170/170/170
f 106/106/106 105/105/105 172/172/172
f 108/108/108 175/175/175 172/172/172
f 108/108/108 110/110/110 174/174/174
