v -1029.49 515.688 -17.7192
v -1029.27 516.527 -51.9883
v -1029.49 515.688 -52.2095
v -1029.15 515.688 -52.5512
v -1028.92 516.527 -52.3299
v -1033.97 510.667 -56.6926
v -1032.17 511.75 -55.5815
v -1033.63 510.667 -57.0343
v -1029.41 515.061 -52.8167
v -1030.22 514.308 -52.9428
v -1029.75 515.061 -52.475
v -1031.65 512.545 -54.3738
v -1030.63 513.304 -54.0343
v -1031.31 512.545 -54.7154
v -1032.52 511.75 -55.2398
v -1029.88 514.308 -53.2845
v -1030.97 513.304 -53.6927
v -1031.65 512.545 -15.5549
v -1029.75 515.061 -17.4537
v -1029.27 516.527 -17.9404
v -1029.15 515.688 -17.3775
v -1028.92 516.527 -17.5987
v -1033.97 510.667 -13.2361
v -1032.17 511.75 -14.3472
v -1032.52 511.75 -14.6889
v -1029.88 514.308 -16.6442
v -1029.75 515.061 -17.4537
v -1030.22 514.308 -16.9858
v -1031.65 512.545 -15.5549
v -1030.63 513.304 -15.8944
v -1030.97 513.304 -16.236
v -1031.31 512.545 -15.2133
v -1029.41 515.061 -17.1121
v -1029.49 515.688 -17.7192
v -1033.63 510.667 -12.8944
v -991.632 511.75 -14.3472
v -994.396 515.061 -17.1121
v -992.498 512.545 -15.2133
v -993.179 513.304 -15.8944
v -993.929 514.308 -16.6442
v -994.662 515.688 -17.3775
v -994.32 515.688 -17.7192
v -994.883 516.527 -17.5988
v -989.838 510.667 -13.2361
v -990.18 510.667 -12.8944
v -993.587 514.308 -16.9858
v -994.055 515.061 -17.4537
v -992.156 512.545 -15.5549
v -992.838 513.304 -16.2361
v -1033.97 510.667 -13.2361
v -1030.97 513.304 -16.236
v -1032.52 511.75 -14.6889
v -1033.97 509.949 -56.6926
v -1033.63 510.667 -57.0343
v -1033.63 509.949 -57.0343
v -1033.97 510.667 -13.2361
v -1033.97 510.667 -56.6926
v -990.18 509.949 -12.8944
v -1033.63 510.667 -12.8944
v -1033.63 509.949 -12.8944
v -1033.63 509.949 -12.8944
v -1033.97 510.667 -13.2361
v -1033.97 509.949 -13.2361
v -989.838 509.949 -13.2361
v -990.18 510.667 -12.8944
v -1035.69 509.949 -58.3886
v -1033.63 509.949 -57.0343
v -1035.32 509.949 -58.757
v -1035.69 509.949 -11.5401
v -1033.97 509.949 -56.6926
v -1035.32 509.949 -11.1718
v -990.18 509.949 -12.8944
v -1033.63 509.949 -12.8944
v -1035.69 509.949 -11.5401
v -1033.97 509.949 -13.2361
v -988.484 509.949 -11.1718
v -989.838 509.949 -13.2361
v -1035.32 507.202 -58.757
v -1035.69 509.949 -58.3886
v -1035.32 509.949 -58.757
v -1035.69 507.202 -58.3886
v -1035.69 509.949 -11.5401
v -1035.69 509.949 -58.3886
v -1035.32 507.202 -11.1718
v -988.484 509.949 -11.1718
v -1035.32 509.949 -11.1718
v -1035.69 507.202 -11.5401
v -1035.69 509.949 -11.5401
v -988.484 507.202 -11.1718
v -988.116 509.949 -11.5401
v -994.32 515.688 -52.2095
v -994.542 516.527 -17.9404
v -994.32 515.688 -17.7192
v -992.156 512.545 -54.3738
v -992.838 513.304 -16.2361
v -992.156 512.545 -15.5549
v -994.055 515.061 -52.475
v -994.055 515.061 -17.4537
v -994.32 515.688 -52.2095
v -994.883 516.527 -52.3299
v -994.542 516.527 -51.9883
v -991.291 511.75 -55.2398
v -990.18 510.667 -57.0343
v -991.632 511.75 -55.5815
v -994.396 515.061 -52.8166
v -993.587 514.308 -52.9429
v -993.929 514.308 -53.2845
v -992.838 513.304 -53.6927
v -992.498 512.545 -54.7154
v -993.179 513.304 -54.0343
v -992.156 512.545 -54.3738
v -994.055 515.061 -52.475
v -1033.63 510.667 -57.0343
v -1032.17 511.75 -55.5815
v -1029.88 514.308 -53.2845
v -1029.41 515.061 -52.8167
v -1031.31 512.545 -54.7154
v -1030.63 513.304 -54.0343
v -1029.15 515.688 -52.5512
v -994.662 515.688 -52.5512
v -1028.92 516.527 -52.3299
v -989.838 510.667 -13.2361
v -991.291 511.75 -55.2398
v -991.291 511.75 -14.6889
v -993.587 514.308 -16.9858
v -993.587 514.308 -52.9429
v -989.838 509.949 -13.2361
v -989.838 510.667 -56.6926
v -989.838 510.667 -13.2361
v -1033.63 509.949 -57.0343
v -990.18 510.667 -57.0343
v -990.18 509.949 -57.0343
v -989.838 510.667 -56.6926
v -989.838 509.949 -56.6926
v -988.116 509.949 -58.3886
v -989.838 509.949 -13.2361
v -988.116 509.949 -11.5401
v -1035.32 509.949 -58.757
v -990.18 509.949 -57.0343
v -988.484 509.949 -58.757
v -988.116 509.949 -58.3886
v -989.838 509.949 -56.6926
v -988.116 507.202 -11.5401
v -988.116 509.949 -58.3886
v -988.116 509.949 -11.5401
v -988.484 507.202 -58.757
v -1035.32 509.949 -58.757
v -988.484 509.949 -58.757
v -988.116 507.202 -58.3886
v -988.116 509.949 -58.3886
v -994.542 516.527 -51.9883
v -994.883 516.527 -17.5988
v -994.542 516.527 -17.9404
v -994.883 516.527 -52.3299
v -1029.27 516.527 -51.9883
v -1029.27 516.527 -17.9404
v -994.542 516.527 -17.9404
v -991.291 511.75 -14.6889
v -1030.22 514.308 -16.9858
v -1033.97 509.949 -13.2361
v -1033.63 510.667 -12.8944
v -989.838 510.667 -13.2361
v -1033.97 509.949 -13.2361
v -988.116 509.949 -11.5401
v -1035.69 507.202 -58.3886
v -1035.69 507.202 -11.5401
v -988.116 507.202 -11.5401
v -992.838 513.304 -53.6927
v -989.838 510.667 -56.6926
v -989.838 510.667 -56.6926
v -989.838 509.949 -56.6926
v -1033.63 510.667 -57.0343
v -989.838 509.949 -56.6926
v -1033.63 509.949 -57.0343
v -988.116 507.202 -58.3886
v -1035.32 507.202 -58.757
v -1028.92 516.527 -52.3299
v -1028.92 516.527 -17.5987
vt 0.2788 0.7224
vt 0.2733 0.9476
vt 0.2788 0.949
vt 0.2778 0.9519
vt 0.2712 0.9499
vt 0.3147 0.9785
vt 0.3029 0.9712
vt 0.3144 0.9807
vt 0.2816 0.9534
vt 0.2879 0.9539
vt 0.2829 0.9508
vt 0.2995 0.9633
vt 0.2922 0.9615
vt 0.2972 0.9656
vt 0.3052 0.9689
vt 0.286 0.9566
vt 0.2945 0.9588
vt 0.2995 0.7081
vt 0.2829 0.7206
vt 0.2734 0.7237
vt 0.2725 0.7161
vt 0.2711 0.7216
vt 0.3045 0.6818
vt 0.2924 0.6897
vt 0.2947 0.692
vt 0.2773 0.707
vt 0.2768 0.7135
vt 0.2801 0.7089
vt 0.2891 0.6976
vt 0.2823 0.7004
vt 0.285 0.7026
vt 0.2867 0.6954
vt 0.2743 0.7119
vt 0.2755 0.7168
vt 0.302 0.6802
vt 0.026 0.6897
vt 0.0441 0.7119
vt 0.0317 0.6953
vt 0.0361 0.7004
vt 0.0411 0.707
vt 0.0459 0.7161
vt 0.044 0.7173
vt 0.0473 0.7216
vt 0.014 0.6812
vt 0.0164 0.6802
vt 0.0383 0.7089
vt 0.0416 0.7135
vt 0.0293 0.6976
vt 0.0334 0.7026
vt 0.3147 0.6929
vt 0.2945 0.7126
vt 0.3052 0.7024
vt 0.3194 0.9785
vt 0.3144 0.9807
vt 0.3184 0.9812
vt 0.3147 0.6929
vt 0.3147 0.9785
vt 0.0164 0.6754
vt 0.302 0.6802
vt 0.302 0.6754
vt 0.302 0.6754
vt 0.3045 0.6818
vt 0.3048 0.6767
vt 0.0138 0.6766
vt 0.0164 0.6802
vt 0.3307 0.9896
vt 0.3184 0.9812
vt 0.3283 0.9921
vt 0.3307 0.6817
vt 0.3194 0.9785
vt 0.3131 0.6641
vt 0.0164 0.6754
vt 0.302 0.6754
vt 0.316 0.6653
vt 0.3048 0.6767
vt 0.0053 0.6641
vt 0.0138 0.6766
vt 0.3488 0.9921
vt 0.3307 0.9896
vt 0.3307 0.9921
vt 0.3488 0.9896
vt 0.3307 0.6817
vt 0.3307 0.9896
vt 0.3131 0.6461
vt 0.0053 0.6641
vt 0.3131 0.6641
vt 0.3155 0.6461
vt 0.316 0.6653
vt 0.0053 0.6461
vt 0.0029 0.6653
vt 0.2788 0.7224
vt 0.2733 0.9476
vt 0.2788 0.949
vt 0.2995 0.7081
vt 0.2945 0.9588
vt 0.2995 0.9633
vt 0.2829 0.7206
vt 0.2829 0.9508
vt 0.2755 0.7168
vt 0.2711 0.7216
vt 0.2734 0.7237
vt 0.2947 0.692
vt 0.302 0.6802
vt 0.2924 0.6897
vt 0.2743 0.7119
vt 0.2801 0.7089
vt 0.2773 0.707
vt 0.285 0.7026
vt 0.2867 0.6954
vt 0.2823 0.7004
vt 0.2891 0.6976
vt 0.2768 0.7135
vt 0.0164 0.6802
vt 0.026 0.6897
vt 0.0411 0.707
vt 0.0441 0.7119
vt 0.0317 0.6953
vt 0.0361 0.7004
vt 0.0459 0.7161
vt 0.2725 0.7161
vt 0.0473 0.7216
vt 0.3147 0.9785
vt 0.3052 0.7024
vt 0.3052 0.9689
vt 0.2879 0.9539
vt 0.2879 0.7175
vt 0.3194 0.9785
vt 0.3147 0.6929
vt 0.3147 0.9785
vt 0.0164 0.6754
vt 0.302 0.6802
vt 0.302 0.6754
vt 0.3045 0.6818
vt 0.3048 0.6767
vt 0.3307 0.6817
vt 0.3194 0.9785
vt 0.3307 0.9896
vt 0.0053 0.6641
vt 0.302 0.6754
vt 0.3131 0.6641
vt 0.316 0.6653
vt 0.3048 0.6767
vt 0.3488 0.9896
vt 0.3307 0.6817
vt 0.3307 0.9896
vt 0.3131 0.6461
vt 0.0053 0.6641
vt 0.3131 0.6641
vt 0.3155 0.6461
vt 0.316 0.6653
vt 0.0451 0.9476
vt 0.0473 0.7216
vt 0.0451 0.7238
vt 0.0473 0.9498
vt 0.2733 0.9476
vt 0.2734 0.7237
vt 0.0451 0.7238
vt 0.0237 0.692
vt 0.2879 0.7175
vt 0.3194 0.6929
vt 0.302 0.6802
vt 0.014 0.6812
vt 0.3194 0.6929
vt 0.0029 0.6653
vt 0.3488 0.9896
vt 0.3488 0.6817
vt 0.0029 0.6461
vt 0.2945 0.7126
vt 0.3045 0.6818
vt 0.3147 0.6929
vt 0.3194 0.6929
vt 0.0164 0.6802
vt 0.3194 0.6929
vt 0.0164 0.6754
vt 0.3488 0.6817
vt 0.0053 0.6461
vt 0.2712 0.9499
vt 0.2711 0.7216
vn -0.8483 0.4107 0.3343
vn -0.8877 0.3213 -0.3298
vn -0.8483 0.4107 -0.3343
vn -0.3342 0.4107 -0.8483
vn -0.3299 0.3212 -0.8877
vn -0.4365 0.8737 -0.2147
vn -0.1825 0.8446 -0.5034
vn -0.2147 0.8737 -0.4365
vn -0.2969 0.5644 -0.7703
vn -0.698 0.6653 -0.265
vn -0.7704 0.5643 -0.2968
vn -0.575 0.7903 -0.2114
vn -0.239 0.7304 -0.6398
vn -0.2114 0.7904 -0.575
vn -0.5035 0.8445 -0.1824
vn -0.2649 0.6653 -0.698
vn -0.6399 0.7303 -0.239
vn -0.5751 0.7903 0.2114
vn -0.7704 0.5642 0.2969
vn -0.8877 0.3214 0.3298
vn -0.3342 0.4106 0.8484
vn -0.3299 0.3211 0.8877
vn -0.4365 0.8737 0.2148
vn -0.1825 0.8446 0.5034
vn -0.5035 0.8445 0.1824
vn -0.2648 0.6653 0.698
vn -0.7704 0.5642 0.2969
vn -0.698 0.6653 0.265
vn -0.5751 0.7903 0.2114
vn -0.239 0.7304 0.6398
vn -0.64 0.7303 0.239
vn -0.2114 0.7904 0.575
vn -0.2968 0.5642 0.7704
vn -0.8483 0.4107 0.3343
vn -0.2148 0.8737 0.4365
vn 0.1824 0.8445 0.5035
vn 0.2969 0.5643 0.7704
vn 0.2113 0.7904 0.575
vn 0.239 0.7303 0.6399
vn 0.265 0.6653 0.6979
vn 0.3343 0.4106 0.8483
vn 0.8483 0.4106 0.3342
vn 0.3299 0.3212 0.8877
vn 0.4365 0.8737 0.2148
vn 0.2147 0.8737 0.4365
vn 0.698 0.6653 0.2649
vn 0.7704 0.5642 0.2969
vn 0.575 0.7904 0.2115
vn 0.6399 0.7304 0.239
vn -0.4365 0.8737 0.2148
vn -0.64 0.7303 0.239
vn -0.5035 0.8445 0.1824
vn -0.9239 0 -0.3826
vn -0.7073 0 -0.7069
vn -0.7073 0 -0.7069
vn -0.9239 0 0.3826
vn -0.9239 0 -0.3826
vn 0.3826 0 0.9239
vn 0 0 1
vn 0 0 1
vn -0.7073 0 0.7069
vn -0.9239 0 0.3826
vn -0.9239 0 0.3826
vn 0.707 0 0.7072
vn 0.3826 0 0.9239
vn 0 1 -0.0001
vn 0 1 0
vn 0 1 -0.0001
vn 0 1 0.0001
vn 0 1 0
vn 0 1 0.0001
vn 0 1 0
vn 0 1 0
vn 0 1 0.0001
vn 0 1 0
vn 0 1 0
vn 0 1 0
vn -0.3827 0 -0.9239
vn -0.7071 0 -0.7071
vn -0.3827 0 -0.9239
vn -1 0 0
vn -1 0 0
vn -1 0 0
vn -0.3826 0 0.9239
vn 0.3827 0 0.9239
vn -0.3826 0 0.9239
vn -0.707 0 0.7072
vn -0.707 0 0.7072
vn 0.3827 0 0.9239
vn 0.7071 0 0.7072
vn 0.8483 0.4106 -0.3342
vn 0.8878 0.321 0.3298
vn 0.8483 0.4106 0.3342
vn 0.575 0.7904 -0.2114
vn 0.6399 0.7304 0.239
vn 0.575 0.7904 0.2115
vn 0.7704 0.5642 -0.2969
vn 0.7704 0.5642 0.2969
vn 0.8483 0.4106 -0.3342
vn 0.3299 0.3212 -0.8877
vn 0.8878 0.3211 -0.3298
vn 0.5035 0.8445 -0.1825
vn 0.2147 0.8737 -0.4365
vn 0.1824 0.8445 -0.5035
vn 0.2969 0.5643 -0.7704
vn 0.698 0.6653 -0.2649
vn 0.265 0.6654 -0.6979
vn 0.6399 0.7303 -0.239
vn 0.2113 0.7904 -0.575
vn 0.239 0.7304 -0.6399
vn 0.575 0.7904 -0.2114
vn 0.7704 0.5642 -0.2969
vn -0.2147 0.8737 -0.4365
vn -0.1825 0.8446 -0.5034
vn -0.2649 0.6653 -0.698
vn -0.2969 0.5644 -0.7703
vn -0.2114 0.7904 -0.575
vn -0.239 0.7304 -0.6398
vn -0.3342 0.4107 -0.8483
vn 0.3343 0.4106 -0.8483
vn -0.3299 0.3212 -0.8877
vn 0.4365 0.8737 0.2148
vn 0.5035 0.8445 -0.1825
vn 0.5035 0.8445 0.1825
vn 0.698 0.6653 0.2649
vn 0.698 0.6653 -0.2649
vn 1 0 0
vn 1 0 0
vn 1 0 0
vn 0 0 -1
vn 0.3826 0 -0.9239
vn 0.3826 0 -0.9239
vn 0.7068 0 -0.7074
vn 0.7068 0 -0.7075
vn 0 1 -0.0001
vn 0 1 0
vn 0 1 0
vn 0 1 -0.0001
vn 0 1 0
vn 0 1 -0.0001
vn 0 1 -0.0001
vn 0 1 0
vn 1 0 0
vn 1 0 0
vn 1 0 0
vn 0.3827 0 -0.9239
vn -0.3827 0 -0.9239
vn 0.3827 0 -0.9239
vn 0.7072 0 -0.7071
vn 0.7071 0 -0.7071
vn 0 1 0
vn 0 1 0
vn 0 1 0
vn 0 1 0
vn 0 1 0.0001
vn 0 1 -0.0001
vn 0.8878 0.321 0.3298
vn 0.5035 0.8445 0.1825
vn -0.698 0.6653 0.265
vn -0.9239 0 0.3826
vn -0.7073 0 0.7069
vn 0.707 0 0.7072
vn 0 1 0
vn 0 1 0
vn -0.7071 0 -0.7071
vn -1 0 0
vn 0.7071 0 0.7071
vn 0.6399 0.7303 -0.239
vn 0.4365 0.8737 -0.2148
vn 0.4365 0.8737 -0.2148
vn 1 0 0
vn 0 0 -1
vn 0 1 0
vn 0 1 0
vn 1 0 0
vn -0.3827 0 -0.9239
vn 0 1 0.0002
vn 0 1 -0.0003
f 1/1/1 2/2/2 3/3/3
f 4/4/4 2/2/2 5/5/5
f 6/6/6 7/7/7 8/8/8
f 9/9/9 10/10/10 11/11/11
f 12/12/12 13/13/13 14/14/14
f 15/15/15 14/14/14 7/7/7
f 16/16/16 17/17/17 10/10/10
f 4/4/4 11/11/11 3/3/3
f 18/18/18 17/17/17 12/12/12
f 19/19/19 3/3/3 11/11/11
f 20/20/20 21/21/21 22/22/22
f 23/23/23 24/24/24 25/25/25
f 26/26/26 27/27/27 28/28/28
f 29/29/29 30/30/30 31/31/31
f 25/25/25 32/32/32 29/29/29
f 26/26/26 31/31/31 30/30/30
f 33/33/33 34/34/34 27/27/27
f 35/35/35 36/36/36 24/24/24
f 26/26/26 37/37/37 33/33/33
f 30/30/30 38/38/38 39/39/39
f 26/26/26 39/39/39 40/40/40
f 24/24/24 38/38/38 32/32/32
f 33/33/33 41/41/41 21/21/21
f 42/42/42 43/43/43 41/41/41
f 44/44/44 36/36/36 45/45/45
f 37/37/37 46/46/46 47/47/47
f 48/48/48 39/39/39 38/38/38
f 36/36/36 48/48/48 38/38/38
f 40/40/40 49/49/49 46/46/46
f 42/42/42 37/37/37 47/47/47
f 22/22/22 41/41/41 43/43/43
f 50/50/50 15/15/15 6/6/6
f 10/10/10 19/19/19 11/11/11
f 51/51/51 10/10/10 17/17/17
f 52/52/52 12/12/12 15/15/15
f 53/53/53 54/54/54 55/55/55
f 53/53/53 56/56/56 57/57/57
f 58/58/58 59/59/59 60/60/60
f 61/61/61 62/62/62 63/63/63
f 64/64/64 65/65/65 58/58/58
f 66/66/66 67/67/67 68/68/68
f 69/69/69 70/70/70 66/66/66
f 71/71/71 72/72/72 73/73/73
f 74/74/74 73/73/73 75/75/75
f 76/76/76 77/77/77 72/72/72
f 78/78/78 79/79/79 80/80/80
f 81/81/81 82/82/82 83/83/83
f 84/84/84 85/85/85 86/86/86
f 87/87/87 86/86/86 88/88/88
f 89/89/89 90/90/90 85/85/85
f 91/91/91 92/92/92 93/93/93
f 94/94/94 95/95/95 96/96/96
f 97/97/97 93/93/93 98/98/98
f 99/99/99 100/100/100 101/101/101
f 102/102/102 103/103/103 104/104/104
f 105/105/105 106/106/106 107/107/107
f 108/108/108 109/109/109 110/110/110
f 111/111/111 104/104/104 109/109/109
f 107/107/107 108/108/108 110/110/110
f 105/105/105 99/99/99 112/112/112
f 104/104/104 113/113/113 114/114/114
f 105/105/105 115/115/115 116/116/116
f 110/110/110 117/117/117 118/118/118
f 110/110/110 115/115/115 107/107/107
f 104/104/104 117/117/117 109/109/109
f 105/105/105 119/119/119 120/120/120
f 100/100/100 119/119/119 121/121/121
f 122/122/122 123/123/123 124/124/124
f 125/125/125 97/97/97 98/98/98
f 95/95/95 126/126/126 125/125/125
f 123/123/123 96/96/96 124/124/124
f 127/127/127 128/128/128 129/129/129
f 130/130/130 131/131/131 132/132/132
f 132/132/132 133/133/133 134/134/134
f 135/135/135 136/136/136 137/137/137
f 138/138/138 139/139/139 140/140/140
f 141/141/141 139/139/139 142/142/142
f 143/143/143 144/144/144 145/145/145
f 146/146/146 147/147/147 148/148/148
f 149/149/149 148/148/148 150/150/150
f 151/151/151 152/152/152 153/153/153
f 154/154/154 155/155/155 152/152/152
f 156/156/156 152/152/152 155/155/155
f 1/1/1 20/20/20 2/2/2
f 4/4/4 3/3/3 2/2/2
f 6/6/6 15/15/15 7/7/7
f 9/9/9 16/16/16 10/10/10
f 12/12/12 17/17/17 13/13/13
f 15/15/15 12/12/12 14/14/14
f 16/16/16 13/13/13 17/17/17
f 4/4/4 9/9/9 11/11/11
f 18/18/18 51/51/51 17/17/17
f 19/19/19 1/1/1 3/3/3
f 20/20/20 34/34/34 21/21/21
f 23/23/23 35/35/35 24/24/24
f 26/26/26 33/33/33 27/27/27
f 29/29/29 32/32/32 30/30/30
f 25/25/25 24/24/24 32/32/32
f 26/26/26 28/28/28 31/31/31
f 33/33/33 21/21/21 34/34/34
f 35/35/35 45/45/45 36/36/36
f 26/26/26 40/40/40 37/37/37
f 30/30/30 32/32/32 38/38/38
f 26/26/26 30/30/30 39/39/39
f 24/24/24 36/36/36 38/38/38
f 33/33/33 37/37/37 41/41/41
f 42/42/42 157/157/157 43/43/43
f 44/44/44 158/158/158 36/36/36
f 37/37/37 40/40/40 46/46/46
f 48/48/48 49/49/49 39/39/39
f 36/36/36 158/158/158 48/48/48
f 40/40/40 39/39/39 49/49/49
f 42/42/42 41/41/41 37/37/37
f 22/22/22 21/21/21 41/41/41
f 50/50/50 52/52/52 15/15/15
f 10/10/10 159/159/159 19/19/19
f 51/51/51 159/159/159 10/10/10
f 52/52/52 18/18/18 12/12/12
f 53/53/53 57/57/57 54/54/54
f 53/53/53 160/160/160 56/56/56
f 58/58/58 65/65/65 59/59/59
f 61/61/61 161/161/161 62/62/62
f 64/64/64 162/162/162 65/65/65
f 66/66/66 70/70/70 67/67/67
f 69/69/69 163/163/163 70/70/70
f 71/71/71 76/76/76 72/72/72
f 74/74/74 71/71/71 73/73/73
f 76/76/76 164/164/164 77/77/77
f 78/78/78 165/165/165 79/79/79
f 81/81/81 166/166/166 82/82/82
f 84/84/84 89/89/89 85/85/85
f 87/87/87 84/84/84 86/86/86
f 89/89/89 167/167/167 90/90/90
f 91/91/91 101/101/101 92/92/92
f 94/94/94 168/168/168 95/95/95
f 97/97/97 91/91/91 93/93/93
f 99/99/99 120/120/120 100/100/100
f 102/102/102 169/169/169 103/103/103
f 105/105/105 112/112/112 106/106/106
f 108/108/108 111/111/111 109/109/109
f 111/111/111 102/102/102 104/104/104
f 107/107/107 106/106/106 108/108/108
f 105/105/105 120/120/120 99/99/99
f 104/104/104 103/103/103 113/113/113
f 105/105/105 107/107/107 115/115/115
f 110/110/110 109/109/109 117/117/117
f 110/110/110 118/118/118 115/115/115
f 104/104/104 114/114/114 117/117/117
f 105/105/105 116/116/116 119/119/119
f 100/100/100 120/120/120 119/119/119
f 122/122/122 170/170/170 123/123/123
f 125/125/125 126/126/126 97/97/97
f 95/95/95 168/168/168 126/126/126
f 123/123/123 94/94/94 96/96/96
f 127/127/127 171/171/171 128/128/128
f 130/130/130 172/172/172 131/131/131
f 132/132/132 131/131/131 133/133/133
f 135/135/135 173/173/173 136/136/136
f 138/138/138 174/174/174 139/139/139
f 141/141/141 140/140/140 139/139/139
f 143/143/143 175/175/175 144/144/144
f 146/146/146 176/176/176 147/147/147
f 149/149/149 146/146/146 148/148/148
f 151/151/151 154/154/154 152/152/152
f 154/154/154 177/177/177 155/155/155
f 156/156/156 178/178/178 152/152/152
