v -43.2076 517.402 -260.053
v -42.9521 516.433 -299.626
v -43.2076 517.402 -299.371
v -43.3467 516.433 -300.021
v -43.6021 517.402 -299.766
v -37.7761 510.635 -304.804
v -39.848 511.885 -303.521
v -39.4534 511.885 -303.126
v -43.0402 515.708 -300.328
v -42.1054 514.84 -300.473
v -42.5 514.84 -300.868
v -40.4534 512.804 -302.126
v -41.6343 513.68 -301.734
v -41.2397 513.68 -301.339
v -40.8479 512.804 -302.52
v -42.6456 515.708 -299.933
v -41.2397 513.68 -258.084
v -42.6456 515.708 -259.491
v -42.9521 516.433 -259.797
v -42.9521 516.433 -259.797
v -43.6021 517.402 -259.658
v -43.3467 516.433 -259.402
v -38.1707 510.635 -254.226
v -39.4534 511.885 -256.298
v -39.848 511.885 -255.903
v -43.0402 515.708 -259.096
v -42.1055 514.84 -258.95
v -42.6456 515.708 -259.491
v -40.4534 512.804 -257.298
v -41.6343 513.68 -257.69
v -40.8479 512.804 -256.903
v -42.5 514.84 -258.556
v -41.2397 513.68 -258.084
v -86.6664 511.885 -255.903
v -88.3438 510.635 -254.226
v -83.4742 515.708 -259.096
v -84.0144 514.84 -258.556
v -85.6665 512.804 -256.903
v -84.8801 513.68 -257.69
v -83.1677 516.433 -259.402
v -83.5623 516.433 -259.797
v -82.9123 517.402 -259.658
v -83.3068 517.402 -260.053
v -88.7383 510.635 -254.62
v -87.061 511.885 -256.298
v -83.8688 515.708 -259.491
v -84.4089 514.84 -258.95
v -86.061 512.804 -257.298
v -85.2747 513.68 -258.084
v -39.4534 511.885 -256.298
v -42.1055 514.84 -258.95
v -40.4534 512.804 -257.298
v -37.7761 509.806 -304.804
v -38.1707 510.635 -305.198
v -37.7761 510.635 -304.804
v -37.7761 510.635 -254.62
v -37.7761 509.806 -254.62
v -88.3438 509.806 -254.226
v -38.1707 510.635 -254.226
v -88.3438 510.635 -254.226
v -38.1707 509.806 -254.226
v -37.7761 510.635 -254.62
v -88.7383 509.806 -254.62
v -88.7383 510.635 -254.62
v -35.7872 509.806 -306.762
v -38.1707 509.806 -305.198
v -37.7761 509.806 -304.804
v -35.7872 509.806 -252.662
v -37.7761 509.806 -254.62
v -90.3019 509.806 -252.236
v -38.1707 509.806 -254.226
v -88.3438 509.806 -254.226
v -35.7872 509.806 -252.662
v -37.7761 509.806 -254.62
v -90.7272 509.806 -252.662
v -88.7383 509.806 -254.62
v -36.2125 506.633 -307.188
v -35.7872 509.806 -306.762
v -35.7872 506.633 -306.762
v -35.7872 506.633 -306.762
v -35.7872 509.806 -252.662
v -35.7872 506.633 -252.662
v -36.2125 506.633 -252.236
v -90.3019 509.806 -252.236
v -90.3019 506.633 -252.236
v -35.7872 506.633 -252.662
v -36.2125 509.806 -252.236
v -36.2125 506.633 -252.236
v -90.3019 506.633 -252.236
v -90.7272 509.806 -252.662
v -90.7272 506.633 -252.662
v -83.5623 516.433 -299.626
v -83.3068 517.402 -260.053
v -83.3068 517.402 -299.371
v -86.061 512.804 -302.126
v -85.2747 513.68 -258.084
v -85.2747 513.68 -301.339
v -83.8688 515.708 -299.933
v -83.5623 516.433 -259.797
v -83.5623 516.433 -299.626
v -82.9123 517.402 -299.766
v -83.1677 516.433 -300.021
v -88.7383 510.635 -304.804
v -86.6664 511.885 -303.521
v -88.3438 510.635 -305.198
v -83.4742 515.708 -300.328
v -84.4089 514.84 -300.473
v -83.8688 515.708 -299.933
v -86.061 512.804 -302.126
v -84.8801 513.68 -301.734
v -85.6665 512.804 -302.52
v -87.0609 511.885 -303.126
v -85.2747 513.68 -301.339
v -38.1707 510.635 -305.198
v -39.848 511.885 -303.521
v -84.0144 514.84 -300.868
v -43.0402 515.708 -300.328
v -42.5 514.84 -300.868
v -40.8479 512.804 -302.52
v -41.6343 513.68 -301.734
v -43.3467 516.433 -300.021
v -88.7383 510.635 -304.804
v -87.061 511.885 -256.298
v -87.0609 511.885 -303.126
v -84.4089 514.84 -300.473
v -83.8688 515.708 -259.491
v -84.4089 514.84 -258.95
v -86.061 512.804 -257.298
v -88.7383 509.806 -254.62
v -88.7383 510.635 -304.804
v -88.7383 509.806 -304.804
v -38.1707 509.806 -305.198
v -88.3438 510.635 -305.198
v -38.1707 510.635 -305.198
v -88.3438 509.806 -305.198
v -88.7383 510.635 -304.804
v -88.3438 510.635 -305.198
v -88.7383 509.806 -304.804
v -90.7272 509.806 -252.662
v -88.7383 509.806 -254.62
v -38.1707 509.806 -305.198
v -90.3019 509.806 -307.188
v -88.3438 509.806 -305.198
v -90.7272 509.806 -306.762
v -88.7383 509.806 -304.804
v -90.7272 506.633 -252.662
v -90.7272 509.806 -306.762
v -90.7272 506.633 -306.762
v -90.3019 506.633 -307.188
v -36.2125 509.806 -307.188
v -36.2125 506.633 -307.188
v -90.7272 506.633 -306.762
v -90.3019 509.806 -307.188
v -90.3019 506.633 -307.188
v -82.9123 517.402 -259.658
v -83.3068 517.402 -299.371
v -83.3068 517.402 -260.053
v -82.9123 517.402 -299.766
v -43.2076 517.402 -299.371
v -43.6021 517.402 -299.766
v -43.2076 517.402 -260.053
v -38.1707 510.635 -305.198
v -37.7761 510.635 -254.62
v -37.7761 510.635 -254.62
v -38.1707 509.806 -305.198
v -37.7761 509.806 -254.62
v -36.2125 509.806 -307.188
v -36.2125 509.806 -252.236
v -36.2125 509.806 -307.188
v -35.7872 509.806 -306.762
v -36.2125 509.806 -252.236
v -35.7872 509.806 -252.662
v -90.3019 509.806 -252.236
v -43.6021 517.402 -299.766
v -88.7383 510.635 -254.62
v -88.7383 510.635 -254.62
v -88.3438 509.806 -305.198
v -88.7383 509.806 -304.804
v -90.7272 509.806 -306.762
v -36.2125 509.806 -307.188
v -90.7272 509.806 -252.662
v -90.3019 509.806 -307.188
v -90.7272 509.806 -306.762
v -43.6021 517.402 -259.658
vt 0.2734 0.7237
vt 0.2788 0.949
vt 0.2733 0.9476
vt 0.2778 0.9519
vt 0.2712 0.9499
vt 0.3147 0.9785
vt 0.3029 0.9712
vt 0.3052 0.9689
vt 0.2816 0.9534
vt 0.2879 0.9539
vt 0.286 0.9566
vt 0.2995 0.9633
vt 0.2922 0.9615
vt 0.2945 0.9588
vt 0.2972 0.9656
vt 0.2829 0.9508
vt 0.2945 0.7126
vt 0.2829 0.7206
vt 0.2788 0.7224
vt 0.2755 0.7168
vt 0.2711 0.7216
vt 0.2725 0.7161
vt 0.302 0.6802
vt 0.2947 0.692
vt 0.2924 0.6897
vt 0.2743 0.7119
vt 0.2801 0.7089
vt 0.2768 0.7135
vt 0.2891 0.6976
vt 0.2823 0.7004
vt 0.2867 0.6954
vt 0.2773 0.707
vt 0.285 0.7026
vt 0.026 0.6897
vt 0.0164 0.6802
vt 0.0441 0.7119
vt 0.0411 0.707
vt 0.0317 0.6953
vt 0.0361 0.7004
vt 0.0459 0.7161
vt 0.044 0.7173
vt 0.0473 0.7216
vt 0.0451 0.7238
vt 0.014 0.6812
vt 0.0237 0.692
vt 0.0416 0.7135
vt 0.0383 0.7089
vt 0.0293 0.6976
vt 0.0334 0.7026
vt 0.3052 0.7024
vt 0.2879 0.7175
vt 0.2995 0.7081
vt 0.3194 0.9785
vt 0.3144 0.9807
vt 0.3147 0.9785
vt 0.3147 0.6929
vt 0.3194 0.6929
vt 0.0164 0.6754
vt 0.302 0.6802
vt 0.0164 0.6802
vt 0.302 0.6754
vt 0.3045 0.6818
vt 0.0138 0.6766
vt 0.014 0.6812
vt 0.3307 0.9896
vt 0.3184 0.9812
vt 0.3194 0.9785
vt 0.3307 0.6817
vt 0.3194 0.6929
vt 0.0053 0.6641
vt 0.302 0.6754
vt 0.0164 0.6754
vt 0.316 0.6653
vt 0.3048 0.6767
vt 0.0029 0.6653
vt 0.0138 0.6766
vt 0.3488 0.9921
vt 0.3307 0.9896
vt 0.3488 0.9896
vt 0.3488 0.9896
vt 0.3307 0.6817
vt 0.3488 0.6817
vt 0.3131 0.6461
vt 0.0053 0.6641
vt 0.0053 0.6461
vt 0.3155 0.6461
vt 0.3131 0.6641
vt 0.3131 0.6461
vt 0.0053 0.6461
vt 0.0029 0.6653
vt 0.0029 0.6461
vt 0.2788 0.7224
vt 0.2733 0.9476
vt 0.2734 0.7237
vt 0.2995 0.7081
vt 0.2945 0.9588
vt 0.2945 0.7126
vt 0.2829 0.7206
vt 0.2788 0.949
vt 0.2755 0.7168
vt 0.2711 0.7216
vt 0.2725 0.7161
vt 0.3045 0.6818
vt 0.2924 0.6897
vt 0.302 0.6802
vt 0.2743 0.7119
vt 0.2801 0.7089
vt 0.2768 0.7135
vt 0.2891 0.6976
vt 0.2823 0.7004
vt 0.2867 0.6954
vt 0.2947 0.692
vt 0.285 0.7026
vt 0.0164 0.6802
vt 0.026 0.6897
vt 0.2773 0.707
vt 0.0441 0.7119
vt 0.0411 0.707
vt 0.0317 0.6953
vt 0.0361 0.7004
vt 0.0459 0.7161
vt 0.3147 0.6929
vt 0.3052 0.9689
vt 0.3052 0.7024
vt 0.2879 0.7175
vt 0.2829 0.9508
vt 0.2879 0.9539
vt 0.2995 0.9633
vt 0.3194 0.9785
vt 0.3147 0.6929
vt 0.3194 0.6929
vt 0.0164 0.6754
vt 0.302 0.6802
vt 0.0164 0.6802
vt 0.302 0.6754
vt 0.3045 0.6818
vt 0.302 0.6802
vt 0.3194 0.6929
vt 0.3307 0.9896
vt 0.3194 0.9785
vt 0.0164 0.6754
vt 0.3131 0.6641
vt 0.302 0.6754
vt 0.316 0.6653
vt 0.3048 0.6767
vt 0.3488 0.9896
vt 0.3307 0.6817
vt 0.3488 0.6817
vt 0.3131 0.6461
vt 0.0053 0.6641
vt 0.0053 0.6461
vt 0.3155 0.6461
vt 0.3131 0.6641
vt 0.3131 0.6461
vt 0.0473 0.7216
vt 0.0451 0.9476
vt 0.0451 0.7238
vt 0.0473 0.9498
vt 0.2733 0.9476
vt 0.2712 0.9499
vt 0.2734 0.7237
vt 0.3144 0.9807
vt 0.3045 0.6818
vt 0.3147 0.6929
vt 0.3184 0.9812
vt 0.3048 0.6767
vt 0.3283 0.9921
vt 0.3131 0.6641
vt 0.3307 0.9921
vt 0.3307 0.9896
vt 0.3131 0.6641
vt 0.316 0.6653
vt 0.0053 0.6641
vt 0.0473 0.7216
vt 0.3147 0.9785
vt 0.3147 0.9785
vt 0.302 0.6754
vt 0.3048 0.6767
vt 0.3307 0.6817
vt 0.0053 0.6641
vt 0.3307 0.9896
vt 0.3131 0.6641
vt 0.316 0.6653
vt 0.2711 0.7216
vn 0.8877 0.3212 0.3298
vn 0.8484 0.4106 -0.3342
vn 0.8877 0.3211 -0.3298
vn 0.3343 0.4106 -0.8483
vn 0.3299 0.3212 -0.8877
vn 0.4365 0.8737 -0.2147
vn 0.1824 0.8445 -0.5035
vn 0.5035 0.8445 -0.1825
vn 0.2969 0.5643 -0.7703
vn 0.698 0.6653 -0.2649
vn 0.2649 0.6653 -0.698
vn 0.575 0.7904 -0.2114
vn 0.239 0.7304 -0.6399
vn 0.6399 0.7303 -0.239
vn 0.2114 0.7904 -0.575
vn 0.7704 0.5643 -0.2968
vn 0.6399 0.7303 0.239
vn 0.7704 0.5643 0.2969
vn 0.8483 0.4106 0.3343
vn 0.8483 0.4106 0.3343
vn 0.3298 0.3212 0.8877
vn 0.3342 0.4107 0.8483
vn 0.2147 0.8737 0.4365
vn 0.5035 0.8445 0.1825
vn 0.1824 0.8445 0.5035
vn 0.2968 0.5643 0.7704
vn 0.698 0.6653 0.2649
vn 0.7704 0.5643 0.2969
vn 0.575 0.7903 0.2114
vn 0.239 0.7304 0.6399
vn 0.2114 0.7904 0.575
vn 0.2649 0.6653 0.698
vn 0.6399 0.7303 0.239
vn -0.1824 0.8445 0.5035
vn -0.2147 0.8738 0.4364
vn -0.2968 0.5643 0.7704
vn -0.2649 0.6653 0.698
vn -0.2114 0.7903 0.575
vn -0.239 0.7304 0.6399
vn -0.3342 0.4106 0.8483
vn -0.8483 0.4106 0.3343
vn -0.3298 0.3212 0.8877
vn -0.8877 0.3212 0.3298
vn -0.4365 0.8737 0.2147
vn -0.5035 0.8445 0.1825
vn -0.7704 0.5643 0.2969
vn -0.698 0.6653 0.2649
vn -0.575 0.7903 0.2114
vn -0.6399 0.7303 0.239
vn 0.5035 0.8445 0.1825
vn 0.698 0.6653 0.2649
vn 0.575 0.7903 0.2114
vn 0.9239 0 -0.3827
vn 0.7071 0 -0.7071
vn 0.9239 0 -0.3827
vn 0.9239 0 0.3827
vn 0.9239 0 0.3827
vn -0.3827 0 0.9239
vn 0.3826 0 0.9239
vn -0.3827 0 0.9239
vn 0.3826 0 0.9239
vn 0.9239 0 0.3827
vn -0.9239 0 0.3827
vn -0.9239 0 0.3827
vn 0 1 0
vn 0 1 0
vn 0 1 0
vn 0 1 0
vn 0 1 0
vn 0 1 0
vn 0 1 0
vn 0 1 0
vn 0 1 0
vn 0 1 0
vn 0 1 0
vn 0 1 0
vn 0.3827 0 -0.9239
vn 0.7071 0 -0.7071
vn 0.7071 0 -0.7071
vn 1 0 0
vn 0.9239 0 0.3827
vn 0.9239 0 0.3827
vn 0 0 1
vn 0 0 1
vn 0 0 1
vn 0.9239 0 0.3827
vn 0.7071 0 0.7071
vn 0.7071 0 0.7071
vn -0.7071 0 0.7071
vn -0.9239 0 0.3827
vn -0.9239 0 0.3827
vn -0.8484 0.4106 -0.3342
vn -0.8877 0.3212 0.3298
vn -0.8877 0.3211 -0.3299
vn -0.575 0.7903 -0.2114
vn -0.6399 0.7303 0.239
vn -0.6399 0.7304 -0.239
vn -0.7704 0.5642 -0.2968
vn -0.8483 0.4106 0.3343
vn -0.8484 0.4106 -0.3342
vn -0.3299 0.3212 -0.8877
vn -0.3343 0.4106 -0.8483
vn -0.4365 0.8737 -0.2147
vn -0.1824 0.8445 -0.5035
vn -0.2147 0.8737 -0.4364
vn -0.2969 0.5643 -0.7704
vn -0.698 0.6653 -0.2649
vn -0.7704 0.5642 -0.2968
vn -0.575 0.7903 -0.2114
vn -0.239 0.7304 -0.6399
vn -0.2114 0.7904 -0.575
vn -0.5035 0.8445 -0.1825
vn -0.6399 0.7304 -0.239
vn 0.2147 0.8737 -0.4364
vn 0.1824 0.8445 -0.5035
vn -0.2649 0.6653 -0.698
vn 0.2969 0.5643 -0.7703
vn 0.2649 0.6653 -0.698
vn 0.2114 0.7904 -0.575
vn 0.239 0.7304 -0.6399
vn 0.3343 0.4106 -0.8483
vn -0.4365 0.8737 -0.2147
vn -0.5035 0.8445 0.1825
vn -0.5035 0.8445 -0.1825
vn -0.698 0.6653 -0.2649
vn -0.7704 0.5643 0.2969
vn -0.698 0.6653 0.2649
vn -0.575 0.7903 0.2114
vn -0.9239 0 0.3827
vn -0.9239 0 -0.3826
vn -0.9239 0 -0.3826
vn 0 0 -1
vn 0 0 -1
vn 0 0 -1
vn -0.7072 0 -0.707
vn -0.9239 0 -0.3826
vn -0.7072 0 -0.707
vn 0 1 0
vn 0 1 0
vn 0 1 0
vn 0 1 0
vn 0 1 0
vn 0 1 0
vn 0 1 0
vn 0 1 0
vn -0.9239 0 0.3827
vn -0.9239 0 -0.3827
vn -0.9239 0 -0.3827
vn 0 0 -1
vn 0.3827 0 -0.9239
vn 0.3827 0 -0.9239
vn -0.9239 0 -0.3827
vn -0.7071 0 -0.7071
vn -0.7071 0 -0.7071
vn 0 1 0
vn 0 1 0
vn 0 1 0
vn 0 1 0
vn 0 1 0
vn 0 1 0
vn 0 1 0
vn 0.2147 0.8737 -0.4364
vn 0.4365 0.8737 0.2148
vn 0.4365 0.8737 0.2148
vn 0.7071 0 -0.7071
vn 0.9239 0 0.3827
vn 0 1 0
vn 0 1 0
vn 0.3827 0 -0.9239
vn 1 0 0
vn 0 0 1
vn 0.9239 0 0.3827
vn -0.7071 0 0.7071
vn 0.3299 0.3212 -0.8877
vn -0.4365 0.8737 0.2147
vn -0.9239 0 0.3827
vn 0 0 -1
vn -0.9239 0 -0.3826
vn 0 1 0
vn 0 1 0
vn -0.9239 0 0.3827
vn 0 0 -1
vn -0.9239 0 -0.3827
vn 0 1 0
f 1/1/1 2/2/2 3/3/3
f 3/3/3 4/4/4 5/5/5
f 6/6/6 7/7/7 8/8/8
f 9/9/9 10/10/10 11/11/11
f 12/12/12 13/13/13 14/14/14
f 8/8/8 15/15/15 12/12/12
f 11/11/11 14/14/14 13/13/13
f 4/4/4 16/16/16 9/9/9
f 17/17/17 12/12/12 14/14/14
f 18/18/18 2/2/2 19/19/19
f 20/20/20 21/21/21 22/22/22
f 23/23/23 24/24/24 25/25/25
f 26/26/26 27/27/27 28/28/28
f 29/29/29 30/30/30 31/31/31
f 24/24/24 31/31/31 25/25/25
f 32/32/32 33/33/33 27/27/27
f 22/22/22 28/28/28 20/20/20
f 23/23/23 34/34/34 35/35/35
f 32/32/32 36/36/36 37/37/37
f 30/30/30 38/38/38 31/31/31
f 30/30/30 37/37/37 39/39/39
f 25/25/25 38/38/38 34/34/34
f 36/36/36 22/22/22 40/40/40
f 41/41/41 42/42/42 43/43/43
f 44/44/44 34/34/34 45/45/45
f 37/37/37 46/46/46 47/47/47
f 48/48/48 39/39/39 49/49/49
f 48/48/48 34/34/34 38/38/38
f 37/37/37 49/49/49 39/39/39
f 40/40/40 46/46/46 36/36/36
f 21/21/21 40/40/40 22/22/22
f 50/50/50 6/6/6 8/8/8
f 18/18/18 10/10/10 16/16/16
f 17/17/17 10/10/10 51/51/51
f 50/50/50 12/12/12 52/52/52
f 53/53/53 54/54/54 55/55/55
f 53/53/53 56/56/56 57/57/57
f 58/58/58 59/59/59 60/60/60
f 61/61/61 62/62/62 59/59/59
f 63/63/63 60/60/60 64/64/64
f 65/65/65 66/66/66 67/67/67
f 68/68/68 67/67/67 69/69/69
f 70/70/70 71/71/71 72/72/72
f 71/71/71 73/73/73 74/74/74
f 75/75/75 72/72/72 76/76/76
f 77/77/77 78/78/78 79/79/79
f 80/80/80 81/81/81 82/82/82
f 83/83/83 84/84/84 85/85/85
f 86/86/86 87/87/87 88/88/88
f 89/89/89 90/90/90 91/91/91
f 92/92/92 93/93/93 94/94/94
f 95/95/95 96/96/96 97/97/97
f 98/98/98 99/99/99 92/92/92
f 100/100/100 101/101/101 102/102/102
f 103/103/103 104/104/104 105/105/105
f 106/106/106 107/107/107 108/108/108
f 109/109/109 110/110/110 111/111/111
f 112/112/112 111/111/111 104/104/104
f 107/107/107 110/110/110 113/113/113
f 102/102/102 108/108/108 100/100/100
f 114/114/114 104/104/104 115/115/115
f 116/116/116 117/117/117 118/118/118
f 110/110/110 119/119/119 111/111/111
f 110/110/110 118/118/118 120/120/120
f 104/104/104 119/119/119 115/115/115
f 106/106/106 121/121/121 117/117/117
f 101/101/101 121/121/121 102/102/102
f 122/122/122 123/123/123 124/124/124
f 125/125/125 126/126/126 98/98/98
f 125/125/125 96/96/96 127/127/127
f 95/95/95 123/123/123 128/128/128
f 129/129/129 130/130/130 131/131/131
f 132/132/132 133/133/133 134/134/134
f 135/135/135 136/136/136 137/137/137
f 138/138/138 139/139/139 140/140/140
f 141/141/141 142/142/142 143/143/143
f 143/143/143 144/144/144 145/145/145
f 146/146/146 147/147/147 148/148/148
f 149/149/149 150/150/150 151/151/151
f 152/152/152 153/153/153 154/154/154
f 155/155/155 156/156/156 157/157/157
f 158/158/158 159/159/159 160/160/160
f 155/155/155 161/161/161 159/159/159
f 1/1/1 19/19/19 2/2/2
f 3/3/3 2/2/2 4/4/4
f 6/6/6 162/162/162 7/7/7
f 9/9/9 16/16/16 10/10/10
f 12/12/12 15/15/15 13/13/13
f 8/8/8 7/7/7 15/15/15
f 11/11/11 10/10/10 14/14/14
f 4/4/4 2/2/2 16/16/16
f 17/17/17 52/52/52 12/12/12
f 18/18/18 16/16/16 2/2/2
f 20/20/20 1/1/1 21/21/21
f 23/23/23 163/163/163 24/24/24
f 26/26/26 32/32/32 27/27/27
f 29/29/29 33/33/33 30/30/30
f 24/24/24 29/29/29 31/31/31
f 32/32/32 30/30/30 33/33/33
f 22/22/22 26/26/26 28/28/28
f 23/23/23 25/25/25 34/34/34
f 32/32/32 26/26/26 36/36/36
f 30/30/30 39/39/39 38/38/38
f 30/30/30 32/32/32 37/37/37
f 25/25/25 31/31/31 38/38/38
f 36/36/36 26/26/26 22/22/22
f 41/41/41 40/40/40 42/42/42
f 44/44/44 35/35/35 34/34/34
f 37/37/37 36/36/36 46/46/46
f 48/48/48 38/38/38 39/39/39
f 48/48/48 45/45/45 34/34/34
f 37/37/37 47/47/47 49/49/49
f 40/40/40 41/41/41 46/46/46
f 21/21/21 42/42/42 40/40/40
f 50/50/50 164/164/164 6/6/6
f 18/18/18 51/51/51 10/10/10
f 17/17/17 14/14/14 10/10/10
f 50/50/50 8/8/8 12/12/12
f 53/53/53 165/165/165 54/54/54
f 53/53/53 55/55/55 56/56/56
f 58/58/58 61/61/61 59/59/59
f 61/61/61 166/166/166 62/62/62
f 63/63/63 58/58/58 60/60/60
f 65/65/65 167/167/167 66/66/66
f 68/68/68 65/65/65 67/67/67
f 70/70/70 168/168/168 71/71/71
f 71/71/71 168/168/168 73/73/73
f 75/75/75 70/70/70 72/72/72
f 77/77/77 169/169/169 78/78/78
f 80/80/80 170/170/170 81/81/81
f 83/83/83 171/171/171 84/84/84
f 86/86/86 172/172/172 87/87/87
f 89/89/89 173/173/173 90/90/90
f 92/92/92 99/99/99 93/93/93
f 95/95/95 128/128/128 96/96/96
f 98/98/98 126/126/126 99/99/99
f 100/100/100 94/94/94 101/101/101
f 103/103/103 112/112/112 104/104/104
f 106/106/106 116/116/116 107/107/107
f 109/109/109 113/113/113 110/110/110
f 112/112/112 109/109/109 111/111/111
f 107/107/107 116/116/116 110/110/110
f 102/102/102 106/106/106 108/108/108
f 114/114/114 105/105/105 104/104/104
f 116/116/116 106/106/106 117/117/117
f 110/110/110 120/120/120 119/119/119
f 110/110/110 116/116/116 118/118/118
f 104/104/104 111/111/111 119/119/119
f 106/106/106 102/102/102 121/121/121
f 101/101/101 174/174/174 121/121/121
f 122/122/122 175/175/175 123/123/123
f 125/125/125 127/127/127 126/126/126
f 125/125/125 97/97/97 96/96/96
f 95/95/95 124/124/124 123/123/123
f 129/129/129 176/176/176 130/130/130
f 132/132/132 177/177/177 133/133/133
f 135/135/135 178/178/178 136/136/136
f 138/138/138 179/179/179 139/139/139
f 141/141/141 180/180/180 142/142/142
f 143/143/143 142/142/142 144/144/144
f 146/146/146 181/181/181 147/147/147
f 149/149/149 182/182/182 150/150/150
f 152/152/152 183/183/183 153/153/153
f 155/155/155 158/158/158 156/156/156
f 158/158/158 155/155/155 159/159/159
f 155/155/155 184/184/184 161/161/161
