v -207.704 220.997 -316.495
v -284.582 220.997 -239.741
v -207.704 220.997 -239.741
v -284.582 212.978 -316.495
v -284.582 207.888 -239.741
v -284.582 212.978 -239.741
v -207.704 212.978 -316.495
v -284.582 207.888 -316.495
v -207.704 212.978 -239.741
v -207.704 207.888 -316.495
v -284.582 212.978 -239.741
v -207.704 207.888 -239.741
v -209.895 204.087 -241.928
v -284.582 207.888 -239.741
v -282.392 204.087 -241.928
v -209.895 204.087 -314.308
v -209.895 204.087 -241.928
v -209.895 204.087 -314.308
v -282.392 204.087 -241.928
v -282.392 204.087 -314.308
v -276.857 201.172 -247.454
v -215.43 201.172 -308.781
v -276.857 201.172 -308.781
v -282.392 204.087 -314.308
v -276.857 201.172 -308.781
v -235.191 186.651 -304.115
v -220.084 -2.46065 -289.009
v -235.191 -2.46065 -304.115
v -220.084 186.651 -267.644
v -220.084 -2.46065 -289.009
v -220.084 186.651 -289.008
v -235.191 186.651 -252.537
v -220.084 -2.46066 -267.644
v -220.084 186.651 -267.644
v -256.555 186.651 -252.537
v -235.191 -2.46066 -252.537
v -235.191 186.651 -252.537
v -271.662 186.651 -267.644
v -256.555 -2.46066 -252.537
v -256.555 186.651 -252.537
v -271.662 186.651 -289.008
v -271.662 -2.46066 -267.644
v -256.555 186.651 -304.115
v -271.662 -2.46065 -289.009
v -256.555 -2.46065 -304.115
v -218.509 192.5 -289.661
v -235.191 191.226 -304.115
v -234.539 192.5 -305.69
v -220.084 191.226 -267.644
v -220.084 191.226 -289.008
v -234.539 192.5 -250.962
v -218.509 192.5 -266.992
v -257.207 192.5 -250.962
v -235.191 191.226 -252.537
v -273.237 192.5 -266.992
v -256.555 191.226 -252.537
v -273.237 192.5 -289.661
v -271.662 191.226 -267.644
v -256.555 191.226 -304.115
v -271.662 191.226 -289.008
v -257.207 192.5 -305.69
v -235.191 191.226 -304.115
v -234.261 199.26 -306.361
v -219.599 196.323 -289.209
v -234.99 196.323 -304.6
v -217.838 199.26 -289.939
v -219.599 196.323 -267.443
v -217.838 199.26 -266.714
v -234.99 196.323 -252.052
v -257.486 199.26 -250.291
v -234.261 199.26 -250.291
v -272.147 196.323 -267.443
v -256.756 196.323 -252.052
v -273.908 199.26 -289.939
v -273.908 199.26 -266.714
v -257.486 199.26 -306.361
v -272.147 196.323 -289.209
v -234.261 199.26 -306.361
v -256.756 196.323 -304.6
v -217.838 199.26 -266.714
v -215.43 201.172 -247.454
v -217.838 199.26 -289.939
v -234.261 199.26 -306.361
v -215.43 201.172 -308.781
v -257.486 199.26 -306.361
v -257.486 199.26 -306.361
v -273.908 199.26 -289.939
v -273.908 199.26 -266.714
v -276.857 201.172 -247.454
v -257.486 199.26 -250.291
v -257.486 199.26 -250.291
v -215.43 201.172 -247.454
v -234.261 199.26 -250.291
v -234.157 188.939 -306.61
v -220.084 186.651 -289.008
v -235.191 186.651 -304.115
v -217.589 188.939 -290.042
v -220.084 186.651 -267.644
v -234.157 188.939 -250.042
v -235.191 186.651 -252.537
v -257.589 188.939 -250.042
v -256.555 186.651 -252.537
v -274.158 188.939 -266.61
v -271.662 186.651 -267.644
v -274.158 188.939 -290.042
v -271.662 186.651 -289.008
v -257.589 188.939 -306.61
v -256.555 186.651 -304.115
v -235.191 186.651 -304.115
v -234.157 188.939 -306.61
v -220.084 191.226 -289.008
v -217.589 188.939 -290.042
v -220.084 191.226 -267.644
v -217.589 188.939 -266.61
v -234.157 188.939 -250.042
v -235.191 191.226 -252.537
v -257.589 188.939 -250.042
v -256.555 191.226 -252.537
v -274.158 188.939 -266.61
v -271.662 191.226 -267.644
v -274.158 188.939 -290.042
v -271.662 191.226 -289.008
v -257.589 188.939 -306.61
v -235.191 191.226 -304.115
v -234.157 188.939 -306.61
v -234.932 193.774 -304.739
v -219.46 193.774 -289.267
v -219.46 193.774 -267.386
v -234.932 193.774 -251.913
v -256.814 193.774 -251.913
v -272.286 193.774 -267.386
v -272.286 193.774 -289.267
v -256.814 193.774 -304.739
v -234.99 196.323 -304.6
v -234.932 193.774 -304.739
v -218.509 192.5 -289.661
v -234.539 192.5 -305.69
v -218.509 192.5 -266.992
v -234.539 192.5 -250.962
v -257.207 192.5 -250.962
v -273.237 192.5 -266.992
v -273.237 192.5 -289.661
v -257.207 192.5 -305.69
v -234.539 192.5 -305.69
v -283.654 215.209 -315.566
v -283.654 212.978 -240.669
v -283.654 215.209 -240.669
v -208.633 215.209 -315.566
v -283.654 212.978 -315.566
v -283.654 215.209 -315.566
v -208.633 215.209 -240.669
v -208.633 212.978 -315.566
v -208.633 215.209 -315.566
v -283.654 215.209 -240.669
v -208.633 212.978 -240.669
v -208.633 215.209 -240.669
v -284.582 220.997 -239.741
v -284.582 215.209 -316.495
v -284.582 215.209 -239.741
v -284.582 220.997 -316.495
v -207.704 215.209 -316.495
v -284.582 215.209 -316.495
v -207.704 220.997 -316.495
v -207.704 215.209 -239.741
v -207.704 215.209 -316.495
v -207.704 220.997 -239.741
v -284.582 215.209 -239.741
v -207.704 215.209 -239.741
v -283.654 212.978 -315.566
v -284.582 212.978 -239.741
v -283.654 212.978 -240.669
v -208.633 212.978 -315.566
v -284.582 212.978 -316.495
v -207.704 212.978 -239.741
v -207.704 212.978 -316.495
v -208.633 212.978 -240.669
v -284.582 212.978 -239.741
v -283.654 215.209 -315.566
v -284.582 215.209 -239.741
v -284.582 215.209 -316.495
v -208.633 215.209 -240.669
v -283.654 215.209 -240.669
v -208.633 215.209 -315.566
v -207.704 215.209 -239.741
v -208.633 215.209 -240.669
v -208.633 215.209 -315.566
v -207.704 215.209 -316.495
v -284.582 220.997 -316.495
v -220.084 186.651 -289.008
v -220.084 -2.46066 -267.644
v -235.191 -2.46066 -252.537
v -256.555 -2.46066 -252.537
v -234.539 192.5 -305.69
v -234.261 199.26 -306.361
v -234.261 199.26 -250.291
v -217.589 188.939 -266.61
v -234.157 188.939 -306.61
v -235.191 191.226 -304.115
v -256.555 191.226 -304.115
v -283.654 212.978 -315.566
v -208.633 212.978 -315.566
v -208.633 212.978 -240.669
v -283.654 212.978 -240.669
v -284.582 220.997 -316.495
v -207.704 220.997 -316.495
v -207.704 220.997 -239.741
v -284.582 220.997 -239.741
v -283.654 212.978 -240.669
v -283.654 215.209 -240.669
v -207.704 215.209 -316.495
v -283.654 215.209 -315.566
vt 0.2969 0.7136
vt 0.1052 0.905
vt 0.2969 0.905
vt 0.0419 0.2559
vt 0.0579 0.0149
vt 0.0419 0.0149
vt 0.0419 0.4944
vt 0.0579 0.2559
vt 0.0419 0.7325
vt 0.0577 0.4944
vt 0.0419 0.974
vt 0.0577 0.7325
vt 0.0698 0.7394
vt 0.0579 0.974
vt 0.0698 0.9671
vt 0.0694 0.5012
vt 0.0694 0.7257
vt 0.0694 0.4876
vt 0.0698 0.0217
vt 0.0698 0.2491
vt 0.0871 0.9497
vt 0.0866 0.5183
vt 0.0866 0.2799
vt 0.0694 0.2627
vt 0.0872 0.2317
vt 0.8215 0.9003
vt 0.8927 0.0086
vt 0.8215 0.0086
vt 0.9935 0.9003
vt 0.8927 0.0086
vt 0.8927 0.9003
vt 0.3768 0.9003
vt 0.3056 0.0086
vt 0.3056 0.9003
vt 0.4775 0.9003
vt 0.3768 0.0086
vt 0.3768 0.9003
vt 0.5488 0.9003
vt 0.4775 0.0086
vt 0.4775 0.9003
vt 0.6495 0.9003
vt 0.5488 0.0086
vt 0.7207 0.9003
vt 0.6495 0.0086
vt 0.7207 0.0086
vt 0.2428 0.9493
vt 0.1356 0.9414
vt 0.1356 0.9493
vt 0.35 0.9414
vt 0.2428 0.9414
vt 0.4571 0.9493
vt 0.35 0.9493
vt 0.5643 0.9493
vt 0.4571 0.9414
vt 0.6715 0.9493
vt 0.5643 0.9414
vt 0.7787 0.9493
vt 0.6715 0.9414
vt 0.8859 0.9414
vt 0.7787 0.9414
vt 0.8859 0.9493
vt 0.9931 0.9414
vt 0.1356 0.9908
vt 0.2428 0.9727
vt 0.1356 0.9727
vt 0.2428 0.9908
vt 0.35 0.9727
vt 0.35 0.9908
vt 0.4571 0.9727
vt 0.5643 0.9908
vt 0.4571 0.9908
vt 0.6715 0.9727
vt 0.5643 0.9727
vt 0.7787 0.9908
vt 0.6715 0.9908
vt 0.8859 0.9908
vt 0.7787 0.9727
vt 0.9931 0.9908
vt 0.8859 0.9727
vt 0.0941 0.6488
vt 0.0866 0.7086
vt 0.0941 0.5768
vt 0.145 0.5258
vt 0.0866 0.4704
vt 0.0941 0.34
vt 0.148 0.2241
vt 0.0964 0.1725
vt 0.0964 0.0996
vt 0.0872 0.0391
vt 0.148 0.048
vt 0.0961 0.8889
vt 0.0871 0.7568
vt 0.145 0.6998
vt 0.1356 0.9274
vt 0.2428 0.9133
vt 0.1356 0.9133
vt 0.2428 0.9274
vt 0.35 0.9133
vt 0.4571 0.9274
vt 0.4571 0.9133
vt 0.5643 0.9274
vt 0.5643 0.9133
vt 0.6715 0.9274
vt 0.6715 0.9133
vt 0.7787 0.9274
vt 0.7787 0.9133
vt 0.8859 0.9274
vt 0.8859 0.9133
vt 0.9931 0.9133
vt 0.1356 0.9274
vt 0.2428 0.9414
vt 0.2428 0.9274
vt 0.35 0.9414
vt 0.35 0.9274
vt 0.4571 0.9274
vt 0.4571 0.9414
vt 0.5643 0.9274
vt 0.5643 0.9414
vt 0.6715 0.9274
vt 0.6715 0.9414
vt 0.7787 0.9274
vt 0.7787 0.9414
vt 0.8859 0.9274
vt 0.9931 0.9414
vt 0.9931 0.9274
vt 0.1356 0.9571
vt 0.2428 0.9571
vt 0.35 0.9571
vt 0.4571 0.9571
vt 0.5643 0.9571
vt 0.6715 0.9571
vt 0.7787 0.9571
vt 0.8859 0.9571
vt 0.9931 0.9727
vt 0.9931 0.9571
vt 0.2428 0.9493
vt 0.1356 0.9493
vt 0.35 0.9493
vt 0.4571 0.9493
vt 0.5643 0.9493
vt 0.6715 0.9493
vt 0.7787 0.9493
vt 0.8859 0.9493
vt 0.9931 0.9493
vt 0.0318 0.2559
vt 0.0389 0.0178
vt 0.0318 0.0178
vt 0.0318 0.4944
vt 0.0389 0.2559
vt 0.0318 0.2559
vt 0.0318 0.7325
vt 0.0389 0.4944
vt 0.0318 0.4944
vt 0.0318 0.971
vt 0.0389 0.7325
vt 0.0318 0.7325
vt 0.0059 0.4945
vt 0.0243 0.7385
vt 0.0243 0.4945
vt 0.0059 0.7385
vt 0.0243 0.9829
vt 0.0243 0.7385
vt 0.0059 0.0061
vt 0.0243 0.2501
vt 0.0243 0.0061
vt 0.0059 0.2501
vt 0.0243 0.4945
vt 0.0243 0.2501
vt 0.0389 0.2559
vt 0.0419 0.0149
vt 0.0389 0.0178
vt 0.0389 0.4944
vt 0.0419 0.2559
vt 0.0419 0.7325
vt 0.0419 0.4944
vt 0.0389 0.7325
vt 0.0419 0.974
vt 0.0272 0.7355
vt 0.0243 0.4945
vt 0.0243 0.7385
vt 0.0272 0.253
vt 0.0272 0.4915
vt 0.0272 0.009
vt 0.0243 0.2501
vt 0.0272 0.2471
vt 0.0272 0.9799
vt 0.0243 0.9829
vt 0.1052 0.7136
vt 0.8927 0.9003
vt 0.9935 0.0086
vt 0.3768 0.0086
vt 0.4775 0.0086
vt 0.9931 0.9493
vt 0.0941 0.412
vt 0.0961 0.8159
vt 0.35 0.9274
vt 0.9931 0.9274
vt 0.1356 0.9414
vt 0.8859 0.9414
vt 0.0389 0.2559
vt 0.0389 0.4944
vt 0.0389 0.7325
vt 0.0389 0.971
vt 0.0059 0.7385
vt 0.0059 0.9829
vt 0.0059 0.2501
vt 0.0059 0.4945
vt 0.0389 0.971
vt 0.0272 0.4974
vt 0.0243 0.0061
vt 0.0272 0.7414
vn 0 1 0
vn 0 1 0
vn 0 1 0
vn -0.7071 0 -0.7071
vn -0.6757 -0.2951 0.6756
vn -0.7071 0 0.7071
vn 0.7071 0 -0.7071
vn -0.6757 -0.2951 -0.6756
vn 0.7071 0 0.7071
vn 0.6757 -0.2951 -0.6756
vn -0.7071 0 0.7071
vn 0.6757 -0.2951 0.6756
vn 0.4624 -0.7564 0.4627
vn -0.6757 -0.2951 0.6756
vn -0.4624 -0.7564 0.4627
vn 0.4624 -0.7564 -0.4627
vn 0.4624 -0.7564 0.4627
vn 0.4624 -0.7564 -0.4627
vn -0.4624 -0.7564 0.4627
vn -0.4624 -0.7564 -0.4627
vn -0.2162 -0.952 0.2165
vn 0.218 -0.9512 -0.2183
vn -0.2172 -0.9517 -0.2171
vn -0.4624 -0.7564 -0.4627
vn -0.2172 -0.9517 -0.2171
vn 0.3827 0 -0.9239
vn 0.7071 0 -0.7071
vn 0.3827 0 -0.9239
vn 0.9239 -0 0.3827
vn 1 -0 0
vn 1 -0 0
vn 0.7071 0 0.7071
vn 0.9239 -0 0.3827
vn 0.9239 -0 0.3827
vn 0 -0 1
vn 0 -0 1
vn 0 -0 1
vn -0.9239 -0 0.3827
vn -0.7071 0 0.7071
vn -0.7071 0 0.7071
vn -0.9239 0 -0.3827
vn -0.9239 -0 0.3827
vn -0.3827 0 -0.9239
vn -0.9239 0 -0.3827
vn -0.3827 0 -0.9239
vn 0.5532 -0.8009 -0.2291
vn 0.2291 -0.8009 -0.5532
vn 0.2291 -0.8009 -0.5532
vn 0.5532 -0.8009 0.2291
vn 0.5532 -0.8009 -0.2291
vn 0.2291 -0.8009 0.5532
vn 0.5532 -0.8009 0.2291
vn -0.2291 -0.8009 0.5532
vn 0.2291 -0.8009 0.5532
vn -0.5532 -0.8009 0.2292
vn -0.2292 -0.8009 0.5532
vn -0.5532 -0.8009 -0.2292
vn -0.5532 -0.8009 0.2291
vn -0.2291 -0.8009 -0.5532
vn -0.5532 -0.8009 -0.2291
vn -0.2291 -0.8009 -0.5532
vn 0.2291 -0.8009 -0.5532
vn 0.1476 -0.7559 -0.6379
vn 0.8879 -0.2764 -0.3678
vn 0.3678 -0.2764 -0.8879
vn 0.6388 -0.7551 -0.1476
vn 0.8879 -0.2764 0.3678
vn 0.6389 -0.7551 0.1473
vn 0.3678 -0.2764 0.8879
vn -0.1475 -0.7801 0.608
vn 0.1479 -0.7801 0.6079
vn -0.8879 -0.2764 0.3678
vn -0.3678 -0.2764 0.8879
vn -0.6007 -0.7856 -0.148
vn -0.6008 -0.7857 0.1477
vn -0.1472 -0.7559 -0.6379
vn -0.8879 -0.2764 -0.3678
vn 0.1476 -0.7559 -0.6379
vn -0.3678 -0.2764 -0.8879
vn 0.6389 -0.7551 0.1473
vn 0.217 -0.9516 0.2177
vn 0.6388 -0.7551 -0.1476
vn 0.1476 -0.7559 -0.6379
vn 0.218 -0.9512 -0.2183
vn -0.1472 -0.7559 -0.6379
vn -0.1472 -0.7559 -0.6379
vn -0.6007 -0.7856 -0.148
vn -0.6008 -0.7857 0.1477
vn -0.2162 -0.952 0.2165
vn -0.1475 -0.7801 0.608
vn -0.1475 -0.7801 0.608
vn 0.217 -0.9516 0.2177
vn 0.1479 -0.7801 0.6079
vn 0.2473 -0.7631 -0.5971
vn 0.5971 -0.7631 -0.2473
vn 0.2473 -0.7631 -0.5971
vn 0.5971 -0.7631 -0.2473
vn 0.5971 -0.7631 0.2473
vn 0.2473 -0.7631 0.5971
vn 0.2473 -0.7631 0.5971
vn -0.2473 -0.7631 0.5971
vn -0.2473 -0.7631 0.5971
vn -0.5971 -0.7631 0.2473
vn -0.5971 -0.7631 0.2473
vn -0.5971 -0.7631 -0.2473
vn -0.5971 -0.7631 -0.2473
vn -0.2473 -0.7631 -0.5971
vn -0.2473 -0.7631 -0.5971
vn 0.2473 -0.7631 -0.5971
vn 0.2473 0.7631 -0.5971
vn 0.5971 0.7631 -0.2473
vn 0.5971 0.7631 -0.2473
vn 0.5971 0.7631 0.2473
vn 0.5971 0.7631 0.2473
vn 0.2473 0.7631 0.5971
vn 0.2473 0.7631 0.5971
vn -0.2473 0.7631 0.5971
vn -0.2473 0.7631 0.5971
vn -0.5971 0.7631 0.2473
vn -0.5971 0.7631 0.2473
vn -0.5971 0.7631 -0.2473
vn -0.5971 0.7631 -0.2473
vn -0.2473 0.7631 -0.5971
vn 0.2473 0.7631 -0.5971
vn 0.2473 0.7631 -0.5971
vn 0.3526 0.3886 -0.8513
vn 0.8513 0.3886 -0.3526
vn 0.8512 0.3887 0.3526
vn 0.3526 0.3886 0.8513
vn -0.3526 0.3886 0.8513
vn -0.8512 0.3886 0.3526
vn -0.8513 0.3886 -0.3526
vn -0.3526 0.3886 -0.8513
vn 0.3678 -0.2764 -0.8879
vn 0.3526 0.3886 -0.8513
vn 0.7187 0.6284 -0.2977
vn 0.2977 0.6284 -0.7187
vn 0.7187 0.6284 0.2977
vn 0.2977 0.6284 0.7187
vn -0.2977 0.6284 0.7187
vn -0.7187 0.6283 0.2977
vn -0.7187 0.6283 -0.2977
vn -0.2977 0.6284 -0.7187
vn 0.2977 0.6284 -0.7187
vn -1 0 0
vn -1 0 0
vn -1 0 0
vn 0 0 -1
vn 0 0 -1
vn 0 0 -1
vn 1 -0 0
vn 1 -0 0
vn 1 -0 0
vn 0 -0 1
vn 0 -0 1
vn 0 -0 1
vn -1 0 0
vn -1 0 0
vn -1 0 0
vn 0 0 -1
vn 0 0 -1
vn 0 0 -1
vn 1 -0 0
vn 1 -0 0
vn 1 -0 0
vn 0 -0 1
vn 0 -0 1
vn 0 -0 1
vn 0 1 0
vn 0 1 0
vn 0 1 0
vn 0 1 0
vn 0 1 0
vn 0 1 0
vn 0 1 0
vn 0 1 0
vn 0 1 0
vn 0 -1 -0
vn 0 -1 -0
vn 0 -1 -0
vn 0 -1 -0
vn 0 -1 -0
vn 0 -1 -0
vn 0 -1 -0
vn 0 -1 -0
vn 0 -1 -0
vn 0 -1 -0
vn 0 1 0
vn 0.7071 0 -0.7071
vn 0.9239 -0 0.3827
vn 0.7071 0 0.7071
vn 0 -0 1
vn 0.2291 -0.8009 -0.5532
vn 0.1476 -0.7559 -0.6379
vn 0.1479 -0.7801 0.6079
vn 0.5971 -0.7631 0.2473
vn 0.2473 -0.7631 -0.5971
vn 0.2473 0.7631 -0.5971
vn -0.2473 0.7631 -0.5971
vn -1 0 0
vn 0 0 -1
vn 1 -0 0
vn 0 -0 1
vn -1 0 0
vn 0 0 -1
vn 1 -0 0
vn 0 -0 1
vn 0 1 0
vn 0 -1 -0
vn 0 -1 -0
vn 0 -1 -0
f 1/1/1 2/2/2 3/3/3
f 4/4/4 5/5/5 6/6/6
f 7/7/7 8/8/8 4/4/4
f 9/9/9 10/10/10 7/7/7
f 11/11/11 12/12/12 9/9/9
f 13/13/13 14/14/14 15/15/15
f 16/16/16 12/12/12 17/17/17
f 18/18/18 8/8/8 10/10/10
f 19/19/19 8/8/8 20/20/20
f 21/21/21 13/13/13 15/15/15
f 17/17/17 22/22/22 16/16/16
f 18/18/18 23/23/23 24/24/24
f 25/25/25 19/19/19 20/20/20
f 26/26/26 27/27/27 28/28/28
f 29/29/29 30/30/30 31/31/31
f 32/32/32 33/33/33 34/34/34
f 35/35/35 36/36/36 37/37/37
f 38/38/38 39/39/39 40/40/40
f 41/41/41 42/42/42 38/38/38
f 43/43/43 44/44/44 41/41/41
f 26/26/26 45/45/45 43/43/43
f 46/46/46 47/47/47 48/48/48
f 46/46/46 49/49/49 50/50/50
f 51/51/51 49/49/49 52/52/52
f 53/53/53 54/54/54 51/51/51
f 55/55/55 56/56/56 53/53/53
f 57/57/57 58/58/58 55/55/55
f 57/57/57 59/59/59 60/60/60
f 61/61/61 62/62/62 59/59/59
f 63/63/63 64/64/64 65/65/65
f 66/66/66 67/67/67 64/64/64
f 68/68/68 69/69/69 67/67/67
f 70/70/70 69/69/69 71/71/71
f 70/70/70 72/72/72 73/73/73
f 74/74/74 72/72/72 75/75/75
f 76/76/76 77/77/77 74/74/74
f 78/78/78 79/79/79 76/76/76
f 80/80/80 22/22/22 81/81/81
f 22/22/22 82/82/82 83/83/83
f 84/84/84 85/85/85 23/23/23
f 25/25/25 86/86/86 87/87/87
f 25/25/25 88/88/88 89/89/89
f 89/89/89 88/88/88 90/90/90
f 91/91/91 92/92/92 21/21/21
f 81/81/81 93/93/93 80/80/80
f 94/94/94 95/95/95 96/96/96
f 97/97/97 98/98/98 95/95/95
f 98/98/98 99/99/99 100/100/100
f 100/100/100 101/101/101 102/102/102
f 102/102/102 103/103/103 104/104/104
f 104/104/104 105/105/105 106/106/106
f 106/106/106 107/107/107 108/108/108
f 107/107/107 109/109/109 108/108/108
f 110/110/110 111/111/111 112/112/112
f 112/112/112 113/113/113 114/114/114
f 113/113/113 115/115/115 114/114/114
f 116/116/116 117/117/117 115/115/115
f 118/118/118 119/119/119 117/117/117
f 120/120/120 121/121/121 119/119/119
f 122/122/122 123/123/123 121/121/121
f 123/123/123 124/124/124 125/125/125
f 126/126/126 64/64/64 127/127/127
f 127/127/127 67/67/67 128/128/128
f 128/128/128 69/69/69 129/129/129
f 69/69/69 130/130/130 129/129/129
f 130/130/130 72/72/72 131/131/131
f 72/72/72 132/132/132 131/131/131
f 77/77/77 133/133/133 132/132/132
f 133/133/133 134/134/134 135/135/135
f 126/126/126 136/136/136 137/137/137
f 127/127/127 138/138/138 136/136/136
f 138/138/138 129/129/129 139/139/139
f 139/139/139 130/130/130 140/140/140
f 130/130/130 141/141/141 140/140/140
f 141/141/141 132/132/132 142/142/142
f 142/142/142 133/133/133 143/143/143
f 133/133/133 144/144/144 143/143/143
f 145/145/145 146/146/146 147/147/147
f 148/148/148 149/149/149 150/150/150
f 151/151/151 152/152/152 153/153/153
f 154/154/154 155/155/155 156/156/156
f 157/157/157 158/158/158 159/159/159
f 160/160/160 161/161/161 162/162/162
f 163/163/163 164/164/164 165/165/165
f 166/166/166 167/167/167 168/168/168
f 169/169/169 170/170/170 171/171/171
f 172/172/172 173/173/173 169/169/169
f 172/172/172 174/174/174 175/175/175
f 176/176/176 177/177/177 174/174/174
f 178/178/178 179/179/179 180/180/180
f 181/181/181 179/179/179 182/182/182
f 183/183/183 184/184/184 185/185/185
f 186/186/186 180/180/180 187/187/187
f 1/1/1 188/188/188 2/2/2
f 4/4/4 8/8/8 5/5/5
f 7/7/7 10/10/10 8/8/8
f 9/9/9 12/12/12 10/10/10
f 11/11/11 14/14/14 12/12/12
f 13/13/13 12/12/12 14/14/14
f 16/16/16 10/10/10 12/12/12
f 18/18/18 24/24/24 8/8/8
f 19/19/19 5/5/5 8/8/8
f 21/21/21 92/92/92 13/13/13
f 17/17/17 81/81/81 22/22/22
f 18/18/18 84/84/84 23/23/23
f 25/25/25 89/89/89 19/19/19
f 26/26/26 189/189/189 27/27/27
f 29/29/29 190/190/190 30/30/30
f 32/32/32 191/191/191 33/33/33
f 35/35/35 192/192/192 36/36/36
f 38/38/38 42/42/42 39/39/39
f 41/41/41 44/44/44 42/42/42
f 43/43/43 45/45/45 44/44/44
f 26/26/26 28/28/28 45/45/45
f 46/46/46 50/50/50 47/47/47
f 46/46/46 52/52/52 49/49/49
f 51/51/51 54/54/54 49/49/49
f 53/53/53 56/56/56 54/54/54
f 55/55/55 58/58/58 56/56/56
f 57/57/57 60/60/60 58/58/58
f 57/57/57 61/61/61 59/59/59
f 61/61/61 193/193/193 62/62/62
f 63/63/63 66/66/66 64/64/64
f 66/66/66 68/68/68 67/67/67
f 68/68/68 71/71/71 69/69/69
f 70/70/70 73/73/73 69/69/69
f 70/70/70 75/75/75 72/72/72
f 74/74/74 77/77/77 72/72/72
f 76/76/76 79/79/79 77/77/77
f 78/78/78 134/134/134 79/79/79
f 80/80/80 82/82/82 22/22/22
f 84/84/84 194/194/194 85/85/85
f 25/25/25 87/87/87 88/88/88
f 91/91/91 195/195/195 92/92/92
f 94/94/94 97/97/97 95/95/95
f 97/97/97 196/196/196 98/98/98
f 98/98/98 196/196/196 99/99/99
f 100/100/100 99/99/99 101/101/101
f 102/102/102 101/101/101 103/103/103
f 104/104/104 103/103/103 105/105/105
f 106/106/106 105/105/105 107/107/107
f 107/107/107 197/197/197 109/109/109
f 110/110/110 198/198/198 111/111/111
f 112/112/112 111/111/111 113/113/113
f 113/113/113 116/116/116 115/115/115
f 116/116/116 118/118/118 117/117/117
f 118/118/118 120/120/120 119/119/119
f 120/120/120 122/122/122 121/121/121
f 122/122/122 199/199/199 123/123/123
f 123/123/123 199/199/199 124/124/124
f 126/126/126 65/65/65 64/64/64
f 127/127/127 64/64/64 67/67/67
f 128/128/128 67/67/67 69/69/69
f 69/69/69 73/73/73 130/130/130
f 130/130/130 73/73/73 72/72/72
f 72/72/72 77/77/77 132/132/132
f 77/77/77 79/79/79 133/133/133
f 133/133/133 79/79/79 134/134/134
f 126/126/126 127/127/127 136/136/136
f 127/127/127 128/128/128 138/138/138
f 138/138/138 128/128/128 129/129/129
f 139/139/139 129/129/129 130/130/130
f 130/130/130 131/131/131 141/141/141
f 141/141/141 131/131/131 132/132/132
f 142/142/142 132/132/132 133/133/133
f 133/133/133 135/135/135 144/144/144
f 145/145/145 200/200/200 146/146/146
f 148/148/148 201/201/201 149/149/149
f 151/151/151 202/202/202 152/152/152
f 154/154/154 203/203/203 155/155/155
f 157/157/157 204/204/204 158/158/158
f 160/160/160 205/205/205 161/161/161
f 163/163/163 206/206/206 164/164/164
f 166/166/166 207/207/207 167/167/167
f 169/169/169 173/173/173 170/170/170
f 172/172/172 175/175/175 173/173/173
f 172/172/172 176/176/176 174/174/174
f 176/176/176 208/208/208 177/177/177
f 178/178/178 209/209/209 179/179/179
f 181/181/181 184/184/184 179/179/179
f 183/183/183 210/210/210 184/184/184
f 186/186/186 211/211/211 180/180/180
