v 83.5356 220.997 167.714
v 160.414 220.997 244.468
v 160.414 220.997 167.714
v 160.414 212.978 167.714
v 160.414 207.888 244.468
v 160.414 207.888 167.714
v 83.5356 212.978 167.714
v 83.5356 207.888 167.714
v 83.5356 212.978 244.468
v 83.5356 207.888 244.468
v 160.414 212.978 244.468
v 160.414 207.888 244.468
v 85.726 204.087 242.281
v 85.726 204.087 242.281
v 158.223 204.087 169.901
v 158.223 204.087 242.281
v 152.688 201.172 236.754
v 91.2615 201.172 236.754
v 91.2615 201.172 175.427
v 85.726 204.087 169.901
v 91.2615 201.172 175.427
v 152.688 201.172 175.427
v 152.688 201.172 175.427
v 152.688 201.172 236.754
v 95.9152 186.651 195.2
v 111.022 -2.46073 180.093
v 95.9152 -2.46073 195.2
v 95.9152 186.651 216.565
v 95.9152 -2.46074 216.565
v 111.022 -2.46074 231.671
v 95.9152 186.651 216.565
v 95.9152 -2.46074 216.565
v 132.387 186.651 231.672
v 132.387 -2.46074 231.671
v 147.493 186.651 216.565
v 147.493 -2.46074 216.565
v 147.493 186.651 195.2
v 147.493 -2.46074 216.565
v 147.493 -2.46073 195.2
v 132.387 -2.46073 180.093
v 111.022 186.651 180.093
v 132.387 -2.46073 180.093
v 111.022 -2.46073 180.093
v 95.9152 191.226 195.2
v 110.37 192.5 178.519
v 111.022 191.226 180.093
v 94.3406 192.5 217.217
v 95.9152 191.226 216.565
v 110.37 192.5 233.246
v 111.022 191.226 231.672
v 132.387 191.226 231.672
v 147.493 191.226 216.565
v 133.039 192.5 233.246
v 147.493 191.226 195.2
v 149.068 192.5 217.217
v 133.039 192.5 178.519
v 132.387 191.226 180.093
v 110.37 192.5 178.519
v 111.022 191.226 180.093
v 93.6696 199.26 194.27
v 110.821 196.322 179.608
v 95.4302 196.322 194.999
v 95.4302 196.322 216.765
v 110.821 196.322 232.156
v 93.6696 199.26 217.495
v 133.317 199.26 233.917
v 132.587 196.322 232.156
v 149.739 199.26 217.495
v 147.979 196.322 216.765
v 149.739 199.26 194.27
v 147.979 196.322 194.999
v 132.587 196.322 179.608
v 110.092 199.26 177.848
v 110.821 196.322 179.608
v 93.6696 199.26 217.495
v 91.2615 201.172 236.754
v 110.092 199.26 177.848
v 93.6696 199.26 194.27
v 133.317 199.26 177.848
v 110.092 199.26 177.848
v 149.739 199.26 194.27
v 133.317 199.26 177.848
v 149.739 199.26 217.495
v 133.317 199.26 233.917
v 133.317 199.26 233.917
v 110.092 199.26 233.917
v 109.989 188.939 177.598
v 95.9152 186.651 195.2
v 93.42 188.939 194.167
v 95.9152 186.651 216.565
v 93.42 188.939 217.598
v 111.022 186.651 231.672
v 109.989 188.939 234.167
v 133.42 188.939 234.167
v 132.387 186.651 231.672
v 149.989 188.939 217.598
v 147.493 186.651 216.565
v 149.989 188.939 194.167
v 147.493 186.651 195.2
v 132.387 186.651 180.093
v 133.42 188.939 177.598
v 111.022 186.651 180.093
v 109.989 188.939 177.598
v 95.9152 191.226 195.2
v 109.989 188.939 177.598
v 93.42 188.939 194.167
v 95.9152 191.226 216.565
v 93.42 188.939 217.598
v 109.989 188.939 234.167
v 111.022 191.226 231.672
v 133.42 188.939 234.167
v 132.387 191.226 231.672
v 149.989 188.939 217.598
v 147.493 191.226 216.565
v 149.989 188.939 194.167
v 147.493 191.226 195.2
v 132.387 191.226 180.093
v 133.42 188.939 177.598
v 111.022 191.226 180.093
v 109.989 188.939 177.598
v 110.764 193.774 179.469
v 95.2914 193.774 194.942
v 95.2914 193.774 216.823
v 110.764 193.774 232.295
v 132.645 193.774 232.295
v 148.117 193.774 216.823
v 148.117 193.774 194.942
v 132.645 193.774 179.469
v 110.764 193.774 179.469
v 94.3406 192.5 194.548
v 94.3406 192.5 217.217
v 110.37 192.5 233.246
v 133.039 192.5 233.246
v 149.068 192.5 217.217
v 149.068 192.5 194.548
v 133.039 192.5 178.519
v 110.37 192.5 178.519
v 159.485 212.978 168.642
v 159.485 215.209 243.539
v 159.485 212.978 243.539
v 84.4642 215.209 168.642
v 159.485 212.978 168.642
v 84.4642 212.978 168.642
v 84.4642 215.209 243.539
v 84.4642 212.978 168.642
v 84.4642 212.978 243.539
v 159.485 215.209 243.539
v 84.4642 212.978 243.539
v 159.485 212.978 243.539
v 160.414 220.997 244.468
v 160.414 215.209 167.714
v 160.414 220.997 167.714
v 160.414 220.997 167.714
v 83.5356 215.209 167.714
v 83.5356 220.997 167.714
v 83.5356 220.997 167.714
v 83.5356 215.209 244.468
v 83.5356 220.997 244.468
v 83.5356 220.997 244.468
v 160.414 215.209 244.468
v 160.414 220.997 244.468
v 160.414 212.978 167.714
v 159.485 212.978 243.539
v 160.414 212.978 244.468
v 84.4642 212.978 168.642
v 83.5356 212.978 167.714
v 84.4642 212.978 243.539
v 83.5356 212.978 244.468
v 159.485 212.978 243.539
v 160.414 212.978 244.468
v 159.485 215.209 243.539
v 160.414 215.209 167.714
v 160.414 215.209 244.468
v 84.4642 215.209 243.539
v 83.5356 215.209 244.468
v 83.5356 215.209 167.714
v 84.4642 215.209 243.539
v 159.485 215.209 168.642
v 83.5356 215.209 167.714
v 83.5356 220.997 244.468
v 160.414 212.978 244.468
v 158.223 204.087 242.281
v 85.726 204.087 169.901
v 158.223 204.087 169.901
v 111.022 186.651 180.093
v 111.022 186.651 231.672
v 147.493 186.651 216.565
v 132.387 186.651 180.093
v 132.387 186.651 180.093
v 94.3406 192.5 194.548
v 149.068 192.5 194.548
v 110.092 199.26 177.848
v 110.092 199.26 233.917
v 133.317 199.26 177.848
v 110.092 199.26 233.917
v 111.022 186.651 180.093
v 111.022 191.226 180.093
v 110.37 192.5 178.519
v 159.485 215.209 168.642
v 159.485 215.209 168.642
v 84.4642 215.209 168.642
v 84.4642 215.209 243.539
v 160.414 215.209 244.468
v 160.414 215.209 167.714
v 83.5356 215.209 167.714
v 83.5356 215.209 244.468
v 159.485 212.978 168.642
v 159.485 215.209 168.642
v 159.485 215.209 243.539
v 84.4642 215.209 168.642
v 84.4642 215.209 168.642
vt 0.2969 0.7136
vt 0.1052 0.905
vt 0.1052 0.7136
vt 0.0419 0.2559
vt 0.0579 0.0149
vt 0.0579 0.2559
vt 0.0419 0.4944
vt 0.0577 0.4944
vt 0.0419 0.7325
vt 0.0577 0.7325
vt 0.0419 0.974
vt 0.0579 0.974
vt 0.0698 0.7394
vt 0.0694 0.7257
vt 0.0694 0.2627
vt 0.0698 0.0217
vt 0.0871 0.9497
vt 0.0871 0.7568
vt 0.0866 0.5183
vt 0.0694 0.5012
vt 0.0866 0.4704
vt 0.0866 0.2799
vt 0.0872 0.2317
vt 0.0872 0.0391
vt 0.8927 0.9003
vt 0.8215 0.0086
vt 0.8927 0.0086
vt 0.9935 0.9003
vt 0.9935 0.0086
vt 0.3768 0.0086
vt 0.3056 0.9003
vt 0.3056 0.0086
vt 0.4775 0.9003
vt 0.4775 0.0086
vt 0.5488 0.9003
vt 0.5488 0.0086
vt 0.6495 0.9003
vt 0.5488 0.0086
vt 0.6495 0.0086
vt 0.7207 0.0086
vt 0.8215 0.9003
vt 0.7207 0.0086
vt 0.8215 0.0086
vt 0.2428 0.9414
vt 0.1356 0.9493
vt 0.1356 0.9414
vt 0.35 0.9493
vt 0.35 0.9414
vt 0.4571 0.9493
vt 0.4571 0.9414
vt 0.5643 0.9414
vt 0.6715 0.9414
vt 0.5643 0.9493
vt 0.7787 0.9414
vt 0.6715 0.9493
vt 0.8859 0.9493
vt 0.8859 0.9414
vt 0.9931 0.9493
vt 0.9931 0.9414
vt 0.2428 0.9908
vt 0.1356 0.9727
vt 0.2428 0.9727
vt 0.35 0.9727
vt 0.4571 0.9727
vt 0.35 0.9908
vt 0.5643 0.9908
vt 0.5643 0.9727
vt 0.6715 0.9908
vt 0.6715 0.9727
vt 0.7787 0.9908
vt 0.7787 0.9727
vt 0.8859 0.9727
vt 0.9931 0.9908
vt 0.9931 0.9727
vt 0.0941 0.6488
vt 0.0866 0.7086
vt 0.145 0.5258
vt 0.0941 0.5768
vt 0.0941 0.34
vt 0.0941 0.412
vt 0.0964 0.1725
vt 0.148 0.2241
vt 0.0964 0.0996
vt 0.148 0.048
vt 0.0961 0.8889
vt 0.145 0.6998
vt 0.1356 0.9274
vt 0.2428 0.9133
vt 0.2428 0.9274
vt 0.35 0.9133
vt 0.35 0.9274
vt 0.4571 0.9133
vt 0.4571 0.9274
vt 0.5643 0.9274
vt 0.5643 0.9133
vt 0.6715 0.9274
vt 0.6715 0.9133
vt 0.7787 0.9274
vt 0.7787 0.9133
vt 0.8859 0.9133
vt 0.8859 0.9274
vt 0.9931 0.9133
vt 0.9931 0.9274
vt 0.2428 0.9414
vt 0.1356 0.9274
vt 0.2428 0.9274
vt 0.35 0.9414
vt 0.35 0.9274
vt 0.4571 0.9274
vt 0.4571 0.9414
vt 0.5643 0.9274
vt 0.5643 0.9414
vt 0.6715 0.9274
vt 0.6715 0.9414
vt 0.7787 0.9274
vt 0.7787 0.9414
vt 0.8859 0.9414
vt 0.8859 0.9274
vt 0.9931 0.9414
vt 0.9931 0.9274
vt 0.1356 0.9571
vt 0.2428 0.9571
vt 0.35 0.9571
vt 0.4571 0.9571
vt 0.5643 0.9571
vt 0.6715 0.9571
vt 0.7787 0.9571
vt 0.8859 0.9571
vt 0.9931 0.9571
vt 0.2428 0.9493
vt 0.35 0.9493
vt 0.4571 0.9493
vt 0.5643 0.9493
vt 0.6715 0.9493
vt 0.7787 0.9493
vt 0.8859 0.9493
vt 0.9931 0.9493
vt 0.0389 0.2559
vt 0.0318 0.0178
vt 0.0389 0.0178
vt 0.0318 0.4944
vt 0.0389 0.2559
vt 0.0389 0.4944
vt 0.0318 0.7325
vt 0.0389 0.4944
vt 0.0389 0.7325
vt 0.0318 0.971
vt 0.0389 0.7325
vt 0.0389 0.971
vt 0.0059 0.4945
vt 0.0243 0.7385
vt 0.0059 0.7385
vt 0.0059 0.7385
vt 0.0243 0.9829
vt 0.0059 0.9829
vt 0.0059 0.0061
vt 0.0243 0.2501
vt 0.0059 0.2501
vt 0.0059 0.2501
vt 0.0243 0.4945
vt 0.0059 0.4945
vt 0.0419 0.2559
vt 0.0389 0.0178
vt 0.0419 0.0149
vt 0.0389 0.4944
vt 0.0419 0.4944
vt 0.0389 0.7325
vt 0.0419 0.7325
vt 0.0389 0.971
vt 0.0419 0.974
vt 0.0272 0.4974
vt 0.0243 0.7385
vt 0.0243 0.4945
vt 0.0272 0.253
vt 0.0243 0.2501
vt 0.0243 0.0061
vt 0.0272 0.2471
vt 0.0272 0.7414
vt 0.0243 0.9829
vt 0.2969 0.905
vt 0.0419 0.0149
vt 0.0698 0.9671
vt 0.0694 0.4876
vt 0.0698 0.2491
vt 0.8215 0.9003
vt 0.3768 0.9003
vt 0.5488 0.9003
vt 0.7207 0.9003
vt 0.7207 0.9003
vt 0.2428 0.9493
vt 0.7787 0.9493
vt 0.1356 0.9908
vt 0.4571 0.9908
vt 0.8859 0.9908
vt 0.0961 0.8159
vt 0.1356 0.9133
vt 0.1356 0.9414
vt 0.1356 0.9493
vt 0.0318 0.2559
vt 0.0318 0.2559
vt 0.0318 0.4944
vt 0.0318 0.7325
vt 0.0243 0.4945
vt 0.0243 0.7385
vt 0.0243 0.0061
vt 0.0243 0.2501
vt 0.0389 0.2559
vt 0.0272 0.7355
vt 0.0272 0.4915
vt 0.0272 0.009
vt 0.0272 0.9799
vn 0 1 0
vn 0 1 0
vn 0 1 0
vn 0.7071 0 -0.7071
vn 0.6757 -0.2951 0.6756
vn 0.6757 -0.2951 -0.6756
vn -0.7071 0 -0.7071
vn -0.6757 -0.2951 -0.6756
vn -0.7071 0 0.7071
vn -0.6757 -0.2951 0.6756
vn 0.7071 0 0.7071
vn 0.6757 -0.2951 0.6756
vn -0.4624 -0.7564 0.4627
vn -0.4624 -0.7564 0.4627
vn 0.4624 -0.7564 -0.4627
vn 0.4624 -0.7564 0.4627
vn 0.2162 -0.952 0.2165
vn -0.217 -0.9516 0.2177
vn -0.218 -0.9512 -0.2183
vn -0.4624 -0.7564 -0.4627
vn -0.218 -0.9512 -0.2183
vn 0.2172 -0.9517 -0.2171
vn 0.2172 -0.9517 -0.2171
vn 0.2162 -0.952 0.2165
vn -0.9239 0 -0.3827
vn -0.7071 0 -0.7071
vn -0.9239 0 -0.3827
vn -1 -0 0
vn -1 -0 0
vn -0.3827 -0 0.9239
vn -0.7071 0 0.7071
vn -0.7071 0 0.7071
vn 0.3827 -0 0.9239
vn 0.3827 -0 0.9239
vn 0.7071 0 0.7071
vn 0.7071 0 0.7071
vn 0.9239 -0 -0.3827
vn 1 0 0
vn 0.9239 -0 -0.3827
vn 0.7071 0 -0.7071
vn 0 0 -1
vn 0 0 -1
vn 0 0 -1
vn -0.5532 -0.8009 -0.2291
vn -0.2291 -0.8009 -0.5532
vn -0.2291 -0.8009 -0.5532
vn -0.5532 -0.8009 0.2291
vn -0.5532 -0.8009 0.2291
vn -0.2291 -0.8009 0.5532
vn -0.2291 -0.8009 0.5532
vn 0.2291 -0.8009 0.5532
vn 0.5532 -0.8009 0.2291
vn 0.2291 -0.8009 0.5532
vn 0.5532 -0.8009 -0.2291
vn 0.5532 -0.8009 0.2291
vn 0.2291 -0.8009 -0.5532
vn 0.2291 -0.8009 -0.5532
vn -0.2291 -0.8009 -0.5532
vn -0.2291 -0.8009 -0.5532
vn -0.6388 -0.7551 -0.1476
vn -0.3678 -0.2764 -0.8879
vn -0.8879 -0.2764 -0.3678
vn -0.8879 -0.2764 0.3678
vn -0.3678 -0.2764 0.8879
vn -0.6389 -0.7551 0.1473
vn 0.1475 -0.7801 0.608
vn 0.3678 -0.2764 0.8879
vn 0.6008 -0.7857 0.1477
vn 0.8879 -0.2764 0.3678
vn 0.6007 -0.7856 -0.148
vn 0.8879 -0.2764 -0.3678
vn 0.3678 -0.2764 -0.8879
vn -0.1476 -0.7559 -0.6379
vn -0.3678 -0.2764 -0.8879
vn -0.6389 -0.7551 0.1473
vn -0.217 -0.9516 0.2177
vn -0.1476 -0.7559 -0.6379
vn -0.6388 -0.7551 -0.1476
vn 0.1472 -0.7559 -0.6379
vn -0.1476 -0.7559 -0.6379
vn 0.6007 -0.7856 -0.148
vn 0.1472 -0.7559 -0.6379
vn 0.6008 -0.7857 0.1477
vn 0.1475 -0.7801 0.608
vn 0.1475 -0.7801 0.608
vn -0.1479 -0.7801 0.6079
vn -0.2473 -0.7631 -0.5971
vn -0.5971 -0.7631 -0.2473
vn -0.5971 -0.7631 -0.2473
vn -0.5971 -0.7631 0.2473
vn -0.5971 -0.7631 0.2473
vn -0.2473 -0.7631 0.5971
vn -0.2473 -0.7631 0.5971
vn 0.2473 -0.7631 0.5971
vn 0.2473 -0.7631 0.5971
vn 0.5971 -0.7631 0.2473
vn 0.5971 -0.7631 0.2473
vn 0.5971 -0.7631 -0.2473
vn 0.5971 -0.7631 -0.2473
vn 0.2473 -0.7631 -0.5971
vn 0.2473 -0.7631 -0.5971
vn -0.2473 -0.7631 -0.5971
vn -0.2473 -0.7631 -0.5971
vn -0.5971 0.7631 -0.2473
vn -0.2473 0.7631 -0.5971
vn -0.5971 0.7631 -0.2473
vn -0.5971 0.7631 0.2473
vn -0.5971 0.7631 0.2473
vn -0.2473 0.7631 0.5971
vn -0.2473 0.7631 0.5971
vn 0.2473 0.7631 0.5971
vn 0.2473 0.7631 0.5971
vn 0.5971 0.7631 0.2473
vn 0.5971 0.7631 0.2473
vn 0.5971 0.7631 -0.2473
vn 0.5971 0.7631 -0.2473
vn 0.2473 0.7631 -0.5971
vn 0.2473 0.7631 -0.5971
vn -0.2473 0.7631 -0.5971
vn -0.2473 0.7631 -0.5971
vn -0.3526 0.3886 -0.8513
vn -0.8513 0.3887 -0.3526
vn -0.8513 0.3886 0.3526
vn -0.3526 0.3886 0.8513
vn 0.3526 0.3886 0.8513
vn 0.8513 0.3886 0.3526
vn 0.8513 0.3886 -0.3526
vn 0.3526 0.3886 -0.8513
vn -0.3526 0.3886 -0.8513
vn -0.7187 0.6284 -0.2977
vn -0.7187 0.6284 0.2977
vn -0.2977 0.6283 0.7187
vn 0.2977 0.6283 0.7187
vn 0.7187 0.6284 0.2977
vn 0.7187 0.6284 -0.2977
vn 0.2977 0.6283 -0.7187
vn -0.2977 0.6283 -0.7187
vn 1 0 0
vn 1 0 0
vn 1 0 0
vn 0 0 -1
vn 0 0 -1
vn 0 0 -1
vn -1 -0 0
vn -1 -0 0
vn -1 -0 0
vn 0 0 1
vn 0 0 1
vn 0 0 1
vn 1 0 0
vn 1 0 0
vn 1 0 0
vn 0 0 -1
vn 0 0 -1
vn 0 0 -1
vn -1 -0 0
vn -1 -0 0
vn -1 -0 0
vn 0 0 1
vn 0 0 1
vn 0 0 1
vn 0 1 0
vn 0 1 0
vn 0 1 0
vn 0 1 0
vn 0 1 0
vn 0 1 0
vn 0 1 0
vn 0 1 0
vn 0 1 0
vn 0 -1 0
vn 0 -1 0
vn 0 -1 0
vn 0 -1 0
vn 0 -1 0
vn 0 -1 0
vn 0 -1 0
vn 0 -1 0
vn 0 -1 0
vn 0 1 0
vn 0.7071 0 0.7071
vn 0.4624 -0.7564 0.4627
vn -0.4624 -0.7564 -0.4627
vn 0.4624 -0.7564 -0.4627
vn -0.7071 0 -0.7071
vn -0.3827 -0 0.9239
vn 1 0 0
vn 0.7071 0 -0.7071
vn 0 0 -1
vn -0.5532 -0.8009 -0.2291
vn 0.5532 -0.8009 -0.2291
vn -0.1476 -0.7559 -0.6379
vn -0.1479 -0.7801 0.6079
vn 0.1472 -0.7559 -0.6379
vn -0.1479 -0.7801 0.6079
vn -0.2473 -0.7631 -0.5971
vn -0.2473 0.7631 -0.5971
vn -0.2977 0.6283 -0.7187
vn 1 0 0
vn 0 0 -1
vn -1 -0 0
vn 0 0 1
vn 1 0 0
vn 0 0 -1
vn -1 -0 0
vn 0 0 1
vn 0 1 0
vn 0 -1 0
vn 0 -1 0
vn 0 -1 0
vn 0 -1 0
f 1/1/1 2/2/2 3/3/3
f 4/4/4 5/5/5 6/6/6
f 7/7/7 6/6/6 8/8/8
f 9/9/9 8/8/8 10/10/10
f 11/11/11 10/10/10 12/12/12
f 13/13/13 12/12/12 10/10/10
f 8/8/8 14/14/14 10/10/10
f 15/15/15 8/8/8 6/6/6
f 16/16/16 6/6/6 5/5/5
f 17/17/17 13/13/13 18/18/18
f 19/19/19 14/14/14 20/20/20
f 21/21/21 15/15/15 22/22/22
f 23/23/23 16/16/16 24/24/24
f 25/25/25 26/26/26 27/27/27
f 28/28/28 27/27/27 29/29/29
f 30/30/30 31/31/31 32/32/32
f 33/33/33 30/30/30 34/34/34
f 35/35/35 34/34/34 36/36/36
f 37/37/37 38/38/38 39/39/39
f 40/40/40 37/37/37 39/39/39
f 41/41/41 42/42/42 43/43/43
f 44/44/44 45/45/45 46/46/46
f 47/47/47 44/44/44 48/48/48
f 49/49/49 48/48/48 50/50/50
f 51/51/51 49/49/49 50/50/50
f 52/52/52 53/53/53 51/51/51
f 54/54/54 55/55/55 52/52/52
f 56/56/56 54/54/54 57/57/57
f 58/58/58 57/57/57 59/59/59
f 60/60/60 61/61/61 62/62/62
f 63/63/63 60/60/60 62/62/62
f 64/64/64 65/65/65 63/63/63
f 66/66/66 64/64/64 67/67/67
f 68/68/68 67/67/67 69/69/69
f 70/70/70 69/69/69 71/71/71
f 72/72/72 70/70/70 71/71/71
f 73/73/73 72/72/72 74/74/74
f 19/19/19 75/75/75 76/76/76
f 19/19/19 77/77/77 78/78/78
f 21/21/21 79/79/79 80/80/80
f 23/23/23 81/81/81 82/82/82
f 23/23/23 83/83/83 81/81/81
f 24/24/24 84/84/84 83/83/83
f 18/18/18 85/85/85 17/17/17
f 76/76/76 75/75/75 86/86/86
f 87/87/87 88/88/88 89/89/89
f 89/89/89 90/90/90 91/91/91
f 91/91/91 92/92/92 93/93/93
f 94/94/94 92/92/92 95/95/95
f 96/96/96 95/95/95 97/97/97
f 98/98/98 97/97/97 99/99/99
f 98/98/98 100/100/100 101/101/101
f 101/101/101 102/102/102 103/103/103
f 104/104/104 105/105/105 106/106/106
f 107/107/107 106/106/106 108/108/108
f 107/107/107 109/109/109 110/110/110
f 110/110/110 111/111/111 112/112/112
f 112/112/112 113/113/113 114/114/114
f 114/114/114 115/115/115 116/116/116
f 117/117/117 115/115/115 118/118/118
f 119/119/119 118/118/118 120/120/120
f 62/62/62 121/121/121 122/122/122
f 63/63/63 122/122/122 123/123/123
f 64/64/64 123/123/123 124/124/124
f 67/67/67 124/124/124 125/125/125
f 69/69/69 125/125/125 126/126/126
f 69/69/69 127/127/127 71/71/71
f 71/71/71 128/128/128 72/72/72
f 72/72/72 129/129/129 74/74/74
f 121/121/121 130/130/130 122/122/122
f 122/122/122 131/131/131 123/123/123
f 123/123/123 132/132/132 124/124/124
f 125/125/125 132/132/132 133/133/133
f 126/126/126 133/133/133 134/134/134
f 127/127/127 134/134/134 135/135/135
f 128/128/128 135/135/135 136/136/136
f 128/128/128 137/137/137 129/129/129
f 138/138/138 139/139/139 140/140/140
f 141/141/141 142/142/142 143/143/143
f 144/144/144 145/145/145 146/146/146
f 147/147/147 148/148/148 149/149/149
f 150/150/150 151/151/151 152/152/152
f 153/153/153 154/154/154 155/155/155
f 156/156/156 157/157/157 158/158/158
f 159/159/159 160/160/160 161/161/161
f 162/162/162 163/163/163 164/164/164
f 165/165/165 162/162/162 166/166/166
f 167/167/167 166/166/166 168/168/168
f 169/169/169 168/168/168 170/170/170
f 171/171/171 172/172/172 173/173/173
f 174/174/174 173/173/173 175/175/175
f 176/176/176 177/177/177 175/175/175
f 178/178/178 179/179/179 172/172/172
f 1/1/1 180/180/180 2/2/2
f 4/4/4 181/181/181 5/5/5
f 7/7/7 4/4/4 6/6/6
f 9/9/9 7/7/7 8/8/8
f 11/11/11 9/9/9 10/10/10
f 13/13/13 182/182/182 12/12/12
f 8/8/8 20/20/20 14/14/14
f 15/15/15 183/183/183 8/8/8
f 16/16/16 184/184/184 6/6/6
f 17/17/17 182/182/182 13/13/13
f 19/19/19 76/76/76 14/14/14
f 21/21/21 183/183/183 15/15/15
f 23/23/23 184/184/184 16/16/16
f 25/25/25 185/185/185 26/26/26
f 28/28/28 25/25/25 27/27/27
f 30/30/30 186/186/186 31/31/31
f 33/33/33 186/186/186 30/30/30
f 35/35/35 33/33/33 34/34/34
f 37/37/37 187/187/187 38/38/38
f 40/40/40 188/188/188 37/37/37
f 41/41/41 189/189/189 42/42/42
f 44/44/44 190/190/190 45/45/45
f 47/47/47 190/190/190 44/44/44
f 49/49/49 47/47/47 48/48/48
f 51/51/51 53/53/53 49/49/49
f 52/52/52 55/55/55 53/53/53
f 54/54/54 191/191/191 55/55/55
f 56/56/56 191/191/191 54/54/54
f 58/58/58 56/56/56 57/57/57
f 60/60/60 192/192/192 61/61/61
f 63/63/63 65/65/65 60/60/60
f 64/64/64 193/193/193 65/65/65
f 66/66/66 193/193/193 64/64/64
f 68/68/68 66/66/66 67/67/67
f 70/70/70 68/68/68 69/69/69
f 72/72/72 194/194/194 70/70/70
f 73/73/73 194/194/194 72/72/72
f 19/19/19 78/78/78 75/75/75
f 21/21/21 22/22/22 79/79/79
f 23/23/23 24/24/24 83/83/83
f 18/18/18 195/195/195 85/85/85
f 87/87/87 196/196/196 88/88/88
f 89/89/89 88/88/88 90/90/90
f 91/91/91 90/90/90 92/92/92
f 94/94/94 93/93/93 92/92/92
f 96/96/96 94/94/94 95/95/95
f 98/98/98 96/96/96 97/97/97
f 98/98/98 99/99/99 100/100/100
f 101/101/101 100/100/100 102/102/102
f 104/104/104 197/197/197 105/105/105
f 107/107/107 104/104/104 106/106/106
f 107/107/107 108/108/108 109/109/109
f 110/110/110 109/109/109 111/111/111
f 112/112/112 111/111/111 113/113/113
f 114/114/114 113/113/113 115/115/115
f 117/117/117 116/116/116 115/115/115
f 119/119/119 117/117/117 118/118/118
f 62/62/62 61/61/61 121/121/121
f 63/63/63 62/62/62 122/122/122
f 64/64/64 63/63/63 123/123/123
f 67/67/67 64/64/64 124/124/124
f 69/69/69 67/67/67 125/125/125
f 69/69/69 126/126/126 127/127/127
f 71/71/71 127/127/127 128/128/128
f 72/72/72 128/128/128 129/129/129
f 121/121/121 198/198/198 130/130/130
f 122/122/122 130/130/130 131/131/131
f 123/123/123 131/131/131 132/132/132
f 125/125/125 124/124/124 132/132/132
f 126/126/126 125/125/125 133/133/133
f 127/127/127 126/126/126 134/134/134
f 128/128/128 127/127/127 135/135/135
f 128/128/128 136/136/136 137/137/137
f 138/138/138 199/199/199 139/139/139
f 141/141/141 200/200/200 142/142/142
f 144/144/144 201/201/201 145/145/145
f 147/147/147 202/202/202 148/148/148
f 150/150/150 203/203/203 151/151/151
f 153/153/153 204/204/204 154/154/154
f 156/156/156 205/205/205 157/157/157
f 159/159/159 206/206/206 160/160/160
f 162/162/162 207/207/207 163/163/163
f 165/165/165 207/207/207 162/162/162
f 167/167/167 165/165/165 166/166/166
f 169/169/169 167/167/167 168/168/168
f 171/171/171 208/208/208 172/172/172
f 174/174/174 209/209/209 173/173/173
f 176/176/176 210/210/210 177/177/177
f 178/178/178 211/211/211 179/179/179
