v -1424.19 664.232 -639.178
v -1423.56 670.696 -645.288
v -1423.56 670.696 -638.356
v -1424.66 660.363 -639.761
v -1422.87 662.298 -645.288
v -1422.87 662.298 -637.637
v -1422.87 662.298 -645.288
v -1424.19 664.232 -639.178
v -1422.87 662.298 -637.637
v -1418.71 690.96 -632.453
v -1417.05 693.141 -645.288
v -1417.05 693.141 -630.485
v -1417.05 693.141 -645.288
v -1418.71 695.323 -632.53
v -1417.05 693.141 -630.485
v -1421.42 679.695 -635.755
v -1418.71 686.597 -645.288
v -1418.71 686.597 -632.418
v -1421.42 679.695 -645.288
v -1423.56 670.696 -638.356
v -1424.68 664.232 -638.574
v -1424.19 664.232 -639.178
v -1419.21 690.96 -631.846
v -1418.71 686.597 -632.418
v -1418.71 690.96 -632.453
v -1417.05 693.141 -630.485
v -1419.21 690.96 -631.846
v -1418.71 690.96 -632.453
v -1417.05 693.141 -630.485
v -1419.24 695.323 -631.885
v -1417.57 693.141 -629.84
v -1418.71 686.597 -632.418
v -1421.91 679.695 -635.16
v -1421.42 679.695 -635.755
v -1424.03 670.696 -637.775
v -1418.71 690.96 -632.453
v -1418.71 686.597 -645.288
v -1418.71 690.96 -645.288
v -1424.66 660.363 -645.288
v -1425.65 660.363 -639.762
v -1430.15 660.363 -645.288
v -1424.68 664.232 -638.574
v -1422.87 662.298 -637.637
v -1424.19 664.232 -639.178
v -1425.15 660.363 -639.15
v -1422.87 662.298 -637.637
v -1423.39 662.298 -636.99
v -1418.71 695.323 -632.53
v -1430.15 695.323 -645.288
v -1419.24 695.323 -631.885
v -1425.15 660.363 -639.15
v -1424.66 660.363 -639.761
v -1425.18 664.232 -637.969
v -1430.15 670.696 -637.193
v -1430.15 664.232 -637.969
v -1425.65 660.363 -638.539
v -1430.15 662.298 -636.342
v -1430.15 660.363 -638.539
v -1425.18 664.232 -637.969
v -1430.15 662.298 -636.342
v -1423.92 662.298 -636.342
v -1419.7 690.96 -631.24
v -1430.15 693.141 -629.194
v -1430.15 690.96 -631.24
v -1419.77 695.323 -631.24
v -1430.15 693.141 -629.194
v -1418.1 693.141 -629.194
v -1422.39 679.695 -634.564
v -1430.15 686.597 -631.24
v -1430.15 679.695 -634.564
v -1424.51 670.696 -637.193
v -1425.18 664.232 -637.969
v -1424.51 670.696 -637.193
v -1419.67 686.597 -631.24
v -1419.19 686.597 -631.829
v -1419.7 690.96 -631.24
v -1417.57 693.141 -629.84
v -1418.1 693.141 -629.194
v -1419.77 695.323 -631.24
v -1418.1 693.141 -629.194
v -1422.39 679.695 -634.564
v -1419.19 686.597 -631.829
v -1419.67 686.597 -631.24
v -1430.15 686.597 -631.24
v -1419.7 690.96 -631.24
v -1430.15 690.96 -631.24
v -1430.15 660.363 -638.539
v -1425.65 660.363 -638.539
v -1425.18 664.232 -637.969
v -1423.39 662.298 -636.99
v -1425.65 660.363 -638.539
v -1430.15 695.323 -631.24
v -1424.19 664.232 -645.288
v -1424.66 660.363 -645.288
v -1424.19 664.232 -645.288
v -1418.71 690.96 -645.288
v -1418.71 695.323 -645.288
v -1418.71 695.323 -632.53
v -1418.71 686.597 -632.418
v -1424.66 660.363 -639.761
v -1418.71 695.323 -645.288
v -1423.92 662.298 -636.342
v -1430.15 664.232 -637.969
v -1418.1 693.141 -629.194
v -1430.15 695.323 -631.24
v -1419.67 686.597 -631.24
v -1419.7 690.96 -631.24
v -1419.67 686.597 -631.24
v -1423.92 662.298 -636.342
v -1423.92 662.298 -636.342
v -1419.77 695.323 -631.24
vt 0.5504 0.8881
vt 0.5337 0.9084
vt 0.5526 0.9084
vt 0.9865 0.7672
vt 0.9632 0.7791
vt 0.9959 0.7791
vt 0.5337 0.882
vt 0.5504 0.8881
vt 0.5546 0.882
vt 0.5687 0.9721
vt 0.5337 0.979
vt 0.5741 0.979
vt 0.5337 0.979
vt 0.5685 0.9859
vt 0.5741 0.979
vt 0.5597 0.9367
vt 0.5337 0.9584
vt 0.5688 0.9584
vt 0.5337 0.9367
vt 0.6028 0.9094
vt 0.6071 0.8899
vt 0.605 0.8907
vt 0.5888 0.9735
vt 0.5865 0.9593
vt 0.5867 0.9726
vt 0.5815 0.9806
vt 0.5888 0.9735
vt 0.5867 0.9726
vt 0.5815 0.9806
vt 0.589 0.988
vt 0.5834 0.9806
vt 0.5865 0.9593
vt 0.5978 0.9381
vt 0.5957 0.9372
vt 0.605 0.9099
vt 0.5687 0.9721
vt 0.5337 0.9584
vt 0.5337 0.9721
vt 0.4476 0.6742
vt 0.4439 0.6911
vt 0.427 0.6742
vt 0.6071 0.8899
vt 0.6007 0.8862
vt 0.605 0.8907
vt 0.0107 0.7672
vt 0.0078 0.7789
vt 0.0104 0.779
vt 0.0091 0.876
vt 0.0406 0.8976
vt 0.0105 0.8749
vt 0.4457 0.6929
vt 0.4476 0.6911
vt 0.5504 0.8881
vt 0.5337 0.9084
vt 0.5337 0.8881
vt 0.9865 0.7672
vt 0.9632 0.7791
vt 0.9619 0.7672
vt 0.5504 0.8881
vt 0.5337 0.882
vt 0.5546 0.882
vt 0.5687 0.9721
vt 0.5337 0.979
vt 0.5337 0.9721
vt 0.5685 0.9859
vt 0.5337 0.979
vt 0.5741 0.979
vt 0.5597 0.9367
vt 0.5337 0.9584
vt 0.5337 0.9367
vt 0.5526 0.9084
vt 0.605 0.8907
vt 0.6028 0.9094
vt 0.5865 0.9593
vt 0.5887 0.9599
vt 0.5867 0.9726
vt 0.5834 0.9806
vt 0.5815 0.9806
vt 0.5871 0.99
vt 0.5815 0.9806
vt 0.5957 0.9372
vt 0.5887 0.9599
vt 0.5865 0.9593
vt 0.5337 0.9584
vt 0.5687 0.9721
vt 0.5337 0.9721
vt 0.4476 0.6742
vt 0.4476 0.6911
vt 0.605 0.8907
vt 0.6028 0.8842
vt 0.0079 0.7672
vt 0.0091 0.8976
vt 0.5337 0.8881
vt 0.9619 0.7672
vt 0.5337 0.8881
vt 0.5337 0.9721
vt 0.5337 0.9859
vt 0.5871 0.99
vt 0.5688 0.9584
vt 0.0079 0.7672
vt 0.0091 0.8976
vt 0.9959 0.7791
vt 0.5337 0.8881
vt 0.5741 0.979
vt 0.5337 0.9859
vt 0.5688 0.9584
vt 0.5867 0.9726
vt 0.5688 0.9584
vt 0.6007 0.8862
vt 0.0078 0.7789
vt 0.0091 0.876
vn 0.9952 -0.0974 0
vn 0.9863 -0.1647 0
vn 0.9849 -0.1729 0
vn 0.7344 -0.6787 0
vn 0.7344 -0.6787 0
vn 0.7344 -0.6787 0
vn 0.8251 0.5649 0
vn 0.8252 0.5649 0
vn 0.8252 0.5649 0
vn 0.7949 -0.6068 0
vn 0.7949 -0.6068 0
vn 0.7949 -0.6068 0
vn 0.7949 0.6068 0
vn 0.7948 0.6068 0
vn 0.7948 0.6068 0
vn 0.9497 -0.3131 0
vn 0.931 -0.365 0
vn 0.931 -0.365 0
vn 0.9543 -0.2989 0
vn 0.7513 -0.2473 0.6119
vn 0.7664 -0.1542 0.6236
vn 0.7664 -0.1542 0.6236
vn 0.7756 0.0051 0.6312
vn 0.7754 0.0051 0.6315
vn 0.7754 0.0051 0.6314
vn 0.5059 -0.7578 0.412
vn 0.506 -0.7578 0.4119
vn 0.5058 -0.7579 0.412
vn 0.5004 0.7639 0.4076
vn 0.5004 0.7639 0.4074
vn 0.5004 0.7639 0.4075
vn 0.6622 -0.5204 0.5392
vn 0.6984 -0.4345 0.5687
vn 0.7 -0.4295 0.5706
vn 0.7508 -0.2505 0.6112
vn 1 0 0
vn 1 0 0
vn 1 0 0
vn 0 -1 0
vn 0 -1 0
vn 0 -1 0
vn 0.5393 0.7187 0.4388
vn 0.5395 0.7187 0.4386
vn 0.5394 0.7187 0.4388
vn 0.4486 -0.8157 0.3652
vn 0.4489 -0.8156 0.365
vn 0.4488 -0.8156 0.3651
vn 0 1 0
vn 0 1 0
vn 0 1 0
vn 0 -1 0
vn 0 -1 0
vn -0 -0.1192 0.9929
vn -0 -0.2005 0.9797
vn -0 -0.1192 0.9929
vn 0 -0.7505 0.6609
vn 0 -0.7505 0.6609
vn 0 -0.7505 0.6609
vn 0 0.6437 0.7653
vn 0 0.6437 0.7653
vn 0 0.6437 0.7653
vn 0 -0.6841 0.7294
vn 0 -0.6841 0.7294
vn 0 -0.6841 0.7294
vn 0 0.6841 0.7294
vn 0 0.6841 0.7294
vn 0 0.6841 0.7294
vn 0 -0.3717 0.9284
vn 0 -0.434 0.9009
vn -0 -0.3584 0.9336
vn -0 -0.2085 0.978
vn 0.7665 -0.1542 0.6235
vn 0.7504 -0.2535 0.6104
vn 0.7757 0.0051 0.631
vn 0.7756 0.0051 0.6312
vn 0.5061 -0.7578 0.4119
vn 0.506 -0.7578 0.412
vn 0.5061 -0.7578 0.4119
vn 0.5003 0.7639 0.4076
vn 0.5004 0.764 0.4073
vn 0.6968 -0.4395 0.5669
vn 0.6623 -0.5204 0.539
vn 0.6625 -0.5204 0.5388
vn 0 0 1
vn 0 0 1
vn 0 0 1
vn 0 -1 0
vn 0 -1 0
vn 0.5394 0.7188 0.4385
vn 0.5393 0.7187 0.4389
vn 0.4487 -0.8157 0.3651
vn 0 1 0
vn 0.9953 -0.0973 0
vn 0.7344 -0.6787 0
vn 0.8251 0.5649 0
vn 0.7949 -0.6068 0
vn 0.7949 0.6068 0
vn 0.5006 0.764 0.4072
vn 1 0 0
vn 0.4484 -0.8157 0.3654
vn 0 1 0
vn 0 -0.7505 0.6609
vn 0 0.6437 0.7653
vn 0 -0.6841 0.7294
vn 0 0.6841 0.7294
vn 0 -0.434 0.9009
vn 0.7757 0.0052 0.6311
vn 0 0 1
vn 0.5392 0.7187 0.4391
vn 0.4487 -0.8157 0.3653
vn 0 1 0
f 1/1/1 2/2/2 3/3/3
f 4/4/4 5/5/5 6/6/6
f 7/7/7 8/8/8 9/9/9
f 10/10/10 11/11/11 12/12/12
f 13/13/13 14/14/14 15/15/15
f 16/16/16 17/17/17 18/18/18
f 3/3/3 19/19/19 16/16/16
f 20/20/20 21/21/21 22/22/22
f 23/23/23 24/24/24 25/25/25
f 26/26/26 27/27/27 28/28/28
f 29/29/29 30/30/30 31/31/31
f 32/32/32 33/33/33 34/34/34
f 34/34/34 35/35/35 20/20/20
f 36/36/36 37/37/37 38/38/38
f 39/39/39 40/40/40 41/41/41
f 42/42/42 43/43/43 44/44/44
f 45/45/45 46/46/46 47/47/47
f 48/48/48 49/49/49 50/50/50
f 51/51/51 40/40/40 52/52/52
f 53/53/53 54/54/54 55/55/55
f 56/56/56 57/57/57 58/58/58
f 59/59/59 60/60/60 61/61/61
f 62/62/62 63/63/63 64/64/64
f 65/65/65 66/66/66 67/67/67
f 68/68/68 69/69/69 70/70/70
f 71/71/71 70/70/70 54/54/54
f 72/72/72 35/35/35 73/73/73
f 23/23/23 74/74/74 75/75/75
f 76/76/76 77/77/77 78/78/78
f 31/31/31 79/79/79 80/80/80
f 81/81/81 82/82/82 83/83/83
f 73/73/73 33/33/33 81/81/81
f 84/84/84 85/85/85 86/86/86
f 87/87/87 40/40/40 88/88/88
f 89/89/89 90/90/90 42/42/42
f 47/47/47 91/91/91 45/45/45
f 92/92/92 50/50/50 49/49/49
f 51/51/51 88/88/88 40/40/40
f 1/1/1 93/93/93 2/2/2
f 4/4/4 94/94/94 5/5/5
f 7/7/7 95/95/95 8/8/8
f 10/10/10 96/96/96 11/11/11
f 13/13/13 97/97/97 14/14/14
f 16/16/16 19/19/19 17/17/17
f 3/3/3 2/2/2 19/19/19
f 20/20/20 35/35/35 21/21/21
f 23/23/23 75/75/75 24/24/24
f 26/26/26 77/77/77 27/27/27
f 29/29/29 98/98/98 30/30/30
f 32/32/32 82/82/82 33/33/33
f 34/34/34 33/33/33 35/35/35
f 36/36/36 99/99/99 37/37/37
f 39/39/39 52/52/52 40/40/40
f 42/42/42 90/90/90 43/43/43
f 45/45/45 100/100/100 46/46/46
f 48/48/48 101/101/101 49/49/49
f 53/53/53 71/71/71 54/54/54
f 56/56/56 102/102/102 57/57/57
f 59/59/59 103/103/103 60/60/60
f 62/62/62 104/104/104 63/63/63
f 65/65/65 105/105/105 66/66/66
f 68/68/68 106/106/106 69/69/69
f 71/71/71 68/68/68 70/70/70
f 72/72/72 21/21/21 35/35/35
f 23/23/23 107/107/107 74/74/74
f 76/76/76 27/27/27 77/77/77
f 31/31/31 30/30/30 79/79/79
f 81/81/81 33/33/33 82/82/82
f 73/73/73 35/35/35 33/33/33
f 84/84/84 108/108/108 85/85/85
f 87/87/87 41/41/41 40/40/40
f 89/89/89 109/109/109 90/90/90
f 47/47/47 110/110/110 91/91/91
f 92/92/92 111/111/111 50/50/50
