v 516.225 186.521 569.378
v 516.857 192.985 575.488
v 516.225 186.521 575.488
v 516.298 192.985 567.87
v 470.404 186.521 568.646
v 469.735 192.985 567.87
v 464.9 208.886 561.918
v 521.104 213.249 561.918
v 521.133 208.886 561.918
v 464.33 208.886 575.488
v 464.33 213.249 562.653
v 464.33 208.886 562.618
v 515.761 182.652 569.961
v 517.549 184.587 575.488
v 515.761 182.652 575.488
v 516.883 184.587 567.02
v 470.879 182.652 569.216
v 469.15 184.587 567.02
v 516.225 186.521 569.378
v 517.549 184.587 575.488
v 517.549 184.587 567.838
v 515.629 186.521 568.646
v 469.15 184.587 567.02
v 470.404 186.521 568.646
v 521.703 213.249 562.653
v 523.368 215.43 575.488
v 521.703 213.249 575.488
v 463.327 215.43 559.872
v 521.104 213.249 561.918
v 464.929 213.249 561.918
v 521.703 217.612 562.731
v 523.368 215.43 575.488
v 523.368 215.43 560.685
v 464.992 217.612 561.918
v 522.706 215.43 559.872
v 463.327 215.43 559.872
v 518.997 201.984 565.956
v 521.703 208.886 575.488
v 518.997 201.984 575.488
v 521.133 208.886 561.918
v 467.617 201.984 565.242
v 464.9 208.886 561.918
v 516.857 192.985 568.556
v 515.629 186.521 568.646
v 516.857 192.985 568.556
v 516.225 186.521 569.378
v 470.404 186.521 568.646
v 469.176 192.985 568.556
v 469.735 192.985 567.87
v 521.104 213.249 561.918
v 521.703 208.886 562.618
v 521.133 208.886 561.918
v 464.33 208.886 562.618
v 464.929 213.249 561.918
v 464.9 208.886 561.918
v 515.629 186.521 568.646
v 517.549 184.587 567.838
v 516.883 184.587 567.02
v 470.404 186.521 568.646
v 468.484 184.587 567.838
v 469.808 186.521 569.378
v 517.549 184.587 567.838
v 515.154 182.652 569.216
v 516.883 184.587 567.02
v 468.484 184.587 567.838
v 470.879 182.652 569.216
v 470.271 182.652 569.961
v 521.104 213.249 561.918
v 523.368 215.43 560.685
v 521.703 213.249 562.653
v 464.929 213.249 561.918
v 462.665 215.43 560.685
v 463.327 215.43 559.872
v 523.368 215.43 560.685
v 521.041 217.612 561.918
v 521.703 217.612 562.731
v 462.665 215.43 560.685
v 464.992 217.612 561.918
v 463.327 215.43 559.872
v 518.416 201.984 565.242
v 521.703 208.886 562.618
v 518.997 201.984 565.956
v 467.617 201.984 565.242
v 464.33 208.886 562.618
v 464.9 208.886 561.918
v 516.298 192.985 567.87
v 467.036 201.984 565.956
v 521.703 217.612 575.488
v 521.041 217.612 561.918
v 464.33 217.612 562.731
v 464.992 217.612 561.918
v 464.33 217.612 575.488
v 469.176 192.985 575.488
v 469.808 186.521 569.378
v 469.808 186.521 575.488
v 521.703 208.886 575.488
v 521.703 213.249 562.653
v 521.703 213.249 575.488
v 468.484 184.587 575.488
v 470.271 182.652 569.961
v 470.271 182.652 575.488
v 468.484 184.587 575.488
v 469.808 186.521 569.378
v 468.484 184.587 567.838
v 462.665 215.43 575.488
v 464.33 213.249 562.653
v 464.33 213.249 575.488
v 462.665 215.43 575.488
v 464.33 217.612 562.731
v 462.665 215.43 560.685
v 464.33 208.886 575.488
v 467.036 201.984 565.956
v 467.036 201.984 575.488
v 469.176 192.985 568.556
v 470.271 182.652 569.961
v 515.761 182.652 575.488
v 470.271 182.652 575.488
v 515.761 182.652 569.961
v 470.879 182.652 569.216
v 515.154 182.652 569.216
v 515.629 186.521 568.646
v 464.929 213.249 561.918
v 464.33 213.249 575.488
v 517.549 184.587 567.838
v 515.154 182.652 569.216
v 516.225 186.521 575.488
v 516.883 184.587 567.02
v 523.368 215.43 560.685
v 522.706 215.43 559.872
v 521.703 217.612 575.488
v 521.041 217.612 561.918
v 521.703 208.886 562.618
v 518.416 201.984 565.242
v 469.808 186.521 569.378
v 521.703 213.249 562.653
v 464.33 213.249 562.653
v 516.225 186.521 569.378
v 469.15 184.587 567.02
v 515.761 182.652 569.961
v 469.15 184.587 567.02
v 522.706 215.43 559.872
v 464.33 213.249 562.653
v 522.706 215.43 559.872
v 464.33 217.612 562.731
v 521.133 208.886 561.918
v 521.703 217.612 562.731
v 521.703 208.886 562.618
v 468.484 184.587 567.838
v 469.808 186.521 575.488
v 462.665 215.43 560.685
v 464.33 217.612 575.488
v 464.33 208.886 562.618
vt 0.5504 0.8881
vt 0.5337 0.9084
vt 0.5337 0.8881
vt 0.6053 0.91
vt 0.7592 0.8897
vt 0.7614 0.91
vt 0.7776 0.96
vt 0.5892 0.9737
vt 0.5891 0.96
vt 0.8287 0.9596
vt 0.7937 0.9733
vt 0.7936 0.9596
vt 0.9865 0.7672
vt 0.9632 0.7791
vt 0.9619 0.7672
vt 0.0111 0.779
vt 0.2525 0.7672
vt 0.2524 0.779
vt 0.5504 0.8881
vt 0.5337 0.882
vt 0.5546 0.882
vt 0.6076 0.8897
vt 0.7634 0.8836
vt 0.7592 0.8897
vt 0.5687 0.9721
vt 0.5337 0.979
vt 0.5337 0.9721
vt 0.7829 0.9806
vt 0.5892 0.9737
vt 0.7775 0.9737
vt 0.5685 0.9859
vt 0.5337 0.979
vt 0.5741 0.979
vt 0.7773 0.9875
vt 0.5839 0.9806
vt 0.7829 0.9806
vt 0.5597 0.9367
vt 0.5337 0.9584
vt 0.5337 0.9367
vt 0.5891 0.96
vt 0.7685 0.9383
vt 0.7776 0.96
vt 0.5526 0.9084
vt 0.6076 0.8897
vt 0.6028 0.9094
vt 0.605 0.8907
vt 0.8095 0.8902
vt 0.8098 0.9096
vt 0.8073 0.909
vt 0.5892 0.9737
vt 0.5865 0.9593
vt 0.5891 0.96
vt 0.7936 0.9596
vt 0.7912 0.9721
vt 0.791 0.9589
vt 0.6076 0.8897
vt 0.6007 0.8862
vt 0.6034 0.8836
vt 0.8095 0.8902
vt 0.8079 0.8832
vt 0.8121 0.8892
vt 0.0078 0.7789
vt 0.0112 0.7672
vt 0.0111 0.779
vt 0.2559 0.779
vt 0.2525 0.7672
vt 0.2558 0.7672
vt 0.5892 0.9737
vt 0.5815 0.9806
vt 0.5867 0.9726
vt 0.7912 0.9721
vt 0.7884 0.9801
vt 0.786 0.9801
vt 0.5815 0.9806
vt 0.5894 0.9875
vt 0.5871 0.99
vt 0.7884 0.9801
vt 0.7916 0.9896
vt 0.786 0.9801
vt 0.5982 0.9383
vt 0.5865 0.9593
vt 0.5957 0.9372
vt 0.8002 0.9367
vt 0.7936 0.9596
vt 0.791 0.9589
vt 0.6053 0.91
vt 0.8027 0.9379
vt 0.0091 0.8976
vt 0.0109 0.8746
vt 0.1674 0.876
vt 0.1655 0.8746
vt 0.1674 0.8976
vt 0.8287 0.9096
vt 0.8121 0.8892
vt 0.8287 0.8892
vt 0.5337 0.9584
vt 0.5687 0.9721
vt 0.5337 0.9721
vt 0.2874 0.779
vt 0.2558 0.7672
vt 0.2803 0.7672
vt 0.8287 0.8832
vt 0.8121 0.8892
vt 0.8079 0.8832
vt 0.8287 0.9801
vt 0.7937 0.9733
vt 0.8287 0.9733
vt 0.8287 0.9801
vt 0.7939 0.987
vt 0.7884 0.9801
vt 0.8287 0.9596
vt 0.8027 0.9379
vt 0.8287 0.9379
vt 0.8098 0.9096
vt 0.2773 0.6911
vt 0.4476 0.6742
vt 0.2773 0.6742
vt 0.4476 0.6911
vt 0.2795 0.6933
vt 0.4453 0.6933
vt 0.6076 0.8897
vt 0.7775 0.9737
vt 0.8287 0.9733
vt 0.9959 0.7791
vt 0.0112 0.7672
vt 0.5337 0.8881
vt 0.6034 0.8836
vt 0.5741 0.979
vt 0.5839 0.9806
vt 0.5337 0.9859
vt 0.5894 0.9875
vt 0.5688 0.9584
vt 0.5982 0.9383
vt 0.8121 0.8892
vt 0.5867 0.9726
vt 0.7937 0.9733
vt 0.605 0.8907
vt 0.8052 0.8857
vt 0.0079 0.7672
vt 0.2524 0.779
vt 0.5839 0.9806
vt 0.7937 0.9733
vt 0.5839 0.9806
vt 0.7939 0.987
vt 0.5891 0.96
vt 0.0091 0.876
vt 0.5688 0.9584
vt 0.2559 0.779
vt 0.8287 0.8892
vt 0.7884 0.9801
vt 0.8287 0.987
vt 0.7936 0.9596
vn 0.9953 -0.0973 0
vn 0.9863 -0.1647 0
vn 0.9953 -0.0973 0
vn 0 -0.2085 -0.978
vn 0 -0.1192 -0.9929
vn 0 -0.2085 -0.978
vn 0 0 -1
vn 0 0 -1
vn 0 0 -1
vn -1 -0 0
vn -1 -0 0
vn -1 -0 0
vn 0.7344 -0.6787 0
vn 0.7344 -0.6787 0
vn 0.7344 -0.6788 0
vn 0 -0.7504 -0.661
vn 0 -0.7504 -0.661
vn 0 -0.7504 -0.661
vn 0.8252 0.5649 0
vn 0.8252 0.5649 0
vn 0.8252 0.5649 0
vn 0 0.6436 -0.7654
vn 0 0.6436 -0.7654
vn 0 0.6436 -0.7654
vn 0.7949 -0.6068 0
vn 0.7949 -0.6068 0
vn 0.7949 -0.6068 0
vn 0 -0.684 -0.7295
vn 0 -0.684 -0.7295
vn 0 -0.684 -0.7295
vn 0.7949 0.6068 0
vn 0.7949 0.6068 0
vn 0.7949 0.6068 0
vn 0 0.684 -0.7295
vn 0 0.684 -0.7295
vn 0 0.684 -0.7295
vn 0.9497 -0.3131 0
vn 0.931 -0.365 0
vn 0.9543 -0.2989 0
vn 0 -0.4339 -0.9009
vn 0 -0.3716 -0.9284
vn 0 -0.4339 -0.9009
vn 0.9849 -0.1729 0
vn 0.7662 -0.1542 -0.6238
vn 0.7514 -0.2473 -0.6117
vn 0.7662 -0.1542 -0.6238
vn -0.7662 -0.1542 -0.6238
vn -0.7514 -0.2473 -0.6118
vn -0.7501 -0.2535 -0.6108
vn 0.7755 0.0051 -0.6313
vn 0.7756 0.0052 -0.6312
vn 0.7757 0.0052 -0.6311
vn -0.7756 0.0051 -0.6312
vn -0.7756 0.0051 -0.6312
vn -0.7756 0.0051 -0.6312
vn 0.5391 0.7188 -0.439
vn 0.5392 0.7187 -0.439
vn 0.5392 0.7187 -0.439
vn -0.5391 0.7188 -0.439
vn -0.5392 0.7187 -0.439
vn -0.5391 0.7188 -0.439
vn 0.4487 -0.8157 -0.3652
vn 0.4486 -0.8157 -0.3653
vn 0.4487 -0.8157 -0.3652
vn -0.4486 -0.8157 -0.3653
vn -0.4486 -0.8157 -0.3653
vn -0.4486 -0.8157 -0.3653
vn 0.506 -0.7578 -0.4119
vn 0.5059 -0.7578 -0.412
vn 0.506 -0.7578 -0.4119
vn -0.5061 -0.7578 -0.4119
vn -0.506 -0.7578 -0.412
vn -0.506 -0.7578 -0.412
vn 0.5003 0.764 -0.4074
vn 0.5004 0.764 -0.4073
vn 0.5004 0.764 -0.4073
vn -0.5004 0.764 -0.4074
vn -0.5004 0.764 -0.4074
vn -0.5004 0.764 -0.4074
vn 0.6967 -0.4394 -0.567
vn 0.6623 -0.5204 -0.539
vn 0.7005 -0.4294 -0.57
vn -0.6966 -0.4395 -0.5671
vn -0.6623 -0.5204 -0.539
vn -0.6623 -0.5204 -0.539
vn 0.7502 -0.2535 -0.6107
vn -0.7003 -0.4294 -0.5702
vn 0 1 -0
vn 0 1 -0
vn 0 1 -0
vn 0 1 -0
vn 0 1 -0
vn -0.9863 -0.1647 0
vn -0.9953 -0.0973 0
vn -0.9953 -0.0973 0
vn 1 0 0
vn 1 0 0
vn 1 0 0
vn -0.7344 -0.6787 0
vn -0.7344 -0.6787 0
vn -0.7344 -0.6787 0
vn -0.8252 0.5649 0
vn -0.8252 0.5649 0
vn -0.8252 0.5649 0
vn -0.7949 -0.6068 0
vn -0.7949 -0.6068 0
vn -0.7949 -0.6068 0
vn -0.7949 0.6068 0
vn -0.7949 0.6068 0
vn -0.7949 0.6068 0
vn -0.931 -0.3651 0
vn -0.9497 -0.3131 0
vn -0.9543 -0.2989 0
vn -0.9849 -0.1729 0
vn 0 -1 0
vn 0 -1 0
vn 0 -1 0
vn 0 -1 0
vn 0 -1 0
vn 0 -1 0
vn 0 -0.1192 -0.9929
vn 0 0 -1
vn -1 -0 0
vn 0.7344 -0.6787 0
vn 0 -0.7504 -0.661
vn 0.8252 0.5649 0
vn 0 0.6436 -0.7654
vn 0.7949 -0.6068 0
vn 0 -0.684 -0.7295
vn 0.7948 0.6068 0
vn 0 0.684 -0.7295
vn 0.931 -0.3651 0
vn 0 -0.3716 -0.9284
vn -0.7662 -0.1542 -0.6238
vn 0.7755 0.0051 -0.6313
vn -0.7756 0.0051 -0.6312
vn 0.5391 0.7188 -0.439
vn -0.5392 0.7187 -0.439
vn 0.4486 -0.8157 -0.3653
vn -0.4487 -0.8157 -0.3652
vn 0.5059 -0.7578 -0.412
vn -0.5061 -0.7578 -0.4119
vn 0.5003 0.764 -0.4074
vn -0.5004 0.764 -0.4073
vn 0.6623 -0.5204 -0.539
vn 0 1 -0
vn 1 0 0
vn -0.7344 -0.6787 0
vn -0.8252 0.5649 0
vn -0.7949 -0.6068 0
vn -0.7949 0.6068 0
vn -0.931 -0.3651 0
f 1/1/1 2/2/2 3/3/3
f 4/4/4 5/5/5 6/6/6
f 7/7/7 8/8/8 9/9/9
f 10/10/10 11/11/11 12/12/12
f 13/13/13 14/14/14 15/15/15
f 16/16/16 17/17/17 18/18/18
f 19/19/19 20/20/20 21/21/21
f 22/22/22 23/23/23 24/24/24
f 25/25/25 26/26/26 27/27/27
f 28/28/28 29/29/29 30/30/30
f 31/31/31 32/32/32 33/33/33
f 34/34/34 35/35/35 36/36/36
f 37/37/37 38/38/38 39/39/39
f 40/40/40 41/41/41 42/42/42
f 43/43/43 39/39/39 2/2/2
f 41/41/41 4/4/4 6/6/6
f 44/44/44 45/45/45 46/46/46
f 47/47/47 48/48/48 49/49/49
f 50/50/50 51/51/51 52/52/52
f 53/53/53 54/54/54 55/55/55
f 56/56/56 57/57/57 58/58/58
f 59/59/59 60/60/60 61/61/61
f 62/62/62 63/63/63 64/64/64
f 65/65/65 66/66/66 67/67/67
f 68/68/68 69/69/69 70/70/70
f 71/71/71 72/72/72 73/73/73
f 74/74/74 75/75/75 76/76/76
f 77/77/77 78/78/78 79/79/79
f 80/80/80 81/81/81 82/82/82
f 83/83/83 84/84/84 85/85/85
f 86/86/86 82/82/82 45/45/45
f 49/49/49 87/87/87 83/83/83
f 88/88/88 89/89/89 90/90/90
f 89/89/89 91/91/91 90/90/90
f 92/92/92 88/88/88 90/90/90
f 93/93/93 94/94/94 95/95/95
f 96/96/96 97/97/97 98/98/98
f 99/99/99 100/100/100 101/101/101
f 102/102/102 103/103/103 104/104/104
f 105/105/105 106/106/106 107/107/107
f 108/108/108 109/109/109 110/110/110
f 111/111/111 112/112/112 113/113/113
f 113/113/113 114/114/114 93/93/93
f 115/115/115 116/116/116 117/117/117
f 118/118/118 119/119/119 120/120/120
f 1/1/1 43/43/43 2/2/2
f 4/4/4 121/121/121 5/5/5
f 7/7/7 122/122/122 8/8/8
f 10/10/10 123/123/123 11/11/11
f 13/13/13 124/124/124 14/14/14
f 16/16/16 125/125/125 17/17/17
f 19/19/19 126/126/126 20/20/20
f 22/22/22 127/127/127 23/23/23
f 25/25/25 128/128/128 26/26/26
f 28/28/28 129/129/129 29/29/29
f 31/31/31 130/130/130 32/32/32
f 34/34/34 131/131/131 35/35/35
f 37/37/37 132/132/132 38/38/38
f 40/40/40 133/133/133 41/41/41
f 43/43/43 37/37/37 39/39/39
f 41/41/41 133/133/133 4/4/4
f 44/44/44 86/86/86 45/45/45
f 47/47/47 134/134/134 48/48/48
f 50/50/50 135/135/135 51/51/51
f 53/53/53 136/136/136 54/54/54
f 56/56/56 137/137/137 57/57/57
f 59/59/59 138/138/138 60/60/60
f 62/62/62 139/139/139 63/63/63
f 65/65/65 140/140/140 66/66/66
f 68/68/68 141/141/141 69/69/69
f 71/71/71 142/142/142 72/72/72
f 74/74/74 143/143/143 75/75/75
f 77/77/77 144/144/144 78/78/78
f 80/80/80 145/145/145 81/81/81
f 83/83/83 87/87/87 84/84/84
f 86/86/86 80/80/80 82/82/82
f 49/49/49 48/48/48 87/87/87
f 88/88/88 146/146/146 89/89/89
f 93/93/93 114/114/114 94/94/94
f 96/96/96 147/147/147 97/97/97
f 99/99/99 148/148/148 100/100/100
f 102/102/102 149/149/149 103/103/103
f 105/105/105 150/150/150 106/106/106
f 108/108/108 151/151/151 109/109/109
f 111/111/111 152/152/152 112/112/112
f 113/113/113 112/112/112 114/114/114
f 115/115/115 118/118/118 116/116/116
f 118/118/118 115/115/115 119/119/119
