v 325.875 516.433 -299.926
v 325.62 517.402 -260.352
v 325.875 516.433 -260.097
v 325.481 516.433 -259.702
v 325.225 517.402 -259.958
v 331.051 510.635 -254.92
v 328.979 511.885 -256.203
v 330.657 510.635 -254.525
v 325.787 515.708 -259.396
v 326.722 514.84 -259.25
v 326.182 515.708 -259.79
v 328.374 512.804 -257.598
v 327.193 513.68 -257.99
v 327.979 512.804 -257.203
v 329.374 511.885 -256.597
v 326.327 514.84 -258.855
v 327.588 513.68 -258.384
v 327.587 513.68 -301.639
v 325.875 516.433 -299.926
v 325.225 517.402 -300.065
v 325.62 517.402 -299.671
v 331.051 510.635 -305.103
v 328.979 511.885 -303.82
v 329.374 511.885 -303.426
v 326.327 514.84 -301.168
v 326.182 515.708 -300.233
v 326.722 514.84 -300.773
v 328.374 512.804 -302.426
v 327.193 513.68 -302.034
v 327.587 513.68 -301.639
v 327.979 512.804 -302.82
v 325.481 516.433 -300.321
v 325.787 515.708 -300.627
v 330.657 510.635 -305.498
v 282.161 511.885 -303.82
v 285.353 515.708 -300.627
v 283.161 512.804 -302.82
v 283.947 513.68 -302.034
v 284.813 514.84 -301.168
v 285.66 516.433 -300.321
v 285.265 516.433 -299.926
v 285.915 517.402 -300.065
v 280.089 510.635 -305.103
v 280.484 510.635 -305.498
v 284.418 514.84 -300.773
v 284.958 515.708 -300.233
v 282.766 512.804 -302.426
v 281.766 511.885 -303.426
v 283.553 513.68 -301.639
v 329.374 511.885 -303.426
v 326.722 514.84 -300.773
v 331.051 509.806 -254.92
v 330.657 510.635 -254.525
v 330.657 509.806 -254.525
v 331.051 510.635 -305.103
v 331.051 510.635 -254.92
v 280.484 509.806 -305.498
v 330.657 510.635 -305.498
v 330.657 509.806 -305.498
v 330.657 509.806 -305.498
v 331.051 510.635 -305.103
v 331.051 509.806 -305.103
v 280.089 509.806 -305.103
v 280.484 510.635 -305.498
v 333.04 509.806 -252.961
v 330.657 509.806 -254.525
v 332.615 509.806 -252.536
v 333.04 509.806 -307.062
v 331.051 509.806 -254.92
v 332.615 509.806 -307.487
v 280.484 509.806 -305.498
v 330.657 509.806 -305.498
v 333.04 509.806 -307.062
v 331.051 509.806 -305.103
v 278.1 509.806 -307.062
v 278.525 509.806 -307.487
v 332.615 506.633 -252.536
v 333.04 509.806 -252.961
v 332.615 509.806 -252.536
v 333.04 506.633 -252.961
v 333.04 509.806 -307.062
v 332.615 506.633 -307.487
v 278.525 509.806 -307.487
v 332.615 509.806 -307.487
v 333.04 506.633 -307.062
v 332.615 509.806 -307.487
v 333.04 509.806 -307.062
v 278.525 506.633 -307.487
v 278.1 509.806 -307.062
v 285.265 516.433 -260.097
v 285.521 517.402 -299.671
v 285.265 516.433 -299.926
v 282.766 512.804 -257.598
v 283.553 513.68 -301.639
v 282.766 512.804 -302.426
v 284.958 515.708 -259.79
v 284.958 515.708 -300.233
v 285.265 516.433 -260.097
v 285.915 517.402 -259.958
v 285.521 517.402 -260.352
v 280.089 510.635 -254.92
v 282.161 511.885 -256.203
v 281.766 511.885 -256.597
v 285.353 515.708 -259.396
v 284.418 514.84 -259.25
v 284.813 514.84 -258.855
v 282.766 512.804 -257.598
v 283.947 513.68 -257.99
v 283.553 513.68 -258.384
v 283.161 512.804 -257.203
v 284.958 515.708 -259.79
v 280.484 510.635 -254.525
v 328.979 511.885 -256.203
v 325.787 515.708 -259.396
v 327.979 512.804 -257.203
v 327.193 513.68 -257.99
v 326.327 514.84 -258.855
v 285.66 516.433 -259.702
v 325.481 516.433 -259.702
v 325.225 517.402 -259.958
v 280.089 510.635 -254.92
v 281.766 511.885 -303.426
v 280.089 510.635 -305.103
v 284.418 514.84 -259.25
v 284.418 514.84 -300.773
v 280.089 509.806 -305.103
v 280.089 510.635 -254.92
v 280.089 510.635 -305.103
v 330.657 509.806 -254.525
v 280.484 510.635 -254.525
v 280.484 509.806 -254.525
v 280.484 509.806 -254.525
v 280.089 510.635 -254.92
v 280.089 509.806 -254.92
v 278.1 509.806 -252.961
v 280.089 509.806 -305.103
v 278.1 509.806 -307.062
v 278.526 509.806 -252.536
v 330.657 509.806 -254.525
v 280.484 509.806 -254.525
v 278.1 509.806 -252.961
v 280.089 509.806 -254.92
v 278.1 506.633 -307.062
v 278.1 509.806 -252.961
v 278.1 509.806 -307.062
v 278.526 506.633 -252.536
v 332.615 509.806 -252.536
v 278.526 509.806 -252.536
v 278.1 506.633 -252.961
v 278.1 509.806 -252.961
v 285.521 517.402 -260.352
v 285.915 517.402 -300.065
v 285.521 517.402 -299.671
v 325.225 517.402 -259.958
v 285.915 517.402 -259.958
v 325.62 517.402 -299.671
v 325.62 517.402 -260.352
v 328.374 512.804 -302.426
v 326.182 515.708 -300.233
v 285.521 517.402 -299.671
v 331.051 510.635 -305.103
v 331.051 509.806 -305.103
v 330.657 510.635 -305.498
v 280.089 510.635 -305.103
v 331.051 509.806 -305.103
v 280.089 509.806 -305.103
v 333.04 506.633 -307.062
v 332.615 506.633 -307.487
v 278.1 506.633 -307.062
v 283.553 513.68 -258.384
v 330.657 510.635 -254.525
v 281.766 511.885 -256.597
v 280.089 509.806 -254.92
v 330.657 510.635 -254.525
v 280.484 510.635 -254.525
v 280.089 509.806 -254.92
v 332.615 509.806 -252.536
v 278.1 506.633 -252.961
v 332.615 506.633 -252.536
v 325.225 517.402 -300.065
vt 0.2788 0.7224
vt 0.2733 0.9476
vt 0.2788 0.949
vt 0.2778 0.9519
vt 0.2712 0.9499
vt 0.3147 0.9785
vt 0.3029 0.9712
vt 0.3144 0.9807
vt 0.2816 0.9534
vt 0.2879 0.9539
vt 0.2829 0.9508
vt 0.2995 0.9633
vt 0.2922 0.9615
vt 0.2972 0.9656
vt 0.3052 0.9689
vt 0.286 0.9566
vt 0.2945 0.9588
vt 0.2945 0.7126
vt 0.2755 0.7168
vt 0.2711 0.7216
vt 0.2734 0.7237
vt 0.3045 0.6818
vt 0.2924 0.6897
vt 0.2947 0.692
vt 0.2773 0.707
vt 0.2768 0.7135
vt 0.2801 0.7089
vt 0.2891 0.6976
vt 0.2823 0.7004
vt 0.285 0.7026
vt 0.2867 0.6954
vt 0.2725 0.7161
vt 0.2743 0.7119
vt 0.302 0.6802
vt 0.026 0.6897
vt 0.0441 0.7119
vt 0.0317 0.6953
vt 0.0361 0.7004
vt 0.0411 0.707
vt 0.0459 0.7161
vt 0.044 0.7173
vt 0.0473 0.7216
vt 0.014 0.6812
vt 0.0164 0.6802
vt 0.0383 0.7089
vt 0.0416 0.7135
vt 0.0293 0.6976
vt 0.0237 0.692
vt 0.0334 0.7026
vt 0.3052 0.7024
vt 0.2879 0.7175
vt 0.3194 0.9785
vt 0.3144 0.9807
vt 0.3184 0.9812
vt 0.3147 0.6929
vt 0.3147 0.9785
vt 0.0164 0.6754
vt 0.302 0.6802
vt 0.302 0.6754
vt 0.302 0.6754
vt 0.3045 0.6818
vt 0.3048 0.6767
vt 0.0138 0.6766
vt 0.0164 0.6802
vt 0.3307 0.9896
vt 0.3184 0.9812
vt 0.3283 0.9921
vt 0.3307 0.6817
vt 0.3194 0.9785
vt 0.3131 0.6641
vt 0.0164 0.6754
vt 0.302 0.6754
vt 0.316 0.6653
vt 0.3048 0.6767
vt 0.0029 0.6653
vt 0.0053 0.6641
vt 0.3488 0.9921
vt 0.3307 0.9896
vt 0.3307 0.9921
vt 0.3488 0.9896
vt 0.3307 0.6817
vt 0.3131 0.6461
vt 0.0053 0.6641
vt 0.3131 0.6641
vt 0.3155 0.6461
vt 0.3131 0.6641
vt 0.316 0.6653
vt 0.0053 0.6461
vt 0.0029 0.6653
vt 0.2788 0.7224
vt 0.2733 0.9476
vt 0.2788 0.949
vt 0.2995 0.7081
vt 0.2945 0.9588
vt 0.2995 0.9633
vt 0.2829 0.7206
vt 0.2829 0.9508
vt 0.2755 0.7168
vt 0.2711 0.7216
vt 0.2734 0.7237
vt 0.3045 0.6818
vt 0.2924 0.6897
vt 0.2947 0.692
vt 0.2743 0.7119
vt 0.2801 0.7089
vt 0.2773 0.707
vt 0.2891 0.6976
vt 0.2823 0.7004
vt 0.285 0.7026
vt 0.2867 0.6954
vt 0.2768 0.7135
vt 0.302 0.6802
vt 0.026 0.6897
vt 0.0441 0.7119
vt 0.0317 0.6953
vt 0.0361 0.7004
vt 0.0411 0.707
vt 0.2725 0.7161
vt 0.0459 0.7161
vt 0.0473 0.7216
vt 0.3147 0.6929
vt 0.3052 0.9689
vt 0.3147 0.9785
vt 0.2879 0.7175
vt 0.2879 0.9539
vt 0.3194 0.9785
vt 0.3147 0.6929
vt 0.3147 0.9785
vt 0.0164 0.6754
vt 0.302 0.6802
vt 0.302 0.6754
vt 0.302 0.6754
vt 0.3045 0.6818
vt 0.3048 0.6767
vt 0.3307 0.6817
vt 0.3194 0.9785
vt 0.3307 0.9896
vt 0.3131 0.6641
vt 0.0164 0.6754
vt 0.302 0.6754
vt 0.316 0.6653
vt 0.3048 0.6767
vt 0.3488 0.9896
vt 0.3307 0.6817
vt 0.3307 0.9896
vt 0.3131 0.6461
vt 0.0053 0.6641
vt 0.3131 0.6641
vt 0.3155 0.6461
vt 0.316 0.6653
vt 0.0451 0.9476
vt 0.0473 0.7216
vt 0.0451 0.7238
vt 0.2712 0.9499
vt 0.0473 0.9498
vt 0.2734 0.7237
vt 0.2733 0.9476
vt 0.2995 0.7081
vt 0.2829 0.7206
vt 0.0451 0.7238
vt 0.3147 0.6929
vt 0.3194 0.6929
vt 0.302 0.6802
vt 0.014 0.6812
vt 0.3194 0.6929
vt 0.0138 0.6766
vt 0.3488 0.6817
vt 0.3131 0.6461
vt 0.0029 0.6461
vt 0.2945 0.7126
vt 0.0164 0.6802
vt 0.3052 0.7024
vt 0.3194 0.6929
vt 0.0164 0.6802
vt 0.302 0.6802
vt 0.3194 0.6929
vt 0.0053 0.6641
vt 0.3488 0.6817
vt 0.0053 0.6461
vt 0.2711 0.7216
vn 0.8483 0.4106 -0.3343
vn 0.8877 0.3212 0.3299
vn 0.8483 0.4105 0.3343
vn 0.3343 0.4106 0.8483
vn 0.3297 0.3212 0.8878
vn 0.4364 0.8737 0.2147
vn 0.1825 0.8445 0.5035
vn 0.2147 0.8738 0.4364
vn 0.2968 0.5643 0.7704
vn 0.698 0.6653 0.2649
vn 0.7704 0.5642 0.2969
vn 0.5751 0.7903 0.2114
vn 0.239 0.7304 0.6399
vn 0.2114 0.7904 0.575
vn 0.5035 0.8445 0.1825
vn 0.2649 0.6653 0.698
vn 0.6399 0.7304 0.239
vn 0.6399 0.7303 -0.239
vn 0.8483 0.4106 -0.3343
vn 0.3298 0.3212 -0.8877
vn 0.8877 0.3212 -0.3299
vn 0.4364 0.8737 -0.2148
vn 0.1824 0.8445 -0.5035
vn 0.5035 0.8445 -0.1825
vn 0.2649 0.6653 -0.698
vn 0.7703 0.5643 -0.2969
vn 0.698 0.6653 -0.2649
vn 0.575 0.7903 -0.2114
vn 0.239 0.7304 -0.6399
vn 0.6399 0.7303 -0.239
vn 0.2114 0.7904 -0.575
vn 0.3342 0.4106 -0.8483
vn 0.2968 0.5643 -0.7704
vn 0.2147 0.8737 -0.4365
vn -0.1824 0.8445 -0.5035
vn -0.2969 0.5643 -0.7703
vn -0.2114 0.7904 -0.575
vn -0.239 0.7304 -0.6399
vn -0.2649 0.6653 -0.698
vn -0.3342 0.4106 -0.8483
vn -0.8483 0.4106 -0.3343
vn -0.3298 0.3212 -0.8877
vn -0.4364 0.8737 -0.2147
vn -0.2147 0.8737 -0.4365
vn -0.698 0.6653 -0.2649
vn -0.7704 0.5643 -0.2968
vn -0.5751 0.7903 -0.2114
vn -0.5035 0.8445 -0.1825
vn -0.6399 0.7304 -0.239
vn 0.5035 0.8445 -0.1825
vn 0.698 0.6653 -0.2649
vn 0.9239 0 0.3827
vn 0.7071 0 0.7071
vn 0.7071 0 0.7071
vn 0.9239 0 -0.3827
vn 0.9239 0 0.3827
vn -0.3826 0 -0.9239
vn 0 0 -1
vn 0 0 -1
vn 0.707 0 -0.7072
vn 0.9239 0 -0.3827
vn 0.9239 0 -0.3827
vn -0.707 0 -0.7072
vn -0.3826 0 -0.9239
vn -0 1 0
vn -0 1 0
vn -0 1 0
vn -0 1 0
vn -0 1 0
vn -0 1 0
vn -0 1 0
vn -0 1 0
vn -0 1 0
vn -0 1 0
vn -0 1 0
vn -0 1 0
vn 0.7071 0 0.7071
vn 0.9239 0 0.3827
vn 0.7071 0 0.7071
vn 0.9239 0 0.3827
vn 0.9239 0 -0.3826
vn 0 0 -1
vn -0.3827 0 -0.9239
vn 0 0 -1
vn 0.9239 0 -0.3826
vn 0.7072 0 -0.707
vn 0.9239 0 -0.3826
vn -0.3827 0 -0.9239
vn -0.7071 0 -0.7071
vn -0.8483 0.4106 0.3343
vn -0.8877 0.3212 -0.3299
vn -0.8483 0.4106 -0.3343
vn -0.575 0.7903 0.2114
vn -0.6399 0.7304 -0.239
vn -0.5751 0.7903 -0.2114
vn -0.7704 0.5643 0.2969
vn -0.7704 0.5643 -0.2968
vn -0.8483 0.4106 0.3343
vn -0.3298 0.3211 0.8877
vn -0.8877 0.3212 0.3298
vn -0.4365 0.8737 0.2147
vn -0.1825 0.8445 0.5035
vn -0.5035 0.8445 0.1825
vn -0.2968 0.5643 0.7704
vn -0.698 0.6653 0.2649
vn -0.265 0.6653 0.698
vn -0.575 0.7903 0.2114
vn -0.239 0.7304 0.6399
vn -0.6399 0.7304 0.239
vn -0.2114 0.7904 0.575
vn -0.7704 0.5643 0.2969
vn -0.2147 0.8737 0.4364
vn 0.1825 0.8445 0.5035
vn 0.2968 0.5643 0.7704
vn 0.2114 0.7904 0.575
vn 0.239 0.7304 0.6399
vn 0.2649 0.6653 0.698
vn -0.3342 0.4106 0.8483
vn 0.3343 0.4106 0.8483
vn 0.3297 0.3212 0.8878
vn -0.4365 0.8737 0.2147
vn -0.5035 0.8445 -0.1825
vn -0.4364 0.8737 -0.2147
vn -0.698 0.6653 0.2649
vn -0.698 0.6653 -0.2649
vn -1 0 0
vn -0.9239 0 0.3826
vn -1 0 0
vn 0 0 1
vn 0 0 1
vn 0 0 1
vn -0.7072 0 0.707
vn -0.9239 0 0.3826
vn -0.9239 0 0.3826
vn -0 1 0
vn -0 1 0
vn -0 1 0
vn 0 1 0.0001
vn -0 1 0
vn -0 1 0
vn -0 1 0
vn -0 1 0
vn -1 0 0
vn -1 0 0
vn -1 0 0
vn -0.3826 0 0.9239
vn 0 0 1
vn -0.3826 0 0.9239
vn -0.707 0 0.7072
vn -0.707 0 0.7072
vn -0 1 0
vn -0 1 0
vn -0 1 0
vn -0 1 0
vn -0 1 0
vn -0 1 0
vn -0 1 0
vn 0.575 0.7903 -0.2114
vn 0.7703 0.5643 -0.2969
vn -0.8877 0.3212 -0.3299
vn 0.4364 0.8737 -0.2148
vn 0.9239 0 -0.3827
vn 0.707 0 -0.7072
vn -0.707 0 -0.7072
vn -0 1 0
vn -0 1 0
vn 0.9239 0 -0.3826
vn 0.7072 0 -0.707
vn -0.7071 0 -0.7071
vn -0.6399 0.7304 0.239
vn 0.2147 0.8738 0.4364
vn -0.5035 0.8445 0.1825
vn -0.9239 0 0.3826
vn 0 0 1
vn -0.7072 0 0.707
vn -0 1 0
vn -0 1 0
vn -1 0 0
vn 0 0 1
vn -0 1 0
f 1/1/1 2/2/2 3/3/3
f 4/4/4 2/2/2 5/5/5
f 6/6/6 7/7/7 8/8/8
f 9/9/9 10/10/10 11/11/11
f 12/12/12 13/13/13 14/14/14
f 15/15/15 14/14/14 7/7/7
f 16/16/16 17/17/17 10/10/10
f 4/4/4 11/11/11 3/3/3
f 12/12/12 18/18/18 17/17/17
f 11/11/11 1/1/1 3/3/3
f 19/19/19 20/20/20 21/21/21
f 22/22/22 23/23/23 24/24/24
f 25/25/25 26/26/26 27/27/27
f 28/28/28 29/29/29 30/30/30
f 24/24/24 31/31/31 28/28/28
f 25/25/25 30/30/30 29/29/29
f 32/32/32 26/26/26 33/33/33
f 34/34/34 35/35/35 23/23/23
f 25/25/25 36/36/36 33/33/33
f 29/29/29 37/37/37 38/38/38
f 29/29/29 39/39/39 25/25/25
f 23/23/23 37/37/37 31/31/31
f 33/33/33 40/40/40 32/32/32
f 41/41/41 42/42/42 40/40/40
f 43/43/43 35/35/35 44/44/44
f 36/36/36 45/45/45 46/46/46
f 47/47/47 38/38/38 37/37/37
f 48/48/48 37/37/37 35/35/35
f 39/39/39 49/49/49 45/45/45
f 40/40/40 46/46/46 41/41/41
f 20/20/20 40/40/40 42/42/42
f 6/6/6 50/50/50 15/15/15
f 51/51/51 11/11/11 10/10/10
f 18/18/18 10/10/10 17/17/17
f 50/50/50 12/12/12 15/15/15
f 52/52/52 53/53/53 54/54/54
f 52/52/52 55/55/55 56/56/56
f 57/57/57 58/58/58 59/59/59
f 60/60/60 61/61/61 62/62/62
f 63/63/63 64/64/64 57/57/57
f 65/65/65 66/66/66 67/67/67
f 68/68/68 69/69/69 65/65/65
f 70/70/70 71/71/71 72/72/72
f 73/73/73 72/72/72 74/74/74
f 75/75/75 71/71/71 76/76/76
f 77/77/77 78/78/78 79/79/79
f 80/80/80 81/81/81 78/78/78
f 82/82/82 83/83/83 84/84/84
f 85/85/85 86/86/86 87/87/87
f 88/88/88 89/89/89 83/83/83
f 90/90/90 91/91/91 92/92/92
f 93/93/93 94/94/94 95/95/95
f 96/96/96 92/92/92 97/97/97
f 98/98/98 99/99/99 100/100/100
f 101/101/101 102/102/102 103/103/103
f 104/104/104 105/105/105 106/106/106
f 107/107/107 108/108/108 109/109/109
f 103/103/103 110/110/110 107/107/107
f 106/106/106 109/109/109 108/108/108
f 104/104/104 98/98/98 111/111/111
f 112/112/112 113/113/113 102/102/102
f 106/106/106 114/114/114 104/104/104
f 108/108/108 115/115/115 116/116/116
f 108/108/108 117/117/117 106/106/106
f 102/102/102 115/115/115 110/110/110
f 118/118/118 114/114/114 119/119/119
f 120/120/120 118/118/118 119/119/119
f 121/121/121 122/122/122 123/123/123
f 124/124/124 97/97/97 125/125/125
f 94/94/94 124/124/124 125/125/125
f 122/122/122 93/93/93 95/95/95
f 126/126/126 127/127/127 128/128/128
f 129/129/129 130/130/130 131/131/131
f 132/132/132 133/133/133 134/134/134
f 135/135/135 136/136/136 137/137/137
f 138/138/138 139/139/139 140/140/140
f 141/141/141 140/140/140 142/142/142
f 143/143/143 144/144/144 145/145/145
f 146/146/146 147/147/147 148/148/148
f 149/149/149 148/148/148 150/150/150
f 151/151/151 152/152/152 153/153/153
f 154/154/154 152/152/152 155/155/155
f 156/156/156 152/152/152 157/157/157
f 1/1/1 21/21/21 2/2/2
f 4/4/4 3/3/3 2/2/2
f 6/6/6 15/15/15 7/7/7
f 9/9/9 16/16/16 10/10/10
f 12/12/12 17/17/17 13/13/13
f 15/15/15 12/12/12 14/14/14
f 16/16/16 13/13/13 17/17/17
f 4/4/4 9/9/9 11/11/11
f 12/12/12 158/158/158 18/18/18
f 11/11/11 159/159/159 1/1/1
f 19/19/19 32/32/32 20/20/20
f 22/22/22 34/34/34 23/23/23
f 25/25/25 33/33/33 26/26/26
f 28/28/28 31/31/31 29/29/29
f 24/24/24 23/23/23 31/31/31
f 25/25/25 27/27/27 30/30/30
f 32/32/32 19/19/19 26/26/26
f 34/34/34 44/44/44 35/35/35
f 25/25/25 39/39/39 36/36/36
f 29/29/29 31/31/31 37/37/37
f 29/29/29 38/38/38 39/39/39
f 23/23/23 35/35/35 37/37/37
f 33/33/33 36/36/36 40/40/40
f 41/41/41 160/160/160 42/42/42
f 43/43/43 48/48/48 35/35/35
f 36/36/36 39/39/39 45/45/45
f 47/47/47 49/49/49 38/38/38
f 48/48/48 47/47/47 37/37/37
f 39/39/39 38/38/38 49/49/49
f 40/40/40 36/36/36 46/46/46
f 20/20/20 32/32/32 40/40/40
f 6/6/6 161/161/161 50/50/50
f 51/51/51 159/159/159 11/11/11
f 18/18/18 51/51/51 10/10/10
f 50/50/50 158/158/158 12/12/12
f 52/52/52 56/56/56 53/53/53
f 52/52/52 162/162/162 55/55/55
f 57/57/57 64/64/64 58/58/58
f 60/60/60 163/163/163 61/61/61
f 63/63/63 164/164/164 64/64/64
f 65/65/65 69/69/69 66/66/66
f 68/68/68 165/165/165 69/69/69
f 70/70/70 76/76/76 71/71/71
f 73/73/73 70/70/70 72/72/72
f 75/75/75 166/166/166 71/71/71
f 77/77/77 80/80/80 78/78/78
f 80/80/80 167/167/167 81/81/81
f 82/82/82 88/88/88 83/83/83
f 85/85/85 168/168/168 86/86/86
f 88/88/88 169/169/169 89/89/89
f 90/90/90 100/100/100 91/91/91
f 93/93/93 170/170/170 94/94/94
f 96/96/96 90/90/90 92/92/92
f 98/98/98 118/118/118 99/99/99
f 101/101/101 112/112/112 102/102/102
f 104/104/104 111/111/111 105/105/105
f 107/107/107 110/110/110 108/108/108
f 103/103/103 102/102/102 110/110/110
f 106/106/106 105/105/105 109/109/109
f 104/104/104 118/118/118 98/98/98
f 112/112/112 171/171/171 113/113/113
f 106/106/106 117/117/117 114/114/114
f 108/108/108 110/110/110 115/115/115
f 108/108/108 116/116/116 117/117/117
f 102/102/102 113/113/113 115/115/115
f 118/118/118 104/104/104 114/114/114
f 120/120/120 99/99/99 118/118/118
f 121/121/121 172/172/172 122/122/122
f 124/124/124 96/96/96 97/97/97
f 94/94/94 170/170/170 124/124/124
f 122/122/122 172/172/172 93/93/93
f 126/126/126 173/173/173 127/127/127
f 129/129/129 174/174/174 130/130/130
f 132/132/132 175/175/175 133/133/133
f 135/135/135 176/176/176 136/136/136
f 138/138/138 177/177/177 139/139/139
f 141/141/141 138/138/138 140/140/140
f 143/143/143 178/178/178 144/144/144
f 146/146/146 179/179/179 147/147/147
f 149/149/149 146/146/146 148/148/148
f 151/151/151 155/155/155 152/152/152
f 154/154/154 157/157/157 152/152/152
f 156/156/156 180/180/180 152/152/152
