v -225.087 664.232 569.378
v -224.455 670.696 575.488
v -225.087 664.232 575.488
v -271.576 670.696 567.87
v -225.683 664.232 568.646
v -270.908 664.232 568.646
v -276.383 690.96 561.918
v -220.179 686.596 561.918
v -276.411 686.596 561.918
v -276.981 686.596 575.488
v -276.981 690.959 562.653
v -276.981 686.596 562.618
v -225.55 660.363 569.962
v -223.762 662.297 575.488
v -225.55 660.363 575.488
v -272.162 662.297 567.02
v -226.158 660.363 569.216
v -270.433 660.363 569.216
v -225.087 664.232 569.378
v -223.762 662.297 575.488
v -223.762 662.297 567.838
v -225.683 664.232 568.646
v -272.162 662.297 567.02
v -270.908 664.232 568.646
v -219.609 690.959 562.653
v -217.943 693.141 575.488
v -219.609 690.959 575.488
v -218.605 693.141 559.872
v -276.383 690.96 561.918
v -277.984 693.141 559.872
v -219.609 695.323 562.731
v -217.943 693.141 575.488
v -217.943 693.141 560.686
v -220.271 695.323 561.918
v -277.984 693.141 559.872
v -276.319 695.323 561.918
v -222.315 679.695 565.956
v -219.609 686.596 575.488
v -222.315 679.695 575.488
v -220.179 686.596 561.918
v -273.694 679.695 565.242
v -276.411 686.596 561.918
v -224.455 670.696 568.556
v -222.896 679.695 565.242
v -225.683 664.232 568.646
v -224.455 670.696 568.556
v -225.087 664.232 569.378
v -270.908 664.232 568.646
v -272.135 670.696 568.556
v -271.576 670.696 567.87
v -220.207 690.96 561.918
v -219.609 686.596 562.618
v -220.179 686.596 561.918
v -276.981 686.596 562.618
v -276.383 690.96 561.918
v -276.411 686.596 561.918
v -225.683 664.232 568.646
v -223.762 662.297 567.838
v -224.428 662.297 567.02
v -270.908 664.232 568.646
v -272.828 662.297 567.838
v -271.503 664.232 569.378
v -223.762 662.297 567.838
v -226.158 660.363 569.216
v -224.428 662.297 567.02
v -272.828 662.297 567.838
v -270.433 660.363 569.216
v -271.04 660.363 569.962
v -220.207 690.96 561.918
v -217.943 693.141 560.686
v -219.609 690.959 562.653
v -276.383 690.96 561.918
v -278.647 693.141 560.686
v -277.984 693.141 559.872
v -217.943 693.141 560.686
v -220.271 695.323 561.918
v -219.609 695.323 562.731
v -278.647 693.141 560.686
v -276.319 695.323 561.918
v -277.984 693.141 559.872
v -222.896 679.695 565.242
v -219.609 686.596 562.618
v -222.315 679.695 565.956
v -273.694 679.695 565.242
v -276.981 686.596 562.618
v -276.411 686.596 561.918
v -225.014 670.696 567.87
v -274.275 679.695 565.956
v -219.609 695.323 575.488
v -220.271 695.323 561.918
v -276.981 695.323 562.731
v -276.319 695.323 561.918
v -276.981 695.323 575.488
v -272.135 670.696 575.488
v -271.503 664.232 569.378
v -271.503 664.232 575.488
v -219.609 686.596 575.488
v -219.609 690.959 562.653
v -219.609 690.959 575.488
v -272.828 662.297 575.488
v -271.04 660.363 569.962
v -271.04 660.363 575.488
v -272.828 662.297 575.488
v -271.503 664.232 569.378
v -272.828 662.297 567.838
v -278.647 693.141 575.488
v -276.981 690.959 562.653
v -276.981 690.959 575.488
v -278.647 693.141 575.488
v -276.981 695.323 562.731
v -278.647 693.141 560.686
v -276.981 686.596 575.488
v -274.275 679.695 565.956
v -274.275 679.695 575.488
v -272.135 670.696 568.556
v -271.04 660.363 569.962
v -225.55 660.363 575.488
v -271.04 660.363 575.488
v -225.55 660.363 569.962
v -270.433 660.363 569.216
v -226.158 660.363 569.216
v -225.014 670.696 567.87
v -220.207 690.96 561.918
v -276.981 690.959 575.488
v -223.762 662.297 567.838
v -224.428 662.297 567.02
v -225.087 664.232 575.488
v -224.428 662.297 567.02
v -217.943 693.141 560.686
v -220.207 690.96 561.918
v -219.609 695.323 575.488
v -218.605 693.141 559.872
v -219.609 686.596 562.618
v -271.503 664.232 569.378
v -219.609 690.959 562.653
v -276.981 690.959 562.653
v -225.087 664.232 569.378
v -272.162 662.297 567.02
v -225.55 660.363 569.962
v -272.162 662.297 567.02
v -218.605 693.141 559.872
v -276.981 690.959 562.653
v -218.605 693.141 559.872
v -276.981 695.323 562.731
v -220.179 686.596 561.918
v -219.609 695.323 562.731
v -219.609 686.596 562.618
v -272.828 662.297 567.838
v -271.503 664.232 575.488
v -278.647 693.141 560.686
v -276.981 695.323 575.488
v -276.981 686.596 562.618
vt 0.5504 0.8881
vt 0.5337 0.9084
vt 0.5337 0.8881
vt 0.7614 0.91
vt 0.6076 0.8897
vt 0.7592 0.8897
vt 0.7775 0.9737
vt 0.5891 0.96
vt 0.7776 0.96
vt 0.8287 0.9596
vt 0.7937 0.9733
vt 0.7936 0.9596
vt 0.9865 0.7672
vt 0.9632 0.7791
vt 0.9619 0.7672
vt 0.2524 0.779
vt 0.0112 0.7672
vt 0.2525 0.7672
vt 0.5504 0.8881
vt 0.5337 0.882
vt 0.5546 0.882
vt 0.6076 0.8897
vt 0.7634 0.8836
vt 0.7592 0.8897
vt 0.5687 0.9721
vt 0.5337 0.979
vt 0.5337 0.9721
vt 0.5839 0.9806
vt 0.7775 0.9737
vt 0.7829 0.9806
vt 0.5685 0.9859
vt 0.5337 0.979
vt 0.5741 0.979
vt 0.5894 0.9875
vt 0.7829 0.9806
vt 0.7773 0.9875
vt 0.5597 0.9367
vt 0.5337 0.9584
vt 0.5337 0.9367
vt 0.5891 0.96
vt 0.7685 0.9383
vt 0.7776 0.96
vt 0.5526 0.9084
vt 0.5982 0.9383
vt 0.6076 0.8897
vt 0.6028 0.9094
vt 0.605 0.8907
vt 0.8095 0.8902
vt 0.8098 0.9096
vt 0.8073 0.909
vt 0.5892 0.9737
vt 0.5865 0.9593
vt 0.5891 0.96
vt 0.7936 0.9596
vt 0.7912 0.9721
vt 0.791 0.9589
vt 0.6076 0.8897
vt 0.6007 0.8862
vt 0.6034 0.8836
vt 0.8095 0.8902
vt 0.8079 0.8832
vt 0.8121 0.8892
vt 0.0078 0.7789
vt 0.0112 0.7672
vt 0.0111 0.779
vt 0.2559 0.779
vt 0.2525 0.7672
vt 0.2558 0.7672
vt 0.5892 0.9737
vt 0.5815 0.9806
vt 0.5867 0.9726
vt 0.7912 0.9721
vt 0.7884 0.9801
vt 0.786 0.9801
vt 0.5815 0.9806
vt 0.5894 0.9875
vt 0.5871 0.99
vt 0.7884 0.9801
vt 0.7916 0.9896
vt 0.786 0.9801
vt 0.5982 0.9383
vt 0.5865 0.9593
vt 0.5957 0.9372
vt 0.8002 0.9367
vt 0.7936 0.9596
vt 0.791 0.9589
vt 0.6053 0.91
vt 0.8027 0.9379
vt 0.0091 0.8976
vt 0.0109 0.8746
vt 0.1674 0.876
vt 0.1655 0.8746
vt 0.1674 0.8976
vt 0.8287 0.9096
vt 0.8121 0.8892
vt 0.8287 0.8892
vt 0.5337 0.9584
vt 0.5687 0.9721
vt 0.5337 0.9721
vt 0.2874 0.779
vt 0.2558 0.7672
vt 0.2803 0.7672
vt 0.8287 0.8832
vt 0.8121 0.8892
vt 0.8079 0.8832
vt 0.8287 0.9801
vt 0.7937 0.9733
vt 0.8287 0.9733
vt 0.8287 0.9801
vt 0.7939 0.987
vt 0.7884 0.9801
vt 0.8287 0.9596
vt 0.8027 0.9379
vt 0.8287 0.9379
vt 0.8098 0.9096
vt 0.2773 0.6911
vt 0.4476 0.6742
vt 0.2773 0.6742
vt 0.4476 0.6911
vt 0.2795 0.6933
vt 0.4453 0.6933
vt 0.6053 0.91
vt 0.5892 0.9737
vt 0.8287 0.9733
vt 0.9959 0.7791
vt 0.0111 0.779
vt 0.5337 0.8881
vt 0.6034 0.8836
vt 0.5741 0.979
vt 0.5892 0.9737
vt 0.5337 0.9859
vt 0.5839 0.9806
vt 0.5688 0.9584
vt 0.8121 0.8892
vt 0.5867 0.9726
vt 0.7937 0.9733
vt 0.605 0.8907
vt 0.8052 0.8857
vt 0.0079 0.7672
vt 0.2524 0.779
vt 0.5839 0.9806
vt 0.7937 0.9733
vt 0.5839 0.9806
vt 0.7939 0.987
vt 0.5891 0.96
vt 0.0091 0.876
vt 0.5688 0.9584
vt 0.2559 0.779
vt 0.8287 0.8892
vt 0.7884 0.9801
vt 0.8287 0.987
vt 0.7936 0.9596
vn 0.9953 -0.0973 0
vn 0.9863 -0.1647 0
vn 0.9953 -0.0973 0
vn 0 -0.2085 -0.978
vn 0 -0.1192 -0.9929
vn 0 -0.1192 -0.9929
vn 0 0 -1
vn 0 0 -1
vn 0 0 -1
vn -1 0 0
vn -1 0 0
vn -1 0 0
vn 0.7343 -0.6788 0
vn 0.7343 -0.6788 0
vn 0.7343 -0.6788 0
vn 0 -0.7504 -0.661
vn 0 -0.7504 -0.661
vn 0 -0.7504 -0.661
vn 0.8251 0.5649 0
vn 0.8251 0.5649 0
vn 0.8251 0.5649 0
vn 0 0.6436 -0.7654
vn 0 0.6436 -0.7654
vn 0 0.6436 -0.7654
vn 0.7948 -0.6068 -0
vn 0.7948 -0.6068 -0
vn 0.7948 -0.6068 -0
vn 0 -0.684 -0.7295
vn 0 -0.684 -0.7295
vn 0 -0.684 -0.7295
vn 0.7948 0.6068 0
vn 0.7948 0.6068 0
vn 0.7948 0.6068 0
vn 0 0.684 -0.7295
vn 0 0.684 -0.7295
vn 0 0.684 -0.7295
vn 0.9497 -0.3131 0
vn 0.931 -0.365 0
vn 0.9543 -0.2989 0
vn 0 -0.4339 -0.9009
vn 0 -0.3716 -0.9284
vn 0 -0.4339 -0.9009
vn 0.9849 -0.1729 0
vn 0 -0.3716 -0.9284
vn 0.7662 -0.1542 -0.6238
vn 0.7517 -0.2473 -0.6114
vn 0.7662 -0.1542 -0.6238
vn -0.7663 -0.1542 -0.6237
vn -0.7512 -0.2473 -0.612
vn -0.7498 -0.2534 -0.6113
vn 0.7757 0.0051 -0.6311
vn 0.7756 0.0051 -0.6312
vn 0.7756 0.0051 -0.6313
vn -0.7755 0.0051 -0.6314
vn -0.7755 0.0051 -0.6314
vn -0.7755 0.0051 -0.6314
vn 0.5391 0.7188 -0.439
vn 0.5392 0.7188 -0.4389
vn 0.5392 0.7188 -0.4389
vn -0.5392 0.7187 -0.4389
vn -0.5392 0.7187 -0.4389
vn -0.5392 0.7187 -0.4389
vn 0.4486 -0.8157 -0.3652
vn 0.4487 -0.8157 -0.3652
vn 0.4486 -0.8157 -0.3652
vn -0.4486 -0.8157 -0.3653
vn -0.4487 -0.8157 -0.3652
vn -0.4487 -0.8157 -0.3652
vn 0.5062 -0.7578 -0.4116
vn 0.506 -0.7578 -0.4119
vn 0.5062 -0.7579 -0.4116
vn -0.5059 -0.7578 -0.412
vn -0.506 -0.7578 -0.412
vn -0.506 -0.7578 -0.4119
vn 0.5004 0.7639 -0.4074
vn 0.5005 0.7639 -0.4073
vn 0.5006 0.7639 -0.4072
vn -0.5004 0.7639 -0.4074
vn -0.5004 0.7639 -0.4074
vn -0.5004 0.7639 -0.4074
vn 0.6965 -0.4395 -0.5672
vn 0.6622 -0.5204 -0.5391
vn 0.7003 -0.4294 -0.5702
vn -0.6967 -0.4395 -0.567
vn -0.6622 -0.5204 -0.5392
vn -0.6622 -0.5204 -0.5392
vn 0.7502 -0.2535 -0.6107
vn -0.7004 -0.4294 -0.5701
vn 0 1 0
vn 0 1 0
vn 0 1 0
vn 0 1 0
vn 0 1 0
vn -0.9863 -0.1647 0
vn -0.9953 -0.0973 0
vn -0.9953 -0.0973 0
vn 1 -0 0
vn 1 -0 0
vn 1 -0 0
vn -0.7344 -0.6787 -0
vn -0.7344 -0.6787 -0
vn -0.7344 -0.6787 -0
vn -0.8251 0.5649 0
vn -0.8251 0.5649 0
vn -0.8251 0.5649 0
vn -0.7949 -0.6067 -0
vn -0.7949 -0.6067 -0
vn -0.7949 -0.6067 -0
vn -0.7949 0.6067 0
vn -0.7949 0.6067 0
vn -0.7949 0.6067 0
vn -0.931 -0.3651 0
vn -0.9497 -0.3131 0
vn -0.9543 -0.2989 0
vn -0.9849 -0.1729 0
vn 0 -1 0
vn 0 -1 0
vn 0 -1 0
vn 0 -1 0
vn 0 -1 0
vn 0 -1 -0.0001
vn 0 -0.2085 -0.978
vn 0 0 -1
vn -1 0 0
vn 0.7343 -0.6788 0
vn 0 -0.7504 -0.661
vn 0.8251 0.5649 0
vn 0 0.6436 -0.7654
vn 0.7948 -0.6068 -0
vn 0 -0.684 -0.7295
vn 0.7948 0.6068 0
vn 0 0.684 -0.7295
vn 0.931 -0.365 0
vn -0.7664 -0.1542 -0.6236
vn 0.7757 0.0051 -0.6311
vn -0.7754 0.0051 -0.6314
vn 0.5391 0.7188 -0.439
vn -0.5392 0.7187 -0.4389
vn 0.4487 -0.8157 -0.3652
vn -0.4486 -0.8157 -0.3653
vn 0.506 -0.7578 -0.412
vn -0.5059 -0.7578 -0.412
vn 0.5004 0.7639 -0.4075
vn -0.5004 0.7639 -0.4075
vn 0.6623 -0.5204 -0.5391
vn 0.0001 1 0
vn 1 -0 0
vn -0.7344 -0.6787 -0
vn -0.8251 0.5649 0
vn -0.7949 -0.6067 -0
vn -0.7949 0.6067 0
vn -0.931 -0.3651 0
f 1/1/1 2/2/2 3/3/3
f 4/4/4 5/5/5 6/6/6
f 7/7/7 8/8/8 9/9/9
f 10/10/10 11/11/11 12/12/12
f 13/13/13 14/14/14 15/15/15
f 16/16/16 17/17/17 18/18/18
f 19/19/19 20/20/20 21/21/21
f 22/22/22 23/23/23 24/24/24
f 25/25/25 26/26/26 27/27/27
f 28/28/28 29/29/29 30/30/30
f 31/31/31 32/32/32 33/33/33
f 34/34/34 35/35/35 36/36/36
f 37/37/37 38/38/38 39/39/39
f 40/40/40 41/41/41 42/42/42
f 43/43/43 39/39/39 2/2/2
f 44/44/44 4/4/4 41/41/41
f 45/45/45 46/46/46 47/47/47
f 48/48/48 49/49/49 50/50/50
f 51/51/51 52/52/52 53/53/53
f 54/54/54 55/55/55 56/56/56
f 57/57/57 58/58/58 59/59/59
f 60/60/60 61/61/61 62/62/62
f 63/63/63 64/64/64 65/65/65
f 66/66/66 67/67/67 68/68/68
f 69/69/69 70/70/70 71/71/71
f 72/72/72 73/73/73 74/74/74
f 75/75/75 76/76/76 77/77/77
f 78/78/78 79/79/79 80/80/80
f 81/81/81 82/82/82 83/83/83
f 84/84/84 85/85/85 86/86/86
f 87/87/87 83/83/83 46/46/46
f 50/50/50 88/88/88 84/84/84
f 89/89/89 90/90/90 91/91/91
f 90/90/90 92/92/92 91/91/91
f 93/93/93 89/89/89 91/91/91
f 94/94/94 95/95/95 96/96/96
f 97/97/97 98/98/98 99/99/99
f 100/100/100 101/101/101 102/102/102
f 103/103/103 104/104/104 105/105/105
f 106/106/106 107/107/107 108/108/108
f 109/109/109 110/110/110 111/111/111
f 112/112/112 113/113/113 114/114/114
f 114/114/114 115/115/115 94/94/94
f 116/116/116 117/117/117 118/118/118
f 119/119/119 120/120/120 121/121/121
f 1/1/1 43/43/43 2/2/2
f 4/4/4 122/122/122 5/5/5
f 7/7/7 123/123/123 8/8/8
f 10/10/10 124/124/124 11/11/11
f 13/13/13 125/125/125 14/14/14
f 16/16/16 126/126/126 17/17/17
f 19/19/19 127/127/127 20/20/20
f 22/22/22 128/128/128 23/23/23
f 25/25/25 129/129/129 26/26/26
f 28/28/28 130/130/130 29/29/29
f 31/31/31 131/131/131 32/32/32
f 34/34/34 132/132/132 35/35/35
f 37/37/37 133/133/133 38/38/38
f 40/40/40 44/44/44 41/41/41
f 43/43/43 37/37/37 39/39/39
f 44/44/44 122/122/122 4/4/4
f 45/45/45 87/87/87 46/46/46
f 48/48/48 134/134/134 49/49/49
f 51/51/51 135/135/135 52/52/52
f 54/54/54 136/136/136 55/55/55
f 57/57/57 137/137/137 58/58/58
f 60/60/60 138/138/138 61/61/61
f 63/63/63 139/139/139 64/64/64
f 66/66/66 140/140/140 67/67/67
f 69/69/69 141/141/141 70/70/70
f 72/72/72 142/142/142 73/73/73
f 75/75/75 143/143/143 76/76/76
f 78/78/78 144/144/144 79/79/79
f 81/81/81 145/145/145 82/82/82
f 84/84/84 88/88/88 85/85/85
f 87/87/87 81/81/81 83/83/83
f 50/50/50 49/49/49 88/88/88
f 89/89/89 146/146/146 90/90/90
f 94/94/94 115/115/115 95/95/95
f 97/97/97 147/147/147 98/98/98
f 100/100/100 148/148/148 101/101/101
f 103/103/103 149/149/149 104/104/104
f 106/106/106 150/150/150 107/107/107
f 109/109/109 151/151/151 110/110/110
f 112/112/112 152/152/152 113/113/113
f 114/114/114 113/113/113 115/115/115
f 116/116/116 119/119/119 117/117/117
f 119/119/119 116/116/116 120/120/120
