v 491.964 842.341 159.507
v 493.091 831.655 198.225
v 491.964 831.946 198.303
v 491.14 832.742 198.516
v 490.838 844.226 160.012
v 490.838 833.83 198.808
v 491.14 834.918 199.099
v 491.964 846.11 160.517
v 491.964 835.714 199.313
v 493.091 846.401 160.595
v 493.091 836.006 199.391
v 494.217 846.11 160.517
v 494.217 835.714 199.313
v 495.041 834.918 199.099
v 495.343 844.226 160.012
v 495.343 833.83 198.808
v 495.041 832.742 198.516
v 494.217 842.341 159.507
v 494.217 831.946 198.303
v 493.091 842.05 159.429
v 493.091 831.655 198.225
v 491.964 842.341 159.507
v 493.091 852.445 120.633
v 493.091 842.05 159.429
v 491.14 853.533 120.924
v 491.14 843.138 159.72
v 490.838 854.621 121.216
v 490.838 844.226 160.012
v 491.14 845.313 160.303
v 491.964 856.505 121.721
v 491.964 846.11 160.517
v 493.091 856.796 121.799
v 493.091 846.401 160.595
v 494.217 856.505 121.721
v 494.217 846.11 160.517
v 495.041 845.313 160.303
v 495.343 854.621 121.216
v 495.343 844.226 160.012
v 495.041 843.138 159.72
v 494.217 842.341 159.507
v 495.041 853.533 120.924
v 493.091 852.445 120.633
v 493.091 842.05 159.429
v 491.964 863.132 81.915
v 493.091 852.445 120.633
v 491.964 852.737 120.711
v 491.14 863.929 82.1284
v 491.14 853.533 120.924
v 490.838 854.621 121.216
v 491.14 855.709 121.507
v 490.838 865.016 82.4198
v 491.964 866.9 82.9247
v 491.964 856.505 121.721
v 493.091 856.796 121.799
v 494.217 866.9 82.9247
v 494.217 856.505 121.721
v 495.041 855.709 121.507
v 495.343 865.016 82.4198
v 495.343 854.621 121.216
v 495.041 853.533 120.924
v 494.217 852.737 120.711
v 495.041 863.929 82.1284
v 493.091 852.445 120.633
v 494.217 863.132 81.915
v 492.563 884.356 7.87654
v 493.091 884.062 7.79774
v 492.786 884.14 7.81884
v 492.786 885.16 8.09204
v 492.563 884.944 8.03424
v 493.091 885.239 8.11314
v 493.618 884.944 8.03424
v 493.618 884.356 7.87654
v 493.7 884.65 7.95544
v 492.481 884.65 7.95544
v 493.395 884.14 7.81884
v 491.544 876.052 30.8866
v 493.091 875.591 34.2544
v 491.964 875.882 34.3325
v 490.413 877.145 31.1795
v 491.14 876.678 34.5459
v 490.838 877.766 34.8373
v 490.413 880.132 31.9798
v 491.14 878.854 35.1288
v 491.964 879.65 35.3421
v 493.091 881.626 32.38
v 493.091 879.942 35.4203
v 494.217 879.65 35.3421
v 495.768 880.132 31.9798
v 495.041 878.854 35.1288
v 496.183 878.639 31.5797
v 495.343 877.766 34.8373
v 495.041 876.678 34.5459
v 494.217 875.882 34.3325
v 495.768 877.145 31.1795
v 493.091 875.591 34.2544
v 494.637 876.052 30.8866
v 491.442 880.195 14.1419
v 493.091 877.524 20.8064
v 491.158 878.025 20.9404
v 490.235 881.361 14.4543
v 489.743 879.391 21.3065
v 489.793 882.954 14.881
v 489.226 881.258 21.8067
v 490.235 884.546 15.3078
v 489.743 883.124 22.3068
v 491.442 885.712 15.6202
v 493.091 886.139 15.7345
v 491.158 884.49 22.6729
v 493.091 884.991 22.8069
v 495.023 884.49 22.6729
v 496.437 883.124 22.3068
v 494.739 885.712 15.6201
v 496.955 881.258 21.8066
v 495.946 884.546 15.3078
v 496.437 879.391 21.3065
v 496.388 882.954 14.8811
v 495.023 878.025 20.9404
v 495.946 881.361 14.4543
v 493.091 877.524 20.8064
v 494.739 880.195 14.1419
v 492.786 884.14 7.81884
v 493.091 879.769 14.0275
v 492.563 884.356 7.87654
v 492.481 884.65 7.95544
v 492.563 884.944 8.03424
v 492.786 885.16 8.09204
v 493.091 885.239 8.11314
v 493.395 885.16 8.09204
v 493.618 884.944 8.03424
v 493.7 884.65 7.95544
v 493.618 884.356 7.87654
v 493.091 879.769 14.0275
v 493.395 884.14 7.81884
v 491.561 876.953 27.6364
v 493.091 876.557 27.5304
v 490.442 878.035 27.9262
v 490.032 879.512 28.322
v 490.442 880.989 28.7178
v 491.561 882.07 29.0075
v 493.091 882.466 29.1136
v 494.62 882.07 29.0075
v 495.739 880.989 28.7178
v 496.149 879.512 28.322
v 495.739 878.035 27.9262
v 494.62 876.953 27.6364
v 493.091 876.557 27.5304
v 493.091 875.652 30.7794
v 489.998 878.639 31.5797
v 491.544 881.226 32.2727
v 494.637 881.226 32.2727
v 493.091 875.652 30.7794
v 493.091 862.841 81.8369
v 491.964 863.132 81.915
v 491.14 863.929 82.1284
v 490.838 865.016 82.4198
v 491.14 866.104 82.7113
v 491.964 866.9 82.9247
v 493.091 867.192 83.0028
v 494.217 866.9 82.9247
v 495.041 866.104 82.7113
v 495.343 865.016 82.4198
v 495.041 863.929 82.1284
v 494.217 863.132 81.915
v 493.091 862.841 81.8369
v 493.091 842.05 159.429
v 491.14 843.138 159.72
v 491.14 845.313 160.303
v 495.041 845.313 160.303
v 495.041 843.138 159.72
v 491.964 852.737 120.711
v 491.14 855.709 121.507
v 495.041 855.709 121.507
v 494.217 852.737 120.711
v 493.091 862.841 81.8369
v 491.14 866.104 82.7113
v 493.091 867.192 83.0028
v 495.041 866.104 82.7113
v 493.091 862.841 81.8369
v 493.395 885.16 8.09204
v 493.091 884.062 7.79774
v 493.091 884.062 7.79774
vt 0.9633 0.5241
vt 0.9876 0.0053
vt 0.9633 0.0053
vt 0.9391 0.0053
vt 0.9148 0.5241
vt 0.9148 0.0053
vt 0.8906 0.0053
vt 0.8663 0.5241
vt 0.8663 0.0053
vt 0.8421 0.5241
vt 0.8421 0.0053
vt 0.8178 0.5241
vt 0.8178 0.0053
vt 0.7936 0.0053
vt 0.7694 0.5241
vt 0.7694 0.0053
vt 0.7451 0.0053
vt 0.7209 0.5241
vt 0.7209 0.0053
vt 0.6966 0.5241
vt 0.6966 0.0053
vt 0.9633 0.0053
vt 0.9876 0.5241
vt 0.9876 0.0053
vt 0.9391 0.5241
vt 0.9391 0.0053
vt 0.9148 0.5241
vt 0.9148 0.0053
vt 0.8906 0.0053
vt 0.8663 0.5241
vt 0.8663 0.0053
vt 0.8421 0.5241
vt 0.8421 0.0053
vt 0.8178 0.5241
vt 0.8178 0.0053
vt 0.7936 0.0053
vt 0.7694 0.5241
vt 0.7694 0.0053
vt 0.7451 0.0053
vt 0.7209 0.0053
vt 0.7451 0.5241
vt 0.6966 0.5241
vt 0.6966 0.0053
vt 0.9633 0.5241
vt 0.9876 0.0053
vt 0.9633 0.0053
vt 0.9391 0.5241
vt 0.9391 0.0053
vt 0.9148 0.0053
vt 0.8906 0.0053
vt 0.9148 0.5241
vt 0.8663 0.5241
vt 0.8663 0.0053
vt 0.8421 0.0053
vt 0.8178 0.5241
vt 0.8178 0.0053
vt 0.7936 0.0053
vt 0.7694 0.5241
vt 0.7694 0.0053
vt 0.7451 0.0053
vt 0.7209 0.0053
vt 0.7451 0.5241
vt 0.6966 0.0053
vt 0.7209 0.5241
vt 0.9918 0.0129
vt 0.9918 0.0129
vt 0.9918 0.0129
vt 0.9918 0.0129
vt 0.9918 0.0129
vt 0.9918 0.0129
vt 0.9918 0.0129
vt 0.9918 0.0129
vt 0.9918 0.0129
vt 0.9918 0.0129
vt 0.9918 0.0129
vt 0.9633 0.6851
vt 0.9876 0.6416
vt 0.9633 0.6416
vt 0.9391 0.6851
vt 0.9391 0.6416
vt 0.9148 0.6416
vt 0.8906 0.6851
vt 0.8906 0.6416
vt 0.8663 0.6416
vt 0.8421 0.6851
vt 0.8421 0.6416
vt 0.8178 0.6416
vt 0.7936 0.6851
vt 0.7936 0.6416
vt 0.7694 0.6851
vt 0.7694 0.6416
vt 0.7451 0.6416
vt 0.7209 0.6416
vt 0.7451 0.6851
vt 0.6966 0.6416
vt 0.7209 0.6851
vt 0.9633 0.9029
vt 0.9876 0.8158
vt 0.9633 0.8158
vt 0.9391 0.9029
vt 0.9391 0.8158
vt 0.9148 0.9029
vt 0.9148 0.8158
vt 0.8906 0.9029
vt 0.8906 0.8158
vt 0.8663 0.9029
vt 0.8421 0.9029
vt 0.8663 0.8158
vt 0.8421 0.8158
vt 0.8178 0.8158
vt 0.7936 0.8158
vt 0.8178 0.9029
vt 0.7694 0.8158
vt 0.7936 0.9029
vt 0.7451 0.8158
vt 0.7694 0.9029
vt 0.7209 0.8158
vt 0.7451 0.9029
vt 0.6966 0.8158
vt 0.7209 0.9029
vt 0.9633 0.99
vt 0.9876 0.9029
vt 0.9391 0.99
vt 0.9148 0.99
vt 0.8906 0.99
vt 0.8663 0.99
vt 0.8421 0.99
vt 0.8178 0.99
vt 0.7936 0.99
vt 0.7694 0.99
vt 0.7451 0.99
vt 0.6966 0.9029
vt 0.7209 0.99
vt 0.9633 0.7287
vt 0.9876 0.7287
vt 0.9391 0.7287
vt 0.9148 0.7287
vt 0.8906 0.7287
vt 0.8663 0.7287
vt 0.8421 0.7287
vt 0.8178 0.7287
vt 0.7936 0.7287
vt 0.7694 0.7287
vt 0.7451 0.7287
vt 0.7209 0.7287
vt 0.6966 0.7287
vt 0.9876 0.6851
vt 0.9148 0.6851
vt 0.8663 0.6851
vt 0.8178 0.6851
vt 0.6966 0.6851
vt 0.9876 0.0053
vt 0.9633 0.0053
vt 0.9391 0.0053
vt 0.9148 0.0053
vt 0.8906 0.0053
vt 0.8663 0.0053
vt 0.8421 0.0053
vt 0.8178 0.0053
vt 0.7936 0.0053
vt 0.7694 0.0053
vt 0.7451 0.0053
vt 0.7209 0.0053
vt 0.6966 0.0053
vt 0.9876 0.5241
vt 0.9391 0.5241
vt 0.8906 0.5241
vt 0.7936 0.5241
vt 0.7451 0.5241
vt 0.9633 0.5241
vt 0.8906 0.5241
vt 0.7936 0.5241
vt 0.7209 0.5241
vt 0.9876 0.5241
vt 0.8906 0.5241
vt 0.8421 0.5241
vt 0.7936 0.5241
vt 0.6966 0.5241
vt 0.9918 0.0129
vt 0.9876 0.99
vt 0.6966 0.99
vn -0.5001 -0.8365 -0.2241
vn 0 -0.9659 -0.2588
vn -0.5 -0.8365 -0.2241
vn -0.866 -0.483 -0.1294
vn -1 -0 -0
vn -1 -0 -0
vn -0.866 0.483 0.1294
vn -0.5 0.8365 0.2241
vn -0.5 0.8365 0.2242
vn -0 0.9659 0.2588
vn -0 0.9659 0.2588
vn 0.5 0.8365 0.2241
vn 0.5 0.8365 0.2242
vn 0.866 0.483 0.1294
vn 1 0 -0
vn 1 0 -0
vn 0.866 -0.483 -0.1294
vn 0.5 -0.8365 -0.2241
vn 0.5 -0.8365 -0.2242
vn 0 -0.9659 -0.2588
vn 0 -0.9659 -0.2588
vn -0.5001 -0.8365 -0.2241
vn 0 -0.9659 -0.2588
vn 0 -0.9659 -0.2588
vn -0.866 -0.483 -0.1294
vn -0.866 -0.483 -0.1294
vn -1 -0 -0
vn -1 -0 -0
vn -0.866 0.483 0.1294
vn -0.5 0.8365 0.2241
vn -0.5 0.8365 0.2241
vn -0 0.9659 0.2588
vn -0 0.9659 0.2588
vn 0.5 0.8365 0.2241
vn 0.5 0.8365 0.2241
vn 0.866 0.4829 0.1294
vn 1 0 -0
vn 1 0 -0
vn 0.866 -0.4829 -0.1294
vn 0.5 -0.8365 -0.2241
vn 0.866 -0.483 -0.1294
vn 0 -0.9659 -0.2588
vn 0 -0.9659 -0.2588
vn -0.5 -0.8365 -0.2241
vn 0 -0.9659 -0.2588
vn -0.5 -0.8365 -0.2241
vn -0.866 -0.483 -0.1294
vn -0.866 -0.483 -0.1294
vn -1 -0 -0
vn -0.866 0.483 0.1294
vn -1 -0 -0
vn -0.5 0.8365 0.2241
vn -0.5 0.8365 0.2241
vn -0 0.9659 0.2588
vn 0.5 0.8365 0.2241
vn 0.5 0.8365 0.2241
vn 0.866 0.483 0.1294
vn 1 0 -0
vn 1 0 -0
vn 0.866 -0.483 -0.1294
vn 0.5 -0.8365 -0.2241
vn 0.866 -0.4829 -0.1294
vn 0 -0.9659 -0.2588
vn 0.5 -0.8365 -0.2241
vn 0 0.2588 -0.9659
vn 0 0.2588 -0.9659
vn 0 0.2589 -0.9659
vn 0 0.2589 -0.9659
vn 0.0002 0.2589 -0.9659
vn 0 0.2589 -0.9659
vn 0 0.2588 -0.9659
vn 0 0.2588 -0.9659
vn 0.0003 0.2588 -0.9659
vn -0.0001 0.2588 -0.9659
vn 0 0.2588 -0.9659
vn -0.4967 -0.8607 -0.1121
vn 0 -0.9906 -0.1368
vn -0.4961 -0.8622 -0.1024
vn -0.8603 -0.5094 -0.018
vn -0.8593 -0.5114 -0.0084
vn -0.9923 -0.0322 0.12
vn -0.8603 0.4502 0.2391
vn -0.8593 0.447 0.2484
vn -0.4962 0.7979 0.3424
vn 0 0.93 0.3677
vn 0 0.9263 0.3768
vn 0.4962 0.7979 0.3424
vn 0.8603 0.4502 0.2391
vn 0.8593 0.447 0.2484
vn 0.9934 -0.0296 0.1105
vn 0.9923 -0.0322 0.12
vn 0.8593 -0.5114 -0.0084
vn 0.4961 -0.8622 -0.1024
vn 0.8603 -0.5094 -0.018
vn 0 -0.9906 -0.1368
vn 0.4967 -0.8606 -0.1121
vn -0.49 -0.7694 -0.4097
vn 0 -0.9733 -0.2296
vn -0.5006 -0.8432 -0.1963
vn -0.8476 -0.4204 -0.3236
vn -0.8665 -0.4879 -0.1051
vn -0.977 0.0548 -0.2063
vn -0.9998 -0.0033 0.0192
vn -0.8444 0.5282 -0.0894
vn -0.8652 0.4805 0.1434
vn -0.4868 0.8735 -0.0042
vn 0 0.9996 0.027
vn -0.4992 0.8342 0.2342
vn 0 0.9636 0.2674
vn 0.4992 0.8342 0.2342
vn 0.8652 0.4805 0.1434
vn 0.4868 0.8735 -0.0042
vn 0.9998 -0.0033 0.0192
vn 0.8444 0.5282 -0.0894
vn 0.8665 -0.488 -0.1051
vn 0.977 0.0548 -0.2063
vn 0.5005 -0.8432 -0.1963
vn 0.8476 -0.4205 -0.3236
vn 0 -0.9733 -0.2296
vn 0.49 -0.7694 -0.4097
vn -0.4691 -0.701 -0.5371
vn 0 -0.8973 -0.4413
vn -0.8117 -0.3669 -0.4544
vn -0.9357 0.0879 -0.3417
vn -0.8089 0.5414 -0.2293
vn -0.4663 0.8723 -0.1472
vn 0.0001 0.9931 -0.1174
vn 0.4664 0.8722 -0.1472
vn 0.8088 0.5415 -0.2292
vn 0.9356 0.0881 -0.3418
vn 0.8117 -0.367 -0.4544
vn 0 -0.8973 -0.4413
vn 0.4692 -0.701 -0.5371
vn -0.4992 -0.8495 -0.1706
vn 0 -0.9787 -0.2052
vn -0.8647 -0.4965 -0.076
vn -0.9985 -0.0143 0.0532
vn -0.8647 0.468 0.1824
vn -0.4992 0.821 0.277
vn 0 0.9502 0.3116
vn 0.4992 0.821 0.277
vn 0.8647 0.468 0.1824
vn 0.9985 -0.0143 0.0532
vn 0.8647 -0.4965 -0.076
vn 0.4993 -0.8495 -0.1706
vn 0 -0.9787 -0.2052
vn 0 -0.9892 -0.1466
vn -0.9934 -0.0296 0.1105
vn -0.4967 0.8014 0.3332
vn 0.4967 0.8014 0.3332
vn 0 -0.9892 -0.1466
vn 0 -0.9659 -0.2588
vn -0.5 -0.8365 -0.2241
vn -0.866 -0.483 -0.1294
vn -1 -0 -0
vn -0.866 0.483 0.1294
vn -0.5 0.8365 0.2241
vn -0 0.9659 0.2588
vn 0.5 0.8365 0.2241
vn 0.866 0.483 0.1294
vn 1 0 -0
vn 0.866 -0.4829 -0.1294
vn 0.5 -0.8365 -0.2241
vn 0 -0.9659 -0.2588
vn 0 -0.9659 -0.2588
vn -0.866 -0.483 -0.1294
vn -0.866 0.483 0.1294
vn 0.866 0.4829 0.1294
vn 0.866 -0.4829 -0.1294
vn -0.5 -0.8365 -0.2241
vn -0.866 0.483 0.1294
vn 0.866 0.483 0.1294
vn 0.5 -0.8365 -0.2241
vn 0 -0.9659 -0.2588
vn -0.866 0.483 0.1294
vn -0 0.9659 0.2588
vn 0.866 0.483 0.1294
vn 0 -0.9659 -0.2588
vn 0.0002 0.2592 -0.9658
vn 0 -0.8234 -0.5675
vn 0 -0.8234 -0.5675
f 1/1/1 2/2/2 3/3/3
f 4/4/4 1/1/1 3/3/3
f 5/5/5 4/4/4 6/6/6
f 7/7/7 5/5/5 6/6/6
f 8/8/8 7/7/7 9/9/9
f 10/10/10 9/9/9 11/11/11
f 12/12/12 11/11/11 13/13/13
f 14/14/14 12/12/12 13/13/13
f 15/15/15 14/14/14 16/16/16
f 17/17/17 15/15/15 16/16/16
f 18/18/18 17/17/17 19/19/19
f 20/20/20 19/19/19 21/21/21
f 22/22/22 23/23/23 24/24/24
f 25/25/25 22/22/22 26/26/26
f 27/27/27 26/26/26 28/28/28
f 29/29/29 27/27/27 28/28/28
f 30/30/30 29/29/29 31/31/31
f 32/32/32 31/31/31 33/33/33
f 34/34/34 33/33/33 35/35/35
f 36/36/36 34/34/34 35/35/35
f 37/37/37 36/36/36 38/38/38
f 39/39/39 37/37/37 38/38/38
f 40/40/40 41/41/41 39/39/39
f 42/42/42 40/40/40 43/43/43
f 44/44/44 45/45/45 46/46/46
f 47/47/47 46/46/46 48/48/48
f 49/49/49 47/47/47 48/48/48
f 50/50/50 51/51/51 49/49/49
f 52/52/52 50/50/50 53/53/53
f 54/54/54 52/52/52 53/53/53
f 55/55/55 54/54/54 56/56/56
f 57/57/57 55/55/55 56/56/56
f 58/58/58 57/57/57 59/59/59
f 60/60/60 58/58/58 59/59/59
f 61/61/61 62/62/62 60/60/60
f 63/63/63 64/64/64 61/61/61
f 65/65/65 66/66/66 67/67/67
f 68/68/68 65/65/65 69/69/69
f 70/70/70 71/71/71 72/72/72
f 71/71/71 73/73/73 72/72/72
f 66/66/66 70/70/70 72/72/72
f 74/74/74 69/69/69 65/65/65
f 75/75/75 66/66/66 72/72/72
f 76/76/76 77/77/77 78/78/78
f 79/79/79 78/78/78 80/80/80
f 81/81/81 79/79/79 80/80/80
f 82/82/82 81/81/81 83/83/83
f 84/84/84 82/82/82 83/83/83
f 85/85/85 84/84/84 86/86/86
f 87/87/87 85/85/85 86/86/86
f 88/88/88 87/87/87 89/89/89
f 90/90/90 89/89/89 91/91/91
f 92/92/92 90/90/90 91/91/91
f 93/93/93 94/94/94 92/92/92
f 95/95/95 96/96/96 93/93/93
f 97/97/97 98/98/98 99/99/99
f 99/99/99 100/100/100 97/97/97
f 101/101/101 102/102/102 100/100/100
f 103/103/103 104/104/104 102/102/102
f 105/105/105 106/106/106 104/104/104
f 107/107/107 108/108/108 109/109/109
f 110/110/110 107/107/107 109/109/109
f 111/111/111 112/112/112 110/110/110
f 113/113/113 114/114/114 111/111/111
f 115/115/115 116/116/116 113/113/113
f 117/117/117 118/118/118 115/115/115
f 119/119/119 120/120/120 117/117/117
f 121/121/121 122/122/122 97/97/97
f 123/123/123 97/97/97 100/100/100
f 100/100/100 124/124/124 123/123/123
f 102/102/102 125/125/125 124/124/124
f 126/126/126 104/104/104 106/106/106
f 127/127/127 106/106/106 107/107/107
f 112/112/112 127/127/127 107/107/107
f 114/114/114 128/128/128 112/112/112
f 116/116/116 129/129/129 114/114/114
f 118/118/118 130/130/130 116/116/116
f 120/120/120 131/131/131 118/118/118
f 132/132/132 133/133/133 120/120/120
f 134/134/134 98/98/98 135/135/135
f 101/101/101 134/134/134 136/136/136
f 103/103/103 136/136/136 137/137/137
f 138/138/138 103/103/103 137/137/137
f 139/139/139 105/105/105 138/138/138
f 109/109/109 139/139/139 140/140/140
f 141/141/141 109/109/109 140/140/140
f 111/111/111 141/141/141 142/142/142
f 143/143/143 111/111/111 142/142/142
f 144/144/144 113/113/113 143/143/143
f 145/145/145 115/115/115 144/144/144
f 119/119/119 145/145/145 146/146/146
f 76/76/76 135/135/135 147/147/147
f 136/136/136 76/76/76 79/79/79
f 148/148/148 136/136/136 79/79/79
f 138/138/138 148/148/148 82/82/82
f 149/149/149 138/138/138 82/82/82
f 140/140/140 149/149/149 85/85/85
f 150/150/150 140/140/140 85/85/85
f 142/142/142 150/150/150 88/88/88
f 90/90/90 142/142/142 88/88/88
f 144/144/144 90/90/90 94/94/94
f 96/96/96 144/144/144 94/94/94
f 146/146/146 96/96/96 151/151/151
f 78/78/78 152/152/152 153/153/153
f 80/80/80 153/153/153 154/154/154
f 155/155/155 80/80/80 154/154/154
f 83/83/83 155/155/155 156/156/156
f 157/157/157 83/83/83 156/156/156
f 86/86/86 157/157/157 158/158/158
f 159/159/159 86/86/86 158/158/158
f 89/89/89 159/159/159 160/160/160
f 91/91/91 160/160/160 161/161/161
f 92/92/92 161/161/161 162/162/162
f 163/163/163 92/92/92 162/162/162
f 164/164/164 93/93/93 163/163/163
f 1/1/1 165/165/165 2/2/2
f 4/4/4 166/166/166 1/1/1
f 5/5/5 166/166/166 4/4/4
f 7/7/7 167/167/167 5/5/5
f 8/8/8 167/167/167 7/7/7
f 10/10/10 8/8/8 9/9/9
f 12/12/12 10/10/10 11/11/11
f 14/14/14 168/168/168 12/12/12
f 15/15/15 168/168/168 14/14/14
f 17/17/17 169/169/169 15/15/15
f 18/18/18 169/169/169 17/17/17
f 20/20/20 18/18/18 19/19/19
f 22/22/22 170/170/170 23/23/23
f 25/25/25 170/170/170 22/22/22
f 27/27/27 25/25/25 26/26/26
f 29/29/29 171/171/171 27/27/27
f 30/30/30 171/171/171 29/29/29
f 32/32/32 30/30/30 31/31/31
f 34/34/34 32/32/32 33/33/33
f 36/36/36 172/172/172 34/34/34
f 37/37/37 172/172/172 36/36/36
f 39/39/39 41/41/41 37/37/37
f 40/40/40 173/173/173 41/41/41
f 42/42/42 173/173/173 40/40/40
f 44/44/44 174/174/174 45/45/45
f 47/47/47 44/44/44 46/46/46
f 49/49/49 51/51/51 47/47/47
f 50/50/50 175/175/175 51/51/51
f 52/52/52 175/175/175 50/50/50
f 54/54/54 176/176/176 52/52/52
f 55/55/55 176/176/176 54/54/54
f 57/57/57 177/177/177 55/55/55
f 58/58/58 177/177/177 57/57/57
f 60/60/60 62/62/62 58/58/58
f 61/61/61 64/64/64 62/62/62
f 63/63/63 178/178/178 64/64/64
f 68/68/68 70/70/70 65/65/65
f 70/70/70 179/179/179 71/71/71
f 66/66/66 65/65/65 70/70/70
f 76/76/76 147/147/147 77/77/77
f 79/79/79 76/76/76 78/78/78
f 81/81/81 148/148/148 79/79/79
f 82/82/82 148/148/148 81/81/81
f 84/84/84 149/149/149 82/82/82
f 85/85/85 149/149/149 84/84/84
f 87/87/87 150/150/150 85/85/85
f 88/88/88 150/150/150 87/87/87
f 90/90/90 88/88/88 89/89/89
f 92/92/92 94/94/94 90/90/90
f 93/93/93 96/96/96 94/94/94
f 95/95/95 151/151/151 96/96/96
f 97/97/97 122/122/122 98/98/98
f 99/99/99 101/101/101 100/100/100
f 101/101/101 103/103/103 102/102/102
f 103/103/103 105/105/105 104/104/104
f 105/105/105 108/108/108 106/106/106
f 107/107/107 106/106/106 108/108/108
f 110/110/110 112/112/112 107/107/107
f 111/111/111 114/114/114 112/112/112
f 113/113/113 116/116/116 114/114/114
f 115/115/115 118/118/118 116/116/116
f 117/117/117 120/120/120 118/118/118
f 119/119/119 132/132/132 120/120/120
f 121/121/121 180/180/180 122/122/122
f 123/123/123 121/121/121 97/97/97
f 100/100/100 102/102/102 124/124/124
f 102/102/102 104/104/104 125/125/125
f 126/126/126 125/125/125 104/104/104
f 127/127/127 126/126/126 106/106/106
f 112/112/112 128/128/128 127/127/127
f 114/114/114 129/129/129 128/128/128
f 116/116/116 130/130/130 129/129/129
f 118/118/118 131/131/131 130/130/130
f 120/120/120 133/133/133 131/131/131
f 132/132/132 181/181/181 133/133/133
f 134/134/134 99/99/99 98/98/98
f 101/101/101 99/99/99 134/134/134
f 103/103/103 101/101/101 136/136/136
f 138/138/138 105/105/105 103/103/103
f 139/139/139 108/108/108 105/105/105
f 109/109/109 108/108/108 139/139/139
f 141/141/141 110/110/110 109/109/109
f 111/111/111 110/110/110 141/141/141
f 143/143/143 113/113/113 111/111/111
f 144/144/144 115/115/115 113/113/113
f 145/145/145 117/117/117 115/115/115
f 119/119/119 117/117/117 145/145/145
f 76/76/76 134/134/134 135/135/135
f 136/136/136 134/134/134 76/76/76
f 148/148/148 137/137/137 136/136/136
f 138/138/138 137/137/137 148/148/148
f 149/149/149 139/139/139 138/138/138
f 140/140/140 139/139/139 149/149/149
f 150/150/150 141/141/141 140/140/140
f 142/142/142 141/141/141 150/150/150
f 90/90/90 143/143/143 142/142/142
f 144/144/144 143/143/143 90/90/90
f 96/96/96 145/145/145 144/144/144
f 146/146/146 145/145/145 96/96/96
f 78/78/78 77/77/77 152/152/152
f 80/80/80 78/78/78 153/153/153
f 155/155/155 81/81/81 80/80/80
f 83/83/83 81/81/81 155/155/155
f 157/157/157 84/84/84 83/83/83
f 86/86/86 84/84/84 157/157/157
f 159/159/159 87/87/87 86/86/86
f 89/89/89 87/87/87 159/159/159
f 91/91/91 89/89/89 160/160/160
f 92/92/92 91/91/91 161/161/161
f 163/163/163 93/93/93 92/92/92
f 164/164/164 95/95/95 93/93/93
