v -66.8334 665.982 -257.286
v -66.8334 666.759 -260.337
v -66.8334 665.982 -258.609
v -66.8334 672.375 -262.713
v -66.8334 670.594 -253.79
v -66.8334 672.375 -254.216
v -66.8334 674.156 -260.771
v -66.8334 674.156 -255.747
v -66.8334 668.285 -261.307
v -66.8334 668.583 -254.074
v -66.8334 666.759 -255.351
v -66.8334 662.721 -267.934
v -66.8334 661.125 -265.071
v -59.957 672.375 -254.216
v -66.8334 670.594 -253.79
v -59.957 670.594 -253.79
v -66.8334 674.156 -255.747
v -66.8334 672.375 -254.216
v -59.957 668.285 -261.307
v -66.8334 666.759 -260.337
v -66.8334 668.285 -261.307
v -59.957 668.583 -254.074
v -66.8334 666.759 -255.351
v -59.957 666.759 -255.351
v -59.957 668.285 -261.307
v -66.8334 661.125 -265.071
v -59.957 661.125 -265.071
v -59.957 661.125 -265.071
v -66.8334 662.721 -267.934
v -59.957 662.721 -267.934
v -59.957 665.982 -257.286
v -59.957 666.759 -260.337
v -59.957 666.759 -255.351
v -59.957 670.594 -253.79
v -59.957 672.375 -262.713
v -59.957 672.375 -254.216
v -59.957 674.156 -260.771
v -59.957 674.156 -255.747
v -59.957 668.285 -261.307
v -59.957 668.583 -254.074
v -59.957 662.721 -267.934
v -59.957 670.594 -263.752
v -59.957 665.982 -258.609
v -66.8334 665.982 -257.286
v -66.8334 665.982 -258.609
v -59.957 665.982 -257.286
v -66.8334 668.583 -254.074
v -59.957 666.759 -260.337
v -66.8334 670.594 -263.752
v -59.957 674.156 -255.747
v -66.8334 668.285 -261.307
v -66.8334 661.125 -265.071
v -59.957 665.982 -258.609
v -59.957 661.125 -265.071
vt 0.1992 0.5029
vt 0.1809 0.4846
vt 0.1937 0.4935
vt 0.1311 0.4913
vt 0.1813 0.5471
vt 0.1669 0.5515
vt 0.1267 0.5126
vt 0.1478 0.5482
vt 0.166 0.4841
vt 0.1943 0.5366
vt 0.2019 0.5199
vt 0.1776 0.4138
vt 0.2009 0.4273
vt 0.0646 0.2653
vt 0.1179 0.2792
vt 0.0645 0.2791
vt 0.118 0.2515
vt 0.1179 0.2654
vt 0.0645 0.3594
vt 0.1178 0.3476
vt 0.1178 0.3595
vt 0.0645 0.2947
vt 0.1179 0.3089
vt 0.0645 0.3089
vt 0.0645 0.3594
vt 0.1178 0.415
vt 0.0644 0.415
vt 0.0644 0.415
vt 0.1177 0.4373
vt 0.0644 0.4372
vt 0.1564 0.5656
vt 0.1821 0.5684
vt 0.1415 0.5741
vt 0.1331 0.6072
vt 0.2079 0.6115
vt 0.1386 0.6212
vt 0.1941 0.6282
vt 0.1531 0.634
vt 0.1918 0.5797
vt 0.1331 0.5904
vt 0.2395 0.5268
vt 0.2144 0.5958
vt 0.0645 0.3342
vt 0.1179 0.324
vt 0.1179 0.3342
vt 0.0645 0.3239
vt 0.1179 0.2948
vt 0.0645 0.3476
vt 0.1394 0.4765
vt 0.0646 0.2515
vt 0.1178 0.3595
vt 0.1178 0.415
vt 0.1671 0.564
vt 0.2143 0.517
vn -1 0 0
vn -1 0 0
vn -1 0 0
vn -1 0 0
vn -1 0 0
vn -1 0 0
vn -1 0 0
vn -1 0 0
vn -1 0 0
vn -1 0 0
vn -1 0 0
vn -1 0 0
vn -1 0 0
vn 0 0.4552 0.8904
vn 0 0.0474 0.9989
vn 0 0.0474 0.9989
vn 0 0.6519 0.7583
vn 0 0.4552 0.8904
vn 0 -0.5369 -0.8437
vn 0 -0.7561 -0.6544
vn 0 -0.5369 -0.8436
vn 0 -0.367 0.9302
vn 0 -0.7832 0.6217
vn 0 -0.7832 0.6217
vn 0 -0.4652 0.8852
vn 0 -0.4652 0.8852
vn 0 -0.4652 0.8852
vn 0 -0.8733 -0.4871
vn 0 -0.8734 -0.4871
vn 0 -0.8733 -0.4871
vn 1 0 0
vn 1 0 0
vn 1 0 0
vn 1 0 0
vn 1 0 0
vn 1 0 0
vn 1 0 0
vn 1 0 0
vn 1 0 0
vn 1 0 0
vn 1 0 0
vn 1 0 0
vn 0 -0.9777 -0.2099
vn 0 -0.9818 0.19
vn 0 -0.9777 -0.2099
vn 0 -0.9818 0.19
vn 0 -0.367 0.9302
vn 0 -0.7561 -0.6545
vn -1 0 0
vn 0 0.6519 0.7583
vn 0 -0.4652 0.8852
vn 0 -0.8734 -0.4871
vn 1 0 0
vn 1 0 0
f 1/1/1 2/2/2 3/3/3
f 4/4/4 5/5/5 6/6/6
f 7/7/7 6/6/6 8/8/8
f 5/5/5 9/9/9 10/10/10
f 11/11/11 9/9/9 2/2/2
f 9/9/9 12/12/12 13/13/13
f 14/14/14 15/15/15 16/16/16
f 14/14/14 17/17/17 18/18/18
f 19/19/19 20/20/20 21/21/21
f 22/22/22 23/23/23 24/24/24
f 25/25/25 26/26/26 27/27/27
f 28/28/28 29/29/29 30/30/30
f 31/31/31 32/32/32 33/33/33
f 34/34/34 35/35/35 36/36/36
f 36/36/36 37/37/37 38/38/38
f 39/39/39 34/34/34 40/40/40
f 33/33/33 39/39/39 40/40/40
f 39/39/39 41/41/41 42/42/42
f 43/43/43 44/44/44 45/45/45
f 46/46/46 23/23/23 44/44/44
f 22/22/22 15/15/15 47/47/47
f 48/48/48 45/45/45 20/20/20
f 1/1/1 11/11/11 2/2/2
f 4/4/4 49/49/49 5/5/5
f 7/7/7 4/4/4 6/6/6
f 5/5/5 49/49/49 9/9/9
f 11/11/11 10/10/10 9/9/9
f 9/9/9 49/49/49 12/12/12
f 14/14/14 18/18/18 15/15/15
f 14/14/14 50/50/50 17/17/17
f 19/19/19 48/48/48 20/20/20
f 22/22/22 47/47/47 23/23/23
f 25/25/25 51/51/51 26/26/26
f 28/28/28 52/52/52 29/29/29
f 31/31/31 53/53/53 32/32/32
f 34/34/34 42/42/42 35/35/35
f 36/36/36 35/35/35 37/37/37
f 39/39/39 42/42/42 34/34/34
f 33/33/33 32/32/32 39/39/39
f 39/39/39 54/54/54 41/41/41
f 43/43/43 46/46/46 44/44/44
f 46/46/46 24/24/24 23/23/23
f 22/22/22 16/16/16 15/15/15
f 48/48/48 43/43/43 45/45/45
