v -808.291 665.982 -301.958
v -808.291 666.759 -298.907
v -808.291 666.759 -303.893
v -808.291 670.594 -305.455
v -808.291 672.375 -296.532
v -808.291 672.375 -305.028
v -808.291 674.156 -298.473
v -808.291 674.156 -303.497
v -808.291 668.285 -297.937
v -808.291 668.583 -305.17
v -808.291 662.721 -291.31
v -808.291 670.594 -295.492
v -801.414 672.375 -305.028
v -808.291 670.594 -305.455
v -808.291 672.375 -305.028
v -808.291 674.156 -303.497
v -801.414 674.156 -303.497
v -801.414 668.285 -297.937
v -808.291 666.759 -298.907
v -801.414 666.759 -298.907
v -801.414 668.583 -305.17
v -808.291 666.759 -303.893
v -808.291 668.583 -305.17
v -801.414 668.285 -297.937
v -808.291 661.125 -294.174
v -808.291 668.285 -297.937
v -801.414 661.125 -294.174
v -808.291 662.721 -291.31
v -808.291 661.125 -294.174
v -801.414 665.982 -301.958
v -801.414 666.759 -298.907
v -801.414 665.982 -300.635
v -801.414 672.375 -296.532
v -801.414 670.594 -305.455
v -801.414 672.375 -305.028
v -801.414 674.156 -298.473
v -801.414 674.156 -303.497
v -801.414 668.285 -297.937
v -801.414 668.583 -305.17
v -801.414 666.759 -303.893
v -801.414 662.721 -291.31
v -801.414 661.125 -294.174
v -801.414 665.982 -300.635
v -808.291 665.982 -301.958
v -801.414 665.982 -301.958
v -801.414 666.759 -303.893
v -801.414 670.594 -305.455
v -808.291 665.982 -300.635
v -808.291 665.982 -300.635
v -808.291 661.125 -294.174
v -808.291 668.285 -297.937
v -801.414 661.125 -294.174
v -801.414 662.721 -291.31
v -801.414 670.594 -295.492
vt 0.1992 0.5029
vt 0.1809 0.4846
vt 0.2019 0.5199
vt 0.1813 0.5471
vt 0.1311 0.4913
vt 0.1669 0.5515
vt 0.1267 0.5126
vt 0.1478 0.5482
vt 0.166 0.4841
vt 0.1943 0.5366
vt 0.1776 0.4138
vt 0.1394 0.4765
vt 0.0646 0.2653
vt 0.1179 0.2792
vt 0.1179 0.2654
vt 0.118 0.2515
vt 0.0646 0.2515
vt 0.0645 0.3594
vt 0.1178 0.3476
vt 0.0645 0.3476
vt 0.0645 0.2947
vt 0.1179 0.3089
vt 0.1179 0.2948
vt 0.0645 0.3594
vt 0.1178 0.415
vt 0.1178 0.3595
vt 0.0644 0.415
vt 0.1177 0.4373
vt 0.1178 0.415
vt 0.1564 0.5656
vt 0.1821 0.5684
vt 0.1671 0.564
vt 0.2079 0.6115
vt 0.1331 0.6072
vt 0.1386 0.6212
vt 0.1941 0.6282
vt 0.1531 0.634
vt 0.1918 0.5797
vt 0.1331 0.5904
vt 0.1415 0.5741
vt 0.2395 0.5268
vt 0.2143 0.517
vt 0.0645 0.3342
vt 0.1179 0.324
vt 0.0645 0.3239
vt 0.0645 0.3089
vt 0.0645 0.2791
vt 0.1179 0.3342
vt 0.1937 0.4935
vt 0.2009 0.4273
vt 0.1178 0.3595
vt 0.0644 0.415
vt 0.0644 0.4372
vt 0.2144 0.5958
vn -1 0 0
vn -1 0 0
vn -1 0 0
vn -1 0 0
vn -1 0 0
vn -1 0 0
vn -1 0 0
vn -1 -0.0001 0
vn -1 0 0
vn -1 0 0
vn -1 0 0
vn -1 0 0
vn 0 0.4552 -0.8904
vn 0 0.0474 -0.9989
vn 0 0.4552 -0.8904
vn 0 0.6518 -0.7584
vn 0 0.6519 -0.7583
vn 0 -0.5368 0.8437
vn 0 -0.7561 0.6545
vn 0 -0.7561 0.6545
vn 0 -0.367 -0.9302
vn 0 -0.7832 -0.6217
vn 0 -0.367 -0.9302
vn 0 -0.4652 -0.8852
vn 0 -0.4652 -0.8852
vn 0 -0.4652 -0.8852
vn 0 -0.8733 0.4871
vn 0 -0.8734 0.4871
vn 0 -0.8734 0.4871
vn 1 0 0
vn 1 0 0
vn 1 0 0
vn 1 0 0
vn 1 0 0
vn 1 0 0
vn 1 -0.0001 0
vn 1 0.0001 0
vn 1 0 0
vn 1 0 0
vn 1 0 0
vn 1 0 0
vn 1 0 0
vn 0 -0.9777 0.2099
vn 0 -0.9818 -0.1899
vn 0 -0.9818 -0.19
vn 0 -0.7832 -0.6218
vn 0 0.0473 -0.9989
vn 0 -0.9777 0.2099
vn -1 0 0
vn -1 0 0
vn 0 -0.5369 0.8437
vn 0 -0.4652 -0.8852
vn 0 -0.8733 0.4871
vn 1 0 0
f 1/1/1 2/2/2 3/3/3
f 4/4/4 5/5/5 6/6/6
f 6/6/6 7/7/7 8/8/8
f 9/9/9 4/4/4 10/10/10
f 3/3/3 9/9/9 10/10/10
f 9/9/9 11/11/11 12/12/12
f 13/13/13 14/14/14 15/15/15
f 13/13/13 16/16/16 17/17/17
f 18/18/18 19/19/19 20/20/20
f 21/21/21 22/22/22 23/23/23
f 24/24/24 25/25/25 26/26/26
f 27/27/27 28/28/28 29/29/29
f 30/30/30 31/31/31 32/32/32
f 33/33/33 34/34/34 35/35/35
f 36/36/36 35/35/35 37/37/37
f 34/34/34 38/38/38 39/39/39
f 40/40/40 38/38/38 31/31/31
f 38/38/38 41/41/41 42/42/42
f 43/43/43 44/44/44 45/45/45
f 45/45/45 22/22/22 46/46/46
f 21/21/21 14/14/14 47/47/47
f 20/20/20 48/48/48 43/43/43
f 1/1/1 49/49/49 2/2/2
f 4/4/4 12/12/12 5/5/5
f 6/6/6 5/5/5 7/7/7
f 9/9/9 12/12/12 4/4/4
f 3/3/3 2/2/2 9/9/9
f 9/9/9 50/50/50 11/11/11
f 13/13/13 47/47/47 14/14/14
f 13/13/13 15/15/15 16/16/16
f 18/18/18 51/51/51 19/19/19
f 21/21/21 46/46/46 22/22/22
f 24/24/24 52/52/52 25/25/25
f 27/27/27 53/53/53 28/28/28
f 30/30/30 40/40/40 31/31/31
f 33/33/33 54/54/54 34/34/34
f 36/36/36 33/33/33 35/35/35
f 34/34/34 54/54/54 38/38/38
f 40/40/40 39/39/39 38/38/38
f 38/38/38 54/54/54 41/41/41
f 43/43/43 48/48/48 44/44/44
f 45/45/45 44/44/44 22/22/22
f 21/21/21 23/23/23 14/14/14
f 20/20/20 19/19/19 48/48/48
