v -458.814 674.124 -275.425
v -447.225 674.124 -284.65
v -447.225 674.124 -275.425
v -462.226 687.219 -275.425
v -447.225 687.219 -284.65
v -462.226 687.219 -284.65
v -458.814 674.124 -284.65
v -459.98 676.028 -284.65
v -447.225 674.124 -284.65
v -459.98 676.028 -284.65
v -458.814 674.124 -275.425
v -459.98 676.028 -275.425
v -458.814 674.124 -275.425
v -447.225 674.124 -275.425
v -459.98 676.028 -275.425
v -447.225 687.219 -284.65
v -462.226 687.219 -284.65
v -462.226 677.063 -284.65
v -462.226 687.219 -275.425
v -462.226 687.219 -284.65
v -447.225 687.219 -275.425
v -462.226 677.063 -284.65
v -462.226 677.063 -275.425
v -462.226 687.219 -275.425
v -462.226 677.063 -275.425
v -458.814 674.124 -284.65
v -447.225 687.219 -275.425
v -458.814 674.124 -284.65
v -462.226 677.063 -275.425
v -462.226 677.063 -284.65
vt 0.5979 0.9132
vt 0.6529 0.9823
vt 0.5979 0.9823
vt 0.5979 0.826
vt 0.6529 0.7366
vt 0.6529 0.826
vt 0.5153 0.8138
vt 0.5266 0.8068
vt 0.5153 0.8829
vt 0.6529 0.8999
vt 0.5979 0.9132
vt 0.5979 0.8999
vt 0.5979 0.9132
vt 0.5979 0.9823
vt 0.5866 0.9063
vt 0.5933 0.8829
vt 0.5933 0.7934
vt 0.6529 0.8865
vt 0.5979 0.826
vt 0.6529 0.826
vt 0.5198 0.9823
vt 0.5328 0.7934
vt 0.5979 0.8865
vt 0.5199 0.8929
vt 0.5804 0.8929
vt 0.6529 0.9132
vt 0.5979 0.7366
vt 0.6529 0.9132
vt 0.5979 0.8865
vt 0.6529 0.8865
vn 0 -1 0
vn 0 -1 0
vn 0 -1 0
vn 0 1 0
vn 0 1 0
vn 0 1 0
vn 0 0 -1
vn 0 0 -1
vn 0 0 -1
vn -0.6643 -0.7475 0
vn -0.8528 -0.5223 0
vn -0.6643 -0.7475 0
vn 0 0 1
vn 0 0 1
vn 0 0 1
vn 0 0 -1
vn 0 0 -1
vn -1 0 0
vn -1 0 0
vn -1 0 0
vn 0 0 1
vn 0 0 -1
vn -0.4185 -0.9082 0
vn 0 0 1
vn 0 0 1
vn 0 -1 0
vn 0 1 0
vn -0.8528 -0.5223 0
vn -1 0 0
vn -0.4185 -0.9082 0
f 1/1/1 2/2/2 3/3/3
f 4/4/4 5/5/5 6/6/6
f 7/7/7 8/8/8 9/9/9
f 10/10/10 11/11/11 12/12/12
f 13/13/13 14/14/14 15/15/15
f 16/16/16 8/8/8 17/17/17
f 18/18/18 19/19/19 20/20/20
f 21/21/21 15/15/15 14/14/14
f 17/17/17 8/8/8 22/22/22
f 23/23/23 10/10/10 12/12/12
f 15/15/15 24/24/24 25/25/25
f 1/1/1 26/26/26 2/2/2
f 4/4/4 27/27/27 5/5/5
f 10/10/10 28/28/28 11/11/11
f 16/16/16 9/9/9 8/8/8
f 18/18/18 29/29/29 19/19/19
f 21/21/21 24/24/24 15/15/15
f 23/23/23 30/30/30 10/10/10
