v 693.763 990.795 -247.1
v 693.763 927.363 -274.778
v 693.763 927.363 -247.1
v 721.82 927.363 -241.31
v 718.709 1011.36 -241.31
v 718.709 927.363 -241.31
v 721.82 1014.47 -241.31
v 721.82 927.363 -274.778
v 721.82 1014.47 -274.778
v 693.763 990.795 -247.1
v 713.959 927.363 -247.1
v 713.959 1006.61 -247.1
v 713.959 1006.61 -247.1
v 718.709 927.363 -241.31
v 718.709 1011.36 -241.31
v 675.242 1006.61 -247.1
v 675.242 990.795 -247.1
v 713.959 1006.61 -247.1
v 675.242 1011.36 -241.31
v 675.242 1006.61 -247.1
v 693.763 990.795 -247.1
v 675.242 990.795 -274.777
v 693.763 990.795 -274.778
v 675.242 1014.47 -241.31
v 675.242 1011.36 -241.31
v 721.82 1014.47 -241.31
v 675.242 1014.47 -274.777
v 675.242 1014.47 -241.31
v 656.72 990.795 -274.777
v 656.72 927.363 -247.1
v 656.72 927.363 -274.777
v 634.601 1011.36 -241.31
v 631.49 927.363 -241.31
v 634.601 927.363 -241.31
v 631.49 1014.47 -241.31
v 631.49 927.363 -274.777
v 631.49 927.363 -241.31
v 656.72 990.795 -247.1
v 639.351 927.363 -247.1
v 656.72 927.363 -247.1
v 639.351 1006.61 -247.1
v 634.601 927.363 -241.31
v 639.351 927.363 -247.1
v 639.351 1006.61 -247.1
v 639.351 1006.61 -247.1
v 634.601 1011.36 -241.31
v 656.72 990.795 -247.1
v 675.242 990.795 -247.1
v 631.49 1014.47 -274.777
v 693.763 990.795 -274.778
v 721.82 1014.47 -241.31
v 721.82 927.363 -241.31
v 693.763 927.363 -247.1
v 713.959 927.363 -247.1
v 718.709 1011.36 -241.31
v 721.82 1014.47 -274.778
v 656.72 990.795 -247.1
v 631.49 1014.47 -241.31
v 631.49 1014.47 -274.777
v 634.601 1011.36 -241.31
v 656.72 990.795 -274.777
v 631.49 1014.47 -241.31
vt 0.7878 0.1543
vt 0.9965 0.0638
vt 0.9965 0.1543
vt 0.9965 0.2169
vt 0.7384 0.2067
vt 0.9965 0.2067
vt 0.7282 0.2169
vt 0.9965 0.3263
vt 0.7282 0.3263
vt 0.7878 0.1543
vt 0.9965 0.1878
vt 0.7541 0.1878
vt 0.7541 0.1878
vt 0.9965 0.2067
vt 0.7384 0.2067
vt 0.8487 0.1878
vt 0.8487 0.1543
vt 0.7541 0.1878
vt 0.8487 0.2067
vt 0.8487 0.1878
vt 0.7878 0.1543
vt 0.8487 0.0638
vt 0.7878 0.0638
vt 0.8487 0.2169
vt 0.8487 0.2067
vt 0.7282 0.2169
vt 0.8487 0.3263
vt 0.8487 0.2169
vt 0.7878 0.0638
vt 0.9965 0.1543
vt 0.9965 0.0638
vt 0.7384 0.2067
vt 0.9965 0.2169
vt 0.9965 0.2067
vt 0.7282 0.2169
vt 0.9965 0.3263
vt 0.9965 0.2169
vt 0.7878 0.1543
vt 0.9965 0.1878
vt 0.9965 0.1543
vt 0.7541 0.1878
vt 0.9965 0.2067
vt 0.9965 0.1878
vt 0.7541 0.1878
vt 0.7541 0.1878
vt 0.7384 0.2067
vt 0.7878 0.1543
vt 0.8487 0.1543
vt 0.7282 0.3263
vt 0.7878 0.0638
vt 0.7282 0.2169
vt 0.9965 0.2169
vt 0.9965 0.1543
vt 0.9965 0.1878
vt 0.7384 0.2067
vt 0.7282 0.3263
vt 0.7878 0.1543
vt 0.7282 0.2169
vt 0.7282 0.3263
vt 0.7384 0.2067
vt 0.7878 0.0638
vt 0.7282 0.2169
vn -1 0 0
vn -1 0 0
vn -1 0 0
vn 0 -0 1
vn 0 -0 1
vn 0 -0 1
vn 1 0 0
vn 1 0 0
vn 1 0 0
vn 0 -0 1
vn 0 -0 1
vn 0 -0 1
vn -0.7732 -0 0.6342
vn -0.7731 0 0.6342
vn -0.7732 -0 0.6342
vn 0 -0 1
vn 0 -0 1
vn 0 -0.7731 0.6342
vn 0 -0.7731 0.6342
vn 0 -0.7731 0.6342
vn 0 -1 0
vn 0 -1 0
vn 0 -1 0
vn 0 -0 1
vn 0 -0 1
vn 0 1 0
vn 0 1 0
vn 0 1 0
vn 1 0 0
vn 1 0 0
vn 1 0 0
vn 0 -0 1
vn 0 -0 1
vn 0 -0 1
vn -1 0 0
vn -1 0 0
vn -1 0 0
vn 0 -0 1
vn 0 -0 1
vn 0 -0 1
vn 0.7731 0 0.6342
vn 0.7731 0 0.6342
vn 0.7731 0 0.6342
vn 0 -0 1
vn 0 -0.7731 0.6342
vn 0 -0.7731 0.6342
vn 0 -1 0
vn 0 -1 0
vn 0 1 0
vn -1 0 0
vn 0 -0 1
vn 1 0 0
vn 0 -0 1
vn -0.7731 0 0.6342
vn 0 -0.7731 0.6342
vn 0 1 0
vn 1 0 0
vn 0 -0 1
vn -1 0 0
vn 0.7731 0 0.6342
vn 0 -1 0
vn 0 1 0
f 1/1/1 2/2/2 3/3/3
f 4/4/4 5/5/5 6/6/6
f 7/7/7 8/8/8 9/9/9
f 10/10/10 11/11/11 12/12/12
f 13/13/13 14/14/14 15/15/15
f 10/10/10 16/16/16 17/17/17
f 18/18/18 19/19/19 20/20/20
f 21/21/21 22/22/22 23/23/23
f 5/5/5 24/24/24 25/25/25
f 26/26/26 27/27/27 28/28/28
f 29/29/29 30/30/30 31/31/31
f 32/32/32 33/33/33 34/34/34
f 35/35/35 36/36/36 37/37/37
f 38/38/38 39/39/39 40/40/40
f 41/41/41 42/42/42 43/43/43
f 38/38/38 16/16/16 44/44/44
f 45/45/45 19/19/19 46/46/46
f 47/47/47 22/22/22 48/48/48
f 24/24/24 32/32/32 25/25/25
f 49/49/49 28/28/28 27/27/27
f 1/1/1 50/50/50 2/2/2
f 4/4/4 51/51/51 5/5/5
f 7/7/7 52/52/52 8/8/8
f 10/10/10 53/53/53 11/11/11
f 13/13/13 54/54/54 14/14/14
f 10/10/10 12/12/12 16/16/16
f 18/18/18 55/55/55 19/19/19
f 21/21/21 48/48/48 22/22/22
f 5/5/5 51/51/51 24/24/24
f 26/26/26 56/56/56 27/27/27
f 29/29/29 57/57/57 30/30/30
f 32/32/32 58/58/58 33/33/33
f 35/35/35 59/59/59 36/36/36
f 38/38/38 44/44/44 39/39/39
f 41/41/41 60/60/60 42/42/42
f 38/38/38 17/17/17 16/16/16
f 45/45/45 20/20/20 19/19/19
f 47/47/47 61/61/61 22/22/22
f 24/24/24 58/58/58 32/32/32
f 49/49/49 62/62/62 28/28/28
