v 1297.16 186.521 162.578
v 1303.27 192.985 161.657
v 1303.27 186.521 162.578
v 1295.65 192.985 162.471
v 1296.43 186.521 229.392
v 1295.65 192.985 230.368
v 1289.7 213.249 237.376
v 1289.7 208.886 155.421
v 1289.7 208.886 237.418
v 1303.27 208.886 238.249
v 1290.44 213.249 238.249
v 1290.4 208.886 238.249
v 1297.75 182.652 163.254
v 1303.27 184.587 160.647
v 1303.27 182.652 163.254
v 1294.8 184.587 161.618
v 1297 182.652 228.7
v 1294.8 184.587 231.221
v 1297.16 186.521 162.578
v 1303.27 184.587 160.647
v 1295.62 184.587 160.647
v 1296.43 186.521 229.392
v 1294.8 184.587 161.618
v 1294.8 184.587 231.221
v 1290.44 213.249 154.59
v 1303.27 215.43 152.162
v 1303.27 213.249 154.59
v 1287.66 215.43 239.712
v 1289.7 213.249 155.463
v 1289.7 213.249 237.376
v 1290.51 217.612 154.59
v 1303.27 215.43 152.162
v 1288.47 215.43 152.162
v 1289.7 217.612 155.555
v 1287.66 215.43 239.712
v 1289.7 217.612 237.284
v 1293.74 201.984 158.536
v 1303.27 208.886 154.59
v 1303.27 201.984 158.536
v 1289.7 208.886 155.421
v 1293.03 201.984 233.455
v 1289.7 208.886 237.418
v 1296.34 192.985 161.657
v 1293.03 201.984 159.384
v 1297.16 186.521 162.578
v 1295.65 192.985 162.471
v 1296.34 192.985 161.657
v 1297.16 186.521 230.261
v 1295.65 192.985 230.368
v 1296.43 186.521 229.392
v 1289.7 208.886 155.421
v 1290.44 213.249 154.59
v 1290.4 208.886 154.59
v 1290.44 213.249 238.249
v 1289.7 208.886 237.418
v 1290.4 208.886 238.249
v 1297.16 186.521 162.578
v 1294.8 184.587 161.618
v 1296.43 186.521 163.447
v 1297.16 186.521 230.261
v 1294.8 184.587 231.221
v 1295.62 184.587 232.192
v 1294.8 184.587 161.618
v 1297.75 182.652 163.254
v 1297 182.652 164.139
v 1294.8 184.587 231.221
v 1297.75 182.652 229.585
v 1295.62 184.587 232.192
v 1290.44 213.249 154.59
v 1287.66 215.43 153.127
v 1288.47 215.43 152.162
v 1290.44 213.249 238.249
v 1287.66 215.43 239.712
v 1289.7 213.249 237.376
v 1287.66 215.43 153.127
v 1290.51 217.612 154.59
v 1288.47 215.43 152.162
v 1287.66 215.43 239.712
v 1290.51 217.612 238.249
v 1289.7 217.612 237.284
v 1293.74 201.984 158.536
v 1289.7 208.886 155.421
v 1290.4 208.886 154.59
v 1293.74 201.984 234.303
v 1289.7 208.886 237.418
v 1293.03 201.984 233.455
v 1293.03 201.984 159.384
v 1296.34 192.985 231.183
v 1303.27 217.612 154.59
v 1289.7 217.612 155.555
v 1290.51 217.612 238.249
v 1289.7 217.612 237.284
v 1303.27 217.612 238.249
v 1303.27 192.985 231.183
v 1297.16 186.521 230.261
v 1303.27 186.521 230.261
v 1303.27 208.886 154.59
v 1290.44 213.249 154.59
v 1303.27 213.249 154.59
v 1303.27 184.587 232.192
v 1297.75 182.652 229.585
v 1303.27 182.652 229.585
v 1303.27 184.587 232.192
v 1297.16 186.521 230.261
v 1295.62 184.587 232.192
v 1303.27 215.43 240.677
v 1290.44 213.249 238.249
v 1303.27 213.249 238.249
v 1303.27 215.43 240.677
v 1290.51 217.612 238.249
v 1288.47 215.43 240.677
v 1303.27 208.886 238.249
v 1293.74 201.984 234.303
v 1303.27 201.984 234.303
v 1296.34 192.985 231.183
v 1297.75 182.652 229.585
v 1303.27 182.652 163.254
v 1303.27 182.652 229.585
v 1297.75 182.652 163.254
v 1297 182.652 228.7
v 1297 182.652 164.139
v 1296.43 186.521 163.447
v 1289.7 213.249 155.463
v 1303.27 213.249 238.249
v 1295.62 184.587 160.647
v 1297 182.652 164.139
v 1303.27 186.521 162.578
v 1296.43 186.521 163.447
v 1288.47 215.43 152.162
v 1287.66 215.43 153.127
v 1303.27 217.612 154.59
v 1287.66 215.43 153.127
v 1290.4 208.886 154.59
v 1296.43 186.521 163.447
v 1289.7 213.249 155.463
v 1289.7 213.249 237.376
v 1295.62 184.587 160.647
v 1296.43 186.521 229.392
v 1295.62 184.587 160.647
v 1297 182.652 228.7
v 1289.7 213.249 155.463
v 1288.47 215.43 240.677
v 1289.7 217.612 155.555
v 1288.47 215.43 240.677
v 1290.4 208.886 238.249
v 1290.51 217.612 154.59
v 1290.4 208.886 154.59
v 1295.62 184.587 232.192
v 1303.27 186.521 230.261
v 1288.47 215.43 240.677
v 1303.27 217.612 238.249
v 1290.4 208.886 238.249
vt 0.5504 0.8881
vt 0.5337 0.9084
vt 0.5337 0.8881
vt 0.6053 0.91
vt 0.7592 0.8897
vt 0.7614 0.91
vt 0.7775 0.9737
vt 0.5891 0.96
vt 0.7776 0.96
vt 0.8287 0.9596
vt 0.7937 0.9733
vt 0.7936 0.9596
vt 0.9865 0.7672
vt 0.9632 0.7791
vt 0.9619 0.7672
vt 0.0111 0.779
vt 0.2525 0.7672
vt 0.2524 0.779
vt 0.5504 0.8881
vt 0.5337 0.882
vt 0.5546 0.882
vt 0.7592 0.8897
vt 0.6034 0.8836
vt 0.7634 0.8836
vt 0.5687 0.9721
vt 0.5337 0.979
vt 0.5337 0.9721
vt 0.7829 0.9806
vt 0.5892 0.9737
vt 0.7775 0.9737
vt 0.5685 0.9859
vt 0.5337 0.979
vt 0.5741 0.979
vt 0.5894 0.9875
vt 0.7829 0.9806
vt 0.7773 0.9875
vt 0.5597 0.9367
vt 0.5337 0.9584
vt 0.5337 0.9367
vt 0.5891 0.96
vt 0.7685 0.9383
vt 0.7776 0.96
vt 0.5526 0.9084
vt 0.5982 0.9383
vt 0.605 0.8907
vt 0.6053 0.91
vt 0.6028 0.9094
vt 0.8121 0.8892
vt 0.8073 0.909
vt 0.8095 0.8902
vt 0.5891 0.96
vt 0.5867 0.9726
vt 0.5865 0.9593
vt 0.7937 0.9733
vt 0.791 0.9589
vt 0.7936 0.9596
vt 0.605 0.8907
vt 0.6034 0.8836
vt 0.6076 0.8897
vt 0.8121 0.8892
vt 0.8052 0.8857
vt 0.8079 0.8832
vt 0.0111 0.779
vt 0.0079 0.7672
vt 0.0112 0.7672
vt 0.2524 0.779
vt 0.2558 0.7672
vt 0.2559 0.779
vt 0.5867 0.9726
vt 0.5839 0.9806
vt 0.5815 0.9806
vt 0.7937 0.9733
vt 0.786 0.9801
vt 0.7912 0.9721
vt 0.5839 0.9806
vt 0.5871 0.99
vt 0.5815 0.9806
vt 0.786 0.9801
vt 0.7939 0.987
vt 0.7916 0.9896
vt 0.5957 0.9372
vt 0.5891 0.96
vt 0.5865 0.9593
vt 0.8027 0.9379
vt 0.791 0.9589
vt 0.8002 0.9367
vt 0.5982 0.9383
vt 0.8098 0.9096
vt 0.0091 0.8976
vt 0.0109 0.8746
vt 0.1674 0.876
vt 0.1655 0.8746
vt 0.1674 0.8976
vt 0.8287 0.9096
vt 0.8121 0.8892
vt 0.8287 0.8892
vt 0.5337 0.9584
vt 0.5687 0.9721
vt 0.5337 0.9721
vt 0.2874 0.779
vt 0.2558 0.7672
vt 0.2803 0.7672
vt 0.8287 0.8832
vt 0.8121 0.8892
vt 0.8079 0.8832
vt 0.8287 0.9801
vt 0.7937 0.9733
vt 0.8287 0.9733
vt 0.8287 0.9801
vt 0.7939 0.987
vt 0.7884 0.9801
vt 0.8287 0.9596
vt 0.8027 0.9379
vt 0.8287 0.9379
vt 0.8098 0.9096
vt 0.2773 0.6911
vt 0.4476 0.6742
vt 0.2773 0.6742
vt 0.4476 0.6911
vt 0.2795 0.6933
vt 0.4453 0.6933
vt 0.6076 0.8897
vt 0.5892 0.9737
vt 0.8287 0.9733
vt 0.9959 0.7791
vt 0.0112 0.7672
vt 0.5337 0.8881
vt 0.6076 0.8897
vt 0.5741 0.979
vt 0.5839 0.9806
vt 0.5337 0.9859
vt 0.5839 0.9806
vt 0.5688 0.9584
vt 0.6076 0.8897
vt 0.5892 0.9737
vt 0.7912 0.9721
vt 0.6007 0.8862
vt 0.8095 0.8902
vt 0.0078 0.7789
vt 0.2525 0.7672
vt 0.5892 0.9737
vt 0.7884 0.9801
vt 0.5894 0.9875
vt 0.7884 0.9801
vt 0.7936 0.9596
vt 0.0091 0.876
vt 0.5688 0.9584
vt 0.2559 0.779
vt 0.8287 0.8892
vt 0.7884 0.9801
vt 0.8287 0.987
vt 0.7936 0.9596
vn 0 -0.1411 -0.99
vn 0 -0.2354 -0.9719
vn 0 -0.1411 -0.99
vn -0.9773 -0.2119 0
vn -0.9929 -0.1192 0
vn -0.9773 -0.2119 0
vn -1 0 0
vn -1 0 0
vn -1 0 0
vn 0 0 1
vn 0 0 1
vn 0 0 1
vn 0 -0.8031 -0.5958
vn 0 -0.8031 -0.5958
vn 0 -0.8031 -0.5958
vn -0.661 -0.7504 0
vn -0.661 -0.7504 0
vn -0.661 -0.7504 0
vn 0 0.7065 -0.7077
vn 0 0.7065 -0.7077
vn 0 0.7065 -0.7077
vn -0.7654 0.6436 0
vn -0.7654 0.6436 0
vn -0.7654 0.6436 0
vn 0 -0.7439 -0.6683
vn 0 -0.7439 -0.6683
vn 0 -0.7439 -0.6683
vn -0.7295 -0.684 -0
vn -0.7295 -0.684 -0
vn -0.7295 -0.684 -0
vn 0 0.7439 -0.6683
vn 0 0.7439 -0.6683
vn 0 0.7439 -0.6683
vn -0.7295 0.684 0
vn -0.7295 0.684 0
vn -0.7295 0.684 0
vn 0 -0.4309 -0.9024
vn 0 -0.4963 -0.8681
vn 0 -0.4138 -0.9104
vn -0.9009 -0.4339 -0
vn -0.9263 -0.3769 -0
vn -0.9009 -0.4339 -0
vn 0 -0.2466 -0.9691
vn -0.9263 -0.3769 -0
vn -0.7515 -0.1858 -0.6331
vn -0.7309 -0.2942 -0.6159
vn -0.7291 -0.3014 -0.6144
vn -0.7515 -0.1858 0.633
vn -0.7311 -0.2942 0.6156
vn -0.7515 -0.1858 0.633
vn -0.7647 0.0061 -0.6444
vn -0.7647 0.0062 -0.6443
vn -0.7647 0.0061 -0.6444
vn -0.7648 0.0062 0.6442
vn -0.7648 0.0062 0.6443
vn -0.7648 0.0062 0.6443
vn -0.4773 0.7814 -0.402
vn -0.4773 0.7814 -0.402
vn -0.4773 0.7814 -0.402
vn -0.4772 0.7814 0.402
vn -0.4772 0.7814 0.4021
vn -0.4772 0.7814 0.4021
vn -0.3865 -0.863 -0.3255
vn -0.3865 -0.863 -0.3255
vn -0.3865 -0.863 -0.3255
vn -0.3864 -0.863 0.3255
vn -0.3865 -0.863 0.3254
vn -0.3864 -0.863 0.3255
vn -0.443 -0.8151 -0.3732
vn -0.4431 -0.8151 -0.3732
vn -0.4431 -0.8151 -0.3732
vn -0.4431 -0.8151 0.3732
vn -0.4431 -0.8151 0.3732
vn -0.4431 -0.8151 0.3732
vn -0.4374 0.8203 -0.3685
vn -0.4374 0.8203 -0.3686
vn -0.4374 0.8203 -0.3685
vn -0.4374 0.8203 0.3685
vn -0.4374 0.8203 0.3685
vn -0.4374 0.8203 0.3685
vn -0.6587 -0.5081 -0.5549
vn -0.6152 -0.5939 -0.5184
vn -0.6152 -0.5939 -0.5184
vn -0.6587 -0.5082 0.5549
vn -0.6153 -0.5939 0.5183
vn -0.6633 -0.4978 0.5588
vn -0.6633 -0.4978 -0.5588
vn -0.7294 -0.3014 0.6142
vn 0 1 -0
vn 0 1 -0
vn 0 1 -0
vn 0 1 -0
vn 0 1 -0
vn 0 -0.2355 0.9719
vn 0 -0.1412 0.99
vn 0 -0.1412 0.99
vn 0 0 -1
vn 0 0 -1
vn 0 0 -1
vn -0 -0.8031 0.5959
vn -0 -0.8031 0.5959
vn -0 -0.8031 0.5959
vn -0 0.7065 0.7077
vn -0 0.7065 0.7077
vn -0 0.7065 0.7077
vn 0 -0.7439 0.6683
vn 0 -0.7439 0.6683
vn 0 -0.7439 0.6683
vn 0 0.7439 0.6683
vn 0 0.7439 0.6683
vn 0 0.7439 0.6683
vn 0 -0.4964 0.8681
vn 0 -0.4309 0.9024
vn 0 -0.4138 0.9104
vn 0 -0.2466 0.9691
vn 0 -1 0
vn 0 -1 0
vn 0 -1 0
vn 0 -1 0
vn 0 -1 0
vn 0 -1 0
vn -0.9929 -0.1192 0
vn -1 0 0
vn 0 0 1
vn 0 -0.8031 -0.5958
vn -0.661 -0.7504 0
vn 0 0.7065 -0.7077
vn -0.7654 0.6436 0
vn 0 -0.7439 -0.6683
vn -0.7295 -0.684 -0
vn 0 0.7439 -0.6683
vn -0.7295 0.684 0
vn 0 -0.4963 -0.8681
vn -0.7515 -0.1858 -0.633
vn -0.7647 0.0062 -0.6443
vn -0.7648 0.0062 0.6442
vn -0.4773 0.7814 -0.402
vn -0.4772 0.7815 0.402
vn -0.3865 -0.863 -0.3255
vn -0.3865 -0.863 0.3254
vn -0.443 -0.8151 -0.3733
vn -0.4431 -0.8151 0.3732
vn -0.4374 0.8203 -0.3686
vn -0.4374 0.8203 0.3685
vn -0.6153 -0.5939 0.5183
vn 0 1 -0
vn 0 0 -1
vn -0 -0.8031 0.5959
vn 0 0.7066 0.7077
vn 0 -0.7439 0.6683
vn 0 0.7439 0.6683
vn 0 -0.4964 0.8681
f 1/1/1 2/2/2 3/3/3
f 4/4/4 5/5/5 6/6/6
f 7/7/7 8/8/8 9/9/9
f 10/10/10 11/11/11 12/12/12
f 13/13/13 14/14/14 15/15/15
f 16/16/16 17/17/17 18/18/18
f 19/19/19 20/20/20 21/21/21
f 22/22/22 23/23/23 24/24/24
f 25/25/25 26/26/26 27/27/27
f 28/28/28 29/29/29 30/30/30
f 31/31/31 32/32/32 33/33/33
f 34/34/34 35/35/35 36/36/36
f 37/37/37 38/38/38 39/39/39
f 40/40/40 41/41/41 42/42/42
f 43/43/43 39/39/39 2/2/2
f 44/44/44 6/6/6 41/41/41
f 45/45/45 46/46/46 47/47/47
f 48/48/48 49/49/49 50/50/50
f 51/51/51 52/52/52 53/53/53
f 54/54/54 55/55/55 56/56/56
f 57/57/57 58/58/58 59/59/59
f 60/60/60 61/61/61 62/62/62
f 63/63/63 64/64/64 65/65/65
f 66/66/66 67/67/67 68/68/68
f 69/69/69 70/70/70 71/71/71
f 72/72/72 73/73/73 74/74/74
f 75/75/75 76/76/76 77/77/77
f 78/78/78 79/79/79 80/80/80
f 81/81/81 82/82/82 83/83/83
f 84/84/84 85/85/85 86/86/86
f 47/47/47 87/87/87 81/81/81
f 88/88/88 86/86/86 49/49/49
f 89/89/89 90/90/90 91/91/91
f 90/90/90 92/92/92 91/91/91
f 93/93/93 89/89/89 91/91/91
f 94/94/94 95/95/95 96/96/96
f 97/97/97 98/98/98 99/99/99
f 100/100/100 101/101/101 102/102/102
f 103/103/103 104/104/104 105/105/105
f 106/106/106 107/107/107 108/108/108
f 109/109/109 110/110/110 111/111/111
f 112/112/112 113/113/113 114/114/114
f 114/114/114 115/115/115 94/94/94
f 116/116/116 117/117/117 118/118/118
f 119/119/119 120/120/120 121/121/121
f 1/1/1 43/43/43 2/2/2
f 4/4/4 122/122/122 5/5/5
f 7/7/7 123/123/123 8/8/8
f 10/10/10 124/124/124 11/11/11
f 13/13/13 125/125/125 14/14/14
f 16/16/16 126/126/126 17/17/17
f 19/19/19 127/127/127 20/20/20
f 22/22/22 128/128/128 23/23/23
f 25/25/25 129/129/129 26/26/26
f 28/28/28 130/130/130 29/29/29
f 31/31/31 131/131/131 32/32/32
f 34/34/34 132/132/132 35/35/35
f 37/37/37 133/133/133 38/38/38
f 40/40/40 44/44/44 41/41/41
f 43/43/43 37/37/37 39/39/39
f 44/44/44 4/4/4 6/6/6
f 45/45/45 134/134/134 46/46/46
f 48/48/48 88/88/88 49/49/49
f 51/51/51 135/135/135 52/52/52
f 54/54/54 136/136/136 55/55/55
f 57/57/57 137/137/137 58/58/58
f 60/60/60 138/138/138 61/61/61
f 63/63/63 139/139/139 64/64/64
f 66/66/66 140/140/140 67/67/67
f 69/69/69 141/141/141 70/70/70
f 72/72/72 142/142/142 73/73/73
f 75/75/75 143/143/143 76/76/76
f 78/78/78 144/144/144 79/79/79
f 81/81/81 87/87/87 82/82/82
f 84/84/84 145/145/145 85/85/85
f 47/47/47 46/46/46 87/87/87
f 88/88/88 84/84/84 86/86/86
f 89/89/89 146/146/146 90/90/90
f 94/94/94 115/115/115 95/95/95
f 97/97/97 147/147/147 98/98/98
f 100/100/100 148/148/148 101/101/101
f 103/103/103 149/149/149 104/104/104
f 106/106/106 150/150/150 107/107/107
f 109/109/109 151/151/151 110/110/110
f 112/112/112 152/152/152 113/113/113
f 114/114/114 113/113/113 115/115/115
f 116/116/116 119/119/119 117/117/117
f 119/119/119 116/116/116 120/120/120
