v -1428.52 -2.62 -644.311
v -138.073 213.181 -644.311
v -1428.52 403.448 -644.311
v -1428.52 403.448 574.029
v -1428.52 -2.62 -644.311
v -1428.52 403.448 -644.311
v -505.76 274.499 574.029
v -1428.52 -2.62019 574.029
v -1428.52 403.448 574.029
v 1302.19 403.448 574.03
v 1302.19 -2.62 -643.362
v 1302.19 -2.62019 574.03
v 1302.19 -2.62 -643.362
v 11.3885 213.181 -643.362
v 11.3885 -2.62 -643.362
v 1302.19 403.448 -643.362
v -0.3649 251.375 -643.481
v -63.342 403.448 -643.836
v -100.707 283.109 -644.074
v -63.342 298.73 -643.836
v -25.9767 283.109 -643.599
v -126.263 250.324 -644.192
v 234.178 121.585 574.029
v 20.3049 236.939 574.03
v 234.178 274.684 574.03
v 129.615 403.448 574.03
v -143.018 236.939 574.029
v -254.357 403.448 574.029
v 381.452 274.684 574.03
v 1302.19 -2.62019 574.03
v 381.452 121.585 574.029
v 1302.19 403.448 574.03
v 20.3049 -2.62019 574.029
v -359.314 274.499 574.029
v -359.314 122.027 574.029
v -143.018 -2.62019 574.029
v -505.76 122.027 574.029
v -138.073 -2.62 -644.311
v -1428.52 -2.62019 574.029
v 1302.19 403.448 -643.362
vt 0 0.9877
vt 4.8538 1.7994
vt 0 2.5151
vt 25.1211 2.5151
vt 29.7036 0.9877
vt 29.7036 2.5151
vt 21.6503 2.03
vt 25.1211 0.9877
vt 25.1211 2.5151
vt 14.85 2.5151
vt 10.271 0.9877
vt 14.85 0.9877
vt 10.271 0.9877
vt 5.4159 1.7994
vt 5.4159 0.9877
vt 10.271 2.5151
vt 5.3717 1.9431
vt 5.1349 2.5151
vt 4.9943 2.0624
vt 5.1349 2.1212
vt 5.2754 2.0624
vt 4.8982 1.9391
vt 18.8672 1.4549
vt 19.6716 1.8888
vt 18.8672 2.0307
vt 19.2604 2.5151
vt 20.2859 1.8888
vt 20.7047 2.5151
vt 18.3132 2.0307
vt 14.85 0.9877
vt 18.3132 1.4549
vt 14.85 2.5151
vt 19.6716 0.9877
vt 21.0995 2.03
vt 21.0995 1.4565
vt 20.2859 0.9877
vt 21.6503 1.4565
vt 4.8538 0.9877
vt 25.1211 0.9877
vt 10.271 2.5151
vn -0 -0 1
vn -0.0002 -0.0015 1
vn -0 -0.0002 1
vn 1 -0 0
vn 1 -0 0
vn 1 -0 0
vn 0 0 -1
vn 0 0 -1
vn 0 0 -1
vn -1 0 0
vn -1 0 0
vn -1 0 0
vn -0 -0 1
vn -0.0002 0.0015 1
vn -0 -0 1
vn -0 0.0002 1
vn -0.0005 0.0032 1
vn -0.0024 -0 1
vn -0.0032 -0.0014 1
vn -0.0121 -0 0.9999
vn -0.0031 0.0014 1
vn -0.0005 -0.0032 1
vn 0 0 -1
vn 0 0 -1
vn 0 0 -1
vn 0 0 -1
vn 0 0 -1
vn 0 0 -1
vn 0 0 -1
vn 0 0 -1
vn 0 0 -1
vn 0 0 -1
vn 0 0 -1
vn 0 0 -1
vn 0 0 -1
vn 0 0 -1
vn 0 0 -1
vn -0 -0 1
vn 1 -0 0
vn -1 0 0
f 1/1/1 2/2/2 3/3/3
f 4/4/4 5/5/5 6/6/6
f 7/7/7 8/8/8 9/9/9
f 10/10/10 11/11/11 12/12/12
f 13/13/13 14/14/14 15/15/15
f 14/14/14 16/16/16 17/17/17
f 18/18/18 19/19/19 20/20/20
f 21/21/21 18/18/18 20/20/20
f 19/19/19 3/3/3 22/22/22
f 17/17/17 16/16/16 21/21/21
f 22/22/22 3/3/3 2/2/2
f 23/23/23 24/24/24 25/25/25
f 26/26/26 25/25/25 24/24/24
f 26/26/26 27/27/27 28/28/28
f 29/29/29 30/30/30 31/31/31
f 29/29/29 26/26/26 32/32/32
f 33/33/33 31/31/31 30/30/30
f 34/34/34 27/27/27 35/35/35
f 36/36/36 35/35/35 27/27/27
f 28/28/28 7/7/7 9/9/9
f 36/36/36 37/37/37 35/35/35
f 1/1/1 38/38/38 2/2/2
f 4/4/4 39/39/39 5/5/5
f 7/7/7 37/37/37 8/8/8
f 10/10/10 40/40/40 11/11/11
f 13/13/13 16/16/16 14/14/14
f 18/18/18 3/3/3 19/19/19
f 21/21/21 16/16/16 18/18/18
f 23/23/23 33/33/33 24/24/24
f 26/26/26 24/24/24 27/27/27
f 29/29/29 32/32/32 30/30/30
f 29/29/29 25/25/25 26/26/26
f 33/33/33 23/23/23 31/31/31
f 34/34/34 28/28/28 27/27/27
f 28/28/28 34/34/34 7/7/7
f 36/36/36 8/8/8 37/37/37
