v -85.8402 665.982 201.741
v -82.7891 666.759 201.741
v -84.517 665.982 201.741
v -80.4132 672.375 201.741
v -89.3363 670.594 201.741
v -88.9096 672.375 201.741
v -82.3549 674.155 201.741
v -87.379 674.155 201.741
v -81.8185 668.284 201.741
v -89.0519 668.583 201.741
v -87.7745 666.759 201.741
v -75.1922 662.721 201.741
v -78.0554 661.124 201.741
v -88.9096 672.375 208.618
v -89.3363 670.594 201.741
v -89.3363 670.594 208.618
v -87.379 674.155 201.741
v -88.9096 672.375 201.741
v -81.8185 668.284 208.618
v -82.7891 666.759 201.741
v -81.8185 668.284 201.741
v -89.0519 668.583 208.618
v -87.7745 666.759 201.741
v -87.7745 666.759 208.618
v -81.8185 668.284 208.618
v -78.0554 661.124 201.741
v -78.0554 661.124 208.618
v -78.0554 661.124 208.618
v -75.1922 662.721 201.741
v -75.1922 662.721 208.618
v -85.8402 665.982 208.618
v -82.7891 666.759 208.618
v -87.7745 666.759 208.618
v -89.3363 670.594 208.618
v -80.4132 672.375 208.618
v -88.9096 672.375 208.618
v -82.3549 674.155 208.618
v -87.379 674.155 208.618
v -81.8185 668.284 208.618
v -89.0519 668.583 208.618
v -75.1922 662.721 208.618
v -79.3738 670.594 208.618
v -84.517 665.982 208.618
v -85.8402 665.982 201.741
v -84.517 665.982 201.741
v -85.8402 665.982 208.618
v -89.0519 668.583 201.741
v -82.7891 666.759 208.618
v -79.3738 670.594 201.741
v -87.379 674.155 208.618
v -81.8185 668.284 201.741
v -78.0554 661.124 201.741
v -84.517 665.982 208.618
v -78.0554 661.124 208.618
vt 0.2029 0.2838
vt 0.1884 0.2623
vt 0.1992 0.2736
vt 0.1382 0.2595
vt 0.1768 0.3237
vt 0.1618 0.3254
vt 0.1298 0.2795
vt 0.1437 0.3184
vt 0.1739 0.259
vt 0.1916 0.316
vt 0.2022 0.301
vt 0.1986 0.1922
vt 0.219 0.21
vt 0.1206 0.615
vt 0.067 0.602
vt 0.1204 0.6012
vt 0.0675 0.6297
vt 0.0673 0.6159
vt 0.1192 0.5209
vt 0.066 0.5336
vt 0.0658 0.5218
vt 0.1202 0.5856
vt 0.0666 0.5723
vt 0.12 0.5715
vt 0.1192 0.5209
vt 0.0649 0.4662
vt 0.1183 0.4654
vt 0.1183 0.4654
vt 0.0646 0.444
vt 0.118 0.4431
vt 0.1533 0.3311
vt 0.1791 0.3335
vt 0.1385 0.3399
vt 0.1307 0.3731
vt 0.2056 0.3762
vt 0.1365 0.387
vt 0.1921 0.3931
vt 0.1512 0.3996
vt 0.1889 0.3447
vt 0.1305 0.3564
vt 0.2357 0.2909
vt 0.2118 0.3603
vt 0.1196 0.5462
vt 0.0664 0.5573
vt 0.0662 0.547
vt 0.1197 0.5564
vt 0.0668 0.5864
vt 0.1194 0.5328
vt 0.1492 0.2465
vt 0.1208 0.6289
vt 0.0658 0.5218
vt 0.0649 0.4662
vt 0.164 0.3294
vt 0.2104 0.2816
vn 0 0 -1
vn 0 0 -1
vn 0 0 -1
vn 0 0 -1
vn 0 0 -1
vn 0 0 -1
vn 0 0 -1
vn 0 0 -1
vn 0 0 -1
vn 0 0 -1
vn 0 0 -1
vn 0 0 -1
vn 0 0 -1
vn -0.8904 0.4552 0
vn -0.9989 0.0474 0
vn -0.9989 0.0474 0
vn -0.7583 0.6519 0
vn -0.8904 0.4552 0
vn 0.8437 -0.5369 0
vn 0.6545 -0.7561 0
vn 0.8437 -0.5369 0
vn -0.9302 -0.367 0
vn -0.6217 -0.7832 0
vn -0.6217 -0.7832 0
vn -0.8852 -0.4652 0
vn -0.8852 -0.4652 0
vn -0.8852 -0.4652 0
vn 0.4871 -0.8734 0
vn 0.4871 -0.8734 0
vn 0.4871 -0.8734 0
vn 0 0 1
vn 0 0 1
vn 0 0 1
vn 0 0 1
vn 0 0 1
vn 0 0 1
vn 0 0 1
vn 0 0 1
vn 0 0 1
vn 0 0 1
vn 0 0 1
vn 0 0 1
vn 0.2099 -0.9777 0
vn -0.19 -0.9818 0
vn 0.2099 -0.9777 0
vn -0.19 -0.9818 0
vn -0.9302 -0.367 0
vn 0.6545 -0.7561 0
vn 0 0 -1
vn -0.7583 0.6519 0
vn -0.8852 -0.4652 0
vn 0.4871 -0.8734 0
vn 0 0 1
vn 0 0 1
f 1/1/1 2/2/2 3/3/3
f 4/4/4 5/5/5 6/6/6
f 7/7/7 6/6/6 8/8/8
f 5/5/5 9/9/9 10/10/10
f 11/11/11 9/9/9 2/2/2
f 9/9/9 12/12/12 13/13/13
f 14/14/14 15/15/15 16/16/16
f 14/14/14 17/17/17 18/18/18
f 19/19/19 20/20/20 21/21/21
f 22/22/22 23/23/23 24/24/24
f 25/25/25 26/26/26 27/27/27
f 28/28/28 29/29/29 30/30/30
f 31/31/31 32/32/32 33/33/33
f 34/34/34 35/35/35 36/36/36
f 36/36/36 37/37/37 38/38/38
f 39/39/39 34/34/34 40/40/40
f 33/33/33 39/39/39 40/40/40
f 39/39/39 41/41/41 42/42/42
f 43/43/43 44/44/44 45/45/45
f 46/46/46 23/23/23 44/44/44
f 22/22/22 15/15/15 47/47/47
f 48/48/48 45/45/45 20/20/20
f 1/1/1 11/11/11 2/2/2
f 4/4/4 49/49/49 5/5/5
f 7/7/7 4/4/4 6/6/6
f 5/5/5 49/49/49 9/9/9
f 11/11/11 10/10/10 9/9/9
f 9/9/9 49/49/49 12/12/12
f 14/14/14 18/18/18 15/15/15
f 14/14/14 50/50/50 17/17/17
f 19/19/19 48/48/48 20/20/20
f 22/22/22 47/47/47 23/23/23
f 25/25/25 51/51/51 26/26/26
f 28/28/28 52/52/52 29/29/29
f 31/31/31 53/53/53 32/32/32
f 34/34/34 42/42/42 35/35/35
f 36/36/36 35/35/35 37/37/37
f 39/39/39 42/42/42 34/34/34
f 33/33/33 32/32/32 39/39/39
f 39/39/39 54/54/54 41/41/41
f 43/43/43 46/46/46 44/44/44
f 46/46/46 24/24/24 23/23/23
f 22/22/22 16/16/16 15/15/15
f 48/48/48 43/43/43 45/45/45
