v -8.2629 256.731 568.658
v -15.3208 339.745 571.497
v -8.263 348.197 568.658
v -119.407 256.731 568.658
v -8.2629 256.731 575.505
v -119.407 256.731 575.505
v -119.407 348.197 568.658
v -119.407 256.731 575.505
v -119.407 348.197 575.505
v -8.263 348.197 568.658
v -119.407 348.197 575.505
v -8.263 348.197 575.505
v -8.2629 256.731 568.658
v -8.263 348.197 575.505
v -8.2629 256.731 575.505
v -15.3208 339.745 571.497
v -111.898 260.576 571.497
v -111.898 339.745 571.497
v -8.263 348.197 568.658
v -111.898 339.745 571.497
v -119.407 348.197 568.658
v -111.898 260.576 571.497
v -8.2629 256.731 568.658
v -119.407 256.731 568.658
v -119.407 256.731 568.658
v -111.898 339.745 571.497
v -111.898 260.576 571.497
v -15.3207 260.576 571.497
v -8.2629 256.731 568.658
v -119.407 256.731 568.658
v -119.407 348.197 568.658
v -8.263 348.197 568.658
v -15.3207 260.576 571.497
v -15.3208 339.745 571.497
v -15.3207 260.576 571.497
v -119.407 348.197 568.658
vt 0.0684 0.1763
vt 0.0929 0.8714
vt 0.0684 0.9037
vt 0.937 0.1763
vt 0.0684 0.119
vt 0.937 0.119
vt 0.937 0.9037
vt 0.9943 0.1763
vt 0.9943 0.9037
vt 0.0684 0.9037
vt 0.937 0.961
vt 0.0684 0.961
vt 0.0684 0.1763
vt 0.0111 0.9037
vt 0.0111 0.1763
vt 0.0929 0.8714
vt 0.9015 0.2085
vt 0.9015 0.8714
vt 0.0684 0.9037
vt 0.9015 0.8714
vt 0.937 0.9037
vt 0.9015 0.2085
vt 0.0684 0.1763
vt 0.937 0.1763
vt 0.937 0.1763
vt 0.9015 0.8714
vt 0.9015 0.2085
vt 0.0929 0.2085
vt 0.0684 0.1763
vt 0.937 0.1763
vt 0.937 0.9037
vt 0.0684 0.9037
vt 0.0929 0.2085
vt 0.0929 0.8714
vt 0.0929 0.2085
vt 0.937 0.9037
vn -0.3731 -0 -0.9278
vn -0.3731 -0 -0.9278
vn -0.3731 -0 -0.9278
vn 0 -1 0
vn 0 -1 0
vn 0 -1 0
vn -1 0 0
vn -1 0 0
vn -1 0 0
vn 0 1 0
vn 0 1 0
vn 0 1 0
vn 1 0 0
vn 1 0 0
vn 1 0 0
vn -0 0 -1
vn -0 0 -1
vn -0 0 -1
vn 0 -0.3184 -0.948
vn 0 -0.3184 -0.948
vn 0 -0.3184 -0.948
vn 0 0.5939 -0.8045
vn 0 0.5939 -0.8045
vn 0 0.5939 -0.8045
vn 0.3536 0 -0.9354
vn 0.3536 0 -0.9354
vn 0.3536 0 -0.9354
vn -0.3731 -0 -0.9278
vn 0 -1 0
vn -1 0 0
vn 0 1 0
vn 1 0 0
vn -0 0 -1
vn 0 -0.3184 -0.948
vn 0 0.5939 -0.8045
vn 0.3536 0 -0.9354
f 1/1/1 2/2/2 3/3/3
f 4/4/4 5/5/5 6/6/6
f 7/7/7 8/8/8 9/9/9
f 10/10/10 11/11/11 12/12/12
f 13/13/13 14/14/14 15/15/15
f 16/16/16 17/17/17 18/18/18
f 19/19/19 20/20/20 21/21/21
f 22/22/22 23/23/23 24/24/24
f 25/25/25 26/26/26 27/27/27
f 1/1/1 28/28/28 2/2/2
f 4/4/4 29/29/29 5/5/5
f 7/7/7 30/30/30 8/8/8
f 10/10/10 31/31/31 11/11/11
f 13/13/13 32/32/32 14/14/14
f 16/16/16 33/33/33 17/17/17
f 19/19/19 34/34/34 20/20/20
f 22/22/22 35/35/35 23/23/23
f 25/25/25 36/36/36 26/26/26
