v -207.704 220.997 244.196
v -284.583 220.997 167.442
v -284.583 220.997 244.196
v -284.583 212.978 244.196
v -284.583 207.888 167.442
v -284.583 207.888 244.196
v -207.704 212.978 244.196
v -207.704 207.888 244.196
v -207.704 212.978 167.442
v -207.704 207.888 167.442
v -284.583 212.978 167.442
v -284.583 207.888 167.442
v -209.895 204.087 169.628
v -209.895 204.087 169.628
v -282.392 204.087 242.009
v -282.392 204.087 169.628
v -276.857 201.172 175.155
v -215.43 201.172 175.155
v -215.43 201.172 236.482
v -209.895 204.087 242.009
v -276.857 201.172 236.482
v -209.895 204.087 242.009
v -276.857 201.172 236.482
v -276.857 201.172 175.155
v -220.084 186.651 216.709
v -235.191 -2.46074 231.816
v -220.084 -2.46074 216.709
v -220.084 186.651 195.345
v -220.084 -2.46074 216.709
v -220.084 -2.46073 195.345
v -235.191 186.651 180.238
v -220.084 -2.46073 195.345
v -235.191 -2.46073 180.238
v -256.555 186.651 180.238
v -235.191 -2.46073 180.238
v -256.555 -2.46073 180.238
v -271.662 186.651 195.345
v -256.555 -2.46073 180.238
v -271.662 -2.46073 195.345
v -271.662 186.651 216.709
v -271.662 -2.46074 216.709
v -256.555 -2.46074 231.816
v -235.191 186.651 231.816
v -218.51 192.5 217.361
v -235.191 191.226 231.816
v -220.084 191.226 216.709
v -218.51 192.5 194.693
v -220.084 191.226 195.345
v -235.191 191.226 180.238
v -256.555 191.226 180.238
v -234.539 192.5 178.663
v -273.237 192.5 194.693
v -271.662 191.226 195.345
v -271.662 191.226 216.709
v -256.555 191.226 231.816
v -273.237 192.5 217.361
v -234.539 192.5 233.391
v -235.191 191.226 231.816
v -219.599 196.322 216.91
v -234.261 199.26 234.062
v -234.99 196.322 232.301
v -217.838 199.26 194.415
v -219.599 196.322 195.144
v -234.99 196.322 179.753
v -256.756 196.322 179.753
v -234.261 199.26 177.992
v -272.147 196.322 195.144
v -257.486 199.26 177.992
v -273.908 199.26 217.639
v -272.147 196.322 216.91
v -257.486 199.26 234.062
v -256.756 196.322 232.301
v -234.261 199.26 234.062
v -234.99 196.322 232.301
v -217.838 199.26 194.415
v -215.43 201.172 175.155
v -234.261 199.26 234.062
v -217.838 199.26 217.639
v -215.43 201.172 236.482
v -257.486 199.26 234.062
v -234.261 199.26 234.062
v -273.908 199.26 217.639
v -257.486 199.26 234.062
v -273.908 199.26 194.415
v -257.486 199.26 177.992
v -257.486 199.26 177.992
v -234.261 199.26 177.992
v -217.589 188.939 217.743
v -235.191 186.651 231.816
v -220.084 186.651 216.709
v -217.589 188.939 194.311
v -220.084 186.651 195.345
v -235.191 186.651 180.238
v -234.158 188.939 177.743
v -256.555 186.651 180.238
v -257.589 188.939 177.743
v -271.662 186.651 195.345
v -274.158 188.939 194.311
v -271.662 186.651 216.709
v -274.158 188.939 217.743
v -257.589 188.939 234.311
v -256.555 186.651 231.816
v -234.158 188.939 234.311
v -235.191 186.651 231.816
v -220.084 191.226 216.709
v -234.158 188.939 234.311
v -217.589 188.939 217.743
v -217.589 188.939 194.311
v -220.084 191.226 195.345
v -235.191 191.226 180.238
v -234.158 188.939 177.743
v -256.555 191.226 180.238
v -257.589 188.939 177.743
v -271.662 191.226 195.345
v -274.158 188.939 194.311
v -271.662 191.226 216.709
v -274.158 188.939 217.743
v -257.589 188.939 234.311
v -256.555 191.226 231.816
v -234.158 188.939 234.311
v -235.191 191.226 231.816
v -234.933 193.774 232.44
v -219.46 193.774 216.968
v -219.46 193.774 195.086
v -234.933 193.774 179.614
v -256.814 193.774 179.614
v -272.286 193.774 195.086
v -272.286 193.774 216.968
v -256.814 193.774 232.44
v -234.933 193.774 232.44
v -218.51 192.5 217.361
v -218.51 192.5 194.693
v -234.539 192.5 178.663
v -257.208 192.5 178.663
v -273.237 192.5 194.693
v -273.237 192.5 217.361
v -257.208 192.5 233.391
v -234.539 192.5 233.391
v -283.654 215.209 243.267
v -283.654 212.978 168.37
v -283.654 212.978 243.267
v -208.633 215.209 243.267
v -283.654 212.978 243.267
v -208.633 212.978 243.267
v -208.633 212.978 168.37
v -208.633 215.209 243.267
v -208.633 212.978 243.267
v -283.654 215.209 168.37
v -208.633 212.978 168.37
v -283.654 212.978 168.37
v -284.583 220.997 167.442
v -284.583 215.209 244.196
v -284.583 220.997 244.196
v -284.583 220.997 244.196
v -207.704 215.209 244.196
v -207.704 220.997 244.196
v -207.704 220.997 244.196
v -207.704 215.209 167.442
v -207.704 220.997 167.442
v -207.704 220.997 167.442
v -284.583 215.209 167.442
v -284.583 220.997 167.442
v -283.654 212.978 243.267
v -284.583 212.978 167.442
v -284.583 212.978 244.196
v -208.633 212.978 243.267
v -207.704 212.978 244.196
v -207.704 212.978 167.442
v -284.583 212.978 167.442
v -208.633 212.978 168.37
v -284.583 215.209 167.442
v -283.654 215.209 243.267
v -284.583 215.209 244.196
v -208.633 215.209 168.37
v -207.704 215.209 167.442
v -208.633 215.209 243.267
v -207.704 215.209 244.196
v -208.633 215.209 243.267
v -207.704 215.209 244.196
v -207.704 220.997 167.442
v -284.583 212.978 167.442
v -282.392 204.087 169.628
v -282.392 204.087 242.009
v -220.084 186.651 216.709
v -220.084 186.651 195.345
v -235.191 186.651 180.238
v -256.555 186.651 180.238
v -256.555 186.651 231.816
v -234.539 192.5 233.391
v -257.208 192.5 178.663
v -257.208 192.5 233.391
v -217.838 199.26 217.639
v -273.908 199.26 194.415
v -234.261 199.26 177.992
v -234.158 188.939 234.311
v -235.191 191.226 231.816
v -234.539 192.5 233.391
v -283.654 215.209 168.37
v -283.654 215.209 243.267
v -208.633 215.209 168.37
v -208.633 215.209 168.37
v -284.583 215.209 167.442
v -284.583 215.209 244.196
v -207.704 215.209 244.196
v -207.704 215.209 167.442
v -283.654 212.978 168.37
v -283.654 212.978 168.37
v -283.654 215.209 168.37
v -283.654 215.209 168.37
v -208.633 215.209 168.37
v -283.654 215.209 243.267
vt 0.2969 0.7136
vt 0.1052 0.905
vt 0.1052 0.7136
vt 0.0419 0.2559
vt 0.0579 0.0149
vt 0.0579 0.2559
vt 0.0419 0.4944
vt 0.0577 0.4944
vt 0.0419 0.7325
vt 0.0577 0.7325
vt 0.0419 0.974
vt 0.0579 0.974
vt 0.0698 0.7394
vt 0.0694 0.7257
vt 0.0694 0.2627
vt 0.0698 0.0217
vt 0.0871 0.9497
vt 0.0871 0.7568
vt 0.0866 0.5183
vt 0.0694 0.5012
vt 0.0866 0.2799
vt 0.0694 0.4876
vt 0.0872 0.2317
vt 0.0872 0.0391
vt 0.8927 0.9003
vt 0.8215 0.0086
vt 0.8927 0.0086
vt 0.9935 0.9003
vt 0.8927 0.0086
vt 0.9935 0.0086
vt 0.3768 0.9003
vt 0.3056 0.0086
vt 0.3768 0.0086
vt 0.4775 0.9003
vt 0.3768 0.0086
vt 0.4775 0.0086
vt 0.5488 0.9003
vt 0.4775 0.0086
vt 0.5488 0.0086
vt 0.6495 0.9003
vt 0.6495 0.0086
vt 0.7207 0.0086
vt 0.8215 0.9003
vt 0.2428 0.9493
vt 0.1356 0.9414
vt 0.2428 0.9414
vt 0.35 0.9493
vt 0.35 0.9414
vt 0.4571 0.9414
vt 0.5643 0.9414
vt 0.4571 0.9493
vt 0.6715 0.9493
vt 0.6715 0.9414
vt 0.7787 0.9414
vt 0.8859 0.9414
vt 0.7787 0.9493
vt 0.9931 0.9493
vt 0.9931 0.9414
vt 0.2428 0.9727
vt 0.1356 0.9908
vt 0.1356 0.9727
vt 0.35 0.9908
vt 0.35 0.9727
vt 0.4571 0.9727
vt 0.5643 0.9727
vt 0.4571 0.9908
vt 0.6715 0.9727
vt 0.5643 0.9908
vt 0.7787 0.9908
vt 0.7787 0.9727
vt 0.8859 0.9908
vt 0.8859 0.9727
vt 0.9931 0.9908
vt 0.9931 0.9727
vt 0.0941 0.6488
vt 0.0866 0.7086
vt 0.145 0.5258
vt 0.0941 0.5768
vt 0.0866 0.4704
vt 0.0941 0.34
vt 0.0941 0.412
vt 0.0964 0.1725
vt 0.148 0.2241
vt 0.0964 0.0996
vt 0.148 0.048
vt 0.0961 0.8889
vt 0.145 0.6998
vt 0.2428 0.9274
vt 0.1356 0.9133
vt 0.2428 0.9133
vt 0.35 0.9274
vt 0.35 0.9133
vt 0.4571 0.9133
vt 0.4571 0.9274
vt 0.5643 0.9133
vt 0.5643 0.9274
vt 0.6715 0.9133
vt 0.6715 0.9274
vt 0.7787 0.9133
vt 0.7787 0.9274
vt 0.8859 0.9274
vt 0.8859 0.9133
vt 0.9931 0.9274
vt 0.9931 0.9133
vt 0.2428 0.9414
vt 0.1356 0.9274
vt 0.2428 0.9274
vt 0.35 0.9274
vt 0.35 0.9414
vt 0.4571 0.9414
vt 0.4571 0.9274
vt 0.5643 0.9414
vt 0.5643 0.9274
vt 0.6715 0.9414
vt 0.6715 0.9274
vt 0.7787 0.9414
vt 0.7787 0.9274
vt 0.8859 0.9274
vt 0.8859 0.9414
vt 0.9931 0.9274
vt 0.9931 0.9414
vt 0.1356 0.9571
vt 0.2428 0.9571
vt 0.35 0.9571
vt 0.4571 0.9571
vt 0.5643 0.9571
vt 0.6715 0.9571
vt 0.7787 0.9571
vt 0.8859 0.9571
vt 0.9931 0.9571
vt 0.2428 0.9493
vt 0.35 0.9493
vt 0.4571 0.9493
vt 0.5643 0.9493
vt 0.6715 0.9493
vt 0.7787 0.9493
vt 0.8859 0.9493
vt 0.9931 0.9493
vt 0.0318 0.2559
vt 0.0389 0.0178
vt 0.0389 0.2559
vt 0.0318 0.4944
vt 0.0389 0.2559
vt 0.0389 0.4944
vt 0.0389 0.7325
vt 0.0318 0.4944
vt 0.0389 0.4944
vt 0.0318 0.971
vt 0.0389 0.7325
vt 0.0389 0.971
vt 0.0059 0.4945
vt 0.0243 0.7385
vt 0.0059 0.7385
vt 0.0059 0.7385
vt 0.0243 0.9829
vt 0.0059 0.9829
vt 0.0059 0.0061
vt 0.0243 0.2501
vt 0.0059 0.2501
vt 0.0059 0.2501
vt 0.0243 0.4945
vt 0.0059 0.4945
vt 0.0389 0.2559
vt 0.0419 0.0149
vt 0.0419 0.2559
vt 0.0389 0.4944
vt 0.0419 0.4944
vt 0.0419 0.7325
vt 0.0419 0.974
vt 0.0389 0.7325
vt 0.0243 0.4945
vt 0.0272 0.7355
vt 0.0243 0.7385
vt 0.0272 0.253
vt 0.0243 0.2501
vt 0.0272 0.009
vt 0.0243 0.0061
vt 0.0272 0.9799
vt 0.0243 0.9829
vt 0.2969 0.905
vt 0.0419 0.0149
vt 0.0698 0.9671
vt 0.0698 0.2491
vt 0.8927 0.9003
vt 0.3056 0.9003
vt 0.3768 0.9003
vt 0.4775 0.9003
vt 0.7207 0.9003
vt 0.1356 0.9493
vt 0.5643 0.9493
vt 0.8859 0.9493
vt 0.2428 0.9908
vt 0.6715 0.9908
vt 0.0961 0.8159
vt 0.1356 0.9274
vt 0.1356 0.9414
vt 0.1356 0.9493
vt 0.0318 0.0178
vt 0.0318 0.2559
vt 0.0318 0.7325
vt 0.0318 0.7325
vt 0.0243 0.4945
vt 0.0243 0.7385
vt 0.0243 0.0061
vt 0.0243 0.2501
vt 0.0389 0.0178
vt 0.0389 0.971
vt 0.0272 0.4974
vt 0.0272 0.4915
vt 0.0272 0.2471
vt 0.0272 0.7414
vn 0 1 0
vn 0 1 0
vn 0 1 0
vn -0.7071 0 0.7071
vn -0.6757 -0.2951 -0.6756
vn -0.6757 -0.2951 0.6756
vn 0.7071 0 0.7071
vn 0.6757 -0.2951 0.6756
vn 0.7071 0 -0.7071
vn 0.6757 -0.2951 -0.6756
vn -0.7071 0 -0.7071
vn -0.6757 -0.2951 -0.6756
vn 0.4624 -0.7564 -0.4627
vn 0.4624 -0.7564 -0.4627
vn -0.4624 -0.7564 0.4627
vn -0.4624 -0.7564 -0.4627
vn -0.2162 -0.952 -0.2165
vn 0.217 -0.9516 -0.2177
vn 0.218 -0.9512 0.2183
vn 0.4624 -0.7564 0.4627
vn -0.2172 -0.9517 0.2171
vn 0.4624 -0.7564 0.4627
vn -0.2172 -0.9517 0.2171
vn -0.2162 -0.952 -0.2165
vn 0.7071 0 0.7071
vn 0.3827 -0 0.9239
vn 0.7071 0 0.7071
vn 0.9239 0 -0.3827
vn 1 0 0
vn 0.9239 0 -0.3827
vn 0.7071 0 -0.7071
vn 0.9239 0 -0.3827
vn 0.7071 0 -0.7071
vn 0 0 -1
vn 0 0 -1
vn 0 0 -1
vn -0.9239 0 -0.3827
vn -0.7071 0 -0.7071
vn -0.9239 0 -0.3827
vn -0.9239 -0 0.3827
vn -0.9239 -0 0.3827
vn -0.3827 -0 0.9239
vn 0.3827 -0 0.9239
vn 0.5532 -0.8009 0.2291
vn 0.2291 -0.8009 0.5532
vn 0.5532 -0.8009 0.2291
vn 0.5532 -0.8009 -0.2291
vn 0.5532 -0.8009 -0.2291
vn 0.2291 -0.8009 -0.5532
vn -0.2291 -0.8009 -0.5532
vn 0.2291 -0.8009 -0.5532
vn -0.5532 -0.8009 -0.2291
vn -0.5532 -0.8009 -0.2291
vn -0.5532 -0.8009 0.2291
vn -0.2291 -0.8009 0.5532
vn -0.5532 -0.8009 0.2291
vn 0.2291 -0.8009 0.5532
vn 0.2291 -0.8009 0.5532
vn 0.8879 -0.2764 0.3678
vn 0.1476 -0.7559 0.6379
vn 0.3678 -0.2764 0.8879
vn 0.6389 -0.7551 -0.1473
vn 0.8879 -0.2764 -0.3678
vn 0.3678 -0.2764 -0.8879
vn -0.3678 -0.2764 -0.8879
vn 0.1479 -0.7801 -0.6079
vn -0.8879 -0.2764 -0.3678
vn -0.1475 -0.7801 -0.608
vn -0.6007 -0.7856 0.148
vn -0.8879 -0.2764 0.3678
vn -0.1472 -0.7559 0.6379
vn -0.3678 -0.2764 0.8879
vn 0.1476 -0.7559 0.6379
vn 0.3678 -0.2764 0.8879
vn 0.6389 -0.7551 -0.1473
vn 0.217 -0.9516 -0.2177
vn 0.1476 -0.7559 0.6379
vn 0.6388 -0.7551 0.1476
vn 0.218 -0.9512 0.2183
vn -0.1472 -0.7559 0.6379
vn 0.1476 -0.7559 0.6379
vn -0.6007 -0.7856 0.148
vn -0.1472 -0.7559 0.6379
vn -0.6008 -0.7856 -0.1477
vn -0.1475 -0.7801 -0.608
vn -0.1475 -0.7801 -0.608
vn 0.1479 -0.7801 -0.6079
vn 0.5971 -0.7631 0.2473
vn 0.2473 -0.7631 0.5971
vn 0.5971 -0.7631 0.2473
vn 0.5971 -0.7631 -0.2473
vn 0.5971 -0.7631 -0.2473
vn 0.2473 -0.7631 -0.5971
vn 0.2473 -0.7631 -0.5971
vn -0.2473 -0.7631 -0.5971
vn -0.2473 -0.7631 -0.5971
vn -0.5971 -0.7631 -0.2473
vn -0.5971 -0.7631 -0.2473
vn -0.5971 -0.7631 0.2473
vn -0.5971 -0.7631 0.2473
vn -0.2473 -0.7631 0.5971
vn -0.2473 -0.7631 0.5971
vn 0.2473 -0.7631 0.5971
vn 0.2473 -0.7631 0.5971
vn 0.5971 0.7631 0.2473
vn 0.2473 0.7631 0.5971
vn 0.5971 0.7631 0.2473
vn 0.5971 0.7631 -0.2473
vn 0.5971 0.7631 -0.2473
vn 0.2473 0.7631 -0.5971
vn 0.2473 0.7631 -0.5971
vn -0.2473 0.7631 -0.5971
vn -0.2473 0.7631 -0.5971
vn -0.5971 0.7631 -0.2473
vn -0.5971 0.7631 -0.2473
vn -0.5971 0.7631 0.2473
vn -0.5971 0.7631 0.2473
vn -0.2473 0.7631 0.5971
vn -0.2473 0.7631 0.5971
vn 0.2473 0.7631 0.5971
vn 0.2473 0.7631 0.5971
vn 0.3526 0.3886 0.8513
vn 0.8513 0.3886 0.3526
vn 0.8512 0.3887 -0.3526
vn 0.3526 0.3886 -0.8512
vn -0.3526 0.3886 -0.8512
vn -0.8512 0.3887 -0.3526
vn -0.8512 0.3886 0.3526
vn -0.3526 0.3886 0.8512
vn 0.3526 0.3886 0.8513
vn 0.7187 0.6283 0.2977
vn 0.7187 0.6284 -0.2977
vn 0.2977 0.6284 -0.7187
vn -0.2977 0.6284 -0.7187
vn -0.7187 0.6284 -0.2977
vn -0.7187 0.6284 0.2977
vn -0.2977 0.6284 0.7187
vn 0.2977 0.6284 0.7187
vn -1 0 0
vn -1 0 0
vn -1 0 0
vn 0 0 1
vn 0 0 1
vn 0 0 1
vn 1 0 0
vn 1 0 0
vn 1 0 0
vn 0 0 -1
vn 0 0 -1
vn 0 0 -1
vn -1 0 0
vn -1 0 0
vn -1 0 0
vn 0 0 1
vn 0 0 1
vn 0 0 1
vn 1 0 0
vn 1 0 0
vn 1 0 0
vn 0 0 -1
vn 0 0 -1
vn 0 0 -1
vn 0 1 0
vn 0 1 0
vn 0 1 0
vn 0 1 0
vn 0 1 0
vn 0 1 0
vn 0 1 0
vn 0 1 0
vn 0 -1 -0
vn 0 -1 -0
vn 0 -1 -0
vn 0 -1 -0
vn 0 -1 -0
vn 0 -1 -0
vn 0 -1 -0
vn 0 -1 -0
vn 0 -1 -0
vn 0 1 0
vn -0.7071 0 -0.7071
vn -0.4624 -0.7564 -0.4627
vn -0.4624 -0.7564 0.4627
vn 1 0 0
vn 0.9239 0 -0.3827
vn 0 0 -1
vn -0.7071 0 -0.7071
vn -0.3827 -0 0.9239
vn 0.2291 -0.8009 0.5532
vn -0.2291 -0.8009 -0.5532
vn -0.2291 -0.8009 0.5532
vn 0.6388 -0.7551 0.1476
vn -0.6008 -0.7856 -0.1477
vn 0.1479 -0.7801 -0.6079
vn 0.2473 -0.7631 0.5971
vn 0.2473 0.7631 0.5971
vn 0.2977 0.6284 0.7187
vn -1 0 0
vn 0 0 1
vn 1 0 0
vn 0 0 -1
vn -1 0 0
vn 0 0 1
vn 1 0 0
vn 0 0 -1
vn 0 1 0
vn 0 1 0
vn 0 -1 -0
vn 0 -1 -0
vn 0 -1 -0
vn 0 -1 -0
f 1/1/1 2/2/2 3/3/3
f 4/4/4 5/5/5 6/6/6
f 7/7/7 6/6/6 8/8/8
f 9/9/9 8/8/8 10/10/10
f 11/11/11 10/10/10 12/12/12
f 13/13/13 12/12/12 10/10/10
f 8/8/8 14/14/14 10/10/10
f 15/15/15 8/8/8 6/6/6
f 16/16/16 6/6/6 5/5/5
f 17/17/17 13/13/13 18/18/18
f 19/19/19 14/14/14 20/20/20
f 21/21/21 22/22/22 15/15/15
f 23/23/23 16/16/16 24/24/24
f 25/25/25 26/26/26 27/27/27
f 28/28/28 29/29/29 30/30/30
f 31/31/31 32/32/32 33/33/33
f 34/34/34 35/35/35 36/36/36
f 37/37/37 38/38/38 39/39/39
f 40/40/40 39/39/39 41/41/41
f 42/42/42 40/40/40 41/41/41
f 43/43/43 42/42/42 26/26/26
f 44/44/44 45/45/45 46/46/46
f 47/47/47 46/46/46 48/48/48
f 49/49/49 47/47/47 48/48/48
f 50/50/50 51/51/51 49/49/49
f 52/52/52 50/50/50 53/53/53
f 54/54/54 52/52/52 53/53/53
f 55/55/55 56/56/56 54/54/54
f 57/57/57 55/55/55 58/58/58
f 59/59/59 60/60/60 61/61/61
f 62/62/62 59/59/59 63/63/63
f 64/64/64 62/62/62 63/63/63
f 65/65/65 66/66/66 64/64/64
f 67/67/67 68/68/68 65/65/65
f 69/69/69 67/67/67 70/70/70
f 71/71/71 70/70/70 72/72/72
f 73/73/73 72/72/72 74/74/74
f 19/19/19 75/75/75 76/76/76
f 19/19/19 77/77/77 78/78/78
f 79/79/79 80/80/80 81/81/81
f 23/23/23 82/82/82 83/83/83
f 23/23/23 84/84/84 82/82/82
f 24/24/24 85/85/85 84/84/84
f 18/18/18 86/86/86 17/17/17
f 76/76/76 75/75/75 87/87/87
f 88/88/88 89/89/89 90/90/90
f 91/91/91 90/90/90 92/92/92
f 91/91/91 93/93/93 94/94/94
f 94/94/94 95/95/95 96/96/96
f 96/96/96 97/97/97 98/98/98
f 98/98/98 99/99/99 100/100/100
f 101/101/101 99/99/99 102/102/102
f 103/103/103 102/102/102 104/104/104
f 105/105/105 106/106/106 107/107/107
f 105/105/105 108/108/108 109/109/109
f 110/110/110 108/108/108 111/111/111
f 112/112/112 111/111/111 113/113/113
f 114/114/114 113/113/113 115/115/115
f 116/116/116 115/115/115 117/117/117
f 116/116/116 118/118/118 119/119/119
f 119/119/119 120/120/120 121/121/121
f 59/59/59 122/122/122 123/123/123
f 63/63/63 123/123/123 124/124/124
f 64/64/64 124/124/124 125/125/125
f 65/65/65 125/125/125 126/126/126
f 65/65/65 127/127/127 67/67/67
f 67/67/67 128/128/128 70/70/70
f 70/70/70 129/129/129 72/72/72
f 72/72/72 130/130/130 74/74/74
f 122/122/122 131/131/131 123/123/123
f 123/123/123 132/132/132 124/124/124
f 124/124/124 133/133/133 125/125/125
f 125/125/125 134/134/134 126/126/126
f 127/127/127 134/134/134 135/135/135
f 127/127/127 136/136/136 128/128/128
f 129/129/129 136/136/136 137/137/137
f 129/129/129 138/138/138 130/130/130
f 139/139/139 140/140/140 141/141/141
f 142/142/142 143/143/143 144/144/144
f 145/145/145 146/146/146 147/147/147
f 148/148/148 149/149/149 150/150/150
f 151/151/151 152/152/152 153/153/153
f 154/154/154 155/155/155 156/156/156
f 157/157/157 158/158/158 159/159/159
f 160/160/160 161/161/161 162/162/162
f 163/163/163 164/164/164 165/165/165
f 166/166/166 165/165/165 167/167/167
f 168/168/168 166/166/166 167/167/167
f 169/169/169 170/170/170 168/168/168
f 171/171/171 172/172/172 173/173/173
f 174/174/174 171/171/171 175/175/175
f 176/176/176 175/175/175 177/177/177
f 173/173/173 178/178/178 179/179/179
f 1/1/1 180/180/180 2/2/2
f 4/4/4 181/181/181 5/5/5
f 7/7/7 4/4/4 6/6/6
f 9/9/9 7/7/7 8/8/8
f 11/11/11 9/9/9 10/10/10
f 13/13/13 182/182/182 12/12/12
f 8/8/8 20/20/20 14/14/14
f 15/15/15 22/22/22 8/8/8
f 16/16/16 183/183/183 6/6/6
f 17/17/17 182/182/182 13/13/13
f 19/19/19 76/76/76 14/14/14
f 21/21/21 79/79/79 22/22/22
f 23/23/23 183/183/183 16/16/16
f 25/25/25 43/43/43 26/26/26
f 28/28/28 184/184/184 29/29/29
f 31/31/31 185/185/185 32/32/32
f 34/34/34 186/186/186 35/35/35
f 37/37/37 187/187/187 38/38/38
f 40/40/40 37/37/37 39/39/39
f 42/42/42 188/188/188 40/40/40
f 43/43/43 188/188/188 42/42/42
f 44/44/44 189/189/189 45/45/45
f 47/47/47 44/44/44 46/46/46
f 49/49/49 51/51/51 47/47/47
f 50/50/50 190/190/190 51/51/51
f 52/52/52 190/190/190 50/50/50
f 54/54/54 56/56/56 52/52/52
f 55/55/55 191/191/191 56/56/56
f 57/57/57 191/191/191 55/55/55
f 59/59/59 192/192/192 60/60/60
f 62/62/62 192/192/192 59/59/59
f 64/64/64 66/66/66 62/62/62
f 65/65/65 68/68/68 66/66/66
f 67/67/67 193/193/193 68/68/68
f 69/69/69 193/193/193 67/67/67
f 71/71/71 69/69/69 70/70/70
f 73/73/73 71/71/71 72/72/72
f 19/19/19 78/78/78 75/75/75
f 79/79/79 21/21/21 80/80/80
f 23/23/23 24/24/24 84/84/84
f 18/18/18 194/194/194 86/86/86
f 88/88/88 195/195/195 89/89/89
f 91/91/91 88/88/88 90/90/90
f 91/91/91 92/92/92 93/93/93
f 94/94/94 93/93/93 95/95/95
f 96/96/96 95/95/95 97/97/97
f 98/98/98 97/97/97 99/99/99
f 101/101/101 100/100/100 99/99/99
f 103/103/103 101/101/101 102/102/102
f 105/105/105 196/196/196 106/106/106
f 105/105/105 107/107/107 108/108/108
f 110/110/110 109/109/109 108/108/108
f 112/112/112 110/110/110 111/111/111
f 114/114/114 112/112/112 113/113/113
f 116/116/116 114/114/114 115/115/115
f 116/116/116 117/117/117 118/118/118
f 119/119/119 118/118/118 120/120/120
f 59/59/59 61/61/61 122/122/122
f 63/63/63 59/59/59 123/123/123
f 64/64/64 63/63/63 124/124/124
f 65/65/65 64/64/64 125/125/125
f 65/65/65 126/126/126 127/127/127
f 67/67/67 127/127/127 128/128/128
f 70/70/70 128/128/128 129/129/129
f 72/72/72 129/129/129 130/130/130
f 122/122/122 197/197/197 131/131/131
f 123/123/123 131/131/131 132/132/132
f 124/124/124 132/132/132 133/133/133
f 125/125/125 133/133/133 134/134/134
f 127/127/127 126/126/126 134/134/134
f 127/127/127 135/135/135 136/136/136
f 129/129/129 128/128/128 136/136/136
f 129/129/129 137/137/137 138/138/138
f 139/139/139 198/198/198 140/140/140
f 142/142/142 199/199/199 143/143/143
f 145/145/145 200/200/200 146/146/146
f 148/148/148 201/201/201 149/149/149
f 151/151/151 202/202/202 152/152/152
f 154/154/154 203/203/203 155/155/155
f 157/157/157 204/204/204 158/158/158
f 160/160/160 205/205/205 161/161/161
f 163/163/163 206/206/206 164/164/164
f 166/166/166 163/163/163 165/165/165
f 168/168/168 170/170/170 166/166/166
f 169/169/169 207/207/207 170/170/170
f 171/171/171 208/208/208 172/172/172
f 174/174/174 209/209/209 171/171/171
f 176/176/176 210/210/210 175/175/175
f 173/173/173 211/211/211 178/178/178
