v -619.228 831.946 198.303
v -618.102 842.05 159.429
v -618.102 831.655 198.225
v -620.052 832.742 198.516
v -619.228 842.341 159.507
v -620.354 844.226 160.012
v -620.354 833.83 198.808
v -620.052 834.918 199.099
v -619.228 846.11 160.517
v -619.228 835.714 199.313
v -618.102 836.006 199.391
v -616.976 846.11 160.517
v -616.976 835.714 199.313
v -616.151 845.313 160.303
v -616.151 834.918 199.099
v -615.85 844.226 160.012
v -615.85 833.83 198.808
v -616.151 832.742 198.516
v -616.976 842.341 159.507
v -616.976 831.946 198.303
v -618.102 842.05 159.429
v -618.102 831.655 198.225
v -619.228 842.341 159.507
v -618.102 852.445 120.633
v -618.102 842.05 159.429
v -620.052 853.533 120.924
v -620.052 843.138 159.72
v -620.354 854.621 121.216
v -620.354 844.226 160.012
v -620.052 845.313 160.303
v -619.228 856.505 121.721
v -619.228 846.11 160.517
v -618.102 856.796 121.799
v -618.102 846.401 160.595
v -616.976 856.505 121.721
v -616.976 846.11 160.517
v -616.151 845.313 160.303
v -615.85 854.621 121.216
v -615.85 844.226 160.012
v -616.151 843.138 159.72
v -616.976 852.737 120.711
v -616.976 842.341 159.507
v -618.102 852.445 120.633
v -618.102 842.05 159.429
v -619.228 863.132 81.915
v -618.102 852.445 120.633
v -619.228 852.737 120.711
v -620.052 863.929 82.1284
v -620.052 853.533 120.924
v -620.354 854.621 121.216
v -620.052 855.709 121.507
v -620.354 865.016 82.4198
v -619.228 866.9 82.9247
v -619.228 856.505 121.721
v -618.102 867.192 83.0028
v -618.102 856.796 121.799
v -616.976 856.505 121.721
v -616.151 855.709 121.507
v -616.976 866.9 82.9247
v -615.85 865.016 82.4198
v -615.85 854.621 121.216
v -616.151 863.929 82.1284
v -616.151 853.533 120.924
v -616.976 852.737 120.711
v -618.102 852.445 120.633
v -616.976 863.132 81.915
v -618.63 884.356 7.87654
v -618.102 884.062 7.79774
v -618.406 884.14 7.81884
v -618.63 884.944 8.03424
v -618.102 885.239 8.11314
v -617.574 884.944 8.03424
v -617.574 884.356 7.87654
v -617.493 884.65 7.95544
v -618.711 884.65 7.95544
v -617.797 884.14 7.81884
v -619.648 876.052 30.8866
v -618.102 875.591 34.2544
v -619.228 875.882 34.3325
v -620.78 877.145 31.1795
v -620.052 876.678 34.5459
v -620.354 877.766 34.8373
v -620.052 878.854 35.1288
v -621.194 878.639 31.5797
v -619.648 881.226 32.2728
v -619.228 879.65 35.3422
v -618.102 881.626 32.38
v -618.102 879.942 35.4203
v -616.976 879.65 35.3422
v -616.151 878.854 35.1288
v -616.556 881.226 32.2728
v -615.85 877.766 34.8373
v -615.424 880.132 31.9798
v -615.424 877.145 31.1795
v -616.151 876.678 34.5459
v -616.976 875.882 34.3325
v -618.102 875.591 34.2544
v -616.556 876.052 30.8866
v -619.751 880.195 14.1419
v -618.102 877.524 20.8064
v -620.034 878.025 20.9404
v -620.958 881.361 14.4543
v -621.449 879.391 21.3065
v -621.399 882.954 14.8811
v -621.967 881.258 21.8067
v -620.958 884.546 15.3078
v -621.449 883.124 22.3068
v -619.751 885.712 15.6202
v -618.102 886.139 15.7345
v -620.034 884.49 22.6729
v -618.102 884.991 22.807
v -616.169 884.49 22.6729
v -614.755 883.124 22.3068
v -616.453 885.712 15.6202
v -614.237 881.258 21.8067
v -615.246 884.546 15.3078
v -614.755 879.391 21.3065
v -614.804 882.954 14.8811
v -616.169 878.025 20.9404
v -615.246 881.361 14.4543
v -618.102 877.524 20.8064
v -616.453 880.195 14.1419
v -618.406 884.14 7.81884
v -618.102 879.769 14.0276
v -618.63 884.356 7.87654
v -618.711 884.65 7.95544
v -618.63 884.944 8.03424
v -618.406 885.16 8.09204
v -618.102 885.239 8.11314
v -617.797 885.16 8.09204
v -617.574 884.944 8.03424
v -617.493 884.65 7.95544
v -617.574 884.356 7.87654
v -618.102 879.769 14.0276
v -617.797 884.14 7.81884
v -618.102 876.557 27.5304
v -619.631 876.953 27.6365
v -620.751 878.035 27.9262
v -621.16 879.512 28.322
v -620.751 880.989 28.7178
v -619.631 882.07 29.0076
v -618.102 882.466 29.1136
v -616.573 882.07 29.0076
v -615.453 880.989 28.7178
v -615.043 879.512 28.322
v -615.453 878.035 27.9262
v -616.573 876.953 27.6365
v -618.102 876.557 27.5304
v -618.102 875.652 30.7794
v -620.78 880.132 31.9798
v -615.01 878.639 31.5797
v -618.102 875.652 30.7794
v -618.102 862.841 81.8369
v -619.228 863.132 81.915
v -620.052 863.929 82.1284
v -620.354 865.016 82.4198
v -620.052 866.104 82.7113
v -619.228 866.9 82.9247
v -618.102 867.192 83.0028
v -616.976 866.9 82.9247
v -616.151 866.104 82.7113
v -615.85 865.016 82.4198
v -616.151 863.929 82.1284
v -616.976 863.132 81.915
v -618.102 862.841 81.8369
v -620.052 843.138 159.72
v -620.052 845.313 160.303
v -618.102 846.401 160.595
v -616.151 843.138 159.72
v -619.228 852.737 120.711
v -620.052 855.709 121.507
v -616.151 855.709 121.507
v -616.151 853.533 120.924
v -618.102 862.841 81.8369
v -620.052 866.104 82.7113
v -616.151 866.104 82.7113
v -618.102 862.841 81.8369
v -618.406 885.16 8.09204
v -617.797 885.16 8.09204
v -618.102 884.062 7.79774
v -618.102 884.062 7.79774
vt 0.9633 0.0053
vt 0.9876 0.5241
vt 0.9876 0.0053
vt 0.9391 0.0053
vt 0.9633 0.5241
vt 0.9148 0.5241
vt 0.9148 0.0053
vt 0.8906 0.0053
vt 0.8663 0.5241
vt 0.8663 0.0053
vt 0.8421 0.0053
vt 0.8178 0.5241
vt 0.8178 0.0053
vt 0.7936 0.5241
vt 0.7936 0.0053
vt 0.7694 0.5241
vt 0.7694 0.0053
vt 0.7451 0.0053
vt 0.7209 0.5241
vt 0.7209 0.0053
vt 0.6966 0.5241
vt 0.6966 0.0053
vt 0.9633 0.0053
vt 0.9876 0.5241
vt 0.9876 0.0053
vt 0.9391 0.5241
vt 0.9391 0.0053
vt 0.9148 0.5241
vt 0.9148 0.0053
vt 0.8906 0.0053
vt 0.8663 0.5241
vt 0.8663 0.0053
vt 0.8421 0.5241
vt 0.8421 0.0053
vt 0.8178 0.5241
vt 0.8178 0.0053
vt 0.7936 0.0053
vt 0.7694 0.5241
vt 0.7694 0.0053
vt 0.7451 0.0053
vt 0.7209 0.5241
vt 0.7209 0.0053
vt 0.6966 0.5241
vt 0.6966 0.0053
vt 0.9633 0.5241
vt 0.9876 0.0053
vt 0.9633 0.0053
vt 0.9391 0.5241
vt 0.9391 0.0053
vt 0.9148 0.0053
vt 0.8906 0.0053
vt 0.9148 0.5241
vt 0.8663 0.5241
vt 0.8663 0.0053
vt 0.8421 0.5241
vt 0.8421 0.0053
vt 0.8178 0.0053
vt 0.7936 0.0053
vt 0.8178 0.5241
vt 0.7694 0.5241
vt 0.7694 0.0053
vt 0.7451 0.5241
vt 0.7451 0.0053
vt 0.7209 0.0053
vt 0.6966 0.0053
vt 0.7209 0.5241
vt 0.9918 0.0129
vt 0.9918 0.0129
vt 0.9918 0.0129
vt 0.9918 0.0129
vt 0.9918 0.0129
vt 0.9918 0.0129
vt 0.9918 0.0129
vt 0.9918 0.0129
vt 0.9918 0.0129
vt 0.9918 0.0129
vt 0.9633 0.6851
vt 0.9876 0.6416
vt 0.9633 0.6416
vt 0.9391 0.6851
vt 0.9391 0.6416
vt 0.9148 0.6416
vt 0.8906 0.6416
vt 0.9148 0.6851
vt 0.8663 0.6851
vt 0.8663 0.6416
vt 0.8421 0.6851
vt 0.8421 0.6416
vt 0.8178 0.6416
vt 0.7936 0.6416
vt 0.8178 0.6851
vt 0.7694 0.6416
vt 0.7936 0.6851
vt 0.7451 0.6851
vt 0.7451 0.6416
vt 0.7209 0.6416
vt 0.6966 0.6416
vt 0.7209 0.6851
vt 0.9633 0.9029
vt 0.9876 0.8158
vt 0.9633 0.8158
vt 0.9391 0.9029
vt 0.9391 0.8158
vt 0.9148 0.9029
vt 0.9148 0.8158
vt 0.8906 0.9029
vt 0.8906 0.8158
vt 0.8663 0.9029
vt 0.8421 0.9029
vt 0.8663 0.8158
vt 0.8421 0.8158
vt 0.8178 0.8158
vt 0.7936 0.8158
vt 0.8178 0.9029
vt 0.7694 0.8158
vt 0.7936 0.9029
vt 0.7451 0.8158
vt 0.7694 0.9029
vt 0.7209 0.8158
vt 0.7451 0.9029
vt 0.6966 0.8158
vt 0.7209 0.9029
vt 0.9633 0.99
vt 0.9876 0.9029
vt 0.9391 0.99
vt 0.9148 0.99
vt 0.8906 0.99
vt 0.8663 0.99
vt 0.8421 0.99
vt 0.8178 0.99
vt 0.7936 0.99
vt 0.7694 0.99
vt 0.7451 0.99
vt 0.6966 0.9029
vt 0.7209 0.99
vt 0.9876 0.7287
vt 0.9633 0.7287
vt 0.9391 0.7287
vt 0.9148 0.7287
vt 0.8906 0.7287
vt 0.8663 0.7287
vt 0.8421 0.7287
vt 0.8178 0.7287
vt 0.7936 0.7287
vt 0.7694 0.7287
vt 0.7451 0.7287
vt 0.7209 0.7287
vt 0.6966 0.7287
vt 0.9876 0.6851
vt 0.8906 0.6851
vt 0.7694 0.6851
vt 0.6966 0.6851
vt 0.9876 0.0053
vt 0.9633 0.0053
vt 0.9391 0.0053
vt 0.9148 0.0053
vt 0.8906 0.0053
vt 0.8663 0.0053
vt 0.8421 0.0053
vt 0.8178 0.0053
vt 0.7936 0.0053
vt 0.7694 0.0053
vt 0.7451 0.0053
vt 0.7209 0.0053
vt 0.6966 0.0053
vt 0.9391 0.5241
vt 0.8906 0.5241
vt 0.8421 0.5241
vt 0.7451 0.5241
vt 0.9633 0.5241
vt 0.8906 0.5241
vt 0.7936 0.5241
vt 0.7451 0.5241
vt 0.9876 0.5241
vt 0.8906 0.5241
vt 0.7936 0.5241
vt 0.6966 0.5241
vt 0.9918 0.0129
vt 0.9918 0.0129
vt 0.9876 0.99
vt 0.6966 0.99
vn -0.5 -0.8365 -0.2242
vn 0 -0.9659 -0.2588
vn 0 -0.9659 -0.2588
vn -0.866 -0.483 -0.1294
vn -0.5 -0.8365 -0.2241
vn -1 -0 -0
vn -1 -0 -0
vn -0.866 0.483 0.1294
vn -0.5 0.8365 0.2241
vn -0.5 0.8365 0.2242
vn -0 0.9659 0.2588
vn 0.5001 0.8365 0.2241
vn 0.5 0.8365 0.2241
vn 0.866 0.4829 0.1294
vn 0.866 0.483 0.1294
vn 1 -0 -0
vn 1 -0 -0
vn 0.866 -0.483 -0.1294
vn 0.5001 -0.8365 -0.2241
vn 0.5 -0.8365 -0.2241
vn 0 -0.9659 -0.2588
vn 0 -0.9659 -0.2588
vn -0.5 -0.8365 -0.2241
vn 0 -0.9659 -0.2588
vn 0 -0.9659 -0.2588
vn -0.866 -0.483 -0.1294
vn -0.866 -0.483 -0.1294
vn -1 -0 -0
vn -1 -0 -0
vn -0.866 0.483 0.1294
vn -0.5 0.8365 0.2242
vn -0.5 0.8365 0.2241
vn -0 0.9659 0.2588
vn -0 0.9659 0.2588
vn 0.5 0.8365 0.2241
vn 0.5001 0.8365 0.2241
vn 0.866 0.4829 0.1294
vn 1 -0 -0
vn 1 -0 -0
vn 0.866 -0.483 -0.1294
vn 0.5 -0.8365 -0.2241
vn 0.5001 -0.8365 -0.2241
vn 0 -0.9659 -0.2588
vn 0 -0.9659 -0.2588
vn -0.5 -0.8365 -0.2242
vn 0 -0.9659 -0.2588
vn -0.5 -0.8365 -0.2241
vn -0.866 -0.483 -0.1294
vn -0.866 -0.483 -0.1294
vn -1 -0 -0
vn -0.866 0.483 0.1294
vn -1 -0 -0
vn -0.5 0.8365 0.2241
vn -0.5 0.8365 0.2242
vn -0 0.9659 0.2588
vn -0 0.9659 0.2588
vn 0.5 0.8365 0.2241
vn 0.866 0.483 0.1294
vn 0.5 0.8365 0.2241
vn 1 -0 -0
vn 1 -0 -0
vn 0.866 -0.483 -0.1294
vn 0.866 -0.483 -0.1294
vn 0.5 -0.8365 -0.2241
vn 0 -0.9659 -0.2588
vn 0.5 -0.8365 -0.2241
vn 0 0.2589 -0.9659
vn 0 0.2589 -0.9659
vn 0 0.2588 -0.9659
vn 0 0.2589 -0.9659
vn 0 0.2589 -0.9659
vn 0 0.2589 -0.9659
vn 0 0.2589 -0.9659
vn 0.0002 0.2589 -0.9659
vn -0.0006 0.2589 -0.9659
vn -0 0.259 -0.9659
vn -0.4967 -0.8607 -0.1121
vn -0 -0.9906 -0.1368
vn -0.4961 -0.8622 -0.1024
vn -0.8603 -0.5094 -0.018
vn -0.8593 -0.5114 -0.0084
vn -0.9923 -0.0322 0.12
vn -0.8593 0.4471 0.2484
vn -0.9934 -0.0296 0.1105
vn -0.4967 0.8014 0.3332
vn -0.4961 0.7979 0.3424
vn -0 0.93 0.3677
vn -0 0.9263 0.3768
vn 0.4962 0.7978 0.3424
vn 0.8593 0.447 0.2484
vn 0.4967 0.8014 0.3332
vn 0.9923 -0.0321 0.12
vn 0.8603 0.4502 0.2391
vn 0.8603 -0.5095 -0.018
vn 0.8594 -0.5113 -0.0084
vn 0.4962 -0.8622 -0.1024
vn -0 -0.9906 -0.1368
vn 0.4967 -0.8607 -0.1121
vn -0.49 -0.7694 -0.4097
vn -0 -0.9733 -0.2296
vn -0.5006 -0.8432 -0.1963
vn -0.8476 -0.4205 -0.3236
vn -0.8665 -0.488 -0.1051
vn -0.977 0.0548 -0.2063
vn -0.9998 -0.0033 0.0192
vn -0.8444 0.5282 -0.0895
vn -0.8652 0.4805 0.1434
vn -0.4868 0.8735 -0.0042
vn -0 0.9996 0.0269
vn -0.4992 0.8342 0.2342
vn -0 0.9636 0.2674
vn 0.4992 0.8342 0.2342
vn 0.8652 0.4805 0.1434
vn 0.4868 0.8735 -0.0042
vn 0.9998 -0.0033 0.0192
vn 0.8444 0.5281 -0.0895
vn 0.8665 -0.4879 -0.1051
vn 0.977 0.0548 -0.2063
vn 0.5006 -0.8432 -0.1962
vn 0.8477 -0.4204 -0.3236
vn -0 -0.9733 -0.2296
vn 0.4901 -0.7694 -0.4097
vn -0.4691 -0.701 -0.5371
vn 0 -0.8974 -0.4413
vn -0.8118 -0.3668 -0.4544
vn -0.9357 0.0882 -0.3417
vn -0.8089 0.5415 -0.2291
vn -0.4663 0.8723 -0.1471
vn -0 0.9931 -0.1173
vn 0.4664 0.8722 -0.1472
vn 0.809 0.5412 -0.2293
vn 0.9357 0.088 -0.3417
vn 0.8118 -0.3667 -0.4544
vn 0 -0.8974 -0.4413
vn 0.4692 -0.701 -0.5371
vn -0 -0.9787 -0.2053
vn -0.4993 -0.8495 -0.1706
vn -0.8647 -0.4964 -0.076
vn -0.9985 -0.0143 0.0532
vn -0.8647 0.4679 0.1824
vn -0.4992 0.821 0.277
vn -0 0.9502 0.3116
vn 0.4993 0.821 0.277
vn 0.8647 0.468 0.1824
vn 0.9985 -0.0143 0.0532
vn 0.8647 -0.4965 -0.076
vn 0.4993 -0.8495 -0.1706
vn -0 -0.9787 -0.2053
vn 0 -0.9892 -0.1466
vn -0.8603 0.4502 0.2391
vn 0.9934 -0.0296 0.1106
vn 0 -0.9892 -0.1466
vn 0 -0.9659 -0.2588
vn -0.5 -0.8365 -0.2242
vn -0.866 -0.483 -0.1294
vn -1 -0 -0
vn -0.866 0.483 0.1294
vn -0.5 0.8365 0.2241
vn -0 0.9659 0.2588
vn 0.5 0.8365 0.2241
vn 0.866 0.483 0.1294
vn 1 -0 -0
vn 0.866 -0.483 -0.1294
vn 0.5 -0.8365 -0.2241
vn 0 -0.9659 -0.2588
vn -0.866 -0.483 -0.1294
vn -0.866 0.483 0.1294
vn -0 0.9659 0.2588
vn 0.866 -0.483 -0.1294
vn -0.5 -0.8365 -0.2241
vn -0.866 0.483 0.1294
vn 0.866 0.483 0.1294
vn 0.866 -0.483 -0.1294
vn 0 -0.9659 -0.2588
vn -0.866 0.483 0.1294
vn 0.866 0.483 0.1294
vn 0 -0.9659 -0.2588
vn -0.0002 0.2594 -0.9658
vn 0.0002 0.2595 -0.9657
vn -0 -0.8234 -0.5674
vn -0 -0.8234 -0.5674
f 1/1/1 2/2/2 3/3/3
f 4/4/4 5/5/5 1/1/1
f 6/6/6 4/4/4 7/7/7
f 8/8/8 6/6/6 7/7/7
f 9/9/9 8/8/8 10/10/10
f 11/11/11 9/9/9 10/10/10
f 12/12/12 11/11/11 13/13/13
f 14/14/14 13/13/13 15/15/15
f 16/16/16 15/15/15 17/17/17
f 18/18/18 16/16/16 17/17/17
f 19/19/19 18/18/18 20/20/20
f 21/21/21 20/20/20 22/22/22
f 23/23/23 24/24/24 25/25/25
f 26/26/26 23/23/23 27/27/27
f 28/28/28 27/27/27 29/29/29
f 30/30/30 28/28/28 29/29/29
f 31/31/31 30/30/30 32/32/32
f 33/33/33 32/32/32 34/34/34
f 35/35/35 34/34/34 36/36/36
f 37/37/37 35/35/35 36/36/36
f 38/38/38 37/37/37 39/39/39
f 40/40/40 38/38/38 39/39/39
f 41/41/41 40/40/40 42/42/42
f 43/43/43 42/42/42 44/44/44
f 45/45/45 46/46/46 47/47/47
f 48/48/48 47/47/47 49/49/49
f 50/50/50 48/48/48 49/49/49
f 51/51/51 52/52/52 50/50/50
f 53/53/53 51/51/51 54/54/54
f 55/55/55 54/54/54 56/56/56
f 57/57/57 55/55/55 56/56/56
f 58/58/58 59/59/59 57/57/57
f 60/60/60 58/58/58 61/61/61
f 62/62/62 61/61/61 63/63/63
f 64/64/64 62/62/62 63/63/63
f 65/65/65 66/66/66 64/64/64
f 67/67/67 68/68/68 69/69/69
f 70/70/70 71/71/71 67/67/67
f 71/71/71 72/72/72 73/73/73
f 72/72/72 74/74/74 73/73/73
f 68/68/68 71/71/71 73/73/73
f 75/75/75 70/70/70 67/67/67
f 76/76/76 68/68/68 73/73/73
f 77/77/77 78/78/78 79/79/79
f 80/80/80 79/79/79 81/81/81
f 82/82/82 80/80/80 81/81/81
f 83/83/83 84/84/84 82/82/82
f 85/85/85 83/83/83 86/86/86
f 87/87/87 86/86/86 88/88/88
f 89/89/89 87/87/87 88/88/88
f 90/90/90 91/91/91 89/89/89
f 92/92/92 93/93/93 90/90/90
f 94/94/94 92/92/92 95/95/95
f 96/96/96 94/94/94 95/95/95
f 97/97/97 98/98/98 96/96/96
f 99/99/99 100/100/100 101/101/101
f 101/101/101 102/102/102 99/99/99
f 103/103/103 104/104/104 102/102/102
f 105/105/105 106/106/106 104/104/104
f 107/107/107 108/108/108 106/106/106
f 109/109/109 110/110/110 111/111/111
f 112/112/112 109/109/109 111/111/111
f 113/113/113 114/114/114 112/112/112
f 115/115/115 116/116/116 113/113/113
f 117/117/117 118/118/118 115/115/115
f 119/119/119 120/120/120 117/117/117
f 121/121/121 122/122/122 119/119/119
f 123/123/123 124/124/124 99/99/99
f 125/125/125 99/99/99 102/102/102
f 102/102/102 126/126/126 125/125/125
f 104/104/104 127/127/127 126/126/126
f 128/128/128 106/106/106 108/108/108
f 129/129/129 108/108/108 109/109/109
f 114/114/114 129/129/129 109/109/109
f 116/116/116 130/130/130 114/114/114
f 118/118/118 131/131/131 116/116/116
f 120/120/120 132/132/132 118/118/118
f 122/122/122 133/133/133 120/120/120
f 134/134/134 135/135/135 122/122/122
f 101/101/101 136/136/136 137/137/137
f 138/138/138 101/101/101 137/137/137
f 105/105/105 138/138/138 139/139/139
f 140/140/140 105/105/105 139/139/139
f 110/110/110 140/140/140 141/141/141
f 142/142/142 110/110/110 141/141/141
f 143/143/143 111/111/111 142/142/142
f 113/113/113 143/143/143 144/144/144
f 115/115/115 144/144/144 145/145/145
f 146/146/146 115/115/115 145/145/145
f 119/119/119 146/146/146 147/147/147
f 148/148/148 119/119/119 147/147/147
f 137/137/137 149/149/149 77/77/77
f 80/80/80 137/137/137 77/77/77
f 139/139/139 80/80/80 84/84/84
f 150/150/150 139/139/139 84/84/84
f 141/141/141 150/150/150 85/85/85
f 87/87/87 141/141/141 85/85/85
f 91/91/91 142/142/142 87/87/87
f 93/93/93 143/143/143 91/91/91
f 151/151/151 144/144/144 93/93/93
f 94/94/94 145/145/145 151/151/151
f 147/147/147 94/94/94 98/98/98
f 152/152/152 147/147/147 98/98/98
f 79/79/79 153/153/153 154/154/154
f 81/81/81 154/154/154 155/155/155
f 156/156/156 81/81/81 155/155/155
f 83/83/83 156/156/156 157/157/157
f 86/86/86 157/157/157 158/158/158
f 88/88/88 158/158/158 159/159/159
f 89/89/89 159/159/159 160/160/160
f 161/161/161 89/89/89 160/160/160
f 162/162/162 90/90/90 161/161/161
f 95/95/95 162/162/162 163/163/163
f 164/164/164 95/95/95 163/163/163
f 165/165/165 96/96/96 164/164/164
f 1/1/1 5/5/5 2/2/2
f 4/4/4 166/166/166 5/5/5
f 6/6/6 166/166/166 4/4/4
f 8/8/8 167/167/167 6/6/6
f 9/9/9 167/167/167 8/8/8
f 11/11/11 168/168/168 9/9/9
f 12/12/12 168/168/168 11/11/11
f 14/14/14 12/12/12 13/13/13
f 16/16/16 14/14/14 15/15/15
f 18/18/18 169/169/169 16/16/16
f 19/19/19 169/169/169 18/18/18
f 21/21/21 19/19/19 20/20/20
f 23/23/23 170/170/170 24/24/24
f 26/26/26 170/170/170 23/23/23
f 28/28/28 26/26/26 27/27/27
f 30/30/30 171/171/171 28/28/28
f 31/31/31 171/171/171 30/30/30
f 33/33/33 31/31/31 32/32/32
f 35/35/35 33/33/33 34/34/34
f 37/37/37 172/172/172 35/35/35
f 38/38/38 172/172/172 37/37/37
f 40/40/40 173/173/173 38/38/38
f 41/41/41 173/173/173 40/40/40
f 43/43/43 41/41/41 42/42/42
f 45/45/45 174/174/174 46/46/46
f 48/48/48 45/45/45 47/47/47
f 50/50/50 52/52/52 48/48/48
f 51/51/51 175/175/175 52/52/52
f 53/53/53 175/175/175 51/51/51
f 55/55/55 53/53/53 54/54/54
f 57/57/57 59/59/59 55/55/55
f 58/58/58 176/176/176 59/59/59
f 60/60/60 176/176/176 58/58/58
f 62/62/62 60/60/60 61/61/61
f 64/64/64 66/66/66 62/62/62
f 65/65/65 177/177/177 66/66/66
f 70/70/70 178/178/178 71/71/71
f 71/71/71 179/179/179 72/72/72
f 68/68/68 67/67/67 71/71/71
f 77/77/77 149/149/149 78/78/78
f 80/80/80 77/77/77 79/79/79
f 82/82/82 84/84/84 80/80/80
f 83/83/83 150/150/150 84/84/84
f 85/85/85 150/150/150 83/83/83
f 87/87/87 85/85/85 86/86/86
f 89/89/89 91/91/91 87/87/87
f 90/90/90 93/93/93 91/91/91
f 92/92/92 151/151/151 93/93/93
f 94/94/94 151/151/151 92/92/92
f 96/96/96 98/98/98 94/94/94
f 97/97/97 152/152/152 98/98/98
f 99/99/99 124/124/124 100/100/100
f 101/101/101 103/103/103 102/102/102
f 103/103/103 105/105/105 104/104/104
f 105/105/105 107/107/107 106/106/106
f 107/107/107 110/110/110 108/108/108
f 109/109/109 108/108/108 110/110/110
f 112/112/112 114/114/114 109/109/109
f 113/113/113 116/116/116 114/114/114
f 115/115/115 118/118/118 116/116/116
f 117/117/117 120/120/120 118/118/118
f 119/119/119 122/122/122 120/120/120
f 121/121/121 134/134/134 122/122/122
f 123/123/123 180/180/180 124/124/124
f 125/125/125 123/123/123 99/99/99
f 102/102/102 104/104/104 126/126/126
f 104/104/104 106/106/106 127/127/127
f 128/128/128 127/127/127 106/106/106
f 129/129/129 128/128/128 108/108/108
f 114/114/114 130/130/130 129/129/129
f 116/116/116 131/131/131 130/130/130
f 118/118/118 132/132/132 131/131/131
f 120/120/120 133/133/133 132/132/132
f 122/122/122 135/135/135 133/133/133
f 134/134/134 181/181/181 135/135/135
f 101/101/101 100/100/100 136/136/136
f 138/138/138 103/103/103 101/101/101
f 105/105/105 103/103/103 138/138/138
f 140/140/140 107/107/107 105/105/105
f 110/110/110 107/107/107 140/140/140
f 142/142/142 111/111/111 110/110/110
f 143/143/143 112/112/112 111/111/111
f 113/113/113 112/112/112 143/143/143
f 115/115/115 113/113/113 144/144/144
f 146/146/146 117/117/117 115/115/115
f 119/119/119 117/117/117 146/146/146
f 148/148/148 121/121/121 119/119/119
f 137/137/137 136/136/136 149/149/149
f 80/80/80 138/138/138 137/137/137
f 139/139/139 138/138/138 80/80/80
f 150/150/150 140/140/140 139/139/139
f 141/141/141 140/140/140 150/150/150
f 87/87/87 142/142/142 141/141/141
f 91/91/91 143/143/143 142/142/142
f 93/93/93 144/144/144 143/143/143
f 151/151/151 145/145/145 144/144/144
f 94/94/94 146/146/146 145/145/145
f 147/147/147 146/146/146 94/94/94
f 152/152/152 148/148/148 147/147/147
f 79/79/79 78/78/78 153/153/153
f 81/81/81 79/79/79 154/154/154
f 156/156/156 82/82/82 81/81/81
f 83/83/83 82/82/82 156/156/156
f 86/86/86 83/83/83 157/157/157
f 88/88/88 86/86/86 158/158/158
f 89/89/89 88/88/88 159/159/159
f 161/161/161 90/90/90 89/89/89
f 162/162/162 92/92/92 90/90/90
f 95/95/95 92/92/92 162/162/162
f 164/164/164 96/96/96 95/95/95
f 165/165/165 97/97/97 96/96/96
