v -688.985 280.183 197.881
v -648.821 279.881 199.007
v -688.985 279.881 199.007
v -688.985 281.007 197.056
v -648.821 280.183 197.881
v -688.985 282.133 196.755
v -648.821 281.007 197.056
v -688.985 283.26 197.056
v -648.821 282.133 196.755
v -688.985 284.084 197.881
v -648.821 283.26 197.056
v -688.985 284.386 199.007
v -648.821 284.084 197.881
v -688.985 284.084 200.133
v -648.821 284.386 199.007
v -688.985 283.26 200.957
v -648.821 284.084 200.133
v -688.985 282.133 201.259
v -648.821 283.26 200.957
v -688.985 281.007 200.957
v -648.821 282.133 201.259
v -688.985 280.183 200.133
v -648.821 281.007 200.957
v -688.985 279.881 199.007
v -648.821 280.183 200.133
v -729.15 280.183 197.881
v -688.985 279.881 199.007
v -729.15 279.881 199.007
v -729.15 281.007 197.056
v -688.985 280.183 197.881
v -729.15 282.133 196.755
v -688.985 281.007 197.056
v -729.15 283.26 197.056
v -688.985 282.133 196.755
v -729.15 284.084 197.881
v -688.985 283.26 197.056
v -729.15 284.386 199.007
v -688.985 284.084 197.881
v -729.15 284.084 200.133
v -688.985 284.386 199.007
v -729.15 283.26 200.957
v -688.985 284.084 200.133
v -729.15 282.133 201.259
v -688.985 283.26 200.957
v -729.15 281.007 200.957
v -688.985 282.133 201.259
v -729.15 280.183 200.133
v -688.985 281.007 200.957
v -729.15 279.881 199.007
v -688.985 280.183 200.133
v -769.315 280.183 197.881
v -729.15 279.881 199.007
v -769.315 279.881 199.007
v -769.315 281.007 197.056
v -729.15 280.183 197.881
v -769.315 282.133 196.755
v -729.15 281.007 197.056
v -769.315 283.26 197.056
v -729.15 282.133 196.755
v -769.315 284.084 197.881
v -729.15 283.26 197.056
v -769.315 284.386 199.007
v -729.15 284.084 197.881
v -769.315 284.084 200.133
v -729.15 284.386 199.007
v -769.315 283.26 200.957
v -729.15 284.084 200.133
v -769.315 282.133 201.259
v -729.15 283.26 200.957
v -769.315 281.007 200.957
v -729.15 282.133 201.259
v -769.315 280.183 200.133
v -729.15 281.007 200.957
v -769.315 279.881 199.007
v -729.15 280.183 200.133
v -803.759 280.183 197.881
v -769.315 279.881 199.007
v -803.759 279.881 199.007
v -803.759 281.007 197.056
v -769.315 280.183 197.881
v -803.759 282.133 196.755
v -769.315 281.007 197.056
v -803.759 283.26 197.056
v -769.315 282.133 196.755
v -803.759 284.084 197.881
v -769.315 283.26 197.056
v -803.759 284.386 199.007
v -769.315 284.084 197.881
v -803.759 284.084 200.133
v -769.315 284.386 199.007
v -803.759 283.26 200.957
v -769.315 284.084 200.133
v -803.759 282.133 201.259
v -769.315 283.26 200.957
v -803.759 281.007 200.957
v -769.315 282.133 201.259
v -803.759 280.183 200.133
v -769.315 281.007 200.957
v -803.759 279.881 199.007
v -769.315 280.183 200.133
v -918.533 280.183 197.881
v -958.698 279.881 199.007
v -958.698 280.183 197.881
v -918.533 281.007 197.056
v -958.698 281.007 197.056
v -918.533 282.133 196.755
v -958.698 282.133 196.755
v -918.533 283.26 197.056
v -958.698 283.26 197.056
v -918.533 284.084 197.881
v -958.698 284.084 197.881
v -918.533 284.386 199.007
v -958.698 284.386 199.007
v -918.533 284.084 200.133
v -958.698 284.084 200.133
v -918.533 283.26 200.957
v -958.698 283.26 200.957
v -918.533 282.133 201.259
v -958.698 282.133 201.259
v -918.533 281.007 200.957
v -958.698 281.007 200.957
v -918.533 280.183 200.133
v -958.698 280.183 200.133
v -918.533 279.881 199.007
v -958.698 279.881 199.007
v -878.369 280.183 197.881
v -918.533 279.881 199.007
v -918.533 280.183 197.881
v -878.369 281.007 197.056
v -918.533 281.007 197.056
v -878.369 282.133 196.755
v -918.533 282.133 196.755
v -878.369 283.26 197.056
v -918.533 283.26 197.056
v -878.369 284.084 197.881
v -918.533 284.084 197.881
v -878.369 284.386 199.007
v -918.533 284.386 199.007
v -878.369 284.084 200.133
v -918.533 284.084 200.133
v -878.369 283.26 200.957
v -918.533 283.26 200.957
v -878.369 282.133 201.259
v -918.533 282.133 201.259
v -878.369 281.007 200.957
v -918.533 281.007 200.957
v -878.369 280.183 200.133
v -918.533 280.183 200.133
v -878.369 279.881 199.007
v -918.533 279.881 199.007
v -838.204 280.183 197.881
v -878.369 279.881 199.007
v -878.369 280.183 197.881
v -838.204 281.007 197.056
v -878.369 281.007 197.056
v -838.204 282.133 196.755
v -878.369 282.133 196.755
v -838.204 283.26 197.056
v -878.369 283.26 197.056
v -838.204 284.084 197.881
v -878.369 284.084 197.881
v -838.204 284.386 199.007
v -878.369 284.386 199.007
v -838.204 284.084 200.133
v -878.369 284.084 200.133
v -838.204 283.26 200.957
v -878.369 283.26 200.957
v -838.204 282.133 201.259
v -878.369 282.133 201.259
v -838.204 281.007 200.957
v -878.369 281.007 200.957
v -838.204 280.183 200.133
v -878.369 280.183 200.133
v -838.204 279.881 199.007
v -878.369 279.881 199.007
v -838.204 279.881 199.007
v -838.204 280.183 197.881
v -838.204 281.007 197.056
v -838.204 282.133 196.755
v -838.204 283.26 197.056
v -838.204 284.084 197.881
v -838.204 284.386 199.007
v -838.204 284.084 200.133
v -838.204 283.26 200.957
v -838.204 282.133 201.259
v -838.204 281.007 200.957
v -838.204 280.183 200.133
v -838.204 279.881 199.007
v -648.821 279.881 199.007
v -688.985 279.881 199.007
v -729.15 279.881 199.007
v -769.315 279.881 199.007
v -918.533 279.881 199.007
v -878.369 279.881 199.007
v -838.204 279.881 199.007
vt 0.9633 0.5241
vt 0.9876 0.0053
vt 0.9876 0.5241
vt 0.9391 0.5241
vt 0.9633 0.0053
vt 0.9148 0.5241
vt 0.9391 0.0053
vt 0.8906 0.5241
vt 0.9148 0.0053
vt 0.8663 0.5241
vt 0.8906 0.0053
vt 0.8421 0.5241
vt 0.8663 0.0053
vt 0.8178 0.5241
vt 0.8421 0.0053
vt 0.7936 0.5241
vt 0.8178 0.0053
vt 0.7694 0.5241
vt 0.7936 0.0053
vt 0.7451 0.5241
vt 0.7694 0.0053
vt 0.7209 0.5241
vt 0.7451 0.0053
vt 0.6966 0.5241
vt 0.7209 0.0053
vt 0.9633 0.5241
vt 0.9876 0.0053
vt 0.9876 0.5241
vt 0.9391 0.5241
vt 0.9633 0.0053
vt 0.9148 0.5241
vt 0.9391 0.0053
vt 0.8906 0.5241
vt 0.9148 0.0053
vt 0.8663 0.5241
vt 0.8906 0.0053
vt 0.8421 0.5241
vt 0.8663 0.0053
vt 0.8178 0.5241
vt 0.8421 0.0053
vt 0.7936 0.5241
vt 0.8178 0.0053
vt 0.7694 0.5241
vt 0.7936 0.0053
vt 0.7451 0.5241
vt 0.7694 0.0053
vt 0.7209 0.5241
vt 0.7451 0.0053
vt 0.6966 0.5241
vt 0.7209 0.0053
vt 0.9633 0.5241
vt 0.9876 0.0053
vt 0.9876 0.5241
vt 0.9391 0.5241
vt 0.9633 0.0053
vt 0.9148 0.5241
vt 0.9391 0.0053
vt 0.8906 0.5241
vt 0.9148 0.0053
vt 0.8663 0.5241
vt 0.8906 0.0053
vt 0.8421 0.5241
vt 0.8663 0.0053
vt 0.8178 0.5241
vt 0.8421 0.0053
vt 0.7936 0.5241
vt 0.8178 0.0053
vt 0.7694 0.5241
vt 0.7936 0.0053
vt 0.7451 0.5241
vt 0.7694 0.0053
vt 0.7209 0.5241
vt 0.7451 0.0053
vt 0.6966 0.5241
vt 0.7209 0.0053
vt 0.9633 0.4502
vt 0.9876 0.0053
vt 0.9876 0.4502
vt 0.9391 0.4502
vt 0.9633 0.0053
vt 0.9148 0.4502
vt 0.9391 0.0053
vt 0.8906 0.4502
vt 0.9148 0.0053
vt 0.8663 0.4502
vt 0.8906 0.0053
vt 0.8421 0.4502
vt 0.8663 0.0053
vt 0.8178 0.4502
vt 0.8421 0.0053
vt 0.7936 0.4502
vt 0.8178 0.0053
vt 0.7694 0.4502
vt 0.7936 0.0053
vt 0.7451 0.4502
vt 0.7694 0.0053
vt 0.7209 0.4502
vt 0.7451 0.0053
vt 0.6966 0.4502
vt 0.7209 0.0053
vt 0.9633 0.5241
vt 0.9876 0.0053
vt 0.9633 0.0053
vt 0.9391 0.5241
vt 0.9391 0.0053
vt 0.9148 0.5241
vt 0.9148 0.0053
vt 0.8906 0.5241
vt 0.8906 0.0053
vt 0.8663 0.5241
vt 0.8663 0.0053
vt 0.8421 0.5241
vt 0.8421 0.0053
vt 0.8178 0.5241
vt 0.8178 0.0053
vt 0.7936 0.5241
vt 0.7936 0.0053
vt 0.7694 0.5241
vt 0.7694 0.0053
vt 0.7451 0.5241
vt 0.7451 0.0053
vt 0.7209 0.5241
vt 0.7209 0.0053
vt 0.6966 0.5241
vt 0.6966 0.0053
vt 0.9633 0.5241
vt 0.9876 0.0053
vt 0.9633 0.0053
vt 0.9391 0.5241
vt 0.9391 0.0053
vt 0.9148 0.5241
vt 0.9148 0.0053
vt 0.8906 0.5241
vt 0.8906 0.0053
vt 0.8663 0.5241
vt 0.8663 0.0053
vt 0.8421 0.5241
vt 0.8421 0.0053
vt 0.8178 0.5241
vt 0.8178 0.0053
vt 0.7936 0.5241
vt 0.7936 0.0053
vt 0.7694 0.5241
vt 0.7694 0.0053
vt 0.7451 0.5241
vt 0.7451 0.0053
vt 0.7209 0.5241
vt 0.7209 0.0053
vt 0.6966 0.5241
vt 0.6966 0.0053
vt 0.9633 0.5241
vt 0.9876 0.0053
vt 0.9633 0.0053
vt 0.9391 0.5241
vt 0.9391 0.0053
vt 0.9148 0.5241
vt 0.9148 0.0053
vt 0.8906 0.5241
vt 0.8906 0.0053
vt 0.8663 0.5241
vt 0.8663 0.0053
vt 0.8421 0.5241
vt 0.8421 0.0053
vt 0.8178 0.5241
vt 0.8178 0.0053
vt 0.7936 0.5241
vt 0.7936 0.0053
vt 0.7694 0.5241
vt 0.7694 0.0053
vt 0.7451 0.5241
vt 0.7451 0.0053
vt 0.7209 0.5241
vt 0.7209 0.0053
vt 0.6966 0.5241
vt 0.6966 0.0053
vt 0.9876 0.0053
vt 0.9633 0.0053
vt 0.9391 0.0053
vt 0.9148 0.0053
vt 0.8906 0.0053
vt 0.8663 0.0053
vt 0.8421 0.0053
vt 0.8178 0.0053
vt 0.7936 0.0053
vt 0.7694 0.0053
vt 0.7451 0.0053
vt 0.7209 0.0053
vt 0.6966 0.0053
vt 0.6966 0.0053
vt 0.6966 0.0053
vt 0.6966 0.0053
vt 0.6966 0.0053
vt 0.9876 0.5241
vt 0.9876 0.5241
vt 0.9876 0.5241
vn 0 -0.866 -0.5
vn 0 -1 0
vn 0 -1 0
vn 0 -0.5 -0.866
vn 0 -0.866 -0.5
vn 0 -0 -1
vn 0 -0.5 -0.866
vn 0 0.5 -0.866
vn 0 -0 -1
vn 0 0.866 -0.5
vn 0 0.5 -0.866
vn 0 1 -0
vn 0 0.866 -0.5
vn 0 0.866 0.5
vn 0 1 -0
vn 0 0.5 0.866
vn 0 0.866 0.5
vn 0 -0 1
vn 0 0.5 0.866
vn 0 -0.5 0.866
vn 0 -0 1
vn 0 -0.866 0.5
vn 0 -0.5 0.866
vn 0 -1 0
vn 0 -0.866 0.5
vn 0 -0.866 -0.5
vn 0 -1 0
vn 0 -1 0
vn 0 -0.5 -0.866
vn 0 -0.866 -0.5
vn 0 -0 -1
vn 0 -0.5 -0.866
vn 0 0.5 -0.866
vn 0 -0 -1
vn 0 0.866 -0.5
vn 0 0.5 -0.866
vn 0 1 -0
vn 0 0.866 -0.5
vn 0 0.866 0.5
vn 0 1 -0
vn 0 0.5 0.866
vn 0 0.866 0.5
vn 0 -0 1
vn 0 0.5 0.866
vn 0 -0.5 0.866
vn 0 -0 1
vn 0 -0.866 0.5
vn 0 -0.5 0.866
vn 0 -1 0
vn 0 -0.866 0.5
vn 0 -0.866 -0.5
vn 0 -1 0
vn 0 -1 0
vn 0 -0.5 -0.866
vn 0 -0.866 -0.5
vn 0 -0 -1
vn 0 -0.5 -0.866
vn 0 0.5 -0.866
vn 0 -0 -1
vn 0 0.866 -0.5
vn 0 0.5 -0.866
vn 0 1 -0
vn 0 0.866 -0.5
vn 0 0.866 0.5
vn 0 1 -0
vn 0 0.5 0.866
vn 0 0.866 0.5
vn 0 -0 1
vn 0 0.5 0.866
vn 0 -0.5 0.866
vn 0 -0 1
vn 0 -0.866 0.5
vn 0 -0.5 0.866
vn 0 -1 0
vn 0 -0.866 0.5
vn 0 -0.866 -0.5
vn 0 -1 0
vn 0 -1 0
vn 0 -0.5 -0.866
vn 0 -0.866 -0.5
vn 0 -0 -1
vn 0 -0.5 -0.866
vn 0 0.5 -0.866
vn 0 -0 -1
vn 0 0.866 -0.5
vn 0 0.5 -0.866
vn 0 1 -0
vn 0 0.866 -0.5
vn 0 0.866 0.5
vn 0 1 -0
vn 0 0.5 0.866
vn 0 0.866 0.5
vn 0 -0 1
vn 0 0.5 0.866
vn 0 -0.5 0.866
vn 0 -0 1
vn 0 -0.866 0.5
vn 0 -0.5 0.866
vn 0 -1 0
vn 0 -0.866 0.5
vn 0 -0.866 -0.5
vn 0 -1 0
vn 0 -0.866 -0.5
vn 0 -0.5 -0.866
vn 0 -0.5 -0.866
vn 0 -0 -1
vn 0 -0 -1
vn 0 0.5 -0.866
vn 0 0.5 -0.866
vn 0 0.866 -0.5
vn 0 0.866 -0.5
vn 0 1 -0
vn 0 1 -0
vn 0 0.866 0.5
vn 0 0.866 0.5
vn 0 0.5 0.866
vn 0 0.5 0.866
vn 0 -0 1
vn 0 -0 1
vn 0 -0.5 0.866
vn 0 -0.5 0.866
vn 0 -0.866 0.5
vn 0 -0.866 0.5
vn 0 -1 0
vn 0 -1 0
vn 0 -0.866 -0.5
vn 0 -1 0
vn 0 -0.866 -0.5
vn 0 -0.5 -0.866
vn 0 -0.5 -0.866
vn 0 -0 -1
vn 0 -0 -1
vn 0 0.5 -0.866
vn 0 0.5 -0.866
vn 0 0.866 -0.5
vn 0 0.866 -0.5
vn 0 1 -0
vn 0 1 -0
vn 0 0.866 0.5
vn 0 0.866 0.5
vn 0 0.5 0.866
vn 0 0.5 0.866
vn 0 -0 1
vn 0 -0 1
vn 0 -0.5 0.866
vn 0 -0.5 0.866
vn 0 -0.866 0.5
vn 0 -0.866 0.5
vn 0 -1 0
vn 0 -1 0
vn 0 -0.866 -0.5
vn 0 -1 0
vn 0 -0.866 -0.5
vn 0 -0.5 -0.866
vn 0 -0.5 -0.866
vn 0 -0 -1
vn 0 -0 -1
vn 0 0.5 -0.866
vn 0 0.5 -0.866
vn 0 0.866 -0.5
vn 0 0.866 -0.5
vn 0 1 -0
vn 0 1 -0
vn 0 0.866 0.5
vn 0 0.866 0.5
vn 0 0.5 0.866
vn 0 0.5 0.866
vn 0 -0 1
vn 0 -0 1
vn 0 -0.5 0.866
vn 0 -0.5 0.866
vn 0 -0.866 0.5
vn 0 -0.866 0.5
vn 0 -1 0
vn 0 -1 0
vn 0 -1 0
vn 0 -0.866 -0.5
vn 0 -0.5 -0.866
vn 0 -0 -1
vn 0 0.5 -0.866
vn 0 0.866 -0.5
vn 0 1 -0
vn 0 0.866 0.5
vn 0 0.5 0.866
vn 0 -0 1
vn 0 -0.5 0.866
vn 0 -0.866 0.5
vn 0 -1 0
vn 0 -1 0
vn 0 -1 0
vn 0 -1 0
vn 0 -1 0
vn 0 -1 0
vn 0 -1 0
vn 0 -1 0
f 1/1/1 2/2/2 3/3/3
f 4/4/4 5/5/5 1/1/1
f 6/6/6 7/7/7 4/4/4
f 8/8/8 9/9/9 6/6/6
f 10/10/10 11/11/11 8/8/8
f 12/12/12 13/13/13 10/10/10
f 14/14/14 15/15/15 12/12/12
f 16/16/16 17/17/17 14/14/14
f 18/18/18 19/19/19 16/16/16
f 20/20/20 21/21/21 18/18/18
f 22/22/22 23/23/23 20/20/20
f 24/24/24 25/25/25 22/22/22
f 26/26/26 27/27/27 28/28/28
f 29/29/29 30/30/30 26/26/26
f 31/31/31 32/32/32 29/29/29
f 33/33/33 34/34/34 31/31/31
f 35/35/35 36/36/36 33/33/33
f 37/37/37 38/38/38 35/35/35
f 39/39/39 40/40/40 37/37/37
f 41/41/41 42/42/42 39/39/39
f 43/43/43 44/44/44 41/41/41
f 45/45/45 46/46/46 43/43/43
f 47/47/47 48/48/48 45/45/45
f 49/49/49 50/50/50 47/47/47
f 51/51/51 52/52/52 53/53/53
f 54/54/54 55/55/55 51/51/51
f 56/56/56 57/57/57 54/54/54
f 58/58/58 59/59/59 56/56/56
f 60/60/60 61/61/61 58/58/58
f 62/62/62 63/63/63 60/60/60
f 64/64/64 65/65/65 62/62/62
f 66/66/66 67/67/67 64/64/64
f 68/68/68 69/69/69 66/66/66
f 70/70/70 71/71/71 68/68/68
f 72/72/72 73/73/73 70/70/70
f 74/74/74 75/75/75 72/72/72
f 76/76/76 77/77/77 78/78/78
f 79/79/79 80/80/80 76/76/76
f 81/81/81 82/82/82 79/79/79
f 83/83/83 84/84/84 81/81/81
f 85/85/85 86/86/86 83/83/83
f 87/87/87 88/88/88 85/85/85
f 89/89/89 90/90/90 87/87/87
f 91/91/91 92/92/92 89/89/89
f 93/93/93 94/94/94 91/91/91
f 95/95/95 96/96/96 93/93/93
f 97/97/97 98/98/98 95/95/95
f 99/99/99 100/100/100 97/97/97
f 101/101/101 102/102/102 103/103/103
f 104/104/104 103/103/103 105/105/105
f 106/106/106 105/105/105 107/107/107
f 108/108/108 107/107/107 109/109/109
f 110/110/110 109/109/109 111/111/111
f 112/112/112 111/111/111 113/113/113
f 114/114/114 113/113/113 115/115/115
f 116/116/116 115/115/115 117/117/117
f 118/118/118 117/117/117 119/119/119
f 120/120/120 119/119/119 121/121/121
f 122/122/122 121/121/121 123/123/123
f 124/124/124 123/123/123 125/125/125
f 126/126/126 127/127/127 128/128/128
f 129/129/129 128/128/128 130/130/130
f 131/131/131 130/130/130 132/132/132
f 133/133/133 132/132/132 134/134/134
f 135/135/135 134/134/134 136/136/136
f 137/137/137 136/136/136 138/138/138
f 139/139/139 138/138/138 140/140/140
f 141/141/141 140/140/140 142/142/142
f 143/143/143 142/142/142 144/144/144
f 145/145/145 144/144/144 146/146/146
f 147/147/147 146/146/146 148/148/148
f 149/149/149 148/148/148 150/150/150
f 151/151/151 152/152/152 153/153/153
f 154/154/154 153/153/153 155/155/155
f 156/156/156 155/155/155 157/157/157
f 158/158/158 157/157/157 159/159/159
f 160/160/160 159/159/159 161/161/161
f 162/162/162 161/161/161 163/163/163
f 164/164/164 163/163/163 165/165/165
f 166/166/166 165/165/165 167/167/167
f 168/168/168 167/167/167 169/169/169
f 170/170/170 169/169/169 171/171/171
f 172/172/172 171/171/171 173/173/173
f 174/174/174 173/173/173 175/175/175
f 76/76/76 176/176/176 177/177/177
f 79/79/79 177/177/177 178/178/178
f 81/81/81 178/178/178 179/179/179
f 83/83/83 179/179/179 180/180/180
f 85/85/85 180/180/180 181/181/181
f 87/87/87 181/181/181 182/182/182
f 89/89/89 182/182/182 183/183/183
f 91/91/91 183/183/183 184/184/184
f 93/93/93 184/184/184 185/185/185
f 95/95/95 185/185/185 186/186/186
f 97/97/97 186/186/186 187/187/187
f 99/99/99 187/187/187 188/188/188
f 1/1/1 5/5/5 2/2/2
f 4/4/4 7/7/7 5/5/5
f 6/6/6 9/9/9 7/7/7
f 8/8/8 11/11/11 9/9/9
f 10/10/10 13/13/13 11/11/11
f 12/12/12 15/15/15 13/13/13
f 14/14/14 17/17/17 15/15/15
f 16/16/16 19/19/19 17/17/17
f 18/18/18 21/21/21 19/19/19
f 20/20/20 23/23/23 21/21/21
f 22/22/22 25/25/25 23/23/23
f 24/24/24 189/189/189 25/25/25
f 26/26/26 30/30/30 27/27/27
f 29/29/29 32/32/32 30/30/30
f 31/31/31 34/34/34 32/32/32
f 33/33/33 36/36/36 34/34/34
f 35/35/35 38/38/38 36/36/36
f 37/37/37 40/40/40 38/38/38
f 39/39/39 42/42/42 40/40/40
f 41/41/41 44/44/44 42/42/42
f 43/43/43 46/46/46 44/44/44
f 45/45/45 48/48/48 46/46/46
f 47/47/47 50/50/50 48/48/48
f 49/49/49 190/190/190 50/50/50
f 51/51/51 55/55/55 52/52/52
f 54/54/54 57/57/57 55/55/55
f 56/56/56 59/59/59 57/57/57
f 58/58/58 61/61/61 59/59/59
f 60/60/60 63/63/63 61/61/61
f 62/62/62 65/65/65 63/63/63
f 64/64/64 67/67/67 65/65/65
f 66/66/66 69/69/69 67/67/67
f 68/68/68 71/71/71 69/69/69
f 70/70/70 73/73/73 71/71/71
f 72/72/72 75/75/75 73/73/73
f 74/74/74 191/191/191 75/75/75
f 76/76/76 80/80/80 77/77/77
f 79/79/79 82/82/82 80/80/80
f 81/81/81 84/84/84 82/82/82
f 83/83/83 86/86/86 84/84/84
f 85/85/85 88/88/88 86/86/86
f 87/87/87 90/90/90 88/88/88
f 89/89/89 92/92/92 90/90/90
f 91/91/91 94/94/94 92/92/92
f 93/93/93 96/96/96 94/94/94
f 95/95/95 98/98/98 96/96/96
f 97/97/97 100/100/100 98/98/98
f 99/99/99 192/192/192 100/100/100
f 101/101/101 193/193/193 102/102/102
f 104/104/104 101/101/101 103/103/103
f 106/106/106 104/104/104 105/105/105
f 108/108/108 106/106/106 107/107/107
f 110/110/110 108/108/108 109/109/109
f 112/112/112 110/110/110 111/111/111
f 114/114/114 112/112/112 113/113/113
f 116/116/116 114/114/114 115/115/115
f 118/118/118 116/116/116 117/117/117
f 120/120/120 118/118/118 119/119/119
f 122/122/122 120/120/120 121/121/121
f 124/124/124 122/122/122 123/123/123
f 126/126/126 194/194/194 127/127/127
f 129/129/129 126/126/126 128/128/128
f 131/131/131 129/129/129 130/130/130
f 133/133/133 131/131/131 132/132/132
f 135/135/135 133/133/133 134/134/134
f 137/137/137 135/135/135 136/136/136
f 139/139/139 137/137/137 138/138/138
f 141/141/141 139/139/139 140/140/140
f 143/143/143 141/141/141 142/142/142
f 145/145/145 143/143/143 144/144/144
f 147/147/147 145/145/145 146/146/146
f 149/149/149 147/147/147 148/148/148
f 151/151/151 195/195/195 152/152/152
f 154/154/154 151/151/151 153/153/153
f 156/156/156 154/154/154 155/155/155
f 158/158/158 156/156/156 157/157/157
f 160/160/160 158/158/158 159/159/159
f 162/162/162 160/160/160 161/161/161
f 164/164/164 162/162/162 163/163/163
f 166/166/166 164/164/164 165/165/165
f 168/168/168 166/166/166 167/167/167
f 170/170/170 168/168/168 169/169/169
f 172/172/172 170/170/170 171/171/171
f 174/174/174 172/172/172 173/173/173
f 76/76/76 78/78/78 176/176/176
f 79/79/79 76/76/76 177/177/177
f 81/81/81 79/79/79 178/178/178
f 83/83/83 81/81/81 179/179/179
f 85/85/85 83/83/83 180/180/180
f 87/87/87 85/85/85 181/181/181
f 89/89/89 87/87/87 182/182/182
f 91/91/91 89/89/89 183/183/183
f 93/93/93 91/91/91 184/184/184
f 95/95/95 93/93/93 185/185/185
f 97/97/97 95/95/95 186/186/186
f 99/99/99 97/97/97 187/187/187
