v 913.316 664.232 569.378
v 914.237 670.696 575.488
v 913.316 664.232 575.488
v 845.526 670.696 567.87
v 912.447 664.232 568.646
v 846.501 664.232 568.646
v 838.476 686.596 561.918
v 920.43 690.96 561.918
v 920.472 686.596 561.918
v 837.644 686.596 575.488
v 837.644 690.959 562.653
v 837.644 686.596 562.618
v 912.64 660.363 569.962
v 915.247 662.297 575.488
v 912.64 660.363 575.488
v 844.672 662.297 567.02
v 911.754 660.363 569.216
v 847.194 660.363 569.216
v 913.316 664.232 569.378
v 915.247 662.297 575.488
v 915.247 662.297 567.838
v 912.447 664.232 568.646
v 844.672 662.297 567.02
v 846.501 664.232 568.646
v 921.303 690.959 562.653
v 923.732 693.141 575.488
v 921.303 690.959 575.488
v 836.182 693.141 559.872
v 920.43 690.96 561.918
v 838.517 690.96 561.918
v 921.303 695.323 562.731
v 923.732 693.141 575.488
v 923.732 693.141 560.686
v 838.61 695.323 561.918
v 922.766 693.141 559.872
v 836.182 693.141 559.872
v 917.357 679.695 565.956
v 921.303 686.596 575.488
v 917.357 679.695 575.488
v 920.472 686.596 561.918
v 842.438 679.695 565.242
v 838.476 686.596 561.918
v 914.237 670.696 568.556
v 916.51 679.695 565.242
v 913.316 664.232 569.378
v 913.422 670.696 567.87
v 914.237 670.696 568.556
v 845.632 664.232 569.378
v 845.526 670.696 567.87
v 846.501 664.232 568.646
v 920.472 686.596 561.918
v 921.303 690.959 562.653
v 921.303 686.596 562.618
v 837.644 690.959 562.653
v 838.476 686.596 561.918
v 837.644 686.596 562.618
v 913.316 664.232 569.378
v 914.276 662.297 567.02
v 912.447 664.232 568.646
v 845.632 664.232 569.378
v 844.672 662.297 567.02
v 843.701 662.297 567.838
v 914.276 662.297 567.02
v 912.64 660.363 569.962
v 911.754 660.363 569.216
v 844.672 662.297 567.02
v 846.308 660.363 569.962
v 843.701 662.297 567.838
v 921.303 690.959 562.653
v 922.766 693.141 559.872
v 923.732 693.141 560.686
v 837.644 690.959 562.653
v 836.182 693.141 559.872
v 838.517 690.96 561.918
v 922.766 693.141 559.872
v 921.303 695.323 562.731
v 923.732 693.141 560.686
v 836.182 693.141 559.872
v 837.644 695.323 562.731
v 838.61 695.323 561.918
v 917.357 679.695 565.956
v 920.472 686.596 561.918
v 921.303 686.596 562.618
v 841.591 679.695 565.956
v 838.476 686.596 561.918
v 842.438 679.695 565.242
v 916.51 679.695 565.242
v 844.711 670.696 568.556
v 921.303 695.323 575.488
v 920.338 695.323 561.918
v 837.644 695.323 562.731
v 838.61 695.323 561.918
v 837.644 695.323 575.488
v 844.711 670.696 575.488
v 845.632 664.232 569.378
v 845.632 664.232 575.488
v 921.303 686.596 575.488
v 921.303 690.959 562.653
v 921.303 690.959 575.488
v 843.701 662.297 575.488
v 846.308 660.363 569.962
v 846.308 660.363 575.488
v 843.701 662.297 575.488
v 845.632 664.232 569.378
v 843.701 662.297 567.838
v 835.216 693.141 575.488
v 837.644 690.959 562.653
v 837.644 690.959 575.488
v 835.216 693.141 575.488
v 837.644 695.323 562.731
v 835.216 693.141 560.686
v 837.644 686.596 575.488
v 841.591 679.695 565.956
v 841.591 679.695 575.488
v 844.711 670.696 568.556
v 846.308 660.363 569.962
v 912.64 660.363 575.488
v 846.308 660.363 575.488
v 912.64 660.363 569.962
v 847.194 660.363 569.216
v 911.754 660.363 569.216
v 913.422 670.696 567.87
v 838.517 690.96 561.918
v 837.644 690.959 575.488
v 915.247 662.297 567.838
v 914.276 662.297 567.02
v 913.316 664.232 575.488
v 914.276 662.297 567.02
v 923.732 693.141 560.686
v 922.766 693.141 559.872
v 921.303 695.323 575.488
v 920.338 695.323 561.918
v 921.303 686.596 562.618
v 912.447 664.232 568.646
v 920.43 690.96 561.918
v 838.517 690.96 561.918
v 915.247 662.297 567.838
v 846.501 664.232 568.646
v 915.247 662.297 567.838
v 847.194 660.363 569.216
v 920.43 690.96 561.918
v 835.216 693.141 560.686
v 920.338 695.323 561.918
v 835.216 693.141 560.686
v 837.644 686.596 562.618
v 921.303 695.323 562.731
v 921.303 686.596 562.618
v 843.701 662.297 567.838
v 845.632 664.232 575.488
v 835.216 693.141 560.686
v 837.644 695.323 575.488
v 837.644 686.596 562.618
vt 0.5504 0.8881
vt 0.5337 0.9084
vt 0.5337 0.8881
vt 0.7614 0.91
vt 0.6076 0.8897
vt 0.7592 0.8897
vt 0.7776 0.96
vt 0.5892 0.9737
vt 0.5891 0.96
vt 0.8287 0.9596
vt 0.7937 0.9733
vt 0.7936 0.9596
vt 0.9865 0.7672
vt 0.9632 0.7791
vt 0.9619 0.7672
vt 0.2524 0.779
vt 0.0112 0.7672
vt 0.2525 0.7672
vt 0.5504 0.8881
vt 0.5337 0.882
vt 0.5546 0.882
vt 0.6076 0.8897
vt 0.7634 0.8836
vt 0.7592 0.8897
vt 0.5687 0.9721
vt 0.5337 0.979
vt 0.5337 0.9721
vt 0.7829 0.9806
vt 0.5892 0.9737
vt 0.7775 0.9737
vt 0.5685 0.9859
vt 0.5337 0.979
vt 0.5741 0.979
vt 0.7773 0.9875
vt 0.5839 0.9806
vt 0.7829 0.9806
vt 0.5597 0.9367
vt 0.5337 0.9584
vt 0.5337 0.9367
vt 0.5891 0.96
vt 0.7685 0.9383
vt 0.7776 0.96
vt 0.5526 0.9084
vt 0.5982 0.9383
vt 0.605 0.8907
vt 0.6053 0.91
vt 0.6028 0.9094
vt 0.8121 0.8892
vt 0.8073 0.909
vt 0.8095 0.8902
vt 0.5891 0.96
vt 0.5867 0.9726
vt 0.5865 0.9593
vt 0.7937 0.9733
vt 0.791 0.9589
vt 0.7936 0.9596
vt 0.605 0.8907
vt 0.6034 0.8836
vt 0.6076 0.8897
vt 0.8121 0.8892
vt 0.8052 0.8857
vt 0.8079 0.8832
vt 0.0111 0.779
vt 0.0079 0.7672
vt 0.0112 0.7672
vt 0.2524 0.779
vt 0.2558 0.7672
vt 0.2559 0.779
vt 0.5867 0.9726
vt 0.5839 0.9806
vt 0.5815 0.9806
vt 0.7937 0.9733
vt 0.786 0.9801
vt 0.7912 0.9721
vt 0.5839 0.9806
vt 0.5871 0.99
vt 0.5815 0.9806
vt 0.786 0.9801
vt 0.7939 0.987
vt 0.7916 0.9896
vt 0.5957 0.9372
vt 0.5891 0.96
vt 0.5865 0.9593
vt 0.8027 0.9379
vt 0.791 0.9589
vt 0.8002 0.9367
vt 0.5982 0.9383
vt 0.8098 0.9096
vt 0.0091 0.8976
vt 0.0109 0.8746
vt 0.1674 0.876
vt 0.1655 0.8746
vt 0.1674 0.8976
vt 0.8287 0.9096
vt 0.8121 0.8892
vt 0.8287 0.8892
vt 0.5337 0.9584
vt 0.5687 0.9721
vt 0.5337 0.9721
vt 0.2874 0.779
vt 0.2558 0.7672
vt 0.2803 0.7672
vt 0.8287 0.8832
vt 0.8121 0.8892
vt 0.8079 0.8832
vt 0.8287 0.9801
vt 0.7937 0.9733
vt 0.8287 0.9733
vt 0.8287 0.9801
vt 0.7939 0.987
vt 0.7884 0.9801
vt 0.8287 0.9596
vt 0.8027 0.9379
vt 0.8287 0.9379
vt 0.8098 0.9096
vt 0.2773 0.6911
vt 0.4476 0.6742
vt 0.2773 0.6742
vt 0.4476 0.6911
vt 0.2795 0.6933
vt 0.4453 0.6933
vt 0.6053 0.91
vt 0.7775 0.9737
vt 0.8287 0.9733
vt 0.9959 0.7791
vt 0.0111 0.779
vt 0.5337 0.8881
vt 0.6034 0.8836
vt 0.5741 0.979
vt 0.5839 0.9806
vt 0.5337 0.9859
vt 0.5894 0.9875
vt 0.5688 0.9584
vt 0.6076 0.8897
vt 0.5892 0.9737
vt 0.7912 0.9721
vt 0.6007 0.8862
vt 0.8095 0.8902
vt 0.0078 0.7789
vt 0.2525 0.7672
vt 0.5892 0.9737
vt 0.7884 0.9801
vt 0.5894 0.9875
vt 0.7884 0.9801
vt 0.7936 0.9596
vt 0.0091 0.876
vt 0.5688 0.9584
vt 0.2559 0.779
vt 0.8287 0.8892
vt 0.7884 0.9801
vt 0.8287 0.987
vt 0.7936 0.9596
vn 0.99 -0.1411 0
vn 0.9719 -0.2354 0
vn 0.99 -0.1411 0
vn 0 -0.2119 -0.9773
vn 0 -0.1192 -0.9929
vn 0 -0.1192 -0.9929
vn 0 0 -1
vn 0 0 -1
vn 0 0 -1
vn -1 0 0
vn -1 0 0
vn -1 0 0
vn 0.5959 -0.8031 0
vn 0.5958 -0.8031 0
vn 0.5958 -0.8031 0
vn 0 -0.7504 -0.661
vn 0 -0.7504 -0.661
vn 0 -0.7504 -0.661
vn 0.7077 0.7065 0
vn 0.7077 0.7065 0
vn 0.7077 0.7065 0
vn 0 0.6436 -0.7654
vn 0 0.6436 -0.7654
vn 0 0.6436 -0.7654
vn 0.6683 -0.7439 -0
vn 0.6683 -0.7439 -0
vn 0.6683 -0.7439 -0
vn 0 -0.684 -0.7295
vn 0 -0.684 -0.7295
vn 0 -0.684 -0.7295
vn 0.6683 0.7439 0
vn 0.6683 0.7439 0
vn 0.6683 0.7439 0
vn 0 0.684 -0.7295
vn 0 0.684 -0.7295
vn 0 0.684 -0.7295
vn 0.9024 -0.4309 0
vn 0.8681 -0.4964 0
vn 0.9104 -0.4138 0
vn 0 -0.4339 -0.9009
vn 0 -0.3769 -0.9263
vn 0 -0.4339 -0.9009
vn 0.9691 -0.2466 0
vn 0 -0.3769 -0.9263
vn 0.6331 -0.1858 -0.7514
vn 0.6159 -0.2942 -0.7309
vn 0.6144 -0.3014 -0.7292
vn -0.6331 -0.1858 -0.7515
vn -0.6157 -0.2942 -0.731
vn -0.6331 -0.1858 -0.7514
vn 0.6444 0.0062 -0.7647
vn 0.6443 0.0062 -0.7647
vn 0.6444 0.0062 -0.7646
vn -0.6442 0.0062 -0.7648
vn -0.6443 0.0062 -0.7648
vn -0.6443 0.0062 -0.7648
vn 0.402 0.7814 -0.4772
vn 0.402 0.7814 -0.4772
vn 0.402 0.7814 -0.4772
vn -0.402 0.7814 -0.4772
vn -0.402 0.7814 -0.4772
vn -0.4021 0.7814 -0.4772
vn 0.3255 -0.863 -0.3864
vn 0.3255 -0.863 -0.3864
vn 0.3255 -0.863 -0.3864
vn -0.3255 -0.863 -0.3864
vn -0.3255 -0.863 -0.3864
vn -0.3256 -0.863 -0.3864
vn 0.3732 -0.8151 -0.443
vn 0.3732 -0.8151 -0.4431
vn 0.3733 -0.8151 -0.4431
vn -0.3732 -0.8151 -0.4431
vn -0.3733 -0.8151 -0.4431
vn -0.3731 -0.8151 -0.4431
vn 0.3685 0.8203 -0.4374
vn 0.3686 0.8203 -0.4374
vn 0.3684 0.8203 -0.4375
vn -0.3685 0.8203 -0.4374
vn -0.3685 0.8202 -0.4375
vn -0.3685 0.8202 -0.4375
vn 0.555 -0.5081 -0.6586
vn 0.5184 -0.594 -0.6152
vn 0.5184 -0.594 -0.6152
vn -0.5549 -0.5082 -0.6587
vn -0.5183 -0.5939 -0.6153
vn -0.5588 -0.4978 -0.6633
vn 0.5589 -0.4978 -0.6632
vn -0.6142 -0.3014 -0.7293
vn 0 1 0
vn 0 1 0
vn 0 1 0
vn 0 1 -0.0001
vn 0 1 0
vn -0.9719 -0.2354 0
vn -0.99 -0.1411 0
vn -0.99 -0.1411 0
vn 1 0 0
vn 1 0 0
vn 1 0 0
vn -0.5959 -0.8031 -0
vn -0.5959 -0.8031 -0
vn -0.5958 -0.8031 -0
vn -0.7077 0.7065 -0
vn -0.7077 0.7065 -0
vn -0.7077 0.7065 -0
vn -0.6683 -0.7439 -0
vn -0.6683 -0.7439 -0
vn -0.6683 -0.7439 -0
vn -0.6683 0.7438 0
vn -0.6683 0.7439 0
vn -0.6683 0.7439 0
vn -0.8681 -0.4964 0
vn -0.9024 -0.4309 0
vn -0.9104 -0.4138 0
vn -0.9691 -0.2466 0
vn 0 -1 0
vn 0 -1 0
vn 0 -1 0
vn 0 -1 0
vn 0 -1 0
vn 0 -1 0
vn 0 -0.2119 -0.9773
vn 0 0 -1
vn -1 0 0
vn 0.5959 -0.8031 0
vn 0 -0.7504 -0.661
vn 0.7077 0.7065 0
vn 0 0.6436 -0.7654
vn 0.6683 -0.7439 -0
vn 0 -0.684 -0.7295
vn 0.6683 0.7439 0
vn 0 0.684 -0.7295
vn 0.8681 -0.4964 0
vn 0.6331 -0.1858 -0.7514
vn 0.6443 0.0062 -0.7648
vn -0.6442 0.0062 -0.7648
vn 0.402 0.7814 -0.4772
vn -0.402 0.7815 -0.4772
vn 0.3255 -0.863 -0.3864
vn -0.3255 -0.863 -0.3864
vn 0.3732 -0.8151 -0.443
vn -0.3733 -0.8151 -0.4431
vn 0.3687 0.8203 -0.4373
vn -0.3685 0.8203 -0.4374
vn -0.5183 -0.5939 -0.6154
vn 0.0001 1 0
vn 1 0 0
vn -0.5959 -0.8031 -0
vn -0.7077 0.7065 -0
vn -0.6683 -0.7439 -0
vn -0.6684 0.7438 0
vn -0.8681 -0.4964 0
f 1/1/1 2/2/2 3/3/3
f 4/4/4 5/5/5 6/6/6
f 7/7/7 8/8/8 9/9/9
f 10/10/10 11/11/11 12/12/12
f 13/13/13 14/14/14 15/15/15
f 16/16/16 17/17/17 18/18/18
f 19/19/19 20/20/20 21/21/21
f 22/22/22 23/23/23 24/24/24
f 25/25/25 26/26/26 27/27/27
f 28/28/28 29/29/29 30/30/30
f 31/31/31 32/32/32 33/33/33
f 34/34/34 35/35/35 36/36/36
f 37/37/37 38/38/38 39/39/39
f 40/40/40 41/41/41 42/42/42
f 43/43/43 39/39/39 2/2/2
f 44/44/44 4/4/4 41/41/41
f 45/45/45 46/46/46 47/47/47
f 48/48/48 49/49/49 50/50/50
f 51/51/51 52/52/52 53/53/53
f 54/54/54 55/55/55 56/56/56
f 57/57/57 58/58/58 59/59/59
f 60/60/60 61/61/61 62/62/62
f 63/63/63 64/64/64 65/65/65
f 66/66/66 67/67/67 68/68/68
f 69/69/69 70/70/70 71/71/71
f 72/72/72 73/73/73 74/74/74
f 75/75/75 76/76/76 77/77/77
f 78/78/78 79/79/79 80/80/80
f 81/81/81 82/82/82 83/83/83
f 84/84/84 85/85/85 86/86/86
f 47/47/47 87/87/87 81/81/81
f 88/88/88 86/86/86 49/49/49
f 89/89/89 90/90/90 91/91/91
f 90/90/90 92/92/92 91/91/91
f 93/93/93 89/89/89 91/91/91
f 94/94/94 95/95/95 96/96/96
f 97/97/97 98/98/98 99/99/99
f 100/100/100 101/101/101 102/102/102
f 103/103/103 104/104/104 105/105/105
f 106/106/106 107/107/107 108/108/108
f 109/109/109 110/110/110 111/111/111
f 112/112/112 113/113/113 114/114/114
f 114/114/114 115/115/115 94/94/94
f 116/116/116 117/117/117 118/118/118
f 119/119/119 120/120/120 121/121/121
f 1/1/1 43/43/43 2/2/2
f 4/4/4 122/122/122 5/5/5
f 7/7/7 123/123/123 8/8/8
f 10/10/10 124/124/124 11/11/11
f 13/13/13 125/125/125 14/14/14
f 16/16/16 126/126/126 17/17/17
f 19/19/19 127/127/127 20/20/20
f 22/22/22 128/128/128 23/23/23
f 25/25/25 129/129/129 26/26/26
f 28/28/28 130/130/130 29/29/29
f 31/31/31 131/131/131 32/32/32
f 34/34/34 132/132/132 35/35/35
f 37/37/37 133/133/133 38/38/38
f 40/40/40 44/44/44 41/41/41
f 43/43/43 37/37/37 39/39/39
f 44/44/44 122/122/122 4/4/4
f 45/45/45 134/134/134 46/46/46
f 48/48/48 88/88/88 49/49/49
f 51/51/51 135/135/135 52/52/52
f 54/54/54 136/136/136 55/55/55
f 57/57/57 137/137/137 58/58/58
f 60/60/60 138/138/138 61/61/61
f 63/63/63 139/139/139 64/64/64
f 66/66/66 140/140/140 67/67/67
f 69/69/69 141/141/141 70/70/70
f 72/72/72 142/142/142 73/73/73
f 75/75/75 143/143/143 76/76/76
f 78/78/78 144/144/144 79/79/79
f 81/81/81 87/87/87 82/82/82
f 84/84/84 145/145/145 85/85/85
f 47/47/47 46/46/46 87/87/87
f 88/88/88 84/84/84 86/86/86
f 89/89/89 146/146/146 90/90/90
f 94/94/94 115/115/115 95/95/95
f 97/97/97 147/147/147 98/98/98
f 100/100/100 148/148/148 101/101/101
f 103/103/103 149/149/149 104/104/104
f 106/106/106 150/150/150 107/107/107
f 109/109/109 151/151/151 110/110/110
f 112/112/112 152/152/152 113/113/113
f 114/114/114 113/113/113 115/115/115
f 116/116/116 119/119/119 117/117/117
f 119/119/119 116/116/116 120/120/120
