v -274.13 1222.69 -246.678
v -264.599 1225.53 -248.337
v -272.217 1227.11 -248.337
v -282.272 1245.83 -263.625
v -281.268 1238.71 -250.353
v -281.268 1238.71 -263.625
v -286.286 1254.93 -246.678
v -283.725 1245.93 -248.338
v -281.93 1252.87 -248.338
v -291.7 1234.97 -243.133
v -288.529 1246.23 -246.678
v -293.332 1246.54 -243.133
v -291.7 1234.97 -243.133
v -293.332 1246.54 -263.625
v -291.7 1234.97 -263.625
v -264.599 1262.4 -263.625
v -271.112 1261.16 -250.353
v -271.112 1261.16 -263.625
v -275.189 1271.47 -243.133
v -264.599 1268.67 -246.678
v -264.599 1273.49 -243.133
v -275.189 1271.47 -243.133
v -264.599 1273.49 -263.625
v -275.189 1271.47 -263.625
v -255.067 1222.69 -246.678
v -264.599 1220.71 -246.678
v -247.93 1238.71 -263.625
v -246.926 1245.83 -250.353
v -246.926 1245.83 -263.625
v -242.912 1254.93 -246.678
v -245.473 1245.93 -248.338
v -240.668 1246.23 -246.678
v -237.498 1234.97 -243.133
v -235.865 1246.54 -243.133
v -237.498 1234.97 -243.133
v -235.865 1246.54 -263.625
v -235.865 1246.54 -243.133
v -258.085 1261.16 -263.625
v -264.599 1262.4 -250.353
v -255.779 1266.99 -246.678
v -254.009 1271.47 -243.133
v -264.599 1273.49 -243.133
v -287.17 1236.6 -246.678
v -278.581 1231.58 -248.337
v -282.64 1238.22 -248.337
v -277.517 1232.58 -263.625
v -271.638 1228.44 -250.353
v -271.638 1228.44 -263.625
v -281.002 1262.19 -246.678
v -271.647 1262.51 -248.338
v -273.418 1266.99 -246.678
v -276.043 1218.27 -243.133
v -282.091 1228.29 -246.678
v -285.602 1225 -243.133
v -276.043 1218.27 -243.133
v -285.602 1225 -263.625
v -276.043 1218.27 -263.625
v -276.713 1257.61 -263.625
v -280.615 1252.25 -250.353
v -280.615 1252.25 -263.625
v -290.638 1256.98 -243.133
v -284.294 1265.7 -243.133
v -290.638 1256.98 -243.133
v -284.294 1265.7 -263.625
v -290.638 1256.98 -263.625
v -242.028 1236.6 -246.678
v -250.617 1231.58 -248.337
v -247.106 1228.29 -246.678
v -257.56 1228.44 -250.353
v -251.68 1232.58 -263.625
v -257.56 1228.44 -263.625
v -251.49 1258.67 -248.338
v -248.196 1262.19 -246.678
v -253.154 1218.27 -243.133
v -253.154 1218.27 -263.625
v -243.596 1225 -243.133
v -253.154 1218.27 -243.133
v -248.583 1252.25 -250.353
v -252.485 1257.61 -263.625
v -248.583 1252.25 -263.625
v -238.559 1256.98 -243.133
v -238.559 1256.98 -243.133
v -244.904 1265.7 -263.625
v -244.904 1265.7 -243.133
v -277.517 1232.58 -250.353
v -277.707 1258.67 -248.338
v -285.602 1225 -243.133
v -276.713 1257.61 -250.353
v -284.294 1265.7 -243.133
v -251.68 1232.58 -250.353
v -243.596 1225 -243.133
v -243.596 1225 -263.625
v -252.485 1257.61 -250.353
v -244.904 1265.7 -243.133
v -264.599 1226.98 -250.353
v -264.599 1226.98 -263.625
v -264.599 1263.86 -248.338
v -264.599 1215.9 -243.133
v -264.599 1215.9 -243.133
v -264.599 1215.9 -263.625
v -282.272 1245.83 -250.353
v -293.332 1246.54 -243.133
v -246.557 1238.22 -248.337
v -257.551 1262.51 -248.338
v -247.93 1238.71 -250.353
v -258.085 1261.16 -250.353
v -256.98 1227.11 -248.337
v -247.268 1252.87 -248.338
v -237.498 1234.97 -263.625
v -254.009 1271.47 -243.133
v -254.009 1271.47 -263.625
v -238.559 1256.98 -263.625
vt 0.1275 0.1878
vt 0.0033 0.1621
vt 0.1275 0.1621
vt 0.4999 0.0638
vt 0.3758 0.1451
vt 0.3758 0.0638
vt 0.6143 0.1878
vt 0.4999 0.1621
vt 0.6143 0.1621
vt 0.3758 0.2169
vt 0.4999 0.1878
vt 0.4999 0.2169
vt 0.3758 0.2169
vt 0.4999 0.3263
vt 0.3758 0.3263
vt 0.9575 0.0638
vt 0.8431 0.1451
vt 0.8431 0.0638
vt 0.8431 0.2169
vt 0.9575 0.1878
vt 0.9575 0.2169
vt 0.8431 0.2169
vt 0.9575 0.3263
vt 0.8431 0.3263
vt 0.1275 0.1878
vt 0.0033 0.1878
vt 0.3758 0.0638
vt 0.4999 0.1451
vt 0.4999 0.0638
vt 0.6143 0.1878
vt 0.4999 0.1621
vt 0.4999 0.1878
vt 0.3758 0.2169
vt 0.4999 0.2169
vt 0.3758 0.2169
vt 0.4999 0.3263
vt 0.4999 0.2169
vt 0.8431 0.0638
vt 0.9575 0.1451
vt 0.8431 0.1878
vt 0.8431 0.2169
vt 0.9575 0.2169
vt 0.3758 0.1878
vt 0.2516 0.1621
vt 0.3758 0.1621
vt 0.2516 0.0638
vt 0.1275 0.1451
vt 0.1275 0.0638
vt 0.7287 0.1878
vt 0.8431 0.1621
vt 0.8431 0.1878
vt 0.1275 0.2169
vt 0.2516 0.1878
vt 0.2516 0.2169
vt 0.1275 0.2169
vt 0.2516 0.3263
vt 0.1275 0.3263
vt 0.7287 0.0638
vt 0.6143 0.1451
vt 0.6143 0.0638
vt 0.6143 0.2169
vt 0.7287 0.2169
vt 0.6143 0.2169
vt 0.7287 0.3263
vt 0.6143 0.3263
vt 0.3758 0.1878
vt 0.2516 0.1621
vt 0.2516 0.1878
vt 0.1275 0.1451
vt 0.2516 0.0638
vt 0.1275 0.0638
vt 0.7287 0.1621
vt 0.7287 0.1878
vt 0.1275 0.2169
vt 0.1275 0.3263
vt 0.2516 0.2169
vt 0.1275 0.2169
vt 0.6143 0.1451
vt 0.7287 0.0638
vt 0.6143 0.0638
vt 0.6143 0.2169
vt 0.6143 0.2169
vt 0.7287 0.3263
vt 0.7287 0.2169
vt 0.2516 0.1451
vt 0.7287 0.1621
vt 0.2516 0.2169
vt 0.7287 0.1451
vt 0.7287 0.2169
vt 0.2516 0.1451
vt 0.2516 0.2169
vt 0.2516 0.3263
vt 0.7287 0.1451
vt 0.7287 0.2169
vt 0.0033 0.1451
vt 0.0033 0.0638
vt 0.9575 0.1621
vt 0.0033 0.2169
vt 0.0033 0.2169
vt 0.0033 0.3263
vt 0.4999 0.1451
vt 0.4999 0.2169
vt 0.3758 0.1621
vt 0.8431 0.1621
vt 0.3758 0.1451
vt 0.8431 0.1451
vt 0.1275 0.1621
vt 0.6143 0.1621
vt 0.3758 0.3263
vt 0.8431 0.2169
vt 0.8431 0.3263
vt 0.6143 0.3263
vn 0.1907 0.4403 0.8773
vn 0 0.5694 0.822
vn 0.2263 0.5225 0.8221
vn 0.9984 -0.0562 0
vn 0.8917 0.3199 0.3203
vn 0.9412 0.3377 0
vn 0.4329 -0.2043 0.878
vn 0.5698 -0.0321 0.8212
vn 0.5172 -0.2441 0.8203
vn 0.5582 0.2003 0.8051
vn 0.4786 -0.0267 0.8776
vn 0.5921 -0.0337 0.8051
vn -0.9412 -0.3377 0
vn -0.9984 0.0562 0
vn -0.9412 -0.3377 0
vn 0 -1 0
vn 0.3486 -0.8814 0.3188
vn 0.3678 -0.9299 0
vn 0.2181 -0.5515 0.8051
vn 0 -0.4787 0.878
vn 0 -0.5931 0.8051
vn -0.3678 0.9299 0
vn -0 1 0
vn -0.3678 0.9299 0
vn -0.1907 0.4403 0.8773
vn 0 0.4799 0.8773
vn -0.9412 0.3377 0
vn -0.9461 -0.053 0.3195
vn -0.9984 -0.0562 0
vn -0.4329 -0.2043 0.878
vn -0.5698 -0.0321 0.8212
vn -0.4786 -0.0267 0.8776
vn -0.5582 0.2003 0.8051
vn -0.5921 -0.0337 0.8051
vn 0.9412 -0.3377 0
vn 0.9984 0.0562 0
vn 0.9984 0.0562 0
vn -0.3678 -0.9299 0
vn 0 -0.9478 0.3188
vn -0.1761 -0.4452 0.878
vn 0.3678 0.9299 0
vn -0 1 0
vn 0.4517 0.1621 0.8773
vn 0.4153 0.3895 0.8221
vn 0.5359 0.1923 0.8221
vn 0.7295 0.684 0
vn 0.3765 0.8693 0.3203
vn 0.3975 0.9176 0
vn 0.3275 -0.3492 0.878
vn 0.2103 -0.5318 0.8203
vn 0.1761 -0.4452 0.878
vn 0.2357 0.5442 0.8052
vn 0.35 0.3283 0.8773
vn 0.4326 0.4057 0.8051
vn -0.3975 -0.9176 0
vn -0.7295 -0.684 0
vn -0.3975 -0.9176 0
vn 0.684 -0.7295 0
vn 0.8572 -0.4045 0.3188
vn 0.9044 -0.4267 0
vn 0.5364 -0.2531 0.8051
vn 0.4057 -0.4326 0.8051
vn -0.9044 0.4267 0
vn -0.684 0.7295 0
vn -0.9044 0.4268 0
vn -0.4517 0.1621 0.8773
vn -0.4153 0.3895 0.8221
vn -0.3501 0.3283 0.8773
vn -0.3765 0.8693 0.3203
vn -0.7295 0.684 0
vn -0.3975 0.9176 0
vn -0.3912 -0.4172 0.8203
vn -0.3275 -0.3492 0.878
vn -0.2357 0.5442 0.8051
vn 0.3975 -0.9176 0
vn 0.7295 -0.684 0
vn 0.3975 -0.9176 0
vn -0.8572 -0.4045 0.3188
vn -0.684 -0.7295 0
vn -0.9044 -0.4267 0
vn -0.5364 -0.2531 0.8051
vn 0.9044 0.4267 0
vn 0.684 0.7295 0
vn 0.684 0.7295 0
vn 0.691 0.648 0.3203
vn 0.3912 -0.4172 0.8203
vn -0.7295 -0.684 0
vn 0.6483 -0.6914 0.3187
vn -0.684 0.7295 0
vn -0.691 0.648 0.3203
vn -0.4326 0.4057 0.8051
vn 0.7295 -0.684 0
vn -0.6483 -0.6914 0.3188
vn -0.4057 -0.4326 0.8051
vn -0 0.9473 0.3203
vn -0 1 0
vn 0 -0.5719 0.8203
vn 0 0.5931 0.8052
vn 0 -1 0
vn 0 -1 0
vn 0.9461 -0.053 0.3195
vn -0.9984 0.0562 0
vn -0.5359 0.1923 0.8221
vn -0.2103 -0.5318 0.8203
vn -0.8917 0.3199 0.3203
vn -0.3486 -0.8814 0.3188
vn -0.2263 0.5225 0.8221
vn -0.5172 -0.2441 0.8203
vn 0.9412 -0.3377 0
vn -0.2181 -0.5515 0.8051
vn 0.3678 0.9299 0
vn 0.9044 0.4268 0
f 1/1/1 2/2/2 3/3/3
f 4/4/4 5/5/5 6/6/6
f 7/7/7 8/8/8 9/9/9
f 10/10/10 11/11/11 12/12/12
f 13/13/13 14/14/14 15/15/15
f 16/16/16 17/17/17 18/18/18
f 19/19/19 20/20/20 21/21/21
f 22/22/22 23/23/23 24/24/24
f 25/25/25 2/2/2 26/26/26
f 27/27/27 28/28/28 29/29/29
f 30/30/30 31/31/31 32/32/32
f 32/32/32 33/33/33 34/34/34
f 35/35/35 36/36/36 37/37/37
f 38/38/38 39/39/39 16/16/16
f 40/40/40 21/21/21 20/20/20
f 41/41/41 23/23/23 42/42/42
f 43/43/43 44/44/44 45/45/45
f 46/46/46 47/47/47 48/48/48
f 49/49/49 50/50/50 51/51/51
f 52/52/52 53/53/53 54/54/54
f 55/55/55 56/56/56 57/57/57
f 58/58/58 59/59/59 60/60/60
f 61/61/61 49/49/49 62/62/62
f 63/63/63 64/64/64 65/65/65
f 66/66/66 67/67/67 68/68/68
f 69/69/69 70/70/70 71/71/71
f 40/40/40 72/72/72 73/73/73
f 74/74/74 68/68/68 25/25/25
f 75/75/75 76/76/76 77/77/77
f 78/78/78 79/79/79 80/80/80
f 81/81/81 73/73/73 30/30/30
f 82/82/82 83/83/83 84/84/84
f 1/1/1 44/44/44 53/53/53
f 6/6/6 85/85/85 46/46/46
f 49/49/49 9/9/9 86/86/86
f 54/54/54 43/43/43 10/10/10
f 87/87/87 15/15/15 56/56/56
f 18/18/18 88/88/88 58/58/58
f 62/62/62 51/51/51 19/19/19
f 89/89/89 24/24/24 64/64/64
f 67/67/67 25/25/25 68/68/68
f 90/90/90 27/27/27 70/70/70
f 72/72/72 30/30/30 73/73/73
f 91/91/91 66/66/66 68/68/68
f 92/92/92 35/35/35 76/76/76
f 93/93/93 38/38/38 79/79/79
f 94/94/94 40/40/40 73/73/73
f 83/83/83 41/41/41 84/84/84
f 11/11/11 45/45/45 8/8/8
f 48/48/48 95/95/95 96/96/96
f 51/51/51 97/97/97 20/20/20
f 98/98/98 1/1/1 52/52/52
f 99/99/99 57/57/57 100/100/100
f 60/60/60 101/101/101 4/4/4
f 12/12/12 7/7/7 61/61/61
f 102/102/102 65/65/65 14/14/14
f 32/32/32 103/103/103 66/66/66
f 95/95/95 71/71/71 96/96/96
f 20/20/20 104/104/104 40/40/40
f 26/26/26 74/74/74 25/25/25
f 99/99/99 75/75/75 77/77/77
f 28/28/28 80/80/80 29/29/29
f 34/34/34 30/30/30 32/32/32
f 36/36/36 82/82/82 37/37/37
f 8/8/8 5/5/5 101/101/101
f 97/97/97 17/17/17 39/39/39
f 31/31/31 105/105/105 103/103/103
f 97/97/97 106/106/106 104/104/104
f 44/44/44 47/47/47 85/85/85
f 9/9/9 88/88/88 86/86/86
f 67/67/67 69/69/69 107/107/107
f 108/108/108 93/93/93 78/78/78
f 44/44/44 5/5/5 45/45/45
f 86/86/86 17/17/17 50/50/50
f 67/67/67 105/105/105 90/90/90
f 104/104/104 93/93/93 72/72/72
f 3/3/3 95/95/95 47/47/47
f 9/9/9 101/101/101 59/59/59
f 107/107/107 95/95/95 2/2/2
f 108/108/108 28/28/28 31/31/31
f 1/1/1 26/26/26 2/2/2
f 4/4/4 101/101/101 5/5/5
f 7/7/7 11/11/11 8/8/8
f 10/10/10 43/43/43 11/11/11
f 13/13/13 102/102/102 14/14/14
f 16/16/16 39/39/39 17/17/17
f 19/19/19 51/51/51 20/20/20
f 22/22/22 42/42/42 23/23/23
f 25/25/25 107/107/107 2/2/2
f 27/27/27 105/105/105 28/28/28
f 30/30/30 108/108/108 31/31/31
f 32/32/32 66/66/66 33/33/33
f 35/35/35 109/109/109 36/36/36
f 38/38/38 106/106/106 39/39/39
f 40/40/40 110/110/110 21/21/21
f 41/41/41 111/111/111 23/23/23
f 43/43/43 53/53/53 44/44/44
f 46/46/46 85/85/85 47/47/47
f 49/49/49 86/86/86 50/50/50
f 52/52/52 1/1/1 53/53/53
f 55/55/55 87/87/87 56/56/56
f 58/58/58 88/88/88 59/59/59
f 61/61/61 7/7/7 49/49/49
f 63/63/63 89/89/89 64/64/64
f 66/66/66 103/103/103 67/67/67
f 69/69/69 90/90/90 70/70/70
f 40/40/40 104/104/104 72/72/72
f 74/74/74 91/91/91 68/68/68
f 75/75/75 92/92/92 76/76/76
f 78/78/78 93/93/93 79/79/79
f 81/81/81 94/94/94 73/73/73
f 82/82/82 112/112/112 83/83/83
f 1/1/1 3/3/3 44/44/44
f 6/6/6 5/5/5 85/85/85
f 49/49/49 7/7/7 9/9/9
f 54/54/54 53/53/53 43/43/43
f 87/87/87 13/13/13 15/15/15
f 18/18/18 17/17/17 88/88/88
f 62/62/62 49/49/49 51/51/51
f 89/89/89 22/22/22 24/24/24
f 67/67/67 107/107/107 25/25/25
f 90/90/90 105/105/105 27/27/27
f 72/72/72 108/108/108 30/30/30
f 91/91/91 33/33/33 66/66/66
f 92/92/92 109/109/109 35/35/35
f 93/93/93 106/106/106 38/38/38
f 94/94/94 110/110/110 40/40/40
f 83/83/83 111/111/111 41/41/41
f 11/11/11 43/43/43 45/45/45
f 48/48/48 47/47/47 95/95/95
f 51/51/51 50/50/50 97/97/97
f 98/98/98 26/26/26 1/1/1
f 99/99/99 55/55/55 57/57/57
f 60/60/60 59/59/59 101/101/101
f 12/12/12 11/11/11 7/7/7
f 102/102/102 63/63/63 65/65/65
f 32/32/32 31/31/31 103/103/103
f 95/95/95 69/69/69 71/71/71
f 20/20/20 97/97/97 104/104/104
f 26/26/26 98/98/98 74/74/74
f 99/99/99 100/100/100 75/75/75
f 28/28/28 78/78/78 80/80/80
f 34/34/34 81/81/81 30/30/30
f 36/36/36 112/112/112 82/82/82
f 8/8/8 45/45/45 5/5/5
f 97/97/97 50/50/50 17/17/17
f 31/31/31 28/28/28 105/105/105
f 97/97/97 39/39/39 106/106/106
f 44/44/44 3/3/3 47/47/47
f 9/9/9 59/59/59 88/88/88
f 67/67/67 90/90/90 69/69/69
f 108/108/108 72/72/72 93/93/93
f 44/44/44 85/85/85 5/5/5
f 86/86/86 88/88/88 17/17/17
f 67/67/67 103/103/103 105/105/105
f 104/104/104 106/106/106 93/93/93
f 3/3/3 2/2/2 95/95/95
f 9/9/9 8/8/8 101/101/101
f 107/107/107 69/69/69 95/95/95
f 108/108/108 78/78/78 28/28/28
