v -44.5728 990.795 202.787
v -44.5726 927.363 175.109
v -44.5726 927.363 202.787
v -19.6271 1011.36 169.319
v -16.5164 927.363 169.319
v -19.6272 927.363 169.319
v -16.5164 927.363 169.319
v -16.5163 1014.47 202.787
v -16.5164 927.363 202.787
v -44.5728 990.795 175.109
v -24.3769 927.363 175.109
v -44.5726 927.363 175.109
v -24.3769 1006.61 175.109
v -19.6272 927.363 169.319
v -24.3769 927.363 175.109
v -63.0943 1006.61 175.109
v -24.3769 1006.61 175.109
v -24.3769 1006.61 175.109
v -63.0943 1011.36 169.319
v -19.6271 1011.36 169.319
v -44.5728 990.795 175.109
v -63.0943 990.795 202.787
v -63.0943 990.795 175.109
v -63.0943 1014.47 169.319
v -63.0943 1011.36 169.319
v -16.5163 1014.47 202.787
v -63.0943 1014.47 169.319
v -63.0943 1014.47 202.787
v -81.616 927.363 175.109
v -81.6158 990.795 202.787
v -81.616 927.363 202.787
v -106.846 927.363 169.319
v -103.735 1011.36 169.319
v -103.735 927.363 169.319
v -106.846 1014.47 202.787
v -106.846 927.363 169.319
v -106.846 927.363 202.787
v -81.6158 990.795 175.109
v -98.9852 927.363 175.109
v -98.9852 1006.61 175.109
v -98.9852 1006.61 175.109
v -103.735 927.363 169.319
v -103.735 1011.36 169.319
v -63.0943 990.795 175.109
v -98.9852 1006.61 175.109
v -63.0943 1006.61 175.109
v -81.6158 990.795 175.109
v -81.6158 990.795 202.787
v -106.846 1014.47 202.787
v -106.846 1014.47 169.319
v -44.5728 990.795 175.109
v -16.5163 1014.47 169.319
v -16.5163 1014.47 169.319
v -19.6271 1011.36 169.319
v -44.5728 990.795 202.787
v -16.5163 1014.47 169.319
v -81.6158 990.795 175.109
v -106.846 1014.47 169.319
v -106.846 1014.47 169.319
v -81.616 927.363 175.109
v -98.9852 927.363 175.109
v -103.735 1011.36 169.319
vt 0.7878 0.0638
vt 0.9965 0.1543
vt 0.9965 0.0638
vt 0.7384 0.2067
vt 0.9965 0.2169
vt 0.9965 0.2067
vt 0.9965 0.2169
vt 0.7282 0.3263
vt 0.9965 0.3263
vt 0.7878 0.1543
vt 0.9965 0.1878
vt 0.9965 0.1543
vt 0.7541 0.1878
vt 0.9965 0.2067
vt 0.9965 0.1878
vt 0.8487 0.1878
vt 0.7541 0.1878
vt 0.7541 0.1878
vt 0.8487 0.2067
vt 0.7384 0.2067
vt 0.7878 0.1543
vt 0.8487 0.0638
vt 0.8487 0.1543
vt 0.8487 0.2169
vt 0.8487 0.2067
vt 0.7282 0.3263
vt 0.8487 0.2169
vt 0.8487 0.3263
vt 0.9965 0.1543
vt 0.7878 0.0638
vt 0.9965 0.0638
vt 0.9965 0.2169
vt 0.7384 0.2067
vt 0.9965 0.2067
vt 0.7282 0.3263
vt 0.9965 0.2169
vt 0.9965 0.3263
vt 0.7878 0.1543
vt 0.9965 0.1878
vt 0.7541 0.1878
vt 0.7541 0.1878
vt 0.9965 0.2067
vt 0.7384 0.2067
vt 0.8487 0.1543
vt 0.7541 0.1878
vt 0.8487 0.1878
vt 0.7878 0.1543
vt 0.7878 0.0638
vt 0.7282 0.3263
vt 0.7282 0.2169
vt 0.7878 0.1543
vt 0.7282 0.2169
vt 0.7282 0.2169
vt 0.7384 0.2067
vt 0.7878 0.0638
vt 0.7282 0.2169
vt 0.7878 0.1543
vt 0.7282 0.2169
vt 0.7282 0.2169
vt 0.9965 0.1543
vt 0.9965 0.1878
vt 0.7384 0.2067
vn -1 -0 0
vn -1 -0 0
vn -1 -0 0
vn -0 0 -1
vn -0 0 -1
vn -0 0 -1
vn 1 -0 -0
vn 1 -0 -0
vn 1 -0 -0
vn -0 0 -1
vn -0 0 -1
vn -0 0 -1
vn -0.7731 0 -0.6342
vn -0.7731 0 -0.6342
vn -0.7731 0 -0.6342
vn -0 0 -1
vn -0 0 -1
vn 0 -0.7731 -0.6342
vn 0 -0.7731 -0.6342
vn 0 -0.7731 -0.6342
vn 0 -1 -0
vn 0 -1 -0
vn 0 -1 -0
vn -0 0 -1
vn -0 0 -1
vn 0 1 0
vn 0 1 0
vn 0 1 0
vn 1 -0 -0
vn 1 -0 -0
vn 1 -0 -0
vn -0 0 -1
vn -0 0 -1
vn -0 0 -1
vn -1 -0 0
vn -1 -0 0
vn -1 -0 0
vn -0 0 -1
vn -0 0 -1
vn -0 0 -1
vn 0.7731 0 -0.6342
vn 0.7731 0 -0.6342
vn 0.7731 0 -0.6342
vn -0 0 -1
vn 0 -0.7731 -0.6342
vn 0 -0.7731 -0.6342
vn 0 -1 -0
vn 0 -1 -0
vn 0 1 0
vn 0 1 0
vn -1 -0 0
vn -0 0 -1
vn 1 -0 -0
vn -0.7731 0 -0.6342
vn 0 -1 -0
vn 0 1 0
vn 1 -0 -0
vn -0 0 -1
vn -1 -0 0
vn -0 0 -1
vn 0.7731 0 -0.6342
vn 0 -0.7731 -0.6342
f 1/1/1 2/2/2 3/3/3
f 4/4/4 5/5/5 6/6/6
f 7/7/7 8/8/8 9/9/9
f 10/10/10 11/11/11 12/12/12
f 13/13/13 14/14/14 15/15/15
f 10/10/10 16/16/16 17/17/17
f 18/18/18 19/19/19 20/20/20
f 21/21/21 22/22/22 23/23/23
f 24/24/24 4/4/4 25/25/25
f 26/26/26 27/27/27 28/28/28
f 29/29/29 30/30/30 31/31/31
f 32/32/32 33/33/33 34/34/34
f 35/35/35 36/36/36 37/37/37
f 38/38/38 39/39/39 40/40/40
f 41/41/41 42/42/42 43/43/43
f 38/38/38 16/16/16 44/44/44
f 45/45/45 19/19/19 46/46/46
f 47/47/47 22/22/22 48/48/48
f 33/33/33 24/24/24 25/25/25
f 49/49/49 27/27/27 50/50/50
f 1/1/1 51/51/51 2/2/2
f 4/4/4 52/52/52 5/5/5
f 7/7/7 53/53/53 8/8/8
f 10/10/10 17/17/17 11/11/11
f 13/13/13 54/54/54 14/14/14
f 10/10/10 44/44/44 16/16/16
f 18/18/18 46/46/46 19/19/19
f 21/21/21 55/55/55 22/22/22
f 24/24/24 52/52/52 4/4/4
f 26/26/26 56/56/56 27/27/27
f 29/29/29 57/57/57 30/30/30
f 32/32/32 58/58/58 33/33/33
f 35/35/35 59/59/59 36/36/36
f 38/38/38 60/60/60 39/39/39
f 41/41/41 61/61/61 42/42/42
f 38/38/38 40/40/40 16/16/16
f 45/45/45 62/62/62 19/19/19
f 47/47/47 23/23/23 22/22/22
f 33/33/33 58/58/58 24/24/24
f 49/49/49 28/28/28 27/27/27
