v -997.32 1227.05 -34.9714
v -995.661 1224.21 -44.5029
v -997.32 1228.63 -42.5901
v -1012.61 1247.36 -52.6448
v -999.335 1240.24 -51.6406
v -999.335 1247.36 -52.6448
v -997.32 1247.45 -54.0974
v -995.661 1256.45 -56.6582
v -997.321 1254.4 -52.3023
v -995.661 1247.76 -58.9021
v -992.115 1236.49 -62.0725
v -992.115 1248.07 -63.7048
v -992.115 1236.49 -62.0725
v -1012.61 1248.07 -63.7048
v -992.115 1248.07 -63.7048
v -1012.61 1263.93 -34.9714
v -999.335 1262.69 -41.4849
v -999.335 1263.93 -34.9714
v -995.661 1268.52 -43.7912
v -992.116 1275.01 -34.9714
v -995.661 1270.2 -34.9714
v -992.116 1275.01 -34.9714
v -1012.61 1272.99 -45.5613
v -1012.61 1275.01 -34.9714
v -995.661 1224.21 -25.44
v -997.32 1228.63 -27.3528
v -1012.61 1240.24 -18.3023
v -999.335 1247.36 -17.2981
v -999.335 1240.24 -18.3023
v -995.661 1256.45 -13.2846
v -997.32 1247.45 -15.8455
v -997.321 1254.4 -17.6406
v -992.116 1236.49 -7.8703
v -995.661 1247.76 -11.0408
v -992.116 1248.07 -6.2379
v -992.116 1236.49 -7.8703
v -1012.61 1248.07 -6.2379
v -1012.61 1236.49 -7.8703
v -1012.61 1262.69 -28.4579
v -999.335 1262.69 -28.4579
v -992.116 1272.99 -24.3816
v -992.116 1272.99 -24.3816
v -1012.61 1272.99 -24.3816
v -997.32 1233.11 -48.9534
v -995.661 1238.12 -57.5425
v -997.32 1239.74 -53.0127
v -999.335 1234.1 -47.89
v -1012.61 1229.97 -42.0108
v -999.335 1229.97 -42.0108
v -997.321 1260.2 -48.0796
v -997.321 1264.04 -42.0195
v -992.115 1226.52 -55.9746
v -995.661 1229.82 -52.4639
v -992.115 1219.8 -46.4159
v -1012.61 1226.52 -55.9746
v -992.115 1226.52 -55.9746
v -1012.61 1259.14 -47.0855
v -999.335 1253.78 -50.9877
v -999.335 1259.14 -47.0855
v -995.661 1263.71 -51.3744
v -992.115 1258.51 -61.0109
v -992.115 1267.22 -54.6665
v -992.115 1258.51 -61.0109
v -1012.61 1267.22 -54.6665
v -992.115 1267.22 -54.6665
v -997.32 1233.11 -20.9895
v -995.661 1238.12 -12.4004
v -995.661 1229.82 -17.479
v -999.335 1229.97 -27.9321
v -1012.61 1234.1 -22.0527
v -999.335 1234.1 -22.0527
v -997.321 1260.2 -21.8632
v -995.661 1268.52 -26.1516
v -995.661 1263.71 -18.5684
v -992.116 1219.8 -23.5269
v -992.116 1226.52 -13.9682
v -1012.61 1219.8 -23.5269
v -992.116 1226.52 -13.9682
v -1012.61 1226.52 -13.9682
v -999.335 1253.78 -18.9551
v -1012.61 1259.14 -22.8574
v -999.335 1259.14 -22.8574
v -992.116 1258.51 -8.9319
v -992.116 1267.22 -15.2764
v -1012.61 1258.51 -8.9319
v -992.116 1267.22 -15.2764
v -1012.61 1267.22 -15.2764
v -1012.61 1240.24 -51.6406
v -1012.61 1236.49 -62.0725
v -1012.61 1262.69 -41.4849
v -992.115 1272.99 -45.5613
v -992.115 1272.99 -45.5613
v -999.335 1228.51 -34.9714
v -997.321 1265.38 -34.9714
v -992.116 1217.43 -34.9714
v -992.115 1219.8 -46.4159
v -992.116 1217.43 -34.9714
v -1012.61 1219.8 -46.4159
v -1012.61 1253.78 -50.9877
v -1012.61 1258.51 -61.0109
v -997.32 1239.74 -16.9302
v -1012.61 1229.97 -27.9321
v -997.321 1264.04 -27.9234
v -1012.61 1217.43 -34.9714
v -992.116 1219.8 -23.5269
v -1012.61 1253.78 -18.9551
v -992.116 1258.51 -8.9319
v -995.661 1222.24 -34.9714
v -1012.61 1247.36 -17.2981
v -992.116 1248.07 -6.2379
v -1012.61 1234.1 -47.89
v -1012.61 1228.51 -34.9714
vt 0.0033 0.1621
vt 0.1275 0.1878
vt 0.1275 0.1621
vt 0.4999 0.0638
vt 0.3758 0.1451
vt 0.4999 0.1451
vt 0.4999 0.1621
vt 0.6143 0.1878
vt 0.6143 0.1621
vt 0.4999 0.1878
vt 0.3758 0.2169
vt 0.4999 0.2169
vt 0.3758 0.2169
vt 0.4999 0.3263
vt 0.4999 0.2169
vt 0.9575 0.0638
vt 0.8431 0.1451
vt 0.9575 0.1451
vt 0.8431 0.1878
vt 0.9575 0.2169
vt 0.9575 0.1878
vt 0.9575 0.2169
vt 0.8431 0.3263
vt 0.9575 0.3263
vt 0.1275 0.1878
vt 0.1275 0.1621
vt 0.3758 0.0638
vt 0.4999 0.1451
vt 0.3758 0.1451
vt 0.6143 0.1878
vt 0.4999 0.1621
vt 0.6143 0.1621
vt 0.3758 0.2169
vt 0.4999 0.1878
vt 0.4999 0.2169
vt 0.3758 0.2169
vt 0.4999 0.3263
vt 0.3758 0.3263
vt 0.8431 0.0638
vt 0.8431 0.1451
vt 0.8431 0.2169
vt 0.8431 0.2169
vt 0.8431 0.3263
vt 0.2516 0.1621
vt 0.3758 0.1878
vt 0.3758 0.1621
vt 0.2516 0.1451
vt 0.1275 0.0638
vt 0.1275 0.1451
vt 0.7287 0.1621
vt 0.8431 0.1621
vt 0.2516 0.2169
vt 0.2516 0.1878
vt 0.1275 0.2169
vt 0.2516 0.3263
vt 0.2516 0.2169
vt 0.7287 0.0638
vt 0.6143 0.1451
vt 0.7287 0.1451
vt 0.7287 0.1878
vt 0.6143 0.2169
vt 0.7287 0.2169
vt 0.6143 0.2169
vt 0.7287 0.3263
vt 0.7287 0.2169
vt 0.2516 0.1621
vt 0.3758 0.1878
vt 0.2516 0.1878
vt 0.1275 0.1451
vt 0.2516 0.0638
vt 0.2516 0.1451
vt 0.7287 0.1621
vt 0.8431 0.1878
vt 0.7287 0.1878
vt 0.1275 0.2169
vt 0.2516 0.2169
vt 0.1275 0.3263
vt 0.2516 0.2169
vt 0.2516 0.3263
vt 0.6143 0.1451
vt 0.7287 0.0638
vt 0.7287 0.1451
vt 0.6143 0.2169
vt 0.7287 0.2169
vt 0.6143 0.3263
vt 0.7287 0.2169
vt 0.7287 0.3263
vt 0.3758 0.0638
vt 0.3758 0.3263
vt 0.8431 0.0638
vt 0.8431 0.2169
vt 0.8431 0.2169
vt 0.0033 0.1451
vt 0.9575 0.1621
vt 0.0033 0.2169
vt 0.1275 0.2169
vt 0.0033 0.2169
vt 0.1275 0.3263
vt 0.6143 0.0638
vt 0.6143 0.3263
vt 0.3758 0.1621
vt 0.1275 0.0638
vt 0.8431 0.1621
vt 0.0033 0.3263
vt 0.1275 0.2169
vt 0.6143 0.0638
vt 0.6143 0.2169
vt 0.0033 0.1878
vt 0.4999 0.0638
vt 0.4999 0.2169
vt 0.2516 0.0638
vt 0.0033 0.0638
vn 0.8221 0.5694 -0
vn 0.8773 0.4404 0.1907
vn 0.8221 0.5225 0.2263
vn 0 -0.0562 0.9984
vn 0.3203 0.3199 0.8917
vn 0.3195 -0.053 0.9461
vn 0.8212 -0.0321 0.5697
vn 0.878 -0.2043 0.4329
vn 0.8203 -0.2441 0.5172
vn 0.8776 -0.0267 0.4786
vn 0.8051 0.2003 0.5583
vn 0.8051 -0.0337 0.5922
vn 0 -0.3377 -0.9412
vn 0 0.0562 -0.9984
vn 0 0.0562 -0.9984
vn 0 -1 -0
vn 0.3188 -0.8814 0.3486
vn 0.3188 -0.9478 0
vn 0.878 -0.4452 0.1761
vn 0.8051 -0.5931 0
vn 0.878 -0.4787 0
vn 0 1 -0
vn 0 0.9299 -0.3678
vn 0 1 -0
vn 0.8773 0.4403 -0.1907
vn 0.8221 0.5225 -0.2263
vn 0 0.3377 -0.9412
vn 0.3195 -0.053 -0.9461
vn 0.3203 0.3199 -0.8917
vn 0.878 -0.2043 -0.4329
vn 0.8212 -0.0321 -0.5697
vn 0.8203 -0.2441 -0.5172
vn 0.8051 0.2003 -0.5582
vn 0.8776 -0.0267 -0.4786
vn 0.8051 -0.0337 -0.5921
vn 0 -0.3377 0.9412
vn 0 0.0562 0.9984
vn 0 -0.3377 0.9412
vn 0 -0.9299 -0.3678
vn 0.3188 -0.8814 -0.3486
vn 0.8051 -0.5515 -0.2181
vn 0 0.9299 0.3678
vn 0 0.9299 0.3678
vn 0.8221 0.3895 0.4153
vn 0.8773 0.1621 0.4517
vn 0.8221 0.1923 0.5359
vn 0.3203 0.648 0.691
vn 0 0.9176 0.3975
vn 0.3203 0.8693 0.3766
vn 0.8203 -0.4172 0.3912
vn 0.8203 -0.5318 0.2103
vn 0.8051 0.4057 0.4326
vn 0.8773 0.3283 0.3501
vn 0 -0.9176 -0.3975
vn 0 -0.684 -0.7295
vn 0 -0.684 -0.7295
vn 0 -0.7295 0.684
vn 0.3188 -0.4045 0.8572
vn 0.3187 -0.6914 0.6483
vn 0.878 -0.3492 0.3275
vn 0.8051 -0.2531 0.5364
vn 0.8051 -0.4326 0.4057
vn 0 0.4267 -0.9044
vn 0 0.7295 -0.684
vn 0 0.7295 -0.684
vn 0.8221 0.3895 -0.4153
vn 0.8773 0.1621 -0.4517
vn 0.8773 0.3283 -0.3501
vn 0.3203 0.8693 -0.3765
vn 0 0.684 -0.7295
vn 0.3203 0.648 -0.691
vn 0.8203 -0.4172 -0.3912
vn 0.878 -0.4452 -0.1761
vn 0.878 -0.3492 -0.3275
vn 0.8051 0.5442 -0.2357
vn 0.8051 0.4057 -0.4326
vn 0 -0.9176 0.3975
vn 0 -0.684 0.7295
vn 0 -0.684 0.7295
vn 0.3188 -0.4045 -0.8572
vn 0 -0.7295 -0.684
vn 0.3188 -0.6914 -0.6483
vn 0.8051 -0.2531 -0.5364
vn 0.8051 -0.4326 -0.4057
vn 0 0.4268 0.9044
vn 0 0.7295 0.684
vn 0 0.7295 0.684
vn 0 0.3377 0.9412
vn 0 -0.3377 -0.9412
vn 0 -0.9299 0.3678
vn 0.8051 -0.5515 0.2181
vn 0 0.9299 -0.3678
vn 0.3203 0.9473 -0
vn 0.8203 -0.5719 0
vn 0.8051 0.5931 0
vn 0.8051 0.5442 0.2357
vn 0 -1 -0
vn 0 -0.9176 -0.3975
vn 0 -0.4268 0.9044
vn 0 0.4267 -0.9044
vn 0.8221 0.1923 -0.5359
vn 0 0.9176 -0.3975
vn 0.8203 -0.5318 -0.2103
vn 0 -1 -0
vn 0 -0.9176 0.3975
vn 0 -0.4268 -0.9044
vn 0 0.4268 0.9044
vn 0.8773 0.4799 -0
vn 0 -0.0562 -0.9984
vn 0 0.0562 0.9984
vn 0 0.684 0.7295
vn 0 1 -0
f 1/1/1 2/2/2 3/3/3
f 4/4/4 5/5/5 6/6/6
f 7/7/7 8/8/8 9/9/9
f 10/10/10 11/11/11 12/12/12
f 13/13/13 14/14/14 15/15/15
f 16/16/16 17/17/17 18/18/18
f 19/19/19 20/20/20 21/21/21
f 22/22/22 23/23/23 24/24/24
f 25/25/25 1/1/1 26/26/26
f 27/27/27 28/28/28 29/29/29
f 30/30/30 31/31/31 32/32/32
f 33/33/33 34/34/34 35/35/35
f 36/36/36 37/37/37 38/38/38
f 39/39/39 18/18/18 40/40/40
f 41/41/41 21/21/21 20/20/20
f 42/42/42 24/24/24 43/43/43
f 44/44/44 45/45/45 46/46/46
f 47/47/47 48/48/48 49/49/49
f 50/50/50 19/19/19 51/51/51
f 2/2/2 52/52/52 53/53/53
f 54/54/54 55/55/55 56/56/56
f 57/57/57 58/58/58 59/59/59
f 60/60/60 61/61/61 62/62/62
f 63/63/63 64/64/64 65/65/65
f 66/66/66 67/67/67 68/68/68
f 69/69/69 70/70/70 71/71/71
f 72/72/72 73/73/73 74/74/74
f 75/75/75 68/68/68 76/76/76
f 77/77/77 78/78/78 79/79/79
f 80/80/80 81/81/81 82/82/82
f 83/83/83 74/74/74 84/84/84
f 85/85/85 86/86/86 87/87/87
f 3/3/3 53/53/53 44/44/44
f 88/88/88 47/47/47 5/5/5
f 9/9/9 60/60/60 50/50/50
f 45/45/45 52/52/52 11/11/11
f 56/56/56 89/89/89 13/13/13
f 90/90/90 59/59/59 17/17/17
f 60/60/60 91/91/91 19/19/19
f 65/65/65 23/23/23 92/92/92
f 26/26/26 68/68/68 25/25/25
f 71/71/71 27/27/27 29/29/29
f 32/32/32 74/74/74 30/30/30
f 76/76/76 67/67/67 33/33/33
f 79/79/79 36/36/36 38/38/38
f 82/82/82 39/39/39 40/40/40
f 84/84/84 73/73/73 41/41/41
f 87/87/87 42/42/42 43/43/43
f 46/46/46 10/10/10 7/7/7
f 48/48/48 93/93/93 49/49/49
f 51/51/51 21/21/21 94/94/94
f 2/2/2 95/95/95 96/96/96
f 97/97/97 98/98/98 54/54/54
f 99/99/99 6/6/6 58/58/58
f 10/10/10 61/61/61 8/8/8
f 15/15/15 100/100/100 63/63/63
f 101/101/101 34/34/34 67/67/67
f 93/93/93 102/102/102 69/69/69
f 103/103/103 21/21/21 73/73/73
f 95/95/95 25/25/25 75/75/75
f 104/104/104 105/105/105 77/77/77
f 28/28/28 106/106/106 80/80/80
f 35/35/35 30/30/30 83/83/83
f 37/37/37 107/107/107 85/85/85
f 5/5/5 7/7/7 6/6/6
f 17/17/17 94/94/94 18/18/18
f 31/31/31 29/29/29 28/28/28
f 18/18/18 103/103/103 40/40/40
f 3/3/3 47/47/47 49/49/49
f 9/9/9 59/59/59 58/58/58
f 66/66/66 69/69/69 71/71/71
f 72/72/72 80/80/80 82/82/82
f 44/44/44 5/5/5 47/47/47
f 50/50/50 17/17/17 59/59/59
f 29/29/29 66/66/66 71/71/71
f 40/40/40 72/72/72 82/82/82
f 93/93/93 3/3/3 49/49/49
f 6/6/6 9/9/9 58/58/58
f 26/26/26 93/93/93 69/69/69
f 32/32/32 28/28/28 80/80/80
f 1/1/1 108/108/108 2/2/2
f 4/4/4 88/88/88 5/5/5
f 7/7/7 10/10/10 8/8/8
f 10/10/10 45/45/45 11/11/11
f 13/13/13 89/89/89 14/14/14
f 16/16/16 90/90/90 17/17/17
f 19/19/19 91/91/91 20/20/20
f 22/22/22 92/92/92 23/23/23
f 25/25/25 108/108/108 1/1/1
f 27/27/27 109/109/109 28/28/28
f 30/30/30 34/34/34 31/31/31
f 33/33/33 67/67/67 34/34/34
f 36/36/36 110/110/110 37/37/37
f 39/39/39 16/16/16 18/18/18
f 41/41/41 73/73/73 21/21/21
f 42/42/42 22/22/22 24/24/24
f 44/44/44 53/53/53 45/45/45
f 47/47/47 111/111/111 48/48/48
f 50/50/50 60/60/60 19/19/19
f 2/2/2 96/96/96 52/52/52
f 54/54/54 98/98/98 55/55/55
f 57/57/57 99/99/99 58/58/58
f 60/60/60 8/8/8 61/61/61
f 63/63/63 100/100/100 64/64/64
f 66/66/66 101/101/101 67/67/67
f 69/69/69 102/102/102 70/70/70
f 72/72/72 103/103/103 73/73/73
f 75/75/75 25/25/25 68/68/68
f 77/77/77 105/105/105 78/78/78
f 80/80/80 106/106/106 81/81/81
f 83/83/83 30/30/30 74/74/74
f 85/85/85 107/107/107 86/86/86
f 3/3/3 2/2/2 53/53/53
f 88/88/88 111/111/111 47/47/47
f 9/9/9 8/8/8 60/60/60
f 45/45/45 53/53/53 52/52/52
f 56/56/56 55/55/55 89/89/89
f 90/90/90 57/57/57 59/59/59
f 60/60/60 62/62/62 91/91/91
f 65/65/65 64/64/64 23/23/23
f 26/26/26 66/66/66 68/68/68
f 71/71/71 70/70/70 27/27/27
f 32/32/32 72/72/72 74/74/74
f 76/76/76 68/68/68 67/67/67
f 79/79/79 78/78/78 36/36/36
f 82/82/82 81/81/81 39/39/39
f 84/84/84 74/74/74 73/73/73
f 87/87/87 86/86/86 42/42/42
f 46/46/46 45/45/45 10/10/10
f 48/48/48 112/112/112 93/93/93
f 51/51/51 19/19/19 21/21/21
f 2/2/2 108/108/108 95/95/95
f 97/97/97 104/104/104 98/98/98
f 99/99/99 4/4/4 6/6/6
f 10/10/10 12/12/12 61/61/61
f 15/15/15 14/14/14 100/100/100
f 101/101/101 31/31/31 34/34/34
f 93/93/93 112/112/112 102/102/102
f 103/103/103 94/94/94 21/21/21
f 95/95/95 108/108/108 25/25/25
f 104/104/104 97/97/97 105/105/105
f 28/28/28 109/109/109 106/106/106
f 35/35/35 34/34/34 30/30/30
f 37/37/37 110/110/110 107/107/107
f 5/5/5 46/46/46 7/7/7
f 17/17/17 51/51/51 94/94/94
f 31/31/31 101/101/101 29/29/29
f 18/18/18 94/94/94 103/103/103
f 3/3/3 44/44/44 47/47/47
f 9/9/9 50/50/50 59/59/59
f 66/66/66 26/26/26 69/69/69
f 72/72/72 32/32/32 80/80/80
f 44/44/44 46/46/46 5/5/5
f 50/50/50 51/51/51 17/17/17
f 29/29/29 101/101/101 66/66/66
f 40/40/40 103/103/103 72/72/72
f 93/93/93 1/1/1 3/3/3
f 6/6/6 7/7/7 9/9/9
f 26/26/26 1/1/1 93/93/93
f 32/32/32 31/31/31 28/28/28
