v -972.901 664.232 -640.858
v -972.003 670.696 -646.968
v -972.003 670.696 -640.036
v -972.797 670.696 -639.35
v -1038.05 664.232 -640.126
v -973.748 664.232 -640.126
v -1045.84 690.96 -633.397
v -965.923 686.597 -633.397
v -965.964 690.96 -633.397
v -1046.69 690.96 -634.133
v -1046.69 686.597 -646.968
v -1046.69 686.597 -634.098
v -973.56 660.363 -641.441
v -971.019 662.298 -646.968
v -971.019 662.298 -639.317
v -971.966 662.298 -638.499
v -1037.38 660.363 -640.695
v -974.424 660.363 -640.695
v -971.019 662.298 -646.968
v -972.901 664.232 -640.858
v -971.019 662.298 -639.317
v -971.966 662.298 -638.499
v -1038.05 664.232 -640.126
v -1039.83 662.298 -638.499
v -965.113 690.96 -634.133
v -962.745 693.141 -646.968
v -962.745 693.141 -632.165
v -963.686 693.141 -631.352
v -1045.84 690.96 -633.397
v -965.964 690.96 -633.397
v -962.745 693.141 -646.968
v -965.113 695.323 -634.211
v -962.745 693.141 -632.165
v -963.686 693.141 -631.352
v -1045.75 695.323 -633.397
v -1048.11 693.141 -631.352
v -968.96 679.695 -637.435
v -965.113 686.597 -646.968
v -965.113 686.597 -634.098
v -965.923 686.597 -633.397
v -1042.01 679.695 -636.721
v -969.787 679.695 -636.721
v -968.96 679.695 -646.968
v -1039 670.696 -639.35
v -972.901 664.232 -640.858
v -972.797 670.696 -639.35
v -973.748 664.232 -640.126
v -1039 670.696 -639.35
v -1038.9 664.232 -640.858
v -1038.05 664.232 -640.126
v -965.113 690.96 -634.133
v -965.923 686.597 -633.397
v -965.113 686.597 -634.098
v -1046.69 690.96 -634.133
v -1045.88 686.597 -633.397
v -1045.84 690.96 -633.397
v -971.966 662.298 -638.499
v -972.901 664.232 -640.858
v -973.748 664.232 -640.126
v -1038.9 664.232 -640.858
v -1039.83 662.298 -638.499
v -1038.05 664.232 -640.126
v -971.966 662.298 -638.499
v -973.56 660.363 -641.441
v -971.019 662.298 -639.317
v -1038.24 660.363 -641.441
v -1039.83 662.298 -638.499
v -1040.78 662.298 -639.317
v -965.113 690.96 -634.133
v -963.686 693.141 -631.352
v -965.964 690.96 -633.397
v -1048.11 693.141 -631.352
v -1046.69 690.96 -634.133
v -1045.84 690.96 -633.397
v -965.113 695.323 -634.211
v -963.686 693.141 -631.352
v -962.745 693.141 -632.165
v -1048.11 693.141 -631.352
v -1046.69 695.323 -634.211
v -1049.05 693.141 -632.165
v -968.96 679.695 -637.435
v -965.923 686.597 -633.397
v -969.787 679.695 -636.721
v -1045.88 686.597 -633.397
v -1042.84 679.695 -637.435
v -1042.01 679.695 -636.721
v -972.003 670.696 -640.036
v -1039.8 670.696 -640.036
v -1045.75 695.323 -633.397
v -965.113 695.323 -646.968
v -1046.69 695.323 -634.211
v -966.054 695.323 -633.397
v -965.113 695.323 -634.211
v -1046.69 695.323 -646.968
v -1038.9 664.232 -640.858
v -1039.8 670.696 -646.968
v -1038.9 664.232 -646.968
v -965.113 690.96 -634.133
v -965.113 686.597 -646.968
v -965.113 690.96 -646.968
v -1038.24 660.363 -641.441
v -1040.78 662.298 -646.968
v -1038.24 660.363 -646.968
v -1040.78 662.298 -646.968
v -1038.9 664.232 -640.858
v -1038.9 664.232 -646.968
v -1046.69 690.96 -634.133
v -1049.05 693.141 -646.968
v -1046.69 690.96 -646.968
v -1049.05 693.141 -646.968
v -1046.69 695.323 -634.211
v -1046.69 695.323 -646.968
v -1042.84 679.695 -637.435
v -1046.69 686.597 -646.968
v -1042.84 679.695 -646.968
v -1039.8 670.696 -640.036
v -1038.24 660.363 -641.441
v -973.56 660.363 -646.968
v -973.56 660.363 -641.441
v -974.424 660.363 -640.695
v -1037.38 660.363 -640.695
v -972.901 664.232 -646.968
v -1045.88 686.597 -633.397
v -1046.69 690.96 -646.968
v -973.56 660.363 -646.968
v -1039.83 662.298 -638.499
v -972.901 664.232 -646.968
v -973.748 664.232 -640.126
v -965.113 690.96 -646.968
v -1048.11 693.141 -631.352
v -965.113 695.323 -646.968
v -966.054 695.323 -633.397
v -1045.88 686.597 -633.397
v -965.964 690.96 -633.397
v -1046.69 686.597 -634.098
v -971.019 662.298 -639.317
v -1040.78 662.298 -639.317
v -974.424 660.363 -640.695
v -1037.38 660.363 -640.695
v -962.745 693.141 -632.165
v -1049.05 693.141 -632.165
v -966.054 695.323 -633.397
v -1045.75 695.323 -633.397
v -965.113 686.597 -634.098
v -1046.69 686.597 -634.098
v -965.113 686.597 -634.098
v -1040.78 662.298 -639.317
v -1040.78 662.298 -639.317
v -1049.05 693.141 -632.165
v -1049.05 693.141 -632.165
v -1046.69 686.597 -634.098
v -1038.24 660.363 -646.968
vt 0.5504 0.8881
vt 0.5337 0.9084
vt 0.5526 0.9084
vt 0.6053 0.91
vt 0.7592 0.8897
vt 0.6076 0.8897
vt 0.7775 0.9737
vt 0.5891 0.96
vt 0.5892 0.9737
vt 0.7937 0.9733
vt 0.8287 0.9596
vt 0.7936 0.9596
vt 0.9865 0.7672
vt 0.9632 0.7791
vt 0.9959 0.7791
vt 0.0111 0.779
vt 0.2525 0.7672
vt 0.0112 0.7672
vt 0.5337 0.882
vt 0.5504 0.8881
vt 0.5546 0.882
vt 0.6034 0.8836
vt 0.7592 0.8897
vt 0.7634 0.8836
vt 0.5687 0.9721
vt 0.5337 0.979
vt 0.5741 0.979
vt 0.5839 0.9806
vt 0.7775 0.9737
vt 0.5892 0.9737
vt 0.5337 0.979
vt 0.5685 0.9859
vt 0.5741 0.979
vt 0.5839 0.9806
vt 0.7773 0.9875
vt 0.7829 0.9806
vt 0.5597 0.9367
vt 0.5337 0.9584
vt 0.5688 0.9584
vt 0.5891 0.96
vt 0.7685 0.9383
vt 0.5982 0.9383
vt 0.5337 0.9367
vt 0.7614 0.91
vt 0.605 0.8907
vt 0.6053 0.91
vt 0.6076 0.8897
vt 0.8073 0.909
vt 0.8121 0.8892
vt 0.8095 0.8902
vt 0.5867 0.9726
vt 0.5891 0.96
vt 0.5865 0.9593
vt 0.7937 0.9733
vt 0.791 0.9589
vt 0.7912 0.9721
vt 0.6034 0.8836
vt 0.605 0.8907
vt 0.6076 0.8897
vt 0.8121 0.8892
vt 0.8052 0.8857
vt 0.8095 0.8902
vt 0.0111 0.779
vt 0.0079 0.7672
vt 0.0078 0.7789
vt 0.2558 0.7672
vt 0.2524 0.779
vt 0.2559 0.779
vt 0.5867 0.9726
vt 0.5839 0.9806
vt 0.5892 0.9737
vt 0.786 0.9801
vt 0.7937 0.9733
vt 0.7912 0.9721
vt 0.5871 0.99
vt 0.5839 0.9806
vt 0.5815 0.9806
vt 0.786 0.9801
vt 0.7939 0.987
vt 0.7884 0.9801
vt 0.5957 0.9372
vt 0.5891 0.96
vt 0.5982 0.9383
vt 0.791 0.9589
vt 0.8027 0.9379
vt 0.8002 0.9367
vt 0.6028 0.9094
vt 0.8098 0.9096
vt 0.1655 0.8746
vt 0.0091 0.8976
vt 0.1674 0.876
vt 0.0109 0.8746
vt 0.0091 0.876
vt 0.1674 0.8976
vt 0.8121 0.8892
vt 0.8287 0.9096
vt 0.8287 0.8892
vt 0.5687 0.9721
vt 0.5337 0.9584
vt 0.5337 0.9721
vt 0.2558 0.7672
vt 0.2874 0.779
vt 0.2803 0.7672
vt 0.8287 0.8832
vt 0.8121 0.8892
vt 0.8287 0.8892
vt 0.7937 0.9733
vt 0.8287 0.9801
vt 0.8287 0.9733
vt 0.8287 0.9801
vt 0.7939 0.987
vt 0.8287 0.987
vt 0.8027 0.9379
vt 0.8287 0.9596
vt 0.8287 0.9379
vt 0.8098 0.9096
vt 0.2773 0.6911
vt 0.4476 0.6742
vt 0.4476 0.6911
vt 0.4453 0.6933
vt 0.2795 0.6933
vt 0.5337 0.8881
vt 0.7776 0.96
vt 0.8287 0.9733
vt 0.9619 0.7672
vt 0.2524 0.779
vt 0.5337 0.8881
vt 0.6076 0.8897
vt 0.5337 0.9721
vt 0.7829 0.9806
vt 0.5337 0.9859
vt 0.5894 0.9875
vt 0.7776 0.96
vt 0.5892 0.9737
vt 0.7936 0.9596
vt 0.6007 0.8862
vt 0.8079 0.8832
vt 0.0112 0.7672
vt 0.2525 0.7672
vt 0.5815 0.9806
vt 0.7884 0.9801
vt 0.5894 0.9875
vt 0.7916 0.9896
vt 0.5865 0.9593
vt 0.7936 0.9596
vt 0.5688 0.9584
vt 0.2559 0.779
vt 0.8079 0.8832
vt 0.7884 0.9801
vt 0.7884 0.9801
vt 0.7936 0.9596
vt 0.2773 0.6742
vn 0.9905 -0.1376 0
vn 0.9732 -0.23 0
vn 0.9705 -0.2409 0
vn 0 -0.2116 0.9774
vn 0 -0.1192 0.9929
vn 0 -0.1192 0.9929
vn 0 0 1
vn 0 0 1
vn 0 0 1
vn -1 0 0
vn -1 0 0
vn -1 0 0
vn 0.6056 -0.7958 0
vn 0.6056 -0.7958 0
vn 0.6056 -0.7958 0
vn 0 -0.7504 0.661
vn 0 -0.7504 0.661
vn 0 -0.7504 0.661
vn 0.7166 0.6975 0
vn 0.7166 0.6975 0
vn 0.7166 0.6975 0
vn 0 0.6436 0.7654
vn 0 0.6436 0.7654
vn 0 0.6436 0.7654
vn 0.6776 -0.7355 0
vn 0.6776 -0.7355 0
vn 0.6776 -0.7355 0
vn 0 -0.684 0.7295
vn 0 -0.684 0.7295
vn 0 -0.684 0.7295
vn 0.6776 0.7354 0
vn 0.6776 0.7355 0
vn 0.6776 0.7355 0
vn 0 0.684 0.7295
vn 0 0.684 0.7295
vn 0 0.684 0.7295
vn 0.9065 -0.4223 0
vn 0.8734 -0.4869 0
vn 0.8734 -0.4869 0
vn 0 -0.4339 0.9009
vn 0 -0.3765 0.9264
vn 0 -0.3765 0.9264
vn 0.9142 -0.4053 0
vn 0 -0.2116 0.9774
vn 0.6426 -0.1838 0.7438
vn 0.6254 -0.292 0.7236
vn 0.6426 -0.1838 0.7438
vn -0.6253 -0.292 0.7237
vn -0.6424 -0.1839 0.744
vn -0.6423 -0.1839 0.744
vn 0.6537 0.0061 0.7567
vn 0.6538 0.0061 0.7566
vn 0.6538 0.0061 0.7566
vn -0.6536 0.0062 0.7568
vn -0.6538 0.0061 0.7566
vn -0.6536 0.0062 0.7568
vn 0.4106 0.7781 0.4753
vn 0.4106 0.7782 0.4753
vn 0.4106 0.7782 0.4752
vn -0.4105 0.7782 0.4753
vn -0.4106 0.7781 0.4753
vn -0.4104 0.7782 0.4753
vn 0.3329 -0.8606 0.3853
vn 0.333 -0.8606 0.3854
vn 0.3329 -0.8606 0.3853
vn -0.3329 -0.8606 0.3853
vn -0.3329 -0.8606 0.3854
vn -0.3329 -0.8606 0.3854
vn 0.3814 -0.8122 0.4415
vn 0.3813 -0.8122 0.4415
vn 0.3814 -0.8122 0.4415
vn -0.3814 -0.8122 0.4414
vn -0.3813 -0.8122 0.4415
vn -0.3813 -0.8122 0.4415
vn 0.3766 0.8174 0.4359
vn 0.3766 0.8174 0.4359
vn 0.3766 0.8174 0.4359
vn -0.3767 0.8174 0.4359
vn -0.3766 0.8174 0.4359
vn -0.3767 0.8174 0.4359
vn 0.5649 -0.5035 0.6538
vn 0.528 -0.5898 0.611
vn 0.5682 -0.4948 0.6576
vn -0.528 -0.5899 0.611
vn -0.5649 -0.5035 0.6538
vn -0.5682 -0.4947 0.6576
vn 0.6242 -0.298 0.7222
vn -0.6241 -0.298 0.7223
vn 0 1 0
vn 0 1 0
vn 0 1 0
vn 0 1 0
vn 0 1 0
vn 0 1 0
vn -0.9905 -0.1377 0
vn -0.9732 -0.23 0
vn -0.9905 -0.1377 0
vn 1 0 0
vn 1 0 0
vn 1 0 0
vn -0.6055 -0.7958 0
vn -0.6055 -0.7958 0
vn -0.6055 -0.7958 0.0001
vn -0.7166 0.6975 0
vn -0.7166 0.6975 0
vn -0.7166 0.6975 0
vn -0.6777 -0.7354 0
vn -0.6776 -0.7354 0
vn -0.6776 -0.7354 0
vn -0.6777 0.7354 0
vn -0.6776 0.7354 0
vn -0.6777 0.7354 0
vn -0.9065 -0.4223 0
vn -0.8734 -0.487 0
vn -0.9142 -0.4053 0
vn -0.9705 -0.2409 0
vn 0 -1 -0.0001
vn 0 -1 0
vn 0 -1 0
vn 0 -1 0.0001
vn 0 -1 -0.0002
vn 0.9905 -0.1376 0
vn 0 0 1
vn -1 0 0
vn 0.6056 -0.7958 0
vn 0 -0.7504 0.661
vn 0.7166 0.6975 0
vn 0 0.6436 0.7654
vn 0.6776 -0.7355 0
vn 0 -0.684 0.7295
vn 0.6776 0.7354 0
vn 0 0.684 0.7295
vn 0 -0.4339 0.9009
vn 0.6537 0.0061 0.7567
vn -0.6538 0.0061 0.7566
vn 0.4106 0.7781 0.4753
vn -0.4106 0.7781 0.4753
vn 0.333 -0.8606 0.3854
vn -0.333 -0.8606 0.3853
vn 0.3813 -0.8122 0.4415
vn -0.3815 -0.8122 0.4414
vn 0.3766 0.8174 0.4358
vn -0.3765 0.8174 0.4359
vn 0.528 -0.5898 0.611
vn -0.528 -0.5899 0.611
vn 1 0 0
vn -0.6055 -0.7959 0
vn -0.7166 0.6975 0
vn -0.6777 -0.7354 0
vn -0.6776 0.7354 0
vn -0.8734 -0.487 0
vn 0 -1 0
f 1/1/1 2/2/2 3/3/3
f 4/4/4 5/5/5 6/6/6
f 7/7/7 8/8/8 9/9/9
f 10/10/10 11/11/11 12/12/12
f 13/13/13 14/14/14 15/15/15
f 16/16/16 17/17/17 18/18/18
f 19/19/19 20/20/20 21/21/21
f 22/22/22 23/23/23 24/24/24
f 25/25/25 26/26/26 27/27/27
f 28/28/28 29/29/29 30/30/30
f 31/31/31 32/32/32 33/33/33
f 34/34/34 35/35/35 36/36/36
f 37/37/37 38/38/38 39/39/39
f 40/40/40 41/41/41 42/42/42
f 3/3/3 43/43/43 37/37/37
f 4/4/4 41/41/41 44/44/44
f 45/45/45 46/46/46 47/47/47
f 48/48/48 49/49/49 50/50/50
f 51/51/51 52/52/52 53/53/53
f 54/54/54 55/55/55 56/56/56
f 57/57/57 58/58/58 59/59/59
f 60/60/60 61/61/61 62/62/62
f 63/63/63 64/64/64 65/65/65
f 66/66/66 67/67/67 68/68/68
f 69/69/69 70/70/70 71/71/71
f 72/72/72 73/73/73 74/74/74
f 75/75/75 76/76/76 77/77/77
f 78/78/78 79/79/79 80/80/80
f 81/81/81 82/82/82 83/83/83
f 84/84/84 85/85/85 86/86/86
f 87/87/87 83/83/83 46/46/46
f 86/86/86 88/88/88 48/48/48
f 89/89/89 90/90/90 91/91/91
f 92/92/92 93/93/93 90/90/90
f 94/94/94 91/91/91 90/90/90
f 95/95/95 96/96/96 97/97/97
f 98/98/98 99/99/99 100/100/100
f 101/101/101 102/102/102 103/103/103
f 104/104/104 105/105/105 106/106/106
f 107/107/107 108/108/108 109/109/109
f 110/110/110 111/111/111 112/112/112
f 113/113/113 114/114/114 115/115/115
f 116/116/116 115/115/115 96/96/96
f 117/117/117 118/118/118 119/119/119
f 117/117/117 120/120/120 121/121/121
f 1/1/1 122/122/122 2/2/2
f 4/4/4 44/44/44 5/5/5
f 7/7/7 123/123/123 8/8/8
f 10/10/10 124/124/124 11/11/11
f 13/13/13 125/125/125 14/14/14
f 16/16/16 126/126/126 17/17/17
f 19/19/19 127/127/127 20/20/20
f 22/22/22 128/128/128 23/23/23
f 25/25/25 129/129/129 26/26/26
f 28/28/28 130/130/130 29/29/29
f 31/31/31 131/131/131 32/32/32
f 34/34/34 132/132/132 35/35/35
f 37/37/37 43/43/43 38/38/38
f 40/40/40 133/133/133 41/41/41
f 3/3/3 2/2/2 43/43/43
f 4/4/4 42/42/42 41/41/41
f 45/45/45 87/87/87 46/46/46
f 48/48/48 88/88/88 49/49/49
f 51/51/51 134/134/134 52/52/52
f 54/54/54 135/135/135 55/55/55
f 57/57/57 136/136/136 58/58/58
f 60/60/60 137/137/137 61/61/61
f 63/63/63 138/138/138 64/64/64
f 66/66/66 139/139/139 67/67/67
f 69/69/69 140/140/140 70/70/70
f 72/72/72 141/141/141 73/73/73
f 75/75/75 142/142/142 76/76/76
f 78/78/78 143/143/143 79/79/79
f 81/81/81 144/144/144 82/82/82
f 84/84/84 145/145/145 85/85/85
f 87/87/87 81/81/81 83/83/83
f 86/86/86 85/85/85 88/88/88
f 89/89/89 92/92/92 90/90/90
f 95/95/95 116/116/116 96/96/96
f 98/98/98 146/146/146 99/99/99
f 101/101/101 147/147/147 102/102/102
f 104/104/104 148/148/148 105/105/105
f 107/107/107 149/149/149 108/108/108
f 110/110/110 150/150/150 111/111/111
f 113/113/113 151/151/151 114/114/114
f 116/116/116 113/113/113 115/115/115
f 117/117/117 152/152/152 118/118/118
f 117/117/117 119/119/119 120/120/120
