v 507.214 1261.49 197.768
v 503.449 1260.48 182.271
v 507.214 1261.49 182.271
v 503.449 1260.48 197.768
v 500.693 1257.72 182.271
v 500.693 1257.72 197.768
v 499.684 1253.96 182.271
v 499.684 1253.96 197.768
v 500.346 1251.49 182.271
v 494.112 1251.14 197.768
v 491.357 1248.39 182.271
v 494.112 1251.14 182.271
v 497.877 1252.15 197.768
v 497.877 1252.15 182.271
v 500.346 1251.49 197.768
v 500.346 1251.49 182.271
v 510.979 1260.48 197.768
v 510.979 1260.48 182.271
v 513.735 1257.72 197.768
v 513.735 1257.72 182.271
v 514.744 1253.96 197.768
v 514.744 1253.96 182.271
v 514.082 1251.49 197.768
v 514.082 1251.49 182.271
v 524.042 1244.76 197.768
v 523.072 1248.39 182.271
v 524.042 1244.76 182.271
v 523.072 1248.39 197.768
v 520.316 1251.14 182.271
v 520.316 1251.14 197.768
v 516.552 1252.15 182.271
v 516.552 1252.15 197.768
v 514.082 1251.49 182.271
v 491.357 1248.39 197.768
v 490.386 1244.76 182.271
v 503.449 1229.05 197.768
v 507.214 1228.04 182.271
v 503.449 1229.05 182.271
v 500.693 1231.8 197.768
v 500.693 1231.8 182.271
v 499.684 1235.57 197.768
v 499.684 1235.57 182.271
v 500.346 1238.04 197.768
v 499.684 1235.57 182.271
v 500.346 1238.04 182.271
v 491.357 1241.14 197.768
v 494.112 1238.39 182.271
v 491.357 1241.14 182.271
v 494.112 1238.39 197.768
v 497.877 1237.38 182.271
v 497.877 1237.38 197.768
v 500.346 1238.04 182.271
v 510.979 1229.05 197.768
v 510.979 1229.05 182.271
v 513.735 1231.8 182.271
v 513.735 1231.8 197.768
v 514.744 1235.57 182.271
v 514.744 1235.57 197.768
v 514.082 1238.04 182.271
v 520.316 1238.39 197.768
v 523.072 1241.14 182.271
v 520.316 1238.39 182.271
v 516.552 1237.38 197.768
v 516.552 1237.38 182.271
v 514.082 1238.04 197.768
v 514.082 1238.04 182.271
v 490.386 1244.76 197.768
v 523.072 1241.14 197.768
v 520.316 1238.39 182.271
v 523.897 1238.71 182.271
v 520.146 1232.58 182.271
v 516.552 1237.38 182.271
v 514.267 1228.44 182.271
v 524.042 1244.76 182.271
v 523.072 1241.14 182.271
v 524.901 1245.83 182.271
v 523.072 1248.39 182.271
v 523.244 1252.25 182.271
v 520.316 1251.14 182.271
v 519.342 1257.61 182.271
v 516.552 1252.15 182.271
v 513.741 1261.16 182.271
v 513.735 1257.72 182.271
v 510.979 1260.48 182.271
v 507.228 1262.4 182.271
v 503.449 1260.48 182.271
v 507.214 1261.49 182.271
v 500.714 1261.16 182.271
v 500.693 1257.72 182.271
v 495.114 1257.61 182.271
v 499.684 1253.96 182.271
v 491.212 1252.25 182.271
v 497.877 1252.15 182.271
v 491.357 1248.39 182.271
v 489.555 1245.83 182.271
v 490.386 1244.76 182.271
v 490.559 1238.71 182.271
v 494.112 1238.39 182.271
v 494.309 1232.58 182.271
v 497.877 1237.38 182.271
v 500.189 1228.44 182.271
v 500.693 1231.8 182.271
v 503.449 1229.05 182.271
v 507.228 1226.98 182.271
v 510.979 1229.05 182.271
v 513.735 1231.8 182.271
v 500.346 1251.49 182.271
v 494.112 1251.14 182.271
v 514.082 1251.49 182.271
v 514.744 1253.96 182.271
v 507.214 1228.04 182.271
v 500.346 1238.04 182.271
v 499.684 1235.57 182.271
v 514.744 1235.57 182.271
v 514.082 1238.04 182.271
v 500.346 1251.49 197.768
v 514.082 1251.49 197.768
v 507.214 1228.04 197.768
v 499.684 1235.57 197.768
v 500.346 1238.04 197.768
v 514.082 1238.04 197.768
v 491.357 1241.14 182.271
vt 0.8159 0.5948
vt 0.9551 0.6286
vt 0.9551 0.5948
vt 0.8159 0.6286
vt 0.9551 0.6533
vt 0.8159 0.6533
vt 0.9551 0.6871
vt 0.8159 0.6871
vt 0.9551 0.7093
vt 0.8159 0.7626
vt 0.9551 0.7976
vt 0.9551 0.7626
vt 0.8159 0.7323
vt 0.9551 0.7323
vt 0.8159 0.7093
vt 0.9551 0.7093
vt 0.8159 0.5609
vt 0.9551 0.5609
vt 0.8159 0.5362
vt 0.9551 0.5362
vt 0.8159 0.5024
vt 0.9551 0.5024
vt 0.8159 0.4802
vt 0.9551 0.4802
vt 0.8159 0.3613
vt 0.9551 0.395
vt 0.9551 0.3613
vt 0.8159 0.395
vt 0.9551 0.4253
vt 0.8159 0.4253
vt 0.9551 0.4603
vt 0.8159 0.4603
vt 0.9551 0.4802
vt 0.8159 0.7976
vt 0.9551 0.8268
vt 0.8159 0.0879
vt 0.9551 0.1217
vt 0.9551 0.0879
vt 0.8159 0.0529
vt 0.9551 0.0529
vt 0.8159 0.0226
vt 0.9551 0.0226
vt 0.8159 0.9442
vt 0.9551 0.9672
vt 0.9551 0.9442
vt 0.8159 0.856
vt 0.9551 0.891
vt 0.9551 0.856
vt 0.8159 0.891
vt 0.9551 0.9213
vt 0.8159 0.9213
vt 0.9551 0.9442
vt 0.8159 0.1556
vt 0.9551 0.1556
vt 0.9551 0.1906
vt 0.8159 0.1906
vt 0.9551 0.2209
vt 0.8159 0.2209
vt 0.9551 0.2438
vt 0.8159 0.2971
vt 0.9551 0.3321
vt 0.9551 0.2971
vt 0.8159 0.2668
vt 0.9551 0.2668
vt 0.8159 0.2438
vt 0.9551 0.2438
vt 0.8159 0.8268
vt 0.8159 0.3321
vt 0.5804 0.6036
vt 0.5524 0.6197
vt 0.6117 0.6454
vt 0.6133 0.5916
vt 0.6762 0.6454
vt 0.5201 0.576
vt 0.546 0.5976
vt 0.5083 0.5726
vt 0.5085 0.5443
vt 0.4873 0.5168
vt 0.5146 0.5098
vt 0.4883 0.4573
vt 0.537 0.483
vt 0.5111 0.4022
vt 0.5289 0.4275
vt 0.5349 0.393
vt 0.5526 0.3595
vt 0.5903 0.3541
vt 0.5574 0.3662
vt 0.6068 0.335
vt 0.6248 0.3601
vt 0.6663 0.3321
vt 0.6516 0.3826
vt 0.7227 0.3514
vt 0.6742 0.3865
vt 0.7416 0.3805
vt 0.768 0.39
vt 0.7674 0.4021
vt 0.7974 0.4475
vt 0.773 0.4682
vt 0.8015 0.5119
vt 0.7506 0.4951
vt 0.7797 0.5727
vt 0.7586 0.5506
vt 0.7526 0.5851
vt 0.7355 0.6198
vt 0.6973 0.624
vt 0.6628 0.618
vt 0.6595 0.4042
vt 0.7071 0.3745
vt 0.5586 0.4751
vt 0.541 0.4604
vt 0.7302 0.6119
vt 0.729 0.503
vt 0.7466 0.5177
vt 0.6359 0.5955
vt 0.628 0.5739
vt 0.8159 0.7093
vt 0.8159 0.4802
vt 0.8159 0.1217
vt 0.8159 0.9672
vt 0.8159 0.9442
vt 0.8159 0.2438
vt 0.779 0.4338
vn -0 -1 -0
vn 0.5 -0.8661 0
vn -0 -1 -0
vn 0.5 -0.8661 0
vn 0.866 -0.5 0
vn 0.866 -0.5 0
vn 1 0 0
vn 1 0 0
vn 0.9659 0.2588 0
vn 0.5 -0.866 0
vn 0.866 -0.5 0
vn 0.5 -0.866 0
vn -0 -1 -0
vn -0 -1 -0
vn -0.2588 -0.9659 0
vn -0.2588 -0.9659 0
vn -0.5 -0.866 -0
vn -0.5 -0.866 -0
vn -0.866 -0.5 0
vn -0.866 -0.5 0
vn -1 0 0
vn -1 0 0
vn -0.9659 0.2588 0
vn -0.9659 0.2588 0
vn -1 0 0
vn -0.866 -0.5 0
vn -1 0 0
vn -0.866 -0.5 0
vn -0.5 -0.866 -0
vn -0.5 -0.866 -0
vn -0 -1 -0
vn -0 -1 -0
vn 0.2588 -0.9659 0
vn 0.866 -0.5 0
vn 1 0 0
vn 0.5 0.8661 0
vn -0 1 0
vn 0.5 0.8661 0
vn 0.866 0.5 0
vn 0.866 0.5 0
vn 1 0 0
vn 1 0 0
vn 0.9659 -0.2588 0
vn 1 0 0
vn 0.9659 -0.2588 0
vn 0.866 0.5 0
vn 0.5 0.866 0
vn 0.866 0.5 0
vn 0.5 0.866 0
vn -0 1 0
vn -0 1 0
vn -0.2588 0.9659 0
vn -0.5 0.8661 0
vn -0.5 0.866 0
vn -0.866 0.5 0
vn -0.866 0.5 0
vn -1 0 0
vn -1 0 0
vn -0.9659 -0.2588 0
vn -0.5 0.866 0
vn -0.866 0.5 0
vn -0.5 0.866 0
vn -0 1 0
vn -0 1 0
vn 0.2588 0.9659 0
vn 0.2588 0.9659 0
vn 1 0 0
vn -0.866 0.5 0
vn 0 0 -1
vn 0 0 -1
vn 0 0 -1
vn 0 0 -1
vn 0 0 -1
vn 0 0 -1
vn 0 0 -1
vn 0 0 -1
vn 0 0 -1
vn 0 0 -1
vn 0 0 -1
vn 0 0 -1
vn 0 0 -1
vn 0 0 -1
vn 0 0 -1
vn 0 0 -1
vn 0 0 -1
vn 0 0 -1
vn 0 0 -1
vn 0 0 -1
vn 0 0 -1
vn 0 0 -1
vn 0 0 -1
vn 0 0 -1
vn 0 0 -1
vn 0 0 -1
vn 0 0 -1
vn 0 0 -1
vn 0 0 -1
vn 0 0 -1
vn 0 0 -1
vn 0 0 -1
vn 0 0 -1
vn 0 0 -1
vn 0 0 -1
vn 0 0 -1
vn 0 0 -1
vn 0 0 -1
vn 0 0 -1
vn 0 0 -1
vn 0 0 -1
vn 0 0 -1
vn 0 0 -1
vn 0 0 -1
vn 0 0 -1
vn 0 0 -1
vn 0 0 -1
vn 0.9659 0.2588 0
vn 0.2588 -0.9659 0
vn -0 1 0
vn 1 0 0
vn -0.2588 0.9659 0
vn -0.9659 -0.2588 0
vn 0 0 -1
f 1/1/1 2/2/2 3/3/3
f 4/4/4 5/5/5 2/2/2
f 6/6/6 7/7/7 5/5/5
f 8/8/8 9/9/9 7/7/7
f 10/10/10 11/11/11 12/12/12
f 13/13/13 12/12/12 14/14/14
f 15/15/15 14/14/14 16/16/16
f 17/17/17 3/3/3 18/18/18
f 19/19/19 18/18/18 20/20/20
f 21/21/21 20/20/20 22/22/22
f 23/23/23 22/22/22 24/24/24
f 25/25/25 26/26/26 27/27/27
f 28/28/28 29/29/29 26/26/26
f 30/30/30 31/31/31 29/29/29
f 32/32/32 33/33/33 31/31/31
f 34/34/34 35/35/35 11/11/11
f 36/36/36 37/37/37 38/38/38
f 39/39/39 38/38/38 40/40/40
f 41/41/41 40/40/40 42/42/42
f 43/43/43 44/44/44 45/45/45
f 46/46/46 47/47/47 48/48/48
f 49/49/49 50/50/50 47/47/47
f 51/51/51 52/52/52 50/50/50
f 37/37/37 53/53/53 54/54/54
f 53/53/53 55/55/55 54/54/54
f 56/56/56 57/57/57 55/55/55
f 58/58/58 59/59/59 57/57/57
f 60/60/60 61/61/61 62/62/62
f 63/63/63 62/62/62 64/64/64
f 65/65/65 64/64/64 66/66/66
f 67/67/67 48/48/48 35/35/35
f 68/68/68 27/27/27 61/61/61
f 69/69/69 70/70/70 71/71/71
f 72/72/72 71/71/71 73/73/73
f 74/74/74 70/70/70 75/75/75
f 76/76/76 77/77/77 78/78/78
f 78/78/78 79/79/79 80/80/80
f 80/80/80 81/81/81 82/82/82
f 81/81/81 83/83/83 82/82/82
f 82/82/82 84/84/84 85/85/85
f 86/86/86 85/85/85 87/87/87
f 88/88/88 89/89/89 90/90/90
f 90/90/90 91/91/91 92/92/92
f 93/93/93 92/92/92 91/91/91
f 94/94/94 95/95/95 92/92/92
f 96/96/96 97/97/97 95/95/95
f 97/97/97 98/98/98 99/99/99
f 99/99/99 100/100/100 101/101/101
f 100/100/100 102/102/102 101/101/101
f 103/103/103 101/101/101 102/102/102
f 104/104/104 105/105/105 73/73/73
f 106/106/106 72/72/72 73/73/73
f 91/91/91 107/107/107 93/93/93
f 108/108/108 94/94/94 92/92/92
f 84/84/84 87/87/87 85/85/85
f 109/109/109 110/110/110 81/81/81
f 103/103/103 111/111/111 104/104/104
f 112/112/112 113/113/113 100/100/100
f 105/105/105 106/106/106 73/73/73
f 114/114/114 115/115/115 72/72/72
f 1/1/1 4/4/4 2/2/2
f 4/4/4 6/6/6 5/5/5
f 6/6/6 8/8/8 7/7/7
f 8/8/8 116/116/116 9/9/9
f 10/10/10 34/34/34 11/11/11
f 13/13/13 10/10/10 12/12/12
f 15/15/15 13/13/13 14/14/14
f 17/17/17 1/1/1 3/3/3
f 19/19/19 17/17/17 18/18/18
f 21/21/21 19/19/19 20/20/20
f 23/23/23 21/21/21 22/22/22
f 25/25/25 28/28/28 26/26/26
f 28/28/28 30/30/30 29/29/29
f 30/30/30 32/32/32 31/31/31
f 32/32/32 117/117/117 33/33/33
f 34/34/34 67/67/67 35/35/35
f 36/36/36 118/118/118 37/37/37
f 39/39/39 36/36/36 38/38/38
f 41/41/41 39/39/39 40/40/40
f 43/43/43 119/119/119 44/44/44
f 46/46/46 49/49/49 47/47/47
f 49/49/49 51/51/51 50/50/50
f 51/51/51 120/120/120 52/52/52
f 37/37/37 118/118/118 53/53/53
f 53/53/53 56/56/56 55/55/55
f 56/56/56 58/58/58 57/57/57
f 58/58/58 121/121/121 59/59/59
f 60/60/60 68/68/68 61/61/61
f 63/63/63 60/60/60 62/62/62
f 65/65/65 63/63/63 64/64/64
f 67/67/67 46/46/46 48/48/48
f 68/68/68 25/25/25 27/27/27
f 69/69/69 75/75/75 70/70/70
f 72/72/72 69/69/69 71/71/71
f 74/74/74 76/76/76 70/70/70
f 76/76/76 74/74/74 77/77/77
f 78/78/78 77/77/77 79/79/79
f 80/80/80 79/79/79 81/81/81
f 81/81/81 110/110/110 83/83/83
f 82/82/82 83/83/83 84/84/84
f 86/86/86 88/88/88 85/85/85
f 88/88/88 86/86/86 89/89/89
f 90/90/90 89/89/89 91/91/91
f 93/93/93 108/108/108 92/92/92
f 94/94/94 96/96/96 95/95/95
f 96/96/96 122/122/122 97/97/97
f 97/97/97 122/122/122 98/98/98
f 99/99/99 98/98/98 100/100/100
f 100/100/100 113/113/113 102/102/102
f 103/103/103 104/104/104 101/101/101
f 104/104/104 111/111/111 105/105/105
f 106/106/106 114/114/114 72/72/72
