v -972.901 664.232 569.378
v -972.003 670.696 575.488
v -972.901 664.232 575.488
v -972.797 670.696 567.87
v -1038.05 664.232 568.646
v -1039 670.696 567.87
v -1045.84 690.96 561.918
v -965.923 686.596 561.918
v -1045.88 686.596 561.918
v -1046.69 686.596 575.488
v -1046.69 690.959 562.653
v -1046.69 686.596 562.618
v -973.56 660.363 569.962
v -971.019 662.297 575.488
v -973.56 660.363 575.488
v -971.966 662.297 567.02
v -1037.38 660.363 569.216
v -1039.83 662.297 567.02
v -972.901 664.232 569.378
v -971.019 662.297 575.488
v -971.019 662.297 567.838
v -1038.05 664.232 568.646
v -971.966 662.297 567.02
v -1039.83 662.297 567.02
v -965.113 690.959 562.653
v -962.745 693.141 575.488
v -965.113 690.959 575.488
v -963.686 693.141 559.872
v -1045.84 690.96 561.918
v -1048.11 693.141 559.872
v -965.113 695.323 562.731
v -962.745 693.141 575.488
v -962.745 693.141 560.686
v -1045.75 695.323 561.918
v -963.686 693.141 559.872
v -1048.11 693.141 559.872
v -968.96 679.695 565.956
v -965.113 686.596 575.488
v -968.96 679.695 575.488
v -965.923 686.596 561.918
v -1042.01 679.695 565.242
v -1045.88 686.596 561.918
v -972.003 670.696 568.556
v -972.901 664.232 569.378
v -972.797 670.696 567.87
v -972.003 670.696 568.556
v -1038.9 664.232 569.378
v -1039 670.696 567.87
v -1038.05 664.232 568.646
v -965.923 686.596 561.918
v -965.113 690.959 562.653
v -965.113 686.596 562.618
v -1046.69 690.959 562.653
v -1045.88 686.596 561.918
v -1046.69 686.596 562.618
v -972.901 664.232 569.378
v -971.966 662.297 567.02
v -973.748 664.232 568.646
v -1038.9 664.232 569.378
v -1039.83 662.297 567.02
v -1040.78 662.297 567.838
v -971.966 662.297 567.02
v -973.56 660.363 569.962
v -974.424 660.363 569.216
v -1039.83 662.297 567.02
v -1038.24 660.363 569.962
v -1040.78 662.297 567.838
v -965.113 690.959 562.653
v -963.686 693.141 559.872
v -962.745 693.141 560.686
v -1046.69 690.959 562.653
v -1048.11 693.141 559.872
v -1045.84 690.96 561.918
v -963.686 693.141 559.872
v -965.113 695.323 562.731
v -962.745 693.141 560.686
v -1048.11 693.141 559.872
v -1046.69 695.323 562.731
v -1045.75 695.323 561.918
v -968.96 679.695 565.956
v -965.923 686.596 561.918
v -965.113 686.596 562.618
v -1042.84 679.695 565.956
v -1045.88 686.596 561.918
v -1042.01 679.695 565.242
v -969.787 679.695 565.242
v -1039.8 670.696 568.556
v -965.113 695.323 575.488
v -966.054 695.323 561.918
v -1046.69 695.323 562.731
v -1045.75 695.323 561.918
v -1046.69 695.323 575.488
v -1039.8 670.696 575.488
v -1038.9 664.232 569.378
v -1038.9 664.232 575.488
v -965.113 686.596 575.488
v -965.113 690.959 562.653
v -965.113 690.959 575.488
v -1040.78 662.297 575.488
v -1038.24 660.363 569.962
v -1038.24 660.363 575.488
v -1040.78 662.297 575.488
v -1038.9 664.232 569.378
v -1040.78 662.297 567.838
v -1049.05 693.141 575.488
v -1046.69 690.959 562.653
v -1046.69 690.959 575.488
v -1049.05 693.141 575.488
v -1046.69 695.323 562.731
v -1049.05 693.141 560.686
v -1046.69 686.596 575.488
v -1042.84 679.695 565.956
v -1042.84 679.695 575.488
v -1039.8 670.696 568.556
v -1038.24 660.363 569.962
v -973.56 660.363 575.488
v -1038.24 660.363 575.488
v -974.424 660.363 569.216
v -1037.38 660.363 569.216
v -973.748 664.232 568.646
v -965.964 690.96 561.918
v -1046.69 690.959 575.488
v -971.019 662.297 567.838
v -974.424 660.363 569.216
v -972.901 664.232 575.488
v -973.748 664.232 568.646
v -962.745 693.141 560.686
v -965.964 690.96 561.918
v -965.113 695.323 575.488
v -966.054 695.323 561.918
v -965.113 686.596 562.618
v -969.787 679.695 565.242
v -973.748 664.232 568.646
v -965.964 690.96 561.918
v -1045.84 690.96 561.918
v -971.019 662.297 567.838
v -1038.05 664.232 568.646
v -971.019 662.297 567.838
v -1037.38 660.363 569.216
v -965.964 690.96 561.918
v -1049.05 693.141 560.686
v -966.054 695.323 561.918
v -1049.05 693.141 560.686
v -1046.69 686.596 562.618
v -965.113 695.323 562.731
v -965.113 686.596 562.618
v -1040.78 662.297 567.838
v -1038.9 664.232 575.488
v -1049.05 693.141 560.686
v -1046.69 695.323 575.488
v -1046.69 686.596 562.618
v -973.56 660.363 569.962
vt 0.5504 0.8881
vt 0.5337 0.9084
vt 0.5337 0.8881
vt 0.6053 0.91
vt 0.7592 0.8897
vt 0.7614 0.91
vt 0.7775 0.9737
vt 0.5891 0.96
vt 0.7776 0.96
vt 0.8287 0.9596
vt 0.7937 0.9733
vt 0.7936 0.9596
vt 0.9865 0.7672
vt 0.9632 0.7791
vt 0.9619 0.7672
vt 0.0111 0.779
vt 0.2525 0.7672
vt 0.2524 0.779
vt 0.5504 0.8881
vt 0.5337 0.882
vt 0.5546 0.882
vt 0.7592 0.8897
vt 0.6034 0.8836
vt 0.7634 0.8836
vt 0.5687 0.9721
vt 0.5337 0.979
vt 0.5337 0.9721
vt 0.5839 0.9806
vt 0.7775 0.9737
vt 0.7829 0.9806
vt 0.5685 0.9859
vt 0.5337 0.979
vt 0.5741 0.979
vt 0.7773 0.9875
vt 0.5839 0.9806
vt 0.7829 0.9806
vt 0.5597 0.9367
vt 0.5337 0.9584
vt 0.5337 0.9367
vt 0.5891 0.96
vt 0.7685 0.9383
vt 0.7776 0.96
vt 0.5526 0.9084
vt 0.605 0.8907
vt 0.6053 0.91
vt 0.6028 0.9094
vt 0.8121 0.8892
vt 0.8073 0.909
vt 0.8095 0.8902
vt 0.5891 0.96
vt 0.5867 0.9726
vt 0.5865 0.9593
vt 0.7937 0.9733
vt 0.791 0.9589
vt 0.7936 0.9596
vt 0.605 0.8907
vt 0.6034 0.8836
vt 0.6076 0.8897
vt 0.8121 0.8892
vt 0.8052 0.8857
vt 0.8079 0.8832
vt 0.0111 0.779
vt 0.0079 0.7672
vt 0.0112 0.7672
vt 0.2524 0.779
vt 0.2558 0.7672
vt 0.2559 0.779
vt 0.5867 0.9726
vt 0.5839 0.9806
vt 0.5815 0.9806
vt 0.7937 0.9733
vt 0.786 0.9801
vt 0.7912 0.9721
vt 0.5839 0.9806
vt 0.5871 0.99
vt 0.5815 0.9806
vt 0.786 0.9801
vt 0.7939 0.987
vt 0.7916 0.9896
vt 0.5957 0.9372
vt 0.5891 0.96
vt 0.5865 0.9593
vt 0.8027 0.9379
vt 0.791 0.9589
vt 0.8002 0.9367
vt 0.5982 0.9383
vt 0.8098 0.9096
vt 0.0091 0.8976
vt 0.0109 0.8746
vt 0.1674 0.876
vt 0.1655 0.8746
vt 0.1674 0.8976
vt 0.8287 0.9096
vt 0.8121 0.8892
vt 0.8287 0.8892
vt 0.5337 0.9584
vt 0.5687 0.9721
vt 0.5337 0.9721
vt 0.2874 0.779
vt 0.2558 0.7672
vt 0.2803 0.7672
vt 0.8287 0.8832
vt 0.8121 0.8892
vt 0.8079 0.8832
vt 0.8287 0.9801
vt 0.7937 0.9733
vt 0.8287 0.9733
vt 0.8287 0.9801
vt 0.7939 0.987
vt 0.7884 0.9801
vt 0.8287 0.9596
vt 0.8027 0.9379
vt 0.8287 0.9379
vt 0.8098 0.9096
vt 0.2773 0.6911
vt 0.4476 0.6742
vt 0.2773 0.6742
vt 0.4453 0.6933
vt 0.2795 0.6933
vt 0.6076 0.8897
vt 0.5892 0.9737
vt 0.8287 0.9733
vt 0.9959 0.7791
vt 0.0112 0.7672
vt 0.5337 0.8881
vt 0.6076 0.8897
vt 0.5741 0.979
vt 0.5892 0.9737
vt 0.5337 0.9859
vt 0.5894 0.9875
vt 0.5688 0.9584
vt 0.5982 0.9383
vt 0.6076 0.8897
vt 0.5892 0.9737
vt 0.7912 0.9721
vt 0.6007 0.8862
vt 0.8095 0.8902
vt 0.0078 0.7789
vt 0.2525 0.7672
vt 0.5892 0.9737
vt 0.7884 0.9801
vt 0.5894 0.9875
vt 0.7884 0.9801
vt 0.7936 0.9596
vt 0.0091 0.876
vt 0.5688 0.9584
vt 0.2559 0.779
vt 0.8287 0.8892
vt 0.7884 0.9801
vt 0.8287 0.987
vt 0.7936 0.9596
vt 0.4476 0.6911
vn 0.9905 -0.1376 0
vn 0.9732 -0.23 0
vn 0.9905 -0.1376 0
vn 0 -0.2116 -0.9774
vn 0 -0.1192 -0.9929
vn 0 -0.2116 -0.9774
vn 0 0 -1
vn 0 0 -1
vn 0 0 -1
vn -1 -0 0
vn -1 -0 0
vn -1 -0 0
vn 0.6056 -0.7958 0
vn 0.6056 -0.7958 0
vn 0.6056 -0.7958 0
vn 0 -0.7504 -0.661
vn 0 -0.7504 -0.661
vn 0 -0.7504 -0.661
vn 0.7166 0.6975 0
vn 0.7166 0.6975 0
vn 0.7166 0.6975 0
vn 0 0.6436 -0.7654
vn 0 0.6436 -0.7654
vn 0 0.6436 -0.7654
vn 0.6776 -0.7355 -0
vn 0.6776 -0.7354 -0
vn 0.6776 -0.7354 -0
vn 0 -0.684 -0.7295
vn 0 -0.684 -0.7295
vn 0 -0.684 -0.7295
vn 0.6776 0.7355 0
vn 0.6776 0.7354 0
vn 0.6776 0.7355 0
vn 0 0.684 -0.7295
vn 0 0.684 -0.7295
vn 0 0.684 -0.7295
vn 0.9065 -0.4223 0
vn 0.8734 -0.4869 0
vn 0.9142 -0.4053 0
vn 0 -0.4339 -0.9009
vn 0 -0.3765 -0.9264
vn 0 -0.4339 -0.9009
vn 0.9705 -0.2409 0
vn 0.6427 -0.1838 -0.7437
vn 0.6253 -0.292 -0.7237
vn 0.6241 -0.298 -0.7223
vn -0.6425 -0.1839 -0.7439
vn -0.6252 -0.292 -0.7238
vn -0.6425 -0.1839 -0.7439
vn 0.6538 0.0061 -0.7566
vn 0.6537 0.0061 -0.7567
vn 0.6538 0.0061 -0.7566
vn -0.6536 0.0062 -0.7568
vn -0.6538 0.0061 -0.7566
vn -0.6539 0.0061 -0.7566
vn 0.4106 0.7781 -0.4753
vn 0.4106 0.7782 -0.4752
vn 0.4106 0.7781 -0.4753
vn -0.4105 0.7782 -0.4754
vn -0.4106 0.7782 -0.4753
vn -0.4106 0.7782 -0.4752
vn 0.3329 -0.8606 -0.3854
vn 0.3329 -0.8606 -0.3854
vn 0.3329 -0.8606 -0.3854
vn -0.3329 -0.8606 -0.3854
vn -0.3329 -0.8607 -0.3853
vn -0.3329 -0.8606 -0.3854
vn 0.3813 -0.8122 -0.4415
vn 0.3814 -0.8122 -0.4415
vn 0.3814 -0.8122 -0.4415
vn -0.3813 -0.8122 -0.4415
vn -0.3815 -0.8121 -0.4415
vn -0.3812 -0.8122 -0.4416
vn 0.3766 0.8174 -0.4359
vn 0.3767 0.8174 -0.4358
vn 0.3765 0.8174 -0.4359
vn -0.3767 0.8174 -0.4359
vn -0.3766 0.8174 -0.4359
vn -0.3766 0.8174 -0.4359
vn 0.5648 -0.5035 -0.6538
vn 0.5279 -0.5898 -0.6111
vn 0.5279 -0.5898 -0.6111
vn -0.5648 -0.5035 -0.6538
vn -0.5279 -0.5899 -0.611
vn -0.5681 -0.4947 -0.6576
vn 0.5681 -0.4948 -0.6576
vn -0.624 -0.298 -0.7224
vn 0 1 0
vn 0 1 0
vn 0 1 0
vn 0 1 0
vn 0 1 0
vn -0.9732 -0.23 0
vn -0.9905 -0.1377 0
vn -0.9905 -0.1377 0
vn 1 -0 0
vn 1 -0 0
vn 1 -0 0
vn -0.6055 -0.7958 -0
vn -0.6055 -0.7958 -0
vn -0.6055 -0.7958 -0
vn -0.7165 0.6975 -0
vn -0.7166 0.6975 -0
vn -0.7166 0.6975 -0
vn -0.6777 -0.7354 -0
vn -0.6777 -0.7354 -0
vn -0.6777 -0.7354 -0
vn -0.6777 0.7354 0
vn -0.6776 0.7354 0
vn -0.6776 0.7354 0
vn -0.8734 -0.487 0
vn -0.9065 -0.4223 0
vn -0.9142 -0.4053 0
vn -0.9705 -0.2409 0
vn 0 -1 0
vn 0 -1 0
vn 0 -1 0
vn 0 -1 -0.0002
vn 0 -1 0.0001
vn 0 -0.1192 -0.9929
vn 0 0 -1
vn -1 -0 0
vn 0.6056 -0.7958 0
vn 0 -0.7504 -0.661
vn 0.7166 0.6975 0
vn 0 0.6436 -0.7654
vn 0.6776 -0.7355 -0
vn 0 -0.684 -0.7295
vn 0.6776 0.7354 0
vn 0 0.684 -0.7295
vn 0.8734 -0.4869 0
vn 0 -0.3765 -0.9264
vn 0.6427 -0.1838 -0.7437
vn 0.6537 0.0061 -0.7568
vn -0.6536 0.0062 -0.7568
vn 0.4106 0.7782 -0.4752
vn -0.4104 0.7781 -0.4754
vn 0.3329 -0.8606 -0.3854
vn -0.3329 -0.8607 -0.3853
vn 0.3813 -0.8122 -0.4415
vn -0.3815 -0.8121 -0.4414
vn 0.3767 0.8174 -0.4358
vn -0.3767 0.8174 -0.4359
vn -0.5279 -0.5899 -0.611
vn 0.0001 1 0
vn 1 -0 0
vn -0.6055 -0.7958 -0
vn -0.7165 0.6976 0
vn -0.6777 -0.7354 -0
vn -0.6777 0.7354 0
vn -0.8734 -0.487 0
vn 0 -1 -0.0001
f 1/1/1 2/2/2 3/3/3
f 4/4/4 5/5/5 6/6/6
f 7/7/7 8/8/8 9/9/9
f 10/10/10 11/11/11 12/12/12
f 13/13/13 14/14/14 15/15/15
f 16/16/16 17/17/17 18/18/18
f 19/19/19 20/20/20 21/21/21
f 22/22/22 23/23/23 24/24/24
f 25/25/25 26/26/26 27/27/27
f 28/28/28 29/29/29 30/30/30
f 31/31/31 32/32/32 33/33/33
f 34/34/34 35/35/35 36/36/36
f 37/37/37 38/38/38 39/39/39
f 40/40/40 41/41/41 42/42/42
f 43/43/43 39/39/39 2/2/2
f 41/41/41 4/4/4 6/6/6
f 44/44/44 45/45/45 46/46/46
f 47/47/47 48/48/48 49/49/49
f 50/50/50 51/51/51 52/52/52
f 53/53/53 54/54/54 55/55/55
f 56/56/56 57/57/57 58/58/58
f 59/59/59 60/60/60 61/61/61
f 62/62/62 63/63/63 64/64/64
f 65/65/65 66/66/66 67/67/67
f 68/68/68 69/69/69 70/70/70
f 71/71/71 72/72/72 73/73/73
f 74/74/74 75/75/75 76/76/76
f 77/77/77 78/78/78 79/79/79
f 80/80/80 81/81/81 82/82/82
f 83/83/83 84/84/84 85/85/85
f 46/46/46 86/86/86 80/80/80
f 87/87/87 85/85/85 48/48/48
f 88/88/88 89/89/89 90/90/90
f 89/89/89 91/91/91 90/90/90
f 92/92/92 88/88/88 90/90/90
f 93/93/93 94/94/94 95/95/95
f 96/96/96 97/97/97 98/98/98
f 99/99/99 100/100/100 101/101/101
f 102/102/102 103/103/103 104/104/104
f 105/105/105 106/106/106 107/107/107
f 108/108/108 109/109/109 110/110/110
f 111/111/111 112/112/112 113/113/113
f 113/113/113 114/114/114 93/93/93
f 115/115/115 116/116/116 117/117/117
f 118/118/118 115/115/115 119/119/119
f 1/1/1 43/43/43 2/2/2
f 4/4/4 120/120/120 5/5/5
f 7/7/7 121/121/121 8/8/8
f 10/10/10 122/122/122 11/11/11
f 13/13/13 123/123/123 14/14/14
f 16/16/16 124/124/124 17/17/17
f 19/19/19 125/125/125 20/20/20
f 22/22/22 126/126/126 23/23/23
f 25/25/25 127/127/127 26/26/26
f 28/28/28 128/128/128 29/29/29
f 31/31/31 129/129/129 32/32/32
f 34/34/34 130/130/130 35/35/35
f 37/37/37 131/131/131 38/38/38
f 40/40/40 132/132/132 41/41/41
f 43/43/43 37/37/37 39/39/39
f 41/41/41 132/132/132 4/4/4
f 44/44/44 133/133/133 45/45/45
f 47/47/47 87/87/87 48/48/48
f 50/50/50 134/134/134 51/51/51
f 53/53/53 135/135/135 54/54/54
f 56/56/56 136/136/136 57/57/57
f 59/59/59 137/137/137 60/60/60
f 62/62/62 138/138/138 63/63/63
f 65/65/65 139/139/139 66/66/66
f 68/68/68 140/140/140 69/69/69
f 71/71/71 141/141/141 72/72/72
f 74/74/74 142/142/142 75/75/75
f 77/77/77 143/143/143 78/78/78
f 80/80/80 86/86/86 81/81/81
f 83/83/83 144/144/144 84/84/84
f 46/46/46 45/45/45 86/86/86
f 87/87/87 83/83/83 85/85/85
f 88/88/88 145/145/145 89/89/89
f 93/93/93 114/114/114 94/94/94
f 96/96/96 146/146/146 97/97/97
f 99/99/99 147/147/147 100/100/100
f 102/102/102 148/148/148 103/103/103
f 105/105/105 149/149/149 106/106/106
f 108/108/108 150/150/150 109/109/109
f 111/111/111 151/151/151 112/112/112
f 113/113/113 112/112/112 114/114/114
f 115/115/115 152/152/152 116/116/116
f 118/118/118 152/152/152 115/115/115
