v -1020.45 1263.01 -34.9851
v -1004.95 1262 -38.7505
v -1004.95 1263.01 -34.9849
v -1020.45 1262 -38.7505
v -1004.95 1259.25 -41.5061
v -1020.45 1259.25 -41.5061
v -1004.95 1255.48 -42.5149
v -1020.45 1255.48 -42.5149
v -1004.95 1253.01 -41.8532
v -1020.45 1252.67 -48.0869
v -1004.95 1249.91 -50.8428
v -1004.95 1252.67 -48.0869
v -1020.45 1253.67 -44.3225
v -1004.95 1253.67 -44.3225
v -1020.45 1253.01 -41.8532
v -1004.95 1253.01 -41.8532
v -1020.45 1262 -31.2199
v -1004.95 1262 -31.2199
v -1020.45 1259.25 -28.4641
v -1004.95 1259.25 -28.4641
v -1020.45 1255.48 -27.4555
v -1004.95 1255.48 -27.4555
v -1020.45 1253.01 -28.1172
v -1004.95 1253.01 -28.1172
v -1020.45 1246.29 -18.157
v -1004.95 1249.91 -19.1277
v -1004.95 1246.29 -18.157
v -1020.45 1249.91 -19.1277
v -1004.95 1252.67 -21.8833
v -1020.45 1252.67 -21.8833
v -1004.95 1253.67 -25.6477
v -1020.45 1253.67 -25.6477
v -1004.95 1253.01 -28.1172
v -1020.45 1249.91 -50.8428
v -1004.95 1246.29 -51.8134
v -1020.45 1230.57 -38.7505
v -1004.95 1229.56 -34.9851
v -1004.95 1230.57 -38.7505
v -1020.45 1233.33 -41.5061
v -1004.95 1233.33 -41.5061
v -1020.45 1237.09 -42.5149
v -1004.95 1237.09 -42.5149
v -1020.45 1239.56 -41.8532
v -1004.95 1237.09 -42.5149
v -1004.95 1239.56 -41.8532
v -1020.45 1242.66 -50.8428
v -1004.95 1239.91 -48.0869
v -1004.95 1242.66 -50.8428
v -1020.45 1239.91 -48.0869
v -1004.95 1238.9 -44.3225
v -1020.45 1238.9 -44.3225
v -1004.95 1239.56 -41.8532
v -1020.45 1229.56 -34.9851
v -1004.95 1230.57 -31.2199
v -1020.45 1230.57 -31.2199
v -1004.95 1233.33 -28.4641
v -1020.45 1233.33 -28.4641
v -1004.95 1237.09 -27.4555
v -1020.45 1237.09 -27.4555
v -1004.95 1239.56 -28.1172
v -1020.45 1239.91 -21.8833
v -1004.95 1242.66 -19.1277
v -1004.95 1239.91 -21.8833
v -1020.45 1238.9 -25.6477
v -1004.95 1238.9 -25.6477
v -1020.45 1239.56 -28.1172
v -1004.95 1239.56 -28.1172
v -1020.45 1246.29 -51.8134
v -1020.45 1242.66 -19.1277
v -1004.95 1239.91 -21.8833
v -1004.95 1240.24 -18.3023
v -1004.95 1234.1 -22.0527
v -1004.95 1238.9 -25.6477
v -1004.95 1229.97 -27.9321
v -1004.95 1246.29 -18.157
v -1004.95 1242.66 -19.1277
v -1004.95 1247.36 -17.2981
v -1004.95 1249.91 -19.1277
v -1004.95 1253.78 -18.9551
v -1004.95 1252.67 -21.8833
v -1004.95 1259.14 -22.8574
v -1004.95 1253.67 -25.6477
v -1004.95 1262.69 -28.4579
v -1004.95 1259.25 -28.4641
v -1004.95 1262 -31.2199
v -1004.95 1263.93 -34.9714
v -1004.95 1262 -38.7505
v -1004.95 1263.01 -34.9849
v -1004.95 1262.69 -41.4851
v -1004.95 1259.25 -41.5061
v -1004.95 1259.14 -47.0855
v -1004.95 1255.48 -42.5149
v -1004.95 1253.78 -50.9877
v -1004.95 1253.67 -44.3225
v -1004.95 1249.91 -50.8428
v -1004.95 1247.36 -52.6448
v -1004.95 1246.29 -51.8134
v -1004.95 1240.24 -51.6408
v -1004.95 1239.91 -48.0869
v -1004.95 1234.1 -47.89
v -1004.95 1238.9 -44.3225
v -1004.95 1229.97 -42.0108
v -1004.95 1233.33 -41.5061
v -1004.95 1230.57 -38.7505
v -1004.95 1228.51 -34.9714
v -1004.95 1230.57 -31.2199
v -1004.95 1233.33 -28.4641
v -1004.95 1253.01 -41.8532
v -1004.95 1252.67 -48.0869
v -1004.95 1253.01 -28.1172
v -1004.95 1255.48 -27.4555
v -1004.95 1229.56 -34.9851
v -1004.95 1239.56 -41.8532
v -1004.95 1237.09 -42.5149
v -1004.95 1237.09 -27.4555
v -1004.95 1239.56 -28.1172
v -1020.45 1253.01 -41.8532
v -1020.45 1253.01 -28.1172
v -1020.45 1237.09 -42.5149
v -1020.45 1239.56 -41.8532
v -1020.45 1239.56 -28.1172
v -1004.95 1242.66 -50.8428
vt 0.8159 0.5948
vt 0.9551 0.6286
vt 0.9551 0.5948
vt 0.8159 0.6286
vt 0.9551 0.6533
vt 0.8159 0.6533
vt 0.9551 0.6871
vt 0.8159 0.6871
vt 0.9551 0.7093
vt 0.8159 0.7626
vt 0.9551 0.7976
vt 0.9551 0.7626
vt 0.8159 0.7323
vt 0.9551 0.7323
vt 0.8159 0.7093
vt 0.9551 0.7093
vt 0.8159 0.5609
vt 0.9551 0.5609
vt 0.8159 0.5362
vt 0.9551 0.5362
vt 0.8159 0.5024
vt 0.9551 0.5024
vt 0.8159 0.4802
vt 0.9551 0.4802
vt 0.8159 0.3613
vt 0.9551 0.395
vt 0.9551 0.3613
vt 0.8159 0.395
vt 0.9551 0.4253
vt 0.8159 0.4253
vt 0.9551 0.4603
vt 0.8159 0.4603
vt 0.9551 0.4802
vt 0.8159 0.7976
vt 0.9551 0.8268
vt 0.8159 0.0879
vt 0.9551 0.1217
vt 0.9551 0.0879
vt 0.8159 0.0529
vt 0.9551 0.0529
vt 0.8159 0.0226
vt 0.9551 0.0226
vt 0.8159 0.9442
vt 0.9551 0.9672
vt 0.9551 0.9442
vt 0.8159 0.856
vt 0.9551 0.891
vt 0.9551 0.856
vt 0.8159 0.891
vt 0.9551 0.9213
vt 0.8159 0.9213
vt 0.9551 0.9442
vt 0.8159 0.1217
vt 0.9551 0.1556
vt 0.8159 0.1556
vt 0.9551 0.1906
vt 0.8159 0.1906
vt 0.9551 0.2209
vt 0.8159 0.2209
vt 0.9551 0.2438
vt 0.8159 0.2971
vt 0.9551 0.3321
vt 0.9551 0.2971
vt 0.8159 0.2668
vt 0.9551 0.2668
vt 0.8159 0.2438
vt 0.9551 0.2438
vt 0.8159 0.8268
vt 0.8159 0.3321
vt 0.5804 0.6036
vt 0.5524 0.6197
vt 0.6117 0.6454
vt 0.6133 0.5916
vt 0.6762 0.6454
vt 0.5201 0.576
vt 0.546 0.5976
vt 0.5083 0.5726
vt 0.5085 0.5443
vt 0.4873 0.5168
vt 0.5146 0.5098
vt 0.4883 0.4573
vt 0.537 0.483
vt 0.5111 0.4022
vt 0.5289 0.4275
vt 0.5349 0.393
vt 0.5526 0.3595
vt 0.5903 0.3541
vt 0.5574 0.3662
vt 0.6068 0.335
vt 0.6248 0.3601
vt 0.6663 0.3321
vt 0.6516 0.3826
vt 0.7227 0.3514
vt 0.6742 0.3865
vt 0.7416 0.3805
vt 0.768 0.39
vt 0.7674 0.4021
vt 0.7974 0.4475
vt 0.773 0.4682
vt 0.8015 0.5119
vt 0.7506 0.4951
vt 0.7797 0.5727
vt 0.7586 0.5506
vt 0.7526 0.5851
vt 0.7355 0.6198
vt 0.6973 0.624
vt 0.6628 0.618
vt 0.6595 0.4042
vt 0.7071 0.3745
vt 0.5586 0.4751
vt 0.541 0.4604
vt 0.7302 0.6119
vt 0.729 0.503
vt 0.7466 0.5177
vt 0.6359 0.5955
vt 0.628 0.5739
vt 0.8159 0.7093
vt 0.8159 0.4802
vt 0.8159 0.9672
vt 0.8159 0.9442
vt 0.8159 0.2438
vt 0.779 0.4338
vn 0 -1 -0
vn -0 -0.866 0.5
vn 0 -1 -0
vn -0 -0.866 0.5
vn 0 -0.5 0.866
vn 0 -0.5 0.866
vn 0 -0 1
vn 0 -0 1
vn 0 0.2588 0.9659
vn -0 -0.866 0.5
vn 0 -0.5 0.866
vn -0 -0.866 0.5
vn 0 -1 -0
vn 0 -1 -0
vn 0 -0.9659 -0.2588
vn 0 -0.9659 -0.2589
vn 0 -0.866 -0.5
vn 0 -0.8661 -0.5
vn 0 -0.5 -0.866
vn 0 -0.5 -0.866
vn 0 0 -1
vn 0 0 -1
vn 0 0.2588 -0.9659
vn 0 0.2588 -0.9659
vn 0 0 -1
vn 0 -0.5 -0.866
vn 0 0 -1
vn 0 -0.5 -0.866
vn 0 -0.866 -0.5
vn 0 -0.866 -0.5
vn 0 -1 -0
vn 0 -1 -0
vn 0 -0.9659 0.2588
vn 0 -0.5 0.866
vn 0 -0 1
vn 0 0.866 0.5
vn 0 1 -0
vn 0 0.866 0.5
vn 0 0.5 0.866
vn 0 0.5 0.866
vn 0 -0 1
vn 0 -0 1
vn 0 -0.2588 0.9659
vn 0 -0 1
vn 0 -0.2588 0.9659
vn 0 0.5 0.866
vn 0 0.866 0.5
vn 0 0.5 0.866
vn 0 0.866 0.5
vn 0 1 -0
vn 0 1 -0
vn 0 0.9659 -0.2588
vn 0 1 -0
vn 0 0.866 -0.5
vn 0 0.866 -0.5
vn 0 0.5 -0.866
vn 0 0.5 -0.866
vn 0 0 -1
vn 0 0 -1
vn 0 -0.2588 -0.9659
vn 0 0.866 -0.5
vn 0 0.5 -0.866
vn 0 0.866 -0.5
vn 0 1 -0
vn 0 1 -0
vn 0 0.9659 0.2588
vn 0 0.9659 0.2588
vn 0 -0 1
vn 0 0.5 -0.866
vn 1 -0 0
vn 1 -0 0
vn 1 -0 0
vn 1 -0 0
vn 1 -0 0
vn 1 -0 0
vn 1 -0 0
vn 1 -0 0
vn 1 -0 0
vn 1 -0 0
vn 1 -0 0
vn 1 -0 0
vn 1 -0 0
vn 1 -0 0
vn 1 -0 0
vn 1 -0 0
vn 1 -0 0
vn 1 -0 0
vn 1 0.0001 0
vn 1 -0 0
vn 1 -0 0
vn 1 -0 0
vn 1 -0 0
vn 1 -0 0
vn 1 -0 0
vn 1 -0 0
vn 1 -0 0
vn 1 -0 0
vn 1 -0 0
vn 1 -0 0
vn 1 -0 0
vn 1 -0 0
vn 1 -0 0
vn 1 -0 0
vn 1 -0 0
vn 1 -0 0
vn 1 -0 0
vn 1 -0 0
vn 1 -0 0
vn 1 -0 0
vn 1 -0 0
vn 1 -0 0
vn 1 -0 0
vn 1 -0 0
vn 1 -0 0
vn 1 -0 0
vn 1 -0 0
vn 0 0.2588 0.9659
vn 0 -0.9659 0.2589
vn 0 -0 1
vn 0 0.9659 -0.2588
vn 0 -0.2588 -0.9659
vn 1 -0 0
f 1/1/1 2/2/2 3/3/3
f 4/4/4 5/5/5 2/2/2
f 6/6/6 7/7/7 5/5/5
f 8/8/8 9/9/9 7/7/7
f 10/10/10 11/11/11 12/12/12
f 13/13/13 12/12/12 14/14/14
f 15/15/15 14/14/14 16/16/16
f 17/17/17 3/3/3 18/18/18
f 19/19/19 18/18/18 20/20/20
f 21/21/21 20/20/20 22/22/22
f 23/23/23 22/22/22 24/24/24
f 25/25/25 26/26/26 27/27/27
f 28/28/28 29/29/29 26/26/26
f 30/30/30 31/31/31 29/29/29
f 32/32/32 33/33/33 31/31/31
f 34/34/34 35/35/35 11/11/11
f 36/36/36 37/37/37 38/38/38
f 39/39/39 38/38/38 40/40/40
f 41/41/41 40/40/40 42/42/42
f 43/43/43 44/44/44 45/45/45
f 46/46/46 47/47/47 48/48/48
f 49/49/49 50/50/50 47/47/47
f 51/51/51 52/52/52 50/50/50
f 53/53/53 54/54/54 37/37/37
f 55/55/55 56/56/56 54/54/54
f 57/57/57 58/58/58 56/56/56
f 59/59/59 60/60/60 58/58/58
f 61/61/61 62/62/62 63/63/63
f 64/64/64 63/63/63 65/65/65
f 66/66/66 65/65/65 67/67/67
f 68/68/68 48/48/48 35/35/35
f 69/69/69 27/27/27 62/62/62
f 70/70/70 71/71/71 72/72/72
f 73/73/73 72/72/72 74/74/74
f 75/75/75 71/71/71 76/76/76
f 77/77/77 78/78/78 79/79/79
f 79/79/79 80/80/80 81/81/81
f 81/81/81 82/82/82 83/83/83
f 82/82/82 84/84/84 83/83/83
f 83/83/83 85/85/85 86/86/86
f 87/87/87 86/86/86 88/88/88
f 89/89/89 90/90/90 91/91/91
f 91/91/91 92/92/92 93/93/93
f 94/94/94 93/93/93 92/92/92
f 95/95/95 96/96/96 93/93/93
f 97/97/97 98/98/98 96/96/96
f 98/98/98 99/99/99 100/100/100
f 100/100/100 101/101/101 102/102/102
f 101/101/101 103/103/103 102/102/102
f 104/104/104 102/102/102 103/103/103
f 105/105/105 106/106/106 74/74/74
f 107/107/107 73/73/73 74/74/74
f 92/92/92 108/108/108 94/94/94
f 109/109/109 95/95/95 93/93/93
f 85/85/85 88/88/88 86/86/86
f 110/110/110 111/111/111 82/82/82
f 104/104/104 112/112/112 105/105/105
f 113/113/113 114/114/114 101/101/101
f 106/106/106 107/107/107 74/74/74
f 115/115/115 116/116/116 73/73/73
f 1/1/1 4/4/4 2/2/2
f 4/4/4 6/6/6 5/5/5
f 6/6/6 8/8/8 7/7/7
f 8/8/8 117/117/117 9/9/9
f 10/10/10 34/34/34 11/11/11
f 13/13/13 10/10/10 12/12/12
f 15/15/15 13/13/13 14/14/14
f 17/17/17 1/1/1 3/3/3
f 19/19/19 17/17/17 18/18/18
f 21/21/21 19/19/19 20/20/20
f 23/23/23 21/21/21 22/22/22
f 25/25/25 28/28/28 26/26/26
f 28/28/28 30/30/30 29/29/29
f 30/30/30 32/32/32 31/31/31
f 32/32/32 118/118/118 33/33/33
f 34/34/34 68/68/68 35/35/35
f 36/36/36 53/53/53 37/37/37
f 39/39/39 36/36/36 38/38/38
f 41/41/41 39/39/39 40/40/40
f 43/43/43 119/119/119 44/44/44
f 46/46/46 49/49/49 47/47/47
f 49/49/49 51/51/51 50/50/50
f 51/51/51 120/120/120 52/52/52
f 53/53/53 55/55/55 54/54/54
f 55/55/55 57/57/57 56/56/56
f 57/57/57 59/59/59 58/58/58
f 59/59/59 121/121/121 60/60/60
f 61/61/61 69/69/69 62/62/62
f 64/64/64 61/61/61 63/63/63
f 66/66/66 64/64/64 65/65/65
f 68/68/68 46/46/46 48/48/48
f 69/69/69 25/25/25 27/27/27
f 70/70/70 76/76/76 71/71/71
f 73/73/73 70/70/70 72/72/72
f 75/75/75 77/77/77 71/71/71
f 77/77/77 75/75/75 78/78/78
f 79/79/79 78/78/78 80/80/80
f 81/81/81 80/80/80 82/82/82
f 82/82/82 111/111/111 84/84/84
f 83/83/83 84/84/84 85/85/85
f 87/87/87 89/89/89 86/86/86
f 89/89/89 87/87/87 90/90/90
f 91/91/91 90/90/90 92/92/92
f 94/94/94 109/109/109 93/93/93
f 95/95/95 97/97/97 96/96/96
f 97/97/97 122/122/122 98/98/98
f 98/98/98 122/122/122 99/99/99
f 100/100/100 99/99/99 101/101/101
f 101/101/101 114/114/114 103/103/103
f 104/104/104 105/105/105 102/102/102
f 105/105/105 112/112/112 106/106/106
f 107/107/107 115/115/115 73/73/73
