v 491.964 842.342 -230.946
v 493.091 831.655 -269.664
v 493.091 842.05 -230.868
v 491.14 843.138 -231.16
v 491.964 831.946 -269.742
v 490.838 844.226 -231.451
v 491.14 832.742 -269.956
v 491.14 845.313 -231.743
v 490.838 833.83 -270.247
v 491.964 835.714 -270.752
v 491.14 834.918 -270.539
v 493.091 846.401 -232.034
v 491.964 846.11 -231.956
v 494.217 846.11 -231.956
v 493.091 836.006 -270.83
v 495.041 845.313 -231.743
v 494.217 835.714 -270.752
v 495.343 833.83 -270.247
v 495.041 834.918 -270.539
v 495.041 843.138 -231.16
v 495.343 844.226 -231.451
v 494.217 842.342 -230.946
v 495.041 832.742 -269.956
v 493.091 842.05 -230.868
v 494.217 831.946 -269.742
v 493.091 852.445 -192.072
v 491.964 842.342 -230.946
v 493.091 842.05 -230.868
v 491.14 853.533 -192.364
v 491.964 852.737 -192.15
v 490.838 854.621 -192.655
v 491.14 843.138 -231.16
v 491.14 845.313 -231.743
v 490.838 844.226 -231.451
v 491.964 856.505 -193.16
v 491.14 855.709 -192.947
v 493.091 856.796 -193.238
v 491.964 846.11 -231.956
v 494.217 856.505 -193.16
v 493.091 846.401 -232.034
v 495.041 855.709 -192.947
v 494.217 846.11 -231.956
v 495.343 854.621 -192.655
v 495.041 845.313 -231.743
v 495.041 843.138 -231.16
v 495.343 844.226 -231.451
v 494.217 852.737 -192.15
v 495.041 853.533 -192.364
v 493.091 852.445 -192.072
v 494.217 842.342 -230.946
v 491.964 863.132 -153.354
v 493.091 852.445 -192.072
v 493.091 862.841 -153.276
v 491.14 863.929 -153.568
v 491.964 852.737 -192.15
v 490.838 865.016 -153.859
v 491.14 853.533 -192.364
v 491.14 855.709 -192.947
v 490.838 854.621 -192.655
v 491.964 866.9 -154.364
v 491.14 866.104 -154.151
v 493.091 867.192 -154.442
v 491.964 856.505 -193.16
v 494.217 856.505 -193.16
v 493.091 856.796 -193.238
v 494.217 866.9 -154.364
v 495.041 855.709 -192.947
v 495.343 865.016 -153.859
v 495.041 866.104 -154.151
v 495.041 853.533 -192.364
v 495.343 854.621 -192.655
v 495.041 863.929 -153.568
v 494.217 852.737 -192.15
v 494.217 863.132 -153.354
v 493.091 852.445 -192.072
v 492.563 884.356 -79.316
v 492.786 884.14 -79.2582
v 493.091 884.062 -79.2371
v 493.618 884.356 -79.316
v 492.563 884.944 -79.4737
v 493.618 884.944 -79.4737
v 493.091 885.239 -79.5525
v 492.786 885.16 -79.5314
v 492.481 884.65 -79.3948
v 493.395 884.14 -79.2582
v 491.544 876.052 -102.326
v 493.091 875.591 -105.694
v 493.091 875.652 -102.219
v 490.413 877.145 -102.619
v 491.964 875.882 -105.772
v 489.998 878.639 -103.019
v 491.14 876.678 -105.985
v 491.14 878.854 -106.568
v 490.838 877.766 -106.277
v 491.544 881.226 -103.712
v 490.413 880.132 -103.419
v 493.091 881.626 -103.819
v 491.964 879.65 -106.782
v 494.637 881.226 -103.712
v 493.091 879.942 -106.86
v 495.041 878.854 -106.568
v 494.217 879.65 -106.782
v 496.183 878.639 -103.019
v 495.768 880.132 -103.419
v 495.041 876.678 -105.985
v 495.343 877.766 -106.277
v 495.768 877.145 -102.619
v 494.217 875.882 -105.772
v 494.637 876.052 -102.326
v 493.091 875.591 -105.694
v 491.442 880.195 -85.5814
v 493.091 877.524 -92.2458
v 493.091 879.769 -85.467
v 491.158 878.025 -92.3798
v 490.235 881.361 -85.8937
v 489.743 879.391 -92.746
v 489.793 882.954 -86.3205
v 489.226 881.258 -93.2461
v 490.235 884.546 -86.7472
v 489.743 883.124 -93.7462
v 491.442 885.712 -87.0596
v 491.158 884.49 -94.1123
v 493.091 886.139 -87.174
v 495.023 884.49 -94.1123
v 493.091 884.991 -94.2464
v 494.739 885.712 -87.0596
v 496.437 883.124 -93.7462
v 495.946 884.546 -86.7472
v 496.955 881.258 -93.2461
v 496.388 882.954 -86.3205
v 496.437 879.391 -92.7459
v 495.946 881.361 -85.8937
v 495.023 878.025 -92.3798
v 494.739 880.195 -85.5814
v 493.091 877.524 -92.2458
v 492.786 884.14 -79.2582
v 493.091 884.062 -79.2371
v 492.563 884.356 -79.316
v 492.481 884.65 -79.3948
v 492.563 884.944 -79.4737
v 492.786 885.16 -79.5314
v 493.091 885.239 -79.5525
v 493.395 885.16 -79.5314
v 493.618 884.944 -79.4737
v 493.7 884.65 -79.3948
v 493.618 884.356 -79.316
v 493.395 884.14 -79.2582
v 493.091 879.769 -85.467
v 493.091 876.557 -98.9698
v 491.561 876.953 -99.0759
v 490.032 879.512 -99.7614
v 490.442 878.035 -99.3656
v 490.442 880.989 -100.157
v 491.561 882.07 -100.447
v 494.62 882.07 -100.447
v 493.091 882.466 -100.553
v 495.739 880.989 -100.157
v 495.739 878.035 -99.3656
v 496.149 879.512 -99.7614
v 493.091 876.557 -98.9698
v 494.62 876.953 -99.0759
v 493.091 875.652 -102.219
v 493.091 862.841 -153.276
v 491.964 863.132 -153.354
v 491.14 863.929 -153.568
v 491.14 866.104 -154.151
v 490.838 865.016 -153.859
v 491.964 866.9 -154.364
v 493.091 867.192 -154.442
v 495.041 866.104 -154.151
v 494.217 866.9 -154.364
v 495.041 863.929 -153.568
v 495.343 865.016 -153.859
v 494.217 863.132 -153.354
v 493.091 862.841 -153.276
v 493.091 831.655 -269.664
v 493.091 842.05 -230.868
v 493.091 862.841 -153.276
v 493.7 884.65 -79.3948
v 493.395 885.16 -79.5314
v 493.091 884.062 -79.2371
vt 0.9633 0.5241
vt 0.9876 0.0053
vt 0.9876 0.5241
vt 0.9391 0.5241
vt 0.9633 0.0053
vt 0.9148 0.5241
vt 0.9391 0.0053
vt 0.8906 0.5241
vt 0.9148 0.0053
vt 0.8663 0.0053
vt 0.8906 0.0053
vt 0.8421 0.5241
vt 0.8663 0.5241
vt 0.8178 0.5241
vt 0.8421 0.0053
vt 0.7936 0.5241
vt 0.8178 0.0053
vt 0.7694 0.0053
vt 0.7936 0.0053
vt 0.7451 0.5241
vt 0.7694 0.5241
vt 0.7209 0.5241
vt 0.7451 0.0053
vt 0.6966 0.5241
vt 0.7209 0.0053
vt 0.9876 0.5241
vt 0.9633 0.0053
vt 0.9876 0.0053
vt 0.9391 0.5241
vt 0.9633 0.5241
vt 0.9148 0.5241
vt 0.9391 0.0053
vt 0.8906 0.0053
vt 0.9148 0.0053
vt 0.8663 0.5241
vt 0.8906 0.5241
vt 0.8421 0.5241
vt 0.8663 0.0053
vt 0.8178 0.5241
vt 0.8421 0.0053
vt 0.7936 0.5241
vt 0.8178 0.0053
vt 0.7694 0.5241
vt 0.7936 0.0053
vt 0.7451 0.0053
vt 0.7694 0.0053
vt 0.7209 0.5241
vt 0.7451 0.5241
vt 0.6966 0.5241
vt 0.7209 0.0053
vt 0.9633 0.5241
vt 0.9876 0.0053
vt 0.9876 0.5241
vt 0.9391 0.5241
vt 0.9633 0.0053
vt 0.9148 0.5241
vt 0.9391 0.0053
vt 0.8906 0.0053
vt 0.9148 0.0053
vt 0.8663 0.5241
vt 0.8906 0.5241
vt 0.8421 0.5241
vt 0.8663 0.0053
vt 0.8178 0.0053
vt 0.8421 0.0053
vt 0.8178 0.5241
vt 0.7936 0.0053
vt 0.7694 0.5241
vt 0.7936 0.5241
vt 0.7451 0.0053
vt 0.7694 0.0053
vt 0.7451 0.5241
vt 0.7209 0.0053
vt 0.7209 0.5241
vt 0.6966 0.0053
vt 0.9918 0.0129
vt 0.9918 0.0129
vt 0.9918 0.0129
vt 0.9918 0.0129
vt 0.9918 0.0129
vt 0.9918 0.0129
vt 0.9918 0.0129
vt 0.9918 0.0129
vt 0.9918 0.0129
vt 0.9918 0.0129
vt 0.9633 0.6851
vt 0.9876 0.6416
vt 0.9876 0.6851
vt 0.9391 0.6851
vt 0.9633 0.6416
vt 0.9148 0.6851
vt 0.9391 0.6416
vt 0.8906 0.6416
vt 0.9148 0.6416
vt 0.8663 0.6851
vt 0.8906 0.6851
vt 0.8421 0.6851
vt 0.8663 0.6416
vt 0.8178 0.6851
vt 0.8421 0.6416
vt 0.7936 0.6416
vt 0.8178 0.6416
vt 0.7694 0.6851
vt 0.7936 0.6851
vt 0.7451 0.6416
vt 0.7694 0.6416
vt 0.7451 0.6851
vt 0.7209 0.6416
vt 0.7209 0.6851
vt 0.6966 0.6416
vt 0.9633 0.9029
vt 0.9876 0.8158
vt 0.9876 0.9029
vt 0.9633 0.8158
vt 0.9391 0.9029
vt 0.9391 0.8158
vt 0.9148 0.9029
vt 0.9148 0.8158
vt 0.8906 0.9029
vt 0.8906 0.8158
vt 0.8663 0.9029
vt 0.8663 0.8158
vt 0.8421 0.9029
vt 0.8178 0.8158
vt 0.8421 0.8158
vt 0.8178 0.9029
vt 0.7936 0.8158
vt 0.7936 0.9029
vt 0.7694 0.8158
vt 0.7694 0.9029
vt 0.7451 0.8158
vt 0.7451 0.9029
vt 0.7209 0.8158
vt 0.7209 0.9029
vt 0.6966 0.8158
vt 0.9633 0.99
vt 0.9876 0.99
vt 0.9391 0.99
vt 0.9148 0.99
vt 0.8906 0.99
vt 0.8663 0.99
vt 0.8421 0.99
vt 0.8178 0.99
vt 0.7936 0.99
vt 0.7694 0.99
vt 0.7451 0.99
vt 0.7209 0.99
vt 0.6966 0.9029
vt 0.9876 0.7287
vt 0.9633 0.7287
vt 0.9148 0.7287
vt 0.9391 0.7287
vt 0.8906 0.7287
vt 0.8663 0.7287
vt 0.8178 0.7287
vt 0.8421 0.7287
vt 0.7936 0.7287
vt 0.7451 0.7287
vt 0.7694 0.7287
vt 0.6966 0.7287
vt 0.7209 0.7287
vt 0.6966 0.6851
vt 0.9876 0.0053
vt 0.9633 0.0053
vt 0.9391 0.0053
vt 0.8906 0.0053
vt 0.9148 0.0053
vt 0.8663 0.0053
vt 0.8421 0.0053
vt 0.7936 0.0053
vt 0.8178 0.0053
vt 0.7451 0.0053
vt 0.7694 0.0053
vt 0.7209 0.0053
vt 0.6966 0.0053
vt 0.6966 0.0053
vt 0.6966 0.0053
vt 0.6966 0.5241
vt 0.9918 0.0129
vt 0.9918 0.0129
vt 0.6966 0.99
vn -0.5001 -0.8365 0.2241
vn 0 -0.9659 0.2588
vn 0 -0.9659 0.2588
vn -0.866 -0.4829 0.1294
vn -0.5 -0.8365 0.2241
vn -1 0 0
vn -0.866 -0.483 0.1294
vn -0.866 0.483 -0.1294
vn -1 -0.0001 0
vn -0.5 0.8365 -0.2241
vn -0.866 0.483 -0.1294
vn -0 0.9659 -0.2588
vn -0.5 0.8365 -0.2241
vn 0.5 0.8365 -0.2241
vn -0 0.9659 -0.2588
vn 0.866 0.483 -0.1294
vn 0.5 0.8365 -0.2241
vn 1 0 0
vn 0.866 0.483 -0.1294
vn 0.866 -0.483 0.1294
vn 1 0 0
vn 0.5 -0.8365 0.2241
vn 0.866 -0.483 0.1294
vn 0 -0.9659 0.2588
vn 0.5 -0.8365 0.2241
vn 0 -0.9659 0.2588
vn -0.5001 -0.8365 0.2241
vn 0 -0.9659 0.2588
vn -0.866 -0.483 0.1294
vn -0.5 -0.8365 0.2241
vn -1 0 0
vn -0.866 -0.4829 0.1294
vn -0.866 0.483 -0.1294
vn -1 0 0
vn -0.5 0.8365 -0.2241
vn -0.866 0.483 -0.1294
vn -0 0.9659 -0.2588
vn -0.5 0.8365 -0.2241
vn 0.5 0.8365 -0.2241
vn -0 0.9659 -0.2588
vn 0.866 0.483 -0.1294
vn 0.5 0.8365 -0.2241
vn 1 0 0
vn 0.866 0.483 -0.1294
vn 0.866 -0.483 0.1294
vn 1 0 0
vn 0.5 -0.8365 0.2241
vn 0.866 -0.483 0.1294
vn 0 -0.9659 0.2588
vn 0.5 -0.8365 0.2241
vn -0.5 -0.8365 0.2241
vn 0 -0.9659 0.2588
vn 0 -0.9659 0.2588
vn -0.866 -0.483 0.1294
vn -0.5 -0.8365 0.2241
vn -1 0 0
vn -0.866 -0.483 0.1294
vn -0.866 0.483 -0.1294
vn -1 0 0
vn -0.5 0.8365 -0.2241
vn -0.866 0.4829 -0.1294
vn -0 0.9659 -0.2588
vn -0.5 0.8365 -0.2241
vn 0.5 0.8365 -0.2241
vn -0 0.9659 -0.2588
vn 0.5 0.8365 -0.2241
vn 0.866 0.483 -0.1294
vn 1 0 0
vn 0.866 0.4829 -0.1294
vn 0.866 -0.483 0.1294
vn 1 0 0
vn 0.866 -0.4829 0.1294
vn 0.5 -0.8365 0.2241
vn 0.5 -0.8365 0.2241
vn 0 -0.9659 0.2588
vn 0.0001 0.2589 0.9659
vn 0 0.2589 0.9659
vn -0 0.259 0.9659
vn -0.0001 0.2589 0.9659
vn 0 0.2588 0.9659
vn 0 0.2588 0.9659
vn -0 0.259 0.9659
vn -0.0001 0.2585 0.966
vn -0.0002 0.2588 0.9659
vn -0.0002 0.2592 0.9658
vn -0.4967 -0.8607 0.1121
vn 0 -0.9906 0.1368
vn 0 -0.9892 0.1466
vn -0.8603 -0.5094 0.018
vn -0.4961 -0.8622 0.1024
vn -0.9934 -0.0296 -0.1105
vn -0.8593 -0.5114 0.0084
vn -0.8593 0.447 -0.2484
vn -0.9923 -0.0322 -0.12
vn -0.4967 0.8014 -0.3332
vn -0.8604 0.4501 -0.2391
vn 0 0.93 -0.3677
vn -0.4962 0.7979 -0.3424
vn 0.4967 0.8014 -0.3332
vn 0 0.9263 -0.3768
vn 0.8593 0.4471 -0.2484
vn 0.4962 0.7979 -0.3424
vn 0.9934 -0.0296 -0.1105
vn 0.8603 0.4502 -0.2391
vn 0.8593 -0.5113 0.0084
vn 0.9923 -0.0321 -0.12
vn 0.8603 -0.5094 0.018
vn 0.4961 -0.8622 0.1024
vn 0.4967 -0.8606 0.1121
vn 0 -0.9906 0.1368
vn -0.49 -0.7694 0.4097
vn 0 -0.9733 0.2296
vn 0 -0.8974 0.4413
vn -0.5006 -0.8432 0.1963
vn -0.8476 -0.4205 0.3236
vn -0.8665 -0.4879 0.1051
vn -0.977 0.0548 0.2063
vn -0.9998 -0.0033 -0.0192
vn -0.8444 0.5282 0.0894
vn -0.8652 0.4805 -0.1434
vn -0.4868 0.8735 0.0042
vn -0.4992 0.8342 -0.2342
vn 0 0.9996 -0.027
vn 0.4992 0.8342 -0.2342
vn 0 0.9636 -0.2674
vn 0.4868 0.8735 0.0042
vn 0.8652 0.4805 -0.1434
vn 0.8444 0.5282 0.0895
vn 0.9998 -0.0033 -0.0192
vn 0.977 0.0548 0.2063
vn 0.8665 -0.4879 0.1051
vn 0.8476 -0.4204 0.3236
vn 0.5006 -0.8432 0.1963
vn 0.49 -0.7694 0.4097
vn 0 -0.9733 0.2296
vn -0.4691 -0.7011 0.5371
vn 0.0001 -0.8234 0.5674
vn -0.8117 -0.367 0.4544
vn -0.9357 0.0879 0.3417
vn -0.8089 0.5414 0.2293
vn -0.4663 0.8723 0.1473
vn 0 0.9931 0.1174
vn 0.4664 0.8722 0.1473
vn 0.8088 0.5415 0.2293
vn 0.9356 0.0881 0.3418
vn 0.8117 -0.367 0.4544
vn 0.4692 -0.701 0.537
vn 0 -0.8974 0.4413
vn 0 -0.9787 0.2052
vn -0.4992 -0.8495 0.1706
vn -0.9985 -0.0142 -0.0532
vn -0.8647 -0.4965 0.076
vn -0.8647 0.468 -0.1824
vn -0.4992 0.821 -0.277
vn 0.4992 0.821 -0.277
vn 0 0.9502 -0.3116
vn 0.8647 0.468 -0.1824
vn 0.8647 -0.4965 0.076
vn 0.9985 -0.0143 -0.0532
vn 0 -0.9787 0.2052
vn 0.4993 -0.8495 0.1706
vn 0 -0.9892 0.1466
vn 0 -0.9659 0.2588
vn -0.5 -0.8365 0.2241
vn -0.866 -0.483 0.1294
vn -0.866 0.4829 -0.1294
vn -1 0 0
vn -0.5 0.8365 -0.2241
vn -0 0.9659 -0.2588
vn 0.866 0.4829 -0.1294
vn 0.5 0.8365 -0.2241
vn 0.866 -0.4829 0.1294
vn 1 0 0
vn 0.5 -0.8365 0.2241
vn 0 -0.9659 0.2588
vn 0 -0.9659 0.2588
vn 0 -0.9659 0.2588
vn 0 -0.9659 0.2588
vn -0.0005 0.2587 0.9659
vn 0.0001 0.2587 0.966
vn 0.0001 -0.8234 0.5674
f 1/1/1 2/2/2 3/3/3
f 4/4/4 5/5/5 1/1/1
f 6/6/6 7/7/7 4/4/4
f 8/8/8 9/9/9 6/6/6
f 8/8/8 10/10/10 11/11/11
f 12/12/12 10/10/10 13/13/13
f 14/14/14 15/15/15 12/12/12
f 16/16/16 17/17/17 14/14/14
f 16/16/16 18/18/18 19/19/19
f 20/20/20 18/18/18 21/21/21
f 22/22/22 23/23/23 20/20/20
f 24/24/24 25/25/25 22/22/22
f 26/26/26 27/27/27 28/28/28
f 29/29/29 27/27/27 30/30/30
f 31/31/31 32/32/32 29/29/29
f 31/31/31 33/33/33 34/34/34
f 35/35/35 33/33/33 36/36/36
f 37/37/37 38/38/38 35/35/35
f 39/39/39 40/40/40 37/37/37
f 41/41/41 42/42/42 39/39/39
f 43/43/43 44/44/44 41/41/41
f 43/43/43 45/45/45 46/46/46
f 47/47/47 45/45/45 48/48/48
f 49/49/49 50/50/50 47/47/47
f 51/51/51 52/52/52 53/53/53
f 54/54/54 55/55/55 51/51/51
f 56/56/56 57/57/57 54/54/54
f 56/56/56 58/58/58 59/59/59
f 60/60/60 58/58/58 61/61/61
f 62/62/62 63/63/63 60/60/60
f 62/62/62 64/64/64 65/65/65
f 66/66/66 67/67/67 64/64/64
f 68/68/68 67/67/67 69/69/69
f 68/68/68 70/70/70 71/71/71
f 72/72/72 73/73/73 70/70/70
f 74/74/74 75/75/75 73/73/73
f 76/76/76 77/77/77 78/78/78
f 76/76/76 79/79/79 80/80/80
f 79/79/79 81/81/81 80/80/80
f 81/81/81 82/82/82 80/80/80
f 82/82/82 83/83/83 80/80/80
f 84/84/84 76/76/76 80/80/80
f 85/85/85 79/79/79 78/78/78
f 86/86/86 87/87/87 88/88/88
f 89/89/89 90/90/90 86/86/86
f 91/91/91 92/92/92 89/89/89
f 91/91/91 93/93/93 94/94/94
f 95/95/95 93/93/93 96/96/96
f 97/97/97 98/98/98 95/95/95
f 99/99/99 100/100/100 97/97/97
f 99/99/99 101/101/101 102/102/102
f 103/103/103 101/101/101 104/104/104
f 103/103/103 105/105/105 106/106/106
f 107/107/107 108/108/108 105/105/105
f 109/109/109 110/110/110 108/108/108
f 111/111/111 112/112/112 113/113/113
f 114/114/114 115/115/115 116/116/116
f 116/116/116 117/117/117 118/118/118
f 118/118/118 119/119/119 120/120/120
f 120/120/120 121/121/121 122/122/122
f 123/123/123 122/122/122 121/121/121
f 123/123/123 124/124/124 125/125/125
f 126/126/126 127/127/127 124/124/124
f 128/128/128 129/129/129 127/127/127
f 130/130/130 131/131/131 129/129/129
f 132/132/132 133/133/133 131/131/131
f 134/134/134 135/135/135 133/133/133
f 136/136/136 113/113/113 137/137/137
f 138/138/138 111/111/111 136/136/136
f 115/115/115 139/139/139 117/117/117
f 117/117/117 140/140/140 119/119/119
f 141/141/141 119/119/119 140/140/140
f 142/142/142 121/121/121 141/141/141
f 142/142/142 126/126/126 123/123/123
f 143/143/143 128/128/128 126/126/126
f 144/144/144 130/130/130 128/128/128
f 145/145/145 132/132/132 130/130/130
f 146/146/146 134/134/134 132/132/132
f 147/147/147 148/148/148 134/134/134
f 114/114/114 149/149/149 112/112/112
f 116/116/116 150/150/150 114/114/114
f 116/116/116 151/151/151 152/152/152
f 118/118/118 153/153/153 151/151/151
f 120/120/120 154/154/154 153/153/153
f 125/125/125 154/154/154 122/122/122
f 125/125/125 155/155/155 156/156/156
f 127/127/127 155/155/155 124/124/124
f 129/129/129 157/157/157 127/127/127
f 129/129/129 158/158/158 159/159/159
f 133/133/133 158/158/158 131/131/131
f 133/133/133 160/160/160 161/161/161
f 150/150/150 88/88/88 149/149/149
f 150/150/150 89/89/89 86/86/86
f 152/152/152 91/91/91 89/89/89
f 153/153/153 91/91/91 151/151/151
f 154/154/154 96/96/96 153/153/153
f 154/154/154 97/97/97 95/95/95
f 155/155/155 97/97/97 156/156/156
f 155/155/155 104/104/104 99/99/99
f 157/157/157 103/103/103 104/104/104
f 159/159/159 107/107/107 103/103/103
f 161/161/161 107/107/107 158/158/158
f 161/161/161 162/162/162 109/109/109
f 90/90/90 163/163/163 87/87/87
f 92/92/92 164/164/164 90/90/90
f 94/94/94 165/165/165 92/92/92
f 94/94/94 166/166/166 167/167/167
f 98/98/98 166/166/166 93/93/93
f 100/100/100 168/168/168 98/98/98
f 102/102/102 169/169/169 100/100/100
f 102/102/102 170/170/170 171/171/171
f 106/106/106 170/170/170 101/101/101
f 106/106/106 172/172/172 173/173/173
f 105/105/105 174/174/174 172/172/172
f 108/108/108 175/175/175 174/174/174
f 1/1/1 5/5/5 2/2/2
f 4/4/4 7/7/7 5/5/5
f 6/6/6 9/9/9 7/7/7
f 8/8/8 11/11/11 9/9/9
f 8/8/8 13/13/13 10/10/10
f 12/12/12 15/15/15 10/10/10
f 14/14/14 17/17/17 15/15/15
f 16/16/16 19/19/19 17/17/17
f 16/16/16 21/21/21 18/18/18
f 20/20/20 23/23/23 18/18/18
f 22/22/22 25/25/25 23/23/23
f 24/24/24 176/176/176 25/25/25
f 26/26/26 30/30/30 27/27/27
f 29/29/29 32/32/32 27/27/27
f 31/31/31 34/34/34 32/32/32
f 31/31/31 36/36/36 33/33/33
f 35/35/35 38/38/38 33/33/33
f 37/37/37 40/40/40 38/38/38
f 39/39/39 42/42/42 40/40/40
f 41/41/41 44/44/44 42/42/42
f 43/43/43 46/46/46 44/44/44
f 43/43/43 48/48/48 45/45/45
f 47/47/47 50/50/50 45/45/45
f 49/49/49 177/177/177 50/50/50
f 51/51/51 55/55/55 52/52/52
f 54/54/54 57/57/57 55/55/55
f 56/56/56 59/59/59 57/57/57
f 56/56/56 61/61/61 58/58/58
f 60/60/60 63/63/63 58/58/58
f 62/62/62 65/65/65 63/63/63
f 62/62/62 66/66/66 64/64/64
f 66/66/66 69/69/69 67/67/67
f 68/68/68 71/71/71 67/67/67
f 68/68/68 72/72/72 70/70/70
f 72/72/72 74/74/74 73/73/73
f 74/74/74 178/178/178 75/75/75
f 76/76/76 78/78/78 79/79/79
f 79/79/79 179/179/179 81/81/81
f 81/81/81 180/180/180 82/82/82
f 86/86/86 90/90/90 87/87/87
f 89/89/89 92/92/92 90/90/90
f 91/91/91 94/94/94 92/92/92
f 91/91/91 96/96/96 93/93/93
f 95/95/95 98/98/98 93/93/93
f 97/97/97 100/100/100 98/98/98
f 99/99/99 102/102/102 100/100/100
f 99/99/99 104/104/104 101/101/101
f 103/103/103 106/106/106 101/101/101
f 103/103/103 107/107/107 105/105/105
f 107/107/107 109/109/109 108/108/108
f 109/109/109 162/162/162 110/110/110
f 111/111/111 114/114/114 112/112/112
f 114/114/114 111/111/111 115/115/115
f 116/116/116 115/115/115 117/117/117
f 118/118/118 117/117/117 119/119/119
f 120/120/120 119/119/119 121/121/121
f 123/123/123 125/125/125 122/122/122
f 123/123/123 126/126/126 124/124/124
f 126/126/126 128/128/128 127/127/127
f 128/128/128 130/130/130 129/129/129
f 130/130/130 132/132/132 131/131/131
f 132/132/132 134/134/134 133/133/133
f 134/134/134 148/148/148 135/135/135
f 136/136/136 111/111/111 113/113/113
f 138/138/138 115/115/115 111/111/111
f 115/115/115 138/138/138 139/139/139
f 117/117/117 139/139/139 140/140/140
f 141/141/141 121/121/121 119/119/119
f 142/142/142 123/123/123 121/121/121
f 142/142/142 143/143/143 126/126/126
f 143/143/143 144/144/144 128/128/128
f 144/144/144 145/145/145 130/130/130
f 145/145/145 146/146/146 132/132/132
f 146/146/146 147/147/147 134/134/134
f 147/147/147 181/181/181 148/148/148
f 114/114/114 150/150/150 149/149/149
f 116/116/116 152/152/152 150/150/150
f 116/116/116 118/118/118 151/151/151
f 118/118/118 120/120/120 153/153/153
f 120/120/120 122/122/122 154/154/154
f 125/125/125 156/156/156 154/154/154
f 125/125/125 124/124/124 155/155/155
f 127/127/127 157/157/157 155/155/155
f 129/129/129 159/159/159 157/157/157
f 129/129/129 131/131/131 158/158/158
f 133/133/133 161/161/161 158/158/158
f 133/133/133 135/135/135 160/160/160
f 150/150/150 86/86/86 88/88/88
f 150/150/150 152/152/152 89/89/89
f 152/152/152 151/151/151 91/91/91
f 153/153/153 96/96/96 91/91/91
f 154/154/154 95/95/95 96/96/96
f 154/154/154 156/156/156 97/97/97
f 155/155/155 99/99/99 97/97/97
f 155/155/155 157/157/157 104/104/104
f 157/157/157 159/159/159 103/103/103
f 159/159/159 158/158/158 107/107/107
f 161/161/161 109/109/109 107/107/107
f 161/161/161 160/160/160 162/162/162
f 90/90/90 164/164/164 163/163/163
f 92/92/92 165/165/165 164/164/164
f 94/94/94 167/167/167 165/165/165
f 94/94/94 93/93/93 166/166/166
f 98/98/98 168/168/168 166/166/166
f 100/100/100 169/169/169 168/168/168
f 102/102/102 171/171/171 169/169/169
f 102/102/102 101/101/101 170/170/170
f 106/106/106 173/173/173 170/170/170
f 106/106/106 105/105/105 172/172/172
f 105/105/105 108/108/108 174/174/174
f 108/108/108 110/110/110 175/175/175
