v -2.20064 1.33366 1.49425
v -2.20115 1.34601 1.49543
v -2.20335 1.34553 1.49782
v -2.20203 1.33336 1.49575
v -2.20032 1.31776 1.4931
v -2.19998 1.31784 1.49274
v -2.19964 1.31786 1.49237
v -2.19925 1.33376 1.49273
v -2.19894 1.34617 1.49302
v -2.20338 1.33286 1.49722
v -2.2055 1.34473 1.50016
v -2.2076 1.34363 1.50243
v -2.20469 1.33216 1.49865
v -2.20097 1.31747 1.49381
v -2.20065 1.31764 1.49346
v -2.20596 1.33128 1.50002
v -2.2096 1.34222 1.50462
v -2.21151 1.34054 1.50669
v -2.20715 1.33022 1.50132
v -2.20157 1.317 1.49446
v -2.20127 1.31726 1.49415
v -2.20828 1.32899 1.50254
v -2.21329 1.33859 1.50863
v -2.21494 1.33638 1.51042
v -2.20931 1.32761 1.50367
v -2.20209 1.31636 1.49503
v -2.20184 1.3167 1.49476
v -2.21025 1.32608 1.50469
v -2.21643 1.33395 1.51204
v -2.21775 1.33132 1.51348
v -2.21108 1.32442 1.50559
v -2.20252 1.31559 1.4955
v -2.20232 1.31599 1.49528
v -2.2118 1.32265 1.50637
v -2.21889 1.3285 1.51472
v -2.21984 1.32554 1.51575
v -2.21239 1.32079 1.50702
v -2.20284 1.3147 1.49585
v -2.2027 1.31516 1.49569
v -2.21286 1.31885 1.50753
v -2.22059 1.32245 1.51656
v -2.22113 1.31927 1.51715
v -2.2132 1.31685 1.5079
v -2.20304 1.31374 1.49606
v -2.20296 1.31423 1.49597
v -2.21341 1.31481 1.50812
v -2.22145 1.31602 1.5175
v -2.22156 1.31275 1.51762
v -2.21348 1.31275 1.5082
v -2.2031 1.31275 1.49614
v -2.20309 1.31325 1.49612
v -2.21341 1.31069 1.50812
v -2.22145 1.30947 1.5175
v -2.22113 1.30622 1.51715
v -2.2132 1.30865 1.5079
v -2.20304 1.31175 1.49606
v -2.20309 1.31224 1.49612
v -2.21286 1.30665 1.50753
v -2.22059 1.30304 1.51656
v -2.21984 1.29995 1.51575
v -2.21239 1.3047 1.50702
v -2.20284 1.31079 1.49585
v -2.20296 1.31126 1.49597
v -2.2118 1.30284 1.50637
v -2.21889 1.29699 1.51472
v -2.21775 1.29418 1.51348
v -2.21108 1.30107 1.50559
v -2.20252 1.3099 1.4955
v -2.2027 1.31033 1.49569
v -2.21025 1.29941 1.50469
v -2.21643 1.29154 1.51204
v -2.21494 1.28911 1.51042
v -2.20931 1.29789 1.50367
v -2.20209 1.30913 1.49503
v -2.20232 1.3095 1.49528
v -2.20828 1.2965 1.50254
v -2.21329 1.28691 1.50863
v -2.21151 1.28495 1.50669
v -2.20715 1.29527 1.50132
v -2.20157 1.30849 1.49446
v -2.20184 1.30879 1.49476
v -2.20596 1.29421 1.50002
v -2.2096 1.28327 1.50462
v -2.2076 1.28186 1.50243
v -2.20469 1.29333 1.49865
v -2.20097 1.30802 1.49381
v -2.20127 1.30823 1.49415
v -2.20338 1.29264 1.49722
v -2.2055 1.28076 1.50016
v -2.20335 1.27996 1.49782
v -2.20203 1.29213 1.49575
v -2.20032 1.30773 1.4931
v -2.20065 1.30785 1.49346
v -2.20064 1.29183 1.49425
v -2.20115 1.27948 1.49543
v -2.19894 1.27932 1.49302
v -2.19925 1.29173 1.49273
v -2.19964 1.30763 1.49237
v -2.19998 1.30765 1.49274
v -2.19786 1.29183 1.49121
v -2.19672 1.27948 1.49061
v -2.19452 1.27996 1.48822
v -2.19648 1.29213 1.48971
v -2.19897 1.30773 1.49163
v -2.1993 1.30765 1.492
v -2.19512 1.29264 1.48824
v -2.19237 1.28076 1.48588
v -2.19028 1.28186 1.4836
v -2.19381 1.29333 1.48681
v -2.19832 1.30802 1.49093
v -2.19864 1.30785 1.49128
v -2.19254 1.29421 1.48544
v -2.18827 1.28327 1.48142
v -2.18637 1.28495 1.47935
v -2.19135 1.29527 1.48413
v -2.19772 1.30849 1.49028
v -2.19801 1.30823 1.49059
v -2.19023 1.2965 1.48292
v -2.18458 1.28691 1.47741
v -2.18294 1.28911 1.47562
v -2.18919 1.29789 1.48179
v -2.19719 1.30913 1.48971
v -2.19744 1.30879 1.48998
v -2.18826 1.29941 1.48077
v -2.18145 1.29154 1.474
v -2.18012 1.29418 1.47256
v -2.18742 1.30107 1.47987
v -2.19676 1.3099 1.48924
v -2.19696 1.3095 1.48946
v -2.18671 1.30284 1.47909
v -2.17898 1.29699 1.47132
v -2.17803 1.29995 1.47029
v -2.18611 1.3047 1.47844
v -2.19644 1.31079 1.48889
v -2.19659 1.31033 1.48905
v -2.18564 1.30665 1.47793
v -2.17728 1.30304 1.46947
v -2.17674 1.30622 1.46889
v -2.1853 1.30865 1.47756
v -2.19624 1.31175 1.48867
v -2.19633 1.31126 1.48877
v -2.1851 1.31069 1.47733
v -2.17642 1.30947 1.46853
v -2.17631 1.31275 1.46841
v -2.18503 1.31275 1.47726
v -2.19618 1.31275 1.4886
v -2.19619 1.31224 1.48862
v -2.1851 1.31481 1.47733
v -2.17642 1.31602 1.46853
v -2.17674 1.31927 1.46889
v -2.1853 1.31685 1.47756
v -2.19624 1.31374 1.48867
v -2.19619 1.31325 1.48862
v -2.18564 1.31885 1.47793
v -2.17728 1.32245 1.46947
v -2.17803 1.32554 1.47029
v -2.18611 1.32079 1.47844
v -2.19644 1.3147 1.48889
v -2.19633 1.31423 1.48877
v -2.18671 1.32265 1.47909
v -2.17898 1.3285 1.47132
v -2.18012 1.33132 1.47256
v -2.18742 1.32442 1.47987
v -2.19676 1.31559 1.48924
v -2.19659 1.31516 1.48905
v -2.18826 1.32608 1.48077
v -2.18145 1.33395 1.474
v -2.18294 1.33638 1.47562
v -2.18919 1.32761 1.48179
v -2.19719 1.31636 1.48971
v -2.19696 1.31599 1.48946
v -2.19023 1.32899 1.48292
v -2.18458 1.33859 1.47741
v -2.18637 1.34054 1.47935
v -2.19135 1.33022 1.48413
v -2.19772 1.317 1.49028
v -2.19744 1.3167 1.48998
v -2.19254 1.33128 1.48544
v -2.18827 1.34222 1.48142
v -2.19028 1.34363 1.4836
v -2.19381 1.33216 1.48681
v -2.19832 1.31747 1.49093
v -2.19801 1.31726 1.49059
v -2.19512 1.33286 1.48824
v -2.19237 1.34473 1.48588
v -2.19452 1.34553 1.48822
v -2.19648 1.33336 1.48971
v -2.19897 1.31776 1.49163
v -2.19864 1.31764 1.49128
v -2.19786 1.33366 1.49121
v -2.19672 1.34601 1.49061
v -2.1993 1.31784 1.492
vt 0.356902 0.8052
vt 0.339425 0.985441
vt 0.304204 0.978421
vt 0.334764 0.800794
vt 0.373731 0.573242
vt 0.379115 0.574307
vt 0.384571 0.574672
vt 0.379277 0.806674
vt 0.374999 0.987805
vt 0.313039 0.793468
vt 0.269645 0.96679
vt 0.236121 0.950665
vt 0.291961 0.78334
vt 0.363303 0.568996
vt 0.368436 0.571463
vt 0.271711 0.770468
vt 0.203924 0.93019
vt 0.173378 0.905586
vt 0.252508 0.755
vt 0.353702 0.562093
vt 0.358377 0.565857
vt 0.234528 0.737066
vt 0.144779 0.877072
vt 0.118379 0.844923
vt 0.217936 0.716853
vt 0.34528 0.552798
vt 0.349322 0.55773
vt 0.202906 0.694556
vt 0.0944703 0.809447
vt 0.0732606 0.771008
vt 0.189558 0.670389
vt 0.338377 0.541487
vt 0.341622 0.547369
vt 0.178053 0.644559
vt 0.0549415 0.729944
vt 0.0397205 0.686675
vt 0.168482 0.617358
vt 0.333244 0.528572
vt 0.335576 0.535198
vt 0.16093 0.589017
vt 0.0277293 0.641596
vt 0.0190717 0.595162
vt 0.155488 0.559831
vt 0.330074 0.514562
vt 0.331402 0.521671
vt 0.152213 0.530061
vt 0.0138515 0.547807
vt 0.0120968 0.5
vt 0.151107 0.5
vt 0.329012 0.5
vt 0.329278 0.50731
vt 0.152213 0.469937
vt 0.0138515 0.452193
vt 0.0190717 0.404837
vt 0.155488 0.440167
vt 0.330074 0.485436
vt 0.329278 0.492674
vt 0.16093 0.410981
vt 0.0277293 0.358402
vt 0.0397205 0.313325
vt 0.168482 0.382641
vt 0.333244 0.471426
vt 0.331402 0.478329
vt 0.178053 0.355426
vt 0.0549574 0.270055
vt 0.0732606 0.228991
vt 0.189558 0.329609
vt 0.338377 0.458511
vt 0.335576 0.4648
vt 0.202906 0.305444
vt 0.0944703 0.190551
vt 0.118393 0.155075
vt 0.217936 0.283145
vt 0.34528 0.447202
vt 0.341622 0.45263
vt 0.234528 0.262934
vt 0.144779 0.122927
vt 0.173378 0.0944121
vt 0.252508 0.244999
vt 0.353702 0.437905
vt 0.349322 0.442268
vt 0.271711 0.22953
vt 0.203924 0.0698084
vt 0.236121 0.0493346
vt 0.291961 0.216658
vt 0.363303 0.431002
vt 0.358377 0.434141
vt 0.313039 0.206532
vt 0.269661 0.0332082
vt 0.304204 0.021577
vt 0.334764 0.199206
vt 0.373731 0.426756
vt 0.368436 0.428537
vt 0.356902 0.194798
vt 0.339425 0.0145593
vt 0.374999 0.0121951
vt 0.379277 0.193324
vt 0.384571 0.425326
vt 0.379115 0.425691
vt 0.401636 0.194798
vt 0.410575 0.0145593
vt 0.445796 0.021577
vt 0.423774 0.199206
vt 0.395412 0.426756
vt 0.390014 0.425691
vt 0.445501 0.206532
vt 0.480339 0.0332082
vt 0.513877 0.0493346
vt 0.466577 0.216658
vt 0.405825 0.431002
vt 0.400692 0.428537
vt 0.486828 0.22953
vt 0.546076 0.0698084
vt 0.576622 0.0944121
vt 0.506032 0.244999
vt 0.415426 0.437905
vt 0.410751 0.434141
vt 0.52401 0.262934
vt 0.605219 0.122927
vt 0.631605 0.155075
vt 0.540604 0.283145
vt 0.423848 0.447202
vt 0.419808 0.442268
vt 0.555634 0.305444
vt 0.65553 0.190551
vt 0.676738 0.228991
vt 0.56898 0.329609
vt 0.430751 0.458511
vt 0.427507 0.45263
vt 0.580485 0.355426
vt 0.695043 0.270055
vt 0.710278 0.313325
vt 0.590058 0.382641
vt 0.435899 0.471426
vt 0.433554 0.4648
vt 0.597594 0.410981
vt 0.722269 0.358402
vt 0.730927 0.404837
vt 0.603052 0.440167
vt 0.439055 0.485436
vt 0.437728 0.478329
vt 0.606325 0.469937
vt 0.736148 0.452193
vt 0.737903 0.5
vt 0.607431 0.5
vt 0.440117 0.5
vt 0.439852 0.492674
vt 0.606325 0.530061
vt 0.736148 0.547807
vt 0.730927 0.595162
vt 0.603052 0.559831
vt 0.439055 0.514562
vt 0.439852 0.507326
vt 0.597594 0.589017
vt 0.722269 0.641596
vt 0.710278 0.686675
vt 0.590058 0.617358
vt 0.435899 0.528572
vt 0.437728 0.521671
vt 0.580485 0.644559
vt 0.695057 0.729944
vt 0.676738 0.771008
vt 0.56898 0.670389
vt 0.430767 0.541487
vt 0.433554 0.535198
vt 0.555634 0.694556
vt 0.65553 0.809447
vt 0.631605 0.844923
vt 0.540604 0.716853
vt 0.423848 0.552798
vt 0.427507 0.547369
vt 0.52401 0.737066
vt 0.605219 0.877072
vt 0.576622 0.905586
vt 0.506032 0.755
vt 0.415426 0.562093
vt 0.419808 0.55773
vt 0.486828 0.770468
vt 0.546076 0.93019
vt 0.513877 0.950665
vt 0.466577 0.78334
vt 0.405825 0.568996
vt 0.410751 0.565857
vt 0.445501 0.793468
vt 0.480339 0.96679
vt 0.445796 0.978421
vt 0.423774 0.800794
vt 0.395412 0.573242
vt 0.400692 0.571463
vt 0.401636 0.8052
vt 0.410575 0.985441
vt 0.390014 0.574307
vn 0.7379 -0.0338 0.674
vn 0.7381 -0.0375 0.6737
vn 0.7405 -0.037 0.671
vn 0.7402 -0.0332 0.6716
vn 0.7401 -0.0327 0.6717
vn 0.7379 -0.0332 0.6741
vn 0.7357 -0.0334 0.6765
vn 0.7356 -0.0339 0.6765
vn 0.7356 -0.0377 0.6764
vn 0.7423 -0.0324 0.6692
vn 0.743 -0.0361 0.6683
vn 0.7453 -0.0348 0.6658
vn 0.7444 -0.0313 0.6669
vn 0.7443 -0.0308 0.6671
vn 0.7423 -0.0319 0.6693
vn 0.7465 -0.0299 0.6647
vn 0.7476 -0.0332 0.6633
vn 0.7497 -0.0313 0.661
vn 0.7484 -0.0282 0.6626
vn 0.7482 -0.0278 0.6628
vn 0.7463 -0.0294 0.665
vn 0.7502 -0.0262 0.6606
vn 0.7517 -0.0291 0.6588
vn 0.7536 -0.0266 0.6568
vn 0.7519 -0.024 0.6588
vn 0.7516 -0.0236 0.6592
vn 0.75 -0.0258 0.6609
vn 0.7534 -0.0215 0.6572
vn 0.7553 -0.0239 0.6549
vn 0.7568 -0.021 0.6533
vn 0.7548 -0.0188 0.6557
vn 0.7545 -0.0185 0.6561
vn 0.7531 -0.0211 0.6576
vn 0.7559 -0.0159 0.6545
vn 0.7581 -0.0178 0.6519
vn 0.7591 -0.0144 0.6507
vn 0.7568 -0.013 0.6534
vn 0.7565 -0.0128 0.6539
vn 0.7556 -0.0157 0.6548
vn 0.7576 -0.0098 0.6526
vn 0.76 -0.0109 0.6498
vn 0.7606 -0.0073 0.6492
vn 0.7582 -0.0066 0.652
vn 0.7578 -0.0065 0.6524
vn 0.7573 -0.0097 0.653
vn 0.7585 -0.0033 0.6516
vn 0.7609 -0.0037 0.6488
vn 0.7611 0 0.6486
vn 0.7586 0 0.6515
vn 0.7582 0 0.652
vn 0.7581 -0.0032 0.6521
vn 0.7585 0.0033 0.6516
vn 0.7609 0.0037 0.6488
vn 0.7606 0.0073 0.6492
vn 0.7582 0.0066 0.652
vn 0.7578 0.0065 0.6524
vn 0.7581 0.0033 0.6521
vn 0.7576 0.0098 0.6526
vn 0.76 0.011 0.6498
vn 0.7591 0.0144 0.6507
vn 0.7569 0.013 0.6534
vn 0.7565 0.0128 0.6538
vn 0.7573 0.0097 0.653
vn 0.7559 0.016 0.6545
vn 0.758 0.0177 0.6519
vn 0.7568 0.0209 0.6533
vn 0.7548 0.0188 0.6557
vn 0.7545 0.0186 0.6561
vn 0.7556 0.0158 0.6549
vn 0.7534 0.0215 0.6572
vn 0.7553 0.0239 0.6549
vn 0.7536 0.0266 0.6568
vn 0.7519 0.024 0.6588
vn 0.7516 0.0236 0.6592
vn 0.7531 0.0211 0.6575
vn 0.7502 0.0262 0.6606
vn 0.7517 0.0291 0.6588
vn 0.7497 0.0313 0.661
vn 0.7484 0.0282 0.6626
vn 0.7482 0.0278 0.6629
vn 0.75 0.0258 0.6609
vn 0.7465 0.0299 0.6647
vn 0.7476 0.0332 0.6633
vn 0.7453 0.0349 0.6658
vn 0.7444 0.0313 0.6669
vn 0.7443 0.0308 0.6671
vn 0.7463 0.0294 0.6649
vn 0.7423 0.0324 0.6692
vn 0.743 0.0361 0.6683
vn 0.7405 0.037 0.671
vn 0.7401 0.0332 0.6716
vn 0.7401 0.0327 0.6718
vn 0.7422 0.0319 0.6694
vn 0.7379 0.0338 0.674
vn 0.7381 0.0375 0.6737
vn 0.7356 0.0377 0.6764
vn 0.7356 0.0339 0.6765
vn 0.7357 0.0334 0.6765
vn 0.7379 0.0332 0.6741
vn 0.7334 0.0337 0.6789
vn 0.7331 0.0375 0.6791
vn 0.7306 0.037 0.6818
vn 0.7312 0.0332 0.6814
vn 0.7312 0.0327 0.6813
vn 0.7334 0.0332 0.6789
vn 0.729 0.0324 0.6837
vn 0.7281 0.0361 0.6844
vn 0.7258 0.0348 0.687
vn 0.7269 0.0313 0.6861
vn 0.727 0.0308 0.6859
vn 0.7292 0.0319 0.6836
vn 0.7248 0.0299 0.6883
vn 0.7235 0.0333 0.6895
vn 0.7214 0.0313 0.6918
vn 0.7229 0.0282 0.6904
vn 0.7231 0.0277 0.6902
vn 0.725 0.0294 0.6881
vn 0.7211 0.0262 0.6923
vn 0.7194 0.0291 0.694
vn 0.7175 0.0267 0.696
vn 0.7194 0.024 0.6941
vn 0.7197 0.0235 0.6939
vn 0.7214 0.0258 0.6921
vn 0.7179 0.0215 0.6958
vn 0.7158 0.0239 0.6978
vn 0.7143 0.0209 0.6995
vn 0.7166 0.0188 0.6972
vn 0.7169 0.0185 0.6969
vn 0.7182 0.0211 0.6955
vn 0.7154 0.016 0.6985
vn 0.713 0.0178 0.7009
vn 0.712 0.0144 0.702
vn 0.7144 0.013 0.6995
vn 0.7148 0.0128 0.6992
vn 0.7158 0.0157 0.6981
vn 0.7137 0.0098 0.7004
vn 0.7111 0.0109 0.703
vn 0.7105 0.0073 0.7036
vn 0.7131 0.0066 0.701
vn 0.7135 0.0065 0.7006
vn 0.7141 0.0097 0.7
vn 0.7128 0.0033 0.7013
vn 0.7101 0.0037 0.704
vn 0.71 0 0.7042
vn 0.7127 0 0.7014
vn 0.7131 0 0.7011
vn 0.7132 0.0032 0.701
vn 0.7128 -0.0033 0.7013
vn 0.7101 -0.0037 0.704
vn 0.7105 -0.0073 0.7036
vn 0.7132 -0.0066 0.7009
vn 0.7136 -0.0065 0.7006
vn 0.7132 -0.0032 0.7009
vn 0.7137 -0.0099 0.7003
vn 0.7111 -0.0109 0.703
vn 0.712 -0.0144 0.702
vn 0.7144 -0.013 0.6995
vn 0.7148 -0.0128 0.6992
vn 0.7141 -0.0097 0.7
vn 0.7154 -0.016 0.6985
vn 0.713 -0.0178 0.7009
vn 0.7143 -0.021 0.6995
vn 0.7166 -0.0188 0.6972
vn 0.7169 -0.0185 0.6969
vn 0.7158 -0.0157 0.6982
vn 0.7179 -0.0215 0.6958
vn 0.7158 -0.0239 0.6979
vn 0.7175 -0.0267 0.696
vn 0.7194 -0.024 0.6941
vn 0.7197 -0.0236 0.6938
vn 0.7182 -0.0211 0.6955
vn 0.7211 -0.0262 0.6923
vn 0.7194 -0.0291 0.694
vn 0.7214 -0.0313 0.6918
vn 0.7229 -0.0282 0.6903
vn 0.7232 -0.0277 0.6901
vn 0.7214 -0.0258 0.6921
vn 0.7248 -0.0299 0.6883
vn 0.7235 -0.0332 0.6895
vn 0.7258 -0.0348 0.687
vn 0.7269 -0.0313 0.686
vn 0.727 -0.0308 0.6859
vn 0.725 -0.0294 0.6881
vn 0.729 -0.0324 0.6837
vn 0.7281 -0.0361 0.6844
vn 0.7306 -0.037 0.6818
vn 0.7312 -0.0333 0.6814
vn 0.7312 -0.0327 0.6813
vn 0.7292 -0.0319 0.6836
vn 0.7334 -0.0337 0.6789
vn 0.7331 -0.0375 0.6791
vn 0.7334 -0.0332 0.679
f 1/1/1 2/2/2 3/3/3
f 1/1/1 3/3/3 4/4/4
f 1/1/1 4/4/4 5/5/5
f 1/1/1 5/5/5 6/6/6
f 1/1/1 6/6/6 7/7/7
f 1/1/1 7/7/7 8/8/8
f 1/1/1 8/8/8 9/9/9
f 1/1/1 9/9/9 2/2/2
f 10/10/10 11/11/11 12/12/12
f 10/10/10 12/12/12 13/13/13
f 10/10/10 13/13/13 14/14/14
f 10/10/10 14/14/14 15/15/15
f 10/10/10 15/15/15 5/5/5
f 10/10/10 5/5/5 4/4/4
f 10/10/10 4/4/4 3/3/3
f 10/10/10 3/3/3 11/11/11
f 16/16/16 17/17/17 18/18/18
f 16/16/16 18/18/18 19/19/19
f 16/16/16 19/19/19 20/20/20
f 16/16/16 20/20/20 21/21/21
f 16/16/16 21/21/21 14/14/14
f 16/16/16 14/14/14 13/13/13
f 16/16/16 13/13/13 12/12/12
f 16/16/16 12/12/12 17/17/17
f 22/22/22 23/23/23 24/24/24
f 22/22/22 24/24/24 25/25/25
f 22/22/22 25/25/25 26/26/26
f 22/22/22 26/26/26 27/27/27
f 22/22/22 27/27/27 20/20/20
f 22/22/22 20/20/20 19/19/19
f 22/22/22 19/19/19 18/18/18
f 22/22/22 18/18/18 23/23/23
f 28/28/28 29/29/29 30/30/30
f 28/28/28 30/30/30 31/31/31
f 28/28/28 31/31/31 32/32/32
f 28/28/28 32/32/32 33/33/33
f 28/28/28 33/33/33 26/26/26
f 28/28/28 26/26/26 25/25/25
f 28/28/28 25/25/25 24/24/24
f 28/28/28 24/24/24 29/29/29
f 34/34/34 35/35/35 36/36/36
f 34/34/34 36/36/36 37/37/37
f 34/34/34 37/37/37 38/38/38
f 34/34/34 38/38/38 39/39/39
f 34/34/34 39/39/39 32/32/32
f 34/34/34 32/32/32 31/31/31
f 34/34/34 31/31/31 30/30/30
f 34/34/34 30/30/30 35/35/35
f 40/40/40 41/41/41 42/42/42
f 40/40/40 42/42/42 43/43/43
f 40/40/40 43/43/43 44/44/44
f 40/40/40 44/44/44 45/45/45
f 40/40/40 45/45/45 38/38/38
f 40/40/40 38/38/38 37/37/37
f 40/40/40 37/37/37 36/36/36
f 40/40/40 36/36/36 41/41/41
f 46/46/46 47/47/47 48/48/48
f 46/46/46 48/48/48 49/49/49
f 46/46/46 49/49/49 50/50/50
f 46/46/46 50/50/50 51/51/51
f 46/46/46 51/51/51 44/44/44
f 46/46/46 44/44/44 43/43/43
f 46/46/46 43/43/43 42/42/42
f 46/46/46 42/42/42 47/47/47
f 52/52/52 53/53/53 54/54/54
f 52/52/52 54/54/54 55/55/55
f 52/52/52 55/55/55 56/56/56
f 52/52/52 56/56/56 57/57/57
f 52/52/52 57/57/57 50/50/50
f 52/52/52 50/50/50 49/49/49
f 52/52/52 49/49/49 48/48/48
f 52/52/52 48/48/48 53/53/53
f 58/58/58 59/59/59 60/60/60
f 58/58/58 60/60/60 61/61/61
f 58/58/58 61/61/61 62/62/62
f 58/58/58 62/62/62 63/63/63
f 58/58/58 63/63/63 56/56/56
f 58/58/58 56/56/56 55/55/55
f 58/58/58 55/55/55 54/54/54
f 58/58/58 54/54/54 59/59/59
f 64/64/64 65/65/65 66/66/66
f 64/64/64 66/66/66 67/67/67
f 64/64/64 67/67/67 68/68/68
f 64/64/64 68/68/68 69/69/69
f 64/64/64 69/69/69 62/62/62
f 64/64/64 62/62/62 61/61/61
f 64/64/64 61/61/61 60/60/60
f 64/64/64 60/60/60 65/65/65
f 70/70/70 71/71/71 72/72/72
f 70/70/70 72/72/72 73/73/73
f 70/70/70 73/73/73 74/74/74
f 70/70/70 74/74/74 75/75/75
f 70/70/70 75/75/75 68/68/68
f 70/70/70 68/68/68 67/67/67
f 70/70/70 67/67/67 66/66/66
f 70/70/70 66/66/66 71/71/71
f 76/76/76 77/77/77 78/78/78
f 76/76/76 78/78/78 79/79/79
f 76/76/76 79/79/79 80/80/80
f 76/76/76 80/80/80 81/81/81
f 76/76/76 81/81/81 74/74/74
f 76/76/76 74/74/74 73/73/73
f 76/76/76 73/73/73 72/72/72
f 76/76/76 72/72/72 77/77/77
f 82/82/82 83/83/83 84/84/84
f 82/82/82 84/84/84 85/85/85
f 82/82/82 85/85/85 86/86/86
f 82/82/82 86/86/86 87/87/87
f 82/82/82 87/87/87 80/80/80
f 82/82/82 80/80/80 79/79/79
f 82/82/82 79/79/79 78/78/78
f 82/82/82 78/78/78 83/83/83
f 88/88/88 89/89/89 90/90/90
f 88/88/88 90/90/90 91/91/91
f 88/88/88 91/91/91 92/92/92
f 88/88/88 92/92/92 93/93/93
f 88/88/88 93/93/93 86/86/86
f 88/88/88 86/86/86 85/85/85
f 88/88/88 85/85/85 84/84/84
f 88/88/88 84/84/84 89/89/89
f 94/94/94 95/95/95 96/96/96
f 94/94/94 96/96/96 97/97/97
f 94/94/94 97/97/97 98/98/98
f 94/94/94 98/98/98 99/99/99
f 94/94/94 99/99/99 92/92/92
f 94/94/94 92/92/92 91/91/91
f 94/94/94 91/91/91 90/90/90
f 94/94/94 90/90/90 95/95/95
f 100/100/100 101/101/101 102/102/102
f 100/100/100 102/102/102 103/103/103
f 100/100/100 103/103/103 104/104/104
f 100/100/100 104/104/104 105/105/105
f 100/100/100 105/105/105 98/98/98
f 100/100/100 98/98/98 97/97/97
f 100/100/100 97/97/97 96/96/96
f 100/100/100 96/96/96 101/101/101
f 106/106/106 107/107/107 108/108/108
f 106/106/106 108/108/108 109/109/109
f 106/106/106 109/109/109 110/110/110
f 106/106/106 110/110/110 111/111/111
f 106/106/106 111/111/111 104/104/104
f 106/106/106 104/104/104 103/103/103
f 106/106/106 103/103/103 102/102/102
f 106/106/106 102/102/102 107/107/107
f 112/112/112 113/113/113 114/114/114
f 112/112/112 114/114/114 115/115/115
f 112/112/112 115/115/115 116/116/116
f 112/112/112 116/116/116 117/117/117
f 112/112/112 117/117/117 110/110/110
f 112/112/112 110/110/110 109/109/109
f 112/112/112 109/109/109 108/108/108
f 112/112/112 108/108/108 113/113/113
f 118/118/118 119/119/119 120/120/120
f 118/118/118 120/120/120 121/121/121
f 118/118/118 121/121/121 122/122/122
f 118/118/118 122/122/122 123/123/123
f 118/118/118 123/123/123 116/116/116
f 118/118/118 116/116/116 115/115/115
f 118/118/118 115/115/115 114/114/114
f 118/118/118 114/114/114 119/119/119
f 124/124/124 125/125/125 126/126/126
f 124/124/124 126/126/126 127/127/127
f 124/124/124 127/127/127 128/128/128
f 124/124/124 128/128/128 129/129/129
f 124/124/124 129/129/129 122/122/122
f 124/124/124 122/122/122 121/121/121
f 124/124/124 121/121/121 120/120/120
f 124/124/124 120/120/120 125/125/125
f 130/130/130 131/131/131 132/132/132
f 130/130/130 132/132/132 133/133/133
f 130/130/130 133/133/133 134/134/134
f 130/130/130 134/134/134 135/135/135
f 130/130/130 135/135/135 128/128/128
f 130/130/130 128/128/128 127/127/127
f 130/130/130 127/127/127 126/126/126
f 130/130/130 126/126/126 131/131/131
f 136/136/136 137/137/137 138/138/138
f 136/136/136 138/138/138 139/139/139
f 136/136/136 139/139/139 140/140/140
f 136/136/136 140/140/140 141/141/141
f 136/136/136 141/141/141 134/134/134
f 136/136/136 134/134/134 133/133/133
f 136/136/136 133/133/133 132/132/132
f 136/136/136 132/132/132 137/137/137
f 142/142/142 143/143/143 144/144/144
f 142/142/142 144/144/144 145/145/145
f 142/142/142 145/145/145 146/146/146
f 142/142/142 146/146/146 147/147/147
f 142/142/142 147/147/147 140/140/140
f 142/142/142 140/140/140 139/139/139
f 142/142/142 139/139/139 138/138/138
f 142/142/142 138/138/138 143/143/143
f 148/148/148 149/149/149 150/150/150
f 148/148/148 150/150/150 151/151/151
f 148/148/148 151/151/151 152/152/152
f 148/148/148 152/152/152 153/153/153
f 148/148/148 153/153/153 146/146/146
f 148/148/148 146/146/146 145/145/145
f 148/148/148 145/145/145 144/144/144
f 148/148/148 144/144/144 149/149/149
f 154/154/154 155/155/155 156/156/156
f 154/154/154 156/156/156 157/157/157
f 154/154/154 157/157/157 158/158/158
f 154/154/154 158/158/158 159/159/159
f 154/154/154 159/159/159 152/152/152
f 154/154/154 152/152/152 151/151/151
f 154/154/154 151/151/151 150/150/150
f 154/154/154 150/150/150 155/155/155
f 160/160/160 161/161/161 162/162/162
f 160/160/160 162/162/162 163/163/163
f 160/160/160 163/163/163 164/164/164
f 160/160/160 164/164/164 165/165/165
f 160/160/160 165/165/165 158/158/158
f 160/160/160 158/158/158 157/157/157
f 160/160/160 157/157/157 156/156/156
f 160/160/160 156/156/156 161/161/161
f 166/166/166 167/167/167 168/168/168
f 166/166/166 168/168/168 169/169/169
f 166/166/166 169/169/169 170/170/170
f 166/166/166 170/170/170 171/171/171
f 166/166/166 171/171/171 164/164/164
f 166/166/166 164/164/164 163/163/163
f 166/166/166 163/163/163 162/162/162
f 166/166/166 162/162/162 167/167/167
f 172/172/172 173/173/173 174/174/174
f 172/172/172 174/174/174 175/175/175
f 172/172/172 175/175/175 176/176/176
f 172/172/172 176/176/176 177/177/177
f 172/172/172 177/177/177 170/170/170
f 172/172/172 170/170/170 169/169/169
f 172/172/172 169/169/169 168/168/168
f 172/172/172 168/168/168 173/173/173
f 178/178/178 179/179/179 180/180/180
f 178/178/178 180/180/180 181/181/181
f 178/178/178 181/181/181 182/182/182
f 178/178/178 182/182/182 183/183/183
f 178/178/178 183/183/183 176/176/176
f 178/178/178 176/176/176 175/175/175
f 178/178/178 175/175/175 174/174/174
f 178/178/178 174/174/174 179/179/179
f 184/184/184 185/185/185 186/186/186
f 184/184/184 186/186/186 187/187/187
f 184/184/184 187/187/187 188/188/188
f 184/184/184 188/188/188 189/189/189
f 184/184/184 189/189/189 182/182/182
f 184/184/184 182/182/182 181/181/181
f 184/184/184 181/181/181 180/180/180
f 184/184/184 180/180/180 185/185/185
f 190/190/190 191/191/191 9/9/9
f 190/190/190 9/9/9 8/8/8
f 190/190/190 8/8/8 7/7/7
f 190/190/190 7/7/7 192/192/192
f 190/190/190 192/192/192 188/188/188
f 190/190/190 188/188/188 187/187/187
f 190/190/190 187/187/187 186/186/186
f 190/190/190 186/186/186 191/191/191
