v -2.34327 0.93108 3.71791
v -2.20175 1.14599 3.70643
v -2.20175 0.93108 3.71791
v -2.34327 1.14599 3.70643
v -2.20175 0.932413 3.74285
v -2.34327 1.14732 3.73137
v -2.34327 0.932413 3.74285
v -2.20175 1.14732 3.73137
v -2.20093 0.931148 3.71917
v -2.34327 0.93108 3.71791
v -2.20175 0.93108 3.71791
v -2.34327 0.931148 3.71917
v -2.20093 0.932345 3.74159
v -2.34327 0.932345 3.74159
v -2.20175 0.932413 3.74285
v -2.34327 0.932413 3.74285
v -2.34327 0.932413 3.74285
v -2.34327 1.14725 3.73011
v -2.34327 0.932345 3.74159
v -2.34327 1.14732 3.73137
v -2.34327 1.14605 3.70769
v -2.34327 0.931148 3.71917
v -2.34327 1.14599 3.70643
v -2.34327 0.93108 3.71791
v -2.20175 0.93108 3.71791
v -2.20093 1.14605 3.70769
v -2.20093 0.931148 3.71917
v -2.20175 1.14599 3.70643
v -2.20093 0.931148 3.71917
v -2.20093 1.14725 3.73011
v -2.20093 0.932345 3.74159
v -2.20093 1.14605 3.70769
v -2.20093 0.932345 3.74159
v -2.20175 1.14732 3.73137
v -2.20175 0.932413 3.74285
v -2.20093 1.14725 3.73011
v -2.34327 1.14732 3.73137
v -2.20093 1.14725 3.73011
v -2.34327 1.14725 3.73011
v -2.20175 1.14732 3.73137
v -2.34327 1.14725 3.73011
v -2.20093 1.14605 3.70769
v -2.34327 1.14605 3.70769
v -2.20093 1.14725 3.73011
v -2.34327 1.14605 3.70769
v -2.20175 1.14599 3.70643
v -2.34327 1.14599 3.70643
v -2.20093 1.14605 3.70769
vt 0.821285 0.002481
vt 0.820412 0.93701
vt 0.820412 0.002481
vt 0.821285 0.93701
vt 0.7823 0.002481
vt 0.78123 0.93701
vt 0.78123 0.002481
vt 0.7823 0.93701
vt 0.987148 0.008603
vt 0.989829 0.127444
vt 0.989829 0.008603
vt 0.987148 0.127444
vt 0.946689 0.008603
vt 0.946689 0.127444
vt 0.943949 0.008603
vt 0.943949 0.127444
vt 0.943949 0.127444
vt 0.946689 0.256778
vt 0.946689 0.127444
vt 0.943949 0.256778
vt 0.987148 0.256778
vt 0.987148 0.127444
vt 0.989829 0.256778
vt 0.989829 0.127444
vt 0.820412 0.002481
vt 0.819206 0.93701
vt 0.819206 0.002481
vt 0.820412 0.93701
vt 0.819206 0.002481
vt 0.784315 0.93701
vt 0.784315 0.002481
vt 0.819206 0.93701
vt 0.784315 0.002481
vt 0.7823 0.93701
vt 0.7823 0.002481
vt 0.784315 0.93701
vt 0.943949 0.256778
vt 0.946689 0.375415
vt 0.946689 0.256778
vt 0.943949 0.375415
vt 0.946689 0.256778
vt 0.987148 0.375415
vt 0.987148 0.256778
vt 0.946689 0.375415
vt 0.987148 0.256778
vt 0.989829 0.375415
vt 0.989829 0.256778
vt 0.987148 0.375415
vn -0 -0.0533 -0.9986
vn -0 -0.0533 -0.9986
vn -0 -0.0533 -0.9986
vn -0 -0.0533 -0.9986
vn 0 0.0533 0.9986
vn 0 0.0533 0.9986
vn 0 0.0533 0.9986
vn 0 0.0533 0.9986
vn 0 -0.9986 0.0533
vn 0 -0.9986 0.0533
vn 0 -0.9986 0.0533
vn 0 -0.9986 0.0533
vn 0 -0.9986 0.0533
vn 0 -0.9986 0.0533
vn 0 -0.9986 0.0533
vn 0 -0.9986 0.0533
vn -1 -0 -0
vn -1 -0 -0
vn -1 -0 -0
vn -1 -0 -0
vn -1 -0 -0
vn -1 -0 -0
vn -1 -0 -0
vn -1 -0 -0
vn 0.8375 -0.0292 -0.5457
vn 0.8375 -0.0292 -0.5457
vn 0.8375 -0.0292 -0.5457
vn 0.8375 -0.0292 -0.5457
vn 1 0 0
vn 1 0 0
vn 1 0 0
vn 1 0 0
vn 0.8375 0.0291 0.5456
vn 0.8375 0.0291 0.5456
vn 0.8375 0.0291 0.5456
vn 0.8375 0.0291 0.5456
vn 0 0.9986 -0.0534
vn 0 0.9986 -0.0534
vn 0 0.9986 -0.0534
vn 0 0.9986 -0.0534
vn 0 0.9986 -0.0533
vn 0 0.9986 -0.0533
vn 0 0.9986 -0.0533
vn 0 0.9986 -0.0533
vn 0 0.9986 -0.0535
vn 0 0.9986 -0.0535
vn 0 0.9986 -0.0535
vn 0 0.9986 -0.0535
f 1/1/1 2/2/2 3/3/3
f 1/1/1 4/4/4 2/2/2
f 5/5/5 6/6/6 7/7/7
f 5/5/5 8/8/8 6/6/6
f 9/9/9 10/10/10 11/11/11
f 9/9/9 12/12/12 10/10/10
f 12/12/12 13/13/13 14/14/14
f 12/12/12 9/9/9 13/13/13
f 14/14/14 15/15/15 16/16/16
f 14/14/14 13/13/13 15/15/15
f 17/17/17 18/18/18 19/19/19
f 17/17/17 20/20/20 18/18/18
f 19/19/19 21/21/21 22/22/22
f 19/19/19 18/18/18 21/21/21
f 22/22/22 23/23/23 24/24/24
f 22/22/22 21/21/21 23/23/23
f 25/25/25 26/26/26 27/27/27
f 25/25/25 28/28/28 26/26/26
f 29/29/29 30/30/30 31/31/31
f 29/29/29 32/32/32 30/30/30
f 33/33/33 34/34/34 35/35/35
f 33/33/33 36/36/36 34/34/34
f 37/37/37 38/38/38 39/39/39
f 37/37/37 40/40/40 38/38/38
f 41/41/41 42/42/42 43/43/43
f 41/41/41 44/44/44 42/42/42
f 45/45/45 46/46/46 47/47/47
f 45/45/45 48/48/48 46/46/46
