v 1.41066 2.39871 0.739927
v 1.41111 2.39871 0.740661
v 1.41111 2.08077 0.740661
v 1.41066 2.08077 0.739927
v 1.41111 2.39871 0.740661
v 1.41196 2.39871 0.74064
v 1.41196 2.08077 0.74064
v 1.41111 2.08077 0.740661
v 1.41196 2.39871 0.74064
v 1.41238 2.39871 0.739886
v 1.41238 2.08077 0.739886
v 1.41196 2.08077 0.74064
v 1.41107 2.39871 0.739173
v 1.41193 2.39871 0.739153
v 1.41193 2.08077 0.739153
v 1.41107 2.08077 0.739173
v 1.41107 2.39871 0.739173
v 1.41066 2.39871 0.739927
v 1.41066 2.08077 0.739927
v 1.41107 2.08077 0.739173
v 1.41238 2.39871 0.739886
v 1.41193 2.39871 0.739153
v 1.41193 2.08077 0.739153
v 1.41238 2.08077 0.739886
vt 0.0988818 0.980769
vt 0.0166667 0.980769
vt 0.0166667 0.0192308
vt 0.0988818 0.0192308
vt 0.583333 0.980769
vt 0.416667 0.980769
vt 0.416667 0.0192308
vt 0.583333 0.0192308
vt 0.783333 0.980769
vt 0.698821 0.980769
vt 0.698821 0.0192308
vt 0.783333 0.0192308
vt 0.383333 0.980769
vt 0.216667 0.980769
vt 0.216667 0.0192308
vt 0.383333 0.0192308
vt 0.183333 0.980769
vt 0.0988818 0.980769
vt 0.0988818 0.0192308
vt 0.183333 0.0192308
vt 0.698821 0.980769
vt 0.616667 0.980769
vt 0.616667 0.0192308
vt 0.698821 0.0192308
vn 0.854078 0 -0.520145
vn 0.854078 0 -0.520145
vn 0.854078 0 -0.520145
vn 0.854078 0 -0.520145
vn -0.0245133 0 -0.9997
vn -0.0245133 0 -0.999699
vn -0.0245133 0 -0.9997
vn -0.0245133 0 -0.999699
vn -0.877545 0 -0.479494
vn -0.877545 0 -0.479494
vn -0.877545 0 -0.479494
vn -0.877545 0 -0.479494
vn -0.0232382 0 -0.99973
vn -0.0232382 0 -0.99973
vn -0.0232382 0 -0.99973
vn -0.0232382 0 -0.99973
vn 0.878012 0 0.478638
vn 0.878012 0 0.478638
vn 0.878012 0 0.478638
vn 0.878012 0 0.478638
vn -0.85374 0 0.5207
vn -0.85374 0 0.5207
vn -0.85374 0 0.5207
vn -0.85374 0 0.5207
f 1/1/1 2/2/2 3/3/3
f 1/1/1 3/3/3 4/4/4
f 5/5/5 6/6/6 7/7/7
f 5/5/5 7/7/7 8/8/8
f 9/9/9 10/10/10 11/11/11
f 9/9/9 11/11/11 12/12/12
f 13/13/13 14/14/14 15/15/15
f 13/13/13 15/15/15 16/16/16
f 17/17/17 18/18/18 19/19/19
f 17/17/17 19/19/19 20/20/20
f 21/21/21 22/22/22 23/23/23
f 21/21/21 23/23/23 24/24/24
