v -0.983393 2.37736 0.746277
v -0.982534 2.37736 0.746299
v -0.982534 2.05941 0.746299
v -0.983393 2.05941 0.746277
v -0.982534 2.37736 0.746299
v -0.982086 2.37736 0.745567
v -0.982086 2.05941 0.745567
v -0.982534 2.05941 0.746299
v -0.982086 2.37736 0.745567
v -0.982496 2.37736 0.744812
v -0.982496 2.05941 0.744812
v -0.982086 2.05941 0.745567
v -0.983803 2.37736 0.745522
v -0.983354 2.37736 0.74479
v -0.983354 2.05941 0.74479
v -0.983803 2.05941 0.745522
v -0.983803 2.37736 0.745522
v -0.983393 2.37736 0.746277
v -0.983393 2.05941 0.746277
v -0.983803 2.05941 0.745522
v -0.982496 2.37736 0.744812
v -0.983354 2.37736 0.74479
v -0.983354 2.05941 0.74479
v -0.982496 2.05941 0.744812
vt 0.32949 0.980769
vt 0.216667 0.980769
vt 0.216667 0.0192308
vt 0.32949 0.0192308
vt 0.183333 0.980769
vt 0.101289 0.980769
vt 0.101289 0.0192308
vt 0.183333 0.0192308
vt 0.101289 0.980769
vt 0.0166667 0.980769
vt 0.0166667 0.0192308
vt 0.101289 0.0192308
vt 0.583333 0.980769
vt 0.416667 0.980769
vt 0.416667 0.0192308
vt 0.583333 0.0192308
vt 0.383333 0.980769
vt 0.32949 0.980769
vt 0.32949 0.0192308
vt 0.383333 0.0192308
vt 0.783333 0.980769
vt 0.616667 0.980769
vt 0.616667 0.0192308
vt 0.783333 0.0192308
vn 0.0256646 0 -0.999671
vn 0.0256646 0 -0.999671
vn 0.0256646 0 -0.999671
vn 0.0256646 0 -0.999671
vn -0.852943 0 -0.522003
vn -0.852943 0 -0.522003
vn -0.852943 0 -0.522003
vn -0.852943 0 -0.522003
vn -0.878777 0 0.477233
vn -0.878777 0 0.477233
vn -0.878777 0 0.477233
vn -0.878777 0 0.477233
vn -0.852418 0 -0.522861
vn -0.852418 0 -0.522861
vn -0.852418 0 -0.522861
vn -0.852418 0 -0.522861
vn 0.87879 0 -0.477208
vn 0.87879 0 -0.477208
vn 0.87879 0 -0.477208
vn 0.87879 0 -0.477208
vn -0.0256273 0 0.999672
vn -0.0256273 0 0.999672
vn -0.0256273 0 0.999672
vn -0.0256273 0 0.999672
f 1/1/1 2/2/2 3/3/3
f 1/1/1 3/3/3 4/4/4
f 5/5/5 6/6/6 7/7/7
f 5/5/5 7/7/7 8/8/8
f 9/9/9 10/10/10 11/11/11
f 9/9/9 11/11/11 12/12/12
f 13/13/13 14/14/14 15/15/15
f 13/13/13 15/15/15 16/16/16
f 17/17/17 18/18/18 19/19/19
f 17/17/17 19/19/19 20/20/20
f 21/21/21 22/22/22 23/23/23
f 21/21/21 23/23/23 24/24/24
