v -2.35926 0.931656 3.66311
v -2.187 1.14673 3.65556
v -2.187 0.931656 3.66311
v -2.35926 1.14673 3.65556
v -2.187 0.932531 3.68807
v -2.35926 1.14761 3.68053
v -2.35926 0.932531 3.68807
v -2.187 1.14761 3.68053
v -2.18617 0.9317 3.66437
v -2.35926 0.931656 3.66311
v -2.187 0.931656 3.66311
v -2.35926 0.9317 3.66437
v -2.18617 0.932487 3.68681
v -2.35926 0.932487 3.68681
v -2.35926 0.932487 3.68681
v -2.187 0.932531 3.68807
v -2.35926 0.932531 3.68807
v -2.18617 0.932487 3.68681
v -2.35926 0.932531 3.68807
v -2.35926 1.14757 3.67926
v -2.35926 0.932487 3.68681
v -2.35926 1.14761 3.68053
v -2.35926 1.14678 3.65683
v -2.35926 0.9317 3.66437
v -2.35926 1.14673 3.65556
v -2.35926 0.931656 3.66311
v -2.187 0.931656 3.66311
v -2.18617 1.14678 3.65683
v -2.18617 0.9317 3.66437
v -2.187 1.14673 3.65556
v -2.18617 0.9317 3.66437
v -2.18617 1.14757 3.67926
v -2.18617 0.932487 3.68681
v -2.18617 1.14678 3.65683
v -2.18617 0.932487 3.68681
v -2.187 1.14761 3.68053
v -2.187 0.932531 3.68807
v -2.18617 1.14757 3.67926
v -2.35926 1.14761 3.68053
v -2.18617 1.14757 3.67926
v -2.35926 1.14757 3.67926
v -2.187 1.14761 3.68053
v -2.35926 1.14757 3.67926
v -2.18617 1.14678 3.65683
v -2.35926 1.14678 3.65683
v -2.18617 1.14757 3.67926
v -2.187 1.14673 3.65556
v -2.35926 1.14673 3.65556
vt 0.932659 0.002481
vt 0.930861 0.93701
vt 0.930861 0.002481
vt 0.932659 0.93701
vt 0.884981 0.002481
vt 0.883558 0.93701
vt 0.883558 0.002481
vt 0.884981 0.93701
vt 0.987148 0.008603
vt 0.989829 0.127444
vt 0.989829 0.008603
vt 0.987148 0.127444
vt 0.946689 0.008603
vt 0.946689 0.127444
vt 0.946689 0.127444
vt 0.943949 0.008603
vt 0.943949 0.127444
vt 0.946689 0.008603
vt 0.943949 0.127444
vt 0.946689 0.256778
vt 0.946689 0.127444
vt 0.943949 0.256778
vt 0.987148 0.256778
vt 0.987148 0.127444
vt 0.989829 0.256778
vt 0.989829 0.127444
vt 0.930861 0.002481
vt 0.928121 0.93701
vt 0.928121 0.002481
vt 0.930861 0.93701
vt 0.928121 0.002481
vt 0.887662 0.93701
vt 0.887662 0.002481
vt 0.928121 0.93701
vt 0.887662 0.002481
vt 0.884981 0.93701
vt 0.884981 0.002481
vt 0.887662 0.93701
vt 0.943949 0.256778
vt 0.946689 0.375415
vt 0.946689 0.256778
vt 0.943949 0.375415
vt 0.946689 0.256778
vt 0.987148 0.375415
vt 0.987148 0.256778
vt 0.946689 0.375415
vt 0.989829 0.375415
vt 0.989829 0.256778
vn -0 -0.035 -0.9994
vn -0 -0.035 -0.9994
vn -0 -0.035 -0.9994
vn -0 -0.035 -0.9994
vn 0 0.035 0.9994
vn 0 0.035 0.9994
vn 0 0.035 0.9994
vn 0 0.035 0.9994
vn 0 -0.9994 0.035
vn 0 -0.9994 0.035
vn 0 -0.9994 0.035
vn 0 -0.9994 0.035
vn 0 -0.9994 0.035
vn 0 -0.9994 0.035
vn 0 -0.9994 0.0351
vn 0 -0.9994 0.0351
vn 0 -0.9994 0.0351
vn 0 -0.9994 0.0351
vn -1 -0 -0
vn -1 -0 -0
vn -1 -0 -0
vn -1 -0 -0
vn -1 -0 -0
vn -1 -0 -0
vn -1 -0 -0
vn -1 -0 -0
vn 0.8375 -0.0191 -0.5461
vn 0.8375 -0.0191 -0.5461
vn 0.8375 -0.0191 -0.5461
vn 0.8375 -0.0191 -0.5461
vn 1 0 0
vn 1 0 0
vn 1 0 0
vn 1 0 0
vn 0.8375 0.0192 0.5462
vn 0.8375 0.0192 0.5462
vn 0.8375 0.0192 0.5462
vn 0.8375 0.0192 0.5462
vn 0 0.9994 -0.0351
vn 0 0.9994 -0.0351
vn 0 0.9994 -0.0351
vn 0 0.9994 -0.0351
vn 0 0.9994 -0.035
vn 0 0.9994 -0.035
vn 0 0.9994 -0.035
vn 0 0.9994 -0.035
vn 0 0.9994 -0.035
vn 0 0.9994 -0.035
f 1/1/1 2/2/2 3/3/3
f 1/1/1 4/4/4 2/2/2
f 5/5/5 6/6/6 7/7/7
f 5/5/5 8/8/8 6/6/6
f 9/9/9 10/10/10 11/11/11
f 9/9/9 12/12/12 10/10/10
f 12/12/12 13/13/13 14/14/14
f 12/12/12 9/9/9 13/13/13
f 15/15/15 16/16/16 17/17/17
f 15/15/15 18/18/18 16/16/16
f 19/19/19 20/20/20 21/21/21
f 19/19/19 22/22/22 20/20/20
f 21/21/21 23/23/23 24/24/24
f 21/21/21 20/20/20 23/23/23
f 24/24/24 25/25/25 26/26/26
f 24/24/24 23/23/23 25/25/25
f 27/27/27 28/28/28 29/29/29
f 27/27/27 30/30/30 28/28/28
f 31/31/31 32/32/32 33/33/33
f 31/31/31 34/34/34 32/32/32
f 35/35/35 36/36/36 37/37/37
f 35/35/35 38/38/38 36/36/36
f 39/39/39 40/40/40 41/41/41
f 39/39/39 42/42/42 40/40/40
f 43/43/43 44/44/44 45/45/45
f 43/43/43 46/46/46 44/44/44
f 45/45/45 47/47/47 48/48/48
f 45/45/45 44/44/44 47/47/47
