v -2.28424 0.931875 3.81222
v -2.17962 1.10028 3.81222
v -2.17962 0.931875 3.81222
v -2.28424 1.10028 3.81222
v -2.17962 0.931875 3.84841
v -2.28424 1.10028 3.84841
v -2.28424 0.931875 3.84841
v -2.17962 1.10028 3.84841
v -2.17879 0.931875 3.81348
v -2.28424 0.931875 3.81222
v -2.17962 0.931875 3.81222
v -2.28424 0.931875 3.81348
v -2.17879 0.931875 3.84714
v -2.28424 0.931875 3.84714
v -2.17962 0.931875 3.84841
v -2.28424 0.931875 3.84841
v -2.28424 0.931875 3.84841
v -2.28424 1.10028 3.84714
v -2.28424 0.931875 3.84714
v -2.28424 1.10028 3.84841
v -2.28424 1.10028 3.81348
v -2.28424 0.931875 3.81348
v -2.28424 1.10028 3.81222
v -2.28424 0.931875 3.81222
v -2.17962 0.931875 3.81222
v -2.17879 1.10028 3.81348
v -2.17879 0.931875 3.81348
v -2.17962 1.10028 3.81222
v -2.17879 0.931875 3.81348
v -2.17879 1.10028 3.84714
v -2.17879 0.931875 3.84714
v -2.17879 1.10028 3.81348
v -2.17879 0.931875 3.84714
v -2.17962 1.10028 3.84841
v -2.17962 0.931875 3.84841
v -2.17879 1.10028 3.84714
v -2.28424 1.10028 3.84841
v -2.17879 1.10028 3.84714
v -2.28424 1.10028 3.84714
v -2.17962 1.10028 3.84841
v -2.17879 1.10028 3.81348
v -2.28424 1.10028 3.81348
v -2.17962 1.10028 3.81222
v -2.28424 1.10028 3.81222
vt 0.608766 0.002481
vt 0.606968 0.784273
vt 0.606968 0.002481
vt 0.608766 0.784273
vt 0.506922 0.002481
vt 0.505498 0.784273
vt 0.505498 0.002481
vt 0.506922 0.784273
vt 0.987148 0.008603
vt 0.989829 0.127444
vt 0.989829 0.008603
vt 0.987148 0.127444
vt 0.946689 0.008603
vt 0.946689 0.127444
vt 0.943949 0.008603
vt 0.943949 0.127444
vt 0.943949 0.127444
vt 0.946689 0.256778
vt 0.946689 0.127444
vt 0.943949 0.256778
vt 0.987148 0.256778
vt 0.987148 0.127444
vt 0.989829 0.256778
vt 0.989829 0.127444
vt 0.606968 0.002481
vt 0.604229 0.784273
vt 0.604229 0.002481
vt 0.606968 0.784273
vt 0.604229 0.002481
vt 0.509603 0.784273
vt 0.509603 0.002481
vt 0.604229 0.784273
vt 0.509603 0.002481
vt 0.506922 0.784273
vt 0.506922 0.002481
vt 0.509603 0.784273
vt 0.943949 0.256778
vt 0.946689 0.375415
vt 0.946689 0.256778
vt 0.943949 0.375415
vt 0.987148 0.375415
vt 0.987148 0.256778
vt 0.989829 0.375415
vt 0.989829 0.256778
vn -0 -0 -1
vn -0 -0 -1
vn -0 -0 -1
vn -0 -0 -1
vn 0 0 1
vn 0 0 1
vn 0 0 1
vn 0 0 1
vn -0 -1 -0
vn -0 -1 -0
vn -0 -1 -0
vn -0 -1 -0
vn -0 -1 -0
vn -0 -1 -0
vn -0 -1 -0
vn -0 -1 -0
vn -1 -0 -0
vn -1 -0 -0
vn -1 -0 -0
vn -1 -0 -0
vn -1 -0 -0
vn -1 -0 -0
vn -1 -0 -0
vn -1 -0 -0
vn 0.8375 0 -0.5465
vn 0.8375 0 -0.5465
vn 0.8375 0 -0.5465
vn 0.8375 0 -0.5465
vn 1 0 0
vn 1 0 0
vn 1 0 0
vn 1 0 0
vn 0.8376 0 0.5464
vn 0.8376 0 0.5464
vn 0.8376 0 0.5464
vn 0.8376 0 0.5464
vn 0 1 0
vn 0 1 0
vn 0 1 0
vn 0 1 0
vn 0 1 0
vn 0 1 0
vn 0 1 0
vn 0 1 0
f 1/1/1 2/2/2 3/3/3
f 1/1/1 4/4/4 2/2/2
f 5/5/5 6/6/6 7/7/7
f 5/5/5 8/8/8 6/6/6
f 9/9/9 10/10/10 11/11/11
f 9/9/9 12/12/12 10/10/10
f 12/12/12 13/13/13 14/14/14
f 12/12/12 9/9/9 13/13/13
f 14/14/14 15/15/15 16/16/16
f 14/14/14 13/13/13 15/15/15
f 17/17/17 18/18/18 19/19/19
f 17/17/17 20/20/20 18/18/18
f 19/19/19 21/21/21 22/22/22
f 19/19/19 18/18/18 21/21/21
f 22/22/22 23/23/23 24/24/24
f 22/22/22 21/21/21 23/23/23
f 25/25/25 26/26/26 27/27/27
f 25/25/25 28/28/28 26/26/26
f 29/29/29 30/30/30 31/31/31
f 29/29/29 32/32/32 30/30/30
f 33/33/33 34/34/34 35/35/35
f 33/33/33 36/36/36 34/34/34
f 37/37/37 38/38/38 39/39/39
f 37/37/37 40/40/40 38/38/38
f 39/39/39 41/41/41 42/42/42
f 39/39/39 38/38/38 41/41/41
f 42/42/42 43/43/43 44/44/44
f 42/42/42 41/41/41 43/43/43
