v -2.31622 0.661705 3.65898
v -2.187 0.852368 3.65582
v -2.187 0.661705 3.65898
v -2.31622 0.852368 3.65582
v -2.187 0.662003 3.67695
v -2.31622 0.852665 3.67379
v -2.31622 0.662003 3.67695
v -2.187 0.852665 3.67379
v -2.18617 0.661726 3.66024
v -2.31622 0.661705 3.65898
v -2.187 0.661705 3.65898
v -2.31622 0.661726 3.66024
v -2.18617 0.661982 3.67568
v -2.31622 0.661982 3.67568
v -2.187 0.662003 3.67695
v -2.31622 0.662003 3.67695
v -2.31622 0.662003 3.67695
v -2.31622 0.852644 3.67253
v -2.31622 0.661982 3.67568
v -2.31622 0.852665 3.67379
v -2.31622 0.852389 3.65709
v -2.31622 0.661726 3.66024
v -2.31622 0.852368 3.65582
v -2.31622 0.661705 3.65898
v -2.187 0.661705 3.65898
v -2.18617 0.852389 3.65709
v -2.18617 0.661726 3.66024
v -2.187 0.852368 3.65582
v -2.18617 0.661726 3.66024
v -2.18617 0.852644 3.67253
v -2.18617 0.661982 3.67568
v -2.18617 0.852389 3.65709
v -2.18617 0.661982 3.67568
v -2.187 0.852665 3.67379
v -2.187 0.662003 3.67695
v -2.18617 0.852644 3.67253
v -2.31622 0.852665 3.67379
v -2.18617 0.852644 3.67253
v -2.31622 0.852644 3.67253
v -2.187 0.852665 3.67379
v -2.18617 0.852389 3.65709
v -2.31622 0.852389 3.65709
v -2.31622 0.852389 3.65709
v -2.187 0.852368 3.65582
v -2.31622 0.852368 3.65582
v -2.18617 0.852389 3.65709
vt 0.398537 0.002481
vt 0.396739 0.79382
vt 0.396739 0.002481
vt 0.398537 0.79382
vt 0.367459 0.002481
vt 0.364841 0.79382
vt 0.364841 0.002481
vt 0.367459 0.79382
vt 0.987148 0.008603
vt 0.989829 0.127444
vt 0.989829 0.008603
vt 0.987148 0.127444
vt 0.946689 0.008603
vt 0.946689 0.127444
vt 0.943949 0.008603
vt 0.943949 0.127444
vt 0.943949 0.127444
vt 0.946689 0.256778
vt 0.946689 0.127444
vt 0.943949 0.256778
vt 0.987148 0.256778
vt 0.987148 0.127444
vt 0.989829 0.256778
vt 0.989829 0.127444
vt 0.396739 0.002481
vt 0.393999 0.79382
vt 0.393999 0.002481
vt 0.396739 0.79382
vt 0.393999 0.002481
vt 0.368945 0.79382
vt 0.368945 0.002481
vt 0.393999 0.79382
vt 0.368945 0.002481
vt 0.367459 0.79382
vt 0.367459 0.002481
vt 0.368945 0.79382
vt 0.943949 0.256778
vt 0.946689 0.375415
vt 0.946689 0.256778
vt 0.943949 0.375415
vt 0.987148 0.375415
vt 0.987148 0.256778
vt 0.987148 0.256778
vt 0.989829 0.375415
vt 0.989829 0.256778
vt 0.987148 0.375415
vn -0 -0.0165 -0.9999
vn -0 -0.0165 -0.9999
vn -0 -0.0165 -0.9999
vn -0 -0.0165 -0.9999
vn 0 0.0165 0.9999
vn 0 0.0165 0.9999
vn 0 0.0165 0.9999
vn 0 0.0165 0.9999
vn 0 -0.9999 0.0165
vn 0 -0.9999 0.0165
vn 0 -0.9999 0.0165
vn 0 -0.9999 0.0165
vn 0 -0.9999 0.0165
vn 0 -0.9999 0.0165
vn 0 -0.9999 0.0165
vn 0 -0.9999 0.0165
vn -1 -0 -0
vn -1 -0 -0
vn -1 -0 -0
vn -1 -0 -0
vn -1 -0 -0
vn -1 -0 -0
vn -1 -0 -0
vn -1 -0 -0
vn 0.8376 -0.009 -0.5462
vn 0.8376 -0.009 -0.5462
vn 0.8376 -0.009 -0.5462
vn 0.8376 -0.009 -0.5462
vn 1 0 0
vn 1 0 0
vn 1 0 0
vn 1 0 0
vn 0.8374 0.009 0.5465
vn 0.8374 0.009 0.5465
vn 0.8374 0.009 0.5465
vn 0.8374 0.009 0.5465
vn 0 0.9999 -0.0165
vn 0 0.9999 -0.0165
vn 0 0.9999 -0.0165
vn 0 0.9999 -0.0165
vn 0 0.9999 -0.0165
vn 0 0.9999 -0.0165
vn 0 0.9999 -0.0166
vn 0 0.9999 -0.0166
vn 0 0.9999 -0.0166
vn 0 0.9999 -0.0166
f 1/1/1 2/2/2 3/3/3
f 1/1/1 4/4/4 2/2/2
f 5/5/5 6/6/6 7/7/7
f 5/5/5 8/8/8 6/6/6
f 9/9/9 10/10/10 11/11/11
f 9/9/9 12/12/12 10/10/10
f 12/12/12 13/13/13 14/14/14
f 12/12/12 9/9/9 13/13/13
f 14/14/14 15/15/15 16/16/16
f 14/14/14 13/13/13 15/15/15
f 17/17/17 18/18/18 19/19/19
f 17/17/17 20/20/20 18/18/18
f 19/19/19 21/21/21 22/22/22
f 19/19/19 18/18/18 21/21/21
f 22/22/22 23/23/23 24/24/24
f 22/22/22 21/21/21 23/23/23
f 25/25/25 26/26/26 27/27/27
f 25/25/25 28/28/28 26/26/26
f 29/29/29 30/30/30 31/31/31
f 29/29/29 32/32/32 30/30/30
f 33/33/33 34/34/34 35/35/35
f 33/33/33 36/36/36 34/34/34
f 37/37/37 38/38/38 39/39/39
f 37/37/37 40/40/40 38/38/38
f 39/39/39 41/41/41 42/42/42
f 39/39/39 38/38/38 41/41/41
f 43/43/43 44/44/44 45/45/45
f 43/43/43 46/46/46 44/44/44
