v 1.39427 2.42277 0.733352
v 1.42635 2.42277 0.750871
v 1.42674 2.42277 0.750159
v 1.39466 2.42277 0.732639
v 1.42645 2.39993 0.750699
v 1.39437 2.39993 0.73318
v 1.39466 2.39954 0.732639
v 1.42674 2.39954 0.750159
v 1.42635 2.40095 0.750871
v 1.42635 2.42277 0.750871
v 1.39427 2.42277 0.733352
v 1.39427 2.40095 0.733352
v 1.39437 2.39993 0.73318
v 1.42645 2.39993 0.750699
v 1.39437 2.39993 0.73318
v 1.39427 2.40095 0.733352
v 1.39466 2.40095 0.732639
v 1.39466 2.39954 0.732639
v 1.39427 2.42277 0.733352
v 1.39466 2.42277 0.732639
v 1.42635 2.42277 0.750871
v 1.42635 2.40095 0.750871
v 1.42674 2.40095 0.750159
v 1.42674 2.42277 0.750159
v 1.42645 2.39993 0.750699
v 1.42674 2.39954 0.750159
v 1.39466 2.40095 0.732639
v 1.39466 2.42277 0.732639
v 1.42674 2.42277 0.750159
v 1.42674 2.40095 0.750159
v 1.39466 2.40095 0.732639
v 1.42674 2.40095 0.750159
v 1.42849 2.40095 0.746953
v 1.39641 2.40095 0.729434
v 1.42849 2.39954 0.746953
v 1.42849 2.40095 0.746953
v 1.39641 2.40095 0.729434
v 1.39641 2.39954 0.729434
v 1.39641 2.39954 0.729434
v 1.42849 2.39954 0.746953
v 1.39641 2.39954 0.729434
v 1.39641 2.40095 0.729434
v 1.42849 2.40095 0.746953
v 1.42849 2.39954 0.746953
vt 0.993519 0.016281
vt 0.54525 0.260317
vt 0.539815 0.2504
vt 0.988083 0.00634921
vt 0.495634 0.326923
vt 0.00650406 0.0628708
vt 0.0110026 0.0547171
vt 0.50013 0.318785
vt 0.860256 0.625839
vt 0.860256 0.926923
vt 0.598323 0.926923
vt 0.598323 0.625839
vt 0.595751 0.611806
vt 0.857684 0.611806
vt 0.595751 0.611806
vt 0.598323 0.625839
vt 0.587663 0.625839
vt 0.587663 0.60641
vt 0.598323 0.926923
vt 0.587663 0.926923
vt 0.539744 0.59359
vt 0.539744 0.292506
vt 0.550389 0.292506
vt 0.550389 0.59359
vt 0.542316 0.278473
vt 0.550389 0.273077
vt 0.812337 0.292506
vt 0.812337 0.59359
vt 0.550389 0.59359
vt 0.550389 0.292506
vt 0.526829 0.389309
vt 0.0334357 0.660256
vt 0.00650406 0.610675
vt 0.499899 0.339744
vt 0.598323 0.273077
vt 0.598323 0.292506
vt 0.539744 0.625839
vt 0.539744 0.60641
vt 0.0376996 0.00641026
vt 0.526829 0.270463
vt 0.860256 0.273077
vt 0.860256 0.292506
vt 0.598323 0.292506
vt 0.598323 0.273077
vn 0 1 0
vn 0 1 0
vn 0 1 0
vn 0 1 0
vn -0.257085 -0.843988 0.470735
vn -0.256796 -0.844355 0.470234
vn -0.0437151 -0.995832 0.0800492
vn -0.0437246 -0.995831 0.0800617
vn -0.479274 -0.00858621 0.877623
vn -0.479292 0 0.877656
vn -0.479292 0 0.877656
vn -0.479274 -0.00858329 0.877623
vn -0.470628 -0.189264 0.861794
vn -0.470624 -0.189316 0.861784
vn -0.877899 -2.37524e-05 -0.478846
vn -0.877856 -3.05949e-06 -0.478924
vn -0.877797 -1.76971e-06 -0.479033
vn -0.877611 0 -0.479374
vn -0.877856 0 -0.478924
vn -0.877856 0 -0.478924
vn 0.87757 0 0.479449
vn 0.87757 6.13879e-07 0.479448
vn 0.877582 0 0.479427
vn 0.87757 0 0.479449
vn 0.877651 9.82011e-05 0.4793
vn 0.877624 2.90569e-06 0.479349
vn 0.479313 0 -0.877644
vn 0.479313 0 -0.877644
vn 0.479313 0 -0.877644
vn 0.479313 0 -0.877644
vn 0 1 0
vn 0 1 0
vn 0 1 0
vn 0 1 0
vn 0.877627 0 0.479344
vn 0.877627 0 0.479344
vn -0.877577 0 -0.479435
vn -0.877577 0 -0.479435
vn 0 -1 0
vn 0 -1 0
vn 0.47929 0 -0.877657
vn 0.47929 0 -0.877657
vn 0.47929 0 -0.877657
vn 0.47929 0 -0.877657
f 1/1/1 2/2/2 3/3/3
f 1/1/1 3/3/3 4/4/4
f 5/5/5 6/6/6 7/7/7
f 5/5/5 7/7/7 8/8/8
f 9/9/9 10/10/10 11/11/11
f 9/9/9 11/11/11 12/12/12
f 12/12/12 13/13/13 14/14/14
f 12/12/12 14/14/14 9/9/9
f 15/15/15 16/16/16 17/17/17
f 15/15/15 17/17/17 18/18/18
f 16/16/16 19/19/19 20/20/20
f 16/16/16 20/20/20 17/17/17
f 21/21/21 22/22/22 23/23/23
f 21/21/21 23/23/23 24/24/24
f 22/22/22 25/25/25 26/26/26
f 22/22/22 26/26/26 23/23/23
f 27/27/27 28/28/28 29/29/29
f 27/27/27 29/29/29 30/30/30
f 31/31/31 32/32/32 33/33/33
f 31/31/31 33/33/33 34/34/34
f 23/23/23 26/26/26 35/35/35
f 23/23/23 35/35/35 36/36/36
f 18/18/18 17/17/17 37/37/37
f 18/18/18 37/37/37 38/38/38
f 8/8/8 7/7/7 39/39/39
f 8/8/8 39/39/39 40/40/40
f 41/41/41 42/42/42 43/43/43
f 41/41/41 43/43/43 44/44/44
