v -2.35926 0.662306 3.71236
v -2.187 0.903964 3.69758
v -2.187 0.662306 3.71236
v -2.35926 0.903964 3.69758
v -2.187 0.663265 3.72803
v -2.35926 0.904923 3.71325
v -2.35926 0.663265 3.72803
v -2.187 0.904923 3.71325
v -2.18617 0.662383 3.71362
v -2.35926 0.662306 3.71236
v -2.187 0.662306 3.71236
v -2.35926 0.662383 3.71362
v -2.35926 0.662383 3.71362
v -2.18617 0.663187 3.72677
v -2.35926 0.663187 3.72677
v -2.18617 0.662383 3.71362
v -2.187 0.663265 3.72803
v -2.35926 0.663265 3.72803
v -2.35926 0.663265 3.72803
v -2.35926 0.904845 3.71199
v -2.35926 0.663187 3.72677
v -2.35926 0.904923 3.71325
v -2.35926 0.904041 3.69884
v -2.35926 0.662383 3.71362
v -2.35926 0.903964 3.69758
v -2.35926 0.662306 3.71236
v -2.187 0.662306 3.71236
v -2.18617 0.904041 3.69884
v -2.18617 0.662383 3.71362
v -2.187 0.903964 3.69758
v -2.18617 0.662383 3.71362
v -2.18617 0.904845 3.71199
v -2.18617 0.663187 3.72677
v -2.18617 0.904041 3.69884
v -2.18617 0.663187 3.72677
v -2.187 0.904923 3.71325
v -2.187 0.663265 3.72803
v -2.18617 0.904845 3.71199
v -2.35926 0.904923 3.71325
v -2.18617 0.904845 3.71199
v -2.35926 0.904845 3.71199
v -2.187 0.904923 3.71325
v -2.35926 0.904845 3.71199
v -2.18617 0.904041 3.69884
v -2.35926 0.904041 3.69884
v -2.18617 0.904845 3.71199
v -2.187 0.903964 3.69758
v -2.35926 0.903964 3.69758
vt 0.252486 0.002481
vt 0.253222 0.949718
vt 0.250688 0.002481
vt 0.25502 0.949718
vt 0.223803 0.002481
vt 0.225046 0.94874
vt 0.222379 0.002481
vt 0.226469 0.94874
vt 0.988615 0.008603
vt 0.991296 0.127444
vt 0.991296 0.008603
vt 0.987148 0.127444
vt 0.987148 0.127444
vt 0.946689 0.008603
vt 0.946689 0.127444
vt 0.988615 0.008603
vt 0.943949 0.008603
vt 0.943949 0.127444
vt 0.943949 0.127444
vt 0.946689 0.256778
vt 0.946689 0.127444
vt 0.943949 0.256778
vt 0.987148 0.256778
vt 0.987148 0.127444
vt 0.989829 0.256778
vt 0.991296 0.127444
vt 0.250688 0.002481
vt 0.250482 0.949718
vt 0.247948 0.002481
vt 0.253222 0.949718
vt 0.247948 0.002481
vt 0.22915 0.94874
vt 0.226484 0.002481
vt 0.250482 0.949718
vt 0.226484 0.002481
vt 0.226469 0.94874
vt 0.223803 0.002481
vt 0.22915 0.94874
vt 0.943949 0.256778
vt 0.946689 0.375415
vt 0.946689 0.256778
vt 0.943949 0.375415
vt 0.946689 0.256778
vt 0.987148 0.375415
vt 0.987148 0.256778
vt 0.946689 0.375415
vt 0.989829 0.375415
vt 0.989829 0.256778
vn -0 -0.0611 -0.9981
vn -0 -0.0611 -0.9981
vn -0 -0.0611 -0.9981
vn -0 -0.0611 -0.9981
vn 0 0.0611 0.9981
vn 0 0.0611 0.9981
vn 0 0.0611 0.9981
vn 0 0.0611 0.9981
vn 0 -0.9981 0.061
vn 0 -0.9981 0.061
vn 0 -0.9981 0.061
vn 0 -0.9981 0.061
vn 0 -0.9981 0.0611
vn 0 -0.9981 0.0611
vn 0 -0.9981 0.0611
vn 0 -0.9981 0.0611
vn 0 -0.9981 0.0611
vn 0 -0.9981 0.0611
vn -1 -0 -0
vn -1 -0 -0
vn -1 -0 -0
vn -1 -0 -0
vn -1 -0 -0
vn -1 -0 -0
vn -1 -0 -0
vn -1 -0 -0
vn 0.8375 -0.0334 -0.5455
vn 0.8375 -0.0334 -0.5455
vn 0.8375 -0.0334 -0.5455
vn 0.8375 -0.0334 -0.5455
vn 1 0 0
vn 1 0 0
vn 1 0 0
vn 1 0 0
vn 0.8375 0.0334 0.5454
vn 0.8375 0.0334 0.5454
vn 0.8375 0.0334 0.5454
vn 0.8375 0.0334 0.5454
vn 0 0.9981 -0.061
vn 0 0.9981 -0.061
vn 0 0.9981 -0.061
vn 0 0.9981 -0.061
vn 0 0.9981 -0.0611
vn 0 0.9981 -0.0611
vn 0 0.9981 -0.0611
vn 0 0.9981 -0.0611
vn 0 0.9981 -0.0611
vn 0 0.9981 -0.0611
f 1/1/1 2/2/2 3/3/3
f 1/1/1 4/4/4 2/2/2
f 5/5/5 6/6/6 7/7/7
f 5/5/5 8/8/8 6/6/6
f 9/9/9 10/10/10 11/11/11
f 9/9/9 12/12/12 10/10/10
f 13/13/13 14/14/14 15/15/15
f 13/13/13 16/16/16 14/14/14
f 15/15/15 17/17/17 18/18/18
f 15/15/15 14/14/14 17/17/17
f 19/19/19 20/20/20 21/21/21
f 19/19/19 22/22/22 20/20/20
f 21/21/21 23/23/23 24/24/24
f 21/21/21 20/20/20 23/23/23
f 24/24/24 25/25/25 26/26/26
f 24/24/24 23/23/23 25/25/25
f 27/27/27 28/28/28 29/29/29
f 27/27/27 30/30/30 28/28/28
f 31/31/31 32/32/32 33/33/33
f 31/31/31 34/34/34 32/32/32
f 35/35/35 36/36/36 37/37/37
f 35/35/35 38/38/38 36/36/36
f 39/39/39 40/40/40 41/41/41
f 39/39/39 42/42/42 40/40/40
f 43/43/43 44/44/44 45/45/45
f 43/43/43 46/46/46 44/44/44
f 45/45/45 47/47/47 48/48/48
f 45/45/45 44/44/44 47/47/47
