v 0.214752 2.46935 0.469402
v 0.215496 2.46935 0.469831
v 0.215496 2.1514 0.469831
v 0.214752 2.1514 0.469402
v 0.215496 2.46935 0.469831
v 0.21624 2.46935 0.469402
v 0.21624 2.1514 0.469402
v 0.215496 2.1514 0.469831
v 0.21624 2.46935 0.469402
v 0.21624 2.46935 0.468543
v 0.21624 2.1514 0.468543
v 0.21624 2.1514 0.469402
v 0.214752 2.46935 0.468543
v 0.215496 2.46935 0.468114
v 0.215496 2.1514 0.468114
v 0.214752 2.1514 0.468543
v 0.214752 2.46935 0.468543
v 0.214752 2.46935 0.469402
v 0.214752 2.1514 0.469402
v 0.214752 2.1514 0.468543
v 0.21624 2.46935 0.468543
v 0.215496 2.46935 0.468114
v 0.215496 2.1514 0.468114
v 0.21624 2.1514 0.468543
vt 0.183333 0.980769
vt 0.1 0.980769
vt 0.1 0.0192308
vt 0.183333 0.0192308
vt 0.1 0.980769
vt 0.0166667 0.980769
vt 0.0166667 0.0192308
vt 0.1 0.0192308
vt 0.383333 0.980769
vt 0.27218 0.980769
vt 0.27218 0.0192308
vt 0.383333 0.0192308
vt 0.583333 0.980769
vt 0.416667 0.980769
vt 0.416667 0.0192308
vt 0.583333 0.0192308
vt 0.783333 0.980769
vt 0.616667 0.980769
vt 0.616667 0.0192308
vt 0.783333 0.0192308
vt 0.27218 0.980769
vt 0.216667 0.980769
vt 0.216667 0.0192308
vt 0.27218 0.0192308
vn 0.499525 0 -0.8663
vn 0.499525 0 -0.8663
vn 0.499525 0 -0.8663
vn 0.499525 0 -0.8663
vn -0.499525 0 -0.8663
vn -0.499525 0 -0.8663
vn -0.499525 0 -0.8663
vn -0.499525 0 -0.8663
vn -1 0 0
vn -1 0 0
vn -1 0 0
vn -1 0 0
vn -0.499525 0 -0.8663
vn -0.499525 0 -0.8663
vn -0.499525 0 -0.8663
vn -0.499525 0 -0.8663
vn 1 0 0
vn 1 0 0
vn 1 0 0
vn 1 0 0
vn -0.499525 0 0.8663
vn -0.499525 0 0.8663
vn -0.499525 0 0.8663
vn -0.499525 0 0.8663
f 1/1/1 2/2/2 3/3/3
f 1/1/1 3/3/3 4/4/4
f 5/5/5 6/6/6 7/7/7
f 5/5/5 7/7/7 8/8/8
f 9/9/9 10/10/10 11/11/11
f 9/9/9 11/11/11 12/12/12
f 13/13/13 14/14/14 15/15/15
f 13/13/13 15/15/15 16/16/16
f 17/17/17 18/18/18 19/19/19
f 17/17/17 19/19/19 20/20/20
f 21/21/21 22/22/22 23/23/23
f 21/21/21 23/23/23 24/24/24
