v 0.906922 3.16861 1.247
v 1.9358 3.16861 0.979246
v 1.9358 3.16861 1.247
v 0.906922 3.16861 0.979246
v -0.45228 3.16861 1.247
v -0.45228 3.16861 0.979246
v -1.48116 3.16861 1.247
v -1.48116 3.16861 0.979245
v -0.45228 3.16861 0.464015
v -0.51631 3.16861 0.464015
v 0.906922 3.16861 0.464015
v 0.970952 3.16861 0.464015
v 3.08781 3.16861 2.19346
v 3.08781 3.16861 1.247
v 1.9358 3.16861 2.19346
v 0.906922 3.16861 2.19346
v -0.45228 3.16861 2.19346
v -1.28324 3.16861 2.19346
v 1.9358 3.16861 3.52492
v 3.08781 3.16861 8.11528
v 1.9358 3.16861 8.11528
v 3.08781 3.16861 3.52492
v 0.906922 3.16861 3.52492
v 0.906922 3.16861 8.11528
v -0.452281 3.16861 3.52492
v -0.452281 3.16861 8.11528
v -1.28324 3.16861 3.52492
v -1.48116 3.16861 8.11528
v -2.49649 3.16861 2.19346
v -1.95421 3.16861 1.247
v -1.95421 3.16861 2.19346
v -2.49648 3.16861 1.247
v -2.49649 3.16861 8.11528
v -1.95421 3.16861 3.52492
v -1.95421 3.16861 8.11528
v -2.49649 3.16861 3.52492
v 3.08781 3.16861 2.46446
v 1.9358 3.16861 2.46446
v 3.08781 3.16861 3.25393
v 1.9358 3.16861 3.25393
v 0.906922 3.16861 2.46446
v 0.906922 3.16861 3.25393
v -0.45228 3.16861 2.46446
v -0.45228 3.16861 3.25393
v -1.28324 3.16861 2.46446
v -1.28324 3.16861 3.25393
v -1.95421 3.16861 3.25393
v -1.95421 3.16861 2.46446
vt 0.454447 0.112033
vt 0.588174 0.077892
vt 0.588174 0.112033
vt 0.454447 0.077892
vt 0.277788 0.112033
vt 0.277788 0.077892
vt 0.144062 0.112033
vt 0.144062 0.0778919
vt 0.277788 0.0121951
vt 0.269466 0.0121951
vt 0.454447 0.0121951
vt 0.46277 0.0121951
vt 0.737903 0.232716
vt 0.737903 0.112033
vt 0.588174 0.232716
vt 0.454447 0.232716
vt 0.277788 0.232716
vt 0.169786 0.232716
vt 0.588174 0.40249
vt 0.737903 0.987805
vt 0.588174 0.987805
vt 0.737903 0.40249
vt 0.454447 0.40249
vt 0.454447 0.987805
vt 0.277788 0.40249
vt 0.277788 0.987805
vt 0.169786 0.40249
vt 0.144061 0.987805
vt 0.0120968 0.232716
vt 0.0825781 0.112033
vt 0.0825781 0.232716
vt 0.0120969 0.112033
vt 0.0120968 0.987805
vt 0.0825779 0.40249
vt 0.0825779 0.987805
vt 0.0120968 0.40249
vt 0.737903 0.267271
vt 0.588174 0.267271
vt 0.737903 0.367935
vt 0.588174 0.367935
vt 0.454447 0.267271
vt 0.454447 0.367935
vt 0.277788 0.267271
vt 0.277788 0.367935
vt 0.169786 0.267271
vt 0.169786 0.367935
vt 0.0825779 0.367935
vt 0.0825781 0.267271
vn -0 -1 -0
vn -0 -1 -0
vn -0 -1 -0
vn -0 -1 -0
vn -0 -1 -0
vn -0 -1 -0
vn -0 -1 -0
vn -0 -1 -0
vn -0 -1 -0
vn -0 -1 -0
vn -0 -1 -0
vn -0 -1 -0
vn -0 -1 -0
vn -0 -1 -0
vn -0 -1 -0
vn -0 -1 -0
vn -0 -1 -0
vn -0 -1 -0
vn -0 -1 -0
vn -0 -1 -0
vn -0 -1 -0
vn -0 -1 -0
vn -0 -1 -0
vn -0 -1 -0
vn -0 -1 -0
vn -0 -1 -0
vn -0 -1 -0
vn -0 -1 -0
vn -0 -1 -0
vn -0 -1 -0
vn -0 -1 -0
vn -0 -1 -0
vn -0 -1 -0
vn -0 -1 -0
vn -0 -1 -0
vn -0 -1 -0
vn -0 -1 -0
vn -0 -1 -0
vn -0 -1 -0
vn -0 -1 -0
vn -0 -1 -0
vn -0 -1 -0
vn -0 -1 -0
vn -0 -1 -0
vn -0 -1 -0
vn -0 -1 -0
vn -0 -1 -0
vn -0 -1 -0
f 1/1/1 2/2/2 3/3/3
f 1/1/1 4/4/4 2/2/2
f 5/5/5 4/4/4 1/1/1
f 5/5/5 6/6/6 4/4/4
f 7/7/7 6/6/6 5/5/5
f 7/7/7 8/8/8 6/6/6
f 8/8/8 9/9/9 6/6/6
f 8/8/8 10/10/10 9/9/9
f 6/6/6 11/11/11 4/4/4
f 6/6/6 9/9/9 11/11/11
f 4/4/4 12/12/12 2/2/2
f 4/4/4 11/11/11 12/12/12
f 13/13/13 3/3/3 14/14/14
f 13/13/13 15/15/15 3/3/3
f 1/1/1 15/15/15 16/16/16
f 1/1/1 3/3/3 15/15/15
f 5/5/5 16/16/16 17/17/17
f 5/5/5 1/1/1 16/16/16
f 7/7/7 17/17/17 18/18/18
f 7/7/7 5/5/5 17/17/17
f 19/19/19 20/20/20 21/21/21
f 19/19/19 22/22/22 20/20/20
f 23/23/23 21/21/21 24/24/24
f 23/23/23 19/19/19 21/21/21
f 25/25/25 24/24/24 26/26/26
f 25/25/25 23/23/23 24/24/24
f 27/27/27 26/26/26 28/28/28
f 27/27/27 25/25/25 26/26/26
f 29/29/29 30/30/30 31/31/31
f 29/29/29 32/32/32 30/30/30
f 31/31/31 7/7/7 18/18/18
f 31/31/31 30/30/30 7/7/7
f 33/33/33 34/34/34 35/35/35
f 33/33/33 36/36/36 34/34/34
f 35/35/35 27/27/27 28/28/28
f 35/35/35 34/34/34 27/27/27
f 15/15/15 37/37/37 38/38/38
f 15/15/15 13/13/13 37/37/37
f 38/38/38 39/39/39 40/40/40
f 38/38/38 37/37/37 39/39/39
f 40/40/40 22/22/22 19/19/19
f 40/40/40 39/39/39 22/22/22
f 16/16/16 38/38/38 41/41/41
f 16/16/16 15/15/15 38/38/38
f 41/41/41 40/40/40 42/42/42
f 41/41/41 38/38/38 40/40/40
f 42/42/42 19/19/19 23/23/23
f 42/42/42 40/40/40 19/19/19
f 17/17/17 41/41/41 43/43/43
f 17/17/17 16/16/16 41/41/41
f 43/43/43 42/42/42 44/44/44
f 43/43/43 41/41/41 42/42/42
f 44/44/44 23/23/23 25/25/25
f 44/44/44 42/42/42 23/23/23
f 18/18/18 43/43/43 45/45/45
f 18/18/18 17/17/17 43/43/43
f 45/45/45 44/44/44 46/46/46
f 45/45/45 43/43/43 44/44/44
f 46/46/46 25/25/25 27/27/27
f 46/46/46 44/44/44 25/25/25
f 27/27/27 47/47/47 46/46/46
f 27/27/27 34/34/34 47/47/47
f 46/46/46 48/48/48 45/45/45
f 46/46/46 47/47/47 48/48/48
f 45/45/45 31/31/31 18/18/18
f 45/45/45 48/48/48 31/31/31
