v -2.43209 1.98371 3.92775
v -2.4402 1.72055 3.92775
v -2.43654 1.72049 3.92775
v -2.43575 1.98377 3.92775
v -2.43654 1.72049 3.74134
v -2.43575 1.98377 3.74134
v -2.43209 1.98371 3.74134
v -2.4402 1.72055 3.74134
v -2.43208 1.98421 3.74184
v -2.43574 1.98427 3.92724
v -2.43208 1.98421 3.92724
v -2.43574 1.98427 3.74184
v -2.43655 1.71999 3.92724
v -2.44021 1.72005 3.74184
v -2.43655 1.71999 3.74184
v -2.44021 1.72005 3.92724
v -2.43249 1.96956 3.75473
v -2.4398 1.7347 3.75473
v -2.43646 1.73465 3.75473
v -2.43583 1.96961 3.75473
v -2.44031 1.73441 3.75423
v -2.43626 1.98302 3.74184
v -2.44068 1.72132 3.74184
v -2.43633 1.96992 3.75423
v -2.43646 1.73465 3.91436
v -2.43583 1.96961 3.91436
v -2.43249 1.96956 3.91436
v -2.4398 1.7347 3.91436
v -2.43647 1.73415 3.75523
v -2.43981 1.73421 3.91386
v -2.43647 1.73415 3.91386
v -2.43981 1.73421 3.75523
v -2.43248 1.97005 3.91386
v -2.43582 1.97011 3.75523
v -2.43248 1.97005 3.75523
v -2.43582 1.97011 3.91386
v -2.4316 1.9837 3.92658
v -2.43197 1.97055 3.75495
v -2.4316 1.9837 3.7425
v -2.43197 1.97055 3.91414
v -2.43605 1.72048 3.7425
v -2.43597 1.73364 3.91414
v -2.43605 1.72048 3.92658
v -2.43597 1.73364 3.75495
v -2.43603 1.72124 3.92724
v -2.43198 1.96985 3.91486
v -2.43161 1.98294 3.92724
v -2.43596 1.73434 3.91486
v -2.44032 1.73371 3.91414
v -2.4407 1.72056 3.7425
v -2.4407 1.72056 3.92658
v -2.44032 1.73371 3.75495
v -2.43632 1.97062 3.75495
v -2.43625 1.98378 3.92658
v -2.43625 1.98378 3.7425
v -2.43632 1.97062 3.91414
v -2.43633 1.96992 3.91486
v -2.44068 1.72132 3.92724
v -2.43626 1.98302 3.92724
v -2.44031 1.73441 3.91486
v -2.43208 1.98421 3.74184
v -2.43161 1.98294 3.74184
v -2.43209 1.98371 3.74134
v -2.4316 1.9837 3.7425
v -2.43654 1.72049 3.74134
v -2.43605 1.72048 3.7425
v -2.43655 1.71999 3.74184
v -2.43603 1.72124 3.74184
v -2.43605 1.72048 3.92658
v -2.43654 1.72049 3.92775
v -2.43655 1.71999 3.92724
v -2.43603 1.72124 3.92724
v -2.43209 1.98371 3.92775
v -2.4316 1.9837 3.92658
v -2.43208 1.98421 3.92724
v -2.43161 1.98294 3.92724
v -2.43198 1.96985 3.91486
v -2.43248 1.97005 3.91386
v -2.43197 1.97055 3.91414
v -2.43249 1.96956 3.91436
v -2.43596 1.73434 3.91486
v -2.43647 1.73415 3.91386
v -2.43646 1.73465 3.91436
v -2.43597 1.73364 3.91414
v -2.43596 1.73434 3.75423
v -2.43647 1.73415 3.75523
v -2.43597 1.73364 3.75495
v -2.43646 1.73465 3.75473
v -2.43197 1.97055 3.75495
v -2.43249 1.96956 3.75473
v -2.43198 1.96985 3.75423
v -2.43248 1.97005 3.75523
v -2.43583 1.96961 3.75473
v -2.43632 1.97062 3.75495
v -2.43633 1.96992 3.75423
v -2.43582 1.97011 3.75523
v -2.43981 1.73421 3.75523
v -2.44031 1.73441 3.75423
v -2.44032 1.73371 3.75495
v -2.4398 1.7347 3.75473
v -2.43981 1.73421 3.91386
v -2.44031 1.73441 3.91486
v -2.4398 1.7347 3.91436
v -2.44032 1.73371 3.91414
v -2.43582 1.97011 3.91386
v -2.43633 1.96992 3.91486
v -2.43632 1.97062 3.91414
v -2.43583 1.96961 3.91436
v -2.43575 1.98377 3.92775
v -2.43625 1.98378 3.92658
v -2.43626 1.98302 3.92724
v -2.43574 1.98427 3.92724
v -2.4402 1.72055 3.92775
v -2.4407 1.72056 3.92658
v -2.44021 1.72005 3.92724
v -2.44068 1.72132 3.92724
v -2.4402 1.72055 3.74134
v -2.4407 1.72056 3.7425
v -2.44068 1.72132 3.74184
v -2.44021 1.72005 3.74184
v -2.43574 1.98427 3.74184
v -2.43626 1.98302 3.74184
v -2.43625 1.98378 3.7425
v -2.43575 1.98377 3.74134
v -2.43655 1.71999 3.74184
v -2.43605 1.72048 3.92658
v -2.43655 1.71999 3.92724
v -2.43605 1.72048 3.7425
v -2.43209 1.98371 3.74134
v -2.43603 1.72124 3.74184
v -2.43654 1.72049 3.74134
v -2.43161 1.98294 3.74184
v -2.4316 1.9837 3.7425
v -2.43208 1.98421 3.92724
v -2.4316 1.9837 3.92658
v -2.43208 1.98421 3.74184
v -2.43654 1.72049 3.92775
v -2.43161 1.98294 3.92724
v -2.43209 1.98371 3.92775
v -2.43603 1.72124 3.92724
v -2.4316 1.9837 3.92658
v -2.43198 1.96985 3.91486
v -2.43197 1.97055 3.91414
v -2.43161 1.98294 3.92724
v -2.43249 1.96956 3.91436
v -2.43596 1.73434 3.91486
v -2.43646 1.73465 3.91436
v -2.43198 1.96985 3.91486
v -2.43603 1.72124 3.92724
v -2.43597 1.73364 3.91414
v -2.43596 1.73434 3.91486
v -2.43605 1.72048 3.92658
v -2.43161 1.98294 3.74184
v -2.43197 1.97055 3.75495
v -2.43198 1.96985 3.75423
v -2.4316 1.9837 3.7425
v -2.43197 1.97055 3.91414
v -2.43248 1.97005 3.75523
v -2.43197 1.97055 3.75495
v -2.43248 1.97005 3.91386
v -2.43605 1.72048 3.7425
v -2.43596 1.73434 3.75423
v -2.43597 1.73364 3.75495
v -2.43603 1.72124 3.74184
v -2.43646 1.73465 3.75473
v -2.43198 1.96985 3.75423
v -2.43249 1.96956 3.75473
v -2.43596 1.73434 3.75423
v -2.43647 1.73415 3.91386
v -2.43597 1.73364 3.75495
v -2.43647 1.73415 3.75523
v -2.43597 1.73364 3.91414
v -2.43646 1.73465 3.91436
v -2.43981 1.73421 3.91386
v -2.4398 1.7347 3.91436
v -2.43647 1.73415 3.91386
v -2.43981 1.73421 3.75523
v -2.44032 1.73371 3.91414
v -2.43981 1.73421 3.91386
v -2.44032 1.73371 3.75495
v -2.43647 1.73415 3.75523
v -2.4398 1.7347 3.75473
v -2.43981 1.73421 3.75523
v -2.43646 1.73465 3.75473
v -2.43583 1.96961 3.75473
v -2.44031 1.73441 3.75423
v -2.4398 1.7347 3.75473
v -2.43633 1.96992 3.75423
v -2.43249 1.96956 3.75473
v -2.43582 1.97011 3.75523
v -2.43583 1.96961 3.75473
v -2.43248 1.97005 3.75523
v -2.43632 1.97062 3.75495
v -2.43582 1.97011 3.91386
v -2.43632 1.97062 3.91414
v -2.43582 1.97011 3.75523
v -2.43248 1.97005 3.91386
v -2.43583 1.96961 3.91436
v -2.43582 1.97011 3.91386
v -2.43249 1.96956 3.91436
v -2.4398 1.7347 3.91436
v -2.43633 1.96992 3.91486
v -2.43583 1.96961 3.91436
v -2.44031 1.73441 3.91486
v -2.43655 1.71999 3.92724
v -2.4402 1.72055 3.92775
v -2.44021 1.72005 3.92724
v -2.43654 1.72049 3.92775
v -2.43575 1.98377 3.92775
v -2.44068 1.72132 3.92724
v -2.4402 1.72055 3.92775
v -2.43626 1.98302 3.92724
v -2.43209 1.98371 3.92775
v -2.43574 1.98427 3.92724
v -2.43575 1.98377 3.92775
v -2.43208 1.98421 3.92724
v -2.43625 1.98378 3.92658
v -2.43574 1.98427 3.74184
v -2.43625 1.98378 3.7425
v -2.43574 1.98427 3.92724
v -2.43208 1.98421 3.74184
v -2.43575 1.98377 3.74134
v -2.43574 1.98427 3.74184
v -2.43209 1.98371 3.74134
v -2.4402 1.72055 3.74134
v -2.43626 1.98302 3.74184
v -2.43575 1.98377 3.74134
v -2.44068 1.72132 3.74184
v -2.43654 1.72049 3.74134
v -2.44021 1.72005 3.74184
v -2.4402 1.72055 3.74134
v -2.43655 1.71999 3.74184
v -2.44021 1.72005 3.92724
v -2.4407 1.72056 3.7425
v -2.44021 1.72005 3.74184
v -2.4407 1.72056 3.92658
v -2.43632 1.97062 3.91414
v -2.43626 1.98302 3.92724
v -2.43625 1.98378 3.92658
v -2.43633 1.96992 3.91486
v -2.44031 1.73441 3.91486
v -2.4407 1.72056 3.92658
v -2.44068 1.72132 3.92724
v -2.44032 1.73371 3.91414
v -2.43633 1.96992 3.75423
v -2.43625 1.98378 3.7425
v -2.43626 1.98302 3.74184
v -2.43632 1.97062 3.75495
v -2.44032 1.73371 3.75495
v -2.44068 1.72132 3.74184
v -2.4407 1.72056 3.7425
v -2.44031 1.73441 3.75423
v -2.43161 1.98294 3.74184
v -2.43596 1.73434 3.75423
v -2.43603 1.72124 3.74184
v -2.43198 1.96985 3.75423
vt 0 0
vt 0 0
vt 0 0
vt 0 0
vt 0 0
vt 0 0
vt 0 0
vt 0 0
vt 0 0
vt 0 0
vt 0 0
vt 0 0
vt 0 0
vt 0 0
vt 0 0
vt 0 0
vt 0 0
vt 0 0
vt 0 0
vt 0 0
vt 0 0
vt 0 0
vt 0 0
vt 0 0
vt 0 0
vt 0 0
vt 0 0
vt 0 0
vt 0 0
vt 0 0
vt 0 0
vt 0 0
vt 0 0
vt 0 0
vt 0 0
vt 0 0
vt 0 0
vt 0 0
vt 0 0
vt 0 0
vt 0 0
vt 0 0
vt 0 0
vt 0 0
vt 0 0
vt 0 0
vt 0 0
vt 0 0
vt 0 0
vt 0 0
vt 0 0
vt 0 0
vt 0 0
vt 0 0
vt 0 0
vt 0 0
vt 0 0
vt 0 0
vt 0 0
vt 0 0
vt 0 0
vt 0 0
vt 0 0
vt 0 0
vt 0 0
vt 0 0
vt 0 0
vt 0 0
vt 0 0
vt 0 0
vt 0 0
vt 0 0
vt 0 0
vt 0 0
vt 0 0
vt 0 0
vt 0 0
vt 0 0
vt 0 0
vt 0 0
vt 0 0
vt 0 0
vt 0 0
vt 0 0
vt 0 0
vt 0 0
vt 0 0
vt 0 0
vt 0 0
vt 0 0
vt 0 0
vt 0 0
vt 0 0
vt 0 0
vt 0 0
vt 0 0
vt 0 0
vt 0 0
vt 0 0
vt 0 0
vt 0 0
vt 0 0
vt 0 0
vt 0 0
vt 0 0
vt 0 0
vt 0 0
vt 0 0
vt 0 0
vt 0 0
vt 0 0
vt 0 0
vt 0 0
vt 0 0
vt 0 0
vt 0 0
vt 0 0
vt 0 0
vt 0 0
vt 0 0
vt 0 0
vt 0 0
vt 0 0
vt 0 0
vt 0 0
vt 0 0
vt 0 0
vt 0 0
vt 0 0
vt 0 0
vt 0 0
vt 0 0
vt 0 0
vt 0 0
vt 0 0
vt 0 0
vt 0 0
vt 0 0
vt 0 0
vt 0 0
vt 0 0
vt 0 0
vt 0 0
vt 0 0
vt 0 0
vt 0 0
vt 0 0
vt 0 0
vt 0 0
vt 0 0
vt 0 0
vt 0 0
vt 0 0
vt 0 0
vt 0 0
vt 0 0
vt 0 0
vt 0 0
vt 0 0
vt 0 0
vt 0 0
vt 0 0
vt 0 0
vt 0 0
vt 0 0
vt 0 0
vt 0 0
vt 0 0
vt 0 0
vt 0 0
vt 0 0
vt 0 0
vt 0 0
vt 0 0
vt 0 0
vt 0 0
vt 0 0
vt 0 0
vt 0 0
vt 0 0
vt 0 0
vt 0 0
vt 0 0
vt 0 0
vt 0 0
vt 0 0
vt 0 0
vt 0 0
vt 0 0
vt 0 0
vt 0 0
vt 0 0
vt 0 0
vt 0 0
vt 0 0
vt 0 0
vt 0 0
vt 0 0
vt 0 0
vt 0 0
vt 0 0
vt 0 0
vt 0 0
vt 0 0
vt 0 0
vt 0 0
vt 0 0
vt 0 0
vt 0 0
vt 0 0
vt 0 0
vt 0 0
vt 0 0
vt 0 0
vt 0 0
vt 0 0
vt 0 0
vt 0 0
vt 0 0
vt 0 0
vt 0 0
vt 0 0
vt 0 0
vt 0 0
vt 0 0
vt 0 0
vt 0 0
vt 0 0
vt 0 0
vt 0 0
vt 0 0
vt 0 0
vt 0 0
vt 0 0
vt 0 0
vt 0 0
vt 0 0
vt 0 0
vt 0 0
vt 0 0
vt 0 0
vt 0 0
vt 0 0
vt 0 0
vt 0 0
vt 0 0
vt 0 0
vt 0 0
vt 0 0
vt 0 0
vt 0 0
vt 0 0
vt 0 0
vt 0 0
vt 0 0
vt 0 0
vn 0 0 1
vn 0 0 1
vn 0 0 1
vn 0 0 1
vn -0 -0 -1
vn -0 -0 -1
vn -0 -0 -1
vn -0 -0 -1
vn 0.0169 0.9999 0
vn 0.0169 0.9999 0
vn 0.0169 0.9999 0
vn 0.0169 0.9999 0
vn -0.0169 -0.9999 -0
vn -0.0169 -0.9999 -0
vn -0.0169 -0.9999 -0
vn -0.0169 -0.9999 -0
vn 0 0 1
vn 0 0 1
vn 0 0 1
vn 0 0 1
vn -0.9998 0.0169 0.012
vn -0.9998 0.0169 0.012
vn -0.9998 0.0169 0.012
vn -0.9998 0.0169 0.012
vn -0 -0 -1
vn -0 -0 -1
vn -0 -0 -1
vn -0 -0 -1
vn 0.0169 0.9999 0
vn 0.0169 0.9999 0
vn 0.0169 0.9999 0
vn 0.0169 0.9999 0
vn -0.0169 -0.9999 -0
vn -0.0169 -0.9999 -0
vn -0.0169 -0.9999 -0
vn -0.0169 -0.9999 -0
vn 0.9996 -0.0283 0
vn 0.9996 -0.0283 0
vn 0.9996 -0.0283 0
vn 0.9996 -0.0283 0
vn 1 -0.0055 0
vn 1 -0.0055 0
vn 1 -0.0055 0
vn 1 -0.0055 0
vn 0.9998 -0.0169 -0.012
vn 0.9998 -0.0169 -0.012
vn 0.9998 -0.0169 -0.012
vn 0.9998 -0.0169 -0.012
vn -0.9996 0.0283 0
vn -0.9996 0.0283 0
vn -0.9996 0.0283 0
vn -0.9996 0.0283 0
vn -1 0.0055 0
vn -1 0.0055 0
vn -1 0.0055 0
vn -1 0.0055 0
vn -0.9998 0.0169 -0.012
vn -0.9998 0.0169 -0.012
vn -0.9998 0.0169 -0.012
vn -0.9998 0.0169 -0.012
vn 0.8707 0.3257 -0.3685
vn 0.8707 0.3257 -0.3685
vn 0.8707 0.3257 -0.3685
vn 0.8707 0.3257 -0.3685
vn 0.8592 -0.355 -0.3685
vn 0.8592 -0.355 -0.3685
vn 0.8592 -0.355 -0.3685
vn 0.8592 -0.355 -0.3685
vn 0.8593 -0.3547 0.3685
vn 0.8593 -0.3547 0.3685
vn 0.8593 -0.3547 0.3685
vn 0.8593 -0.3547 0.3685
vn 0.8707 0.3255 0.3687
vn 0.8707 0.3255 0.3687
vn 0.8707 0.3255 0.3687
vn 0.8707 0.3255 0.3687
vn 0.7343 -0.4892 -0.4706
vn 0.7343 -0.4892 -0.4706
vn 0.7343 -0.4892 -0.4706
vn 0.7343 -0.4892 -0.4706
vn 0.7502 0.4645 -0.4705
vn 0.7502 0.4645 -0.4705
vn 0.7502 0.4645 -0.4705
vn 0.7502 0.4645 -0.4705
vn 0.7506 0.4642 0.4703
vn 0.7506 0.4642 0.4703
vn 0.7506 0.4642 0.4703
vn 0.7506 0.4642 0.4703
vn 0.7342 -0.4895 0.4705
vn 0.7342 -0.4895 0.4705
vn 0.7342 -0.4895 0.4705
vn 0.7342 -0.4895 0.4705
vn -0.7507 -0.4638 0.4705
vn -0.7507 -0.4638 0.4705
vn -0.7507 -0.4638 0.4705
vn -0.7507 -0.4638 0.4705
vn -0.7343 0.4894 0.4704
vn -0.7343 0.4894 0.4704
vn -0.7343 0.4894 0.4704
vn -0.7343 0.4894 0.4704
vn -0.7341 0.4894 -0.4707
vn -0.7341 0.4894 -0.4707
vn -0.7341 0.4894 -0.4707
vn -0.7341 0.4894 -0.4707
vn -0.7507 -0.4638 -0.4705
vn -0.7507 -0.4638 -0.4705
vn -0.7507 -0.4638 -0.4705
vn -0.7507 -0.4638 -0.4705
vn -0.8593 0.3547 0.3684
vn -0.8593 0.3547 0.3684
vn -0.8593 0.3547 0.3684
vn -0.8593 0.3547 0.3684
vn -0.8707 -0.3255 0.3686
vn -0.8707 -0.3255 0.3686
vn -0.8707 -0.3255 0.3686
vn -0.8707 -0.3255 0.3686
vn -0.8708 -0.3254 -0.3684
vn -0.8708 -0.3254 -0.3684
vn -0.8708 -0.3254 -0.3684
vn -0.8708 -0.3254 -0.3684
vn -0.8593 0.3548 -0.3684
vn -0.8593 0.3548 -0.3684
vn -0.8593 0.3548 -0.3684
vn -0.8593 0.3548 -0.3684
vn 0.6991 -0.715 0
vn 0.6991 -0.715 0
vn 0.6991 -0.715 0
vn 0.6991 -0.715 0
vn 0.7113 -0.012 -0.7028
vn 0.7113 -0.012 -0.7028
vn 0.7113 -0.012 -0.7028
vn 0.7113 -0.012 -0.7028
vn 0.7228 0.6911 0
vn 0.7228 0.6911 0
vn 0.7228 0.6911 0
vn 0.7228 0.6911 0
vn 0.7113 -0.012 0.7027
vn 0.7113 -0.012 0.7027
vn 0.7113 -0.012 0.7027
vn 0.7113 -0.012 0.7027
vn 0.9997 -0.0228 -0.006
vn 0.9997 -0.0228 -0.006
vn 0.9997 -0.0228 -0.006
vn 0.9997 -0.0228 -0.006
vn 0.7029 -0.0119 -0.7112
vn 0.7029 -0.0119 -0.7112
vn 0.7029 -0.0119 -0.7112
vn 0.7029 -0.0119 -0.7112
vn 0.9999 -0.0111 -0.006
vn 0.9999 -0.0111 -0.006
vn 0.9999 -0.0111 -0.006
vn 0.9999 -0.0111 -0.006
vn 0.9997 -0.0226 0.006
vn 0.9997 -0.0226 0.006
vn 0.9997 -0.0226 0.006
vn 0.9997 -0.0226 0.006
vn 0.6909 -0.7229 0
vn 0.6909 -0.7229 0
vn 0.6909 -0.7229 0
vn 0.6909 -0.7229 0
vn 0.9999 -0.0113 0.0061
vn 0.9999 -0.0113 0.0061
vn 0.9999 -0.0113 0.0061
vn 0.9999 -0.0113 0.0061
vn 0.7028 -0.0119 0.7113
vn 0.7028 -0.0119 0.7113
vn 0.7028 -0.0119 0.7113
vn 0.7028 -0.0119 0.7113
vn 0.715 0.6991 0
vn 0.715 0.6991 0
vn 0.715 0.6991 0
vn 0.715 0.6991 0
vn 0.0119 0.707 -0.7071
vn 0.0119 0.707 -0.7071
vn 0.0119 0.707 -0.7071
vn 0.0119 0.707 -0.7071
vn -0.6911 0.7227 0
vn -0.6911 0.7227 0
vn -0.6911 0.7227 0
vn -0.6911 0.7227 0
vn 0.012 0.7072 0.7069
vn 0.012 0.7072 0.7069
vn 0.012 0.7072 0.7069
vn 0.012 0.7072 0.7069
vn -0.7027 0.0119 0.7114
vn -0.7027 0.0119 0.7114
vn -0.7027 0.0119 0.7114
vn -0.7027 0.0119 0.7114
vn -0.0119 -0.7069 0.7072
vn -0.0119 -0.7069 0.7072
vn -0.0119 -0.7069 0.7072
vn -0.0119 -0.7069 0.7072
vn -0.715 -0.6991 0
vn -0.715 -0.6991 0
vn -0.715 -0.6991 0
vn -0.715 -0.6991 0
vn -0.012 -0.707 -0.7071
vn -0.012 -0.707 -0.7071
vn -0.012 -0.707 -0.7071
vn -0.012 -0.707 -0.7071
vn -0.703 0.0119 -0.7111
vn -0.703 0.0119 -0.7111
vn -0.703 0.0119 -0.7111
vn -0.703 0.0119 -0.7111
vn -0.0119 -0.707 0.7071
vn -0.0119 -0.707 0.7071
vn -0.0119 -0.707 0.7071
vn -0.0119 -0.707 0.7071
vn -0.7113 0.012 0.7028
vn -0.7113 0.012 0.7028
vn -0.7113 0.012 0.7028
vn -0.7113 0.012 0.7028
vn 0.012 0.7071 0.707
vn 0.012 0.7071 0.707
vn 0.012 0.7071 0.707
vn 0.012 0.7071 0.707
vn -0.6992 0.715 0
vn -0.6992 0.715 0
vn -0.6992 0.715 0
vn -0.6992 0.715 0
vn 0.0119 0.707 -0.7071
vn 0.0119 0.707 -0.7071
vn 0.0119 0.707 -0.7071
vn 0.0119 0.707 -0.7071
vn -0.7112 0.012 -0.7029
vn -0.7112 0.012 -0.7029
vn -0.7112 0.012 -0.7029
vn -0.7112 0.012 -0.7029
vn -0.012 -0.707 -0.7071
vn -0.012 -0.707 -0.7071
vn -0.012 -0.707 -0.7071
vn -0.012 -0.707 -0.7071
vn -0.7229 -0.6909 -0
vn -0.7229 -0.6909 -0
vn -0.7229 -0.6909 -0
vn -0.7229 -0.6909 -0
vn -0.9999 0.0113 -0.0061
vn -0.9999 0.0113 -0.0061
vn -0.9999 0.0113 -0.0061
vn -0.9999 0.0113 -0.0061
vn -0.9997 0.0227 -0.006
vn -0.9997 0.0227 -0.006
vn -0.9997 0.0227 -0.006
vn -0.9997 0.0227 -0.006
vn -0.9999 0.0113 0.006
vn -0.9999 0.0113 0.006
vn -0.9999 0.0113 0.006
vn -0.9999 0.0113 0.006
vn -0.9997 0.0225 0.006
vn -0.9997 0.0225 0.006
vn -0.9997 0.0225 0.006
vn -0.9997 0.0225 0.006
vn 0.9998 -0.0169 0.012
vn 0.9998 -0.0169 0.012
vn 0.9998 -0.0169 0.012
vn 0.9998 -0.0169 0.012
f 1/1/1 2/2/2 3/3/3
f 1/1/1 4/4/4 2/2/2
f 5/5/5 6/6/6 7/7/7
f 5/5/5 8/8/8 6/6/6
f 9/9/9 10/10/10 11/11/11
f 9/9/9 12/12/12 10/10/10
f 13/13/13 14/14/14 15/15/15
f 13/13/13 16/16/16 14/14/14
f 17/17/17 18/18/18 19/19/19
f 17/17/17 20/20/20 18/18/18
f 21/21/21 22/22/22 23/23/23
f 21/21/21 24/24/24 22/22/22
f 25/25/25 26/26/26 27/27/27
f 25/25/25 28/28/28 26/26/26
f 29/29/29 30/30/30 31/31/31
f 29/29/29 32/32/32 30/30/30
f 33/33/33 34/34/34 35/35/35
f 33/33/33 36/36/36 34/34/34
f 37/37/37 38/38/38 39/39/39
f 37/37/37 40/40/40 38/38/38
f 41/41/41 42/42/42 43/43/43
f 41/41/41 44/44/44 42/42/42
f 45/45/45 46/46/46 47/47/47
f 45/45/45 48/48/48 46/46/46
f 49/49/49 50/50/50 51/51/51
f 49/49/49 52/52/52 50/50/50
f 53/53/53 54/54/54 55/55/55
f 53/53/53 56/56/56 54/54/54
f 57/57/57 58/58/58 59/59/59
f 57/57/57 60/60/60 58/58/58
f 61/61/61 62/62/62 63/63/63
f 61/61/61 64/64/64 62/62/62
f 65/65/65 66/66/66 67/67/67
f 65/65/65 68/68/68 66/66/66
f 69/69/69 70/70/70 71/71/71
f 69/69/69 72/72/72 70/70/70
f 73/73/73 74/74/74 75/75/75
f 73/73/73 76/76/76 74/74/74
f 77/77/77 78/78/78 79/79/79
f 77/77/77 80/80/80 78/78/78
f 81/81/81 82/82/82 83/83/83
f 81/81/81 84/84/84 82/82/82
f 85/85/85 86/86/86 87/87/87
f 85/85/85 88/88/88 86/86/86
f 89/89/89 90/90/90 91/91/91
f 89/89/89 92/92/92 90/90/90
f 93/93/93 94/94/94 95/95/95
f 93/93/93 96/96/96 94/94/94
f 97/97/97 98/98/98 99/99/99
f 97/97/97 100/100/100 98/98/98
f 101/101/101 102/102/102 103/103/103
f 101/101/101 104/104/104 102/102/102
f 105/105/105 106/106/106 107/107/107
f 105/105/105 108/108/108 106/106/106
f 109/109/109 110/110/110 111/111/111
f 109/109/109 112/112/112 110/110/110
f 113/113/113 114/114/114 115/115/115
f 113/113/113 116/116/116 114/114/114
f 117/117/117 118/118/118 119/119/119
f 117/117/117 120/120/120 118/118/118
f 121/121/121 122/122/122 123/123/123
f 121/121/121 124/124/124 122/122/122
f 125/125/125 126/126/126 127/127/127
f 125/125/125 128/128/128 126/126/126
f 129/129/129 130/130/130 131/131/131
f 129/129/129 132/132/132 130/130/130
f 133/133/133 134/134/134 135/135/135
f 133/133/133 136/136/136 134/134/134
f 137/137/137 138/138/138 139/139/139
f 137/137/137 140/140/140 138/138/138
f 141/141/141 142/142/142 143/143/143
f 141/141/141 144/144/144 142/142/142
f 145/145/145 146/146/146 147/147/147
f 145/145/145 148/148/148 146/146/146
f 149/149/149 150/150/150 151/151/151
f 149/149/149 152/152/152 150/150/150
f 153/153/153 154/154/154 155/155/155
f 153/153/153 156/156/156 154/154/154
f 157/157/157 158/158/158 159/159/159
f 157/157/157 160/160/160 158/158/158
f 161/161/161 162/162/162 163/163/163
f 161/161/161 164/164/164 162/162/162
f 165/165/165 166/166/166 167/167/167
f 165/165/165 168/168/168 166/166/166
f 169/169/169 170/170/170 171/171/171
f 169/169/169 172/172/172 170/170/170
f 173/173/173 174/174/174 175/175/175
f 173/173/173 176/176/176 174/174/174
f 177/177/177 178/178/178 179/179/179
f 177/177/177 180/180/180 178/178/178
f 181/181/181 182/182/182 183/183/183
f 181/181/181 184/184/184 182/182/182
f 185/185/185 186/186/186 187/187/187
f 185/185/185 188/188/188 186/186/186
f 189/189/189 190/190/190 191/191/191
f 189/189/189 192/192/192 190/190/190
f 193/193/193 194/194/194 195/195/195
f 193/193/193 196/196/196 194/194/194
f 197/197/197 198/198/198 199/199/199
f 197/197/197 200/200/200 198/198/198
f 201/201/201 202/202/202 203/203/203
f 201/201/201 204/204/204 202/202/202
f 205/205/205 206/206/206 207/207/207
f 205/205/205 208/208/208 206/206/206
f 209/209/209 210/210/210 211/211/211
f 209/209/209 212/212/212 210/210/210
f 213/213/213 214/214/214 215/215/215
f 213/213/213 216/216/216 214/214/214
f 217/217/217 218/218/218 219/219/219
f 217/217/217 220/220/220 218/218/218
f 221/221/221 222/222/222 223/223/223
f 221/221/221 224/224/224 222/222/222
f 225/225/225 226/226/226 227/227/227
f 225/225/225 228/228/228 226/226/226
f 229/229/229 230/230/230 231/231/231
f 229/229/229 232/232/232 230/230/230
f 233/233/233 234/234/234 235/235/235
f 233/233/233 236/236/236 234/234/234
f 237/237/237 238/238/238 239/239/239
f 237/237/237 240/240/240 238/238/238
f 241/241/241 242/242/242 243/243/243
f 241/241/241 244/244/244 242/242/242
f 245/245/245 246/246/246 247/247/247
f 245/245/245 248/248/248 246/246/246
f 249/249/249 250/250/250 251/251/251
f 249/249/249 252/252/252 250/250/250
f 253/253/253 254/254/254 255/255/255
f 253/253/253 256/256/256 254/254/254
