v -2.21604 0.820126 4.09416
v -2.21604 0.820126 4.03465
v -2.22928 0.820126 4.03465
v -2.22928 0.820126 4.09416
v -2.22964 0.723138 4.09416
v -2.22964 0.819765 4.09416
v -2.22964 0.819765 4.03465
v -2.22964 0.723138 4.03465
v -2.21604 0.722778 4.03465
v -2.21604 0.722778 4.09416
v -2.22928 0.722778 4.09416
v -2.22928 0.722778 4.03465
v -2.21568 0.819765 4.03465
v -2.21568 0.819765 4.09416
v -2.21568 0.723138 4.09416
v -2.21568 0.723138 4.03465
v -2.21604 0.723138 4.09452
v -2.21604 0.819765 4.09452
v -2.22928 0.819765 4.09452
v -2.22928 0.723138 4.09452
v -2.21568 0.819765 4.03465
v -2.21604 0.819765 4.03428
v -2.21604 0.820126 4.03465
v -2.21568 0.723138 4.03465
v -2.21604 0.722778 4.03465
v -2.21604 0.723138 4.03428
v -2.21604 0.723138 4.09452
v -2.21604 0.722778 4.09416
v -2.21568 0.723138 4.09416
v -2.21568 0.819765 4.09416
v -2.21604 0.820126 4.09416
v -2.21604 0.819765 4.09452
v -2.22928 0.819765 4.09452
v -2.22928 0.820126 4.09416
v -2.22964 0.819765 4.09416
v -2.22928 0.723138 4.09452
v -2.22964 0.723138 4.09416
v -2.22928 0.722778 4.09416
v -2.22928 0.723138 4.03428
v -2.22928 0.722778 4.03465
v -2.22964 0.723138 4.03465
v -2.22928 0.820126 4.03465
v -2.22928 0.819765 4.03428
v -2.22964 0.819765 4.03465
v -2.21568 0.723138 4.03465
v -2.21568 0.723138 4.09416
v -2.21604 0.722778 4.09416
v -2.21604 0.722778 4.03465
v -2.21568 0.819765 4.03465
v -2.21568 0.723138 4.03465
v -2.21604 0.723138 4.03428
v -2.21604 0.819765 4.03428
v -2.21604 0.820126 4.03465
v -2.21604 0.820126 4.09416
v -2.21568 0.819765 4.09416
v -2.21568 0.819765 4.03465
v -2.21568 0.723138 4.09416
v -2.21568 0.819765 4.09416
v -2.21604 0.819765 4.09452
v -2.21604 0.723138 4.09452
v -2.22928 0.819765 4.09452
v -2.21604 0.819765 4.09452
v -2.21604 0.820126 4.09416
v -2.22928 0.820126 4.09416
v -2.22964 0.819765 4.09416
v -2.22964 0.723138 4.09416
v -2.22928 0.723138 4.09452
v -2.22928 0.819765 4.09452
v -2.22928 0.722778 4.09416
v -2.21604 0.722778 4.09416
v -2.21604 0.723138 4.09452
v -2.22928 0.723138 4.09452
v -2.22928 0.820126 4.03465
v -2.21604 0.820126 4.03465
v -2.21604 0.819765 4.03428
v -2.22928 0.819765 4.03428
v -2.22928 0.820126 4.09416
v -2.22928 0.820126 4.03465
v -2.22964 0.819765 4.03465
v -2.22964 0.819765 4.09416
v -2.22928 0.723138 4.03428
v -2.21604 0.723138 4.03428
v -2.21604 0.722778 4.03465
v -2.22928 0.722778 4.03465
v -2.22964 0.723138 4.03465
v -2.22964 0.819765 4.03465
v -2.22928 0.819765 4.03428
v -2.22928 0.723138 4.03428
v -2.22964 0.723138 4.09416
v -2.22964 0.723138 4.03465
v -2.22928 0.722778 4.03465
v -2.22928 0.722778 4.09416
v -2.21604 0.819765 4.03428
v -2.21604 0.723138 4.03428
v -2.22928 0.723138 4.03428
v -2.22928 0.819765 4.03428
vt 0.528783 0.944774
vt 0.528783 0.581542
vt 0.602796 0.581542
vt 0.602796 0.944774
vt 0.997405 0.00260787
vt 0.997405 0.576339
vt 0.634173 0.576339
vt 0.634173 0.00260787
vt 0.102796 0.581542
vt 0.102796 0.944774
vt 0.0287829 0.944774
vt 0.0287829 0.581542
vt 0.365827 0.576339
vt 0.00259451 0.576339
vt 0.00259451 0.00260787
vt 0.365827 0.00260787
vt 0.471217 0.00260787
vt 0.471217 0.576339
vt 0.397204 0.576339
vt 0.397204 0.00260787
vt 0.212719 0.607456
vt 0.234649 0.607456
vt 0.212719 0.629386
vt 0.287281 0.629386
vt 0.265351 0.629386
vt 0.265351 0.607456
vt 0.239035 0.629386
vt 0.239035 0.607456
vt 0.260965 0.607456
vt 0.208333 0.607456
vt 0.208333 0.629386
vt 0.186404 0.607456
vt 0.971491 0.58114
vt 0.971491 0.60307
vt 0.949561 0.58114
vt 0.997807 0.60307
vt 0.975877 0.58114
vt 0.997807 0.58114
vt 0.945175 0.58114
vt 0.945175 0.60307
vt 0.923246 0.60307
vt 0.160088 0.629386
vt 0.160088 0.607456
vt 0.182018 0.607456
vt 0.129386 0.581542
vt 0.129386 0.944774
vt 0.107456 0.944774
vt 0.107456 0.581542
vt 0.554825 0.576339
vt 0.554825 0.00260787
vt 0.576754 0.00260787
vt 0.576754 0.576339
vt 0.523721 0.60307
vt 0.160489 0.60307
vt 0.160489 0.58114
vt 0.523721 0.58114
vt 0.629386 0.00260787
vt 0.629386 0.576339
vt 0.607456 0.576339
vt 0.607456 0.00260787
vt 0.60773 0.58114
vt 0.681743 0.58114
vt 0.681743 0.60307
vt 0.60773 0.60307
vt 0.58114 0.576339
vt 0.58114 0.00260787
vt 0.60307 0.00260787
vt 0.60307 0.576339
vt 0.765625 0.58114
vt 0.839638 0.58114
vt 0.839638 0.60307
vt 0.765625 0.60307
vt 0.918586 0.60307
vt 0.844572 0.60307
vt 0.844572 0.58114
vt 0.918586 0.58114
vt 0.00219298 0.944774
vt 0.00219298 0.581542
vt 0.0241228 0.581542
vt 0.0241228 0.944774
vt 0.686678 0.58114
vt 0.760691 0.58114
vt 0.760691 0.60307
vt 0.686678 0.60307
vt 0.392544 0.00260787
vt 0.392544 0.576339
vt 0.370614 0.576339
vt 0.370614 0.00260787
vt 0.133772 0.944774
vt 0.133772 0.581542
vt 0.155702 0.581542
vt 0.155702 0.944774
vt 0.476151 0.576339
vt 0.476151 0.00260787
vt 0.550164 0.00260787
vt 0.550164 0.576339
vn 0 1 0
vn 0 1 0
vn 0 1 0
vn 0 1 0
vn -1 0 0
vn -1 0 0
vn -1 0 0
vn -1 0 0
vn 0 -1 0
vn 0 -1 0
vn 0 -1 0
vn 0 -1 0
vn 1 0 0
vn 1 0 0
vn 1 0 0
vn 1 0 0
vn 0 0 1
vn 0 0 1
vn 0 0 1
vn 0 0 1
vn 0.5783 0.5773 -0.5765
vn 0.5783 0.5773 -0.5765
vn 0.5783 0.5773 -0.5765
vn 0.5782 -0.5772 -0.5767
vn 0.5782 -0.5772 -0.5767
vn 0.5782 -0.5772 -0.5767
vn 0.5782 -0.5772 0.5767
vn 0.5782 -0.5772 0.5767
vn 0.5782 -0.5772 0.5767
vn 0.5783 0.5773 0.5765
vn 0.5783 0.5773 0.5765
vn 0.5783 0.5773 0.5765
vn -0.5783 0.5773 0.5765
vn -0.5783 0.5773 0.5765
vn -0.5783 0.5773 0.5765
vn -0.5782 -0.5772 0.5767
vn -0.5782 -0.5772 0.5767
vn -0.5782 -0.5772 0.5767
vn -0.5782 -0.5772 -0.5767
vn -0.5782 -0.5772 -0.5767
vn -0.5782 -0.5772 -0.5767
vn -0.5783 0.5773 -0.5765
vn -0.5783 0.5773 -0.5765
vn -0.5783 0.5773 -0.5765
vn 0.7072 -0.707 0
vn 0.7072 -0.707 0
vn 0.7072 -0.707 0
vn 0.7072 -0.707 0
vn 0.7078 0 -0.7064
vn 0.7078 0 -0.7064
vn 0.7078 0 -0.7064
vn 0.7078 0 -0.7064
vn 0.7072 0.707 0
vn 0.7072 0.707 0
vn 0.7072 0.707 0
vn 0.7072 0.707 0
vn 0.7078 0 0.7064
vn 0.7078 0 0.7064
vn 0.7078 0 0.7064
vn 0.7078 0 0.7064
vn 0 0.7074 0.7068
vn 0 0.7074 0.7068
vn 0 0.7074 0.7068
vn 0 0.7074 0.7068
vn -0.7078 0 0.7064
vn -0.7078 0 0.7064
vn -0.7078 0 0.7064
vn -0.7078 0 0.7064
vn 0 -0.7075 0.7067
vn 0 -0.7075 0.7067
vn 0 -0.7075 0.7067
vn 0 -0.7075 0.7067
vn 0 0.7074 -0.7068
vn 0 0.7074 -0.7068
vn 0 0.7074 -0.7068
vn 0 0.7074 -0.7068
vn -0.7072 0.707 0
vn -0.7072 0.707 0
vn -0.7072 0.707 0
vn -0.7072 0.707 0
vn 0 -0.7075 -0.7067
vn 0 -0.7075 -0.7067
vn 0 -0.7075 -0.7067
vn 0 -0.7075 -0.7067
vn -0.7078 0 -0.7064
vn -0.7078 0 -0.7064
vn -0.7078 0 -0.7064
vn -0.7078 0 -0.7064
vn -0.7072 -0.707 0
vn -0.7072 -0.707 0
vn -0.7072 -0.707 0
vn -0.7072 -0.707 0
vn 0 0 -1
vn 0 0 -1
vn 0 0 -1
vn 0 0 -1
f 1/1/1 2/2/2 3/3/3
f 1/1/1 3/3/3 4/4/4
f 5/5/5 6/6/6 7/7/7
f 5/5/5 7/7/7 8/8/8
f 9/9/9 10/10/10 11/11/11
f 9/9/9 11/11/11 12/12/12
f 13/13/13 14/14/14 15/15/15
f 13/13/13 15/15/15 16/16/16
f 17/17/17 18/18/18 19/19/19
f 17/17/17 19/19/19 20/20/20
f 21/21/21 22/22/22 23/23/23
f 24/24/24 25/25/25 26/26/26
f 27/27/27 28/28/28 29/29/29
f 30/30/30 31/31/31 32/32/32
f 33/33/33 34/34/34 35/35/35
f 36/36/36 37/37/37 38/38/38
f 39/39/39 40/40/40 41/41/41
f 42/42/42 43/43/43 44/44/44
f 45/45/45 46/46/46 47/47/47
f 45/45/45 47/47/47 48/48/48
f 49/49/49 50/50/50 51/51/51
f 49/49/49 51/51/51 52/52/52
f 53/53/53 54/54/54 55/55/55
f 53/53/53 55/55/55 56/56/56
f 57/57/57 58/58/58 59/59/59
f 57/57/57 59/59/59 60/60/60
f 61/61/61 62/62/62 63/63/63
f 61/61/61 63/63/63 64/64/64
f 65/65/65 66/66/66 67/67/67
f 65/65/65 67/67/67 68/68/68
f 69/69/69 70/70/70 71/71/71
f 69/69/69 71/71/71 72/72/72
f 73/73/73 74/74/74 75/75/75
f 73/73/73 75/75/75 76/76/76
f 77/77/77 78/78/78 79/79/79
f 77/77/77 79/79/79 80/80/80
f 81/81/81 82/82/82 83/83/83
f 81/81/81 83/83/83 84/84/84
f 85/85/85 86/86/86 87/87/87
f 85/85/85 87/87/87 88/88/88
f 89/89/89 90/90/90 91/91/91
f 89/89/89 91/91/91 92/92/92
f 93/93/93 94/94/94 95/95/95
f 93/93/93 95/95/95 96/96/96
