v -2.4105 0.935024 4.07117
v -2.187 1.11253 4.09456
v -2.187 0.935024 4.07117
v -2.4105 1.11253 4.09456
v -2.187 0.93273 4.08858
v -2.4105 1.11023 4.11198
v -2.4105 0.93273 4.08858
v -2.187 1.11023 4.11198
v -2.18617 0.934859 4.07243
v -2.4105 0.935024 4.07117
v -2.187 0.935024 4.07117
v -2.4105 0.934859 4.07243
v -2.18617 0.932895 4.08733
v -2.4105 0.932895 4.08733
v -2.4105 0.932895 4.08733
v -2.187 0.93273 4.08858
v -2.4105 0.93273 4.08858
v -2.18617 0.932895 4.08733
v -2.4105 0.93273 4.08858
v -2.4105 1.1104 4.11072
v -2.4105 0.932895 4.08733
v -2.4105 1.11023 4.11198
v -2.4105 0.932895 4.08733
v -2.4105 1.11236 4.09582
v -2.4105 0.934859 4.07243
v -2.4105 1.1104 4.11072
v -2.4105 1.11253 4.09456
v -2.4105 0.935024 4.07117
v -2.187 0.935024 4.07117
v -2.18617 1.11236 4.09582
v -2.18617 0.934859 4.07243
v -2.187 1.11253 4.09456
v -2.18617 0.934859 4.07243
v -2.18617 1.1104 4.11072
v -2.18617 0.932895 4.08733
v -2.18617 1.11236 4.09582
v -2.18617 0.932895 4.08733
v -2.187 1.11023 4.11198
v -2.187 0.93273 4.08858
v -2.18617 1.1104 4.11072
v -2.4105 1.11023 4.11198
v -2.18617 1.1104 4.11072
v -2.4105 1.1104 4.11072
v -2.187 1.11023 4.11198
v -2.4105 1.1104 4.11072
v -2.18617 1.11236 4.09582
v -2.4105 1.11236 4.09582
v -2.18617 1.1104 4.11072
v -2.4105 1.11236 4.09582
v -2.187 1.11253 4.09456
v -2.4105 1.11253 4.09456
v -2.18617 1.11236 4.09582
vt 0.085053 0.002481
vt 0.08462 0.760408
vt 0.08462 0.002481
vt 0.085053 0.760408
vt 0.04193 0.002481
vt 0.040506 0.760408
vt 0.040506 0.002481
vt 0.04193 0.760408
vt 0.987148 0.008603
vt 0.989829 0.127444
vt 0.989829 0.008603
vt 0.987148 0.127444
vt 0.946689 0.008603
vt 0.946689 0.127444
vt 0.946689 0.127444
vt 0.943949 0.008603
vt 0.943949 0.127444
vt 0.946689 0.008603
vt 0.943949 0.127444
vt 0.946689 0.256778
vt 0.946689 0.127444
vt 0.943949 0.256778
vt 0.946689 0.127444
vt 0.987148 0.256778
vt 0.987148 0.127444
vt 0.946689 0.256778
vt 0.989829 0.256778
vt 0.989829 0.127444
vt 0.08462 0.002481
vt 0.083038 0.760408
vt 0.083038 0.002481
vt 0.08462 0.760408
vt 0.083038 0.002481
vt 0.043314 0.760408
vt 0.043314 0.002481
vt 0.083038 0.760408
vt 0.043314 0.002481
vt 0.04193 0.760408
vt 0.04193 0.002481
vt 0.043314 0.760408
vt 0.943949 0.256778
vt 0.946689 0.375415
vt 0.946689 0.256778
vt 0.943949 0.375415
vt 0.946689 0.256778
vt 0.987148 0.375415
vt 0.987148 0.256778
vt 0.946689 0.375415
vt 0.987148 0.256778
vt 0.989829 0.375415
vt 0.989829 0.256778
vt 0.987148 0.375415
vn 0 0.1307 -0.9914
vn 0 0.1307 -0.9914
vn 0 0.1307 -0.9914
vn 0 0.1307 -0.9914
vn 0 -0.1306 0.9914
vn 0 -0.1306 0.9914
vn 0 -0.1306 0.9914
vn 0 -0.1306 0.9914
vn -0 -0.9914 -0.1307
vn -0 -0.9914 -0.1307
vn -0 -0.9914 -0.1307
vn -0 -0.9914 -0.1307
vn -0 -0.9914 -0.1307
vn -0 -0.9914 -0.1307
vn -0 -0.9914 -0.1306
vn -0 -0.9914 -0.1306
vn -0 -0.9914 -0.1306
vn -0 -0.9914 -0.1306
vn -1 0 -0.0001
vn -1 0 -0.0001
vn -1 0 -0.0001
vn -1 0 -0.0001
vn -1 -0 -0
vn -1 -0 -0
vn -1 -0 -0
vn -1 -0 -0
vn -1 -0 -0
vn -1 -0 -0
vn 0.8374 0.0714 -0.5419
vn 0.8374 0.0714 -0.5419
vn 0.8374 0.0714 -0.5419
vn 0.8374 0.0714 -0.5419
vn 1 0 0
vn 1 0 0
vn 1 0 0
vn 1 0 0
vn 0.8374 -0.0714 0.5419
vn 0.8374 -0.0714 0.5419
vn 0.8374 -0.0714 0.5419
vn 0.8374 -0.0714 0.5419
vn 0 0.9914 0.1306
vn 0 0.9914 0.1306
vn 0 0.9914 0.1306
vn 0 0.9914 0.1306
vn 0 0.9914 0.1307
vn 0 0.9914 0.1307
vn 0 0.9914 0.1307
vn 0 0.9914 0.1307
vn 0 0.9914 0.1306
vn 0 0.9914 0.1306
vn 0 0.9914 0.1306
vn 0 0.9914 0.1306
f 1/1/1 2/2/2 3/3/3
f 1/1/1 4/4/4 2/2/2
f 5/5/5 6/6/6 7/7/7
f 5/5/5 8/8/8 6/6/6
f 9/9/9 10/10/10 11/11/11
f 9/9/9 12/12/12 10/10/10
f 12/12/12 13/13/13 14/14/14
f 12/12/12 9/9/9 13/13/13
f 15/15/15 16/16/16 17/17/17
f 15/15/15 18/18/18 16/16/16
f 19/19/19 20/20/20 21/21/21
f 19/19/19 22/22/22 20/20/20
f 23/23/23 24/24/24 25/25/25
f 23/23/23 26/26/26 24/24/24
f 25/25/25 27/27/27 28/28/28
f 25/25/25 24/24/24 27/27/27
f 29/29/29 30/30/30 31/31/31
f 29/29/29 32/32/32 30/30/30
f 33/33/33 34/34/34 35/35/35
f 33/33/33 36/36/36 34/34/34
f 37/37/37 38/38/38 39/39/39
f 37/37/37 40/40/40 38/38/38
f 41/41/41 42/42/42 43/43/43
f 41/41/41 44/44/44 42/42/42
f 45/45/45 46/46/46 47/47/47
f 45/45/45 48/48/48 46/46/46
f 49/49/49 50/50/50 51/51/51
f 49/49/49 52/52/52 50/50/50
