v -2.36295 0.931636 3.68991
v -2.19069 1.14666 3.68095
v -2.19069 0.931636 3.68991
v -2.36295 1.14666 3.68095
v -2.19069 0.932676 3.71487
v -2.36295 1.1477 3.70591
v -2.36295 0.932676 3.71487
v -2.19069 1.1477 3.70591
v -2.18986 0.931689 3.69118
v -2.36295 0.931636 3.68991
v -2.19069 0.931636 3.68991
v -2.36295 0.931689 3.69118
v -2.36295 0.931689 3.69118
v -2.18986 0.932624 3.71361
v -2.36295 0.932624 3.71361
v -2.18986 0.931689 3.69118
v -2.36295 0.932624 3.71361
v -2.19069 0.932676 3.71487
v -2.36295 0.932676 3.71487
v -2.18986 0.932624 3.71361
v -2.36295 0.932676 3.71487
v -2.36295 1.14765 3.70465
v -2.36295 0.932624 3.71361
v -2.36295 1.1477 3.70591
v -2.36295 1.14671 3.68222
v -2.36295 0.931689 3.69118
v -2.36295 1.14666 3.68095
v -2.36295 0.931636 3.68991
v -2.19069 0.931636 3.68991
v -2.18986 1.14671 3.68222
v -2.18986 0.931689 3.69118
v -2.19069 1.14666 3.68095
v -2.18986 0.931689 3.69118
v -2.18986 1.14765 3.70465
v -2.18986 0.932624 3.71361
v -2.18986 1.14671 3.68222
v -2.18986 0.932624 3.71361
v -2.19069 1.1477 3.70591
v -2.19069 0.932676 3.71487
v -2.18986 1.14765 3.70465
v -2.36295 1.1477 3.70591
v -2.18986 1.14765 3.70465
v -2.36295 1.14765 3.70465
v -2.19069 1.1477 3.70591
v -2.36295 1.14765 3.70465
v -2.18986 1.14671 3.68222
v -2.36295 1.14671 3.68222
v -2.18986 1.14765 3.70465
v -2.36295 1.14671 3.68222
v -2.19069 1.14666 3.68095
v -2.36295 1.14666 3.68095
v -2.18986 1.14671 3.68222
vt 0.873708 0.002481
vt 0.871966 0.93701
vt 0.871966 0.002481
vt 0.873708 0.93701
vt 0.827515 0.002481
vt 0.826136 0.93701
vt 0.826136 0.002481
vt 0.827515 0.93701
vt 0.987148 0.008603
vt 0.989829 0.127444
vt 0.989829 0.008603
vt 0.987148 0.127444
vt 0.987148 0.127444
vt 0.946689 0.008603
vt 0.946689 0.127444
vt 0.987148 0.008603
vt 0.946689 0.127444
vt 0.943949 0.008603
vt 0.943949 0.127444
vt 0.946689 0.008603
vt 0.943949 0.127444
vt 0.946689 0.256778
vt 0.946689 0.127444
vt 0.943949 0.256778
vt 0.987148 0.256778
vt 0.987148 0.127444
vt 0.989829 0.256778
vt 0.989829 0.127444
vt 0.871966 0.002481
vt 0.869311 0.93701
vt 0.869311 0.002481
vt 0.871966 0.93701
vt 0.869311 0.002481
vt 0.830112 0.93701
vt 0.830112 0.002481
vt 0.869311 0.93701
vt 0.830112 0.002481
vt 0.827515 0.93701
vt 0.827515 0.002481
vt 0.830112 0.93701
vt 0.943949 0.256778
vt 0.946689 0.375415
vt 0.946689 0.256778
vt 0.943949 0.375415
vt 0.946689 0.256778
vt 0.987148 0.375415
vt 0.987148 0.256778
vt 0.946689 0.375415
vt 0.987148 0.256778
vt 0.989829 0.375415
vt 0.989829 0.256778
vt 0.987148 0.375415
vn -0 -0.0416 -0.9991
vn -0 -0.0416 -0.9991
vn -0 -0.0416 -0.9991
vn -0 -0.0416 -0.9991
vn 0 0.0416 0.9991
vn 0 0.0416 0.9991
vn 0 0.0416 0.9991
vn 0 0.0416 0.9991
vn 0 -0.9991 0.0417
vn 0 -0.9991 0.0417
vn 0 -0.9991 0.0417
vn 0 -0.9991 0.0417
vn 0 -0.9991 0.0416
vn 0 -0.9991 0.0416
vn 0 -0.9991 0.0416
vn 0 -0.9991 0.0416
vn 0 -0.9991 0.0417
vn 0 -0.9991 0.0417
vn 0 -0.9991 0.0417
vn 0 -0.9991 0.0417
vn -1 0 0
vn -1 0 0
vn -1 0 0
vn -1 0 0
vn -1 0 0
vn -1 0 0
vn -1 0 0
vn -1 0 0
vn 0.8375 -0.0228 -0.546
vn 0.8375 -0.0228 -0.546
vn 0.8375 -0.0228 -0.546
vn 0.8375 -0.0228 -0.546
vn 1 0 0
vn 1 0 0
vn 1 0 0
vn 1 0 0
vn 0.8375 0.0228 0.546
vn 0.8375 0.0228 0.546
vn 0.8375 0.0228 0.546
vn 0.8375 0.0228 0.546
vn 0 0.9991 -0.0417
vn 0 0.9991 -0.0417
vn 0 0.9991 -0.0417
vn 0 0.9991 -0.0417
vn 0 0.9991 -0.0416
vn 0 0.9991 -0.0416
vn 0 0.9991 -0.0416
vn 0 0.9991 -0.0416
vn 0 0.9991 -0.0417
vn 0 0.9991 -0.0417
vn 0 0.9991 -0.0417
vn 0 0.9991 -0.0417
f 1/1/1 2/2/2 3/3/3
f 1/1/1 4/4/4 2/2/2
f 5/5/5 6/6/6 7/7/7
f 5/5/5 8/8/8 6/6/6
f 9/9/9 10/10/10 11/11/11
f 9/9/9 12/12/12 10/10/10
f 13/13/13 14/14/14 15/15/15
f 13/13/13 16/16/16 14/14/14
f 17/17/17 18/18/18 19/19/19
f 17/17/17 20/20/20 18/18/18
f 21/21/21 22/22/22 23/23/23
f 21/21/21 24/24/24 22/22/22
f 23/23/23 25/25/25 26/26/26
f 23/23/23 22/22/22 25/25/25
f 26/26/26 27/27/27 28/28/28
f 26/26/26 25/25/25 27/27/27
f 29/29/29 30/30/30 31/31/31
f 29/29/29 32/32/32 30/30/30
f 33/33/33 34/34/34 35/35/35
f 33/33/33 36/36/36 34/34/34
f 37/37/37 38/38/38 39/39/39
f 37/37/37 40/40/40 38/38/38
f 41/41/41 42/42/42 43/43/43
f 41/41/41 44/44/44 42/42/42
f 45/45/45 46/46/46 47/47/47
f 45/45/45 48/48/48 46/46/46
f 49/49/49 50/50/50 51/51/51
f 49/49/49 52/52/52 50/50/50
