v 1.67023 2.79036 0.894083
v 1.67679 2.79036 0.897665
v 1.67679 2.73833 0.897665
v 1.67023 2.73833 0.894083
v 1.66275 2.79036 0.923373
v 1.65619 2.79036 0.919791
v 1.65619 2.73833 0.919791
v 1.66275 2.73833 0.923373
v 1.67211 2.79036 0.906234
v 1.67679 2.79036 0.897665
v 1.67023 2.79036 0.894083
v 1.66555 2.79036 0.902652
v 1.66087 2.79036 0.911221
v 1.66743 2.79036 0.914804
v 1.65619 2.79036 0.919791
v 1.66275 2.79036 0.923373
v 1.65619 2.79036 0.919791
v 1.66087 2.79036 0.911221
v 1.66087 2.73186 0.911221
v 1.65619 2.73833 0.919791
v 1.66555 2.79036 0.902652
v 1.66555 2.73186 0.902652
v 1.67023 2.79036 0.894083
v 1.67023 2.73833 0.894083
v 1.67679 2.79036 0.897665
v 1.67211 2.79036 0.906234
v 1.67211 2.73186 0.906234
v 1.67679 2.73833 0.897665
v 1.66743 2.79036 0.914804
v 1.66743 2.73186 0.914804
v 1.66275 2.79036 0.923373
v 1.66275 2.73833 0.923373
v 1.65619 2.73833 0.919791
v 1.66087 2.73186 0.911221
v 1.66743 2.73186 0.914804
v 1.66275 2.73833 0.923373
v 1.66555 2.73186 0.902652
v 1.67211 2.73186 0.906234
v 1.67023 2.73833 0.894083
v 1.67679 2.73833 0.897665
v 1.14089 2.79036 0.604999
v 1.14089 2.73833 0.604999
v 1.13433 2.73833 0.601417
v 1.13433 2.79036 0.601417
v 1.12029 2.79036 0.627124
v 1.12029 2.73833 0.627124
v 1.12685 2.73833 0.630707
v 1.12685 2.79036 0.630707
v 1.12965 2.79036 0.609986
v 1.13621 2.79036 0.613568
v 1.14089 2.79036 0.604999
v 1.13433 2.79036 0.601417
v 1.12497 2.79036 0.618555
v 1.13153 2.79036 0.622137
v 1.12029 2.79036 0.627124
v 1.12685 2.79036 0.630707
v 1.12685 2.79036 0.630707
v 1.12685 2.73833 0.630707
v 1.13153 2.73186 0.622137
v 1.13153 2.79036 0.622137
v 1.13621 2.73186 0.613568
v 1.13621 2.79036 0.613568
v 1.14089 2.73833 0.604999
v 1.14089 2.79036 0.604999
v 1.13433 2.79036 0.601417
v 1.13433 2.73833 0.601417
v 1.12965 2.73186 0.609986
v 1.12965 2.79036 0.609986
v 1.12497 2.73186 0.618555
v 1.12497 2.79036 0.618555
v 1.12029 2.73833 0.627124
v 1.12029 2.79036 0.627124
v 1.12685 2.73833 0.630707
v 1.12029 2.73833 0.627124
v 1.12497 2.73186 0.618555
v 1.13153 2.73186 0.622137
v 1.12965 2.73186 0.609986
v 1.13621 2.73186 0.613568
v 1.13433 2.73833 0.601417
v 1.14089 2.73833 0.604999
vt 0.806548 0.493902
vt 0.77743 0.493902
vt 0.77743 0.0600575
vt 0.806548 0.0600575
vt 0.556548 0.493902
vt 0.52743 0.493902
vt 0.52743 0.0600575
vt 0.556548 0.0600575
vt 0.54579 0.604727
vt 0.505859 0.53507
vt 0.561833 0.505952
vt 0.601772 0.575609
vt 0.641702 0.645266
vt 0.585728 0.674391
vt 0.681641 0.71493
vt 0.625667 0.744048
vt 0.52743 0.493902
vt 0.457766 0.493902
vt 0.457766 0.00609756
vt 0.52743 0.0600575
vt 0.388109 0.493902
vt 0.388109 0.00609756
vt 0.318452 0.493902
vt 0.318452 0.0600575
vt 0.77743 0.493902
vt 0.707773 0.493902
vt 0.707773 0.00609756
vt 0.77743 0.0600575
vt 0.638109 0.493902
vt 0.638109 0.00609756
vt 0.568452 0.493902
vt 0.568452 0.0600575
vt 0.318359 0.71493
vt 0.358298 0.645266
vt 0.414272 0.674391
vt 0.374333 0.744048
vt 0.398228 0.575609
vt 0.45421 0.604727
vt 0.438167 0.505952
vt 0.494141 0.53507
vt 0.269743 0.493902
vt 0.269743 0.0600575
vt 0.30649 0.0600575
vt 0.30649 0.493902
vt 0.269733 0.993902
vt 0.269733 0.560058
vt 0.30649 0.560058
vt 0.30649 0.993902
vt 0.914268 0.406417
vt 0.858296 0.443164
vt 0.818359 0.355257
vt 0.874331 0.31851
vt 0.954204 0.494325
vt 0.898233 0.531072
vt 0.994141 0.582233
vt 0.938161 0.61899
vt 0.00600962 0.493902
vt 0.00600962 0.0600575
vt 0.0939278 0.00609756
vt 0.0939278 0.493902
vt 0.181836 0.00609756
vt 0.181836 0.493902
vt 0.269743 0.0600575
vt 0.269743 0.493902
vt 0.00600962 0.993902
vt 0.00600962 0.560058
vt 0.0939174 0.506098
vt 0.0939174 0.993902
vt 0.181825 0.506098
vt 0.181825 0.993902
vt 0.269733 0.560058
vt 0.269733 0.993902
vt 0.874339 0.30649
vt 0.818359 0.269733
vt 0.858296 0.181825
vt 0.914267 0.218572
vt 0.898232 0.0939174
vt 0.954204 0.130664
vt 0.938169 0.00600962
vt 0.994141 0.0427567
vn 0.479301 0 -0.87765
vn 0.479301 0 -0.87765
vn 0.479301 0 -0.87765
vn 0.479301 0 -0.87765
vn -0.479301 0 0.87765
vn -0.479301 0 0.87765
vn -0.479301 0 0.87765
vn -0.479301 0 0.87765
vn 0 1 0
vn 0 1 0
vn 0 1 0
vn 0 1 0
vn 0 1 0
vn 0 1 0
vn 0 1 0
vn 0 1 0
vn -0.877658 0 -0.479287
vn -0.87767 0 -0.479266
vn -0.877673 0 -0.47926
vn -0.877658 0 -0.479287
vn -0.87766 0 -0.479284
vn -0.877664 0 -0.479277
vn -0.877636 0 -0.479329
vn -0.877636 0 -0.479329
vn 0.877677 0 0.479253
vn 0.87767 0 0.479266
vn 0.877668 0 0.479269
vn 0.877677 0 0.479253
vn 0.87765 0 0.479302
vn 0.877653 0 0.479298
vn 0.877636 0 0.479329
vn 0.877636 0 0.479329
vn -0.264798 -0.833562 0.484826
vn -0.150776 -0.949254 0.276013
vn -0.150784 -0.949241 0.276055
vn -0.264784 -0.833554 0.484847
vn 0.150755 -0.94924 -0.276074
vn 0.150756 -0.949235 -0.276089
vn 0.264784 -0.833554 -0.484847
vn 0.264777 -0.83355 -0.484859
vn 0.479301 0 -0.87765
vn 0.479301 0 -0.87765
vn 0.479301 0 -0.87765
vn 0.479301 0 -0.87765
vn -0.479352 0 0.877623
vn -0.479352 0 0.877623
vn -0.479352 0 0.877623
vn -0.479352 0 0.877623
vn 0 1 0
vn 0 1 0
vn 0 1 0
vn 0 1 0
vn 0 1 0
vn 0 1 0
vn 0 1 0
vn 0 1 0
vn 0.877706 0 0.4792
vn 0.877706 0 0.4792
vn 0.877661 0 0.479282
vn 0.877671 0 0.479264
vn 0.877636 0 0.479329
vn 0.877636 0 0.479329
vn 0.877636 0 0.479329
vn 0.877636 0 0.479329
vn -0.877636 0 -0.479329
vn -0.877635 0 -0.479328
vn -0.877639 0 -0.479323
vn -0.877638 0 -0.479324
vn -0.877639 0 -0.479323
vn -0.877638 0 -0.479324
vn -0.877636 0 -0.479329
vn -0.877636 0 -0.479329
vn -0.264801 -0.833557 0.484832
vn -0.264812 -0.833554 0.484832
vn -0.150778 -0.949236 0.276074
vn -0.150769 -0.949239 0.276069
vn 0.150765 -0.949241 -0.276066
vn 0.150769 -0.949238 -0.276073
vn 0.264784 -0.833554 -0.484848
vn 0.264784 -0.833554 -0.484847
f 1/1/1 2/2/2 3/3/3
f 1/1/1 3/3/3 4/4/4
f 5/5/5 6/6/6 7/7/7
f 5/5/5 7/7/7 8/8/8
f 9/9/9 10/10/10 11/11/11
f 9/9/9 11/11/11 12/12/12
f 12/12/12 13/13/13 14/14/14
f 12/12/12 14/14/14 9/9/9
f 13/13/13 15/15/15 16/16/16
f 13/13/13 16/16/16 14/14/14
f 17/17/17 18/18/18 19/19/19
f 17/17/17 19/19/19 20/20/20
f 18/18/18 21/21/21 22/22/22
f 18/18/18 22/22/22 19/19/19
f 21/21/21 23/23/23 24/24/24
f 21/21/21 24/24/24 22/22/22
f 25/25/25 26/26/26 27/27/27
f 25/25/25 27/27/27 28/28/28
f 26/26/26 29/29/29 30/30/30
f 26/26/26 30/30/30 27/27/27
f 29/29/29 31/31/31 32/32/32
f 29/29/29 32/32/32 30/30/30
f 33/33/33 34/34/34 35/35/35
f 33/33/33 35/35/35 36/36/36
f 34/34/34 37/37/37 38/38/38
f 34/34/34 38/38/38 35/35/35
f 37/37/37 39/39/39 40/40/40
f 37/37/37 40/40/40 38/38/38
f 41/41/41 42/42/42 43/43/43
f 41/41/41 43/43/43 44/44/44
f 45/45/45 46/46/46 47/47/47
f 45/45/45 47/47/47 48/48/48
f 49/49/49 50/50/50 51/51/51
f 49/49/49 51/51/51 52/52/52
f 50/50/50 49/49/49 53/53/53
f 50/50/50 53/53/53 54/54/54
f 54/54/54 53/53/53 55/55/55
f 54/54/54 55/55/55 56/56/56
f 57/57/57 58/58/58 59/59/59
f 57/57/57 59/59/59 60/60/60
f 60/60/60 59/59/59 61/61/61
f 60/60/60 61/61/61 62/62/62
f 62/62/62 61/61/61 63/63/63
f 62/62/62 63/63/63 64/64/64
f 65/65/65 66/66/66 67/67/67
f 65/65/65 67/67/67 68/68/68
f 68/68/68 67/67/67 69/69/69
f 68/68/68 69/69/69 70/70/70
f 70/70/70 69/69/69 71/71/71
f 70/70/70 71/71/71 72/72/72
f 73/73/73 74/74/74 75/75/75
f 73/73/73 75/75/75 76/76/76
f 76/76/76 75/75/75 77/77/77
f 76/76/76 77/77/77 78/78/78
f 78/78/78 77/77/77 79/79/79
f 78/78/78 79/79/79 80/80/80
