v -0.713097 2.79036 0.611809
v -0.70653 2.79036 0.608241
v -0.70653 2.73833 0.608241
v -0.713097 2.73833 0.611809
v -0.692547 2.79036 0.633979
v -0.699114 2.79036 0.637547
v -0.699114 2.73833 0.637547
v -0.692547 2.73833 0.633979
v -0.701869 2.79036 0.61682
v -0.70653 2.79036 0.608241
v -0.713097 2.79036 0.611809
v -0.708436 2.79036 0.620388
v -0.703775 2.79036 0.628967
v -0.697208 2.79036 0.6254
v -0.699114 2.79036 0.637547
v -0.692547 2.79036 0.633979
v -0.699114 2.79036 0.637547
v -0.703775 2.79036 0.628967
v -0.703775 2.73186 0.628967
v -0.699114 2.73833 0.637547
v -0.708436 2.79036 0.620388
v -0.708436 2.73186 0.620388
v -0.713097 2.79036 0.611809
v -0.713097 2.73833 0.611809
v -0.70653 2.79036 0.608241
v -0.701869 2.79036 0.61682
v -0.701869 2.73186 0.61682
v -0.70653 2.73833 0.608241
v -0.697208 2.79036 0.6254
v -0.697208 2.73186 0.6254
v -0.692547 2.79036 0.633979
v -0.692547 2.73833 0.633979
v -0.699114 2.73833 0.637547
v -0.703775 2.73186 0.628967
v -0.697208 2.73186 0.6254
v -0.692547 2.73833 0.633979
v -0.708436 2.73186 0.620388
v -0.701869 2.73186 0.61682
v -0.713097 2.73833 0.611809
v -0.70653 2.73833 0.608241
v -1.24307 2.79036 0.899744
v -1.24307 2.73833 0.899744
v -1.24963 2.73833 0.903311
v -1.24963 2.79036 0.903311
v -1.23565 2.79036 0.929049
v -1.23565 2.73833 0.929049
v -1.22908 2.73833 0.925481
v -1.22908 2.79036 0.925481
v -1.24497 2.79036 0.911891
v -1.2384 2.79036 0.908323
v -1.24307 2.79036 0.899744
v -1.24963 2.79036 0.903311
v -1.24031 2.79036 0.92047
v -1.23374 2.79036 0.916902
v -1.23565 2.79036 0.929049
v -1.22908 2.79036 0.925481
v -1.22908 2.79036 0.925481
v -1.22908 2.73833 0.925481
v -1.23374 2.73186 0.916902
v -1.23374 2.79036 0.916902
v -1.2384 2.73186 0.908323
v -1.2384 2.79036 0.908323
v -1.24307 2.73833 0.899744
v -1.24307 2.79036 0.899744
v -1.24963 2.79036 0.903311
v -1.24963 2.73833 0.903311
v -1.24497 2.73186 0.911891
v -1.24497 2.79036 0.911891
v -1.24031 2.73186 0.92047
v -1.24031 2.79036 0.92047
v -1.23565 2.73833 0.929049
v -1.23565 2.79036 0.929049
v -1.22908 2.73833 0.925481
v -1.23565 2.73833 0.929049
v -1.24031 2.73186 0.92047
v -1.23374 2.73186 0.916902
v -1.24497 2.73186 0.911891
v -1.2384 2.73186 0.908323
v -1.24963 2.73833 0.903311
v -1.24307 2.73833 0.899744
vt 0.275382 0.464849
vt 0.24095 0.464849
vt 0.24095 0.0565247
vt 0.275382 0.0565247
vt 0.569499 0.464849
vt 0.535068 0.464849
vt 0.535068 0.0565247
vt 0.569499 0.0565247
vt 0.904092 0.382561
vt 0.941616 0.299774
vt 0.994485 0.334205
vt 0.956961 0.416993
vt 0.919437 0.499781
vt 0.866568 0.465359
vt 0.881913 0.582579
vt 0.829044 0.548148
vt 0.523756 0.464849
vt 0.440958 0.464849
vt 0.440958 0.00573888
vt 0.523756 0.0565247
vt 0.358169 0.464849
vt 0.358169 0.00573888
vt 0.275382 0.464849
vt 0.275382 0.0565247
vt 0.817873 0.464849
vt 0.735086 0.464849
vt 0.735086 0.00573888
vt 0.817873 0.0565247
vt 0.652288 0.464849
vt 0.652288 0.00573888
vt 0.569499 0.464849
vt 0.569499 0.0565247
vt 0.941616 0.288462
vt 0.904092 0.205664
vt 0.956961 0.171242
vt 0.994485 0.25403
vt 0.866568 0.122875
vt 0.919437 0.0884438
vt 0.829044 0.0400876
vt 0.881913 0.00565611
vt 0.00560224 0.935438
vt 0.00560224 0.527113
vt 0.0328787 0.527113
vt 0.0328787 0.935438
vt 0.00560224 0.464849
vt 0.00560224 0.0565247
vt 0.032886 0.0565247
vt 0.032886 0.464849
vt 0.54519 0.569076
vt 0.492324 0.541792
vt 0.529855 0.47619
vt 0.582721 0.503467
vt 0.507668 0.634678
vt 0.454802 0.607394
vt 0.470145 0.70028
vt 0.417279 0.672996
vt 0.032886 0.464849
vt 0.032886 0.0565247
vt 0.0984879 0.00573888
vt 0.0984879 0.464849
vt 0.16409 0.00573888
vt 0.16409 0.464849
vt 0.229692 0.0565247
vt 0.229692 0.464849
vt 0.0328787 0.935438
vt 0.0328787 0.527113
vt 0.0984879 0.476327
vt 0.0984879 0.935438
vt 0.16409 0.476327
vt 0.16409 0.935438
vt 0.229692 0.527113
vt 0.229692 0.935438
vt 0.40625 0.672996
vt 0.353384 0.70028
vt 0.315861 0.634678
vt 0.368727 0.607394
vt 0.278339 0.569076
vt 0.331205 0.541792
vt 0.240809 0.503467
vt 0.293675 0.47619
vn -0.477407 0 -0.878682
vn -0.477407 0 -0.878682
vn -0.477407 0 -0.878682
vn -0.477407 0 -0.878682
vn 0.477407 0 0.878682
vn 0.477407 0 0.878682
vn 0.477407 0 0.878682
vn 0.477407 0 0.878682
vn 0 1 0
vn 0 1 0
vn 0 1 0
vn 0 1 0
vn 0 1 0
vn 0 1 0
vn 0 1 0
vn 0 1 0
vn -0.878715 0 0.477348
vn -0.878701 0 0.477372
vn -0.878698 0 0.477378
vn -0.878715 0 0.477348
vn -0.878689 0 0.477395
vn -0.878689 0 0.477395
vn -0.87869 0 0.477394
vn -0.87869 0 0.477394
vn 0.878689 0 -0.477394
vn 0.878701 0 -0.477373
vn 0.878704 0 -0.477367
vn 0.878689 0 -0.477394
vn 0.878702 0 -0.477371
vn 0.878704 0 -0.477367
vn 0.878691 0 -0.477391
vn 0.878691 0 -0.477391
vn 0.263717 -0.833554 0.485429
vn 0.150124 -0.949249 0.276386
vn 0.150151 -0.949238 0.276408
vn 0.263744 -0.833545 0.485429
vn -0.150174 -0.949237 -0.2764
vn -0.150178 -0.949234 -0.276407
vn -0.263745 -0.833544 -0.485431
vn -0.263745 -0.833544 -0.485431
vn -0.477309 0 -0.878736
vn -0.477309 0 -0.878736
vn -0.477309 0 -0.878736
vn -0.477309 0 -0.878736
vn 0.477407 0 0.878682
vn 0.477407 0 0.878682
vn 0.477407 0 0.878682
vn 0.477407 0 0.878682
vn 0 1 0
vn 0 1 0
vn 0 1 0
vn 0 1 0
vn 0 1 0
vn 0 1 0
vn 0 1 0
vn 0 1 0
vn 0.878686 0 -0.477401
vn 0.878686 0 -0.477401
vn 0.878689 0 -0.477395
vn 0.878688 0 -0.477396
vn 0.878673 0 -0.477424
vn 0.878669 0 -0.477431
vn 0.878645 0 -0.477476
vn 0.878645 0 -0.477476
vn -0.878667 0 0.477435
vn -0.878667 0 0.477435
vn -0.878682 0 0.477407
vn -0.878679 0 0.477413
vn -0.878689 0 0.477395
vn -0.878688 0 0.477396
vn -0.878686 0 0.477401
vn -0.878686 0 0.477401
vn 0.263743 -0.833547 0.485427
vn 0.263743 -0.833547 0.485427
vn 0.150176 -0.949236 0.276403
vn 0.150174 -0.949237 0.276399
vn -0.150166 -0.949242 -0.276385
vn -0.150153 -0.949244 -0.276388
vn -0.263694 -0.833567 -0.48542
vn -0.26368 -0.833559 -0.485441
f 1/1/1 2/2/2 3/3/3
f 1/1/1 3/3/3 4/4/4
f 5/5/5 6/6/6 7/7/7
f 5/5/5 7/7/7 8/8/8
f 9/9/9 10/10/10 11/11/11
f 9/9/9 11/11/11 12/12/12
f 12/12/12 13/13/13 14/14/14
f 12/12/12 14/14/14 9/9/9
f 13/13/13 15/15/15 16/16/16
f 13/13/13 16/16/16 14/14/14
f 17/17/17 18/18/18 19/19/19
f 17/17/17 19/19/19 20/20/20
f 18/18/18 21/21/21 22/22/22
f 18/18/18 22/22/22 19/19/19
f 21/21/21 23/23/23 24/24/24
f 21/21/21 24/24/24 22/22/22
f 25/25/25 26/26/26 27/27/27
f 25/25/25 27/27/27 28/28/28
f 26/26/26 29/29/29 30/30/30
f 26/26/26 30/30/30 27/27/27
f 29/29/29 31/31/31 32/32/32
f 29/29/29 32/32/32 30/30/30
f 33/33/33 34/34/34 35/35/35
f 33/33/33 35/35/35 36/36/36
f 34/34/34 37/37/37 38/38/38
f 34/34/34 38/38/38 35/35/35
f 37/37/37 39/39/39 40/40/40
f 37/37/37 40/40/40 38/38/38
f 41/41/41 42/42/42 43/43/43
f 41/41/41 43/43/43 44/44/44
f 45/45/45 46/46/46 47/47/47
f 45/45/45 47/47/47 48/48/48
f 49/49/49 50/50/50 51/51/51
f 49/49/49 51/51/51 52/52/52
f 50/50/50 49/49/49 53/53/53
f 50/50/50 53/53/53 54/54/54
f 54/54/54 53/53/53 55/55/55
f 54/54/54 55/55/55 56/56/56
f 57/57/57 58/58/58 59/59/59
f 57/57/57 59/59/59 60/60/60
f 60/60/60 59/59/59 61/61/61
f 60/60/60 61/61/61 62/62/62
f 62/62/62 61/61/61 63/63/63
f 62/62/62 63/63/63 64/64/64
f 65/65/65 66/66/66 67/67/67
f 65/65/65 67/67/67 68/68/68
f 68/68/68 67/67/67 69/69/69
f 68/68/68 69/69/69 70/70/70
f 70/70/70 69/69/69 71/71/71
f 70/70/70 71/71/71 72/72/72
f 73/73/73 74/74/74 75/75/75
f 73/73/73 75/75/75 76/76/76
f 76/76/76 75/75/75 77/77/77
f 76/76/76 77/77/77 78/78/78
f 78/78/78 77/77/77 79/79/79
f 78/78/78 79/79/79 80/80/80
