v -2.32339 0.934746 4.11713
v -2.187 1.14823 4.14436
v -2.187 0.934746 4.11713
v -2.32339 1.14823 4.14436
v -2.187 0.932642 4.13363
v -2.32339 1.14612 4.16086
v -2.32339 0.932642 4.13363
v -2.187 1.14612 4.16086
v -2.18617 0.934586 4.11839
v -2.32339 0.934746 4.11713
v -2.187 0.934746 4.11713
v -2.32339 0.934586 4.11839
v -2.18617 0.932802 4.13237
v -2.32339 0.932802 4.13237
v -2.187 0.932642 4.13363
v -2.32339 0.932642 4.13363
v -2.32339 0.932642 4.13363
v -2.32339 1.14629 4.1596
v -2.32339 0.932802 4.13237
v -2.32339 1.14612 4.16086
v -2.32339 1.14807 4.14561
v -2.32339 0.934586 4.11839
v -2.32339 1.14823 4.14436
v -2.32339 0.934746 4.11713
v -2.187 0.934746 4.11713
v -2.18617 1.14807 4.14561
v -2.18617 0.934586 4.11839
v -2.187 1.14823 4.14436
v -2.18617 0.934586 4.11839
v -2.18617 1.14629 4.1596
v -2.18617 0.932802 4.13237
v -2.18617 1.14807 4.14561
v -2.18617 0.932802 4.13237
v -2.187 1.14612 4.16086
v -2.187 0.932642 4.13363
v -2.18617 1.14629 4.1596
v -2.32339 1.14612 4.16086
v -2.18617 1.14629 4.1596
v -2.32339 1.14629 4.1596
v -2.187 1.14612 4.16086
v -2.18617 1.14807 4.14561
v -2.32339 1.14807 4.14561
v -2.187 1.14823 4.14436
v -2.32339 1.14823 4.14436
vt 0.178224 0.002481
vt 0.177791 0.798593
vt 0.177791 0.002481
vt 0.178224 0.798593
vt 0.137492 0.002481
vt 0.136068 0.798593
vt 0.136068 0.002481
vt 0.137492 0.798593
vt 0.987148 0.008603
vt 0.989829 0.127444
vt 0.989829 0.008603
vt 0.987148 0.127444
vt 0.946689 0.008603
vt 0.946689 0.127444
vt 0.943949 0.008603
vt 0.943949 0.127444
vt 0.943949 0.127444
vt 0.946689 0.256778
vt 0.946689 0.127444
vt 0.943949 0.256778
vt 0.987148 0.256778
vt 0.987148 0.127444
vt 0.989829 0.256778
vt 0.989829 0.127444
vt 0.177791 0.002481
vt 0.176209 0.798593
vt 0.176209 0.002481
vt 0.177791 0.798593
vt 0.176209 0.002481
vt 0.138875 0.798593
vt 0.138875 0.002481
vt 0.176209 0.798593
vt 0.138875 0.002481
vt 0.137492 0.798593
vt 0.137492 0.002481
vt 0.138875 0.798593
vt 0.943949 0.256778
vt 0.946689 0.375415
vt 0.946689 0.256778
vt 0.943949 0.375415
vt 0.987148 0.375415
vt 0.987148 0.256778
vt 0.989829 0.375415
vt 0.989829 0.256778
vn 0 0.1265 -0.992
vn 0 0.1265 -0.992
vn 0 0.1265 -0.992
vn 0 0.1265 -0.992
vn 0 -0.1265 0.992
vn 0 -0.1265 0.992
vn 0 -0.1265 0.992
vn 0 -0.1265 0.992
vn -0 -0.992 -0.1265
vn -0 -0.992 -0.1265
vn -0 -0.992 -0.1265
vn -0 -0.992 -0.1265
vn -0 -0.992 -0.1265
vn -0 -0.992 -0.1265
vn -0 -0.992 -0.1265
vn -0 -0.992 -0.1265
vn -1 0 0
vn -1 0 0
vn -1 0 0
vn -1 0 0
vn -1 0 0
vn -1 0 0
vn -1 0 0
vn -1 0 0
vn 0.8375 0.0691 -0.542
vn 0.8375 0.0691 -0.542
vn 0.8375 0.0691 -0.542
vn 0.8375 0.0691 -0.542
vn 1 0 0
vn 1 0 0
vn 1 0 0
vn 1 0 0
vn 0.8375 -0.0691 0.542
vn 0.8375 -0.0691 0.542
vn 0.8375 -0.0691 0.542
vn 0.8375 -0.0691 0.542
vn 0 0.992 0.1265
vn 0 0.992 0.1265
vn 0 0.992 0.1265
vn 0 0.992 0.1265
vn 0 0.992 0.1265
vn 0 0.992 0.1265
vn 0 0.992 0.1265
vn 0 0.992 0.1265
f 1/1/1 2/2/2 3/3/3
f 1/1/1 4/4/4 2/2/2
f 5/5/5 6/6/6 7/7/7
f 5/5/5 8/8/8 6/6/6
f 9/9/9 10/10/10 11/11/11
f 9/9/9 12/12/12 10/10/10
f 12/12/12 13/13/13 14/14/14
f 12/12/12 9/9/9 13/13/13
f 14/14/14 15/15/15 16/16/16
f 14/14/14 13/13/13 15/15/15
f 17/17/17 18/18/18 19/19/19
f 17/17/17 20/20/20 18/18/18
f 19/19/19 21/21/21 22/22/22
f 19/19/19 18/18/18 21/21/21
f 22/22/22 23/23/23 24/24/24
f 22/22/22 21/21/21 23/23/23
f 25/25/25 26/26/26 27/27/27
f 25/25/25 28/28/28 26/26/26
f 29/29/29 30/30/30 31/31/31
f 29/29/29 32/32/32 30/30/30
f 33/33/33 34/34/34 35/35/35
f 33/33/33 36/36/36 34/34/34
f 37/37/37 38/38/38 39/39/39
f 37/37/37 40/40/40 38/38/38
f 39/39/39 41/41/41 42/42/42
f 39/39/39 38/38/38 41/41/41
f 42/42/42 43/43/43 44/44/44
f 42/42/42 41/41/41 43/43/43
