v -2.29201 1.33184 1.59263
v -2.2701 1.30236 1.5688
v -2.26988 1.33184 1.56856
v -2.29234 1.30236 1.59299
v -2.24785 1.30236 1.54461
v -2.24775 1.33184 1.54449
v -2.22561 1.30236 1.52042
v -2.22561 1.33184 1.52042
v -2.20337 1.30236 1.49623
v -2.20348 1.33184 1.49635
v -2.18113 1.30236 1.47204
v -2.18134 1.33184 1.47228
v -2.15888 1.30236 1.44785
v -2.15921 1.33184 1.44821
v -2.26999 1.27288 1.56868
v -2.29218 1.27288 1.59281
v -2.2478 1.27288 1.54455
v -2.22561 1.27288 1.52042
v -2.20342 1.27288 1.49629
v -2.18124 1.27288 1.47216
v -2.15905 1.27288 1.44803
v -2.26918 1.2434 1.5678
v -2.29097 1.2434 1.59149
v -2.2474 1.2434 1.54411
v -2.22561 1.2434 1.52042
v -2.20383 1.2434 1.49673
v -2.18204 1.2434 1.47304
v -2.16026 1.2434 1.44935
v -2.26868 1.23325 1.56726
v -2.29022 1.23325 1.59068
v -2.24715 1.23325 1.54384
v -2.22561 1.23325 1.52042
v -2.20408 1.23325 1.497
v -2.18254 1.23325 1.47358
v -2.16101 1.23325 1.45016
v -2.2902 1.36131 1.59065
v -2.26867 1.36131 1.56724
v -2.24714 1.36131 1.54383
v -2.22561 1.36131 1.52042
v -2.20408 1.36131 1.49701
v -2.18256 1.36131 1.4736
v -2.16103 1.36131 1.45019
v -2.28853 1.37493 1.58884
v -2.26755 1.37493 1.56603
v -2.24658 1.37493 1.54323
v -2.22561 1.37493 1.52042
v -2.20464 1.37493 1.49761
v -2.18367 1.37493 1.47481
v -2.1627 1.37493 1.452
v -2.26799 1.22113 1.56651
v -2.28918 1.22113 1.58955
v -2.2468 1.22113 1.54346
v -2.22561 1.22113 1.52042
v -2.20442 1.22113 1.49738
v -2.18323 1.22113 1.47433
v -2.16204 1.22113 1.45129
v -2.22561 1.39079 1.52042
v -2.20537 1.39079 1.49841
v -2.24585 1.39079 1.54243
v -2.26609 1.38925 1.56444
v -2.18513 1.38925 1.4764
v -2.16489 1.38619 1.45439
v -2.28633 1.38619 1.58645
v -2.22561 1.21235 1.52042
v -2.24585 1.21235 1.54243
v -2.20537 1.21235 1.49841
v -2.18513 1.21235 1.4764
v -2.16489 1.21235 1.45439
v -2.26609 1.21235 1.56444
v -2.28633 1.21235 1.58645
v -2.15213 1.30236 1.44052
v -2.1525 1.33184 1.44091
v -2.14445 1.30236 1.43216
v -2.14485 1.33184 1.4326
v -2.15231 1.27288 1.44071
v -2.14465 1.27288 1.43238
v -2.15365 1.2434 1.44216
v -2.14613 1.2434 1.43398
v -2.15447 1.23325 1.44306
v -2.14703 1.23325 1.43497
v -2.1545 1.36131 1.44308
v -2.14706 1.36131 1.435
v -2.15634 1.37493 1.44508
v -2.14909 1.37493 1.43721
v -2.15561 1.22113 1.4443
v -2.1483 1.22113 1.43634
v -2.1606 1.38541 1.44973
v -2.15573 1.38452 1.44442
v -2.15844 1.21295 1.44737
v -2.1505 1.2152 1.43874
v -2.30637 1.33184 1.60824
v -2.29956 1.30236 1.60083
v -2.29919 1.33184 1.60044
v -2.30677 1.30236 1.60868
v -2.29937 1.27288 1.60063
v -2.30657 1.27288 1.60846
v -2.29803 1.2434 1.59917
v -2.3051 1.2434 1.60686
v -2.2972 1.23325 1.59827
v -2.30419 1.23325 1.60587
v -2.30416 1.36131 1.60584
v -2.29718 1.36131 1.59825
v -2.30213 1.37493 1.60363
v -2.29533 1.37493 1.59624
v -2.29605 1.22113 1.59702
v -2.30293 1.22113 1.6045
v -2.2955 1.38452 1.59642
v -2.29092 1.38536 1.59144
v -2.29279 1.21295 1.59347
v -2.30072 1.2152 1.6021
vt 0.10091 0.665465
vt 0.232619 0.504298
vt 0.23394 0.665465
vt 0.0989259 0.504298
vt 0.366313 0.504298
vt 0.36697 0.665465
vt 0.5 0.504298
vt 0.5 0.665465
vt 0.633693 0.504298
vt 0.633036 0.665465
vt 0.767387 0.504298
vt 0.766066 0.665465
vt 0.90108 0.504298
vt 0.899096 0.665465
vt 0.233277 0.343131
vt 0.0999149 0.343131
vt 0.366639 0.343131
vt 0.5 0.343131
vt 0.633362 0.343131
vt 0.766724 0.343131
vt 0.900085 0.343131
vt 0.238129 0.181963
vt 0.107194 0.181963
vt 0.369065 0.181963
vt 0.5 0.181963
vt 0.630935 0.181963
vt 0.761877 0.181963
vt 0.892812 0.181963
vt 0.241119 0.126457
vt 0.111682 0.126457
vt 0.370562 0.126457
vt 0.5 0.126457
vt 0.629443 0.126457
vt 0.758881 0.126457
vt 0.888324 0.126457
vt 0.11182 0.826632
vt 0.241214 0.826632
vt 0.370607 0.826632
vt 0.5 0.826632
vt 0.629394 0.826632
vt 0.758792 0.826632
vt 0.888186 0.826632
vt 0.121857 0.901079
vt 0.247906 0.901079
vt 0.373956 0.901079
vt 0.5 0.901079
vt 0.62605 0.901079
vt 0.752099 0.901079
vt 0.878143 0.901079
vt 0.245281 0.0601951
vt 0.117922 0.0601951
vt 0.372641 0.0601951
vt 0.5 0.0601951
vt 0.62736 0.0601951
vt 0.754719 0.0601951
vt 0.882078 0.0601951
vt 0.5 0.987805
vt 0.62165 0.987805
vt 0.37835 0.987805
vt 0.2567 0.979374
vt 0.7433 0.979374
vt 0.86495 0.962676
vt 0.13505 0.962676
vt 0.5 0.0121951
vt 0.37835 0.0121951
vt 0.62165 0.0121951
vt 0.7433 0.0121951
vt 0.86495 0.0121951
vt 0.2567 0.0121951
vt 0.13505 0.0121951
vt 0.941643 0.504298
vt 0.93946 0.665465
vt 0.987805 0.504298
vt 0.985395 0.665465
vt 0.940554 0.343131
vt 0.9866 0.343131
vt 0.93254 0.181963
vt 0.977751 0.181963
vt 0.927599 0.126457
vt 0.972296 0.126457
vt 0.927449 0.826632
vt 0.972125 0.826632
vt 0.91639 0.901079
vt 0.959915 0.901079
vt 0.920729 0.0601951
vt 0.964702 0.0601951
vt 0.890728 0.958395
vt 0.920054 0.953524
vt 0.903761 0.015443
vt 0.951459 0.0277506
vt 0.0146106 0.665465
vt 0.0555602 0.504298
vt 0.0577602 0.665465
vt 0.0121951 0.504298
vt 0.0566605 0.343131
vt 0.0134002 0.343131
vt 0.0647245 0.181963
vt 0.0222548 0.181963
vt 0.069699 0.126457
vt 0.0277096 0.126457
vt 0.0278757 0.826632
vt 0.0698479 0.826632
vt 0.0400905 0.901079
vt 0.0809736 0.901079
vt 0.0766132 0.0601951
vt 0.0353038 0.0601951
vt 0.0799458 0.953524
vt 0.107498 0.9581
vt 0.0962397 0.015443
vt 0.0485412 0.0277506
vn 0.7361 0 0.6769
vn 0.7361 0 0.6769
vn 0.7361 0 0.6769
vn 0.7361 0 0.6769
vn 0.7361 0 0.6769
vn 0.7361 0 0.6769
vn 0.7361 0 0.6769
vn 0.7361 0 0.6769
vn 0.7361 0 0.6769
vn 0.7361 0 0.6769
vn 0.7361 0 0.6769
vn 0.7361 0 0.6769
vn 0.7361 0 0.6769
vn 0.7361 0 0.6769
vn 0.7361 0 0.6769
vn 0.7361 0 0.6769
vn 0.7361 0 0.6769
vn 0.7361 0 0.6769
vn 0.7361 0 0.6769
vn 0.7361 0 0.6769
vn 0.7361 0 0.6769
vn 0.7361 0 0.6769
vn 0.7361 0 0.6769
vn 0.7361 0 0.6769
vn 0.7361 0 0.6769
vn 0.7361 0 0.6769
vn 0.7361 0 0.6769
vn 0.7361 0 0.6769
vn 0.7361 0 0.6769
vn 0.7361 0 0.6769
vn 0.7361 0 0.6769
vn 0.7361 0 0.6769
vn 0.7361 0 0.6769
vn 0.7361 0 0.6769
vn 0.7361 0 0.6769
vn 0.7361 0 0.6769
vn 0.7361 0 0.6769
vn 0.7361 0 0.6769
vn 0.7361 0 0.6769
vn 0.7361 0 0.6769
vn 0.7361 0 0.6769
vn 0.7361 0 0.6769
vn 0.7361 0 0.6769
vn 0.7361 0 0.6769
vn 0.7361 0 0.6769
vn 0.7361 0 0.6769
vn 0.7361 0 0.6769
vn 0.7361 0 0.6769
vn 0.7361 0 0.6769
vn 0.7361 0 0.6769
vn 0.7361 0 0.6769
vn 0.7361 0 0.6769
vn 0.7361 0 0.6769
vn 0.7361 0 0.6769
vn 0.7361 0 0.6769
vn 0.7361 0 0.6769
vn 0.7361 0 0.6769
vn 0.7361 0 0.6769
vn 0.7361 0 0.6769
vn 0.7361 0 0.6769
vn 0.7361 0 0.6769
vn 0.7361 0 0.6769
vn 0.7361 0 0.6769
vn 0.7361 0 0.6769
vn 0.7361 0 0.6769
vn 0.7361 0 0.6769
vn 0.7361 0 0.6769
vn 0.7361 0 0.6769
vn 0.7361 0 0.6769
vn 0.7361 0 0.6769
vn 0.7361 0 0.6769
vn 0.7361 0 0.6769
vn 0.7361 0 0.6769
vn 0.7361 0 0.6769
vn 0.7361 0 0.6769
vn 0.7361 0 0.6769
vn 0.7361 0 0.6769
vn 0.7361 0 0.6769
vn 0.7361 0 0.6769
vn 0.7361 0 0.6769
vn 0.7361 0 0.6769
vn 0.7361 0 0.6769
vn 0.7361 0 0.6769
vn 0.7361 0 0.6769
vn 0.7361 0 0.6769
vn 0.7361 0 0.6769
vn 0.7361 0 0.6769
vn 0.7361 0 0.6769
vn 0.7361 0 0.6769
vn 0.7361 0 0.6769
vn 0.7361 0 0.6769
vn 0.7361 0 0.6769
vn 0.7361 0 0.6769
vn 0.7361 0 0.6769
vn 0.7361 0 0.6769
vn 0.7361 0 0.6769
vn 0.7361 0 0.6769
vn 0.7361 0 0.6769
vn 0.7361 0 0.6769
vn 0.7361 0 0.6769
vn 0.7361 0 0.6769
vn 0.7361 0 0.6769
vn 0.7361 0 0.6769
vn 0.7361 0 0.6769
vn 0.7361 0 0.6769
vn 0.7361 0 0.6769
vn 0.7361 0 0.6769
vn 0.7361 0 0.6769
vn 0.7361 0 0.6769
vn 0.7361 0 0.6769
f 1/1/1 2/2/2 3/3/3
f 1/1/1 4/4/4 2/2/2
f 3/3/3 5/5/5 6/6/6
f 3/3/3 2/2/2 5/5/5
f 6/6/6 7/7/7 8/8/8
f 6/6/6 5/5/5 7/7/7
f 8/8/8 9/9/9 10/10/10
f 8/8/8 7/7/7 9/9/9
f 10/10/10 11/11/11 12/12/12
f 10/10/10 9/9/9 11/11/11
f 12/12/12 13/13/13 14/14/14
f 12/12/12 11/11/11 13/13/13
f 4/4/4 15/15/15 2/2/2
f 4/4/4 16/16/16 15/15/15
f 2/2/2 17/17/17 5/5/5
f 2/2/2 15/15/15 17/17/17
f 5/5/5 18/18/18 7/7/7
f 5/5/5 17/17/17 18/18/18
f 7/7/7 19/19/19 9/9/9
f 7/7/7 18/18/18 19/19/19
f 9/9/9 20/20/20 11/11/11
f 9/9/9 19/19/19 20/20/20
f 11/11/11 21/21/21 13/13/13
f 11/11/11 20/20/20 21/21/21
f 16/16/16 22/22/22 15/15/15
f 16/16/16 23/23/23 22/22/22
f 15/15/15 24/24/24 17/17/17
f 15/15/15 22/22/22 24/24/24
f 17/17/17 25/25/25 18/18/18
f 17/17/17 24/24/24 25/25/25
f 18/18/18 26/26/26 19/19/19
f 18/18/18 25/25/25 26/26/26
f 19/19/19 27/27/27 20/20/20
f 19/19/19 26/26/26 27/27/27
f 20/20/20 28/28/28 21/21/21
f 20/20/20 27/27/27 28/28/28
f 23/23/23 29/29/29 22/22/22
f 23/23/23 30/30/30 29/29/29
f 22/22/22 31/31/31 24/24/24
f 22/22/22 29/29/29 31/31/31
f 24/24/24 32/32/32 25/25/25
f 24/24/24 31/31/31 32/32/32
f 25/25/25 33/33/33 26/26/26
f 25/25/25 32/32/32 33/33/33
f 26/26/26 34/34/34 27/27/27
f 26/26/26 33/33/33 34/34/34
f 27/27/27 35/35/35 28/28/28
f 27/27/27 34/34/34 35/35/35
f 36/36/36 3/3/3 37/37/37
f 36/36/36 1/1/1 3/3/3
f 37/37/37 6/6/6 38/38/38
f 37/37/37 3/3/3 6/6/6
f 38/38/38 8/8/8 39/39/39
f 38/38/38 6/6/6 8/8/8
f 39/39/39 10/10/10 40/40/40
f 39/39/39 8/8/8 10/10/10
f 40/40/40 12/12/12 41/41/41
f 40/40/40 10/10/10 12/12/12
f 41/41/41 14/14/14 42/42/42
f 41/41/41 12/12/12 14/14/14
f 43/43/43 37/37/37 44/44/44
f 43/43/43 36/36/36 37/37/37
f 44/44/44 38/38/38 45/45/45
f 44/44/44 37/37/37 38/38/38
f 45/45/45 39/39/39 46/46/46
f 45/45/45 38/38/38 39/39/39
f 46/46/46 40/40/40 47/47/47
f 46/46/46 39/39/39 40/40/40
f 47/47/47 41/41/41 48/48/48
f 47/47/47 40/40/40 41/41/41
f 48/48/48 42/42/42 49/49/49
f 48/48/48 41/41/41 42/42/42
f 30/30/30 50/50/50 29/29/29
f 30/30/30 51/51/51 50/50/50
f 29/29/29 52/52/52 31/31/31
f 29/29/29 50/50/50 52/52/52
f 31/31/31 53/53/53 32/32/32
f 31/31/31 52/52/52 53/53/53
f 32/32/32 54/54/54 33/33/33
f 32/32/32 53/53/53 54/54/54
f 33/33/33 55/55/55 34/34/34
f 33/33/33 54/54/54 55/55/55
f 34/34/34 56/56/56 35/35/35
f 34/34/34 55/55/55 56/56/56
f 57/57/57 47/47/47 58/58/58
f 57/57/57 46/46/46 47/47/47
f 57/57/57 45/45/45 46/46/46
f 57/57/57 59/59/59 45/45/45
f 60/60/60 45/45/45 59/59/59
f 60/60/60 44/44/44 45/45/45
f 61/61/61 47/47/47 48/48/48
f 61/61/61 58/58/58 47/47/47
f 62/62/62 48/48/48 49/49/49
f 62/62/62 61/61/61 48/48/48
f 63/63/63 44/44/44 60/60/60
f 63/63/63 43/43/43 44/44/44
f 64/64/64 52/52/52 65/65/65
f 64/64/64 53/53/53 52/52/52
f 64/64/64 54/54/54 53/53/53
f 64/64/64 66/66/66 54/54/54
f 67/67/67 54/54/54 66/66/66
f 67/67/67 55/55/55 54/54/54
f 68/68/68 55/55/55 67/67/67
f 68/68/68 56/56/56 55/55/55
f 69/69/69 52/52/52 50/50/50
f 69/69/69 65/65/65 52/52/52
f 70/70/70 50/50/50 51/51/51
f 70/70/70 69/69/69 50/50/50
f 14/14/14 71/71/71 72/72/72
f 14/14/14 13/13/13 71/71/71
f 72/72/72 73/73/73 74/74/74
f 72/72/72 71/71/71 73/73/73
f 13/13/13 75/75/75 71/71/71
f 13/13/13 21/21/21 75/75/75
f 71/71/71 76/76/76 73/73/73
f 71/71/71 75/75/75 76/76/76
f 21/21/21 77/77/77 75/75/75
f 21/21/21 28/28/28 77/77/77
f 75/75/75 78/78/78 76/76/76
f 75/75/75 77/77/77 78/78/78
f 28/28/28 79/79/79 77/77/77
f 28/28/28 35/35/35 79/79/79
f 77/77/77 80/80/80 78/78/78
f 77/77/77 79/79/79 80/80/80
f 42/42/42 72/72/72 81/81/81
f 42/42/42 14/14/14 72/72/72
f 81/81/81 74/74/74 82/82/82
f 81/81/81 72/72/72 74/74/74
f 49/49/49 81/81/81 83/83/83
f 49/49/49 42/42/42 81/81/81
f 83/83/83 82/82/82 84/84/84
f 83/83/83 81/81/81 82/82/82
f 35/35/35 85/85/85 79/79/79
f 35/35/35 56/56/56 85/85/85
f 79/79/79 86/86/86 80/80/80
f 79/79/79 85/85/85 86/86/86
f 84/84/84 87/87/87 83/83/83
f 84/84/84 88/88/88 87/87/87
f 83/83/83 62/62/62 49/49/49
f 83/83/83 87/87/87 62/62/62
f 89/89/89 56/56/56 68/68/68
f 89/89/89 85/85/85 56/56/56
f 89/89/89 86/86/86 85/85/85
f 89/89/89 90/90/90 86/86/86
f 91/91/91 92/92/92 93/93/93
f 91/91/91 94/94/94 92/92/92
f 93/93/93 4/4/4 1/1/1
f 93/93/93 92/92/92 4/4/4
f 94/94/94 95/95/95 92/92/92
f 94/94/94 96/96/96 95/95/95
f 92/92/92 16/16/16 4/4/4
f 92/92/92 95/95/95 16/16/16
f 96/96/96 97/97/97 95/95/95
f 96/96/96 98/98/98 97/97/97
f 95/95/95 23/23/23 16/16/16
f 95/95/95 97/97/97 23/23/23
f 98/98/98 99/99/99 97/97/97
f 98/98/98 100/100/100 99/99/99
f 97/97/97 30/30/30 23/23/23
f 97/97/97 99/99/99 30/30/30
f 101/101/101 93/93/93 102/102/102
f 101/101/101 91/91/91 93/93/93
f 102/102/102 1/1/1 36/36/36
f 102/102/102 93/93/93 1/1/1
f 103/103/103 102/102/102 104/104/104
f 103/103/103 101/101/101 102/102/102
f 104/104/104 36/36/36 43/43/43
f 104/104/104 102/102/102 36/36/36
f 100/100/100 105/105/105 99/99/99
f 100/100/100 106/106/106 105/105/105
f 99/99/99 51/51/51 30/30/30
f 99/99/99 105/105/105 51/51/51
f 107/107/107 104/104/104 108/108/108
f 107/107/107 103/103/103 104/104/104
f 108/108/108 43/43/43 63/63/63
f 108/108/108 104/104/104 43/43/43
f 109/109/109 51/51/51 105/105/105
f 109/109/109 70/70/70 51/51/51
f 109/109/109 106/106/106 110/110/110
f 109/109/109 105/105/105 106/106/106
