v -2.28957 0.936513 4.04363
v -2.21774 1.0399 4.06596
v -2.21774 0.936513 4.04363
v -2.28957 1.0399 4.06596
v -2.21774 0.93261 4.06171
v -2.28957 1.03599 4.08403
v -2.28957 0.93261 4.06171
v -2.21774 1.03599 4.08403
v -2.21691 0.936246 4.04487
v -2.28957 0.936513 4.04363
v -2.21774 0.936513 4.04363
v -2.28957 0.936246 4.04487
v -2.28957 0.936246 4.04487
v -2.21691 0.932877 4.06047
v -2.28957 0.932877 4.06047
v -2.21691 0.936246 4.04487
v -2.28957 0.932877 4.06047
v -2.21774 0.93261 4.06171
v -2.28957 0.93261 4.06171
v -2.21691 0.932877 4.06047
v -2.28957 0.93261 4.06171
v -2.28957 1.03626 4.08279
v -2.28957 0.932877 4.06047
v -2.28957 1.03599 4.08403
v -2.28957 1.03963 4.0672
v -2.28957 0.936246 4.04487
v -2.28957 1.0399 4.06596
v -2.28957 0.936513 4.04363
v -2.21774 0.936513 4.04363
v -2.21691 1.03963 4.0672
v -2.21691 0.936246 4.04487
v -2.21774 1.0399 4.06596
v -2.21691 0.936246 4.04487
v -2.21691 1.03626 4.08279
v -2.21691 0.932877 4.06047
v -2.21691 1.03963 4.0672
v -2.21691 0.932877 4.06047
v -2.21774 1.03599 4.08403
v -2.21774 0.93261 4.06171
v -2.21691 1.03626 4.08279
v -2.28957 1.03599 4.08403
v -2.21691 1.03626 4.08279
v -2.28957 1.03626 4.08279
v -2.21774 1.03599 4.08403
v -2.21691 1.03963 4.0672
v -2.28957 1.03963 4.0672
v -2.21774 1.0399 4.06596
v -2.28957 1.0399 4.06596
vt 0.216352 0.002481
vt 0.214554 0.564714
vt 0.214554 0.002481
vt 0.216352 0.564714
vt 0.182862 0.002481
vt 0.179582 0.564714
vt 0.181439 0.002481
vt 0.181006 0.564714
vt 0.987148 0.008603
vt 0.989829 0.127444
vt 0.989829 0.008603
vt 0.987148 0.127444
vt 0.987148 0.127444
vt 0.946689 0.008603
vt 0.946689 0.127444
vt 0.987148 0.008603
vt 0.946689 0.127444
vt 0.943949 0.008603
vt 0.943949 0.127444
vt 0.946689 0.008603
vt 0.943949 0.127444
vt 0.946689 0.256778
vt 0.946689 0.127444
vt 0.943949 0.256778
vt 0.987148 0.256778
vt 0.987148 0.127444
vt 0.989829 0.256778
vt 0.989829 0.127444
vt 0.214554 0.002481
vt 0.211814 0.564714
vt 0.211814 0.002481
vt 0.214554 0.564714
vt 0.211814 0.002481
vt 0.183687 0.564714
vt 0.185543 0.002481
vt 0.211814 0.564714
vt 0.185543 0.002481
vt 0.181006 0.564714
vt 0.182862 0.002481
vt 0.183687 0.564714
vt 0.943949 0.256778
vt 0.946689 0.375415
vt 0.946689 0.256778
vt 0.943949 0.375415
vt 0.987148 0.375415
vt 0.987148 0.256778
vt 0.989829 0.375415
vt 0.989829 0.256778
vn 0 0.2111 -0.9775
vn 0 0.2111 -0.9775
vn 0 0.2111 -0.9775
vn 0 0.2111 -0.9775
vn 0 -0.2111 0.9775
vn 0 -0.2111 0.9775
vn 0 -0.2111 0.9775
vn 0 -0.2111 0.9775
vn -0 -0.9775 -0.2112
vn -0 -0.9775 -0.2112
vn -0 -0.9775 -0.2112
vn -0 -0.9775 -0.2112
vn -0 -0.9775 -0.2111
vn -0 -0.9775 -0.2111
vn -0 -0.9775 -0.2111
vn -0 -0.9775 -0.2111
vn -0 -0.9775 -0.211
vn -0 -0.9775 -0.211
vn -0 -0.9775 -0.211
vn -0 -0.9775 -0.211
vn -1 0 0
vn -1 0 0
vn -1 0 0
vn -1 0 0
vn -1 0 0
vn -1 0 0
vn -1 0 0
vn -1 0 0
vn 0.8374 0.1154 -0.5342
vn 0.8374 0.1154 -0.5342
vn 0.8374 0.1154 -0.5342
vn 0.8374 0.1154 -0.5342
vn 1 0 0
vn 1 0 0
vn 1 0 0
vn 1 0 0
vn 0.8375 -0.1153 0.5342
vn 0.8375 -0.1153 0.5342
vn 0.8375 -0.1153 0.5342
vn 0.8375 -0.1153 0.5342
vn 0 0.9775 0.2111
vn 0 0.9775 0.2111
vn 0 0.9775 0.2111
vn 0 0.9775 0.2111
vn 0 0.9775 0.2111
vn 0 0.9775 0.2111
vn 0 0.9775 0.2111
vn 0 0.9775 0.2111
f 1/1/1 2/2/2 3/3/3
f 1/1/1 4/4/4 2/2/2
f 5/5/5 6/6/6 7/7/7
f 5/5/5 8/8/8 6/6/6
f 9/9/9 10/10/10 11/11/11
f 9/9/9 12/12/12 10/10/10
f 13/13/13 14/14/14 15/15/15
f 13/13/13 16/16/16 14/14/14
f 17/17/17 18/18/18 19/19/19
f 17/17/17 20/20/20 18/18/18
f 21/21/21 22/22/22 23/23/23
f 21/21/21 24/24/24 22/22/22
f 23/23/23 25/25/25 26/26/26
f 23/23/23 22/22/22 25/25/25
f 26/26/26 27/27/27 28/28/28
f 26/26/26 25/25/25 27/27/27
f 29/29/29 30/30/30 31/31/31
f 29/29/29 32/32/32 30/30/30
f 33/33/33 34/34/34 35/35/35
f 33/33/33 36/36/36 34/34/34
f 37/37/37 38/38/38 39/39/39
f 37/37/37 40/40/40 38/38/38
f 41/41/41 42/42/42 43/43/43
f 41/41/41 44/44/44 42/42/42
f 43/43/43 45/45/45 46/46/46
f 43/43/43 42/42/42 45/45/45
f 46/46/46 47/47/47 48/48/48
f 46/46/46 45/45/45 47/47/47
