v -2.36787 0.931568 3.75165
v -2.1956 1.16681 3.73001
v -2.1956 0.931568 3.75165
v -2.36787 1.16681 3.73001
v -2.1956 0.932829 3.76536
v -2.36787 1.16807 3.74372
v -2.36787 0.932829 3.76536
v -2.1956 1.16807 3.74372
v -2.19478 0.931684 3.75291
v -2.36787 0.931568 3.75165
v -2.1956 0.931568 3.75165
v -2.36787 0.931684 3.75291
v -2.36787 0.931684 3.75291
v -2.19478 0.932713 3.7641
v -2.36787 0.932713 3.7641
v -2.19478 0.931684 3.75291
v -2.1956 0.932829 3.76536
v -2.36787 0.932829 3.76536
v -2.36787 0.932829 3.76536
v -2.36787 1.16795 3.74246
v -2.36787 0.932713 3.7641
v -2.36787 1.16807 3.74372
v -2.36787 1.16692 3.73127
v -2.36787 0.931684 3.75291
v -2.36787 1.16681 3.73001
v -2.36787 0.931568 3.75165
v -2.1956 0.931568 3.75165
v -2.19478 1.16692 3.73127
v -2.19478 0.931684 3.75291
v -2.1956 1.16681 3.73001
v -2.19478 0.931684 3.75291
v -2.19478 1.16795 3.74246
v -2.19478 0.932713 3.7641
v -2.19478 1.16692 3.73127
v -2.19478 0.932713 3.7641
v -2.1956 1.16807 3.74372
v -2.1956 0.932829 3.76536
v -2.19478 1.16795 3.74246
v -2.36787 1.16807 3.74372
v -2.19478 1.16795 3.74246
v -2.36787 1.16795 3.74246
v -2.1956 1.16807 3.74372
v -2.19478 1.16692 3.73127
v -2.36787 1.16692 3.73127
v -2.1956 1.16681 3.73001
v -2.36787 1.16681 3.73001
vt 0.725814 0.002481
vt 0.72554 0.93701
vt 0.724981 0.002481
vt 0.725814 0.93701
vt 0.704086 0.002481
vt 0.703179 0.93701
vt 0.703179 0.002481
vt 0.704086 0.93701
vt 0.987148 0.008603
vt 0.989829 0.127444
vt 0.989829 0.008603
vt 0.987148 0.127444
vt 0.987148 0.127444
vt 0.946689 0.008603
vt 0.946689 0.127444
vt 0.987148 0.008603
vt 0.943949 0.008603
vt 0.943949 0.127444
vt 0.943949 0.127444
vt 0.946689 0.256778
vt 0.946689 0.127444
vt 0.943949 0.256778
vt 0.987148 0.256778
vt 0.987148 0.127444
vt 0.989829 0.256778
vt 0.989829 0.127444
vt 0.724981 0.002481
vt 0.724199 0.93701
vt 0.724199 0.002481
vt 0.72554 0.93701
vt 0.724199 0.002481
vt 0.704544 0.93701
vt 0.704544 0.002481
vt 0.724199 0.93701
vt 0.704544 0.002481
vt 0.704086 0.93701
vt 0.704086 0.002481
vt 0.704544 0.93701
vt 0.943949 0.256778
vt 0.946689 0.375415
vt 0.946689 0.256778
vt 0.943949 0.375415
vt 0.987148 0.375415
vt 0.987148 0.256778
vt 0.989829 0.375415
vt 0.989829 0.256778
vn -0 -0.0916 -0.9958
vn -0 -0.0916 -0.9958
vn -0 -0.0916 -0.9958
vn -0 -0.0916 -0.9958
vn 0 0.0916 0.9958
vn 0 0.0916 0.9958
vn 0 0.0916 0.9958
vn 0 0.0916 0.9958
vn 0 -0.9958 0.0917
vn 0 -0.9958 0.0917
vn 0 -0.9958 0.0917
vn 0 -0.9958 0.0917
vn 0 -0.9958 0.0916
vn 0 -0.9958 0.0916
vn 0 -0.9958 0.0916
vn 0 -0.9958 0.0916
vn 0 -0.9958 0.0916
vn 0 -0.9958 0.0916
vn -1 -0 -0
vn -1 -0 -0
vn -1 -0 -0
vn -1 -0 -0
vn -1 -0 -0
vn -1 -0 -0
vn -1 -0 -0
vn -1 -0 -0
vn 0.8374 -0.0501 -0.5442
vn 0.8374 -0.0501 -0.5442
vn 0.8374 -0.0501 -0.5442
vn 0.8374 -0.0501 -0.5442
vn 1 0 0
vn 1 0 0
vn 1 0 0
vn 1 0 0
vn 0.8374 0.0501 0.5442
vn 0.8374 0.0501 0.5442
vn 0.8374 0.0501 0.5442
vn 0.8374 0.0501 0.5442
vn 0 0.9958 -0.0916
vn 0 0.9958 -0.0916
vn 0 0.9958 -0.0916
vn 0 0.9958 -0.0916
vn 0 0.9958 -0.0916
vn 0 0.9958 -0.0916
vn 0 0.9958 -0.0916
vn 0 0.9958 -0.0916
f 1/1/1 2/2/2 3/3/3
f 1/1/1 4/4/4 2/2/2
f 5/5/5 6/6/6 7/7/7
f 5/5/5 8/8/8 6/6/6
f 9/9/9 10/10/10 11/11/11
f 9/9/9 12/12/12 10/10/10
f 13/13/13 14/14/14 15/15/15
f 13/13/13 16/16/16 14/14/14
f 15/15/15 17/17/17 18/18/18
f 15/15/15 14/14/14 17/17/17
f 19/19/19 20/20/20 21/21/21
f 19/19/19 22/22/22 20/20/20
f 21/21/21 23/23/23 24/24/24
f 21/21/21 20/20/20 23/23/23
f 24/24/24 25/25/25 26/26/26
f 24/24/24 23/23/23 25/25/25
f 27/27/27 28/28/28 29/29/29
f 27/27/27 30/30/30 28/28/28
f 31/31/31 32/32/32 33/33/33
f 31/31/31 34/34/34 32/32/32
f 35/35/35 36/36/36 37/37/37
f 35/35/35 38/38/38 36/36/36
f 39/39/39 40/40/40 41/41/41
f 39/39/39 42/42/42 40/40/40
f 41/41/41 43/43/43 44/44/44
f 41/41/41 40/40/40 43/43/43
f 44/44/44 45/45/45 46/46/46
f 44/44/44 43/43/43 45/45/45
