v -2.43875 0.345777 3.77164
v -2.43875 0.345578 3.77404
v -2.43815 0.345279 3.77388
v -2.43815 0.345458 3.77172
v -2.43875 0.343673 3.77552
v -2.43815 0.343568 3.7752
v -2.43875 0.341633 3.77546
v -2.43815 0.341785 3.77518
v -2.43815 0.344458 3.77025
v -2.43875 0.34461 3.76997
v -2.43766 0.344702 3.77191
v -2.43766 0.3441 3.77091
v -2.43766 0.342144 3.77452
v -2.43766 0.34332 3.77447
v -2.43766 0.344571 3.7735
v -2.43736 0.343663 3.77301
v -2.43736 0.343733 3.77217
v -2.43736 0.343001 3.77352
v -2.43736 0.342605 3.77367
v -2.43736 0.34364 3.77176
v -2.43736 0.343123 3.77271
v -2.43875 0.339543 3.77325
v -2.43875 0.339742 3.77084
v -2.43815 0.340041 3.77101
v -2.43815 0.339862 3.77317
v -2.43875 0.341647 3.76937
v -2.43815 0.341752 3.76968
v -2.43875 0.343687 3.76943
v -2.43815 0.343535 3.76971
v -2.43815 0.340862 3.77464
v -2.43875 0.34071 3.77492
v -2.43766 0.340618 3.77297
v -2.43766 0.34122 3.77398
v -2.43766 0.343176 3.77037
v -2.43766 0.342 3.77042
v -2.43766 0.340748 3.77139
v -2.43736 0.341657 3.77188
v -2.43736 0.341587 3.77272
v -2.43736 0.342319 3.77137
v -2.43736 0.342715 3.77122
v -2.43736 0.34168 3.77313
v -2.43736 0.342197 3.77218
v -2.43877 0.342197 3.77218
v -2.43877 0.343123 3.77271
v -2.43877 0.342605 3.77367
v -2.43877 0.34168 3.77313
v -2.43877 0.342144 3.77452
v -2.43877 0.34122 3.77398
v -2.43877 0.341882 3.775
v -2.43877 0.340957 3.77447
v -2.43877 0.342715 3.77122
v -2.43877 0.34364 3.77176
v -2.43877 0.343176 3.77037
v -2.43877 0.3441 3.77091
v -2.43877 0.343438 3.76989
v -2.43877 0.344363 3.77042
v -2.43807 0.343123 3.77271
v -2.43807 0.34364 3.77176
v -2.43807 0.342605 3.77367
v -2.43821 0.3441 3.77091
v -2.43821 0.342144 3.77452
v -2.43846 0.341882 3.775
v -2.43846 0.344363 3.77042
v -2.43807 0.342197 3.77218
v -2.43807 0.34168 3.77313
v -2.43807 0.342715 3.77122
v -2.43821 0.34122 3.77398
v -2.43821 0.343176 3.77037
v -2.43846 0.343438 3.76989
v -2.43846 0.340957 3.77447
v -2.43913 0.341633 3.77546
v -2.43913 0.34071 3.77492
v -2.43913 0.343687 3.76943
v -2.43913 0.34461 3.76997
v -2.43913 0.339543 3.77325
v -2.43913 0.339742 3.77084
v -2.43913 0.341647 3.76937
v -2.43913 0.345777 3.77164
v -2.43913 0.345578 3.77404
v -2.43913 0.343673 3.77552
v -2.43875 0.343795 3.87707
v -2.43875 0.345649 3.87862
v -2.43815 0.345344 3.87878
v -2.43815 0.343678 3.87738
v -2.43875 0.345754 3.88103
v -2.43815 0.345438 3.88093
v -2.43875 0.344532 3.88266
v -2.43815 0.34439 3.88238
v -2.43815 0.3419 3.87735
v -2.43875 0.341759 3.87706
v -2.43766 0.343404 3.87811
v -2.43766 0.342234 3.87802
v -2.43766 0.344056 3.8817
v -2.43766 0.344691 3.88071
v -2.43766 0.344622 3.87913
v -2.43736 0.343696 3.87959
v -2.43736 0.343051 3.87905
v -2.43736 0.343732 3.88043
v -2.43736 0.343627 3.88084
v -2.43736 0.342662 3.87889
v -2.43736 0.343144 3.87986
v -2.43875 0.341524 3.8831
v -2.43875 0.339669 3.88155
v -2.43815 0.339974 3.8814
v -2.43815 0.34164 3.88279
v -2.43875 0.339564 3.87914
v -2.43815 0.33988 3.87924
v -2.43875 0.340786 3.87751
v -2.43815 0.340928 3.87779
v -2.43815 0.343418 3.88282
v -2.43875 0.343559 3.88311
v -2.43766 0.341915 3.88206
v -2.43766 0.343084 3.88215
v -2.43766 0.341262 3.87847
v -2.43766 0.340627 3.87946
v -2.43766 0.340696 3.88104
v -2.43736 0.341622 3.88058
v -2.43736 0.342267 3.88112
v -2.43736 0.341586 3.87975
v -2.43736 0.341692 3.87934
v -2.43736 0.342656 3.88128
v -2.43736 0.342174 3.88031
v -2.43877 0.342174 3.88031
v -2.43877 0.343144 3.87986
v -2.43877 0.343627 3.88084
v -2.43877 0.342656 3.88128
v -2.43877 0.344056 3.8817
v -2.43877 0.343084 3.88215
v -2.43877 0.3443 3.8822
v -2.43877 0.343329 3.88264
v -2.43877 0.341692 3.87934
v -2.43877 0.342662 3.87889
v -2.43877 0.341262 3.87847
v -2.43877 0.342234 3.87802
v -2.43877 0.341018 3.87798
v -2.43877 0.341989 3.87753
v -2.43807 0.343144 3.87986
v -2.43807 0.342662 3.87889
v -2.43807 0.343627 3.88084
v -2.43821 0.342234 3.87802
v -2.43821 0.344056 3.8817
v -2.43846 0.3443 3.8822
v -2.43846 0.341989 3.87753
v -2.43807 0.342174 3.88031
v -2.43807 0.342656 3.88128
v -2.43807 0.341692 3.87934
v -2.43821 0.343084 3.88215
v -2.43821 0.341262 3.87847
v -2.43846 0.341018 3.87798
v -2.43846 0.343329 3.88264
v -2.43913 0.344532 3.88266
v -2.43913 0.343559 3.88311
v -2.43913 0.340786 3.87751
v -2.43913 0.341759 3.87706
v -2.43913 0.341524 3.8831
v -2.43913 0.339669 3.88155
v -2.43913 0.339564 3.87914
v -2.43913 0.343795 3.87707
v -2.43913 0.345649 3.87862
v -2.43913 0.345754 3.88103
v -2.43708 0.342613 3.77623
v -2.43708 0.339944 3.77513
v -2.43799 0.34019 3.77489
v -2.43799 0.342614 3.77589
v -2.43799 0.34019 3.87758
v -2.43708 0.339944 3.87734
v -2.43708 0.342613 3.87624
v -2.43799 0.342614 3.87658
v -2.43708 0.34529 3.77513
v -2.43799 0.345045 3.77489
v -2.43708 0.34529 3.87734
v -2.43799 0.345045 3.87758
v -2.43708 0.342613 3.76867
v -2.43708 0.34529 3.76978
v -2.43799 0.345045 3.77003
v -2.43799 0.342614 3.76902
v -2.43799 0.345045 3.88244
v -2.43708 0.34529 3.88268
v -2.43708 0.342613 3.8838
v -2.43799 0.342614 3.88345
v -2.43708 0.339944 3.76978
v -2.43799 0.34019 3.77003
v -2.43708 0.339944 3.88268
v -2.43799 0.34019 3.88244
v -2.43708 0.338844 3.77245
v -2.43799 0.33919 3.77245
v -2.43708 0.338844 3.88002
v -2.43799 0.33919 3.88002
v -2.43708 0.346425 3.77245
v -2.43799 0.346076 3.77245
v -2.43799 0.346076 3.88002
v -2.43708 0.346425 3.88002
v -2.44102 0.345045 3.77489
v -2.44102 0.346076 3.77245
v -2.44102 0.345045 3.87758
v -2.44102 0.346076 3.88002
v -2.44102 0.345045 3.77003
v -2.44102 0.345045 3.88244
v -2.44102 0.33919 3.77245
v -2.44102 0.34019 3.77489
v -2.44102 0.33919 3.88002
v -2.44102 0.34019 3.87758
v -2.44102 0.34019 3.77003
v -2.44102 0.34019 3.88244
v -2.44102 0.342614 3.76902
v -2.44102 0.342614 3.88345
v -2.44102 0.342614 3.77589
v -2.44102 0.342614 3.87658
vt 0 0
vt 0 0
vt 0 0
vt 0 0
vt 0 0
vt 0 0
vt 0 0
vt 0 0
vt 0 0
vt 0 0
vt 0 0
vt 0 0
vt 0 0
vt 0 0
vt 0 0
vt 0 0
vt 0 0
vt 0 0
vt 0 0
vt 0 0
vt 0 0
vt 0 0
vt 0 0
vt 0 0
vt 0 0
vt 0 0
vt 0 0
vt 0 0
vt 0 0
vt 0 0
vt 0 0
vt 0 0
vt 0 0
vt 0 0
vt 0 0
vt 0 0
vt 0 0
vt 0 0
vt 0 0
vt 0 0
vt 0 0
vt 0 0
vt 0 0
vt 0 0
vt 0 0
vt 0 0
vt 0 0
vt 0 0
vt 0 0
vt 0 0
vt 0 0
vt 0 0
vt 0 0
vt 0 0
vt 0 0
vt 0 0
vt 0 0
vt 0 0
vt 0 0
vt 0 0
vt 0 0
vt 0 0
vt 0 0
vt 0 0
vt 0 0
vt 0 0
vt 0 0
vt 0 0
vt 0 0
vt 0 0
vt 0 0
vt 0 0
vt 0 0
vt 0 0
vt 0 0
vt 0 0
vt 0 0
vt 0 0
vt 0 0
vt 0 0
vt 0 0
vt 0 0
vt 0 0
vt 0 0
vt 0 0
vt 0 0
vt 0 0
vt 0 0
vt 0 0
vt 0 0
vt 0 0
vt 0 0
vt 0 0
vt 0 0
vt 0 0
vt 0 0
vt 0 0
vt 0 0
vt 0 0
vt 0 0
vt 0 0
vt 0 0
vt 0 0
vt 0 0
vt 0 0
vt 0 0
vt 0 0
vt 0 0
vt 0 0
vt 0 0
vt 0 0
vt 0 0
vt 0 0
vt 0 0
vt 0 0
vt 0 0
vt 0 0
vt 0 0
vt 0 0
vt 0 0
vt 0 0
vt 0 0
vt 0 0
vt 0 0
vt 0 0
vt 0 0
vt 0 0
vt 0 0
vt 0 0
vt 0 0
vt 0 0
vt 0 0
vt 0 0
vt 0 0
vt 0 0
vt 0 0
vt 0 0
vt 0 0
vt 0 0
vt 0 0
vt 0 0
vt 0 0
vt 0 0
vt 0 0
vt 0 0
vt 0 0
vt 0 0
vt 0 0
vt 0 0
vt 0 0
vt 0 0
vt 0 0
vt 0 0
vt 0 0
vt 0 0
vt 0 0
vt 0 0
vt 0 0
vt 0 0
vt 0 0
vt 0 0
vt 0 0
vt 0 0
vt 0 0
vt 0 0
vt 0 0
vt 0 0
vt 0 0
vt 0 0
vt 0 0
vt 0 0
vt 0 0
vt 0 0
vt 0 0
vt 0 0
vt 0 0
vt 0 0
vt 0 0
vt 0 0
vt 0 0
vt 0 0
vt 0 0
vt 0 0
vt 0 0
vt 0 0
vt 0 0
vt 0 0
vt 0 0
vt 0 0
vt 0 0
vt 0 0
vt 0 0
vt 0 0
vt 0 0
vt 0 0
vt 0 0
vt 0 0
vt 0 0
vt 0 0
vt 0 0
vt 0 0
vt 0 0
vt 0 0
vt 0 0
vt 0 0
vt 0 0
vt 0 0
vt 0 0
vn 0.2348 0.9386 -0.2527
vn 0.2426 0.8525 0.463
vn 0.666 0.6555 0.356
vn 0.6536 0.7316 -0.1939
vn 0.2348 0.3023 0.9238
vn 0.6535 0.2383 0.7184
vn 0.4729 -0.3996 0.7853
vn 0.5659 -0.7566 0.3273
vn 0.5648 -0.1405 -0.8131
vn 0.483 0.4527 -0.7495
vn 0.8942 0.4355 -0.1039
vn 0.7312 -0.3412 -0.5906
vn 0.7321 -0.6801 0.0371
vn 0.894 0.1516 0.4216
vn 0.9017 0.3798 0.2063
vn 0.9845 0.1539 0.0835
vn 0.9863 0.1623 -0.0273
vn 0.9864 0.066 0.1507
vn 0.7676 -0.6217 -0.1559
vn 0.7671 -0.4707 -0.4359
vn 0.7071 -0.6216 -0.3369
vn 0.2347 -0.9386 0.2527
vn 0.2425 -0.8525 -0.463
vn 0.6659 -0.6555 -0.356
vn 0.6536 -0.7316 0.1939
vn 0.2346 -0.3023 -0.9239
vn 0.6533 -0.2383 -0.7186
vn 0.4728 0.3997 -0.7853
vn 0.5658 0.7566 -0.3276
vn 0.5648 0.1405 0.8131
vn 0.4829 -0.4527 0.7495
vn 0.8942 -0.4355 0.104
vn 0.7313 0.3411 0.5907
vn 0.7321 0.6801 -0.0372
vn 0.894 -0.1516 -0.4216
vn 0.9017 -0.3798 -0.2063
vn 0.9845 -0.1539 -0.0836
vn 0.9863 -0.1624 0.0273
vn 0.9864 -0.0661 -0.1507
vn 0.7675 0.6217 0.1559
vn 0.7671 0.4706 0.436
vn 0.7072 0.6216 0.3369
vn 0.7071 0.6217 0.3369
vn 0.7071 -0.6217 -0.3369
vn 0.7071 -0.6217 -0.3369
vn 0.7071 0.6217 0.3369
vn 0.7071 -0.6217 -0.3369
vn 0.7071 0.6217 0.3368
vn 0.711 -0.6121 -0.346
vn 0.7107 0.6242 0.3244
vn 0.7071 0.6217 0.3369
vn 0.7071 -0.6216 -0.337
vn 0.707 0.6217 0.3369
vn 0.7071 -0.6216 -0.3369
vn 0.7111 0.612 0.346
vn 0.7107 -0.6241 -0.3244
vn 0 -0.8792 -0.4764
vn 0 -0.8792 -0.4765
vn 0 -0.8792 -0.4764
vn -0.0001 -0.8792 -0.4764
vn 0 -0.8792 -0.4764
vn -0.0001 -0.8792 -0.4764
vn 0 -0.8792 -0.4764
vn 0 0.8792 0.4764
vn 0 0.8792 0.4764
vn 0 0.8792 0.4764
vn 0 0.8792 0.4764
vn 0 0.8792 0.4764
vn 0.0001 0.8792 0.4765
vn 0 0.8792 0.4764
vn 0 -0.2747 0.9615
vn 0 -0.6774 0.7356
vn 0 0.2747 -0.9615
vn 0 0.6774 -0.7356
vn 0 -0.9653 0.2612
vn 0 -0.8787 -0.4773
vn 0 -0.3099 -0.9508
vn 0 0.9653 -0.2612
vn 0 0.8787 0.4773
vn 0 0.3099 0.9508
vn 0.2351 0.3345 -0.9126
vn 0.2426 0.8697 -0.4297
vn 0.666 0.6688 -0.3303
vn 0.6538 0.2632 -0.7094
vn 0.2347 0.9292 0.2856
vn 0.6533 0.7245 0.2195
vn 0.4729 0.4112 0.7792
vn 0.5659 -0.1686 0.807
vn 0.5651 -0.7453 -0.3537
vn 0.4832 -0.3515 -0.8019
vn 0.8941 0.1661 -0.4158
vn 0.7312 -0.6793 -0.0618
vn 0.7321 -0.3617 0.5772
vn 0.894 0.4319 0.1192
vn 0.9017 0.3876 -0.1915
vn 0.9846 0.1569 -0.0775
vn 0.9864 0.0708 -0.1484
vn 0.9864 0.161 0.0329
vn 0.7675 -0.4859 0.4179
vn 0.767 -0.6276 0.1334
vn 0.7071 -0.6336 0.3138
vn 0.2349 -0.3345 0.9126
vn 0.2427 -0.8697 0.4296
vn 0.6661 -0.6687 0.3303
vn 0.6537 -0.2632 0.7095
vn 0.2347 -0.9292 -0.2855
vn 0.6535 -0.7244 -0.2195
vn 0.4729 -0.4113 -0.7792
vn 0.5661 0.1686 -0.8069
vn 0.5647 0.7455 0.3539
vn 0.483 0.3514 0.802
vn 0.8942 -0.166 0.4158
vn 0.7313 0.6793 0.0617
vn 0.7322 0.3617 -0.5771
vn 0.894 -0.4319 -0.1192
vn 0.9017 -0.3875 0.1914
vn 0.9846 -0.1569 0.0775
vn 0.9863 -0.0713 0.1484
vn 0.9864 -0.1612 -0.033
vn 0.7676 0.4857 -0.4181
vn 0.7671 0.6275 -0.1333
vn 0.7071 0.6337 -0.3138
vn 0.7071 0.6337 -0.3138
vn 0.7071 -0.6336 0.3139
vn 0.7071 -0.6336 0.3139
vn 0.7071 0.6336 -0.3138
vn 0.7071 -0.6336 0.3139
vn 0.7071 0.6336 -0.3138
vn 0.7111 -0.6355 0.3006
vn 0.7106 0.6249 -0.3232
vn 0.7071 0.6337 -0.3139
vn 0.7071 -0.6336 0.3139
vn 0.7071 0.6336 -0.3139
vn 0.7071 -0.6336 0.3139
vn 0.7111 0.6355 -0.3007
vn 0.7107 -0.6249 0.323
vn 0 -0.8961 0.4438
vn 0 -0.8961 0.4438
vn 0 -0.8961 0.4438
vn 0 -0.8961 0.4438
vn 0 -0.8961 0.4438
vn 0.0002 -0.8961 0.4438
vn 0 -0.8961 0.4437
vn 0 0.8961 -0.4438
vn 0 0.8961 -0.4438
vn 0 0.8961 -0.4438
vn 0 0.8961 -0.4438
vn 0 0.8961 -0.4438
vn 0.0002 0.8961 -0.4437
vn -0.0002 0.8961 -0.4439
vn 0 0.6274 0.7787
vn 0 0.2105 0.9776
vn 0 -0.6274 -0.7787
vn 0 -0.2105 -0.9776
vn 0 -0.3431 0.9393
vn 0 -0.8966 0.4429
vn 0 -0.9555 -0.2949
vn 0 0.3431 -0.9393
vn 0 0.8966 -0.4429
vn 0 0.9555 0.2949
vn 0.3563 0.0006 -0.9344
vn 0.3566 0.6612 -0.66
vn 0.1898 0.6949 -0.6935
vn 0.1895 0.0004 -0.9819
vn 0.1897 0.695 0.6936
vn 0.3565 0.6612 0.6601
vn 0.3559 0.0006 0.9345
vn 0.1893 0.0004 0.9819
vn 0.3564 -0.6576 -0.6638
vn 0.1895 -0.6907 -0.6979
vn 0.3562 -0.6576 0.6639
vn 0.1894 -0.6907 0.6979
vn 0.3568 0.0006 0.9342
vn 0.3558 -0.6586 0.6631
vn 0.1891 -0.6916 0.697
vn 0.1899 0.0004 0.9818
vn 0.1891 -0.6916 -0.697
vn 0.3557 -0.6586 -0.6631
vn 0.3566 0.0006 -0.9342
vn 0.1898 0.0004 -0.9818
vn 0.3562 0.6622 0.6593
vn 0.1894 0.6959 0.6926
vn 0.3561 0.6622 -0.6593
vn 0.1894 0.6959 -0.6927
vn 0.3558 0.9346 0.0009
vn 0.1892 0.9819 0.0009
vn 0.3558 0.9345 -0.0009
vn 0.1892 0.9819 -0.0009
vn 0.3581 -0.9337 0.0009
vn 0.1907 -0.9816 0.001
vn 0.1907 -0.9816 -0.001
vn 0.3581 -0.9337 -0.0009
vn 0 -0.7035 -0.7107
vn 0 -1 0.001
vn 0 -0.7035 0.7107
vn 0 -1 -0.001
vn 0 -0.7045 0.7097
vn 0 -0.7045 -0.7097
vn 0 1 0.001
vn 0 0.7078 -0.7064
vn 0 1 -0.001
vn 0 0.7078 0.7064
vn 0 0.7087 0.7055
vn 0 0.7087 -0.7055
vn 0 0.0005 1
vn 0 0.0005 -1
vn 0 0.0005 -1
vn 0 0.0005 1
f 1/1/1 2/2/2 3/3/3
f 1/1/1 3/3/3 4/4/4
f 5/5/5 6/6/6 3/3/3
f 5/5/5 3/3/3 2/2/2
f 5/5/5 7/7/7 8/8/8
f 5/5/5 8/8/8 6/6/6
f 9/9/9 10/10/10 1/1/1
f 9/9/9 1/1/1 4/4/4
f 4/4/4 11/11/11 12/12/12
f 4/4/4 12/12/12 9/9/9
f 6/6/6 8/8/8 13/13/13
f 6/6/6 13/13/13 14/14/14
f 6/6/6 14/14/14 15/15/15
f 6/6/6 15/15/15 3/3/3
f 4/4/4 3/3/3 15/15/15
f 4/4/4 15/15/15 11/11/11
f 11/11/11 15/15/15 16/16/16
f 11/11/11 16/16/16 17/17/17
f 14/14/14 18/18/18 16/16/16
f 14/14/14 16/16/16 15/15/15
f 14/14/14 13/13/13 19/19/19
f 14/14/14 19/19/19 18/18/18
f 11/11/11 17/17/17 20/20/20
f 11/11/11 20/20/20 12/12/12
f 17/17/17 21/21/21 20/20/20
f 18/18/18 19/19/19 21/21/21
f 18/18/18 21/21/21 16/16/16
f 17/17/17 16/16/16 21/21/21
f 22/22/22 23/23/23 24/24/24
f 22/22/22 24/24/24 25/25/25
f 26/26/26 27/27/27 24/24/24
f 26/26/26 24/24/24 23/23/23
f 26/26/26 28/28/28 29/29/29
f 26/26/26 29/29/29 27/27/27
f 22/22/22 25/25/25 30/30/30
f 22/22/22 30/30/30 31/31/31
f 25/25/25 32/32/32 33/33/33
f 25/25/25 33/33/33 30/30/30
f 27/27/27 29/29/29 34/34/34
f 27/27/27 34/34/34 35/35/35
f 27/27/27 35/35/35 36/36/36
f 27/27/27 36/36/36 24/24/24
f 25/25/25 24/24/24 36/36/36
f 25/25/25 36/36/36 32/32/32
f 32/32/32 36/36/36 37/37/37
f 32/32/32 37/37/37 38/38/38
f 35/35/35 39/39/39 37/37/37
f 35/35/35 37/37/37 36/36/36
f 35/35/35 34/34/34 40/40/40
f 35/35/35 40/40/40 39/39/39
f 32/32/32 38/38/38 41/41/41
f 32/32/32 41/41/41 33/33/33
f 38/38/38 42/42/42 41/41/41
f 39/39/39 40/40/40 42/42/42
f 39/39/39 42/42/42 37/37/37
f 38/38/38 37/37/37 42/42/42
f 43/43/43 44/44/44 45/45/45
f 43/43/43 45/45/45 46/46/46
f 46/46/46 45/45/45 47/47/47
f 46/46/46 47/47/47 48/48/48
f 48/48/48 47/47/47 49/49/49
f 48/48/48 49/49/49 50/50/50
f 43/43/43 51/51/51 52/52/52
f 43/43/43 52/52/52 44/44/44
f 51/51/51 53/53/53 54/54/54
f 51/51/51 54/54/54 52/52/52
f 53/53/53 55/55/55 56/56/56
f 53/53/53 56/56/56 54/54/54
f 21/21/21 57/57/57 58/58/58
f 21/21/21 58/58/58 20/20/20
f 57/57/57 44/44/44 52/52/52
f 57/57/57 52/52/52 58/58/58
f 19/19/19 59/59/59 57/57/57
f 19/19/19 57/57/57 21/21/21
f 59/59/59 45/45/45 44/44/44
f 59/59/59 44/44/44 57/57/57
f 20/20/20 58/58/58 60/60/60
f 20/20/20 60/60/60 12/12/12
f 58/58/58 52/52/52 54/54/54
f 58/58/58 54/54/54 60/60/60
f 13/13/13 61/61/61 59/59/59
f 13/13/13 59/59/59 19/19/19
f 61/61/61 47/47/47 45/45/45
f 61/61/61 45/45/45 59/59/59
f 8/8/8 62/62/62 61/61/61
f 8/8/8 61/61/61 13/13/13
f 62/62/62 49/49/49 47/47/47
f 62/62/62 47/47/47 61/61/61
f 12/12/12 60/60/60 63/63/63
f 12/12/12 63/63/63 9/9/9
f 60/60/60 54/54/54 56/56/56
f 60/60/60 56/56/56 63/63/63
f 42/42/42 64/64/64 65/65/65
f 42/42/42 65/65/65 41/41/41
f 64/64/64 43/43/43 46/46/46
f 64/64/64 46/46/46 65/65/65
f 40/40/40 66/66/66 64/64/64
f 40/40/40 64/64/64 42/42/42
f 66/66/66 51/51/51 43/43/43
f 66/66/66 43/43/43 64/64/64
f 41/41/41 65/65/65 67/67/67
f 41/41/41 67/67/67 33/33/33
f 65/65/65 46/46/46 48/48/48
f 65/65/65 48/48/48 67/67/67
f 34/34/34 68/68/68 66/66/66
f 34/34/34 66/66/66 40/40/40
f 68/68/68 53/53/53 51/51/51
f 68/68/68 51/51/51 66/66/66
f 29/29/29 69/69/69 68/68/68
f 29/29/29 68/68/68 34/34/34
f 69/69/69 55/55/55 53/53/53
f 69/69/69 53/53/53 68/68/68
f 33/33/33 67/67/67 70/70/70
f 33/33/33 70/70/70 30/30/30
f 67/67/67 48/48/48 50/50/50
f 67/67/67 50/50/50 70/70/70
f 10/10/10 9/9/9 63/63/63
f 10/10/10 63/63/63 56/56/56
f 28/28/28 55/55/55 69/69/69
f 28/28/28 69/69/69 29/29/29
f 31/31/31 30/30/30 70/70/70
f 31/31/31 70/70/70 50/50/50
f 10/10/10 56/56/56 55/55/55
f 10/10/10 55/55/55 28/28/28
f 7/7/7 31/31/31 50/50/50
f 7/7/7 50/50/50 49/49/49
f 7/7/7 49/49/49 62/62/62
f 7/7/7 62/62/62 8/8/8
f 31/31/31 7/7/7 71/71/71
f 31/31/31 71/71/71 72/72/72
f 10/10/10 28/28/28 73/73/73
f 10/10/10 73/73/73 74/74/74
f 23/23/23 22/22/22 75/75/75
f 23/23/23 75/75/75 76/76/76
f 26/26/26 23/23/23 76/76/76
f 26/26/26 76/76/76 77/77/77
f 28/28/28 26/26/26 77/77/77
f 28/28/28 77/77/77 73/73/73
f 22/22/22 31/31/31 72/72/72
f 22/22/22 72/72/72 75/75/75
f 2/2/2 1/1/1 78/78/78
f 2/2/2 78/78/78 79/79/79
f 5/5/5 2/2/2 79/79/79
f 5/5/5 79/79/79 80/80/80
f 7/7/7 5/5/5 80/80/80
f 7/7/7 80/80/80 71/71/71
f 1/1/1 10/10/10 74/74/74
f 1/1/1 74/74/74 78/78/78
f 81/81/81 82/82/82 83/83/83
f 81/81/81 83/83/83 84/84/84
f 85/85/85 86/86/86 83/83/83
f 85/85/85 83/83/83 82/82/82
f 85/85/85 87/87/87 88/88/88
f 85/85/85 88/88/88 86/86/86
f 89/89/89 90/90/90 81/81/81
f 89/89/89 81/81/81 84/84/84
f 84/84/84 91/91/91 92/92/92
f 84/84/84 92/92/92 89/89/89
f 86/86/86 88/88/88 93/93/93
f 86/86/86 93/93/93 94/94/94
f 86/86/86 94/94/94 95/95/95
f 86/86/86 95/95/95 83/83/83
f 84/84/84 83/83/83 95/95/95
f 84/84/84 95/95/95 91/91/91
f 91/91/91 95/95/95 96/96/96
f 91/91/91 96/96/96 97/97/97
f 94/94/94 98/98/98 96/96/96
f 94/94/94 96/96/96 95/95/95
f 94/94/94 93/93/93 99/99/99
f 94/94/94 99/99/99 98/98/98
f 91/91/91 97/97/97 100/100/100
f 91/91/91 100/100/100 92/92/92
f 97/97/97 101/101/101 100/100/100
f 98/98/98 99/99/99 101/101/101
f 98/98/98 101/101/101 96/96/96
f 97/97/97 96/96/96 101/101/101
f 102/102/102 103/103/103 104/104/104
f 102/102/102 104/104/104 105/105/105
f 106/106/106 107/107/107 104/104/104
f 106/106/106 104/104/104 103/103/103
f 106/106/106 108/108/108 109/109/109
f 106/106/106 109/109/109 107/107/107
f 102/102/102 105/105/105 110/110/110
f 102/102/102 110/110/110 111/111/111
f 105/105/105 112/112/112 113/113/113
f 105/105/105 113/113/113 110/110/110
f 107/107/107 109/109/109 114/114/114
f 107/107/107 114/114/114 115/115/115
f 107/107/107 115/115/115 116/116/116
f 107/107/107 116/116/116 104/104/104
f 105/105/105 104/104/104 116/116/116
f 105/105/105 116/116/116 112/112/112
f 112/112/112 116/116/116 117/117/117
f 112/112/112 117/117/117 118/118/118
f 115/115/115 119/119/119 117/117/117
f 115/115/115 117/117/117 116/116/116
f 115/115/115 114/114/114 120/120/120
f 115/115/115 120/120/120 119/119/119
f 112/112/112 118/118/118 121/121/121
f 112/112/112 121/121/121 113/113/113
f 118/118/118 122/122/122 121/121/121
f 119/119/119 120/120/120 122/122/122
f 119/119/119 122/122/122 117/117/117
f 118/118/118 117/117/117 122/122/122
f 123/123/123 124/124/124 125/125/125
f 123/123/123 125/125/125 126/126/126
f 126/126/126 125/125/125 127/127/127
f 126/126/126 127/127/127 128/128/128
f 128/128/128 127/127/127 129/129/129
f 128/128/128 129/129/129 130/130/130
f 123/123/123 131/131/131 132/132/132
f 123/123/123 132/132/132 124/124/124
f 131/131/131 133/133/133 134/134/134
f 131/131/131 134/134/134 132/132/132
f 133/133/133 135/135/135 136/136/136
f 133/133/133 136/136/136 134/134/134
f 101/101/101 137/137/137 138/138/138
f 101/101/101 138/138/138 100/100/100
f 137/137/137 124/124/124 132/132/132
f 137/137/137 132/132/132 138/138/138
f 99/99/99 139/139/139 137/137/137
f 99/99/99 137/137/137 101/101/101
f 139/139/139 125/125/125 124/124/124
f 139/139/139 124/124/124 137/137/137
f 100/100/100 138/138/138 140/140/140
f 100/100/100 140/140/140 92/92/92
f 138/138/138 132/132/132 134/134/134
f 138/138/138 134/134/134 140/140/140
f 93/93/93 141/141/141 139/139/139
f 93/93/93 139/139/139 99/99/99
f 141/141/141 127/127/127 125/125/125
f 141/141/141 125/125/125 139/139/139
f 88/88/88 142/142/142 141/141/141
f 88/88/88 141/141/141 93/93/93
f 142/142/142 129/129/129 127/127/127
f 142/142/142 127/127/127 141/141/141
f 92/92/92 140/140/140 143/143/143
f 92/92/92 143/143/143 89/89/89
f 140/140/140 134/134/134 136/136/136
f 140/140/140 136/136/136 143/143/143
f 122/122/122 144/144/144 145/145/145
f 122/122/122 145/145/145 121/121/121
f 144/144/144 123/123/123 126/126/126
f 144/144/144 126/126/126 145/145/145
f 120/120/120 146/146/146 144/144/144
f 120/120/120 144/144/144 122/122/122
f 146/146/146 131/131/131 123/123/123
f 146/146/146 123/123/123 144/144/144
f 121/121/121 145/145/145 147/147/147
f 121/121/121 147/147/147 113/113/113
f 145/145/145 126/126/126 128/128/128
f 145/145/145 128/128/128 147/147/147
f 114/114/114 148/148/148 146/146/146
f 114/114/114 146/146/146 120/120/120
f 148/148/148 133/133/133 131/131/131
f 148/148/148 131/131/131 146/146/146
f 109/109/109 149/149/149 148/148/148
f 109/109/109 148/148/148 114/114/114
f 149/149/149 135/135/135 133/133/133
f 149/149/149 133/133/133 148/148/148
f 113/113/113 147/147/147 150/150/150
f 113/113/113 150/150/150 110/110/110
f 147/147/147 128/128/128 130/130/130
f 147/147/147 130/130/130 150/150/150
f 90/90/90 89/89/89 143/143/143
f 90/90/90 143/143/143 136/136/136
f 108/108/108 135/135/135 149/149/149
f 108/108/108 149/149/149 109/109/109
f 111/111/111 110/110/110 150/150/150
f 111/111/111 150/150/150 130/130/130
f 90/90/90 136/136/136 135/135/135
f 90/90/90 135/135/135 108/108/108
f 87/87/87 111/111/111 130/130/130
f 87/87/87 130/130/130 129/129/129
f 87/87/87 129/129/129 142/142/142
f 87/87/87 142/142/142 88/88/88
f 111/111/111 87/87/87 151/151/151
f 111/111/111 151/151/151 152/152/152
f 90/90/90 108/108/108 153/153/153
f 90/90/90 153/153/153 154/154/154
f 103/103/103 102/102/102 155/155/155
f 103/103/103 155/155/155 156/156/156
f 106/106/106 103/103/103 156/156/156
f 106/106/106 156/156/156 157/157/157
f 108/108/108 106/106/106 157/157/157
f 108/108/108 157/157/157 153/153/153
f 102/102/102 111/111/111 152/152/152
f 102/102/102 152/152/152 155/155/155
f 82/82/82 81/81/81 158/158/158
f 82/82/82 158/158/158 159/159/159
f 85/85/85 82/82/82 159/159/159
f 85/85/85 159/159/159 160/160/160
f 87/87/87 85/85/85 160/160/160
f 87/87/87 160/160/160 151/151/151
f 81/81/81 90/90/90 154/154/154
f 81/81/81 154/154/154 158/158/158
f 161/161/161 162/162/162 163/163/163
f 161/161/161 163/163/163 164/164/164
f 165/165/165 166/166/166 167/167/167
f 165/165/165 167/167/167 168/168/168
f 169/169/169 161/161/161 164/164/164
f 169/169/169 164/164/164 170/170/170
f 168/168/168 167/167/167 171/171/171
f 168/168/168 171/171/171 172/172/172
f 173/173/173 174/174/174 175/175/175
f 173/173/173 175/175/175 176/176/176
f 177/177/177 178/178/178 179/179/179
f 177/177/177 179/179/179 180/180/180
f 181/181/181 173/173/173 176/176/176
f 181/181/181 176/176/176 182/182/182
f 180/180/180 179/179/179 183/183/183
f 180/180/180 183/183/183 184/184/184
f 185/185/185 181/181/181 182/182/182
f 185/185/185 182/182/182 186/186/186
f 184/184/184 183/183/183 187/187/187
f 184/184/184 187/187/187 188/188/188
f 162/162/162 185/185/185 186/186/186
f 162/162/162 186/186/186 163/163/163
f 188/188/188 187/187/187 166/166/166
f 188/188/188 166/166/166 165/165/165
f 174/174/174 189/189/189 190/190/190
f 174/174/174 190/190/190 175/175/175
f 191/191/191 192/192/192 178/178/178
f 191/191/191 178/178/178 177/177/177
f 189/189/189 169/169/169 170/170/170
f 189/189/189 170/170/170 190/190/190
f 172/172/172 171/171/171 192/192/192
f 172/172/172 192/192/192 191/191/191
f 190/190/190 170/170/170 193/193/193
f 190/190/190 193/193/193 194/194/194
f 195/195/195 172/172/172 191/191/191
f 195/195/195 191/191/191 196/196/196
f 175/175/175 190/190/190 194/194/194
f 175/175/175 194/194/194 197/197/197
f 196/196/196 191/191/191 177/177/177
f 196/196/196 177/177/177 198/198/198
f 163/163/163 186/186/186 199/199/199
f 163/163/163 199/199/199 200/200/200
f 201/201/201 188/188/188 165/165/165
f 201/201/201 165/165/165 202/202/202
f 186/186/186 182/182/182 203/203/203
f 186/186/186 203/203/203 199/199/199
f 204/204/204 184/184/184 188/188/188
f 204/204/204 188/188/188 201/201/201
f 182/182/182 176/176/176 205/205/205
f 182/182/182 205/205/205 203/203/203
f 206/206/206 180/180/180 184/184/184
f 206/206/206 184/184/184 204/204/204
f 176/176/176 175/175/175 197/197/197
f 176/176/176 197/197/197 205/205/205
f 198/198/198 177/177/177 180/180/180
f 198/198/198 180/180/180 206/206/206
f 170/170/170 164/164/164 207/207/207
f 170/170/170 207/207/207 193/193/193
f 208/208/208 168/168/168 172/172/172
f 208/208/208 172/172/172 195/195/195
f 164/164/164 163/163/163 200/200/200
f 164/164/164 200/200/200 207/207/207
f 202/202/202 165/165/165 168/168/168
f 202/202/202 168/168/168 208/208/208
