v 1.43816 0.87499 0
v 1.43816 0.87499 -0.0289
v 2.31776 0.87499 -0.0289
v 1.43816 0.87499 0
v 2.31776 0.87499 -0.0289
v 2.31776 0.87499 0
v 2.24276 2.2774 -0.0239
v 2.24276 0.94999 -0.0239
v 2.24276 0.94999 -0.019778
v 2.24276 2.2774 -0.0239
v 2.24276 0.94999 -0.019778
v 2.24276 2.2774 -0.019778
v 2.24276 0.94999 -0.0239
v 1.51316 0.94999 -0.0239
v 1.51316 0.94999 -0.019778
v 2.24276 0.94999 -0.0239
v 1.51316 0.94999 -0.019778
v 2.24276 0.94999 -0.019778
v 2.31776 2.3524 -0.0289
v 2.31776 2.3524 0
v 2.31776 0.87499 0
v 2.31776 2.3524 -0.0289
v 2.31776 0.87499 0
v 2.31776 0.87499 -0.0289
v 2.31776 2.3524 0
v 2.31776 2.3524 -0.0289
v 1.43816 2.3524 -0.0289
v 2.31776 2.3524 0
v 1.43816 2.3524 -0.0289
v 1.43816 2.3524 0
v 1.43816 2.3524 0
v 1.43816 2.3524 -0.0289
v 1.43816 0.87499 -0.0289
v 1.43816 2.3524 0
v 1.43816 0.87499 -0.0289
v 1.43816 0.87499 0
v 1.44816 2.3424 -0.0389
v 1.49816 2.2924 -0.0389
v 1.49816 0.93499 -0.0389
v 1.44816 2.3424 -0.0389
v 1.49816 0.93499 -0.0389
v 1.44816 0.88499 -0.0389
v 1.51316 2.2774 -0.0239
v 2.24276 2.2774 -0.0239
v 2.24276 2.2774 -0.019778
v 1.51316 2.2774 -0.0239
v 2.24276 2.2774 -0.019778
v 1.51316 2.2774 -0.019778
v 1.44816 2.3424 -0.0389
v 2.30776 2.3424 -0.0389
v 2.25776 2.2924 -0.0389
v 1.44816 2.3424 -0.0389
v 2.25776 2.2924 -0.0389
v 1.49816 2.2924 -0.0389
v 2.30776 0.88499 -0.0389
v 1.44816 0.88499 -0.0389
v 1.49816 0.93499 -0.0389
v 2.30776 0.88499 -0.0389
v 1.49816 0.93499 -0.0389
v 2.25776 0.93499 -0.0389
v 1.44816 2.3424 -0.0389
v 1.44816 0.88499 -0.0389
v 1.44434 0.881163 -0.038139
v 1.44816 2.3424 -0.0389
v 1.44434 0.881163 -0.038139
v 1.44434 2.34622 -0.038139
v 1.44434 2.34622 -0.038139
v 1.44434 0.881163 -0.038139
v 1.44109 0.877918 -0.035971
v 1.44434 2.34622 -0.038139
v 1.44109 0.877918 -0.035971
v 1.44109 2.34947 -0.035971
v 1.44109 2.34947 -0.035971
v 1.44109 0.877918 -0.035971
v 1.43893 0.875751 -0.032727
v 1.44109 2.34947 -0.035971
v 1.43893 0.875751 -0.032727
v 1.43893 2.35164 -0.032727
v 1.43893 2.35164 -0.032727
v 1.43893 0.875751 -0.032727
v 1.43816 0.87499 -0.0289
v 1.43893 2.35164 -0.032727
v 1.43816 0.87499 -0.0289
v 1.43816 2.3524 -0.0289
v 1.43816 2.3524 -0.0289
v 2.31776 2.3524 -0.0289
v 2.317 2.35164 -0.032727
v 1.43816 2.3524 -0.0289
v 2.317 2.35164 -0.032727
v 1.43893 2.35164 -0.032727
v 1.43893 2.35164 -0.032727
v 2.317 2.35164 -0.032727
v 2.31484 2.34947 -0.035971
v 1.43893 2.35164 -0.032727
v 2.31484 2.34947 -0.035971
v 1.44109 2.34947 -0.035971
v 1.44109 2.34947 -0.035971
v 2.31484 2.34947 -0.035971
v 2.31159 2.34622 -0.038139
v 1.44109 2.34947 -0.035971
v 2.31159 2.34622 -0.038139
v 1.44434 2.34622 -0.038139
v 1.44434 2.34622 -0.038139
v 2.31159 2.34622 -0.038139
v 2.30776 2.3424 -0.0389
v 1.44434 2.34622 -0.038139
v 2.30776 2.3424 -0.0389
v 1.44816 2.3424 -0.0389
v 2.31776 2.3524 -0.0289
v 2.31776 0.87499 -0.0289
v 2.317 0.875751 -0.032727
v 2.31776 2.3524 -0.0289
v 2.317 0.875751 -0.032727
v 2.317 2.35164 -0.032727
v 2.317 2.35164 -0.032727
v 2.317 0.875751 -0.032727
v 2.31484 0.877918 -0.035971
v 2.317 2.35164 -0.032727
v 2.31484 0.877918 -0.035971
v 2.31484 2.34947 -0.035971
v 2.31484 2.34947 -0.035971
v 2.31484 0.877918 -0.035971
v 2.31159 0.881163 -0.038139
v 2.31484 2.34947 -0.035971
v 2.31159 0.881163 -0.038139
v 2.31159 2.34622 -0.038139
v 2.31159 2.34622 -0.038139
v 2.31159 0.881163 -0.038139
v 2.30776 0.88499 -0.0389
v 2.31159 2.34622 -0.038139
v 2.30776 0.88499 -0.0389
v 2.30776 2.3424 -0.0389
v 2.31776 0.87499 -0.0289
v 1.43816 0.87499 -0.0289
v 1.43893 0.875751 -0.032727
v 2.31776 0.87499 -0.0289
v 1.43893 0.875751 -0.032727
v 2.317 0.875751 -0.032727
v 2.317 0.875751 -0.032727
v 1.43893 0.875751 -0.032727
v 1.44109 0.877918 -0.035971
v 2.317 0.875751 -0.032727
v 1.44109 0.877918 -0.035971
v 2.31484 0.877918 -0.035971
v 2.31484 0.877918 -0.035971
v 1.44109 0.877918 -0.035971
v 1.44434 0.881163 -0.038139
v 2.31484 0.877918 -0.035971
v 1.44434 0.881163 -0.038139
v 2.31159 0.881163 -0.038139
v 2.31159 0.881163 -0.038139
v 1.44434 0.881163 -0.038139
v 1.44816 0.88499 -0.0389
v 2.31159 0.881163 -0.038139
v 1.44816 0.88499 -0.0389
v 2.30776 0.88499 -0.0389
v 2.30776 2.3424 -0.0389
v 2.30776 0.88499 -0.0389
v 2.25776 0.93499 -0.0389
v 2.30776 2.3424 -0.0389
v 2.25776 0.93499 -0.0389
v 2.25776 2.2924 -0.0389
v 1.51316 2.2774 -0.0239
v 1.51316 0.94999 -0.0239
v 1.50759 0.944419 -0.02532
v 1.51316 2.2774 -0.0239
v 1.50759 0.944419 -0.02532
v 1.50759 2.28297 -0.02532
v 1.50759 2.28297 -0.02532
v 1.50759 0.944419 -0.02532
v 1.50289 0.939714 -0.028625
v 1.50759 2.28297 -0.02532
v 1.50289 0.939714 -0.028625
v 1.50289 2.28767 -0.028625
v 1.50289 2.28767 -0.028625
v 1.50289 0.939714 -0.028625
v 1.49959 0.93641 -0.03333
v 1.50289 2.28767 -0.028625
v 1.49959 0.93641 -0.03333
v 1.49959 2.29098 -0.03333
v 1.49959 2.29098 -0.03333
v 1.49959 0.93641 -0.03333
v 1.49816 0.93499 -0.0389
v 1.49959 2.29098 -0.03333
v 1.49816 0.93499 -0.0389
v 1.49816 2.2924 -0.0389
v 1.49816 2.2924 -0.0389
v 2.25776 2.2924 -0.0389
v 2.25634 2.29098 -0.03333
v 1.49816 2.2924 -0.0389
v 2.25634 2.29098 -0.03333
v 1.49959 2.29098 -0.03333
v 1.49959 2.29098 -0.03333
v 2.25634 2.29098 -0.03333
v 2.25304 2.28767 -0.028625
v 1.49959 2.29098 -0.03333
v 2.25304 2.28767 -0.028625
v 1.50289 2.28767 -0.028625
v 1.50289 2.28767 -0.028625
v 2.25304 2.28767 -0.028625
v 2.24833 2.28297 -0.02532
v 1.50289 2.28767 -0.028625
v 2.24833 2.28297 -0.02532
v 1.50759 2.28297 -0.02532
v 1.50759 2.28297 -0.02532
v 2.24833 2.28297 -0.02532
v 2.24276 2.2774 -0.0239
v 1.50759 2.28297 -0.02532
v 2.24276 2.2774 -0.0239
v 1.51316 2.2774 -0.0239
v 2.25776 2.2924 -0.0389
v 2.25776 0.93499 -0.0389
v 2.25634 0.93641 -0.03333
v 2.25776 2.2924 -0.0389
v 2.25634 0.93641 -0.03333
v 2.25634 2.29098 -0.03333
v 2.25634 2.29098 -0.03333
v 2.25634 0.93641 -0.03333
v 2.25304 0.939714 -0.028625
v 2.25634 2.29098 -0.03333
v 2.25304 0.939714 -0.028625
v 2.25304 2.28767 -0.028625
v 2.25304 2.28767 -0.028625
v 2.25304 0.939714 -0.028625
v 2.24833 0.944419 -0.02532
v 2.25304 2.28767 -0.028625
v 2.24833 0.944419 -0.02532
v 2.24833 2.28297 -0.02532
v 2.24833 2.28297 -0.02532
v 2.24833 0.944419 -0.02532
v 2.24276 0.94999 -0.0239
v 2.24833 2.28297 -0.02532
v 2.24276 0.94999 -0.0239
v 2.24276 2.2774 -0.0239
v 2.25776 0.93499 -0.0389
v 1.49816 0.93499 -0.0389
v 1.49959 0.93641 -0.03333
v 2.25776 0.93499 -0.0389
v 1.49959 0.93641 -0.03333
v 2.25634 0.93641 -0.03333
v 2.25634 0.93641 -0.03333
v 1.49959 0.93641 -0.03333
v 1.50289 0.939714 -0.028625
v 2.25634 0.93641 -0.03333
v 1.50289 0.939714 -0.028625
v 2.25304 0.939714 -0.028625
v 2.25304 0.939714 -0.028625
v 1.50289 0.939714 -0.028625
v 1.50759 0.944419 -0.02532
v 2.25304 0.939714 -0.028625
v 1.50759 0.944419 -0.02532
v 2.24833 0.944419 -0.02532
v 2.24833 0.944419 -0.02532
v 1.50759 0.944419 -0.02532
v 1.51316 0.94999 -0.0239
v 2.24833 0.944419 -0.02532
v 1.51316 0.94999 -0.0239
v 2.24276 0.94999 -0.0239
v 1.51316 0.94999 -0.0239
v 1.51316 2.2774 -0.0239
v 1.51316 2.2774 -0.019778
v 1.51316 0.94999 -0.0239
v 1.51316 2.2774 -0.019778
v 1.51316 0.94999 -0.019778
vt 0 0
vt 0 0
vt 0 0
vt 0 0
vt 0 0
vt 0 0
vt 0 0
vt 0 0
vt 0 0
vt 0 0
vt 0 0
vt 0 0
vt 0 0
vt 0 0
vt 0 0
vt 0 0
vt 0 0
vt 0 0
vt 0 0
vt 0 0
vt 0 0
vt 0 0
vt 0 0
vt 0 0
vt 0 0
vt 0 0
vt 0 0
vt 0 0
vt 0 0
vt 0 0
vt 0 0
vt 0 0
vt 0 0
vt 0 0
vt 0 0
vt 0 0
vt 0 0
vt 0 0
vt 0 0
vt 0 0
vt 0 0
vt 0 0
vt 0 0
vt 0 0
vt 0 0
vt 0 0
vt 0 0
vt 0 0
vt 0 0
vt 0 0
vt 0 0
vt 0 0
vt 0 0
vt 0 0
vt 0 0
vt 0 0
vt 0 0
vt 0 0
vt 0 0
vt 0 0
vt 0 0
vt 0 0
vt 0 0
vt 0 0
vt 0 0
vt 0 0
vt 0 0
vt 0 0
vt 0 0
vt 0 0
vt 0 0
vt 0 0
vt 0 0
vt 0 0
vt 0 0
vt 0 0
vt 0 0
vt 0 0
vt 0 0
vt 0 0
vt 0 0
vt 0 0
vt 0 0
vt 0 0
vt 0 0
vt 0 0
vt 0 0
vt 0 0
vt 0 0
vt 0 0
vt 0 0
vt 0 0
vt 0 0
vt 0 0
vt 0 0
vt 0 0
vt 0 0
vt 0 0
vt 0 0
vt 0 0
vt 0 0
vt 0 0
vt 0 0
vt 0 0
vt 0 0
vt 0 0
vt 0 0
vt 0 0
vt 0 0
vt 0 0
vt 0 0
vt 0 0
vt 0 0
vt 0 0
vt 0 0
vt 0 0
vt 0 0
vt 0 0
vt 0 0
vt 0 0
vt 0 0
vt 0 0
vt 0 0
vt 0 0
vt 0 0
vt 0 0
vt 0 0
vt 0 0
vt 0 0
vt 0 0
vt 0 0
vt 0 0
vt 0 0
vt 0 0
vt 0 0
vt 0 0
vt 0 0
vt 0 0
vt 0 0
vt 0 0
vt 0 0
vt 0 0
vt 0 0
vt 0 0
vt 0 0
vt 0 0
vt 0 0
vt 0 0
vt 0 0
vt 0 0
vt 0 0
vt 0 0
vt 0 0
vt 0 0
vt 0 0
vt 0 0
vt 0 0
vt 0 0
vt 0 0
vt 0 0
vt 0 0
vt 0 0
vt 0 0
vt 0 0
vt 0 0
vt 0 0
vt 0 0
vt 0 0
vt 0 0
vt 0 0
vt 0 0
vt 0 0
vt 0 0
vt 0 0
vt 0 0
vt 0 0
vt 0 0
vt 0 0
vt 0 0
vt 0 0
vt 0 0
vt 0 0
vt 0 0
vt 0 0
vt 0 0
vt 0 0
vt 0 0
vt 0 0
vt 0 0
vt 0 0
vt 0 0
vt 0 0
vt 0 0
vt 0 0
vt 0 0
vt 0 0
vt 0 0
vt 0 0
vt 0 0
vt 0 0
vt 0 0
vt 0 0
vt 0 0
vt 0 0
vt 0 0
vt 0 0
vt 0 0
vt 0 0
vt 0 0
vt 0 0
vt 0 0
vt 0 0
vt 0 0
vt 0 0
vt 0 0
vt 0 0
vt 0 0
vt 0 0
vt 0 0
vt 0 0
vt 0 0
vt 0 0
vt 0 0
vt 0 0
vt 0 0
vt 0 0
vt 0 0
vt 0 0
vt 0 0
vt 0 0
vt 0 0
vt 0 0
vt 0 0
vt 0 0
vt 0 0
vt 0 0
vt 0 0
vt 0 0
vt 0 0
vt 0 0
vt 0 0
vt 0 0
vt 0 0
vt 0 0
vt 0 0
vt 0 0
vt 0 0
vt 0 0
vt 0 0
vt 0 0
vt 0 0
vt 0 0
vt 0 0
vt 0 0
vt 0 0
vt 0 0
vt 0 0
vt 0 0
vt 0 0
vt 0 0
vt 0 0
vt 0 0
vt 0 0
vt 0 0
vn 0 -1 0
vn 0 -1 0
vn 0 -1 0
vn 0 -1 0
vn 0 -1 0
vn 0 -1 0
vn -1 -0 0
vn -1 -0 0
vn -1 -0 0
vn -1 -0 0
vn -1 -0 0
vn -1 -0 0
vn 0 1 0
vn 0 1 0
vn 0 1 0
vn 0 1 0
vn 0 1 0
vn 0 1 0
vn 1 0 0
vn 1 0 0
vn 1 0 0
vn 1 0 0
vn 1 0 0
vn 1 0 0
vn 0 1 0
vn 0 1 0
vn 0 1 0
vn 0 1 0
vn 0 1 0
vn 0 1 0
vn -1 -0 0
vn -1 -0 0
vn -1 -0 0
vn -1 -0 0
vn -1 -0 0
vn -1 -0 0
vn 0 0 -1
vn 0 0 -1
vn 0 0 -1
vn 0 0 -1
vn 0 0 -1
vn 0 0 -1
vn 0 -1 0
vn 0 -1 0
vn 0 -1 0
vn 0 -1 0
vn 0 -1 0
vn 0 -1 0
vn 0 0 -1
vn 0 0 -1
vn 0 0 -1
vn 0 0 -1
vn 0 0 -1
vn 0 0 -1
vn 0 0 -1
vn 0 0 -1
vn 0 0 -1
vn 0 0 -1
vn 0 0 -1
vn 0 0 -1
vn -0.1954 0 -0.9807
vn -0.1954 0 -0.9807
vn -0.1954 0 -0.9807
vn -0.1949 0 -0.9808
vn -0.1949 0 -0.9808
vn -0.1949 0 -0.9808
vn -0.5555 0 -0.8315
vn -0.5555 0 -0.8315
vn -0.5555 0 -0.8315
vn -0.5556 0 -0.8315
vn -0.5556 0 -0.8315
vn -0.5556 0 -0.8315
vn -0.8315 0 -0.5555
vn -0.8315 0 -0.5555
vn -0.8315 0 -0.5555
vn -0.8315 0 -0.5555
vn -0.8315 0 -0.5555
vn -0.8315 0 -0.5555
vn -0.9807 0 -0.1953
vn -0.9807 0 -0.1953
vn -0.9807 0 -0.1953
vn -0.9808 0 -0.1953
vn -0.9808 0 -0.1953
vn -0.9808 0 -0.1953
vn 0 0.9809 -0.1948
vn 0 0.9809 -0.1948
vn 0 0.9809 -0.1948
vn 0 0.9808 -0.1949
vn 0 0.9808 -0.1949
vn 0 0.9808 -0.1949
vn -0 0.8314 -0.5556
vn -0 0.8314 -0.5556
vn -0 0.8314 -0.5556
vn -0 0.8314 -0.5557
vn -0 0.8314 -0.5557
vn -0 0.8314 -0.5557
vn -0 0.5555 -0.8315
vn -0 0.5555 -0.8315
vn -0 0.5555 -0.8315
vn -0 0.5557 -0.8314
vn -0 0.5557 -0.8314
vn -0 0.5557 -0.8314
vn -0 0.195 -0.9808
vn -0 0.195 -0.9808
vn -0 0.195 -0.9808
vn 0 0.1949 -0.9808
vn 0 0.1949 -0.9808
vn 0 0.1949 -0.9808
vn 0.9808 0 -0.1948
vn 0.9808 0 -0.1948
vn 0.9808 0 -0.1948
vn 0.9808 0 -0.1948
vn 0.9808 0 -0.1948
vn 0.9808 0 -0.1948
vn 0.8315 0 -0.5555
vn 0.8315 0 -0.5555
vn 0.8315 0 -0.5555
vn 0.8315 0 -0.5555
vn 0.8315 0 -0.5555
vn 0.8315 0 -0.5555
vn 0.5553 0 -0.8316
vn 0.5553 0 -0.8316
vn 0.5553 0 -0.8316
vn 0.5554 0 -0.8316
vn 0.5554 0 -0.8316
vn 0.5554 0 -0.8316
vn 0.1949 0 -0.9808
vn 0.1949 0 -0.9808
vn 0.1949 0 -0.9808
vn 0.1949 0 -0.9808
vn 0.1949 0 -0.9808
vn 0.1949 0 -0.9808
vn 0 -0.9808 -0.1951
vn 0 -0.9808 -0.1951
vn 0 -0.9808 -0.1951
vn 0 -0.9808 -0.1951
vn 0 -0.9808 -0.1951
vn 0 -0.9808 -0.1951
vn 0 -0.8315 -0.5555
vn 0 -0.8315 -0.5555
vn 0 -0.8315 -0.5555
vn 0 -0.8315 -0.5555
vn 0 -0.8315 -0.5555
vn 0 -0.8315 -0.5555
vn 0 -0.5555 -0.8315
vn 0 -0.5555 -0.8315
vn 0 -0.5555 -0.8315
vn 0 -0.5555 -0.8315
vn 0 -0.5555 -0.8315
vn 0 -0.5555 -0.8315
vn 0 -0.195 -0.9808
vn 0 -0.195 -0.9808
vn 0 -0.195 -0.9808
vn 0 -0.195 -0.9808
vn 0 -0.195 -0.9808
vn 0 -0.195 -0.9808
vn 0 0 -1
vn 0 0 -1
vn 0 0 -1
vn 0 0 -1
vn 0 0 -1
vn 0 0 -1
vn 0.247 0 -0.969
vn 0.247 0 -0.969
vn 0.247 0 -0.969
vn 0.247 0 -0.969
vn 0.247 0 -0.969
vn 0.247 0 -0.969
vn 0.5748 0 -0.8183
vn 0.5748 0 -0.8183
vn 0.5748 0 -0.8183
vn 0.5748 0 -0.8183
vn 0.5748 0 -0.8183
vn 0.5748 0 -0.8183
vn 0.8184 0 -0.5747
vn 0.8184 0 -0.5747
vn 0.8184 0 -0.5747
vn 0.8184 0 -0.5746
vn 0.8184 0 -0.5746
vn 0.8184 0 -0.5746
vn 0.969 0 -0.2472
vn 0.969 0 -0.2472
vn 0.969 0 -0.2472
vn 0.969 0 -0.2472
vn 0.969 0 -0.2472
vn 0.969 0 -0.2472
vn 0 -0.969 -0.2471
vn 0 -0.969 -0.2471
vn 0 -0.969 -0.2471
vn 0 -0.969 -0.2469
vn 0 -0.969 -0.2469
vn 0 -0.969 -0.2469
vn -0 -0.8183 -0.5748
vn -0 -0.8183 -0.5748
vn -0 -0.8183 -0.5748
vn 0 -0.8182 -0.5749
vn 0 -0.8182 -0.5749
vn 0 -0.8182 -0.5749
vn -0 -0.5748 -0.8183
vn -0 -0.5748 -0.8183
vn -0 -0.5748 -0.8183
vn -0 -0.5748 -0.8183
vn -0 -0.5748 -0.8183
vn -0 -0.5748 -0.8183
vn 0 -0.247 -0.969
vn 0 -0.247 -0.969
vn 0 -0.247 -0.969
vn 0 -0.247 -0.969
vn 0 -0.247 -0.969
vn 0 -0.247 -0.969
vn -0.969 0 -0.247
vn -0.969 0 -0.247
vn -0.969 0 -0.247
vn -0.969 0 -0.247
vn -0.969 0 -0.247
vn -0.969 0 -0.247
vn -0.8184 -0 -0.5746
vn -0.8184 -0 -0.5746
vn -0.8184 -0 -0.5746
vn -0.8184 -0 -0.5746
vn -0.8184 -0 -0.5746
vn -0.8184 -0 -0.5746
vn -0.5748 0 -0.8183
vn -0.5748 0 -0.8183
vn -0.5748 0 -0.8183
vn -0.5747 0 -0.8184
vn -0.5747 0 -0.8184
vn -0.5747 0 -0.8184
vn -0.247 0 -0.969
vn -0.247 0 -0.969
vn -0.247 0 -0.969
vn -0.247 0 -0.969
vn -0.247 0 -0.969
vn -0.247 0 -0.969
vn 0 0.969 -0.247
vn 0 0.969 -0.247
vn 0 0.969 -0.247
vn 0 0.969 -0.247
vn 0 0.969 -0.247
vn 0 0.969 -0.247
vn 0 0.8184 -0.5747
vn 0 0.8184 -0.5747
vn 0 0.8184 -0.5747
vn 0 0.8184 -0.5747
vn 0 0.8184 -0.5747
vn 0 0.8184 -0.5747
vn 0 0.5748 -0.8183
vn 0 0.5748 -0.8183
vn 0 0.5748 -0.8183
vn 0 0.5748 -0.8183
vn 0 0.5748 -0.8183
vn 0 0.5748 -0.8183
vn 0 0.247 -0.969
vn 0 0.247 -0.969
vn 0 0.247 -0.969
vn 0 0.247 -0.969
vn 0 0.247 -0.969
vn 0 0.247 -0.969
vn 1 0 0
vn 1 0 0
vn 1 0 0
vn 1 0 0
vn 1 0 0
vn 1 0 0
f 1/1/1 2/2/2 3/3/3
f 4/4/4 5/5/5 6/6/6
f 7/7/7 8/8/8 9/9/9
f 10/10/10 11/11/11 12/12/12
f 13/13/13 14/14/14 15/15/15
f 16/16/16 17/17/17 18/18/18
f 19/19/19 20/20/20 21/21/21
f 22/22/22 23/23/23 24/24/24
f 25/25/25 26/26/26 27/27/27
f 28/28/28 29/29/29 30/30/30
f 31/31/31 32/32/32 33/33/33
f 34/34/34 35/35/35 36/36/36
f 37/37/37 38/38/38 39/39/39
f 40/40/40 41/41/41 42/42/42
f 43/43/43 44/44/44 45/45/45
f 46/46/46 47/47/47 48/48/48
f 49/49/49 50/50/50 51/51/51
f 52/52/52 53/53/53 54/54/54
f 55/55/55 56/56/56 57/57/57
f 58/58/58 59/59/59 60/60/60
f 61/61/61 62/62/62 63/63/63
f 64/64/64 65/65/65 66/66/66
f 67/67/67 68/68/68 69/69/69
f 70/70/70 71/71/71 72/72/72
f 73/73/73 74/74/74 75/75/75
f 76/76/76 77/77/77 78/78/78
f 79/79/79 80/80/80 81/81/81
f 82/82/82 83/83/83 84/84/84
f 85/85/85 86/86/86 87/87/87
f 88/88/88 89/89/89 90/90/90
f 91/91/91 92/92/92 93/93/93
f 94/94/94 95/95/95 96/96/96
f 97/97/97 98/98/98 99/99/99
f 100/100/100 101/101/101 102/102/102
f 103/103/103 104/104/104 105/105/105
f 106/106/106 107/107/107 108/108/108
f 109/109/109 110/110/110 111/111/111
f 112/112/112 113/113/113 114/114/114
f 115/115/115 116/116/116 117/117/117
f 118/118/118 119/119/119 120/120/120
f 121/121/121 122/122/122 123/123/123
f 124/124/124 125/125/125 126/126/126
f 127/127/127 128/128/128 129/129/129
f 130/130/130 131/131/131 132/132/132
f 133/133/133 134/134/134 135/135/135
f 136/136/136 137/137/137 138/138/138
f 139/139/139 140/140/140 141/141/141
f 142/142/142 143/143/143 144/144/144
f 145/145/145 146/146/146 147/147/147
f 148/148/148 149/149/149 150/150/150
f 151/151/151 152/152/152 153/153/153
f 154/154/154 155/155/155 156/156/156
f 157/157/157 158/158/158 159/159/159
f 160/160/160 161/161/161 162/162/162
f 163/163/163 164/164/164 165/165/165
f 166/166/166 167/167/167 168/168/168
f 169/169/169 170/170/170 171/171/171
f 172/172/172 173/173/173 174/174/174
f 175/175/175 176/176/176 177/177/177
f 178/178/178 179/179/179 180/180/180
f 181/181/181 182/182/182 183/183/183
f 184/184/184 185/185/185 186/186/186
f 187/187/187 188/188/188 189/189/189
f 190/190/190 191/191/191 192/192/192
f 193/193/193 194/194/194 195/195/195
f 196/196/196 197/197/197 198/198/198
f 199/199/199 200/200/200 201/201/201
f 202/202/202 203/203/203 204/204/204
f 205/205/205 206/206/206 207/207/207
f 208/208/208 209/209/209 210/210/210
f 211/211/211 212/212/212 213/213/213
f 214/214/214 215/215/215 216/216/216
f 217/217/217 218/218/218 219/219/219
f 220/220/220 221/221/221 222/222/222
f 223/223/223 224/224/224 225/225/225
f 226/226/226 227/227/227 228/228/228
f 229/229/229 230/230/230 231/231/231
f 232/232/232 233/233/233 234/234/234
f 235/235/235 236/236/236 237/237/237
f 238/238/238 239/239/239 240/240/240
f 241/241/241 242/242/242 243/243/243
f 244/244/244 245/245/245 246/246/246
f 247/247/247 248/248/248 249/249/249
f 250/250/250 251/251/251 252/252/252
f 253/253/253 254/254/254 255/255/255
f 256/256/256 257/257/257 258/258/258
f 259/259/259 260/260/260 261/261/261
f 262/262/262 263/263/263 264/264/264
